<?xml version="1.0" encoding="utf-8"?>
<!-- Generator: Adobe Illustrator 23.0.0, SVG Export Plug-In . SVG Version: 6.00 Build 0)  -->
<svg version="1.1" xmlns="http://www.w3.org/2000/svg" xmlns:xlink="http://www.w3.org/1999/xlink" x="0px" y="0px"
	 viewBox="0 0 256 256" style="enable-background:new 0 0 256 256;" xml:space="preserve">
<style type="text/css">
	.st0{display:none;}
	.st1{display:inline;}
	.st2{fill:#D1C2E2;}
	.st3{fill:#4C2C69;}
	.st4{fill:#B895E2;}
	.st5{fill:#7B4D6C;}
	.st6{fill:#9E3FAC;}
	.st7{fill:#C468D4;}
	.st8{fill:#FBCA6D;}
	.st9{fill:#AEDF85;}
	.st10{fill:#DFC384;}
	.st11{fill:#B2DD85;}
	.st12{fill:#B6DA85;}
	.st13{fill:#4C2C6A;}
	.st14{fill:#AFDF85;}
	.st15{fill:#4C2C68;}
	.st16{fill:#B7434F;}
	.st17{fill:#B1DD87;}
	.st18{fill:#B0DD86;}
	.st19{fill:#B3DB88;}
</style>
<g id="Layer_2" class="st0">
	<g class="st1">
		<path class="st2" d="M60,0h136c33.1,0,60,26.9,60,60v136c0,33.1-26.9,60-60,60H60c-33.1,0-60-26.9-60-60V60C0,26.9,26.9,0,60,0z"
			/>
	</g>
</g>
<g id="Layer_1">
	<g>
		<g>
			<path class="st3" d="M48.7,147.3c0-19.6,0-39.1,0-58.7c0-1.3,0.6-2.4,1.5-3.3c5.2-5.9,10.4-11.8,15.5-17.8
				c4.8-5.5,9.6-11.1,14.5-16.6c0.8-1,1.7-1.9,2.5-2.8c1.1-1.2,2.5-1.9,4.2-1.9c24.3,0,48.5,0,72.8,0c1.9,0,3.1,1.1,3.2,3
				c0,0.6,0,1.1,0,1.7c0,12,0,24,0,36c0,0.7,0.2,1,0.9,1.1c6.6,1.2,12.7,3.7,18.2,7.5c4.7,3.3,8.8,7.3,12,12.1
				c0.3,0.4,0.5,0.5,1,0.3c1.5-0.7,2.4-1.7,3-3.2c0.5-1.2,1.1-2.3,1.6-3.4c0.3-0.5,0.7-0.9,1.1-1.2c2.9-1.7,5.7-3.5,8.6-5.2
				c0.5-0.3,0.9-0.3,1.3,0c0.4,0.4,0.4,0.8,0.3,1.3c-0.5,1.6-0.9,3.2-1.3,4.8c-0.1,0.5,0,0.6,0.4,0.8c1.6,0.7,3.2,1.4,4.8,1.9
				c0.5,0.1,1,0.3,1.1,0.9c0.1,0.7-0.3,1.1-0.9,1.4c-2.3,1.4-4.6,2.8-6.8,4.2c-0.9,0.6-1.8,0.6-2.8,0.5c-1.8-0.2-3.7-0.4-5.5-0.4
				c-0.2,0-0.4,0.1-0.5,0.2c-0.7,0.4-1.4,0.9-2.1,1.2c-0.5,0.3-0.6,0.5-0.3,1.1c1.8,3.3,3,6.8,3.9,10.5c1.3,5.5,1.6,11.2,0.8,16.8
				c-1.6,11.2-6.5,20.6-14.8,28.2c-5.8,5.3-12.5,8.8-20.1,10.7c-1,0.3-2,0.5-3.1,0.6c-0.6,0.1-0.8,0.3-0.8,0.9c0,7.1,0,14.2,0,21.4
				c0,1.4,0,2.8-0.1,4.2c0,1.8-1.3,3.1-3.1,3.1c-31.4,0-62.8,0-94.2,0c-4.6,0-9.1,0-13.7,0c-1.8,0-3.1-1.3-3.1-3.1
				C48.7,186.4,48.7,166.9,48.7,147.3z"/>
			<path class="st4" d="M109.1,137.1c0.2,1.7,0.4,3.4,0.7,5.1c0.4,2.5,1.1,4.9,2,7.2c0.2,0.5,0.1,0.7-0.4,0.6c-0.1,0-0.1,0-0.2,0
				c-18.1,0-36.2,0-54.3,0c-0.9,0-1.5,0.6-1.6,1.4c0,0.9,0.5,1.5,1.5,1.6c0.2,0,0.4,0,0.7,0c18.3,0,36.7,0,55,0c0.7,0,1,0.2,1.3,0.8
				c0.5,1.1,1.1,2.2,1.7,3.3c0.3,0.5,0.2,0.7-0.4,0.7c-5.8,0-11.6,0-17.4,0c-13.4,0-26.8,0-40.3,0c-0.4,0-0.8,0-1.1,0.2
				c-0.7,0.3-1,0.9-0.9,1.7c0.1,0.6,0.6,1.1,1.3,1.1c0.3,0,0.6,0,0.9,0c19.7,0,39.4,0,59.1,0c0.7,0,1.2,0.2,1.6,0.8
				c1.2,1.7,2.6,3.2,4.1,4.9c-0.5,0-0.8,0-1.2,0c-21.4,0-42.8,0-64.3,0c-0.5,0-1,0-1.4,0.3c-0.6,0.3-0.8,0.8-0.7,1.5
				c0.1,0.6,0.5,1,1,1.2c0.4,0.1,0.9,0.1,1.3,0.1c22.6,0,45.3,0,67.9,0c0.4,0,0.8,0,1.2,0.3c1.9,1.6,4,3,6.2,4.3
				c0.2,0.1,0.4,0.2,0.5,0.5c-0.4,0-0.7,0-1.1,0c-25.2,0-50.3,0-75.5,0c-0.4,0-0.8-0.1-1.1,0.2c-0.5,0.4-0.8,0.9-0.6,1.5
				c0.1,0.6,0.5,1,1.1,1.2c0.3,0.1,0.6,0.1,0.9,0.1c27.3,0,54.6,0,81.8,0c1.6,0,2.9,0.6,4.4,1c2.8,0.7,5.6,1.3,8.5,1.6
				c2.7,0.2,5.4,0.3,8.1,0c0.4,0,0.5,0.1,0.5,0.4c0,0.5,0,1.1,0,1.6c0,7.8,0,15.5,0,23.3c0,0.6-0.2,0.8-0.8,0.8
				c-35.3,0-70.7,0-106,0c-1.3,0-1.3,0-1.3-1.3c0-38.2,0-76.3,0-114.5c0-0.9,0-0.9,1-0.9c3.5,0,7,0,10.6,0c0.1,0.6,0,1.2,0,1.7
				c0,14.7,0,29.5,0,44.2c0,0.2,0,0.3,0,0.5c0,1.3,0.3,1.6,1.6,1.6c14.3,0,28.6,0,42.9,0C108.2,137.5,108.7,137.4,109.1,137.1z"/>
			<path class="st4" d="M65,89.4c6.1,0,12.3,0,18.4,0c2.3,0,3.6-1.5,3.6-3.6c0-12,0-23.9,0-35.9c0-0.7,0.1-0.8,0.8-0.8
				c23.7,0,47.4,0,71.1,0c0.8,0,0.9,0.2,0.9,0.9c0,12.1,0,24.3,0,36.4c0,1,0,0.9-0.9,0.9c-5-0.4-9.9,0.1-14.8,1.3
				c-4.9,1.2-9.5,3.2-13.8,6c-4.7,3-8.6,6.7-12,11.1c-2.9,3.8-5.1,8-6.7,12.6c-1.1,3.2-1.9,6.5-2.3,9.9c-0.3,2.4-0.3,4.7-0.3,7.1
				c-0.4,0.4-0.9,0.2-1.3,0.2c-7.5,0-15,0-22.5,0c-6.2,0-12.4,0-18.6,0c-1.5,0-1.6-0.1-1.6-1.6c0-14.2,0-28.5,0-42.7
				C65,90.6,64.9,90,65,89.4z"/>
			<path class="st5" d="M120.7,134.4c-0.2,2.4,0.3,5.1,0.9,7.8c0.3,1.3,0.8,2.6,1.2,3.9c0.7,1.9,1.5,3.7,2.5,5.4
				c1.6,2.7,3.5,5.1,5.7,7.3c1.9,1.9,4.1,3.5,6.3,5c1.3,0.8,2.7,1.5,4,2.1c2,0.9,4,1.6,6.1,2.1s4.2,0.7,6.4,0.9
				c2.5,0.2,4.9,0,7.3-0.4c2.9-0.4,5.7-1.2,8.4-2.4c1.1-0.5,2.1-1,3.1-1.5c1.5-0.8,2.9-1.7,4.2-2.8c1.6-1.3,3.3-2.7,4.7-4.2
				c2-2.3,3.8-4.8,5.2-7.5c1-1.9,1.8-3.9,2.4-5.9c0.6-1.7,0.9-3.5,1.2-5.4c0.4-3.1,0.4-6.2,0-9.3c-0.2-1.7-0.5-3.3-1-5
				c-0.6-2.1-1.4-4.2-2.4-6.1c-0.2-0.4-0.2-0.6,0.2-0.8c1.3-0.8,2.7-1.6,4-2.4c0.6-0.4,1.2-0.7,1.8-1.1c0.5-0.3,0.8-0.3,1,0.2
				c0.4,0.9,0.9,1.9,1.3,2.8c0.5,1.2,1,2.4,1.3,3.6c0.5,1.6,0.9,3.3,1.2,4.9c0.5,2,0.6,4.1,0.8,6.2c0.1,1.4,0.1,2.9-0.1,4.4
				c-0.1,1.5-0.2,3-0.5,4.5c-0.3,2-0.8,4-1.4,6c-1,2.9-2.2,5.8-3.7,8.5c-1.7,3.1-3.9,5.9-6.3,8.4c-2.2,2.2-4.4,4.3-7,6
				c-2.1,1.4-4.2,2.6-6.5,3.6c-2.8,1.2-5.8,2.2-8.8,2.9c-1.6,0.3-3.2,0.6-4.8,0.7c-1.4,0.1-2.8,0.3-4.2,0.3c-4.4-0.2-8.7-0.7-13-2.1
				c-2.7-0.9-5.3-1.9-7.7-3.3c-2.9-1.6-5.6-3.5-8-5.8c-2.9-2.7-5.5-5.7-7.6-9c-0.8-1.2-1.5-2.6-2.1-3.9c-1.4-2.9-2.5-6-3.3-9.2
				c-0.5-2.3-0.9-4.7-1-7.1c-0.1-1.3-0.2-2.5-0.1-3.8c0.2-2.3,0.3-4.7,0.8-7s1.1-4.6,1.9-6.8c0.4-1.3,1.1-2.5,1.7-3.8
				c1-2.1,2.2-4,3.5-5.9c2-2.9,4.4-5.6,7-7.9c1.8-1.5,3.6-3,5.6-4.2c2.9-1.7,5.9-3.1,9-4.2c2.9-1,6-1.6,9.1-1.9
				c2.6-0.2,5.2-0.3,7.8-0.1c2.7,0.2,5.4,0.6,8,1.4c2.8,0.8,5.6,1.8,8.2,3.2c1.9,1,3.7,2.2,5.5,3.4c1.1,0.8,2.2,1.6,3.2,2.5
				c2.5,2.1,4.6,4.6,6.6,7.1c0.2,0.3,0.2,0.6,0.5,0.8c0.3,0.3,0.2,0.6-0.2,0.8c-1.8,1-3.5,2.1-5.3,3.1c-0.1,0.1-0.3,0.1-0.4,0.2
				c-0.5,0.5-0.8,0.3-1.1-0.2c-1.2-1.8-2.6-3.4-4.2-4.8c-2.2-2.1-4.7-3.9-7.4-5.3c-2.3-1.2-4.6-2.2-7.1-2.9c-2.6-0.7-5.2-1.2-8-1.3
				c-2.9-0.2-5.8,0.1-8.6,0.6c-2.2,0.4-4.4,1.1-6.5,2c-3.3,1.3-6.3,3.2-9,5.4c-2.3,1.8-4.2,4.1-6,6.5c-1.7,2.3-3,4.7-4.1,7.3
				c-1.1,2.7-1.8,5.6-2.2,8.5C120.7,130.8,120.7,132.4,120.7,134.4z"/>
			<path class="st6" d="M187.4,133.8c-0.1,2.1-0.2,4.2-0.7,6.3c-0.8,3.7-2.1,7.2-4.1,10.4c-2.1,3.4-4.6,6.3-7.8,8.6
				c-2.7,2-5.6,3.6-8.7,4.6c-2.8,0.9-5.6,1.4-8.5,1.7c-2.9,0.2-5.7-0.1-8.5-0.6c-3.3-0.7-6.3-1.9-9.2-3.5c-2.9-1.7-5.5-3.8-7.7-6.2
				c-2.3-2.5-4.1-5.4-5.5-8.5c-0.9-2-1.5-4.1-1.9-6.2c-0.6-2.7-0.7-5.4-0.7-8.2c0.1-2.3,0.5-4.5,1.1-6.6c0.7-2.7,1.8-5.2,3.2-7.6
				c1.1-1.9,2.4-3.7,3.9-5.3c2.2-2.5,4.8-4.6,7.8-6.3c2-1.1,4-2,6.2-2.7c2.7-0.9,5.4-1.2,8.3-1.5c1.9-0.1,3.7,0,5.6,0.2
				c2.9,0.4,5.7,1.2,8.4,2.4c2.4,1.1,4.7,2.4,6.7,4c1.2,0.9,2.2,1.9,3.3,2.9c1,1,1.8,2.1,2.7,3.2c0.4,0.4,0.4,0.7-0.2,1.1
				c-1.7,0.9-3.4,1.9-5,2.9c-0.6,0.4-1,0.3-1.4-0.3c-1.7-2.3-3.9-4-6.3-5.5c-2.5-1.5-5.2-2.6-8-3.1c-2.7-0.5-5.5-0.5-8.2-0.1
				s-5.2,1.3-7.7,2.5c-3.4,1.7-6.1,4.2-8.3,7.2c-1.6,2.2-2.8,4.6-3.5,7.2c-0.9,3.4-1.3,6.9-0.7,10.5c0.7,4.2,2.2,8,4.9,11.3
				c1.4,1.8,3,3.4,4.9,4.7c1.5,1.1,3.2,2.1,4.9,2.8c1.9,0.8,3.9,1.4,6,1.6c1.1,0.1,2.2,0.3,3.3,0.3c2.8-0.1,5.6-0.5,8.2-1.5
				c3.5-1.3,6.5-3.2,9.1-5.9c1.9-1.9,3.4-4.1,4.6-6.6c1.8-3.8,2.4-7.7,2.2-11.8c-0.1-1.4-0.3-2.9-0.7-4.3c-0.4-1.5-0.9-3-1.5-4.4
				c-0.2-0.3,0-0.6,0.2-0.7c1.8-1.1,3.7-2.2,5.5-3.3c0.3-0.2,0.5-0.1,0.7,0.2c1.3,2.5,2.2,5.2,2.7,7.9
				C187.1,129.8,187.4,131.8,187.4,133.8z"/>
			<path class="st7" d="M166.2,140.9c0.8-1.4,1.5-2.8,1.8-4.4c0.4-2.3,0.4-4.6-0.5-6.9c-0.2-0.5-0.1-0.7,0.4-1c2-1.1,4-2.3,6-3.5
				c0.4-0.2,0.6-0.3,0.8,0.2c1.4,3.2,2,6.6,1.7,10.1c-0.3,3.1-1.2,6-2.7,8.7c-1.5,2.6-3.5,4.9-6,6.6c-1.8,1.3-3.8,2.3-5.9,2.9
				c-5.1,1.5-10.1,1.2-14.9-1c-2.9-1.3-5.4-3.2-7.4-5.7c-2.6-3.3-4.2-7-4.6-11.2c-0.4-3.6,0.2-7,1.6-10.2c2-4.6,5.2-8,9.6-10.3
				c3.5-1.8,7.3-2.6,11.2-2.3c4.4,0.4,8.3,2,11.7,4.8c1,0.8,1.8,1.7,2.6,2.6c0.3,0.4,0.5,0.6-0.1,0.9c-1.9,1.1-3.9,2.1-5.7,3.4
				c-0.8,0.5-1,0.4-1.6-0.2c-2.7-2.5-5.9-3.7-9.7-3.3c-0.2,0-0.4,0-0.7,0c-0.3-0.2-0.2-0.7-0.5-0.9c-0.4-0.4-0.8-0.6-1.4-0.3
				c-0.5,0.2-0.7,0.7-0.6,1.2c0,0.2,0.2,0.4,0.1,0.6c-0.1,0.2-0.4,0.3-0.6,0.4c-2.9,1.1-4.9,3.2-6.4,5.8c-0.4,0.7-0.6,1.4-0.9,2.2
				c-0.1,0.4-0.2,0.8-0.5,1c-0.2,0.1-0.4,0-0.6,0c-0.7-0.1-1.3,0.3-1.4,0.8c-0.1,0.8,0.3,1.2,1.1,1.3c0.3,0,0.6,0,0.8,0.2
				c0.3,0.7,0.1,1.4,0.2,2.2c0.7,3.8,2.7,6.6,5.9,8.7c0,0,0,0,0,0.1c0,0.3-0.5,0.5-0.3,0.8c0.2,0.4,0.4,0.7,0.7,1
				c0.4,0.3,1.1,0.1,1.7-0.5c0.1-0.1,0.1-0.1,0.2-0.2c0.2-0.1,0.5,0,0.7,0c2.6,0.8,5.1,0.6,7.6-0.3c1.1-0.4,2.2-1,3.2-1.7
				c0.3-0.3,0.6-0.5,1-0.7c0.4-0.1,0.8,0,1.2,0c0.8-0.1,1.1-0.5,0.9-1.3C166.1,141.5,166,141.2,166.2,140.9z"/>
			<path class="st8" d="M53.3,86.3c10.2-11.7,20.4-23.3,30.6-35c0.2,0.6,0.1,1.2,0.1,1.7c0,10.8,0,21.6,0,32.4c0,1.1,0.1,1-1,1
				c-9.6,0-19.3,0-28.9,0C53.9,86.4,53.6,86.4,53.3,86.3z"/>
			<path class="st9" d="M65,89.4c0.3,0.2,0.3,0.6,0.3,0.9c0,14.2,0,28.3,0,42.5c0,0.6,0,1.2,0,1.7c-0.1,0.6,0.2,0.7,0.8,0.7
				c4.5,0,9,0,13.5,0c9.8,0,19.6,0,29.5,0c0,0.6,0,1.2,0.1,1.7c0,0.5-0.2,0.6-0.7,0.6c-1.6,0-3.2,0-4.8,0c-13.1,0-26.2,0-39.3,0
				c-0.9,0-1.3-0.4-1.3-1.4c0-14.8,0-29.7,0-44.5c0-0.5,0-1.1,0-1.6c0-0.3,0.1-0.5,0.3-0.7C63.8,89.4,64.4,89.4,65,89.4z"/>
			<path class="st10" d="M166.2,140.9c0,0.2,0,0.4,0.1,0.6c0.4,1-0.1,1.7-1.2,1.7c-0.3,0-0.6,0.1-0.9-0.1c-1.2-0.7-2.4-1-3.7-1.3
				c-0.9-0.5-1.9-0.7-2.9-0.9c-0.4-0.1-0.8,0-1.1,0.4c-0.3,0.5-0.9,0.7-1.3,1.1c-0.2,0.2-0.4,0.3-0.5,0.5c-1,1-2.1,1.8-3,2.9
				c-0.2,0.5-0.6,0.8-1.1,0.9c-0.5,0.1-0.9,0.1-1.2-0.4c-0.7-1-0.7-1-0.1-1.8c0.2-1.2,0.1-2.5,0.1-3.7c0-0.8,0-1.7,0-2.5
				c0-0.4-0.2-0.7-0.5-1c-0.6-0.4-1.2-1-2-1.2c-1-0.7-2.1-1.3-3.3-1.9c-0.2-0.1-0.4-0.2-0.5-0.4c-0.3-0.2-0.7-0.1-1-0.1
				c-0.6,0-0.9-0.4-1-0.9c-0.1-0.6-0.1-1.1,0.6-1.5c0.6-0.3,1.1-0.1,1.6,0c1.4-0.5,2.8-0.9,4.1-1.4c0.8-0.2,1.7-0.4,2.5-1
				c0.2-0.2,0.4-0.3,0.4-0.6c0-0.7,0.4-1.4,0.3-2.2c0.3-1.1,0.5-2.2,0.7-3.3c0.1-0.3,0.1-0.7,0.3-1c-0.4-0.6-0.4-1.2,0.1-1.7
				c0.3-0.4,0.8-0.6,1.3-0.4c0.6,0.3,1,0.8,1,1.5c0.7,1.2,1.5,2.4,2.6,3.4c0.3,0.7,0.9,1.1,1.2,1.8c0.2,0.3,0.5,0.5,0.8,0.5
				c0.9,0,1.8,0.2,2.7-0.3c0.1,0,0.1,0,0.2,0.1c0.6,0.3,1.3,0,1.9-0.1c0.7-0.1,1.4-0.1,2.1-0.6c0.6-0.5,1.5-0.1,1.8,0.5
				c0.4,0.7,0.1,1.5-0.5,2c-1,0.8-1.5,1.9-2.3,2.9v0.1c-0.3,0.7-0.8,1.2-1.2,1.8c-0.5,0.6-0.6,1.2-0.4,1.8c0.3,0.9,0.8,1.7,1,2.6
				c0.3,0.9,0.7,1.8,1.2,2.7C165.4,140.7,165.9,140.8,166.2,140.9z"/>
			<path class="st11" d="M164,137.7c-0.1,0-0.3,0-0.3-0.1c-0.1-1.3-1.3-2.2-1-3.6c0-0.1,0-0.3,0.1-0.4c0.7-0.6,1-1.5,1.8-2.1
				C165.2,133.7,165,135.7,164,137.7z"/>
			<path class="st12" d="M161.5,126.7c-1,0.8-2.2,0.3-3.3,0.4c-0.2,0-0.4-0.3-0.5-0.5c-0.3-0.7-1.2-1-1.1-2
				C158.5,124.8,160.1,125.5,161.5,126.7z"/>
			<path class="st3" d="M127.7,190.6c5.3,0,10.5,0,15.8,0c1.1,0,1.7,0.5,1.8,1.3s-0.4,1.5-1.2,1.6c-0.3,0.1-0.6,0.1-0.9,0.1
				c-10.1,0-20.3,0-30.4,0c-0.4,0-0.9,0-1.3-0.1c-0.9-0.1-1.3-0.6-1.3-1.4c0-0.8,0.5-1.4,1.3-1.5c0.2,0,0.5,0,0.7,0
				C117.3,190.6,122.5,190.6,127.7,190.6z"/>
			<path class="st13" d="M127.6,182.4c5.1,0,10.2,0,15.3,0c1.2,0,1.8,0.6,1.8,1.5c0,0.8-0.6,1.4-1.4,1.5c-0.1,0-0.3,0-0.4,0
				c-10.2,0-20.4,0-30.6,0c-1,0-1.7-0.5-1.8-1.3c-0.1-1,0.5-1.7,1.7-1.7c2.1,0,4.2,0,6.3,0C121.5,182.4,124.6,182.4,127.6,182.4z"/>
			<path class="st14" d="M135.4,73.5c0.9,0,1.9-0.1,2.8,0c1.2,0.2,2.4,0.2,3.6,0.3c1,0.1,1.4,0.8,0.9,1.7c-0.3,0.6-0.8,1.1-1,1.6
				c-0.4,0.9-0.9,1.6-1.3,2.5c-0.5,1-1.1,1.9-1.8,2.8c-0.2,0.3-0.4,0.7-0.6,1.1c-0.2,0.4-0.4,0.7-0.9,0.8c-0.4,0.1-0.8,0.1-1-0.3
				c-0.3-0.4-0.3-0.9-0.1-1.3c0.7-1.3,1.3-2.7,2.3-3.9c0.1-0.2,0.3-0.3,0.2-0.5s-0.4-0.2-0.6-0.1c-0.9,0.6-1.9,0.8-2.7,1.5
				c-0.3,0.3-0.7,0.2-1,0.4c-0.8,0.5-1.6,1-2.4,1.3c-1.1,0.4-2.1,1.2-3.2,1.6c-0.7,0.2-1.2,1-2,1.1c-0.1,0-0.1,0.1-0.1,0.2
				c0,0.8-0.8,1.1-1.2,1.6c-0.2,0.2-0.4,0.2-0.6,0.2c-0.6,0-1.2,0-1.8,0c-0.3,0-0.6,0-0.9,0.2c-1.2,0.8-2.5,1.5-3.7,2.2
				s-2.4,1.3-3.6,2c-1.1,0.6-2.2,1.4-3.2,2c-0.2,0.1-0.2,0.2-0.2,0.4c0,0.5-0.1,1-0.5,1.4c-0.8,1-1.9,1.4-3.1,0.9
				c-0.4-0.2-0.9-0.4-1.2,0.3c0,0.1-0.1,0.1-0.2,0.1c-1.7,0.4-3,1.5-4.5,2.2c-0.8,0.4-1.7,0.7-2.5,1.1c-0.7,0.3-1.3,0.8-2,1.2
				c-0.1,0.1-0.2,0.2-0.3,0.2c-1.3,0.1-2.3,1.1-3.4,1.6c-0.2,0.1-0.4,0.3-0.4,0.5c0.2,0.7-0.5,1-0.8,1.4c-0.4,0.5-1.1,0.3-1.7,0.3
				c-0.3,0-0.4-0.2-0.6-0.3c-0.3,0-0.6,0-1,0.2c-1.3,0.7-2.6,1.5-3.8,2.2c-0.9,0.5-1.9,1.1-2.8,1.7c-0.3,0.2-0.7,0.1-1,0.4
				c-1.4,1.2-3.3,1.8-4.7,2.9c-0.4,0.3-1.2,0.5-1.6,0.8c-0.6,0.5-1.4,0.5-1.9,1.2c-0.3,0.4-0.9,0.4-1.4,0.8
				c-0.2,0.2-0.3,0.3-0.3,0.5c-0.1,0.9-0.5,1.4-1.4,1.6c-1.9,0.5-3-0.4-3-2.3c0-0.8,0.9-1.7,1.7-1.8c0.4-0.1,0.7,0,1.1,0
				c0.8,0.1,1.5,0,2.2-0.6c0.5-0.5,1.3-0.7,1.9-1.1c1-0.6,1.9-1.3,2.9-1.7c0.8-0.3,1.4-0.9,2.2-1.3c0.8-0.4,1.6-0.8,2.3-1.3
				c1.1-0.7,2.2-1.3,3.3-1.9c1.1-0.6,2.2-1.1,3.2-1.9c0.4-0.3,0.7-0.6,0.9-1.2c0.2-0.9,1.7-1.9,2.9-1.4c0.5,0.2,1,0.3,1.6,0
				c1.4-0.7,2.9-1.3,4.2-2.1c1-0.6,2.1-1.1,3.1-1.6c1.3-0.6,2.5-1.4,3.9-1.9c0.5-0.2,0.8-0.6,1.4-0.7c0.3,0,0.7-0.4,0.7-0.9
				c0-0.4,0.5-0.6,0.5-0.9c0.1-0.6,0.6-0.3,0.8-0.4c0.6-0.3,1.3-0.1,2-0.3c0.7-0.2,1.3-0.6,1.9-1c1.8-1,3.6-2.1,5.5-3.1
				c0.6-0.3,1.1-0.9,1.8-1.1c0.8-0.3,1.3-1,2.1-1.1c0.2,0,0.5-0.2,0.5-0.4c0-0.6,0.4-1.1,0.6-1.6c0.2-0.7,0.7-0.8,1.1-0.8
				c0.7-0.1,1.3-0.1,2,0.2c0.5,0.2,1.2,0.2,1.8-0.3s1.4-0.8,2.1-1.1c0.8-0.4,1.6-0.7,2.3-1.2s1.6-0.6,2.4-1.1
				c0.7-0.4,1.4-0.6,2.1-1.1c0.4-0.3,0.8-0.5,1.2-0.7c0.2-0.1,0.4-0.1,0.3-0.4c-0.1-0.3-0.3-0.2-0.5-0.2c-1.5,0-3,0-4.5,0
				c-0.8,0-1.3-0.4-1.4-1.2c-0.1-0.6,0.2-0.9,0.8-0.9C133.2,73.5,134.3,73.5,135.4,73.5L135.4,73.5z"/>
			<path class="st15" d="M160.5,141.6c1.3,0.4,2.7,0.4,3.7,1.5c-3.5,3.1-7.4,4-11.9,2.9c-0.2-0.1-0.5-0.1-0.7-0.2c0-0.1,0-0.2,0-0.3
				c0.9-1,1.8-1.9,2.9-2.6c0.4-0.1,0.8-0.1,1.2-0.1c1.4,0,2.7-0.4,4-1C160,141.8,160.2,141.7,160.5,141.6z"/>
			<path class="st3" d="M143.1,133.7c1.1,0.6,2.2,1.2,3.3,1.8c0.2,0.1,0.2,0.3,0.4,0.4c0.2,0.2,0.2,0.5,0.3,0.7
				c0.4,1.2,1,2.3,1.9,3.2c0.2,0.2,0.4,0.6,0.6,0.8c0,1.1,0,2.1,0,3.2c0,0.3-0.2,0.5-0.3,0.7c-0.3,0.1-0.4-0.1-0.6-0.2
				c-3.4-2.4-5.3-5.6-5.5-9.8C143.1,134.2,143,134,143.1,133.7z"/>
			<path class="st15" d="M147.4,129.9c-1.3,0.7-2.6,1.2-4.1,1.3c0.5-1.6,1-3.2,2.1-4.6c1.6-2.2,3.7-3.8,6.2-4.8
				c0.1,0.6-0.1,1.2-0.3,1.8c-0.2,0.8-0.2,1.7-0.6,2.5c-0.3,0.5-0.8,0.7-1.2,1.1c-0.7,0.7-1.4,1.5-1.9,2.4
				C147.6,129.7,147.5,129.9,147.4,129.9z"/>
			<path class="st16" d="M151.2,143.3c0-1.8,0-3.6,0-5.4c0-1.2-0.4-2-1.5-2.6c-1.5-0.7-2.9-1.6-4.4-2.4c-0.1-0.1-0.3-0.1-0.3-0.4
				c1.2-0.4,2.4-0.8,3.7-1.3c0.8-0.3,1.7-0.6,2.6-0.9c0.5-0.2,0.7-0.6,0.7-1.1c0.4-1.9,0.7-3.8,1.1-5.7c0-0.1,0.1-0.2,0.1-0.4
				c1.4,1.6,2.5,3.3,3.7,5c0.4,0.5,0.8,0.7,1.5,0.6c1.8-0.3,3.7-0.5,5.5-0.7c0.2,0,0.4-0.1,0.7,0.1c-0.4,0.6-0.8,1.2-1.3,1.8
				c-0.7,1-1.4,2-2.2,3c-0.5,0.6-0.5,1.2-0.2,1.8c0.8,1.6,1.5,3.2,2.2,4.7c0.1,0.3,0.4,0.6,0.2,0.8c-0.2,0.3-0.5,0-0.8-0.1
				c-1.6-0.5-3.1-0.9-4.6-1.5c-1-0.4-1.7-0.1-2.4,0.6c-1.3,1.2-2.6,2.4-3.9,3.6C151.6,143.2,151.5,143.3,151.2,143.3z"/>
			<path class="st17" d="M160.5,141.6c-1.8,1.2-3.8,1.7-6,1.3c0-0.3,0.1-0.5,0.4-0.7c0.5-0.4,1.1-0.7,1.5-1.3c0.3-0.5,1-0.5,1.4-0.3
				c0.6,0.3,1.2,0.2,1.8,0.5C159.9,141.3,160.2,141.5,160.5,141.6z"/>
			<path class="st18" d="M149.6,140.7c-1.5-1.3-2.4-2.8-2.8-4.7c0.6-0.1,1,0.2,1.4,0.5c0.3,0.3,0.6,0.6,1,0.7
				c0.3,0.1,0.4,0.4,0.4,0.8C149.6,138.9,149.6,139.8,149.6,140.7z"/>
			<path class="st19" d="M147.4,129.9c0.7-1.6,1.8-2.9,3.4-3.8c0.2,0.9-0.4,1.7-0.3,2.5c0,0.4-0.5,0.4-0.7,0.6
				C149,129.7,148.2,130,147.4,129.9z"/>
		</g>
		<circle class="st14" cx="69.5" cy="114.1" r="2.2"/>
		<circle class="st14" cx="91.3" cy="101.7" r="2.5"/>
		<circle class="st14" cx="69.5" cy="114.1" r="2.5"/>
		<circle class="st14" cx="108.5" cy="93.4" r="2.5"/>
		<circle class="st14" cx="124.3" cy="83.7" r="2.5"/>
		<polygon class="st14" points="137.3,76.2 124.3,82.8 121.7,83.7 110.6,90.5 109.1,92.9 123.2,84.8 126.6,84.2 137.1,78.8 		"/>
		<polygon class="st14" points="107.8,93.4 103.3,95.5 105.2,96.1 109.1,94.7 		"/>
		<polygon class="st14" points="102.8,94.7 107.6,92.4 107.6,94.1 		"/>
		<polygon class="st14" points="102.7,97.5 92.7,102.7 93.5,101 		"/>
		<polygon class="st14" points="83.4,107.4 82.6,108 72,114.1 71,113.8 70.8,111.9 83,105.1 		"/>
	</g>
</g>
</svg>
