<?xml version="1.0" encoding="utf-8"?>
<!-- Generator: Adobe Illustrator 23.0.0, SVG Export Plug-In . SVG Version: 6.00 Build 0)  -->
<svg version="1.1" xmlns="http://www.w3.org/2000/svg" xmlns:xlink="http://www.w3.org/1999/xlink" x="0px" y="0px"
	 viewBox="0 0 256 256" style="enable-background:new 0 0 256 256;" xml:space="preserve">
<style type="text/css">
	.st0{fill:#4D2C69;}
	.st1{fill:#B294C5;}
	.st2{fill:#7B4D6D;}
	.st3{fill:#95489A;}
	.st4{fill:#AD6DAC;}
	.st5{fill:#FAC96E;}
	.st6{fill:#AFD584;}
	.st7{fill:#DEC182;}
	.st8{fill:#B2D685;}
	.st9{fill:#B6D785;}
	.st10{fill:#4C2C6A;}
	.st11{fill:#B0D584;}
	.st12{fill:#4C2C68;}
	.st13{fill:#B64350;}
	.st14{fill:#B2D687;}
	.st15{fill:#B1D685;}
	.st16{fill:#B3D687;}
</style>
<g id="Layer_1">
	<g>
		<g>
			<g>
				<g>
					<path class="st0" d="M0,158.4c0-30,0-59.9,0-89.9c0-2,0.9-3.7,2.3-5.1c8-9,15.9-18.1,23.7-27.3c7.3-8.4,14.7-17,22.2-25.4
						c1.2-1.5,2.6-2.9,3.8-4.3c1.7-1.8,3.8-2.9,6.4-2.9c37.2,0,74.3,0,111.5,0c2.9,0,4.7,1.7,4.9,4.6c0,0.9,0,1.7,0,2.6
						c0,18.4,0,36.7,0,55.1c0,1.1,0.3,1.5,1.4,1.7c10.1,1.8,19.4,5.7,27.9,11.5c7.2,5.1,13.5,11.2,18.4,18.5
						c0.5,0.6,0.8,0.8,1.5,0.5c2.3-1.1,3.7-2.6,4.6-4.9c0.8-1.8,1.7-3.5,2.4-5.2c0.5-0.8,1.1-1.4,1.7-1.8c4.4-2.6,8.7-5.4,13.2-8
						c0.8-0.5,1.4-0.5,2,0c0.6,0.6,0.6,1.2,0.5,2c-0.8,2.4-1.4,4.9-2,7.3c-0.2,0.8,0,0.9,0.6,1.2c2.4,1.1,4.9,2.1,7.3,2.9
						c0.8,0.2,1.5,0.5,1.7,1.4c0.2,1.1-0.5,1.7-1.4,2.1c-3.5,2.1-7,4.3-10.4,6.4c-1.4,0.9-2.8,0.9-4.3,0.8c-2.8-0.3-5.7-0.6-8.4-0.6
						c-0.3,0-0.6,0.2-0.8,0.3c-1.1,0.6-2.1,1.4-3.2,1.8c-0.8,0.5-0.9,0.8-0.5,1.7c2.8,5.1,4.6,10.4,6,16.1c2,8.4,2.4,17.1,1.2,25.7
						c-2.4,17.1-10,31.5-22.7,43.2c-8.9,8.1-19.1,13.5-30.8,16.4c-1.5,0.5-3.1,0.8-4.7,0.9c-0.9,0.2-1.2,0.5-1.2,1.4
						c0,10.9,0,21.7,0,32.8c0,2.1,0,4.3-0.2,6.4c0,2.8-2,4.7-4.7,4.7c-48.1,0-96.1,0-144.2,0c-7,0-13.9,0-21,0c-2.8,0-4.7-2-4.7-4.7
						C0,218.3,0,188.4,0,158.4z"/>
					<path class="st1" d="M92.5,142.8c0.3,2.6,0.6,5.2,1.1,7.8c0.6,3.8,1.7,7.5,3.1,11c0.3,0.8,0.2,1.1-0.6,0.9c-0.2,0-0.2,0-0.3,0
						c-27.7,0-55.4,0-83.1,0c-1.4,0-2.3,0.9-2.4,2.1c0,1.4,0.8,2.3,2.3,2.4c0.3,0,0.6,0,1.1,0c28,0,56.2,0,84.2,0
						c1.1,0,1.5,0.3,2,1.2c0.8,1.7,1.7,3.4,2.6,5.1c0.5,0.8,0.3,1.1-0.6,1.1c-8.9,0-17.8,0-26.6,0c-20.5,0-41,0-61.7,0
						c-0.6,0-1.2,0-1.7,0.3c-1.1,0.5-1.5,1.4-1.4,2.6c0.2,0.9,0.9,1.7,2,1.7c0.5,0,0.9,0,1.4,0c30.2,0,60.3,0,90.5,0
						c1.1,0,1.8,0.3,2.4,1.2c1.8,2.6,4,4.9,6.3,7.5c-0.8,0-1.2,0-1.8,0c-32.8,0-65.5,0-98.4,0c-0.8,0-1.5,0-2.1,0.5
						c-0.9,0.5-1.2,1.2-1.1,2.3c0.2,0.9,0.8,1.5,1.5,1.8c0.6,0.2,1.4,0.2,2,0.2c34.6,0,69.4,0,104,0c0.6,0,1.2,0,1.8,0.5
						c2.9,2.4,6.1,4.6,9.5,6.6c0.3,0.2,0.6,0.3,0.8,0.8c-0.6,0-1.1,0-1.7,0c-38.6,0-77,0-115.6,0c-0.6,0-1.2-0.2-1.7,0.3
						C9.2,201.3,8.7,202,9,203c0.2,0.9,0.8,1.5,1.7,1.8c0.5,0.2,0.9,0.2,1.4,0.2c41.8,0,83.6,0,125.2,0c2.4,0,4.4,0.9,6.7,1.5
						c4.3,1.1,8.6,2,13,2.4c4.1,0.3,8.3,0.5,12.4,0c0.6,0,0.8,0.2,0.8,0.6c0,0.8,0,1.7,0,2.4c0,11.9,0,23.7,0,35.7
						c0,0.9-0.3,1.2-1.2,1.2c-54,0-108.2,0-162.3,0c-2,0-2,0-2-2c0-58.5,0-116.8,0-175.3c0-1.4,0-1.4,1.5-1.4c5.4,0,10.7,0,16.2,0
						c0.2,0.9,0,1.8,0,2.6c0,22.5,0,45.2,0,67.7c0,0.3,0,0.5,0,0.8c0,2,0.5,2.4,2.4,2.4c21.9,0,43.8,0,65.7,0
						C91.1,143.4,91.9,143.3,92.5,142.8z"/>
					<path class="st1" d="M25,69.8c9.3,0,18.8,0,28.2,0c3.5,0,5.5-2.3,5.5-5.5c0-18.4,0-36.6,0-55c0-1.1,0.2-1.2,1.2-1.2
						c36.3,0,72.6,0,108.9,0c1.2,0,1.4,0.3,1.4,1.4c0,18.5,0,37.2,0,55.7c0,1.5,0,1.4-1.4,1.4c-7.7-0.6-15.2,0.2-22.7,2
						c-7.5,1.8-14.5,4.9-21.1,9.2c-7.2,4.6-13.2,10.3-18.4,17c-4.4,5.8-7.8,12.2-10.3,19.3c-1.7,4.9-2.9,10-3.5,15.2
						c-0.5,3.7-0.5,7.2-0.5,10.9c-0.6,0.6-1.4,0.3-2,0.3c-11.5,0-23,0-34.4,0c-9.5,0-19,0-28.5,0c-2.3,0-2.4-0.2-2.4-2.4
						c0-21.7,0-43.6,0-65.4C25,71.6,24.8,70.7,25,69.8z"/>
					<path class="st2" d="M110.2,138.7c-0.3,3.7,0.5,7.8,1.4,11.9c0.5,2,1.2,4,1.8,6c1.1,2.9,2.3,5.7,3.8,8.3
						c2.4,4.1,5.4,7.8,8.7,11.2c2.9,2.9,6.3,5.4,9.6,7.7c2,1.2,4.1,2.3,6.1,3.2c3.1,1.4,6.1,2.4,9.3,3.2c3.2,0.8,6.4,1.1,9.8,1.4
						c3.8,0.3,7.5,0,11.2-0.6c4.4-0.6,8.7-1.8,12.9-3.7c1.7-0.8,3.2-1.5,4.7-2.3c2.3-1.2,4.4-2.6,6.4-4.3c2.4-2,5.1-4.1,7.2-6.4
						c3.1-3.5,5.8-7.3,8-11.5c1.5-2.9,2.8-6,3.7-9c0.9-2.6,1.4-5.4,1.8-8.3c0.6-4.7,0.6-9.5,0-14.2c-0.3-2.6-0.8-5.1-1.5-7.7
						c-0.9-3.2-2.1-6.4-3.7-9.3c-0.3-0.6-0.3-0.9,0.3-1.2c2-1.2,4.1-2.4,6.1-3.7c0.9-0.6,1.8-1.1,2.8-1.7c0.8-0.5,1.2-0.5,1.5,0.3
						c0.6,1.4,1.4,2.9,2,4.3c0.8,1.8,1.5,3.7,2,5.5c0.8,2.4,1.4,5.1,1.8,7.5c0.8,3.1,0.9,6.3,1.2,9.5c0.2,2.1,0.2,4.4-0.2,6.7
						c-0.2,2.3-0.3,4.6-0.8,6.9c-0.5,3.1-1.2,6.1-2.1,9.2c-1.5,4.4-3.4,8.9-5.7,13c-2.6,4.7-6,9-9.6,12.9c-3.4,3.4-6.7,6.6-10.7,9.2
						c-3.2,2.1-6.4,4-10,5.5c-4.3,1.8-8.9,3.4-13.5,4.4c-2.4,0.5-4.9,0.9-7.3,1.1c-2.1,0.2-4.3,0.5-6.4,0.5
						c-6.7-0.3-13.3-1.1-19.9-3.2c-4.1-1.4-8.1-2.9-11.8-5.1c-4.4-2.4-8.6-5.4-12.2-8.9c-4.4-4.1-8.4-8.7-11.6-13.8
						c-1.2-1.8-2.3-4-3.2-6c-2.1-4.4-3.8-9.2-5.1-14.1c-0.8-3.5-1.4-7.2-1.5-10.9c-0.2-2-0.3-3.8-0.2-5.8c0.3-3.5,0.5-7.2,1.2-10.7
						c0.8-3.5,1.7-7,2.9-10.4c0.6-2,1.7-3.8,2.6-5.8c1.5-3.2,3.4-6.1,5.4-9c3.1-4.4,6.7-8.6,10.7-12.1c2.8-2.3,5.5-4.6,8.6-6.4
						c4.4-2.6,9-4.7,13.8-6.4c4.4-1.5,9.2-2.4,13.9-2.9c4-0.3,8-0.5,11.9-0.2c4.1,0.3,8.3,0.9,12.2,2.1c4.3,1.2,8.6,2.8,12.6,4.9
						c2.9,1.5,5.7,3.4,8.4,5.2c1.7,1.2,3.4,2.4,4.9,3.8c3.8,3.2,7,7,10.1,10.9c0.3,0.5,0.3,0.9,0.8,1.2c0.5,0.5,0.3,0.9-0.3,1.2
						c-2.8,1.5-5.4,3.2-8.1,4.7c-0.2,0.2-0.5,0.2-0.6,0.3c-0.8,0.8-1.2,0.5-1.7-0.3c-1.8-2.8-4-5.2-6.4-7.3c-3.4-3.2-7.2-6-11.3-8.1
						c-3.5-1.8-7-3.4-10.9-4.4c-4-1.1-8-1.8-12.2-2c-4.4-0.3-8.9,0.2-13.2,0.9c-3.4,0.6-6.7,1.7-10,3.1c-5.1,2-9.6,4.9-13.8,8.3
						c-3.5,2.8-6.4,6.3-9.2,10c-2.6,3.5-4.6,7.2-6.3,11.2c-1.7,4.1-2.8,8.6-3.4,13C110.2,133.2,110.2,135.6,110.2,138.7z"/>
					<path class="st3" d="M212.3,137.7c-0.2,3.2-0.3,6.4-1.1,9.6c-1.2,5.7-3.2,11-6.3,15.9c-3.2,5.2-7,9.6-11.9,13.2
						c-4.1,3.1-8.6,5.5-13.3,7c-4.3,1.4-8.6,2.1-13,2.6c-4.4,0.3-8.7-0.2-13-0.9c-5.1-1.1-9.6-2.9-14.1-5.4
						c-4.4-2.6-8.4-5.8-11.8-9.5c-3.5-3.8-6.3-8.3-8.4-13c-1.4-3.1-2.3-6.3-2.9-9.5c-0.9-4.1-1.1-8.3-1.1-12.6
						c0.2-3.5,0.8-6.9,1.7-10.1c1.1-4.1,2.8-8,4.9-11.6c1.7-2.9,3.7-5.7,6-8.1c3.4-3.8,7.3-7,11.9-9.6c3.1-1.7,6.1-3.1,9.5-4.1
						c4.1-1.4,8.3-1.8,12.7-2.3c2.9-0.2,5.7,0,8.6,0.3c4.4,0.6,8.7,1.8,12.9,3.7c3.7,1.7,7.2,3.7,10.3,6.1c1.8,1.4,3.4,2.9,5.1,4.4
						c1.5,1.5,2.8,3.2,4.1,4.9c0.6,0.6,0.6,1.1-0.3,1.7c-2.6,1.4-5.2,2.9-7.7,4.4c-0.9,0.6-1.5,0.5-2.1-0.5c-2.6-3.5-6-6.1-9.6-8.4
						c-3.8-2.3-8-4-12.2-4.7c-4.1-0.8-8.4-0.8-12.6-0.2c-4.1,0.6-8,2-11.8,3.8c-5.2,2.6-9.3,6.4-12.7,11c-2.4,3.4-4.3,7-5.4,11
						c-1.4,5.2-2,10.6-1.1,16.1c1.1,6.4,3.4,12.2,7.5,17.3c2.1,2.8,4.6,5.2,7.5,7.2c2.3,1.7,4.9,3.2,7.5,4.3c2.9,1.2,6,2.1,9.2,2.4
						c1.7,0.2,3.4,0.5,5.1,0.5c4.3-0.2,8.6-0.8,12.6-2.3c5.4-2,10-4.9,13.9-9c2.9-2.9,5.2-6.3,7-10.1c2.8-5.8,3.7-11.8,3.4-18.1
						c-0.2-2.1-0.5-4.4-1.1-6.6c-0.6-2.3-1.4-4.6-2.3-6.7c-0.3-0.5,0-0.9,0.3-1.1c2.8-1.7,5.7-3.4,8.4-5.1c0.5-0.3,0.8-0.2,1.1,0.3
						c2,3.8,3.4,8,4.1,12.1C211.9,131.6,212.3,134.7,212.3,137.7z"/>
					<path class="st4" d="M179.9,148.6c1.2-2.1,2.3-4.3,2.8-6.7c0.6-3.5,0.6-7-0.8-10.6c-0.3-0.8-0.2-1.1,0.6-1.5
						c3.1-1.7,6.1-3.5,9.2-5.4c0.6-0.3,0.9-0.5,1.2,0.3c2.1,4.9,3.1,10.1,2.6,15.5c-0.5,4.7-1.8,9.2-4.1,13.3
						c-2.3,4-5.4,7.5-9.2,10.1c-2.8,2-5.8,3.5-9,4.4c-7.8,2.3-15.5,1.8-22.8-1.5c-4.4-2-8.3-4.9-11.3-8.7c-4-5.1-6.4-10.7-7-17.1
						c-0.6-5.5,0.3-10.7,2.4-15.6c3.1-7,8-12.2,14.7-15.8c5.4-2.8,11.2-4,17.1-3.5c6.7,0.6,12.7,3.1,17.9,7.3c1.5,1.2,2.8,2.6,4,4
						c0.5,0.6,0.8,0.9-0.2,1.4c-2.9,1.7-6,3.2-8.7,5.2c-1.2,0.8-1.5,0.6-2.4-0.3c-4.1-3.8-9-5.7-14.9-5.1c-0.3,0-0.6,0-1.1,0
						c-0.5-0.3-0.3-1.1-0.8-1.4c-0.6-0.6-1.2-0.9-2.1-0.5c-0.8,0.3-1.1,1.1-0.9,1.8c0,0.3,0.3,0.6,0.2,0.9c-0.2,0.3-0.6,0.5-0.9,0.6
						c-4.4,1.7-7.5,4.9-9.8,8.9c-0.6,1.1-0.9,2.1-1.4,3.4c-0.2,0.6-0.3,1.2-0.8,1.5c-0.3,0.2-0.6,0-0.9,0c-1.1-0.2-2,0.5-2.1,1.2
						c-0.2,1.2,0.5,1.8,1.7,2c0.5,0,0.9,0,1.2,0.3c0.5,1.1,0.2,2.1,0.3,3.4c1.1,5.8,4.1,10.1,9,13.3c0,0,0,0,0,0.2
						c0,0.5-0.8,0.8-0.5,1.2c0.3,0.6,0.6,1.1,1.1,1.5c0.6,0.5,1.7,0.2,2.6-0.8c0.2-0.2,0.2-0.2,0.3-0.3c0.3-0.2,0.8,0,1.1,0
						c4,1.2,7.8,0.9,11.6-0.5c1.7-0.6,3.4-1.5,4.9-2.6c0.5-0.5,0.9-0.8,1.5-1.1c0.6-0.2,1.2,0,1.8,0c1.2-0.2,1.7-0.8,1.4-2
						C179.7,149.5,179.6,149.1,179.9,148.6z"/>
					<path class="st5" d="M7,65c15.6-17.9,31.2-35.7,46.8-53.6c0.3,0.9,0.2,1.8,0.2,2.6c0,16.5,0,33.1,0,49.6c0,1.7,0.2,1.5-1.5,1.5
						c-14.7,0-29.5,0-44.2,0C8,65.2,7.5,65.2,7,65z"/>
					<path class="st6" d="M25,69.8c0.5,0.3,0.5,0.9,0.5,1.4c0,21.7,0,43.3,0,65.1c0,0.9,0,1.8,0,2.6c-0.2,0.9,0.3,1.1,1.2,1.1
						c6.9,0,13.8,0,20.7,0c15,0,30,0,45.2,0c0,0.9,0,1.8,0.2,2.6c0,0.8-0.3,0.9-1.1,0.9c-2.4,0-4.9,0-7.3,0c-20.1,0-40.1,0-60.2,0
						c-1.4,0-2-0.6-2-2.1c0-22.7,0-45.5,0-68.1c0-0.8,0-1.7,0-2.4c0-0.5,0.2-0.8,0.5-1.1C23.1,69.8,24,69.8,25,69.8z"/>
					<path class="st7" d="M179.9,148.6c0,0.3,0,0.6,0.2,0.9c0.6,1.5-0.2,2.6-1.8,2.6c-0.5,0-0.9,0.2-1.4-0.2c-1.8-1.1-3.7-1.5-5.7-2
						c-1.4-0.8-2.9-1.1-4.4-1.4c-0.6-0.2-1.2,0-1.7,0.6c-0.5,0.8-1.4,1.1-2,1.7c-0.3,0.3-0.6,0.5-0.8,0.8c-1.5,1.5-3.2,2.8-4.6,4.4
						c-0.3,0.8-0.9,1.2-1.7,1.4c-0.8,0.2-1.4,0.2-1.8-0.6c-1.1-1.5-1.1-1.5-0.2-2.8c0.3-1.8,0.2-3.8,0.2-5.7c0-1.2,0-2.6,0-3.8
						c0-0.6-0.3-1.1-0.8-1.5c-0.9-0.6-1.8-1.5-3.1-1.8c-1.5-1.1-3.2-2-5.1-2.9c-0.3-0.2-0.6-0.3-0.8-0.6c-0.5-0.3-1.1-0.2-1.5-0.2
						c-0.9,0-1.4-0.6-1.5-1.4c-0.2-0.9-0.2-1.7,0.9-2.3c0.9-0.5,1.7-0.2,2.4,0c2.1-0.8,4.3-1.4,6.3-2.1c1.2-0.3,2.6-0.6,3.8-1.5
						c0.3-0.3,0.6-0.5,0.6-0.9c0-1.1,0.6-2.1,0.5-3.4c0.5-1.7,0.8-3.4,1.1-5.1c0.2-0.5,0.2-1.1,0.5-1.5c-0.6-0.9-0.6-1.8,0.2-2.6
						c0.5-0.6,1.2-0.9,2-0.6c0.9,0.5,1.5,1.2,1.5,2.3c1.1,1.8,2.3,3.7,4,5.2c0.5,1.1,1.4,1.7,1.8,2.8c0.3,0.5,0.8,0.8,1.2,0.8
						c1.4,0,2.8,0.3,4.1-0.5c0.2,0,0.2,0,0.3,0.2c0.9,0.5,2,0,2.9-0.2c1.1-0.2,2.1-0.2,3.2-0.9c0.9-0.8,2.3-0.2,2.8,0.8
						c0.6,1.1,0.2,2.3-0.8,3.1c-1.5,1.2-2.3,2.9-3.5,4.4v0.2c-0.5,1.1-1.2,1.8-1.8,2.8c-0.8,0.9-0.9,1.8-0.6,2.8
						c0.5,1.4,1.2,2.6,1.5,4c0.5,1.4,1.1,2.8,1.8,4.1C178.7,148.3,179.4,148.5,179.9,148.6z"/>
					<path class="st8" d="M176.5,143.7c-0.2,0-0.5,0-0.5-0.2c-0.2-2-2-3.4-1.5-5.5c0-0.2,0-0.5,0.2-0.6c1.1-0.9,1.5-2.3,2.8-3.2
						C178.4,137.6,178.1,140.7,176.5,143.7z"/>
					<path class="st9" d="M172.7,126.9c-1.5,1.2-3.4,0.5-5.1,0.6c-0.3,0-0.6-0.5-0.8-0.8c-0.5-1.1-1.8-1.5-1.7-3.1
						C168.1,124,170.5,125,172.7,126.9z"/>
					<path class="st0" d="M120.9,224.7c8.1,0,16.1,0,24.2,0c1.7,0,2.6,0.8,2.8,2c0.2,1.2-0.6,2.3-1.8,2.4c-0.5,0.2-0.9,0.2-1.4,0.2
						c-15.5,0-31.1,0-46.5,0c-0.6,0-1.4,0-2-0.2c-1.4-0.2-2-0.9-2-2.1c0-1.2,0.8-2.1,2-2.3c0.3,0,0.8,0,1.1,0
						C105,224.7,113,224.7,120.9,224.7z"/>
					<path class="st10" d="M120.8,212.2c7.8,0,15.6,0,23.4,0c1.8,0,2.8,0.9,2.8,2.3c0,1.2-0.9,2.1-2.1,2.3c-0.2,0-0.5,0-0.6,0
						c-15.6,0-31.2,0-46.8,0c-1.5,0-2.6-0.8-2.8-2c-0.2-1.5,0.8-2.6,2.6-2.6c3.2,0,6.4,0,9.6,0C111.5,212.2,116.2,212.2,120.8,212.2
						z"/>
					<path class="st11" d="M132.7,45.4c1.4,0,2.9-0.2,4.3,0c1.8,0.3,3.7,0.3,5.5,0.5c1.5,0.2,2.1,1.2,1.4,2.6
						c-0.5,0.9-1.2,1.7-1.5,2.4c-0.6,1.4-1.4,2.4-2,3.8c-0.8,1.5-1.7,2.9-2.8,4.3c-0.3,0.5-0.6,1.1-0.9,1.7
						c-0.3,0.6-0.6,1.1-1.4,1.2c-0.6,0.2-1.2,0.2-1.5-0.5c-0.5-0.6-0.5-1.4-0.2-2c1.1-2,2-4.1,3.5-6c0.2-0.3,0.5-0.5,0.3-0.8
						c-0.2-0.3-0.6-0.3-0.9-0.2c-1.4,0.9-2.9,1.2-4.1,2.3c-0.5,0.5-1.1,0.3-1.5,0.6c-1.2,0.8-2.4,1.5-3.7,2
						c-1.7,0.6-3.2,1.8-4.9,2.4c-1.1,0.3-1.8,1.5-3.1,1.7c-0.2,0-0.2,0.2-0.2,0.3c0,1.2-1.2,1.7-1.8,2.4c-0.3,0.3-0.6,0.3-0.9,0.3
						c-0.9,0-1.8,0-2.8,0c-0.5,0-0.9,0-1.4,0.3c-1.8,1.2-3.8,2.3-5.7,3.4c-1.8,1.1-3.7,2-5.5,3.1c-1.7,0.9-3.4,2.1-4.9,3.1
						c-0.3,0.2-0.3,0.3-0.3,0.6c0,0.8-0.2,1.5-0.8,2.1c-1.2,1.5-2.9,2.1-4.7,1.4c-0.6-0.3-1.4-0.6-1.8,0.5c0,0.2-0.2,0.2-0.3,0.2
						c-2.6,0.6-4.6,2.3-6.9,3.4c-1.2,0.6-2.6,1.1-3.8,1.7c-1.1,0.5-2,1.2-3.1,1.8c-0.2,0.2-0.3,0.3-0.5,0.3c-2,0.2-3.5,1.7-5.2,2.4
						c-0.3,0.2-0.6,0.5-0.6,0.8c0.3,1.1-0.8,1.5-1.2,2.1c-0.6,0.8-1.7,0.5-2.6,0.5c-0.5,0-0.6-0.3-0.9-0.5c-0.5,0-0.9,0-1.5,0.3
						c-2,1.1-4,2.3-5.8,3.4c-1.4,0.8-2.9,1.7-4.3,2.6c-0.5,0.3-1.1,0.2-1.5,0.6c-2.1,1.8-5.1,2.8-7.2,4.4c-0.6,0.5-1.8,0.8-2.4,1.2
						c-0.9,0.8-2.1,0.8-2.9,1.8c-0.5,0.6-1.4,0.6-2.1,1.2c-0.3,0.3-0.5,0.5-0.5,0.8c-0.2,1.4-0.8,2.1-2.1,2.4
						c-2.9,0.8-4.6-0.6-4.6-3.5c0-1.2,1.4-2.6,2.6-2.8c0.6-0.2,1.1,0,1.7,0c1.2,0.2,2.3,0,3.4-0.9c0.8-0.8,2-1.1,2.9-1.7
						c1.5-0.9,2.9-2,4.4-2.6c1.2-0.5,2.1-1.4,3.4-2c1.2-0.6,2.4-1.2,3.5-2c1.7-1.1,3.4-2,5.1-2.9c1.7-0.9,3.4-1.7,4.9-2.9
						c0.6-0.5,1.1-0.9,1.4-1.8c0.3-1.4,2.6-2.9,4.4-2.1c0.8,0.3,1.5,0.5,2.4,0c2.1-1.1,4.4-2,6.4-3.2c1.5-0.9,3.2-1.7,4.7-2.4
						c2-0.9,3.8-2.1,6-2.9c0.8-0.3,1.2-0.9,2.1-1.1c0.5,0,1.1-0.6,1.1-1.4c0-0.6,0.8-0.9,0.8-1.4c0.2-0.9,0.9-0.5,1.2-0.6
						c0.9-0.5,2-0.2,3.1-0.5c1.1-0.3,2-0.9,2.9-1.5c2.8-1.5,5.5-3.2,8.4-4.7c0.9-0.5,1.7-1.4,2.8-1.7c1.2-0.5,2-1.5,3.2-1.7
						c0.3,0,0.8-0.3,0.8-0.6c0-0.9,0.6-1.7,0.9-2.4c0.3-1.1,1.1-1.2,1.7-1.2c1.1-0.2,2-0.2,3.1,0.3c0.8,0.3,1.8,0.3,2.8-0.5
						c0.9-0.8,2.1-1.2,3.2-1.7c1.2-0.6,2.4-1.1,3.5-1.8c1.1-0.8,2.4-0.9,3.7-1.7c1.1-0.6,2.1-0.9,3.2-1.7c0.6-0.5,1.2-0.8,1.8-1.1
						c0.3-0.2,0.6-0.2,0.5-0.6c-0.2-0.5-0.5-0.3-0.8-0.3c-2.3,0-4.6,0-6.9,0c-1.2,0-2-0.6-2.1-1.8c-0.2-0.9,0.3-1.4,1.2-1.4
						C129.4,45.4,131.1,45.4,132.7,45.4L132.7,45.4z"/>
					<path class="st12" d="M171.2,149.7c2,0.6,4.1,0.6,5.7,2.3c-5.4,4.7-11.3,6.1-18.2,4.4c-0.3-0.2-0.8-0.2-1.1-0.3
						c0-0.2,0-0.3,0-0.5c1.4-1.5,2.8-2.9,4.4-4c0.6-0.2,1.2-0.2,1.8-0.2c2.1,0,4.1-0.6,6.1-1.5C170.4,150,170.7,149.8,171.2,149.7z"
						/>
					<path class="st0" d="M144.5,137.6c1.7,0.9,3.4,1.8,5.1,2.8c0.3,0.2,0.3,0.5,0.6,0.6c0.3,0.3,0.3,0.8,0.5,1.1
						c0.6,1.8,1.5,3.5,2.9,4.9c0.3,0.3,0.6,0.9,0.9,1.2c0,1.7,0,3.2,0,4.9c0,0.5-0.3,0.8-0.5,1.1c-0.5,0.2-0.6-0.2-0.9-0.3
						c-5.2-3.7-8.1-8.6-8.4-15C144.5,138.4,144.4,138.1,144.5,137.6z"/>
					<path class="st12" d="M151.1,131.8c-2,1.1-4,1.8-6.3,2c0.8-2.4,1.5-4.9,3.2-7c2.4-3.4,5.7-5.8,9.5-7.3c0.2,0.9-0.2,1.8-0.5,2.8
						c-0.3,1.2-0.3,2.6-0.9,3.8c-0.5,0.8-1.2,1.1-1.8,1.7c-1.1,1.1-2.1,2.3-2.9,3.7C151.4,131.5,151.3,131.8,151.1,131.8z"/>
					<path class="st13" d="M156.9,152.3c0-2.8,0-5.5,0-8.3c0-1.8-0.6-3.1-2.3-4c-2.3-1.1-4.4-2.4-6.7-3.7c-0.2-0.2-0.5-0.2-0.5-0.6
						c1.8-0.6,3.7-1.2,5.7-2c1.2-0.5,2.6-0.9,4-1.4c0.8-0.3,1.1-0.9,1.1-1.7c0.6-2.9,1.1-5.8,1.7-8.7c0-0.2,0.2-0.3,0.2-0.6
						c2.1,2.4,3.8,5.1,5.7,7.7c0.6,0.8,1.2,1.1,2.3,0.9c2.8-0.5,5.7-0.8,8.4-1.1c0.3,0,0.6-0.2,1.1,0.2c-0.6,0.9-1.2,1.8-2,2.8
						c-1.1,1.5-2.1,3.1-3.4,4.6c-0.8,0.9-0.8,1.8-0.3,2.8c1.2,2.4,2.3,4.9,3.4,7.2c0.2,0.5,0.6,0.9,0.3,1.2c-0.3,0.5-0.8,0-1.2-0.2
						c-2.4-0.8-4.7-1.4-7-2.3c-1.5-0.6-2.6-0.2-3.7,0.9c-2,1.8-4,3.7-6,5.5C157.5,152.1,157.4,152.3,156.9,152.3z"/>
					<path class="st14" d="M171.2,149.7c-2.8,1.8-5.8,2.6-9.2,2c0-0.5,0.2-0.8,0.6-1.1c0.8-0.6,1.7-1.1,2.3-2
						c0.5-0.8,1.5-0.8,2.1-0.5c0.9,0.5,1.8,0.3,2.8,0.8C170.2,149.2,170.7,149.5,171.2,149.7z"/>
					<path class="st15" d="M154.5,148.3c-2.3-2-3.7-4.3-4.3-7.2c0.9-0.2,1.5,0.3,2.1,0.8c0.5,0.5,0.9,0.9,1.5,1.1
						c0.5,0.2,0.6,0.6,0.6,1.2C154.5,145.6,154.5,146.9,154.5,148.3z"/>
					<path class="st16" d="M151.1,131.8c1.1-2.4,2.8-4.4,5.2-5.8c0.3,1.4-0.6,2.6-0.5,3.8c0,0.6-0.8,0.6-1.1,0.9
						C153.6,131.5,152.3,131.9,151.1,131.8z"/>
				</g>
				<circle class="st11" cx="31.8" cy="107.6" r="3.4"/>
				<circle class="st11" cx="65.2" cy="88.6" r="3.8"/>
				<circle class="st11" cx="31.8" cy="107.6" r="3.8"/>
				<circle class="st11" cx="91.6" cy="75.9" r="3.8"/>
				<circle class="st11" cx="115.7" cy="61" r="3.8"/>
				<polygon class="st11" points="135.6,49.6 115.7,59.7 111.8,61 94.8,71.5 92.5,75.1 114.1,62.7 119.3,61.8 135.3,53.5 				"/>
				<polygon class="st11" points="90.5,75.9 83.6,79.1 86.5,80 92.5,77.9 				"/>
				<polygon class="st11" points="82.8,77.9 90.2,74.4 90.2,77 				"/>
				<polygon class="st11" points="82.7,82.2 67.4,90.1 68.6,87.5 				"/>
				<polygon class="st11" points="53.1,97.3 51.9,98.2 35.7,107.6 34.1,107.1 33.8,104.2 52.5,93.8 				"/>
			</g>
			<polygon class="st11" points="90.3,78.7 68.1,89.7 70.1,86.2 68.4,85.4 94.8,71.5 			"/>
			<polygon class="st11" points="38.9,101.8 46.3,101.5 70.7,88.4 68.4,85.4 			"/>
		</g>
		<polygon class="st0" points="31.8,67.8 31.5,69.6 35.7,69.8 16.4,70.2 33,66.5 		"/>
	</g>
</g>
<g id="Layer_2">
</g>
</svg>
