<?xml version="1.0" encoding="utf-8"?>
<!-- Generator: Adobe Illustrator 23.0.0, SVG Export Plug-In . SVG Version: 6.00 Build 0)  -->
<svg version="1.1" xmlns="http://www.w3.org/2000/svg" xmlns:xlink="http://www.w3.org/1999/xlink" x="0px" y="0px"
	 viewBox="0 0 256 256" style="enable-background:new 0 0 256 256;" xml:space="preserve">
<style type="text/css">
	.st0{fill:#543770;}
	.st1{fill:#4C2D69;}
	.st2{fill:#7B4D6C;}
	.st3{fill:#6C3A6D;}
	.st4{fill:#6F65A4;}
	.st5{fill:#6C914E;}
	.st6{fill:#AD6CAC;}
	.st7{fill:#A492BA;}
	.st8{fill:#EBA1C6;}
	.st9{fill:#D0C1DE;}
	.st10{fill:#B1D684;}
	.st11{fill:#DFC284;}
	.st12{fill:#B38FC2;}
	.st13{fill:#AA7EB7;}
	.st14{fill:#573A73;}
	.st15{fill:#A37AB4;}
	.st16{fill:#9888BF;}
	.st17{fill:#C38ABC;}
	.st18{fill:#96489A;}
	.st19{fill:#8AAB6E;}
	.st20{fill:#99B06E;}
	.st21{fill:#9BB66F;}
	.st22{fill:#98B36D;}
	.st23{fill:#B294C5;}
	.st24{fill:#FACA6E;}
	.st25{fill:#B0D584;}
	.st26{fill:#CEBCDB;}
	.st27{fill:#A35FA5;}
	.st28{fill:#5C3476;}
	.st29{fill:#CCB8D9;}
	.st30{fill:#CEBEDD;}
	.st31{fill:#65397E;}
	.st32{fill:#63387B;}
	.st33{fill:#5E387A;}
	.st34{fill:#64387C;}
	.st35{fill:#603875;}
	.st36{fill:#C8B0D4;}
	.st37{fill:#CCBADA;}
	.st38{fill:#63387C;}
	.st39{fill:#A880B4;}
	.st40{fill:#B9ABD3;}
	.st41{fill:#613877;}
	.st42{fill:#5C3977;}
	.st43{fill:#643A7B;}
	.st44{fill:#CAB5D7;}
	.st45{fill:#5F3978;}
	.st46{fill:#C6AAD1;}
	.st47{fill:#B391C3;}
	.st48{fill:#CDB8D9;}
	.st49{fill:#603C79;}
	.st50{fill:#BE99C6;}
	.st51{fill:#8977AF;}
	.st52{fill:#8B87B4;}
	.st53{fill:#64407D;}
	.st54{fill:#80428B;}
	.st55{fill:#4D2D69;}
	.st56{fill:#4E2E6A;}
	.st57{fill:#4E2F6B;}
	.st58{fill:#B6A7CC;}
	.st59{fill:#C0AACF;}
	.st60{fill:#AA9DC4;}
	.st61{fill:#4F2F69;}
	.st62{fill:#503269;}
	.st63{fill:#775B71;}
	.st64{fill:#6C4F6E;}
	.st65{fill:#796173;}
	.st66{fill:#755A72;}
</style>
<g id="Layer_1">
	<g>
		<path class="st0" d="M45.8,230.8c-0.6,0.1-1.3,0.1-1.8,0c-0.8,0-1.3-0.6-1.5-1.3c-0.3-0.6-0.4-1.3-0.4-1.8c0-5.1,0-10.3,0-15.4
			c0-1.3,0.1-1.1-1.1-1.1c-5.6,0-11.3,0-16.8,0c-1.7,0-2.6-0.8-2.6-2.5c0-0.3,0-0.4,0-0.7c0-4.7,0-9.5,0-14.2c0-0.3,0-0.6,0-0.7
			c0-0.4-0.1-0.6-0.6-0.6c-0.1,0-0.4,0-0.6,0c-5.3,0-10.6,0-16,0c-0.3,0-0.6,0-0.8,0c-1.3,0.4-1.9-0.1-2.5-1.3
			c-0.3-0.4-0.4-1-0.4-1.4c0-0.1,0-0.4,0-0.6c0-37.3,0-74.6,0-111.9c0-1.1,0.3-2.1,1.1-2.9c2.8-2.9,5.7-5.8,8.5-8.8
			c1.1-1.1,2.1-2.4,3.3-3.3c2.2-2.1,4.3-4.5,6.4-6.7c2.8-2.8,5.6-5.6,8.2-8.3c1.7-1.7,3.2-3.5,4.9-5.1c1.5-1.5,2.9-3.1,4.5-4.5
			c0.8-0.8,1.7-1.8,2.5-2.6c0.7-0.7,1.5-1.1,2.5-1.1c0.8,0,1.5,0,2.4,0.1c0.4,0.1,1-0.1,1.5-0.1c25.2,0,50.2,0,75.4,0
			c0.3,0,0.7,0,1,0c1.5,0.3,2.4,1.3,2.4,2.9c0,4.9,0,9.6,0,14.5c0,0.3,0,0.4,0,0.7c0,0.4,0.1,0.7,0.6,0.6c0.3,0,0.4,0,0.7,0
			c5.4,0,10.9,0,16.3,0c0.7,0,1.3,0.1,1.8,0.4c1,0.4,1.4,1.3,1.4,2.2c0,0.7,0,1.3,0,1.9c0,4.6,0,9,0,13.6c0,0.1,0,0.3,0,0.4
			c0,1,0,1,1,1c5.7,0,11.3,0,17,0c1.5,0,2.4,0.7,2.8,1.9c0.1,0.3,0.1,0.6,0.1,1c0,2.5,0,5.1,0,7.7c0,0.3-0.1,0.7,0.1,1
			c0.1,0.3,0,0.6-0.3,0.7c-1.7,1.7-3.2,3.3-4.6,5.3c-0.3,0.3-0.6,0.7-0.8,0c-0.1-3.1,0-6.1-0.1-9.2c0-2.4,0.1-2.1-2.1-2.1
			c-23.7,0-47.2,0-70.8,0c-1.8,0-1.8,0-1.8,1.8c0,11.4,0,22.7,0,34.1c0,0.4,0,1,0,1.4c-0.1,1.5-1.3,2.8-2.9,2.8c-0.4,0-0.8,0-1.3,0
			c-10.7,0-21.3,0-32,0c-0.3,0-0.7,0-1,0c-1,0-1.1,0.1-1.1,1.1c0,0.3,0,0.6,0,0.8c0,33.8,0,67.8,0,101.6c0,0.7,0,1.3,0,1.9
			c0.1,0.6,0.3,1,1,0.8c0.3,0,0.7,0,1,0c7.9,0,15.7,0,23.7,0c0.6,0,1.1-0.1,1.7,0.1c0.4,0.3,0.4,0.7,0.4,1.1c0,1.1,0.1,2.2,0.3,3.3
			c0.1,1.3,0.1,1.3-1.1,1.3c-9.2,0-18.4,0-27.6,0C46.5,230.8,46.1,230.6,45.8,230.8z"/>
		<path class="st1" d="M161,90c0.4-0.3,0.7-0.7,1-1.1c1.1-1.7,2.5-3.1,3.9-4.5c0.1-0.1,0.4-0.4,0.6-0.7c2.6-2.6,5.6-4.7,8.8-6.7
			c5.6-3.2,11.4-5.3,17.8-6.1c13.5-1.7,25.7,1.7,36.5,10.2c8.5,6.8,14.1,15.6,16.6,26.2c3.2,13.9,0.8,27-7.5,38.7
			c-7.1,10.2-16.8,16.6-28.9,19.2c-5,1.1-10.2,1.3-15.3,0.7c-9.2-1.1-17.4-4.5-24.6-10.2c-1.1-0.8-2.2-1.8-3.3-2.8
			c-1.5-1.3-2.8-2.6-4-4.2c-0.6-0.7-1.1-1.4-1.7-2.1c-2.6-3.3-4.6-7.1-6.1-11.1c-0.8-2.1-1.4-4.3-1.9-6.5c0-0.3-0.1-0.6-0.1-0.8
			c0-0.1,0-0.1-0.1-0.3c-0.6-2.5-0.7-5-1-7.5c-0.1-2.2-0.1-4.5,0.1-6.5c0.1-1.7,0.4-3.3,0.8-5.1c0.1-0.8,0.4-1.5,0.6-2.4
			c1.4-5.7,3.9-11,7.2-15.7C160.6,90.2,160.6,90,161,90z"/>
		<path class="st2" d="M45.8,230.8c0.3-0.3,0.7-0.1,1.1-0.1c9,0,17.9,0,27,0c0.1,0,0.3,0,0.4,0c1,0,0.8,0,0.8-1
			c0-1.3-0.3-2.4-0.3-3.6c0-0.4,0-0.7-0.1-1c-0.1-2.6,0.3-5.1,0.8-7.7c1.3-5.3,3.8-10,7.2-14.3c3.1-3.8,6.7-6.7,11-9
			c4.6-2.5,9.3-3.9,14.5-4.2c0.6,0,1-0.3,1.3-0.7c0.4-0.7,0.8-1.3,1.3-1.9c1.7-3.2,4.5-5,7.4-6.8c3.9-2.1,8.1-3.3,12.5-3.3
			c1,0,1.9,0.3,2.9,0.6c1.1,0.4,1.8,1.3,2.1,2.5c0,0.8-0.4,1.4-1.1,1.9c-1.8,1.5-3.3,3.3-4.6,5.4c-1.1,1.8-2.1,3.5-2.4,5.7
			c-0.1,0.7,0,1.3,0.7,1.5c4,2.6,7.2,6,9.7,10c0.4,0.7,0.6,0.7,1.1,0c4-5.8,9.5-10,16-12.7c0.6-0.3,1-0.6,1.1-1.3
			c0.3-1.1,0.7-2.2,1-3.5c0.4-1.7,1.3-3.1,2.4-4.3c0.8-1,1.1-1.9,1.1-3.2c0-10.4,0-20.7,0-31.2c0-0.6-0.1-1.1,0.3-1.5
			c0.1,0,0.3,0.1,0.3,0.3c0.1,0.6,0.1,1.1,0.1,1.5c0,10,0,20.2,0,30.2c0,0.4,0,0.7,0,1.1c0.3,0.1,0.4-0.1,0.6-0.3
			c0.7-0.7,1.5-1.5,2.5-2.1c1-0.7,1.3-1.4,1.3-2.5c0-4.2,0-8.5,0-12.7c0-2.8,0-5.7,0-8.5c0-0.4,0-1,0.1-1.4c0.1-0.1,0.1-0.1,0.3-0.1
			c0,0.4,0,0.8,0,1.3c0,7.2,0,14.5,0,21.8c0,0.3,0,0.7,0.1,1.1c0.6-0.3,1.1-0.7,1.7-1c1.1-0.7,2.4-1.3,3.5-1.8
			c1.1-0.4,2.4-0.6,3.6-0.6c1.3,0,2.2,0.7,2.6,1.8c0.1,0.4,0.1,0.7-0.1,1.1c-1.8,2.6-2.8,5.7-3.6,8.8c-0.4,1.7-0.4,3.3-0.1,5
			c0.1,0.4,0.4,0.6,0.7,0.7c1.5,0.4,3.1,1,4.6,1.7c4.7,2.1,8.5,5.3,11.5,9.3c2.1,2.9,3.8,6,4.6,9.5c0.7,2.4,1.1,4.7,1.3,7.1
			c0.4,6.1-0.8,12-3.5,17.5c-2.9,5.8-7.1,10.6-12.7,14.2c-3.6,2.4-7.5,3.9-11.7,4.7c-2.2,0.4-4.5,0.7-6.7,0.7
			c-4.9-0.1-9.6-1.3-13.9-3.8c-5-2.8-8.9-6.7-11.5-11.7c-0.1-0.1-0.1-0.4-0.4-0.6c-0.4,0.6-0.8,1.3-1.3,1.8c-3.1,4-6.7,7.2-11,9.7
			c-3.1,1.8-6.4,3.1-10,3.9c-2.6,0.7-5.4,1-8.2,0.8c-4-0.1-7.9-0.7-11.7-2.2c-4.7-1.8-8.8-4.7-12-8.5c-3.5-4-5.7-8.6-6.7-13.8
			c-0.1-0.8-0.1-0.8-1.1-0.8C64.8,230.8,55.4,230.8,45.8,230.8z"/>
		<path class="st3" d="M172.1,0.8c11,0,21.8,0,32.8,0c2.9,0,5,1.4,6.4,3.9c0.7,1.3,1,2.5,1,3.9c0,1,0,1.9,0,2.8c0,1,0,1,1,1
			c1.7,0,3.5,0,5.1,0c9.9,0.4,19.8,0,29.6,0.1c2.4,0,4.3,1.3,5.7,3.3c0.7,1,1.1,2.1,1.3,3.2c0.1,1,0.1,1.9,0.1,2.9
			c0,9.6,0,19.2,0,28.8c0,0.1,0,0.3,0,0.4c0,0.8,0,0.8-0.8,0.8c-2.9,0-5.8,0-8.8,0c-6.8,0.1-13.6,0.1-20.5,0.1c-0.7,0-0.7,0-0.8,0.7
			c-0.3,0.8-0.1,1.8-0.3,2.6c-0.1,1.4-0.3,2.8-0.3,4.2c-0.1,1.7-0.3,3.3-0.4,5c-0.1,1-0.3,1.8-0.3,2.8c0,1.7-1,2.4-2.4,2.2
			c-0.1,0-0.3,0-0.4,0c-1.3,0.1-2.1-0.3-2.8-1.4c-1.7-2.6-3.5-5.1-5.3-7.8c-1.7-2.4-3.3-4.9-5-7.2c-0.3-0.6-0.7-0.7-1.3-0.7
			c-3.3,0-6.8,0-10.2,0c-3.9,0-7.8,0-11.5,0c-0.1,0-0.4,0-0.6,0c-0.8,0-0.8,0-0.8-0.8c0-0.1,0-0.4,0-0.6c0-2.9,0-5.8,0-8.8
			c0-0.1,0-0.3,0-0.4c0-0.3,0.1-0.7-0.3-0.8c-0.4-0.1-1,0-1.3,0.4c-0.4,0.6-0.8,1.3-1.4,1.8c-2.5,3.3-5,6.7-7.5,10
			c-1.1,1.5-2.2,2.9-3.3,4.5c-0.3,0.4-0.7,0.7-1.3,0.7c-0.7,0-1.3,0-1.9,0c-1.1,0-1.7-0.6-1.7-1.7c0-1.3-0.1-2.6,0.1-3.9
			c0-0.1,0-0.1,0-0.3c0-3.5,0.3-7,0.3-10.3c0-1.4,0.1-1.3-1.3-1.3c-10,0-20,0-30.1,0c-0.1,0-0.4,0-0.6,0c-1,0-1.1,0-1.1-1.1
			c0-10.7,0-21.4,0-32.1c0-1.4,0.6-2.6,1.4-3.6c1.3-1.7,2.8-2.6,4.7-3.2c0.4-0.1,0.8-0.1,1.3-0.1C150.3,0.8,161.3,0.8,172.1,0.8z"/>
		<path class="st4" d="M58.4,20.5c0,3.5-2.6,6.7-6.7,6.7c-3.6,0-6.5-2.8-6.5-6.5c0-3.9,2.9-6.5,6.5-6.7
			C55.4,13.9,58.3,16.8,58.4,20.5z"/>
		<path class="st5" d="M28.9,27.5c-3.2,0.4-6.5-2.6-6.3-6.7c0.1-3.2,2.6-6,6.3-6c3.5,0,6.4,2.8,6.4,6.5
			C35.3,24.8,32.6,27.9,28.9,27.5z"/>
		<path class="st6" d="M0,21.1c-0.1-3.3,3.2-6,6-6c3.3,0,6.1,2.8,6,6.1c0,3.5-2.9,6-6,6C2.6,27.4-0.1,24.6,0,21.1z"/>
		<path class="st7" d="M166.3,153h-0.1c-0.6-0.1-0.8-0.6-1.1-0.8c-1.4-1.5-2.8-2.9-3.9-4.6c0-0.1-0.1-0.1-0.1-0.1
			c-0.3-0.3-0.3-0.6,0-0.7c1.4,1.7,2.6,3.3,4.2,4.9c0.4,0.4,1,0.8,1.4,1.4C166.4,153,166.4,153,166.3,153z"/>
		<path class="st8" d="M161,146.6c0,0.3,0,0.6,0,0.7c0,11.1,0,22.3,0,33.4c0,0.8-0.1,1.4-0.7,2.1c-1.8,1.9-2.8,4.3-3.3,7
			c-0.1,0.6-0.4,1.1-0.6,1.8c0,0.4-0.4,0.7-0.8,0.8c-5,1.8-9.3,4.7-12.9,8.6c-1.3,1.4-2.5,2.8-3.5,4.3c-0.1,0.3-0.4,0.6-0.7,0.7
			c-0.3,0-0.3-0.1-0.4-0.3c-2.5-4.5-6-7.9-10.2-10.7c-0.8-0.6-0.8-0.6-0.7-1.5c0.3-2.2,1.3-4.2,2.6-6c0.4-0.3,1-0.3,1.5-0.3
			c5.7,0,11.4,0,17.1,0c0.7,0,1.3,0,1.9-0.3c1.3-0.4,2.1-1.5,2.1-2.6c0-1.3-0.7-2.2-1.9-2.8c-0.7-0.3-1.5-0.3-2.2-0.3
			c-3.9,0-7.8,0-11.7,0c-0.4,0-1.1,0.3-1.3-0.6c-0.1-1.3-0.8-2.1-2.1-2.5c-1.9-0.7-4-0.7-6-0.3c-3.2,0.7-6.4,1.5-9.3,3.2
			c-0.7,0.3-1.5,0.3-2.2,0.3c-18.4,0-36.7,0-55.1,0c-0.7,0-1.4,0-2.1,0.1c-1.4,0.4-2.5,1.5-2.5,2.8s1,2.5,2.5,2.9
			c0.7,0.1,1.3,0.1,1.9,0.1c16.1,0,32.3,0,48.4,0c0.6,0,1.3-0.1,1.8,0.3c-0.4,0.8-1.1,1.5-1.5,2.4c-0.3,0.4-0.6,0.4-1,0.4
			c-2.2,0.1-4.6,0.4-6.8,1.1c-4.7,1.3-9,3.5-12.9,6.4c-3.8,2.9-6.8,6.4-9.2,10.4c-2.1,3.5-3.5,7.2-4.2,11.3c-0.3,1.7-0.4,3.3-0.6,5
			c0,0.3,0,0.6-0.1,0.8c-8.8,0-17.4,0-26.2,0c-1.3,0-1.3,0-1.4-1.1c0-0.3,0-0.6,0-0.8c0-34.6,0-69.2,0-103.8c0-1.3,0-1.1,1.3-1.1
			c11.4,0,22.7,0,34.1,0c1.8,0,3.1-1.4,3.1-3.1c0-12,0-23.9,0-35.9c0-1.3-0.1-1.1,1.1-1.1c24.4,0,48.7,0,73.2,0
			c1.3,0,1.3-0.1,1.3,1.1c0,3.6,0,7.2,0,11c-2.1,2.8-3.9,5.8-5.3,9c-1,2.4-1.8,4.7-2.5,7.1c-0.1,0.3-0.1,0.7-0.6,0.8
			c-17.1-0.3-34.2,0-51.3-0.1c-1.4,0-2.6,0.1-3.6,1.1c-1.4,1.4-1.1,3.3,0.6,4.3c0.8,0.4,1.7,0.6,2.5,0.6c5.1,0,10.3,0,15.4,0
			c11.3,0,22.5,0,33.8,0c0.6,0,1.1,0,1.5,0.1c0.3,0.1,0.4,0.3,0.3,0.6c-0.1,2.2-0.3,4.5-0.1,6.7c0,0.6,0.3,1.3-0.1,1.7
			c-0.6,0.3-1.1,0.1-1.7,0.1c-16.7,0-33.4,0-50.1,0c-0.7,0-1.4,0-2.1,0.3c-1.4,0.4-2.2,1.5-2.1,2.9c0.1,1.3,1.1,2.4,2.5,2.6
			c0.6,0.1,1.1,0.1,1.7,0.1c16.7,0,33.4,0,50,0c0.7,0,1.3,0,1.9,0c0.1,0,0.4,0,0.6,0c0.1,0,0.1,0,0.3,0c0.1,0,0.1,0,0.3,0.1l0,0
			c0.1,0.3,0,0.6,0.1,0.8c0.6,1.8,1,3.8,1.7,5.6C156.1,138.8,158.4,142.8,161,146.6z"/>
		<path class="st8" d="M35.1,80.1c-1.5,1.3-2.6,2.6-3.9,4c-1.8,1.9-3.6,3.8-5.4,5.6c-1.3,1.3-2.5,2.6-3.8,3.9
			c-0.6,0.6-0.8,1.3-0.8,1.9c0,0.3,0,0.6,0,0.7c0,29.8,0,59.6,0,89.2c0,1.4,0.1,1.3-1.4,1.3c-4.3,0-8.5,0-12.8,0c-0.3,0-0.4,0-0.7,0
			c-0.6,0-0.7-0.1-0.7-0.7c0-0.1,0-0.4,0-0.6c0-34.8,0-69.4,0-104.2c0-1.3,0-1.3,1.3-1.3c9,0,18.1,0,27.1,0
			C34.4,79.9,34.7,79.9,35.1,80.1z"/>
		<path class="st8" d="M56.6,98.9c-0.3,0.3-0.6,0.7-1,1c-1.8,1.7-3.5,3.6-5.3,5.4c-2.1,2.1-4.2,4.3-6.3,6.4
			c-0.4,0.4-0.8,0.8-1.3,1.3c-0.7,0.7-1,1.5-1,2.4c0,0.3,0,0.6,0,0.7c0,29.4,0,58.7,0,88.1c0,1.4,0.1,1.3-1.3,1.3
			c-4.3,0-8.5,0-12.8,0c-0.3,0-0.6,0-0.7,0c-0.3,0-0.4-0.1-0.4-0.4c0-0.3,0-0.6,0-0.7c0-34.8,0-69.6,0-104.4c0-1.3-0.1-1.1,1.1-1.1
			c9.2,0,18.5,0,27.7,0c0.3,0,0.6,0,1,0C56.5,98.7,56.6,98.9,56.6,98.9z"/>
		<path class="st8" d="M102.7,58.5c12.1,0,24.2,0,36.5,0c1.3,0,1.1-0.1,1.3,1.1c0,3.9,0,7.7,0,11.5c0,0.3,0,0.4,0,0.7
			c0,0.4-0.1,0.6-0.6,0.6c-0.3,0-0.6,0-0.8,0c-17.1,0-34.1,0-51.2,0c-1.4,0-2.6,0-4,0c-0.7,0-1.4,0.3-1.8,0.7
			c-0.1,0.1-0.4,0.3-0.6,0.6c-2.8,2.9-5.6,5.7-8.2,8.6c-2.2,2.4-4.6,4.6-6.8,7c-0.3,0.3-0.6,0.6-0.8,0.8c-0.3,0.1-0.4,0.1-0.4-0.1
			s0-0.4,0-0.7c0-9.9,0-19.6,0-29.5c0-0.1,0-0.3,0-0.4c0-0.4,0.1-0.7,0.7-0.7c0.3,0,0.6,0,0.7,0C78.3,58.5,90.4,58.5,102.7,58.5z"/>
		<path class="st8" d="M44.3,70.3c-0.1-0.3,0-0.6,0-1c0-9.6,0-19.1,0-28.7c0-0.1,0-0.4,0-0.6c0-0.4,0.1-0.6,0.6-0.6
			c0.3,0,0.4,0,0.7,0c24.2,0,48.4,0,72.8,0c1.4,0,1.3,0,1.3,1.3c0,3.5,0,7,0,10.4c0,0.3,0,0.4,0,0.7c0,0.4-0.1,0.6-0.6,0.6
			c-0.3,0-0.6,0-0.8,0c-16.8,0-33.7,0-50.5,0c-1.3,0-2.6,0-3.9,0c-1.1,0-2.1,0.3-2.8,1.1c-0.3,0.3-0.6,0.6-1,1
			c-2.6,2.6-5.1,5.3-7.7,8.1c-1.8,1.8-3.6,3.6-5.4,5.4c-0.6,0.6-1.1,1.3-1.7,1.8C44.7,70.2,44.5,70.3,44.3,70.3z"/>
		<path class="st5" d="M30.5,92.9c0.8-0.8,1.4-1.8,2.4-2.5c0.7-0.6,1.3-1.3,1.8-1.9c0.8-1,1.8-1.8,2.6-2.8c1.1-1.3,2.2-2.4,3.5-3.5
			c2.6-2.6,5.3-5.3,7.9-8.1c1.1-1.3,2.4-2.4,3.5-3.8c0.3-0.4,0.7-0.6,1.1-1c0.7-0.8,1.4-1.7,2.2-2.4c1.3-1.1,2.4-2.5,3.6-3.6
			c0.1-0.1,0.3-0.4,0.6-0.4c0.1,0.3,0.1,0.6,0.1,0.7c0,9.5,0,18.9,0,28.2v0.1c0,0.8,0,0.8-0.8,0.8c-0.3,0-0.4,0-0.7,0
			c-8.5,0-17,0-25.6,0c-0.6,0-1,0-1.5,0.1C30.9,93.2,30.8,93.2,30.5,92.9z"/>
		<path class="st6" d="M9.6,74.2c9.7-9.9,19.3-19.9,28.9-29.9c0.1,0.4,0.1,0.7,0.1,1.1c0,9.3,0,18.6,0,28c0,0.1,0,0.1,0,0.3
			c0,0.8,0,0.8-0.8,0.8c-0.1,0-0.3,0-0.4,0c-8.9,0-17.9,0-26.9,0C10.4,74.4,10.2,74.4,9.6,74.2z"/>
		<path class="st4" d="M51.5,112.5c0-0.3,0.3-0.4,0.6-0.7c0.8-0.8,1.8-1.7,2.6-2.6c1.4-1.7,2.9-3.1,4.3-4.7c1.5-1.7,3.3-3.3,5-5
			c1.7-1.8,3.5-3.6,5.1-5.4c1.8-1.9,3.8-3.8,5.6-5.6c1.5-1.7,3.1-3.2,4.6-4.9c0.3-0.3,0.6-0.6,0.8-0.8c0.3,0.1,0.3,0.4,0.3,0.7
			c0,9.5,0,18.9,0,28.2c0,0.8,0,0.8-1,0.8c-8.3,0-16.6,0-24.9,0C53.4,112.5,52.5,112.5,51.5,112.5z"/>
		<path class="st9" d="M168,144.1c-11.1-12.8-14.2-36.5,1.8-53.8c15.7-17.1,43.3-17.9,60-0.4c16,17,13.5,40.8,2.4,53.8
			c-0.3-0.3-0.1-0.7-0.3-1c-1.8-7.9-6.1-14.5-12.7-19.3c-0.7-0.6-0.7-0.6-0.4-1.4c1.4-3.8,1.9-7.5,1.8-11.4c-0.3-4.7-1.5-9.2-4-13.2
			c-1-1.7-1.9-3.3-3.2-4.7c-3.1-3.3-6.8-5.3-11.3-5.8c-5.4-0.6-10.3,0.8-14.5,4.5c-4.7,4-7.7,9.2-8.9,15.3
			c-1.1,5.7-0.6,11.3,1.7,16.7c0.3,0.7,0.3,0.7-0.3,1.1c-6.1,5-10,11.4-11.7,19.1C168.1,143.7,168.1,144,168,144.1z"/>
		<path class="st10" d="M199.8,159.5c-10.2-0.1-19.2-3.5-27-10.2c-0.1-0.1-0.3-0.3-0.4-0.4c-0.4-0.3-0.6-0.7-0.6-1.3
			c0.1-1.5,0.3-3.1,0.7-4.6c2.8-10.3,9.3-17.1,19.5-20.5c0.6-0.1,1.1-0.1,1.7,0c4,1.3,8.1,1.3,12.1-0.1c0.6-0.1,1.1-0.1,1.7,0
			c5.3,1.5,9.9,4.3,13.6,8.3c3.6,4,6,8.8,7,14.2c0.1,0.7,0.1,1.4,0.3,2.1c0.1,0.6-0.1,1-0.6,1.4c-3.2,2.9-6.7,5.3-10.6,7.1
			c-4,1.9-8.3,3.1-12.8,3.6C202.7,159.4,201.3,159.5,199.8,159.5z"/>
		<path class="st11" d="M200,119.5c-7.7,0-13.6-5.1-14.7-12.2c-0.3-1.8-0.1-3.8,0.3-5.6c0.1-0.4,0.3-0.7,0.7-0.8
			c2.1-1,3.9-2.1,5.7-3.5c0.6-0.6,0.6-0.4,1.3,0c3.6,2.8,7.7,4.7,12.1,5.7c1.7,0.4,3.5,0.7,5.3,0.6c0.4,0,0.7,0.1,1,0.6
			c0.4,1,1,1.9,1.8,2.6c0.3,0.3,0.3,0.4,0.3,0.7c-0.6,3.1-1.8,5.6-4,7.8C206.8,118.1,203.4,119.3,200,119.5z"/>
		<path class="st12" d="M151.7,122c0.4-0.4,0-1.1,0.3-1.5c0.1,0.3,0.1,0.4,0.1,0.7c0,2.1,0.3,4,0.7,6.1c0,0.3,0,0.6,0.1,1
			c-0.1,0-0.1,0-0.3,0c-0.3-0.1-0.4-0.4-0.4-0.7c-0.4-1.7-0.6-3.3-0.7-5C151.4,122.2,151.5,122.1,151.7,122z"/>
		<path class="st13" d="M152,113.6c0-0.1,0-0.3-0.3-0.4c0-0.1-0.1-0.1-0.1-0.3c0.1-1.5,0.1-3.2,0.8-4.6c0.1-0.1,0.3,0,0.3,0.3
			C152.5,110.3,152.2,112,152,113.6z"/>
		<path class="st14" d="M215,118.5c0,0.8-0.3,1.4-0.7,2.2C214.3,120.2,214.4,119.6,215,118.5L215,118.5z"/>
		<path class="st15" d="M152.8,108.6c0-0.1-0.1-0.1-0.1-0.3c-0.1-0.6-0.1-1.1,0.3-1.4c0.3-0.1,0.1-0.4,0.4-0.6
			C153.2,107.1,153.1,107.8,152.8,108.6z"/>
		<path class="st12" d="M152.9,128.9c-0.3-0.1-0.1-0.6-0.1-0.8C152.9,128.4,152.9,128.6,152.9,128.9z"/>
		<path class="st14" d="M215,118.5v-0.1c0-0.1,0-0.1,0.1-0.3C215.3,118.2,215.3,118.4,215,118.5C215.1,118.5,215.1,118.5,215,118.5
			L215,118.5z"/>
		<path class="st16" d="M126.9,182.9c-0.8,1.3-1.5,2.4-2.2,3.5c-1,1.7-1.5,3.3-1.9,5.1c-0.4,1.7-0.4,3.3-0.4,5.1
			c0,0.7,0.3,1.1,0.8,1.4c2.9,1.5,5.6,3.5,7.7,6c1.9,2.2,3.5,4.7,4.5,7.5c0.1,0.3,0.1,0.6,0,0.8c-1.3,2.8-1.9,5.7-2.2,8.8
			c-0.3,2.2-0.4,4.5-0.1,6.7c0.3,1.8,0.4,3.6,1,5.4c0.1,0.4,0,1-0.1,1.4c-1,1.8-2.1,3.5-3.5,5.1c-1.8,2.2-3.9,4.2-6.3,5.8
			c-2.2,1.5-4.6,2.8-7.1,3.8c-2.1,0.8-4.2,1.4-6.4,1.7c-1.5,0.3-3.1,0.4-4.6,0.4c-2.6-0.1-5.3-0.4-7.8-1.3c-3.3-1-6.4-2.6-9.2-4.9
			c-2.4-1.9-4.5-4.3-6-7.1c-1.3-2.2-2.1-4.5-2.6-7c-0.4-2.2-0.7-4.5-0.7-6.7c0.3-6.1,2.4-11.5,5.8-16.6c2.1-2.8,4.5-5.1,7.4-7.1
			c3.6-2.5,7.7-4.2,12-5.1c2.4-0.6,4.7-0.6,7.2-0.6c1,0,1,0,1.1-0.8c0.6-2.2,1.8-4,3.1-5.8c0.6-0.8,1.5-1.4,2.4-1.9
			C121.2,184.7,123.8,183.6,126.9,182.9z"/>
		<path class="st17" d="M170.6,180.4c-0.6,1.8-1.1,3.3-1.4,5c-0.3,1.8-0.6,3.5-0.1,5.3c0.4,1.4,0.8,2.8,1.4,4.2
			c0.3,0.6,0.7,1,1.3,1.1c2.1,0.3,4.2,1,6.1,1.9c0.6,0.3,1.1,0.3,1.5,0.6c1.4,0.7,2.5,1.5,3.6,2.5c3.9,3.2,6.4,7.4,7.9,12.1
			c1.1,3.5,1.3,7,1,10.6c-0.3,4.2-1.5,7.9-3.5,11.5c-1.8,3.5-4.2,6.4-7.2,8.9c-1.9,1.7-4.2,3.1-6.4,4.2c-1.8,0.8-3.6,1.5-5.4,1.9
			c-2.5,0.6-5,0.8-7.5,0.7c-4.3-0.1-8.2-1.3-11.8-3.5c-4.6-2.6-7.9-6.5-10.2-11.4c-1.1-2.5-1.8-5-2.1-7.7c-0.4-3.3-0.1-6.7,0.6-10
			c1.3-5.4,3.9-10.2,7.7-14.2c3.1-3.2,6.5-5.6,10.6-7.2c0.8-0.3,1.5-0.6,2.4-0.8c0.6-0.1,1-0.4,1-1.1c0.4-2.4,1.1-4.5,2.1-6.7
			c0.4-1,1-1.7,1.7-2.5C165.7,183.7,168,181.9,170.6,180.4z"/>
		<path class="st18" d="M111,187.4c-5,0-10,0-15,0c-12,0-23.9,0-35.9,0c-0.8,0-1.7-0.1-2.4-0.4c-1.5-0.8-2.2-2.5-1.5-4
			c0.7-1.4,1.8-1.9,3.2-2.1c0.1,0,0.3,0,0.4,0c19.2,0,38.4,0,57.6,0c0.3,0,0.4,0,0.7,0c-0.7,0.4-1.3,0.8-1.9,1.3
			C114.1,183.5,112.3,185.1,111,187.4C111.2,187.4,111,187.4,111,187.4z"/>
		<path class="st0" d="M161.3,147.6c0.8,0.7,1.4,1.7,2.2,2.5c1,1,1.8,1.9,2.8,2.9c0,7.8,0,15.6,0,23.4c0,0.7-0.3,1.1-0.8,1.7
			c-1.1,0.8-2.2,1.7-3.2,2.8c-0.3,0.3-0.4,0.6-0.8,0.7C161.3,170.1,161.3,158.8,161.3,147.6z"/>
		<path class="st18" d="M135.5,180.4c0.1,0.1,0.1,0.4,0.4,0.4c0.3,0,0.6,0,0.7,0c4.2,0,8.2,0,12.4,0c1.1,0,2.1,0.3,2.9,1
			c1,0.8,1.3,1.8,1,2.9c-0.3,1.3-1.1,2.1-2.2,2.5c-0.6,0.1-1.1,0.3-1.8,0.3c-6.3,0-12.7,0-18.9,0c1.4-2.2,3.1-4.2,5.1-5.8
			C135.4,181.2,135.3,180.8,135.5,180.4z"/>
		<path class="st10" d="M169.9,51.1c-0.8,1.3-1.8,2.4-2.6,3.6h-0.1c0-1.1-0.1-2.2,0-3.3c0.1-1.9,0.1-3.9,0.1-5.8
			c0.1-2.1,0.1-4,0.1-6.1c0-0.3,0-0.6,0-0.7c0-0.4-0.3-0.6-0.6-0.6c-0.3,0-0.6,0-0.7,0c-10.2,0-20.2,0-30.3,0
			c-1.3,0-1.3,0.1-1.3-1.1c0-9.2,0-18.5,0-27.7c0-2.5,2.5-5.6,5.6-5.7c0.3,0,0.7,0,1,0c21,0,42,0,62.9,0c2.6,0,4.6,1.5,5.4,3.9
			c0.3,0.7,0.3,1.5,0.3,2.2c-0.1,4.2-0.1,8.5-0.3,12.7c0,2.2,0,4.6-0.1,6.8c-0.1,2.6-0.1,5.3-0.1,7.9c0,0.8,0,0.8-1,0.8
			c-9.2,0-18.2,0-27.4,0c-0.8,0-1.4,0.3-1.9,1c-0.7,1-1.4,1.9-2.2,2.8c-0.1,0.1-0.3,0.4-0.4,0.6c-1.3,1.8-2.5,3.6-3.9,5.3
			c-0.1,0.1-0.3,0.4-0.4,0.6c-0.6,0.7-1.1,1.5-1.7,2.2C170.2,50.7,170,51,169.9,51.1z"/>
		<path class="st19" d="M220.5,66c-0.7-0.7-1.1-1.3-1.5-1.9c-2.8-4.2-5.7-8.3-8.5-12.4c-0.3-0.6-0.7-1-1-1.5
			c-0.3-0.4-0.7-0.7-1.3-0.7c-7.1-0.3-14.2-0.1-21.3-0.1c-1.5,0-1.3,0.1-1.4-1.3c0-2.1,0-4.3,0-6.4c0-1,0-1,1-1c7.5,0,15.2,0,22.7,0
			c0.6,0,1.3,0.1,1.8-0.1c0.7-0.3,0.8-0.4,0.8-1.3c0-0.7,0-1.5,0-2.2c0-7,0-13.8,0-20.7c0-1.3,0-1.3,1.3-1.3c11.3,0,22.4,0,33.7,0
			c1.8,0,3.2,0.8,4.2,2.1c1,1.1,1.4,2.5,1.4,4c0,8.8,0,17.7,0,26.4c0,0.1,0,0.4,0,0.6c0,0.8,0,1-1,1c-4.6,0-9,0-13.6,0
			c-5,0-9.9,0-14.9,0c-0.3,0-0.6,0-0.7,0c-0.4,0-0.6,0.1-0.6,0.6c-0.1,1.3-0.3,2.5-0.4,3.9c-0.1,1.9-0.4,3.9-0.6,5.8
			c0,1-0.1,2.1-0.3,3.1C220.5,63.7,220.4,64.8,220.5,66z"/>
		<path class="st20" d="M169.9,51.1c0-0.3,0.1-0.4,0.4-0.6C170.3,50.9,170.2,51,169.9,51.1z"/>
		<path class="st21" d="M172,48.4c0-0.3,0.1-0.4,0.4-0.6C172.4,48.1,172.3,48.2,172,48.4z"/>
		<path class="st22" d="M176.3,42.5c0-0.3,0.1-0.4,0.4-0.6C176.7,42.1,176.6,42.4,176.3,42.5z"/>
		<path class="st18" d="M103.9,173c-15,0-30.1,0-44.9,0c-0.7,0-1.3,0-1.8-0.1c-1.4-0.3-2.5-1.4-2.6-2.9c-0.1-1.5,0.8-2.8,2.4-3.3
			c0.6-0.1,1-0.3,1.5-0.3c2.6,0,5.3,0,8.1,0c27.7,0,55.4,0,83.1,0c0.8,0,1.5,0.1,2.2,0.4c1.3,0.7,1.9,1.7,1.8,2.9
			c0,1.4-1.1,2.5-2.2,2.9c-0.7,0.1-1.4,0.3-2.1,0.3C134,173,119,173,103.9,173z"/>
		<path class="st18" d="M103.2,151.5c15,0,30.2,0,45.2,0c1,0,1.9,0.1,2.9,0.8c1.9,1.4,1.7,4-0.1,5.1c-0.8,0.6-1.8,0.7-2.6,0.7
			c-0.4,0-0.7,0-1.1,0c-29.5,0-59,0-88.4,0c-1.1,0-2.2,0-3.3-0.6c-1.1-0.6-1.9-1.4-1.9-2.8c0-1.4,0.7-2.4,1.8-2.9
			c0.6-0.3,1.1-0.4,1.8-0.4s1.3,0,1.9,0C74,151.5,88.6,151.5,103.2,151.5z"/>
		<path class="st18" d="M104.6,142.3c-14.6,0-29.4,0-44,0c-0.7,0-1.3,0-1.9-0.1c-1.5-0.4-2.5-1.7-2.5-3.2c0-1.5,1.1-2.8,2.6-3.1
			c0.6-0.1,1.1-0.1,1.8-0.1c29.4,0,58.7,0,88.1,0c0.8,0,1.7,0.1,2.5,0.6c1,0.6,1.7,1.3,1.7,2.5c0.1,1.3-0.4,2.2-1.5,2.9
			c-0.6,0.4-1.3,0.6-1.9,0.6c-0.4,0-0.8,0-1.3,0C133.7,142.3,119.3,142.3,104.6,142.3z"/>
		<path class="st18" d="M152.9,106.9c-0.1,0.4-0.3,1-0.3,1.4c-0.3,1.7-0.6,3.2-0.8,4.9c-0.3,0-0.7,0-1,0c-16.7,0-33.4,0-50.1,0
			c-1,0-1.9-0.1-2.6-0.6c-1.1-0.7-1.7-1.7-1.5-3.1c0.1-1.3,1-2.1,1.9-2.5c0.7-0.3,1.5-0.4,2.2-0.4c11.7,0,23.4,0,35.1,0
			c5,0,10,0,15,0C151.5,106.7,152.2,106.7,152.9,106.9z"/>
		<path class="st18" d="M151.7,122c0.3,2.1,0.4,4.2,1,6.1l0,0c-0.1,0.1-0.3,0.1-0.4,0.1c-0.6,0-1.1,0-1.7,0c-17,0-34,0-50.9,0
			c-0.7,0-1.5,0-2.2-0.3c-2.1-0.8-2.8-3.2-1.4-4.9c0.7-0.8,1.5-1.3,2.6-1.3c0.4,0,0.7,0,1.1,0c17,0,33.8,0,50.8,0
			C150.8,121.8,151.3,122,151.7,122z"/>
		<path class="st12" d="M152.2,128.4c0.1-0.1,0.3-0.1,0.4-0.1C152.5,128.4,152.4,128.4,152.2,128.4z"/>
		<path class="st1" d="M95.5,243.7c-1.9,0-2.1,0-2.4-1.7c-0.4-2.6-0.8-5.1-1.3-7.8c-0.4-2.2-0.7-4.5-1.1-6.7
			c-0.1-0.6-0.1-1.1,0.1-1.7c0.1-0.4,0.1-0.7,0.1-1.1c0-2.1,0-4.2,0-6.3c0-1.9,0-3.8,0.1-5.7c0-2.4,0.1-4.7,0-7.1c0-0.3,0-0.7,0-1
			c0-0.6,0.3-0.8,0.8-1.1c1-0.4,1.9-0.1,2.9,0c2.6,0.3,5.1,0.8,7.8,1.1c1.9,0.3,3.8,0.6,5.7,0.8c2.8,0.4,5.6,0.8,8.2,1.1
			c1.3,0.1,2.4,0.4,3.6,0.4c0.6,0,1,0.4,0.8,1c-0.6,2.6-0.8,5.4-1.4,8.1c-0.3,1.4-0.6,2.8-0.7,4.2c-0.1,1.4-0.4,2.6-0.7,4
			c-0.1,0.6,0,1,0.3,1.3c0.4,0.6,0.8,1.1,1.4,1.5c1,1.1,1.9,2.1,2.9,3.2c1.4,1.5,2.8,3.1,4.2,4.7c0.6,0.7,1.3,1.3,1.8,1.9
			c0.6,0.7,0.4,1.4-0.1,2.1c-0.4,0.6-0.8,0.7-1.5,0.7c-1.1,0-2.1,0.3-3.2,0.4c-2.6,0.3-5.3,0.6-7.9,0.8c-2.8,0.3-5.4,0.7-8.2,1
			c-1.5,0.1-3.2,0.3-4.7,0.6c-1.7,0.1-3.3,0.4-5,0.7C97.3,243.4,96.2,243.6,95.5,243.7z"/>
		<path class="st1" d="M171.2,198.8c1.7-0.3,3.2-0.1,4.9-0.3c0.1,0,0.4,0,0.6,0c0.8,0.1,1.1,0.3,1.1,1.3c0.1,1.3,0.1,2.5,0.1,3.9
			c0.3,4.5,0.4,8.9,0.7,13.4c0.1,1.9,0.1,4,0.3,6c0.3,4,0.4,8.1,0.7,12c0.1,2.4,0.3,4.7,0.3,7.1c0,1-0.3,1.3-1.3,1.3
			c-1.3,0.1-2.5,0.1-3.8,0.1c-3.1,0.1-6.1,0.3-9.2,0.4c-4.2,0.3-8.3,0.4-12.5,0.7c-0.8,0-1.8,0.1-2.6,0.1c-0.3,0-0.7,0-1,0
			c-1,0-1.3-0.3-1.4-1.3c-0.1-1.5-0.1-3.1-0.3-4.5c-0.1-3.3-0.4-6.7-0.6-10c-0.3-4.7-0.6-9.3-0.7-14.1c0-0.7,0-1.5-0.1-2.2
			c-0.1-0.8,0.1-1.4,0.6-2.1c1.4-1.7,2.6-3.3,3.9-5c1.4-1.8,2.8-3.5,4.2-5.3c0.4-0.6,0.8-0.7,1.5-0.8c4.3-0.3,8.6-0.4,12.9-0.7
			C170.2,198.8,170.7,198.8,171.2,198.8z"/>
		<path class="st5" d="M173.4,16.9c2.8-0.1,4.9,2.2,4.9,4.7c0,2.5-2.2,4.9-4.9,4.9c-2.8-0.1-4.9-1.9-4.9-4.9
			C168.4,19.1,170.9,16.6,173.4,16.9z"/>
		<path class="st4" d="M191.2,16.9c2.6-0.1,4.9,2.4,4.9,4.7c0,2.6-2.1,4.9-4.9,4.9c-2.9,0-4.9-2.4-4.9-4.9S188.5,16.8,191.2,16.9z"
			/>
		<path class="st6" d="M160.2,21.8c0.1,2.2-1.7,4.9-4.9,4.9c-2.9,0-4.9-2.4-4.9-4.9c0-2.9,2.5-4.7,4.9-4.7
			C157.9,16.9,160.3,19.3,160.2,21.8z"/>
		<path class="st18" d="M114.9,225.8c0.4,0,0.8,0,1.3,0c1,0,1.8,0.3,2.5,1.1c1.4,1.5,2.8,3.1,4.2,4.6c1.3,1.4,2.6,2.8,3.9,4.3
			c0.4,0.4,0.8,0.8,1.3,1.3c0.3,0.4,0.3,0.6-0.1,0.7c-1.3,0.1-2.4,0.3-3.6,0.4c-1.3,0.1-2.5,0.3-3.8,0.4c-1.4,0.1-2.8,0.4-4.3,0.6
			c-1.8,0.1-3.5,0.4-5.1,0.6c-1.4,0.1-2.9,0.4-4.3,0.6c-1.7,0.1-3.5,0.4-5.1,0.6c-1.8,0.3-3.6,0.4-5.4,0.7c-0.4,0-0.6-0.1-0.6-0.4
			c-0.1-1-0.4-1.8-0.6-2.8c-0.3-1.5-0.6-3.2-0.8-4.9c-0.4-2.5-1-5-1.4-7.5c0.3-0.3,0.7-0.1,1-0.1c1.4,0.1,2.8,0,4.2,0.1
			c0.8,0,1.8,0,2.6,0c1.4,0,2.8-0.1,4.2,0c0.4,0,0.8-0.1,1.3-0.1s0.3-0.4,0.6-0.6c2.1,0.1,4.3,0,6.5,0.1c0.4,0,1.1-0.1,1.1,0.6
			c-0.3,0.3-0.7,0.3-1.1,0.3c-5.6,0-11,0.1-16.6,0.3c-0.6,0-1,0-1.4,0c0.8-0.1,1.8-0.1,2.8-0.1c5.3,0,10.6-0.1,15.9-0.3
			c0.3-0.1,0.7-0.3,1.1-0.1C114.9,226,114.9,225.9,114.9,225.8z"/>
		<path class="st6" d="M114.9,225.8c0,0.1,0.3,0.3,0.1,0.6c-0.4,0-0.8,0-1.4,0c0,0-0.1-0.1,0-0.1l0,0c-0.1-0.6-0.6-0.4-0.8-0.4
			c-1.9,0-3.9,0-6,0c-0.3,0-0.7,0.1-0.8-0.4c0-0.4-0.3-0.4-0.6-0.4c-1.8-0.1-3.6,0-5.4,0c-1.7,0-3.5,0-5.1,0c-0.4,0-1,0-1.4,0.1
			c-0.3,0.1-0.6,0-0.6-0.4c-0.1-0.6,0-1.3,0-1.8c0-1,0-2.1,0-3.1c0-2.9,0-5.8,0-8.9c0-1.3,0-2.5,0-3.8c0-0.6,0.1-1.3,0-1.8
			c-0.1-0.4,0.1-0.6,0.6-0.6c0.7,0,1.3,0.1,1.9,0.3c2.8,0.4,5.6,0.7,8.3,1.3c2.4,0.4,4.7,0.7,7.1,1c1.9,0.3,4,0.6,6,0.8
			c0.7,0.1,1.4,0.1,2.1,0.3c0.8,0.1,0.8,0.3,0.7,1.1c-0.3,2.1-0.7,4.2-1.1,6.3s-0.7,4.3-1.1,6.4c-0.1,0.8-0.3,1.5-0.4,2.4
			c0,0.6-0.3,0.7-0.8,0.6c-0.4-0.1-0.8-0.1-1.3-0.1c-0.3,0-0.6,0-0.7,0.3C114.5,225.4,114.7,225.6,114.9,225.8z"/>
		<path class="st23" d="M151.4,212c1.5-0.3,3.2-0.1,4.7-0.3c1.1-0.1,1.4-0.4,1.4-1.5c-0.1-1.4-0.1-2.8-0.1-4.2
			c-0.1-1.5-0.1-3.1-0.3-4.7c0-0.7,0-0.7,0.7-0.8c2.6-0.1,5.3-0.3,7.9-0.4c3.3-0.1,6.7-0.3,10-0.6c1,0,1,0,1,0.8
			c0.1,3.1,0.3,6.1,0.4,9.2c0.1,3.8,0.4,7.5,0.6,11.1c0.3,4.3,0.4,8.5,0.7,12.8c0.1,2.5,0.3,4.9,0.4,7.4c0,1,0,1-1,1
			c-4.5,0.3-8.8,0.4-13.2,0.7c-1.8,0.1-3.6,0.1-5.4,0.3c-2.9,0.1-6,0.3-8.9,0.6c-0.7,0-0.7,0-0.7-0.7c-0.1-1.4-0.1-2.8-0.3-4.2
			c-0.1-3.1-0.3-6-0.4-9c-0.1-2.9-0.3-5.8-0.6-8.8c-0.1-2.6-0.3-5.3-0.4-7.9c0-0.1,0-0.3,0-0.4c0-0.4,0.1-0.6,0.6-0.6
			c0.8,0,1.5-0.3,2.4-0.1c0.4,0.4,0.4,0.8,0.4,1.3c0,2.9,0.4,5.8,0.4,8.9c0,2.4,0,2.4,2.4,2.4c3.1-0.1,6.3-0.3,9.3-0.6
			c2.6-0.1,5.4-0.3,8.1-0.4c0.7,0,1.5,0,2.2-0.1c-2.9,0.1-5.7,0.3-8.6,0.6c-1.3,0.1-2.5,0.1-3.9,0.1c-2.5,0.1-5,0.3-7.5,0.4
			c-1.7,0.1-1.8,0-1.9-1.7c-0.3-3.2-0.3-6.4-0.6-9.6C151.1,212.8,151.1,212.4,151.4,212z"/>
		<path class="st24" d="M148.6,210.6c2.4-2.9,4.6-5.8,7-8.8c0,0,0.1,0,0.1,0.1c0,0.6,0.1,1.1,0.1,1.8c0.1,2.1,0.3,4,0.3,6.1
			c0,0.7,0,0.7-0.7,0.7c-2.2,0.1-4.5,0.3-6.8,0.4C148.7,210.7,148.6,210.7,148.6,210.6z"/>
		<path class="st25" d="M151.4,212c0,2.1,0.1,4.2,0.3,6.3c0.1,1.8,0.1,3.6,0.3,5.3c0.1,0.7,0,0.7,0.7,0.7c1.9-0.1,3.8-0.1,5.7-0.3
			c0.1,0,0.1,0,0.3,0c1.8,0,3.5-0.1,5.3-0.3c2.5-0.1,5-0.3,7.4-0.4c0.8,0,1.5-0.1,2.4-0.1c0.1,0,0.3,0,0.4,0c0.1,0,0.4,0,0.4,0.3
			c0,0.1-0.1,0.3-0.3,0.3c-0.7,0-1.3,0.1-1.9,0.1c-2.9,0-6,0.4-8.9,0.4c-2.2,0-4.5,0.3-6.8,0.4c-1.5,0.1-3.1,0-4.5,0.3
			c-0.6,0.1-0.7,0-0.7-0.6c-0.1-1.1-0.1-2.1-0.1-3.2c-0.1-2.6-0.3-5.3-0.4-7.9c0-0.4-0.1-0.7-0.1-1.1C151,212,151.1,211.9,151.4,212
			z"/>
		<path class="st1" d="M112.6,234.4c0.4-0.3,0.7-0.1,0.8,0.1c0.8,1.3,1.5,2.5,2.4,3.8v0.1c-0.1,0.1-0.3,0.1-0.4,0l-0.1-0.1
			c0,0,0,0-0.1-0.1l-0.1-0.1c-0.1,0-0.1,0-0.3,0c-0.3,0-0.4,0-0.7,0c-0.1,0-0.1,0-0.3,0c-0.3,0-0.4,0-0.7,0.1c-1.7,0-3.3,0.3-5,0.3
			c-0.1,0.1-0.4,0-0.6,0.3c0,0.1,0,0.3,0,0.4c-0.4,0.1-0.7,0-0.8-0.6c-0.3-1.1-0.7-2.1-1-3.1c-0.3-0.8-0.3-0.8,0.7-0.8
			c1.1-0.1,2.4-0.1,3.5-0.3C110.8,234.5,111.6,234.5,112.6,234.4z"/>
		<path class="st26" d="M109.8,233.3c-1.5,0.1-3.1,0.3-4.6,0.4h-0.1c-0.3,0-0.4-0.1-0.4-0.4s0.1-0.3,0.4-0.3c0.6,0,1-0.1,1.5-0.1
			c1.9-0.1,4-0.3,6-0.3c0.1,0,0.3,0,0.4,0c0.6,0,0.8,0.1,0.7,0.4c-0.1,0.4-0.4,0.3-0.7,0.3C111.9,233.1,110.9,233.3,109.8,233.3
			L109.8,233.3z"/>
		<path class="st27" d="M113.8,226v0.1c-0.3,0.3-0.7,0.1-1.1,0.1c-2.4,0-4.9-0.1-7.2,0c-3.5,0.1-7,0.1-10.4,0.1c-0.3,0-0.6,0-0.8,0
			c0-0.1,0-0.3,0.1-0.3c3.3,0,6.5,0,9.9-0.1c0.8,0,1.7-0.1,2.4-0.1C109,226,111.5,226,113.8,226z"/>
		<path class="st28" d="M115.4,238.3c0.1,0.1,0.3,0.1,0.4,0.1c-0.8,0.4-1.7,0.3-2.5,0.4c-1.5,0.1-3.1,0.1-4.6,0.4
			c-0.4,0-0.8,0-1.3,0c0-0.1-0.1-0.3-0.1-0.4c0.8-0.4,1.5-0.4,2.4-0.4c1,0,1.8-0.3,2.8-0.1c0.1,0,0.1,0,0.3,0c0.1,0,0.1,0,0.3,0
			c0.3,0,0.6,0,1-0.1c0.1,0,0.3,0,0.4,0c0.1,0.1,0.1,0.1,0.3,0c0.1-0.1,0.3-0.1,0.6,0C115.2,238.3,115.4,238.3,115.4,238.3z"/>
		<path class="st29" d="M97.3,234c-0.3,0-0.6,0-0.7,0c-0.3,0-0.4-0.1-0.4-0.4c0-0.3,0.1-0.3,0.4-0.3c0.6,0,1.1,0,1.5,0
			c0.3,0,0.4,0.1,0.4,0.4c0,0.3-0.1,0.4-0.4,0.4C97.8,234,97.5,234,97.3,234L97.3,234z"/>
		<path class="st30" d="M96.7,231.6c-0.3,0-0.6,0-0.8,0.1c-0.1,0-0.3-0.1-0.3-0.3c0-0.1,0-0.3,0.3-0.3c0.6,0,1.1-0.1,1.7-0.1
			c0.3,0,0.4,0,0.6,0.3c0.1,0.1,0.1,0.4-0.1,0.4C97.5,231.6,97.1,231.6,96.7,231.6z"/>
		<path class="st31" d="M117.9,230.6c-0.4,0-0.7-0.1-1,0c-0.1,0-0.3-0.1-0.3-0.3c0-0.1,0.1-0.1,0.3-0.3c0.7-0.1,1.4-0.1,2.2-0.1
			c0.1,0,0.4,0.1,0.4,0.3c0,0.3-0.1,0.3-0.3,0.3C118.7,230.5,118.3,230.6,117.9,230.6z"/>
		<path class="st32" d="M118.7,228.7c-0.6,0-1.1,0-1.7,0c-0.3,0-0.4,0-0.6-0.3c-0.1-0.1-0.1-0.4,0.1-0.4c0.6-0.1,1.1-0.1,1.7,0
			C118.6,228.1,118.6,228.3,118.7,228.7z"/>
		<path class="st33" d="M103.1,228.6c0.1,0,0.4,0,0.7,0.1c0.1,0,0.1,0.1,0.1,0.3c0,0.1-0.1,0.3-0.1,0.3c-0.6,0.1-1,0.1-1.4,0
			c-0.1-0.1-0.3-0.3-0.3-0.4c0-0.1,0.3-0.1,0.4-0.1C102.7,228.6,102.8,228.6,103.1,228.6z"/>
		<path class="st34" d="M106.3,229.1c-0.1,0-0.4,0-0.6-0.1c-0.1,0-0.3-0.1-0.3-0.3c0-0.1,0.1-0.3,0.3-0.3c0.1,0,0.4,0,0.6,0
			c0.4,0,0.7,0.1,0.7,0.4C107,229.2,106.6,229.1,106.3,229.1z"/>
		<path class="st35" d="M99.4,229.2c-0.3,0-0.7,0.1-0.7-0.4c0-0.6,0.4-0.3,0.8-0.4c0.1,0,0.3,0,0.4,0c0.3,0,0.4,0.3,0.4,0.4
			c0,0.3-0.3,0.3-0.4,0.3C99.6,229.2,99.6,229.2,99.4,229.2z"/>
		<path class="st36" d="M119.4,232.4c-0.3,0-0.4,0-0.7,0c-0.1,0-0.3-0.1-0.3-0.3c0-0.1,0.1-0.3,0.3-0.3c0.4,0,0.8,0,1.3,0
			c0.1,0,0.4,0.1,0.4,0.3c0,0.3-0.3,0.1-0.4,0.1C119.8,232.4,119.7,232.4,119.4,232.4z"/>
		<path class="st37" d="M101.6,233.7c0,0-0.1,0-0.3-0.1c-0.1,0-0.3-0.1-0.3-0.4c0-0.1,0.3-0.1,0.4-0.1c0.3,0,0.7,0,1,0
			c0.1,0,0.3,0.1,0.3,0.3c0,0.3-0.1,0.3-0.3,0.3C102.1,233.7,101.9,233.7,101.6,233.7z"/>
		<path class="st38" d="M95.6,228.7c0.3,0,0.7-0.1,0.8,0.3c0,0.3-0.4,0.4-0.8,0.4c-0.3,0-0.6-0.1-0.6-0.4
			C95,228.7,95.5,228.7,95.6,228.7z"/>
		<path class="st39" d="M109.8,234.7c-0.8,0.3-1.7,0.1-2.5,0.3c-0.3,0-0.6,0.3-0.8,0c0.1,0,0.1-0.1,0.3-0.1c0.8-0.1,1.8-0.1,2.6-0.1
			c0.1,0.1,0.3,0.1,0.3,0L109.8,234.7C109.8,234.4,109.8,234.5,109.8,234.7C109.8,234.5,109.8,234.7,109.8,234.7z"/>
		<path class="st40" d="M105.6,230.6c0.1,0.3,0.3,0.4-0.1,0.6c-0.3,0-0.6,0.1-1,0c-0.3-0.1-0.3-0.3-0.1-0.6
			C104.8,230.5,105.2,230.4,105.6,230.6z"/>
		<path class="st41" d="M111.2,228.3c0.4-0.1,0.7-0.1,1,0c0.1,0,0.3,0.1,0.3,0.4c0,0.1-0.1,0.3-0.4,0.3
			C111.7,228.7,111.3,228.8,111.2,228.3z"/>
		<path class="st42" d="M114.7,228.7c-0.1,0-0.3,0-0.4,0c-0.1,0-0.3-0.1-0.3-0.3c0-0.1,0.1-0.1,0.3-0.1c0.1,0,0.3,0,0.4,0
			c0.3,0,0.6,0,0.6,0.4C115.2,228.8,114.9,228.7,114.7,228.7z"/>
		<path class="st43" d="M114.7,230.6c-0.3,0-0.7,0.1-0.7-0.3s0.4-0.3,0.7-0.3h0.1c0.1,0,0.4,0.1,0.4,0.3c0,0.3-0.3,0.3-0.4,0.3
			C114.8,230.6,114.8,230.6,114.7,230.6z"/>
		<path class="st44" d="M100.7,230.9c0.3-0.1,0.6-0.1,0.8-0.1c0.1,0,0.4,0.1,0.4,0.3c0,0.1-0.1,0.3-0.3,0.3
			C101.2,231.5,100.7,231.6,100.7,230.9z"/>
		<path class="st45" d="M109.2,228.4c-0.1,0,0,0,0.1,0c0.1,0,0.3,0.1,0.3,0.3c0,0.1-0.1,0.1-0.3,0.3c-0.1,0-0.4,0-0.6,0
			c-0.1,0-0.4-0.1-0.3-0.4c0-0.1,0.3-0.1,0.4-0.1C109,228.4,109,228.4,109.2,228.4z"/>
		<path class="st46" d="M116.6,232.6c-0.3,0.1-0.7,0.1-1,0l-0.1-0.1c0-0.1,0-0.1,0.1-0.3C115.9,232,116.3,232.2,116.6,232.6z"/>
		<path class="st47" d="M109.8,234.7c0-0.1,0-0.1,0-0.3c0.8-0.1,1.7,0.1,2.5-0.1c0.1,0,0.3,0.1,0.3,0.1c-0.1,0.3-0.4,0.1-0.7,0.1
			C111.2,234.7,110.5,234.7,109.8,234.7z"/>
		<path class="st48" d="M121.3,232c0.4,0,0.7-0.3,1.1-0.1c0.1,0,0.3,0.1,0.1,0.3c0,0.1-0.1,0.1-0.3,0.1
			C122,232.2,121.6,232.4,121.3,232z"/>
		<path class="st49" d="M110.9,230.6c0-0.6,0.4-0.4,0.7-0.4c0.4-0.1,0.4,0.1,0.6,0.4C111.7,230.8,111.3,230.8,110.9,230.6z"/>
		<path class="st50" d="M108.8,230.8c-0.3,0.3-0.6,0.3-1.1,0C108,230.5,108.4,230.5,108.8,230.8z"/>
		<path class="st51" d="M110.9,230.6c0.4,0,0.8,0,1.3,0C111.7,230.9,111.3,230.9,110.9,230.6z"/>
		<path class="st52" d="M108.8,230.8c-0.4,0-0.7,0-1.1,0v-0.1c0.4-0.1,0.7-0.1,1.1,0V230.8z"/>
		<path class="st53" d="M108.8,230.6c-0.4,0-0.7,0-1.1,0C108,230.4,108.4,230.4,108.8,230.6z"/>
		<path class="st54" d="M105.6,230.6c-0.4,0-0.8,0-1.1,0C104.8,230.4,105.2,230.4,105.6,230.6z"/>
		<path class="st47" d="M109.5,234.4c-0.1,0.1-0.3,0.1-0.3,0C109.2,234.4,109.4,234.4,109.5,234.4z"/>
		<path class="st11" d="M119,210.2c-0.3,1.7-0.6,3.3-0.8,4.9c-0.3,1.9-0.7,3.9-1,5.7c-0.1,0.6-0.3,1.1-0.3,1.8
			c-0.1,0.4-0.4,0.6-0.7,0.6c-1.7-0.3-3.3-0.1-5.1-0.1c-1.3,0-2.4,0-3.6-0.1c-1.9-0.1-3.8,0-5.7-0.1c-1.3,0-2.5,0-3.6-0.1
			c-1.1-0.1-2.2-0.1-3.3,0c-1,0-1,0-0.8-1c0-1.3,0.1-2.4,0.1-3.6c0-2.6,0-5.3,0-7.9c0-1.1,0.1-2.2,0-3.5c0-0.4,0.3-0.6,0.7-0.4
			c1.5,0.3,3.2,0.4,4.7,0.7c2.1,0.3,4,0.6,6.1,0.8c1.8,0.3,3.6,0.6,5.4,0.7c1.7,0.1,3.3,0.4,5.1,0.7c0.7,0.1,1.5,0.1,2.2,0.3
			C119.1,209.4,119,209.5,119,210.2z"/>
		<path class="st55" d="M150.4,231.3c-0.3,0-0.7,0.1-0.8-0.4c-0.1-0.3,0.3-0.4,1-0.6c3.1-0.1,6.1-0.3,9.2-0.4
			c3.8-0.1,7.5-0.4,11.1-0.6c0.8,0,1.5-0.1,2.4-0.1c0.3,0,0.6,0,0.6,0.3c0,0.3-0.1,0.4-0.4,0.4c-0.4,0-0.7,0.1-1.1,0.1
			c-3.2,0.1-6.4,0.3-9.7,0.4C158.6,230.9,154.6,231.1,150.4,231.3z"/>
		<path class="st55" d="M151.1,235.9c-0.4,0-0.7,0-1,0c-0.3,0-0.4-0.1-0.4-0.4c0-0.3,0.1-0.4,0.4-0.4c0.6,0,1.3-0.1,1.8-0.1
			c4.3-0.3,8.6-0.4,12.9-0.7c2.2-0.1,4.6-0.3,6.8-0.4c0.4,0,1-0.1,1.4-0.1c0.3,0,0.4,0,0.7,0c0.1,0,0.3,0.1,0.3,0.4
			c0,0.1-0.1,0.3-0.3,0.3c-0.3,0-0.6,0.1-0.7,0.1c-3.1,0.1-6.3,0.3-9.3,0.4c-3.6,0.1-7.2,0.4-10.9,0.6
			C152.4,235.8,151.7,235.9,151.1,235.9z"/>
		<path class="st1" d="M151.8,233.7c-0.6,0-1,0-1.5,0c-0.3,0-0.7,0-0.6-0.4c0-0.4,0.3-0.4,0.7-0.4c0.8,0,1.7-0.1,2.5-0.1
			c3.2-0.1,6.4-0.3,9.6-0.4c3.6-0.1,7.1-0.4,10.7-0.6c0.3,0,0.6,0,0.7,0c0.1,0,0.3,0.1,0.3,0.3c0,0.3-0.1,0.4-0.3,0.4
			c-0.1,0-0.3,0-0.4,0c-1,0-1.8,0.1-2.8,0.1c-3.2,0.1-6.4,0.3-9.5,0.4C158.1,233.3,155,233.4,151.8,233.7L151.8,233.7z"/>
		<path class="st55" d="M172.1,227.2c0.4,0,0.7,0,1.1,0c0.1,0,0.4,0.1,0.4,0.3c0,0.3-0.1,0.4-0.4,0.4c-0.7,0-1.4,0.1-2.1,0.1
			c-3.2,0.1-6.3,0.3-9.5,0.4c-3.6,0.1-7.1,0.4-10.7,0.6c-0.4,0-0.7,0.1-1.1,0.1c-0.3,0-0.4-0.1-0.4-0.4c0-0.3,0.1-0.4,0.4-0.4
			c0.1,0,0.3,0,0.4,0c2.9-0.1,5.7-0.3,8.6-0.4c4-0.3,8.2-0.4,12.2-0.7C171.4,227.3,171.8,227.3,172.1,227.2
			C172.1,227.3,172.1,227.2,172.1,227.2z"/>
		<path class="st23" d="M170.7,207.1c-0.4-0.3-0.8-0.1-1.1-0.1c-0.1,0-0.3-0.1-0.3-0.3c0-0.1,0.1-0.1,0.3-0.1
			c0.7-0.1,1.5-0.1,2.2-0.1c0.6,0,0.7,0.3,0.4,0.8c-0.3,0.6-0.7,1.3-1,1.8c-0.1,0.1-0.3,0.4-0.6,0.3c-0.3-0.1-0.1-0.4,0-0.6
			c0.1-0.3,0.3-0.6,0.4-1c-1.1,0.7-2.4,1.1-3.2,2.1c-0.1,0.1-0.1,0.1-0.3,0.1c-1.4,0.1-2.2,1.3-3.3,1.8c-0.3,0.8-1.1,0.8-1.8,1.3
			c-1,0.4-1.8,1-2.6,1.4c-0.1,0.1-0.4,0.3-0.6,0.4c-0.3,0.4-0.6,0.6-1,0.6c-0.3,0-0.4,0.1-0.7,0.3c-1,0.7-1.9,1.3-3.1,1.9
			c-0.4,0.3-1,0.6-1.3,1.1c-0.1,0.3-0.4,0.4-0.7,0.3c-0.3-0.1-0.4-0.3-0.4-0.6c0-0.3,0.3-0.6,0.7-0.6c0.4,0,0.8-0.3,1.1-0.4
			c1.1-0.7,2.1-1.4,3.2-2.1c0.3-0.3,0.7-0.4,0.8-0.8c0.1-0.3,0.4-0.4,0.8-0.4c0.3,0.1,0.4,0,0.6-0.1c0.8-0.6,1.8-1,2.6-1.5
			c0,0,0,0,0.1,0c1-1.1,2.6-1.5,3.8-2.4c0.3-0.3,0.8-0.4,0.8-1c0-0.3,0.4-0.4,0.6-0.3c0.6,0.1,0.8-0.1,1.3-0.4
			C169.3,208,169.9,207.5,170.7,207.1z"/>
		<path class="st56" d="M166.7,239.5c-0.4,0-0.8,0-1.3,0c-0.3,0-0.4-0.1-0.4-0.4c0-0.3,0.1-0.4,0.4-0.4c0.7,0,1.4-0.1,2.1-0.1
			c2.1-0.1,4.2-0.1,6.3-0.3c0.1,0,0.3,0,0.4,0c0.1,0,0.4,0.1,0.4,0.3c0,0.3-0.1,0.4-0.4,0.4c-0.1,0-0.3,0-0.4,0
			C171.4,239.3,169.1,239.4,166.7,239.5L166.7,239.5z"/>
		<path class="st57" d="M166.7,237.2c-0.3,0-0.7,0-1,0c-0.3,0-0.6,0-0.6-0.4c0-0.3,0.3-0.4,0.6-0.4c0.6,0,1.1-0.1,1.5-0.1
			c2.1-0.1,4.2-0.1,6.3-0.3c0.3,0,0.8-0.1,1,0.3c0,0.6-0.6,0.4-0.8,0.4C171.3,237,168.9,237,166.7,237.2L166.7,237.2z"/>
		<path class="st58" d="M114.4,238.4c-0.1,0-0.1,0-0.3,0c-0.3,0.1-0.7,0-1,0.1H113h-0.1c-1,0-1.9,0.3-3.1,0.1
			c-0.6-0.3-1.4,0.3-1.9-0.1c1.4-0.3,2.9-0.1,4.3-0.4c0.4,0,0.7,0,1.1,0c0.1-0.1,0.3-0.1,0.4,0l0,0c0.3-0.1,0.7,0,1-0.1h0.1
			c0.1,0,0.1,0.1,0.3,0.1l0,0c0,0.1,0,0.1,0,0.1c-0.1,0-0.4,0-0.6,0C114.5,238.4,114.5,238.4,114.4,238.4z"/>
		<path class="st59" d="M107.7,238.6c0.7,0.1,1.4-0.1,1.9,0.1c-0.8,0-1.7,0.1-2.5,0.1C107,238.3,107.6,238.6,107.7,238.6z"/>
		<path class="st60" d="M114.8,238c-0.3,0.3-0.7,0.1-1,0.1C114.1,237.9,114.5,238,114.8,238z"/>
		<path class="st60" d="M113.7,238.2c-0.1,0-0.3,0-0.4,0C113.4,238,113.5,238,113.7,238.2z"/>
		<path class="st60" d="M115.2,238.2c-0.1,0-0.1,0-0.3-0.1C115.1,238,115.2,238,115.2,238.2z"/>
		<path class="st60" d="M115.2,238.3v-0.1c0.1,0,0.1,0.1,0.1,0.1H115.2L115.2,238.3z"/>
		<path class="st60" d="M113.1,238.6c0.3-0.3,0.7-0.1,1-0.1C113.8,238.6,113.4,238.6,113.1,238.6z"/>
		<path class="st60" d="M112.7,238.6c0-0.1,0.1-0.1,0.1,0C112.9,238.6,112.9,238.6,112.7,238.6L112.7,238.6z"/>
		<path class="st60" d="M114.4,238.4c0.1,0,0.1,0,0.3,0C114.5,238.4,114.5,238.4,114.4,238.4z"/>
		<path class="st61" d="M105.9,216.2c-0.4,0-0.7-0.1-1.1,0c-0.3,0.1-0.6-0.1-0.8-0.1c-0.7-0.3-1,0.1-1.1,0.8c-0.3-0.4,0-1-0.7-1
			c-0.4,0-1-0.1-1,0.7c-0.4-0.1,0-0.7-0.6-0.7c-0.4,0-0.7-0.1-1,0.1c-0.1,0.1-0.3,0.1-0.4,0c-0.3-0.3-0.7-0.3-1-0.4
			c-0.3,0-0.6,0-0.8-0.3c1-0.4,1-0.4,1-1.5c0-0.3,0-0.6,0-0.8c0-0.1,0.1-0.3,0.3-0.3c0.1,0,0.3,0.1,0.3,0.3c0,0.6,0,1.1-0.1,1.7
			c0,0.4,0.1,0.7,0.6,0.7c0.4,0.1,0.6-0.3,0.6-0.6c0-0.4,0.1-1,0.1-1.4c0-0.3,0-0.4,0-0.7c0-0.1,0.1-0.3,0.3-0.3
			c0.1,0,0.3,0.1,0.3,0.3c0,0.6,0,1,0,1.5c0,0.1,0,0.3-0.1,0.4c-0.1,0.4,0.1,0.7,0.6,0.8c0.4,0.1,0.7,0,0.7-0.6c0-0.8,0-1.7,0.1-2.5
			c0-0.1,0-0.3,0-0.4c0-0.1,0.1-0.3,0.3-0.3c0.1,0,0.3,0.1,0.3,0.4c0,1-0.1,1.9-0.1,2.9c0,0.4,0.1,0.6,0.4,0.6
			c0.3,0,0.7,0.1,0.7-0.4c0-0.3,0-0.7,0-1c0-1,0.1-1.8,0.3-2.9c0.6,0.4,0.4,0.8,0.4,1.1c-0.1,0.8-0.1,1.7-0.1,2.5
			c0,0.6,0.1,0.7,0.7,0.6c0.4,0,0.4-0.3,0.4-0.6c0.1-1.3,0.1-2.4,0.3-3.6c0-0.4,0-0.8,0.1-1.3c0-0.1,0.1-0.4,0.3-0.4
			c0.3,0,0.3,0.3,0.3,0.4c-0.1,1.3-0.1,2.4-0.3,3.6c0,0.4-0.1,0.8-0.1,1.3c0,0.4,0.1,0.7,0.6,0.7c0.4,0,0.6-0.1,0.6-0.6
			c0.1-0.8,0.1-1.7,0.1-2.4c0-0.4,0.1-0.7,0.3-1c0.3,0,0.3,0.3,0.3,0.4c0,0.8-0.1,1.7-0.1,2.4c0,0.3,0,0.6,0,0.8
			c0,0.4,0.3,0.6,0.6,0.6c0.4,0,0.6-0.1,0.6-0.6c0-0.8,0.1-1.8,0.1-2.6c0-0.3,0-0.4,0-0.7c0-0.1,0.1-0.3,0.3-0.3
			c0.1,0,0.1,0.1,0.1,0.3c0,0.6-0.1,1-0.1,1.5s-0.1,1.3-0.1,1.8c0,0.4,0.3,0.6,0.6,0.6c0.4,0,0.6-0.1,0.6-0.6
			c0.1-1.3,0.1-2.4,0.3-3.6c0-0.1,0-0.1,0-0.3c0-0.3,0-0.6,0.3-0.6c0.3,0,0.1,0.4,0.1,0.6c-0.1,1.3-0.1,2.5-0.3,3.8
			c0,0.4,0,0.6,0.4,0.7c0.4,0,0.6-0.1,0.7-0.6c0.1-1,0.1-1.9,0.1-2.8c0-0.3,0-0.7,0.3-0.7c0.4,0,0.1,0.4,0.1,0.7
			c0,1-0.1,1.8-0.1,2.8c0,0.6,0.4,0.8,1,0.7c0.3-0.1,0.3-0.3,0.3-0.6c0.1-1.1,0.1-2.2,0.3-3.3c0-0.4-0.1-1,0.3-1
			c0.4,0,0.1,0.7,0.1,1c0,1-0.1,1.9-0.3,2.9c0,0.6,0,1,0.7,1.3c-0.4,0.3-0.7,0.1-1.1,0.1s-0.6,0.1-0.7,0.4c-0.3-0.1-0.1-0.6-0.6-0.6
			s-0.8-0.3-1.3,0.1c-0.3,0.1-0.1-0.3-0.4-0.3c-0.4,0.1-0.8-0.3-1.3,0.1c-0.3,0.1-0.3-0.1-0.3-0.1c-0.1,0-0.3,0-0.4-0.1
			c-0.6-0.1-0.7,0.1-0.7,0.6c0,0.4-0.1,0.7-0.1,1.1c-0.4-0.3-0.1-0.6-0.1-0.8c0-1,0-1-1-1.1c-0.1,0-0.3,0-0.4,0
			C106.3,216.2,106.2,216.3,105.9,216.2z"/>
		<path class="st62" d="M105.9,216.2c0.1,0,0.4,0,0.6,0c-0.3,0.3-0.3,0.4-0.3,0.8c0,0.3,0.1,0.7-0.3,1c-0.3-0.3-0.1-0.6-0.1-0.8
			C105.9,216.7,105.9,216.4,105.9,216.2z"/>
		<path class="st63" d="M99.4,215.8c0.1,0,0.3,0,0.4,0c0,0.6,0.1,1.1-0.1,1.5C99.4,216.9,99.4,216.9,99.4,215.8z"/>
		<path class="st64" d="M109.2,216.4c0.1,0,0.3,0.1,0.3,0.1c0,0.6,0,0.6-0.3,1.1C109,217.3,109.2,216.9,109.2,216.4z"/>
		<path class="st65" d="M104.1,215.9c0.3-0.1,0.6,0,0.8,0.1c0,0.3,0.1,0.6-0.3,0.8C104.2,216.6,104.6,216,104.1,215.9z"/>
		<path class="st66" d="M110.8,216.4c0.3,0,0.3,0.3,0.4,0.3c0,0.1,0,0.3-0.1,0.3c-0.1,0-0.3,0-0.3-0.1
			C110.9,216.9,110.8,216.6,110.8,216.4z"/>
		<g>
			<path class="st25" d="M156,224c-1.3,0.1-2.5,0.1-3.8,0.2c-0.2,0-0.3,0-0.2-0.2c0-0.1,0-0.3,0-0.5c-0.2-4-0.4-7.9-0.6-11.8
				c0-0.1,0-0.2-0.1-0.2c-0.2,0-0.3,0-0.4,0c-0.1,0.1-0.1,0.1-0.1,0.2c0,0.1,0,0.3,0,0.4c0.2,4.1,0.4,8.3,0.7,12.4
				c0,0.3,0.1,0.4,0.4,0.4c3.7-0.2,7.3-0.4,11-0.6c0.4,0,0.9,0,1.3-0.1c0.1,0,0.2,0,0.2-0.2c0-0.1,0-0.3-0.1-0.5
				C161.5,223.8,158.7,223.9,156,224z"/>
			<path class="st25" d="M172.4,206c-0.3,0-0.7,0-1,0c-0.3,0-0.5,0-0.8,0c-0.3,0-0.6,0-0.9,0.1c-0.2,0-0.2,0.1-0.2,0.3
				c0,0.2,0.2,0.3,0.4,0.3c0.4,0,0.8,0,1.3-0.1c0.1,0,0.1,0,0.1,0c0,0.1,0,0.1-0.1,0.1c0,0,0,0,0,0l0-0.1l-3.1,1.8
				c-0.1-0.1-0.3-0.2-0.5-0.2c-0.4,0-0.7,0.3-0.7,0.7l0,0l-3,2.1l0,0c0,0-0.1,0-0.1,0.1c-0.1,0-0.2,0-0.3,0.1c0,0-0.1,0-0.1,0
				c-0.1,0-0.2,0-0.3,0.1c0,0,0,0,0,0c-0.2,0.1-0.3,0.3-0.3,0.6l-0.9,0.5l0.1,0c-0.2,0.1-0.4,0.3-0.7,0.4c-0.3,0.2-0.6,0.3-0.8,0.5
				c-0.4,0.2-0.8,0.4-1.1,0.6c-0.1,0-0.1,0-0.1,0.1c-0.1-0.1-0.3-0.1-0.4-0.1c-0.3,0-0.5,0.2-0.6,0.5c0,0,0,0,0,0
				c0,0.2-0.1,0.3-0.2,0.3c-0.3,0.2-0.6,0.4-0.9,0.6c-0.2,0.1-0.3,0.2-0.5,0.3l0,0l-3.3,2.1l0,0c-0.1-0.1-0.2-0.1-0.4-0.1
				c-0.4,0-0.7,0.3-0.7,0.7c0,0.4,0.3,0.7,0.7,0.7c0.4,0,0.7-0.3,0.7-0.7l2.9-1.9l0.2-0.2l0,0c0.2-0.1,0.3-0.2,0.5-0.3
				c0.3-0.2,0.7-0.5,1-0.7c0.1-0.1,0.2-0.1,0.2-0.1c0,0,0.1,0,0.1,0.1c0,0,0,0,0,0c0.1,0,0.1,0,0.2,0c0.3,0,0.6-0.3,0.7-0.6l2.4-1.4
				l-0.4,0.2c0.1,0,0.1-0.1,0.2-0.1c0.3-0.2,0.6-0.4,0.9-0.5l0,0l0.5-0.2c0.1,0.1,0.3,0.1,0.4,0.1c0.3,0,0.5-0.2,0.6-0.5
				c0.1-0.1,0.1-0.2,0.1-0.4c0-0.1,0-0.1,0-0.1c0.3-0.2,0.6-0.4,0.9-0.6c0.3-0.2,0.6-0.4,1-0.6c0.3-0.2,0.7-0.4,1-0.7
				c0.1-0.1,0.2-0.1,0.2-0.1c0.1,0,0.1,0,0.2,0c0.1,0,0.1,0,0.2,0c0.3,0,0.6-0.3,0.7-0.6l2.8-1.6l0,0c0.1,0,0.1-0.1,0.2-0.1
				c0.1,0,0.1,0,0.2,0c0,0.1,0,0.1,0,0.1c-0.3,0.3-0.4,0.7-0.6,1.1c0,0.1,0,0.3,0,0.4c0.1,0.1,0.2,0.1,0.3,0.1
				c0.1,0,0.2-0.1,0.2-0.2c0-0.1,0.1-0.2,0.2-0.3c0.2-0.3,0.3-0.5,0.5-0.8c0.1-0.3,0.2-0.5,0.3-0.7c0-0.1,0.2-0.3,0.3-0.5
				C172.8,206.2,172.7,206,172.4,206z"/>
		</g>
	</g>
</g>
<g id="Layer_2">
</g>
</svg>
