<?xml version="1.0" encoding="utf-8"?>
<!-- Generator: Adobe Illustrator 23.0.0, SVG Export Plug-In . SVG Version: 6.00 Build 0)  -->
<svg version="1.1" xmlns="http://www.w3.org/2000/svg" xmlns:xlink="http://www.w3.org/1999/xlink" x="0px" y="0px"
	 viewBox="0 0 256 256" style="enable-background:new 0 0 256 256;" xml:space="preserve">
<style type="text/css">
	.st0{display:none;}
	.st1{display:inline;}
	.st2{fill:#D1C2E2;}
	.st3{fill:#543770;}
	.st4{fill:#4C2D69;}
	.st5{fill:#7B4C6C;}
	.st6{fill:#6B3A6D;}
	.st7{fill:#6E64A5;}
	.st8{fill:#6D924E;}
	.st9{fill:#C567D4;}
	.st10{fill:#A593BC;}
	.st11{fill:#EEA2CB;}
	.st12{fill:#D2C2E3;}
	.st13{fill:#AFE085;}
	.st14{fill:#E0C485;}
	.st15{fill:#B491C6;}
	.st16{fill:#AB7EBC;}
	.st17{fill:#573A73;}
	.st18{fill:#A479B4;}
	.st19{fill:#9A89C0;}
	.st20{fill:#E384F4;}
	.st21{fill:#9F3FAD;}
	.st22{fill:#8BAC6E;}
	.st23{fill:#99B06E;}
	.st24{fill:#9BB66E;}
	.st25{fill:#99B46D;}
	.st26{fill:#B896E3;}
	.st27{fill:#FBCB6D;}
	.st28{fill:#AFDF85;}
	.st29{fill:#CFBDE1;}
	.st30{fill:#B75AC8;}
	.st31{fill:#5C3375;}
	.st32{fill:#CDB9DF;}
	.st33{fill:#D0BFE2;}
	.st34{fill:#65397E;}
	.st35{fill:#62387B;}
	.st36{fill:#5E3879;}
	.st37{fill:#63387C;}
	.st38{fill:#603875;}
	.st39{fill:#C9B0DB;}
	.st40{fill:#CDBBE0;}
	.st41{fill:#62387C;}
	.st42{fill:#A981B5;}
	.st43{fill:#BAABD3;}
	.st44{fill:#613877;}
	.st45{fill:#5C3876;}
	.st46{fill:#633A7A;}
	.st47{fill:#CBB6DE;}
	.st48{fill:#5F3878;}
	.st49{fill:#C7ABD9;}
	.st50{fill:#B492C8;}
	.st51{fill:#CEB9DF;}
	.st52{fill:#603C79;}
	.st53{fill:#BF9AD1;}
	.st54{fill:#8A76B0;}
	.st55{fill:#8C88B5;}
	.st56{fill:#64407C;}
	.st57{fill:#81418B;}
	.st58{fill:#4D2D69;}
	.st59{fill:#4E2E6A;}
	.st60{fill:#4E2F6B;}
	.st61{fill:#B7A7CD;}
	.st62{fill:#C1AAD0;}
	.st63{fill:#AB9EC5;}
	.st64{fill:#4F2F69;}
	.st65{fill:#503169;}
	.st66{fill:#775B71;}
	.st67{fill:#6B4E6E;}
	.st68{fill:#796072;}
	.st69{fill:#745A71;}
</style>
<g id="Layer_2" class="st0">
	<g class="st1">
		<path class="st2" d="M60,0h136c33.1,0,60,26.9,60,60v136c0,33.1-26.9,60-60,60H60c-33.1,0-60-26.9-60-60V60C0,26.9,26.9,0,60,0z"
			/>
	</g>
</g>
<g id="Layer_1">
	<g>
		<g>
			<path class="st3" d="M69.1,201.5c-0.4,0.1-0.9,0.1-1.3,0c-0.6,0-0.9-0.4-1.1-0.9c-0.2-0.4-0.3-0.9-0.3-1.3c0-3.7,0-7.4,0-11.1
				c0-0.9,0.1-0.8-0.8-0.8c-4,0-8.1,0-12.1,0c-1.2,0-1.9-0.6-1.9-1.8c0-0.2,0-0.3,0-0.5c0-3.4,0-6.8,0-10.2c0-0.2,0-0.4,0-0.5
				c0-0.3-0.1-0.4-0.4-0.4c-0.1,0-0.3,0-0.4,0c-3.8,0-7.6,0-11.5,0c-0.2,0-0.4,0-0.6,0c-0.9,0.3-1.4-0.1-1.8-0.9
				c-0.2-0.3-0.3-0.7-0.3-1c0-0.1,0-0.3,0-0.4c0-26.8,0-53.6,0-80.4c0-0.8,0.2-1.5,0.8-2.1c2-2.1,4.1-4.2,6.1-6.3
				c0.8-0.8,1.5-1.7,2.4-2.4c1.6-1.5,3.1-3.2,4.6-4.8c2-2,4-4,5.9-6c1.2-1.2,2.3-2.5,3.5-3.7c1.1-1.1,2.1-2.2,3.2-3.2
				c0.6-0.6,1.2-1.3,1.8-1.9c0.5-0.5,1.1-0.8,1.8-0.8c0.6,0,1.1,0,1.7,0.1c0.3,0.1,0.7-0.1,1.1-0.1c18.1,0,36.1,0,54.2,0
				c0.2,0,0.5,0,0.7,0c1.1,0.2,1.7,0.9,1.7,2.1c0,3.5,0,6.9,0,10.4c0,0.2,0,0.3,0,0.5c0,0.3,0.1,0.5,0.4,0.4c0.2,0,0.3,0,0.5,0
				c3.9,0,7.8,0,11.7,0c0.5,0,0.9,0.1,1.3,0.3c0.7,0.3,1,0.9,1,1.6c0,0.5,0,0.9,0,1.4c0,3.3,0,6.5,0,9.8c0,0.1,0,0.2,0,0.3
				c0,0.7,0,0.7,0.7,0.7c4.1,0,8.1,0,12.2,0c1.1,0,1.7,0.5,2,1.4c0.1,0.2,0.1,0.4,0.1,0.7c0,1.8,0,3.7,0,5.5c0,0.2-0.1,0.5,0.1,0.7
				c0.1,0.2,0,0.4-0.2,0.5c-1.2,1.2-2.3,2.4-3.3,3.8c-0.2,0.2-0.4,0.5-0.6,0c-0.1-2.2,0-4.4-0.1-6.6c0-1.7,0.1-1.5-1.5-1.5
				c-17,0-33.9,0-50.9,0c-1.3,0-1.3,0-1.3,1.3c0,8.2,0,16.3,0,24.5c0,0.3,0,0.7,0,1c-0.1,1.1-0.9,2-2.1,2c-0.3,0-0.6,0-0.9,0
				c-7.7,0-15.3,0-23,0c-0.2,0-0.5,0-0.7,0c-0.7,0-0.8,0.1-0.8,0.8c0,0.2,0,0.4,0,0.6c0,24.3,0,48.7,0,73c0,0.5,0,0.9,0,1.4
				c0.1,0.4,0.2,0.7,0.7,0.6c0.2,0,0.5,0,0.7,0c5.7,0,11.3,0,17,0c0.4,0,0.8-0.1,1.2,0.1c0.3,0.2,0.3,0.5,0.3,0.8
				c0,0.8,0.1,1.6,0.2,2.4c0.1,0.9,0.1,0.9-0.8,0.9c-6.6,0-13.2,0-19.8,0C69.6,201.5,69.3,201.4,69.1,201.5z"/>
			<path class="st4" d="M151.9,100.3c0.3-0.2,0.5-0.5,0.7-0.8c0.8-1.2,1.8-2.2,2.8-3.2c0.1-0.1,0.3-0.3,0.4-0.5
				c1.9-1.9,4-3.4,6.3-4.8c4-2.3,8.2-3.8,12.8-4.4c9.7-1.2,18.5,1.2,26.2,7.3c6.1,4.9,10.1,11.2,11.9,18.8c2.3,10,0.6,19.4-5.4,27.8
				c-5.1,7.3-12.1,11.9-20.8,13.8c-3.6,0.8-7.3,0.9-11,0.5c-6.6-0.8-12.5-3.2-17.7-7.3c-0.8-0.6-1.6-1.3-2.4-2c-1.1-0.9-2-1.9-2.9-3
				c-0.4-0.5-0.8-1-1.2-1.5c-1.9-2.4-3.3-5.1-4.4-8c-0.6-1.5-1-3.1-1.4-4.7c0-0.2-0.1-0.4-0.1-0.6c0-0.1,0-0.1-0.1-0.2
				c-0.4-1.8-0.5-3.6-0.7-5.4c-0.1-1.6-0.1-3.2,0.1-4.7c0.1-1.2,0.3-2.4,0.6-3.7c0.1-0.6,0.3-1.1,0.4-1.7c1-4.1,2.8-7.9,5.2-11.3
				C151.6,100.5,151.6,100.3,151.9,100.3z"/>
			<path class="st5" d="M69.1,201.5c0.2-0.2,0.5-0.1,0.8-0.1c6.5,0,12.9,0,19.4,0c0.1,0,0.2,0,0.3,0c0.7,0,0.6,0,0.6-0.7
				c0-0.9-0.2-1.7-0.2-2.6c0-0.3,0-0.5-0.1-0.7c-0.1-1.9,0.2-3.7,0.6-5.5c0.9-3.8,2.7-7.2,5.2-10.3c2.2-2.7,4.8-4.8,7.9-6.5
				c3.3-1.8,6.7-2.8,10.4-3c0.4,0,0.7-0.2,0.9-0.5c0.3-0.5,0.6-0.9,0.9-1.4c1.2-2.3,3.2-3.6,5.3-4.9c2.8-1.5,5.8-2.4,9-2.4
				c0.7,0,1.4,0.2,2.1,0.4c0.8,0.3,1.3,0.9,1.5,1.8c0,0.6-0.3,1-0.8,1.4c-1.3,1.1-2.4,2.4-3.3,3.9c-0.8,1.3-1.5,2.5-1.7,4.1
				c-0.1,0.5,0,0.9,0.5,1.1c2.9,1.9,5.2,4.3,7,7.2c0.3,0.5,0.4,0.5,0.8,0c2.9-4.2,6.8-7.2,11.5-9.1c0.4-0.2,0.7-0.4,0.8-0.9
				c0.2-0.8,0.5-1.6,0.7-2.5c0.3-1.2,0.9-2.2,1.7-3.1c0.6-0.7,0.8-1.4,0.8-2.3c0-7.5,0-14.9,0-22.4c0-0.4-0.1-0.8,0.2-1.1
				c0.1,0,0.2,0.1,0.2,0.2c0.1,0.4,0.1,0.8,0.1,1.1c0,7.2,0,14.5,0,21.7c0,0.3,0,0.5,0,0.8c0.2,0.1,0.3-0.1,0.4-0.2
				c0.5-0.5,1.1-1.1,1.8-1.5c0.7-0.5,0.9-1,0.9-1.8c0-3,0-6.1,0-9.1c0-2,0-4.1,0-6.1c0-0.3,0-0.7,0.1-1c0.1-0.1,0.1-0.1,0.2-0.1
				c0,0.3,0,0.6,0,0.9c0,5.2,0,10.4,0,15.7c0,0.2,0,0.5,0.1,0.8c0.4-0.2,0.8-0.5,1.2-0.7c0.8-0.5,1.7-0.9,2.5-1.3
				c0.8-0.3,1.7-0.4,2.6-0.4c0.9,0,1.6,0.5,1.9,1.3c0.1,0.3,0.1,0.5-0.1,0.8c-1.3,1.9-2,4.1-2.6,6.3c-0.3,1.2-0.3,2.4-0.1,3.6
				c0.1,0.3,0.3,0.4,0.5,0.5c1.1,0.3,2.2,0.7,3.3,1.2c3.4,1.5,6.1,3.8,8.3,6.7c1.5,2.1,2.7,4.3,3.3,6.8c0.5,1.7,0.8,3.4,0.9,5.1
				c0.3,4.4-0.6,8.6-2.5,12.6c-2.1,4.2-5.1,7.6-9.1,10.2c-2.6,1.7-5.4,2.8-8.4,3.4c-1.6,0.3-3.2,0.5-4.8,0.5
				c-3.5-0.1-6.9-0.9-10-2.7c-3.6-2-6.4-4.8-8.3-8.4c-0.1-0.1-0.1-0.3-0.3-0.4c-0.3,0.4-0.6,0.9-0.9,1.3c-2.2,2.9-4.8,5.2-7.9,7
				c-2.2,1.3-4.6,2.2-7.2,2.8c-1.9,0.5-3.9,0.7-5.9,0.6c-2.9-0.1-5.7-0.5-8.4-1.6c-3.4-1.3-6.3-3.4-8.6-6.1
				c-2.5-2.9-4.1-6.2-4.8-9.9c-0.1-0.6-0.1-0.6-0.8-0.6C82.8,201.5,76,201.5,69.1,201.5z"/>
			<path class="st6" d="M159.9,36.2c7.9,0,15.7,0,23.6,0c2.1,0,3.6,1,4.6,2.8c0.5,0.9,0.7,1.8,0.7,2.8c0,0.7,0,1.4,0,2
				c0,0.7,0,0.7,0.7,0.7c1.2,0,2.5,0,3.7,0c7.1,0.3,14.2,0,21.3,0.1c1.7,0,3.1,0.9,4.1,2.4c0.5,0.7,0.8,1.5,0.9,2.3
				c0.1,0.7,0.1,1.4,0.1,2.1c0,6.9,0,13.8,0,20.7c0,0.1,0,0.2,0,0.3c0,0.6,0,0.6-0.6,0.6c-2.1,0-4.2,0-6.3,0
				c-4.9,0.1-9.8,0.1-14.7,0.1c-0.5,0-0.5,0-0.6,0.5c-0.2,0.6-0.1,1.3-0.2,1.9c-0.1,1-0.2,2-0.2,3c-0.1,1.2-0.2,2.4-0.3,3.6
				c-0.1,0.7-0.2,1.3-0.2,2c0,1.2-0.7,1.7-1.7,1.6c-0.1,0-0.2,0-0.3,0c-0.9,0.1-1.5-0.2-2-1c-1.2-1.9-2.5-3.7-3.8-5.6
				c-1.2-1.7-2.4-3.5-3.6-5.2c-0.2-0.4-0.5-0.5-0.9-0.5c-2.4,0-4.9,0-7.3,0c-2.8,0-5.6,0-8.3,0c-0.1,0-0.3,0-0.4,0
				c-0.6,0-0.6,0-0.6-0.6c0-0.1,0-0.3,0-0.4c0-2.1,0-4.2,0-6.3c0-0.1,0-0.2,0-0.3c0-0.2,0.1-0.5-0.2-0.6s-0.7,0-0.9,0.3
				c-0.3,0.4-0.6,0.9-1,1.3c-1.8,2.4-3.6,4.8-5.4,7.2c-0.8,1.1-1.6,2.1-2.4,3.2c-0.2,0.3-0.5,0.5-0.9,0.5c-0.5,0-0.9,0-1.4,0
				c-0.8,0-1.2-0.4-1.2-1.2c0-0.9-0.1-1.9,0.1-2.8c0-0.1,0-0.1,0-0.2c0-2.5,0.2-5,0.2-7.4c0-1,0.1-0.9-0.9-0.9c-7.2,0-14.4,0-21.6,0
				c-0.1,0-0.3,0-0.4,0c-0.7,0-0.8,0-0.8-0.8c0-7.7,0-15.4,0-23.1c0-1,0.4-1.9,1-2.6c0.9-1.2,2-1.9,3.4-2.3c0.3-0.1,0.6-0.1,0.9-0.1
				C144.2,36.2,152.1,36.2,159.9,36.2z"/>
			<path class="st7" d="M78.2,50.4c0,2.5-1.9,4.8-4.8,4.8c-2.6,0-4.7-2-4.7-4.7c0-2.8,2.1-4.7,4.7-4.8C76,45.6,78.1,47.7,78.2,50.4z
				"/>
			<path class="st8" d="M57,55.4c-2.3,0.3-4.7-1.9-4.5-4.8c0.1-2.3,1.9-4.3,4.5-4.3c2.5,0,4.6,2,4.6,4.7
				C61.6,53.5,59.6,55.7,57,55.4z"/>
			<path class="st9" d="M36.2,50.8c-0.1-2.4,2.3-4.3,4.3-4.3c2.4,0,4.4,2,4.3,4.4c0,2.5-2.1,4.3-4.3,4.3
				C38.1,55.3,36.1,53.3,36.2,50.8z"/>
			<path class="st10" d="M155.7,145.6h-0.1c-0.4-0.1-0.6-0.4-0.8-0.6c-1-1.1-2-2.1-2.8-3.3c0-0.1-0.1-0.1-0.1-0.1
				c-0.2-0.2-0.2-0.4,0-0.5c1,1.2,1.9,2.4,3,3.5c0.3,0.3,0.7,0.6,1,1C155.8,145.6,155.8,145.6,155.7,145.6z"/>
			<path class="st11" d="M151.9,141c0,0.2,0,0.4,0,0.5c0,8,0,16,0,24c0,0.6-0.1,1-0.5,1.5c-1.3,1.4-2,3.1-2.4,5
				c-0.1,0.4-0.3,0.8-0.4,1.3c0,0.3-0.3,0.5-0.6,0.6c-3.6,1.3-6.7,3.4-9.3,6.2c-0.9,1-1.8,2-2.5,3.1c-0.1,0.2-0.3,0.4-0.5,0.5
				c-0.2,0-0.2-0.1-0.3-0.2c-1.8-3.2-4.3-5.7-7.3-7.7c-0.6-0.4-0.6-0.4-0.5-1.1c0.2-1.6,0.9-3,1.9-4.3c0.3-0.2,0.7-0.2,1.1-0.2
				c4.1,0,8.2,0,12.3,0c0.5,0,0.9,0,1.4-0.2c0.9-0.3,1.5-1.1,1.5-1.9c0-0.9-0.5-1.6-1.4-2c-0.5-0.2-1.1-0.2-1.6-0.2
				c-2.8,0-5.6,0-8.4,0c-0.3,0-0.8,0.2-0.9-0.4c-0.1-0.9-0.6-1.5-1.5-1.8c-1.4-0.5-2.9-0.5-4.3-0.2c-2.3,0.5-4.6,1.1-6.7,2.3
				c-0.5,0.2-1.1,0.2-1.6,0.2c-13.2,0-26.4,0-39.6,0c-0.5,0-1,0-1.5,0.1c-1,0.3-1.8,1.1-1.8,2s0.7,1.8,1.8,2.1
				c0.5,0.1,0.9,0.1,1.4,0.1c11.6,0,23.2,0,34.8,0c0.4,0,0.9-0.1,1.3,0.2c-0.3,0.6-0.8,1.1-1.1,1.7c-0.2,0.3-0.4,0.3-0.7,0.3
				c-1.6,0.1-3.3,0.3-4.9,0.8c-3.4,0.9-6.5,2.5-9.3,4.6c-2.7,2.1-4.9,4.6-6.6,7.5c-1.5,2.5-2.5,5.2-3,8.1c-0.2,1.2-0.3,2.4-0.4,3.6
				c0,0.2,0,0.4-0.1,0.6c-6.3,0-12.5,0-18.8,0c-0.9,0-0.9,0-1-0.8c0-0.2,0-0.4,0-0.6c0-24.9,0-49.7,0-74.6c0-0.9,0-0.8,0.9-0.8
				c8.2,0,16.3,0,24.5,0c1.3,0,2.2-1,2.2-2.2c0-8.6,0-17.2,0-25.8c0-0.9-0.1-0.8,0.8-0.8c17.5,0,35,0,52.6,0c0.9,0,0.9-0.1,0.9,0.8
				c0,2.6,0,5.2,0,7.9c-1.5,2-2.8,4.2-3.8,6.5c-0.7,1.7-1.3,3.4-1.8,5.1c-0.1,0.2-0.1,0.5-0.4,0.6c-12.3-0.2-24.6,0-36.9-0.1
				c-1,0-1.9,0.1-2.6,0.8c-1,1-0.8,2.4,0.4,3.1c0.6,0.3,1.2,0.4,1.8,0.4c3.7,0,7.4,0,11.1,0c8.1,0,16.2,0,24.3,0
				c0.4,0,0.8,0,1.1,0.1c0.2,0.1,0.3,0.2,0.2,0.4c-0.1,1.6-0.2,3.2-0.1,4.8c0,0.4,0.2,0.9-0.1,1.2c-0.4,0.2-0.8,0.1-1.2,0.1
				c-12,0-24,0-36,0c-0.5,0-1,0-1.5,0.2c-1,0.3-1.6,1.1-1.5,2.1c0.1,0.9,0.8,1.7,1.8,1.9c0.4,0.1,0.8,0.1,1.2,0.1c12,0,24,0,35.9,0
				c0.5,0,0.9,0,1.4,0c0.1,0,0.3,0,0.4,0c0.1,0,0.1,0,0.2,0c0.1,0,0.1,0,0.2,0.1l0,0c0.1,0.2,0,0.4,0.1,0.6c0.4,1.3,0.7,2.7,1.2,4
				C148.4,135.4,150,138.3,151.9,141z"/>
			<path class="st11" d="M61.4,93.2c-1.1,0.9-1.9,1.9-2.8,2.9c-1.3,1.4-2.6,2.7-3.9,4c-0.9,0.9-1.8,1.9-2.7,2.8
				c-0.4,0.4-0.6,0.9-0.6,1.4c0,0.2,0,0.4,0,0.5c0,21.4,0,42.8,0,64.1c0,1,0.1,0.9-1,0.9c-3.1,0-6.1,0-9.2,0c-0.2,0-0.3,0-0.5,0
				c-0.4,0-0.5-0.1-0.5-0.5c0-0.1,0-0.3,0-0.4c0-25,0-49.9,0-74.9c0-0.9,0-0.9,0.9-0.9c6.5,0,13,0,19.5,0
				C60.9,93.1,61.1,93.1,61.4,93.2z"/>
			<path class="st11" d="M76.9,106.7c-0.2,0.2-0.4,0.5-0.7,0.7c-1.3,1.2-2.5,2.6-3.8,3.9c-1.5,1.5-3,3.1-4.5,4.6
				c-0.3,0.3-0.6,0.6-0.9,0.9c-0.5,0.5-0.7,1.1-0.7,1.7c0,0.2,0,0.4,0,0.5c0,21.1,0,42.2,0,63.3c0,1,0.1,0.9-0.9,0.9
				c-3.1,0-6.1,0-9.2,0c-0.2,0-0.4,0-0.5,0c-0.2,0-0.3-0.1-0.3-0.3s0-0.4,0-0.5c0-25,0-50,0-75c0-0.9-0.1-0.8,0.8-0.8
				c6.6,0,13.3,0,19.9,0c0.2,0,0.4,0,0.7,0C76.8,106.6,76.9,106.7,76.9,106.7z"/>
			<path class="st11" d="M110,77.7c8.7,0,17.4,0,26.2,0c0.9,0,0.8-0.1,0.9,0.8c0,2.8,0,5.5,0,8.3c0,0.2,0,0.3,0,0.5
				c0,0.3-0.1,0.4-0.4,0.4c-0.2,0-0.4,0-0.6,0c-12.3,0-24.5,0-36.8,0c-1,0-1.9,0-2.9,0c-0.5,0-1,0.2-1.3,0.5
				c-0.1,0.1-0.3,0.2-0.4,0.4c-2,2.1-4,4.1-5.9,6.2c-1.6,1.7-3.3,3.3-4.9,5c-0.2,0.2-0.4,0.4-0.6,0.6c-0.2,0.1-0.3,0.1-0.3-0.1
				s0-0.3,0-0.5c0-7.1,0-14.1,0-21.2c0-0.1,0-0.2,0-0.3c0-0.3,0.1-0.5,0.5-0.5c0.2,0,0.4,0,0.5,0C92.5,77.7,101.2,77.7,110,77.7z"/>
			<path class="st11" d="M68,86.2c-0.1-0.2,0-0.4,0-0.7c0-6.9,0-13.7,0-20.6c0-0.1,0-0.3,0-0.4c0-0.3,0.1-0.4,0.4-0.4
				c0.2,0,0.3,0,0.5,0c17.4,0,34.8,0,52.3,0c1,0,0.9,0,0.9,0.9c0,2.5,0,5,0,7.5c0,0.2,0,0.3,0,0.5c0,0.3-0.1,0.4-0.4,0.4
				c-0.2,0-0.4,0-0.6,0c-12.1,0-24.2,0-36.3,0c-0.9,0-1.9,0-2.8,0c-0.8,0-1.5,0.2-2,0.8c-0.2,0.2-0.4,0.4-0.7,0.7
				c-1.9,1.9-3.7,3.8-5.5,5.8c-1.3,1.3-2.6,2.6-3.9,3.9c-0.4,0.4-0.8,0.9-1.2,1.3C68.3,86.1,68.2,86.2,68,86.2z"/>
			<path class="st8" d="M58.1,102.4c0.6-0.6,1-1.3,1.7-1.8c0.5-0.4,0.9-0.9,1.3-1.4c0.6-0.7,1.3-1.3,1.9-2c0.8-0.9,1.6-1.7,2.5-2.5
				c1.9-1.9,3.8-3.8,5.7-5.8c0.8-0.9,1.7-1.7,2.5-2.7c0.2-0.3,0.5-0.4,0.8-0.7c0.5-0.6,1-1.2,1.6-1.7c0.9-0.8,1.7-1.8,2.6-2.6
				c0.1-0.1,0.2-0.3,0.4-0.3c0.1,0.2,0.1,0.4,0.1,0.5c0,6.8,0,13.6,0,20.3v0.1c0,0.6,0,0.6-0.6,0.6c-0.2,0-0.3,0-0.5,0
				c-6.1,0-12.2,0-18.4,0c-0.4,0-0.7,0-1.1,0.1C58.4,102.6,58.3,102.6,58.1,102.4z"/>
			<path class="st9" d="M43.1,89c7-7.1,13.9-14.3,20.8-21.5C64,67.8,64,68,64,68.3c0,6.7,0,13.4,0,20.1c0,0.1,0,0.1,0,0.2
				c0,0.6,0,0.6-0.6,0.6c-0.1,0-0.2,0-0.3,0c-6.4,0-12.9,0-19.3,0C43.7,89.1,43.5,89.1,43.1,89z"/>
			<path class="st7" d="M73.2,116.5c0-0.2,0.2-0.3,0.4-0.5c0.6-0.6,1.3-1.2,1.9-1.9c1-1.2,2.1-2.2,3.1-3.4c1.1-1.2,2.4-2.4,3.6-3.6
				c1.2-1.3,2.5-2.6,3.7-3.9c1.3-1.4,2.7-2.7,4-4c1.1-1.2,2.2-2.3,3.3-3.5c0.2-0.2,0.4-0.4,0.6-0.6c0.2,0.1,0.2,0.3,0.2,0.5
				c0,6.8,0,13.6,0,20.3c0,0.6,0,0.6-0.7,0.6c-6,0-11.9,0-17.9,0C74.6,116.5,73.9,116.5,73.2,116.5z"/>
			<path class="st12" d="M156.9,139.2c-8-9.2-10.2-26.2,1.3-38.7c11.3-12.3,31.1-12.9,43.1-0.3c11.5,12.2,9.7,29.3,1.7,38.7
				c-0.2-0.2-0.1-0.5-0.2-0.7c-1.3-5.7-4.4-10.4-9.1-13.9c-0.5-0.4-0.5-0.4-0.3-1c1-2.7,1.4-5.4,1.3-8.2c-0.2-3.4-1.1-6.6-2.9-9.5
				c-0.7-1.2-1.4-2.4-2.3-3.4c-2.2-2.4-4.9-3.8-8.1-4.2c-3.9-0.4-7.4,0.6-10.4,3.2c-3.4,2.9-5.5,6.6-6.4,11c-0.8,4.1-0.4,8.1,1.2,12
				c0.2,0.5,0.2,0.5-0.2,0.8c-4.4,3.6-7.2,8.2-8.4,13.7C157,138.9,157,139.1,156.9,139.2z"/>
			<path class="st13" d="M179.8,150.3c-7.3-0.1-13.8-2.5-19.4-7.3c-0.1-0.1-0.2-0.2-0.3-0.3c-0.3-0.2-0.4-0.5-0.4-0.9
				c0.1-1.1,0.2-2.2,0.5-3.3c2-7.4,6.7-12.3,14-14.7c0.4-0.1,0.8-0.1,1.2,0c2.9,0.9,5.8,0.9,8.7-0.1c0.4-0.1,0.8-0.1,1.2,0
				c3.8,1.1,7.1,3.1,9.8,6c2.6,2.9,4.3,6.3,5,10.2c0.1,0.5,0.1,1,0.2,1.5c0.1,0.4-0.1,0.7-0.4,1c-2.3,2.1-4.8,3.8-7.6,5.1
				c-2.9,1.4-6,2.2-9.2,2.6C181.9,150.2,180.9,150.3,179.8,150.3z"/>
			<path class="st14" d="M179.9,121.5c-5.5,0-9.8-3.7-10.6-8.8c-0.2-1.3-0.1-2.7,0.2-4c0.1-0.3,0.2-0.5,0.5-0.6
				c1.5-0.7,2.8-1.5,4.1-2.5c0.4-0.4,0.4-0.3,0.9,0c2.6,2,5.5,3.4,8.7,4.1c1.2,0.3,2.5,0.5,3.8,0.4c0.3,0,0.5,0.1,0.7,0.4
				c0.3,0.7,0.7,1.4,1.3,1.9c0.2,0.2,0.2,0.3,0.2,0.5c-0.4,2.2-1.3,4-2.9,5.6C184.8,120.5,182.4,121.4,179.9,121.5z"/>
			<path class="st15" d="M145.2,123.3c0.3-0.3,0-0.8,0.2-1.1c0.1,0.2,0.1,0.3,0.1,0.5c0,1.5,0.2,2.9,0.5,4.4c0,0.2,0,0.4,0.1,0.7
				c-0.1,0-0.1,0-0.2,0c-0.2-0.1-0.3-0.3-0.3-0.5c-0.3-1.2-0.4-2.4-0.5-3.6C145,123.5,145.1,123.4,145.2,123.3z"/>
			<path class="st16" d="M145.4,117.3c0-0.1,0-0.2-0.2-0.3c0-0.1-0.1-0.1-0.1-0.2c0.1-1.1,0.1-2.3,0.6-3.3c0.1-0.1,0.2,0,0.2,0.2
				C145.8,114.9,145.6,116.1,145.4,117.3z"/>
			<path class="st17" d="M190.7,120.8c0,0.6-0.2,1-0.5,1.6C190.2,122,190.3,121.6,190.7,120.8L190.7,120.8z"/>
			<path class="st18" d="M146,113.7c0-0.1-0.1-0.1-0.1-0.2c-0.1-0.4-0.1-0.8,0.2-1c0.2-0.1,0.1-0.3,0.3-0.4
				C146.3,112.6,146.2,113.1,146,113.7z"/>
			<path class="st15" d="M146.1,128.3c-0.2-0.1-0.1-0.4-0.1-0.6C146.1,127.9,146.1,128.1,146.1,128.3z"/>
			<path class="st17" d="M190.7,120.8L190.7,120.8c0-0.2,0-0.2,0.1-0.3C190.9,120.6,190.9,120.7,190.7,120.8
				C190.8,120.8,190.8,120.8,190.7,120.8L190.7,120.8z"/>
			<path class="st19" d="M127.4,167.1c-0.6,0.9-1.1,1.7-1.6,2.5c-0.7,1.2-1.1,2.4-1.4,3.7c-0.3,1.2-0.3,2.4-0.3,3.7
				c0,0.5,0.2,0.8,0.6,1c2.1,1.1,4,2.5,5.5,4.3c1.4,1.6,2.5,3.4,3.2,5.4c0.1,0.2,0.1,0.4,0,0.6c-0.9,2-1.4,4.1-1.6,6.3
				c-0.2,1.6-0.3,3.2-0.1,4.8c0.2,1.3,0.3,2.6,0.7,3.9c0.1,0.3,0,0.7-0.1,1c-0.7,1.3-1.5,2.5-2.5,3.7c-1.3,1.6-2.8,3-4.5,4.2
				c-1.6,1.1-3.3,2-5.1,2.7c-1.5,0.6-3,1-4.6,1.2c-1.1,0.2-2.2,0.3-3.3,0.3c-1.9-0.1-3.8-0.3-5.6-0.9c-2.4-0.7-4.6-1.9-6.6-3.5
				c-1.7-1.4-3.2-3.1-4.3-5.1c-0.9-1.6-1.5-3.2-1.9-5c-0.3-1.6-0.5-3.2-0.5-4.8c0.2-4.4,1.7-8.3,4.2-11.9c1.5-2,3.2-3.7,5.3-5.1
				c2.6-1.8,5.5-3,8.6-3.7c1.7-0.4,3.4-0.4,5.2-0.4c0.7,0,0.7,0,0.8-0.6c0.4-1.6,1.3-2.9,2.2-4.2c0.4-0.6,1.1-1,1.7-1.4
				C123.3,168.4,125.2,167.6,127.4,167.1z"/>
			<path class="st20" d="M158.8,165.3c-0.4,1.3-0.8,2.4-1,3.6c-0.2,1.3-0.4,2.5-0.1,3.8c0.3,1,0.6,2,1,3c0.2,0.4,0.5,0.7,0.9,0.8
				c1.5,0.2,3,0.7,4.4,1.4c0.4,0.2,0.8,0.2,1.1,0.4c1,0.5,1.8,1.1,2.6,1.8c2.8,2.3,4.6,5.3,5.7,8.7c0.8,2.5,0.9,5,0.7,7.6
				c-0.2,3-1.1,5.7-2.5,8.3c-1.3,2.5-3,4.6-5.2,6.4c-1.4,1.2-3,2.2-4.6,3c-1.3,0.6-2.6,1.1-3.9,1.4c-1.8,0.4-3.6,0.6-5.4,0.5
				c-3.1-0.1-5.9-0.9-8.5-2.5c-3.3-1.9-5.7-4.7-7.3-8.2c-0.8-1.8-1.3-3.6-1.5-5.5c-0.3-2.4-0.1-4.8,0.4-7.2
				c0.9-3.9,2.8-7.3,5.5-10.2c2.2-2.3,4.7-4,7.6-5.2c0.6-0.2,1.1-0.4,1.7-0.6c0.4-0.1,0.7-0.3,0.7-0.8c0.3-1.7,0.8-3.2,1.5-4.8
				c0.3-0.7,0.7-1.2,1.2-1.8C155.3,167.7,156.9,166.4,158.8,165.3z"/>
			<path class="st21" d="M116,170.3c-3.6,0-7.2,0-10.8,0c-8.6,0-17.2,0-25.8,0c-0.6,0-1.2-0.1-1.7-0.3c-1.1-0.6-1.6-1.8-1.1-2.9
				c0.5-1,1.3-1.4,2.3-1.5c0.1,0,0.2,0,0.3,0c13.8,0,27.6,0,41.4,0c0.2,0,0.3,0,0.5,0c-0.5,0.3-0.9,0.6-1.4,0.9
				C118.2,167.5,116.9,168.7,116,170.3C116.1,170.3,116,170.3,116,170.3z"/>
			<path class="st3" d="M152.1,141.7c0.6,0.5,1,1.2,1.6,1.8c0.7,0.7,1.3,1.4,2,2.1c0,5.6,0,11.2,0,16.8c0,0.5-0.2,0.8-0.6,1.2
				c-0.8,0.6-1.6,1.2-2.3,2c-0.2,0.2-0.3,0.4-0.6,0.5C152.1,157.9,152.1,149.8,152.1,141.7z"/>
			<path class="st21" d="M133.6,165.3c0.1,0.1,0.1,0.3,0.3,0.3s0.4,0,0.5,0c3,0,5.9,0,8.9,0c0.8,0,1.5,0.2,2.1,0.7
				c0.7,0.6,0.9,1.3,0.7,2.1c-0.2,0.9-0.8,1.5-1.6,1.8c-0.4,0.1-0.8,0.2-1.3,0.2c-4.5,0-9.1,0-13.6,0c1-1.6,2.2-3,3.7-4.2
				C133.5,165.9,133.4,165.6,133.6,165.3z"/>
			<path class="st13" d="M158.3,72.4c-0.6,0.9-1.3,1.7-1.9,2.6h-0.1c0-0.8-0.1-1.6,0-2.4c0.1-1.4,0.1-2.8,0.1-4.2
				c0.1-1.5,0.1-2.9,0.1-4.4c0-0.2,0-0.4,0-0.5c0-0.3-0.2-0.4-0.4-0.4s-0.4,0-0.5,0c-7.3,0-14.5,0-21.8,0c-0.9,0-0.9,0.1-0.9-0.8
				c0-6.6,0-13.3,0-19.9c0-1.8,1.8-4,4-4.1c0.2,0,0.5,0,0.7,0c15.1,0,30.2,0,45.2,0c1.9,0,3.3,1.1,3.9,2.8c0.2,0.5,0.2,1.1,0.2,1.6
				c-0.1,3-0.1,6.1-0.2,9.1c0,1.6,0,3.3-0.1,4.9c-0.1,1.9-0.1,3.8-0.1,5.7c0,0.6,0,0.6-0.7,0.6c-6.6,0-13.1,0-19.7,0
				c-0.6,0-1,0.2-1.4,0.7c-0.5,0.7-1,1.4-1.6,2c-0.1,0.1-0.2,0.3-0.3,0.4c-0.9,1.3-1.8,2.6-2.8,3.8c-0.1,0.1-0.2,0.3-0.3,0.4
				c-0.4,0.5-0.8,1.1-1.2,1.6C158.5,72.1,158.4,72.3,158.3,72.4z"/>
			<path class="st22" d="M194.7,83.1c-0.5-0.5-0.8-0.9-1.1-1.4c-2-3-4.1-6-6.1-8.9c-0.2-0.4-0.5-0.7-0.7-1.1
				c-0.2-0.3-0.5-0.5-0.9-0.5c-5.1-0.2-10.2-0.1-15.3-0.1c-1.1,0-0.9,0.1-1-0.9c0-1.5,0-3.1,0-4.6c0-0.7,0-0.7,0.7-0.7
				c5.4,0,10.9,0,16.3,0c0.4,0,0.9,0.1,1.3-0.1c0.5-0.2,0.6-0.3,0.6-0.9c0-0.5,0-1.1,0-1.6c0-5,0-9.9,0-14.9c0-0.9,0-0.9,0.9-0.9
				c8.1,0,16.1,0,24.2,0c1.3,0,2.3,0.6,3,1.5c0.7,0.8,1,1.8,1,2.9c0,6.3,0,12.7,0,19c0,0.1,0,0.3,0,0.4c0,0.6,0,0.7-0.7,0.7
				c-3.3,0-6.5,0-9.8,0c-3.6,0-7.1,0-10.7,0c-0.2,0-0.4,0-0.5,0c-0.3,0-0.4,0.1-0.4,0.4c-0.1,0.9-0.2,1.8-0.3,2.8
				c-0.1,1.4-0.3,2.8-0.4,4.2c0,0.7-0.1,1.5-0.2,2.2C194.7,81.4,194.6,82.2,194.7,83.1z"/>
			<path class="st23" d="M158.3,72.4c0-0.2,0.1-0.3,0.3-0.4C158.6,72.2,158.5,72.3,158.3,72.4z"/>
			<path class="st24" d="M159.8,70.4c0-0.2,0.1-0.3,0.3-0.4C160.1,70.2,160,70.3,159.8,70.4z"/>
			<path class="st25" d="M162.9,66.2c0-0.2,0.1-0.3,0.3-0.4C163.2,65.9,163.1,66.1,162.9,66.2z"/>
			<path class="st21" d="M110.9,160c-10.8,0-21.6,0-32.3,0c-0.5,0-0.9,0-1.3-0.1c-1-0.2-1.8-1-1.9-2.1s0.6-2,1.7-2.4
				c0.4-0.1,0.7-0.2,1.1-0.2c1.9,0,3.8,0,5.8,0c19.9,0,39.8,0,59.7,0c0.6,0,1.1,0.1,1.6,0.3c0.9,0.5,1.4,1.2,1.3,2.1
				c0,1-0.8,1.8-1.6,2.1c-0.5,0.1-1,0.2-1.5,0.2C132.5,160,121.7,160,110.9,160z"/>
			<path class="st21" d="M110.4,144.5c10.8,0,21.7,0,32.5,0c0.7,0,1.4,0.1,2.1,0.6c1.4,1,1.2,2.9-0.1,3.7c-0.6,0.4-1.3,0.5-1.9,0.5
				c-0.3,0-0.5,0-0.8,0c-21.2,0-42.4,0-63.5,0c-0.8,0-1.6,0-2.4-0.4s-1.4-1-1.4-2s0.5-1.7,1.3-2.1c0.4-0.2,0.8-0.3,1.3-0.3
				s0.9,0,1.4,0C89.4,144.5,99.9,144.5,110.4,144.5z"/>
			<path class="st21" d="M111.4,137.9c-10.5,0-21.1,0-31.6,0c-0.5,0-0.9,0-1.4-0.1c-1.1-0.3-1.8-1.2-1.8-2.3s0.8-2,1.9-2.2
				c0.4-0.1,0.8-0.1,1.3-0.1c21.1,0,42.2,0,63.3,0c0.6,0,1.2,0.1,1.8,0.4c0.7,0.4,1.2,0.9,1.2,1.8c0.1,0.9-0.3,1.6-1.1,2.1
				c-0.4,0.3-0.9,0.4-1.4,0.4c-0.3,0-0.6,0-0.9,0C132.3,137.9,121.9,137.9,111.4,137.9z"/>
			<path class="st21" d="M146.1,112.5c-0.1,0.3-0.2,0.7-0.2,1c-0.2,1.2-0.4,2.3-0.6,3.5c-0.2,0-0.5,0-0.7,0c-12,0-24,0-36,0
				c-0.7,0-1.4-0.1-1.9-0.4c-0.8-0.5-1.2-1.2-1.1-2.2c0.1-0.9,0.7-1.5,1.4-1.8c0.5-0.2,1.1-0.3,1.6-0.3c8.4,0,16.8,0,25.2,0
				c3.6,0,7.2,0,10.8,0C145.1,112.3,145.6,112.3,146.1,112.5z"/>
			<path class="st21" d="M145.2,123.3c0.2,1.5,0.3,3,0.7,4.4l0,0c-0.1,0.1-0.2,0.1-0.3,0.1c-0.4,0-0.8,0-1.2,0
				c-12.2,0-24.4,0-36.6,0c-0.5,0-1.1,0-1.6-0.2c-1.5-0.6-2-2.3-1-3.5c0.5-0.6,1.1-0.9,1.9-0.9c0.3,0,0.5,0,0.8,0
				c12.2,0,24.3,0,36.5,0C144.6,123.2,144.9,123.3,145.2,123.3z"/>
			<path class="st15" d="M145.6,127.9c0.1-0.1,0.2-0.1,0.3-0.1C145.8,127.9,145.7,127.9,145.6,127.9z"/>
			<path class="st4" d="M104.8,210.8c-1.4,0-1.5,0-1.7-1.2c-0.3-1.9-0.6-3.7-0.9-5.6c-0.3-1.6-0.5-3.2-0.8-4.8
				c-0.1-0.4-0.1-0.8,0.1-1.2c0.1-0.3,0.1-0.5,0.1-0.8c0-1.5,0-3,0-4.5c0-1.4,0-2.7,0.1-4.1c0-1.7,0.1-3.4,0-5.1c0-0.2,0-0.5,0-0.7
				c0-0.4,0.2-0.6,0.6-0.8c0.7-0.3,1.4-0.1,2.1,0c1.9,0.2,3.7,0.6,5.6,0.8c1.4,0.2,2.7,0.4,4.1,0.6c2,0.3,4,0.6,5.9,0.8
				c0.9,0.1,1.7,0.3,2.6,0.3c0.4,0,0.7,0.3,0.6,0.7c-0.4,1.9-0.6,3.9-1,5.8c-0.2,1-0.4,2-0.5,3s-0.3,1.9-0.5,2.9
				c-0.1,0.4,0,0.7,0.2,0.9c0.3,0.4,0.6,0.8,1,1.1c0.7,0.8,1.4,1.5,2.1,2.3c1,1.1,2,2.2,3,3.4c0.4,0.5,0.9,0.9,1.3,1.4
				c0.4,0.5,0.3,1-0.1,1.5c-0.3,0.4-0.6,0.5-1.1,0.5c-0.8,0-1.5,0.2-2.3,0.3c-1.9,0.2-3.8,0.4-5.7,0.6c-2,0.2-3.9,0.5-5.9,0.7
				c-1.1,0.1-2.3,0.2-3.4,0.4c-1.2,0.1-2.4,0.3-3.6,0.5C106.1,210.6,105.3,210.7,104.8,210.8z"/>
			<path class="st4" d="M159.2,178.5c1.2-0.2,2.3-0.1,3.5-0.2c0.1,0,0.3,0,0.4,0c0.6,0.1,0.8,0.2,0.8,0.9c0.1,0.9,0.1,1.8,0.1,2.8
				c0.2,3.2,0.3,6.4,0.5,9.6c0.1,1.4,0.1,2.9,0.2,4.3c0.2,2.9,0.3,5.8,0.5,8.6c0.1,1.7,0.2,3.4,0.2,5.1c0,0.7-0.2,0.9-0.9,0.9
				c-0.9,0.1-1.8,0.1-2.7,0.1c-2.2,0.1-4.4,0.2-6.6,0.3c-3,0.2-6,0.3-9,0.5c-0.6,0-1.3,0.1-1.9,0.1c-0.2,0-0.5,0-0.7,0
				c-0.7,0-0.9-0.2-1-0.9c-0.1-1.1-0.1-2.2-0.2-3.2c-0.1-2.4-0.3-4.8-0.4-7.2c-0.2-3.4-0.4-6.7-0.5-10.1c0-0.5,0-1.1-0.1-1.6
				c-0.1-0.6,0.1-1,0.4-1.5c1-1.2,1.9-2.4,2.8-3.6c1-1.3,2-2.5,3-3.8c0.3-0.4,0.6-0.5,1.1-0.6c3.1-0.2,6.2-0.3,9.3-0.5
				C158.5,178.5,158.9,178.5,159.2,178.5z"/>
			<path class="st8" d="M160.8,47.8c2-0.1,3.5,1.6,3.5,3.4c0,1.8-1.6,3.5-3.5,3.5c-2-0.1-3.5-1.4-3.5-3.5
				C157.2,49.4,159,47.6,160.8,47.8z"/>
			<path class="st7" d="M173.6,47.8c1.9-0.1,3.5,1.7,3.5,3.4c0,1.9-1.5,3.5-3.5,3.5c-2.1,0-3.5-1.7-3.5-3.5S171.7,47.7,173.6,47.8z"
				/>
			<path class="st9" d="M151.3,51.3c0.1,1.6-1.2,3.5-3.5,3.5c-2.1,0-3.5-1.7-3.5-3.5c0-2.1,1.8-3.4,3.5-3.4
				C149.7,47.8,151.4,49.5,151.3,51.3z"/>
			<path class="st21" d="M118.8,197.9c0.3,0,0.6,0,0.9,0c0.7,0,1.3,0.2,1.8,0.8c1,1.1,2,2.2,3,3.3c0.9,1,1.9,2,2.8,3.1
				c0.3,0.3,0.6,0.6,0.9,0.9c0.2,0.3,0.2,0.4-0.1,0.5c-0.9,0.1-1.7,0.2-2.6,0.3s-1.8,0.2-2.7,0.3c-1,0.1-2,0.3-3.1,0.4
				c-1.3,0.1-2.5,0.3-3.7,0.4c-1,0.1-2.1,0.3-3.1,0.4c-1.2,0.1-2.5,0.3-3.7,0.4c-1.3,0.2-2.6,0.3-3.9,0.5c-0.3,0-0.4-0.1-0.4-0.3
				c-0.1-0.7-0.3-1.3-0.4-2c-0.2-1.1-0.4-2.3-0.6-3.5c-0.3-1.8-0.7-3.6-1-5.4c0.2-0.2,0.5-0.1,0.7-0.1c1,0.1,2,0,3,0.1
				c0.6,0,1.3,0,1.9,0c1,0,2-0.1,3,0c0.3,0,0.6-0.1,0.9-0.1s0.2-0.3,0.4-0.4c1.5,0.1,3.1,0,4.7,0.1c0.3,0,0.8-0.1,0.8,0.4
				c-0.2,0.2-0.5,0.2-0.8,0.2c-4,0-7.9,0.1-11.9,0.2c-0.4,0-0.7,0-1,0c0.6-0.1,1.3-0.1,2-0.1c3.8,0,7.6-0.1,11.4-0.2
				C118.2,198,118.5,197.9,118.8,197.9C118.8,198.1,118.8,198,118.8,197.9z"/>
			<path class="st9" d="M118.8,197.9c0,0.1,0.2,0.2,0.1,0.4c-0.3,0-0.6,0-1,0c0,0-0.1-0.1,0-0.1l0,0c-0.1-0.4-0.4-0.3-0.6-0.3
				c-1.4,0-2.8,0-4.3,0c-0.2,0-0.5,0.1-0.6-0.3c0-0.3-0.2-0.3-0.4-0.3c-1.3-0.1-2.6,0-3.9,0c-1.2,0-2.5,0-3.7,0c-0.3,0-0.7,0-1,0.1
				c-0.2,0.1-0.4,0-0.4-0.3c-0.1-0.4,0-0.9,0-1.3c0-0.7,0-1.5,0-2.2c0-2.1,0-4.2,0-6.4c0-0.9,0-1.8,0-2.7c0-0.4,0.1-0.9,0-1.3
				c-0.1-0.3,0.1-0.4,0.4-0.4c0.5,0,0.9,0.1,1.4,0.2c2,0.3,4,0.5,6,0.9c1.7,0.3,3.4,0.5,5.1,0.7c1.4,0.2,2.9,0.4,4.3,0.6
				c0.5,0.1,1,0.1,1.5,0.2c0.6,0.1,0.6,0.2,0.5,0.8c-0.2,1.5-0.5,3-0.8,4.5s-0.5,3.1-0.8,4.6c-0.1,0.6-0.2,1.1-0.3,1.7
				c0,0.4-0.2,0.5-0.6,0.4c-0.3-0.1-0.6-0.1-0.9-0.1c-0.2,0-0.4,0-0.5,0.2C118.5,197.6,118.6,197.8,118.8,197.9z"/>
			<path class="st26" d="M145,188c1.1-0.2,2.3-0.1,3.4-0.2c0.8-0.1,1-0.3,1-1.1c-0.1-1-0.1-2-0.1-3c-0.1-1.1-0.1-2.2-0.2-3.4
				c0-0.5,0-0.5,0.5-0.6c1.9-0.1,3.8-0.2,5.7-0.3c2.4-0.1,4.8-0.2,7.2-0.4c0.7,0,0.7,0,0.7,0.6c0.1,2.2,0.2,4.4,0.3,6.6
				c0.1,2.7,0.3,5.4,0.4,8c0.2,3.1,0.3,6.1,0.5,9.2c0.1,1.8,0.2,3.5,0.3,5.3c0,0.7,0,0.7-0.7,0.7c-3.2,0.2-6.3,0.3-9.5,0.5
				c-1.3,0.1-2.6,0.1-3.9,0.2c-2.1,0.1-4.3,0.2-6.4,0.4c-0.5,0-0.5,0-0.5-0.5c-0.1-1-0.1-2-0.2-3c-0.1-2.2-0.2-4.3-0.3-6.5
				c-0.1-2.1-0.2-4.2-0.4-6.3c-0.1-1.9-0.2-3.8-0.3-5.7c0-0.1,0-0.2,0-0.3c0-0.3,0.1-0.4,0.4-0.4c0.6,0,1.1-0.2,1.7-0.1
				c0.3,0.3,0.3,0.6,0.3,0.9c0,2.1,0.3,4.2,0.3,6.4c0,1.7,0,1.7,1.7,1.7c2.2-0.1,4.5-0.2,6.7-0.4c1.9-0.1,3.9-0.2,5.8-0.3
				c0.5,0,1.1,0,1.6-0.1c-2.1,0.1-4.1,0.2-6.2,0.4c-0.9,0.1-1.8,0.1-2.8,0.1c-1.8,0.1-3.6,0.2-5.4,0.3c-1.2,0.1-1.3,0-1.4-1.2
				c-0.2-2.3-0.2-4.6-0.4-6.9C144.8,188.6,144.8,188.3,145,188z"/>
			<path class="st27" d="M143,187c1.7-2.1,3.3-4.2,5-6.3c0,0,0.1,0,0.1,0.1c0,0.4,0.1,0.8,0.1,1.3c0.1,1.5,0.2,2.9,0.2,4.4
				c0,0.5,0,0.5-0.5,0.5c-1.6,0.1-3.2,0.2-4.9,0.3C143.1,187.1,143,187.1,143,187z"/>
			<path class="st28" d="M145,188c0,1.5,0.1,3,0.2,4.5c0.1,1.3,0.1,2.6,0.2,3.8c0.1,0.5,0,0.5,0.5,0.5c1.4-0.1,2.7-0.1,4.1-0.2
				c0.1,0,0.1,0,0.2,0c1.3,0,2.5-0.1,3.8-0.2c1.8-0.1,3.6-0.2,5.3-0.3c0.6,0,1.1-0.1,1.7-0.1c0.1,0,0.2,0,0.3,0s0.3,0,0.3,0.2
				c0,0.1-0.1,0.2-0.2,0.2c-0.5,0-0.9,0.1-1.4,0.1c-2.1,0-4.3,0.3-6.4,0.3c-1.6,0-3.2,0.2-4.9,0.3c-1.1,0.1-2.2,0-3.2,0.2
				c-0.4,0.1-0.5,0-0.5-0.4c-0.1-0.8-0.1-1.5-0.1-2.3c-0.1-1.9-0.2-3.8-0.3-5.7c0-0.3-0.1-0.5-0.1-0.8
				C144.7,188,144.8,187.9,145,188z"/>
			<path class="st4" d="M117.1,204.1c0.3-0.2,0.5-0.1,0.6,0.1c0.6,0.9,1.1,1.8,1.7,2.7v0.1c-0.1,0.1-0.2,0.1-0.3,0l-0.1-0.1
				c0,0,0,0-0.1-0.1l-0.1-0.1c-0.1,0-0.1,0-0.2,0c-0.2,0-0.3,0-0.5,0c-0.1,0-0.1,0-0.2,0c-0.2,0-0.3,0-0.5,0.1
				c-1.2,0-2.4,0.2-3.6,0.2c-0.1,0.1-0.3,0-0.4,0.2c0,0.1,0,0.2,0,0.3c-0.3,0.1-0.5,0-0.6-0.4c-0.2-0.8-0.5-1.5-0.7-2.2
				c-0.2-0.6-0.2-0.6,0.5-0.6c0.8-0.1,1.7-0.1,2.5-0.2C115.8,204.2,116.4,204.2,117.1,204.1z"/>
			<path class="st29" d="M115.1,203.3c-1.1,0.1-2.2,0.2-3.3,0.3h-0.1c-0.2,0-0.3-0.1-0.3-0.3s0.1-0.2,0.3-0.2c0.4,0,0.7-0.1,1.1-0.1
				c1.4-0.1,2.9-0.2,4.3-0.2c0.1,0,0.2,0,0.3,0c0.4,0,0.6,0.1,0.5,0.3c-0.1,0.3-0.3,0.2-0.5,0.2
				C116.6,203.2,115.9,203.3,115.1,203.3L115.1,203.3z"/>
			<path class="st30" d="M118,198.1v0.1c-0.2,0.2-0.5,0.1-0.8,0.1c-1.7,0-3.5-0.1-5.2,0c-2.5,0.1-5,0.1-7.5,0.1c-0.2,0-0.4,0-0.6,0
				c0-0.1,0-0.2,0.1-0.2c2.4,0,4.7,0,7.1-0.1c0.6,0,1.2-0.1,1.7-0.1C114.5,198.1,116.3,198.1,118,198.1z"/>
			<path class="st31" d="M119.1,206.9c0.1,0.1,0.2,0.1,0.3,0.1c-0.6,0.3-1.2,0.2-1.8,0.3c-1.1,0.1-2.2,0.1-3.3,0.3
				c-0.3,0-0.6,0-0.9,0c0-0.1-0.1-0.2-0.1-0.3c0.6-0.3,1.1-0.3,1.7-0.3c0.7,0,1.3-0.2,2-0.1c0.1,0,0.1,0,0.2,0s0.1,0,0.2,0
				c0.2,0,0.4,0,0.7-0.1c0.1,0,0.2,0,0.3,0c0.1,0.1,0.1,0.1,0.2,0s0.2-0.1,0.4,0C119,206.9,119.1,206.9,119.1,206.9z"/>
			<path class="st32" d="M106.1,203.8c-0.2,0-0.4,0-0.5,0c-0.2,0-0.3-0.1-0.3-0.3s0.1-0.2,0.3-0.2c0.4,0,0.8,0,1.1,0
				c0.2,0,0.3,0.1,0.3,0.3s-0.1,0.3-0.3,0.3C106.5,203.8,106.3,203.8,106.1,203.8L106.1,203.8z"/>
			<path class="st33" d="M105.7,202.1c-0.2,0-0.4,0-0.6,0.1c-0.1,0-0.2-0.1-0.2-0.2c0-0.1,0-0.2,0.2-0.2c0.4,0,0.8-0.1,1.2-0.1
				c0.2,0,0.3,0,0.4,0.2c0.1,0.1,0.1,0.3-0.1,0.3C106.3,202.1,106,202.1,105.7,202.1z"/>
			<path class="st34" d="M120.9,201.4c-0.3,0-0.5-0.1-0.7,0c-0.1,0-0.2-0.1-0.2-0.2c0-0.1,0.1-0.1,0.2-0.2c0.5-0.1,1-0.1,1.6-0.1
				c0.1,0,0.3,0.1,0.3,0.2c0,0.2-0.1,0.2-0.2,0.2C121.5,201.3,121.2,201.4,120.9,201.4z"/>
			<path class="st35" d="M121.5,200c-0.4,0-0.8,0-1.2,0c-0.2,0-0.3,0-0.4-0.2c-0.1-0.1-0.1-0.3,0.1-0.3c0.4-0.1,0.8-0.1,1.2,0
				C121.4,199.6,121.4,199.7,121.5,200z"/>
			<path class="st36" d="M110.3,199.9c0.1,0,0.3,0,0.5,0.1c0.1,0,0.1,0.1,0.1,0.2c0,0.1-0.1,0.2-0.1,0.2c-0.4,0.1-0.7,0.1-1,0
				c-0.1-0.1-0.2-0.2-0.2-0.3s0.2-0.1,0.3-0.1C110,199.9,110.1,199.9,110.3,199.9z"/>
			<path class="st37" d="M112.6,200.3c-0.1,0-0.3,0-0.4-0.1c-0.1,0-0.2-0.1-0.2-0.2c0-0.1,0.1-0.2,0.2-0.2s0.3,0,0.4,0
				c0.3,0,0.5,0.1,0.5,0.3C113.1,200.4,112.8,200.3,112.6,200.3z"/>
			<path class="st38" d="M107.6,200.4c-0.2,0-0.5,0.1-0.5-0.3c0-0.4,0.3-0.2,0.6-0.3c0.1,0,0.2,0,0.3,0c0.2,0,0.3,0.2,0.3,0.3
				c0,0.2-0.2,0.2-0.3,0.2C107.8,200.4,107.8,200.4,107.6,200.4z"/>
			<path class="st39" d="M122,202.7c-0.2,0-0.3,0-0.5,0c-0.1,0-0.2-0.1-0.2-0.2c0-0.1,0.1-0.2,0.2-0.2c0.3,0,0.6,0,0.9,0
				c0.1,0,0.3,0.1,0.3,0.2c0,0.2-0.2,0.1-0.3,0.1C122.3,202.7,122.2,202.7,122,202.7z"/>
			<path class="st40" d="M109.2,203.6c0,0-0.1,0-0.2-0.1c-0.1,0-0.2-0.1-0.2-0.3c0-0.1,0.2-0.1,0.3-0.1c0.2,0,0.5,0,0.7,0
				c0.1,0,0.2,0.1,0.2,0.2c0,0.2-0.1,0.2-0.2,0.2C109.6,203.6,109.4,203.6,109.2,203.6z"/>
			<path class="st41" d="M104.9,200c0.2,0,0.5-0.1,0.6,0.2c0,0.2-0.3,0.3-0.6,0.3c-0.2,0-0.4-0.1-0.4-0.3S104.8,200,104.9,200z"/>
			<path class="st42" d="M115.1,204.3c-0.6,0.2-1.2,0.1-1.8,0.2c-0.2,0-0.4,0.2-0.6,0c0.1,0,0.1-0.1,0.2-0.1
				c0.6-0.1,1.3-0.1,1.9-0.1c0.1,0.1,0.2,0.1,0.2,0L115.1,204.3C115.1,204.1,115.1,204.2,115.1,204.3
				C115.1,204.2,115.1,204.3,115.1,204.3z"/>
			<path class="st43" d="M112.1,201.4c0.1,0.2,0.2,0.3-0.1,0.4c-0.2,0-0.4,0.1-0.7,0c-0.2-0.1-0.2-0.2-0.1-0.4
				C111.5,201.3,111.8,201.2,112.1,201.4z"/>
			<path class="st44" d="M116.1,199.7c0.3-0.1,0.5-0.1,0.7,0c0.1,0,0.2,0.1,0.2,0.3c0,0.1-0.1,0.2-0.3,0.2
				C116.5,200,116.2,200.1,116.1,199.7z"/>
			<path class="st45" d="M118.6,200c-0.1,0-0.2,0-0.3,0c-0.1,0-0.2-0.1-0.2-0.2c0-0.1,0.1-0.1,0.2-0.1s0.2,0,0.3,0
				c0.2,0,0.4,0,0.4,0.3C119,200.1,118.8,200,118.6,200z"/>
			<path class="st46" d="M118.6,201.4c-0.2,0-0.5,0.1-0.5-0.2s0.3-0.2,0.5-0.2h0.1c0.1,0,0.3,0.1,0.3,0.2
				C119,201.4,118.8,201.4,118.6,201.4C118.7,201.4,118.7,201.4,118.6,201.4z"/>
			<path class="st47" d="M108.6,201.6c0.2-0.1,0.4-0.1,0.6-0.1c0.1,0,0.3,0.1,0.3,0.2c0,0.1-0.1,0.2-0.2,0.2
				C108.9,202,108.6,202.1,108.6,201.6z"/>
			<path class="st48" d="M114.7,199.8C114.6,199.8,114.7,199.8,114.7,199.8c0.2,0,0.3,0.1,0.3,0.2c0,0.1-0.1,0.1-0.2,0.2
				c-0.1,0-0.3,0-0.4,0s-0.3-0.1-0.2-0.3c0-0.1,0.2-0.1,0.3-0.1C114.5,199.8,114.5,199.8,114.7,199.8z"/>
			<path class="st49" d="M120,202.8c-0.2,0.1-0.5,0.1-0.7,0l-0.1-0.1c0-0.1,0-0.1,0.1-0.2C119.5,202.4,119.8,202.5,120,202.8z"/>
			<path class="st50" d="M115.1,204.3c0-0.1,0-0.1,0-0.2c0.6-0.1,1.2,0.1,1.8-0.1c0.1,0,0.2,0.1,0.2,0.1c-0.1,0.2-0.3,0.1-0.5,0.1
				C116.1,204.3,115.6,204.3,115.1,204.3z"/>
			<path class="st51" d="M123.4,202.4c0.3,0,0.5-0.2,0.8-0.1c0.1,0,0.2,0.1,0.1,0.2c0,0.1-0.1,0.1-0.2,0.1
				C123.9,202.5,123.6,202.7,123.4,202.4z"/>
			<path class="st52" d="M115.9,201.4c0-0.4,0.3-0.3,0.5-0.3c0.3-0.1,0.3,0.1,0.4,0.3C116.5,201.5,116.2,201.5,115.9,201.4z"/>
			<path class="st53" d="M114.4,201.5c-0.2,0.2-0.4,0.2-0.8,0C113.8,201.3,114.1,201.3,114.4,201.5z"/>
			<path class="st54" d="M115.9,201.4c0.3,0,0.6,0,0.9,0C116.5,201.6,116.2,201.6,115.9,201.4z"/>
			<path class="st55" d="M114.4,201.5c-0.3,0-0.5,0-0.8,0v-0.1c0.3-0.1,0.5-0.1,0.8,0V201.5z"/>
			<path class="st56" d="M114.4,201.4c-0.3,0-0.5,0-0.8,0C113.8,201.2,114.1,201.2,114.4,201.4z"/>
			<path class="st57" d="M112.1,201.4c-0.3,0-0.6,0-0.8,0C111.5,201.2,111.8,201.2,112.1,201.4z"/>
			<path class="st50" d="M114.9,204.1c-0.1,0.1-0.2,0.1-0.2,0C114.7,204.1,114.8,204.1,114.9,204.1z"/>
			<path class="st14" d="M121.7,186.7c-0.2,1.2-0.4,2.4-0.6,3.5c-0.2,1.4-0.5,2.8-0.7,4.1c-0.1,0.4-0.2,0.8-0.2,1.3
				c-0.1,0.3-0.3,0.4-0.5,0.4c-1.2-0.2-2.4-0.1-3.7-0.1c-0.9,0-1.7,0-2.6-0.1c-1.4-0.1-2.7,0-4.1-0.1c-0.9,0-1.8,0-2.6-0.1
				c-0.8-0.1-1.6-0.1-2.4,0c-0.7,0-0.7,0-0.6-0.7c0-0.9,0.1-1.7,0.1-2.6c0-1.9,0-3.8,0-5.7c0-0.8,0.1-1.6,0-2.5
				c0-0.3,0.2-0.4,0.5-0.3c1.1,0.2,2.3,0.3,3.4,0.5c1.5,0.2,2.9,0.4,4.4,0.6c1.3,0.2,2.6,0.4,3.9,0.5c1.2,0.1,2.4,0.3,3.7,0.5
				c0.5,0.1,1.1,0.1,1.6,0.2C121.8,186.1,121.7,186.2,121.7,186.7z"/>
			<path class="st58" d="M144.3,201.9c-0.2,0-0.5,0.1-0.6-0.3c-0.1-0.2,0.2-0.3,0.7-0.4c2.2-0.1,4.4-0.2,6.6-0.3
				c2.7-0.1,5.4-0.3,8-0.4c0.6,0,1.1-0.1,1.7-0.1c0.2,0,0.4,0,0.4,0.2s-0.1,0.3-0.3,0.3c-0.3,0-0.5,0.1-0.8,0.1
				c-2.3,0.1-4.6,0.2-7,0.3C150.2,201.6,147.3,201.7,144.3,201.9z"/>
			<path class="st58" d="M144.8,205.2c-0.3,0-0.5,0-0.7,0s-0.3-0.1-0.3-0.3s0.1-0.3,0.3-0.3c0.4,0,0.9-0.1,1.3-0.1
				c3.1-0.2,6.2-0.3,9.3-0.5c1.6-0.1,3.3-0.2,4.9-0.3c0.3,0,0.7-0.1,1-0.1c0.2,0,0.3,0,0.5,0c0.1,0,0.2,0.1,0.2,0.3
				c0,0.1-0.1,0.2-0.2,0.2c-0.2,0-0.4,0.1-0.5,0.1c-2.2,0.1-4.5,0.2-6.7,0.3c-2.6,0.1-5.2,0.3-7.8,0.4
				C145.7,205.1,145.2,205.2,144.8,205.2z"/>
			<path class="st4" d="M145.3,203.6c-0.4,0-0.7,0-1.1,0c-0.2,0-0.5,0-0.4-0.3c0-0.3,0.2-0.3,0.5-0.3c0.6,0,1.2-0.1,1.8-0.1
				c2.3-0.1,4.6-0.2,6.9-0.3c2.6-0.1,5.1-0.3,7.7-0.4c0.2,0,0.4,0,0.5,0s0.2,0.1,0.2,0.2c0,0.2-0.1,0.3-0.2,0.3c-0.1,0-0.2,0-0.3,0
				c-0.7,0-1.3,0.1-2,0.1c-2.3,0.1-4.6,0.2-6.8,0.3C149.8,203.3,147.6,203.4,145.3,203.6L145.3,203.6z"/>
			<path class="st58" d="M159.9,198.9c0.3,0,0.5,0,0.8,0c0.1,0,0.3,0.1,0.3,0.2c0,0.2-0.1,0.3-0.3,0.3c-0.5,0-1,0.1-1.5,0.1
				c-2.3,0.1-4.5,0.2-6.8,0.3c-2.6,0.1-5.1,0.3-7.7,0.4c-0.3,0-0.5,0.1-0.8,0.1c-0.2,0-0.3-0.1-0.3-0.3s0.1-0.3,0.3-0.3
				c0.1,0,0.2,0,0.3,0c2.1-0.1,4.1-0.2,6.2-0.3c2.9-0.2,5.9-0.3,8.8-0.5C159.4,199,159.7,199,159.9,198.9
				C159.9,199,159.9,198.9,159.9,198.9z"/>
			<path class="st26" d="M158.9,184.5c-0.3-0.2-0.6-0.1-0.8-0.1c-0.1,0-0.2-0.1-0.2-0.2c0-0.1,0.1-0.1,0.2-0.1
				c0.5-0.1,1.1-0.1,1.6-0.1c0.4,0,0.5,0.2,0.3,0.6c-0.2,0.4-0.5,0.9-0.7,1.3c-0.1,0.1-0.2,0.3-0.4,0.2s-0.1-0.3,0-0.4
				c0.1-0.2,0.2-0.4,0.3-0.7c-0.8,0.5-1.7,0.8-2.3,1.5c-0.1,0.1-0.1,0.1-0.2,0.1c-1,0.1-1.6,0.9-2.4,1.3c-0.2,0.6-0.8,0.6-1.3,0.9
				c-0.7,0.3-1.3,0.7-1.9,1c-0.1,0.1-0.3,0.2-0.4,0.3c-0.2,0.3-0.4,0.4-0.7,0.4c-0.2,0-0.3,0.1-0.5,0.2c-0.7,0.5-1.4,0.9-2.2,1.4
				c-0.3,0.2-0.7,0.4-0.9,0.8c-0.1,0.2-0.3,0.3-0.5,0.2s-0.3-0.2-0.3-0.4s0.2-0.4,0.5-0.4s0.6-0.2,0.8-0.3c0.8-0.5,1.5-1,2.3-1.5
				c0.2-0.2,0.5-0.3,0.6-0.6c0.1-0.2,0.3-0.3,0.6-0.3c0.2,0.1,0.3,0,0.4-0.1c0.6-0.4,1.3-0.7,1.9-1.1c0,0,0,0,0.1,0
				c0.7-0.8,1.9-1.1,2.7-1.7c0.2-0.2,0.6-0.3,0.6-0.7c0-0.2,0.3-0.3,0.4-0.2c0.4,0.1,0.6-0.1,0.9-0.3
				C157.9,185.1,158.3,184.8,158.9,184.5z"/>
			<path class="st59" d="M156,207.8c-0.3,0-0.6,0-0.9,0c-0.2,0-0.3-0.1-0.3-0.3s0.1-0.3,0.3-0.3c0.5,0,1-0.1,1.5-0.1
				c1.5-0.1,3-0.1,4.5-0.2c0.1,0,0.2,0,0.3,0s0.3,0.1,0.3,0.2c0,0.2-0.1,0.3-0.3,0.3c-0.1,0-0.2,0-0.3,0
				C159.4,207.6,157.7,207.7,156,207.8L156,207.8z"/>
			<path class="st60" d="M156,206.1c-0.2,0-0.5,0-0.7,0s-0.4,0-0.4-0.3c0-0.2,0.2-0.3,0.4-0.3c0.4,0,0.8-0.1,1.1-0.1
				c1.5-0.1,3-0.1,4.5-0.2c0.2,0,0.6-0.1,0.7,0.2c0,0.4-0.4,0.3-0.6,0.3C159.3,206,157.6,206,156,206.1L156,206.1z"/>
			<path class="st61" d="M118.4,207c-0.1,0-0.1,0-0.2,0c-0.2,0.1-0.5,0-0.7,0.1h-0.1h-0.1c-0.7,0-1.4,0.2-2.2,0.1
				c-0.4-0.2-1,0.2-1.4-0.1c1-0.2,2.1-0.1,3.1-0.3c0.3,0,0.5,0,0.8,0c0.1-0.1,0.2-0.1,0.3,0l0,0c0.2-0.1,0.5,0,0.7-0.1h0.1
				c0.1,0,0.1,0.1,0.2,0.1l0,0c0,0.1,0,0.1,0,0.1c-0.1,0-0.3,0-0.4,0C118.5,207,118.5,207,118.4,207z"/>
			<path class="st62" d="M113.6,207.1c0.5,0.1,1-0.1,1.4,0.1c-0.6,0-1.2,0.1-1.8,0.1C113.1,206.9,113.5,207.1,113.6,207.1z"/>
			<path class="st63" d="M118.7,206.7c-0.2,0.2-0.5,0.1-0.7,0.1C118.2,206.6,118.5,206.7,118.7,206.7z"/>
			<path class="st63" d="M117.9,206.8c-0.1,0-0.2,0-0.3,0C117.7,206.7,117.8,206.7,117.9,206.8z"/>
			<path class="st63" d="M119,206.8c-0.1,0-0.1,0-0.2-0.1C118.9,206.7,119,206.7,119,206.8z"/>
			<path class="st63" d="M119,206.9v-0.1C119.1,206.8,119.1,206.9,119,206.9L119,206.9L119,206.9z"/>
			<path class="st63" d="M117.5,207.1c0.2-0.2,0.5-0.1,0.7-0.1C118,207.1,117.7,207.1,117.5,207.1z"/>
			<path class="st63" d="M117.2,207.1C117.2,207,117.3,207,117.2,207.1C117.3,207.1,117.3,207.1,117.2,207.1L117.2,207.1z"/>
			<path class="st63" d="M118.4,207c0.1,0,0.1,0,0.2,0C118.5,207,118.5,207,118.4,207z"/>
			<path class="st64" d="M112.3,191c-0.3,0-0.5-0.1-0.8,0c-0.2,0.1-0.4-0.1-0.6-0.1c-0.5-0.2-0.7,0.1-0.8,0.6
				c-0.2-0.3,0-0.7-0.5-0.7c-0.3,0-0.7-0.1-0.7,0.5c-0.3-0.1,0-0.5-0.4-0.5c-0.3,0-0.5-0.1-0.7,0.1c-0.1,0.1-0.2,0.1-0.3,0
				c-0.2-0.2-0.5-0.2-0.7-0.3c-0.2,0-0.4,0-0.6-0.2c0.7-0.3,0.7-0.3,0.7-1.1c0-0.2,0-0.4,0-0.6c0-0.1,0.1-0.2,0.2-0.2
				s0.2,0.1,0.2,0.2c0,0.4,0,0.8-0.1,1.2c0,0.3,0.1,0.5,0.4,0.5c0.3,0.1,0.4-0.2,0.4-0.4c0-0.3,0.1-0.7,0.1-1c0-0.2,0-0.3,0-0.5
				c0-0.1,0.1-0.2,0.2-0.2s0.2,0.1,0.2,0.2c0,0.4,0,0.7,0,1.1c0,0.1,0,0.2-0.1,0.3c-0.1,0.3,0.1,0.5,0.4,0.6s0.5,0,0.5-0.4
				c0-0.6,0-1.2,0.1-1.8c0-0.1,0-0.2,0-0.3s0.1-0.2,0.2-0.2s0.2,0.1,0.2,0.3c0,0.7-0.1,1.4-0.1,2.1c0,0.3,0.1,0.4,0.3,0.4
				c0.2,0,0.5,0.1,0.5-0.3c0-0.2,0-0.5,0-0.7c0-0.7,0.1-1.3,0.2-2.1c0.4,0.3,0.3,0.6,0.3,0.8c-0.1,0.6-0.1,1.2-0.1,1.8
				c0,0.4,0.1,0.5,0.5,0.4c0.3,0,0.3-0.2,0.3-0.4c0.1-0.9,0.1-1.7,0.2-2.6c0-0.3,0-0.6,0.1-0.9c0-0.1,0.1-0.3,0.2-0.3
				c0.2,0,0.2,0.2,0.2,0.3c-0.1,0.9-0.1,1.7-0.2,2.6c0,0.3-0.1,0.6-0.1,0.9c0,0.3,0.1,0.5,0.4,0.5s0.4-0.1,0.4-0.4
				c0.1-0.6,0.1-1.2,0.1-1.7c0-0.3,0.1-0.5,0.2-0.7c0.2,0,0.2,0.2,0.2,0.3c0,0.6-0.1,1.2-0.1,1.7c0,0.2,0,0.4,0,0.6
				c0,0.3,0.2,0.4,0.4,0.4c0.3,0,0.4-0.1,0.4-0.4c0-0.6,0.1-1.3,0.1-1.9c0-0.2,0-0.3,0-0.5c0-0.1,0.1-0.2,0.2-0.2s0.1,0.1,0.1,0.2
				c0,0.4-0.1,0.7-0.1,1.1c0,0.4-0.1,0.9-0.1,1.3c0,0.3,0.2,0.4,0.4,0.4c0.3,0,0.4-0.1,0.4-0.4c0.1-0.9,0.1-1.7,0.2-2.6
				c0-0.1,0-0.1,0-0.2c0-0.2,0-0.4,0.2-0.4s0.1,0.3,0.1,0.4c-0.1,0.9-0.1,1.8-0.2,2.7c0,0.3,0,0.4,0.3,0.5c0.3,0,0.4-0.1,0.5-0.4
				c0.1-0.7,0.1-1.4,0.1-2c0-0.2,0-0.5,0.2-0.5c0.3,0,0.1,0.3,0.1,0.5c0,0.7-0.1,1.3-0.1,2c0,0.4,0.3,0.6,0.7,0.5
				c0.2-0.1,0.2-0.2,0.2-0.4c0.1-0.8,0.1-1.6,0.2-2.4c0-0.3-0.1-0.7,0.2-0.7c0.3,0,0.1,0.5,0.1,0.7c0,0.7-0.1,1.4-0.2,2.1
				c0,0.4,0,0.7,0.5,0.9c-0.3,0.2-0.5,0.1-0.8,0.1s-0.4,0.1-0.5,0.3c-0.2-0.1-0.1-0.4-0.4-0.4s-0.6-0.2-0.9,0.1
				c-0.2,0.1-0.1-0.2-0.3-0.2c-0.3,0.1-0.6-0.2-0.9,0.1c-0.2,0.1-0.2-0.1-0.2-0.1c-0.1,0-0.2,0-0.3-0.1c-0.4-0.1-0.5,0.1-0.5,0.4
				c0,0.3-0.1,0.5-0.1,0.8c-0.3-0.2-0.1-0.4-0.1-0.6c0-0.7,0-0.7-0.7-0.8c-0.1,0-0.2,0-0.3,0C112.6,191,112.5,191.1,112.3,191z"/>
			<path class="st65" d="M112.3,191c0.1,0,0.3,0,0.4,0c-0.2,0.2-0.2,0.3-0.2,0.6c0,0.2,0.1,0.5-0.2,0.7c-0.2-0.2-0.1-0.4-0.1-0.6
				C112.3,191.4,112.3,191.2,112.3,191z"/>
			<path class="st66" d="M107.6,190.7c0.1,0,0.2,0,0.3,0c0,0.4,0.1,0.8-0.1,1.1C107.6,191.5,107.6,191.5,107.6,190.7z"/>
			<path class="st67" d="M114.7,191.2c0.1,0,0.2,0.1,0.2,0.1c0,0.4,0,0.4-0.2,0.8C114.5,191.8,114.7,191.5,114.7,191.2z"/>
			<path class="st68" d="M111,190.8c0.2-0.1,0.4,0,0.6,0.1c0,0.2,0.1,0.4-0.2,0.6C111.1,191.3,111.4,190.9,111,190.8z"/>
			<path class="st69" d="M115.8,191.2c0.2,0,0.2,0.2,0.3,0.2c0,0.1,0,0.2-0.1,0.2s-0.2,0-0.2-0.1
				C115.9,191.5,115.8,191.3,115.8,191.2z"/>
			<g>
				<path class="st28" d="M148.3,196.7c-0.9,0-1.8,0.1-2.7,0.1c-0.1,0-0.2,0-0.2-0.1c0-0.1,0-0.2,0-0.3c-0.2-2.8-0.3-5.7-0.5-8.5
					c0-0.1,0-0.1-0.1-0.2c-0.1,0-0.2,0-0.3,0c0,0-0.1,0.1-0.1,0.1c0,0.1,0,0.2,0,0.3c0.2,3,0.3,6,0.5,8.9c0,0.2,0.1,0.3,0.3,0.3
					c2.6-0.1,5.2-0.3,7.9-0.4c0.3,0,0.6,0,1-0.1c0.1,0,0.1,0,0.1-0.1c0-0.1,0-0.2,0-0.3C152.2,196.4,150.3,196.6,148.3,196.7z"/>
				<path class="st28" d="M160.1,183.7c-0.2,0-0.5,0-0.7,0c-0.2,0-0.4,0-0.6,0c-0.2,0-0.4,0-0.7,0.1c-0.1,0-0.2,0.1-0.2,0.2
					c0,0.2,0.1,0.2,0.3,0.2c0.3,0,0.6,0,0.9,0c0,0,0.1,0,0.1,0c0,0.1,0,0.1-0.1,0.1c0,0,0,0,0,0l0-0.1l-2.2,1.3
					c-0.1-0.1-0.2-0.1-0.4-0.1c-0.3,0-0.5,0.2-0.5,0.5l0,0l-2.2,1.5l0,0c0,0-0.1,0-0.1,0c-0.1,0-0.2,0-0.2,0c0,0,0,0-0.1,0
					c-0.1,0-0.1,0-0.2,0.1c0,0,0,0,0,0c-0.1,0.1-0.2,0.2-0.2,0.4l-0.6,0.3l0.1,0c-0.2,0.1-0.3,0.2-0.5,0.3c-0.2,0.1-0.4,0.2-0.6,0.4
					c-0.3,0.2-0.5,0.3-0.8,0.5c0,0-0.1,0-0.1,0c-0.1-0.1-0.2-0.1-0.3-0.1c-0.2,0-0.4,0.2-0.5,0.4c0,0,0,0,0,0c0,0.1-0.1,0.2-0.2,0.3
					c-0.2,0.2-0.4,0.3-0.6,0.4c-0.1,0.1-0.2,0.1-0.3,0.2l0,0l-2.4,1.5l0,0c-0.1,0-0.2-0.1-0.3-0.1c-0.3,0-0.5,0.3-0.5,0.5
					c0,0.3,0.3,0.5,0.5,0.5c0.3,0,0.5-0.3,0.5-0.5l2.1-1.3l0.2-0.1l0,0c0.1-0.1,0.3-0.2,0.4-0.2c0.2-0.2,0.5-0.3,0.7-0.5
					c0.1,0,0.1,0,0.2,0c0,0,0.1,0,0.1,0c0,0,0,0,0,0c0,0,0.1,0,0.1,0c0.2,0,0.4-0.2,0.5-0.4l1.7-1l-0.3,0.1c0,0,0.1,0,0.1-0.1
					c0.2-0.1,0.4-0.3,0.6-0.4l0,0l0.4-0.2c0.1,0.1,0.2,0.1,0.3,0.1c0.2,0,0.4-0.2,0.5-0.4c0.1-0.1,0.1-0.2,0.1-0.3c0,0,0-0.1,0-0.1
					c0.2-0.1,0.4-0.3,0.6-0.4c0.2-0.2,0.5-0.3,0.7-0.4s0.5-0.3,0.7-0.5c0.1,0,0.1,0,0.2,0c0,0,0.1,0,0.1,0c0,0,0.1,0,0.1,0
					c0.2,0,0.4-0.2,0.5-0.4l2-1.2l0,0c0.1,0,0.1-0.1,0.2-0.1c0,0,0.1,0,0.1,0c0,0,0,0.1,0,0.1c-0.2,0.3-0.3,0.5-0.4,0.8
					c0,0.1,0,0.2,0,0.3c0,0.1,0.1,0.1,0.2,0c0.1,0,0.1-0.1,0.2-0.2c0-0.1,0.1-0.2,0.1-0.2c0.1-0.2,0.2-0.4,0.3-0.6
					c0.1-0.2,0.2-0.3,0.2-0.5c0-0.1,0.1-0.2,0.2-0.3C160.4,183.8,160.3,183.7,160.1,183.7z"/>
			</g>
		</g>
		<polygon class="st4" points="190.9,118.4 188.9,123.2 192,123.2 		"/>
	</g>
</g>
</svg>
