<?xml version="1.0" encoding="utf-8"?>
<!-- Generator: Adobe Illustrator 23.0.0, SVG Export Plug-In . SVG Version: 6.00 Build 0)  -->
<svg version="1.1" xmlns="http://www.w3.org/2000/svg" xmlns:xlink="http://www.w3.org/1999/xlink" x="0px" y="0px"
	 viewBox="0 0 256 256" style="enable-background:new 0 0 256 256;" xml:space="preserve">
<style type="text/css">
	.st0{fill:#4E2F6A;}
	.st1{fill:#AC6DAC;}
	.st2{fill:#CFBFDE;}
	.st3{fill:#B294C5;}
	.st4{fill:#AFD584;}
	.st5{fill:#DBC185;}
	.st6{fill:#CBB8D9;}
	.st7{fill:#AC6CAC;}
	.st8{fill:#6D8F4E;}
	.st9{fill:#7B4D6C;}
</style>
<g id="Layer_1">
	<g>
		<path class="st0" d="M157,104.3c0.7,1.1,1.1,2.2,1.3,3.3c0.1,0.5,0.4,0.7,0.9,0.8c3.1,0.7,5.8,2,8.2,4c0.4,0.3,0.8,0.3,1.2,0.3
			c6.5,0,12.9,0,19.4,0c1.1,0,1.3-0.3,1.3-1.3c0-4.6,0-9.2,0-13.8c0-0.8-0.1-1.3-0.9-1.7c-1.3-0.7-1.7-2.4-1.3-3.8
			c0.4-1.3,1.9-2.3,3.2-2.3c1.5,0.1,2.8,1.1,3.2,2.5c0.4,1.4-0.2,2.9-1.4,3.6c-0.6,0.3-0.8,0.7-0.8,1.4c0,5.1,0,10.2,0,15.3
			c0,1.8-0.5,2.3-2.3,2.3c-6.2,0-12.3,0-18.5,0c-0.9,0-1.1,0.1-0.7,1c0.3,0.8,0.5,1.7,0.6,2.5c0.1,0.6,0.4,0.9,1.1,0.9
			c8.1,0,16.1,0,24.2,0c0.6,0,0.9-0.2,0.9-0.8c0-4.8,0-9.6,0-14.4c0-0.6-0.3-0.8-0.8-1.1c-1.3-0.8-1.9-1.9-1.8-3.4
			c0.2-1.3,0.9-2.4,2.2-2.8c1.4-0.5,2.7-0.2,3.8,0.9c1.4,1.5,1.2,4.1-0.7,5.2c-0.7,0.4-0.8,0.9-0.8,1.6c0,4.8,0,9.7,0,14.5
			c0,2.1-0.2,2.3-2.3,2.3c-8.1,0-16.3,0-24.4,0c-0.9,0-1.4,0.1-1.5,1.1c-0.1,1-0.6,1.9-1.1,3c0.4,0,0.6,0,0.9,0
			c10.7,0,21.5,0,32.2,0c1,0,1.3-0.3,1.2-1.3c-0.1-3.9,0-7.8,0-11.6c0-0.7-0.1-1.1-0.7-1.5c-1.4-0.9-2-2.6-1.5-4.1
			c0.5-1.5,1.9-2.4,3.4-2.4c1.6,0.1,2.9,1.2,3.3,2.7c0.3,1.5-0.3,3.1-1.8,3.8c-0.6,0.3-0.7,0.7-0.7,1.2c0,4.4,0,8.8,0,13.1
			c0,1.5-0.3,1.8-1.8,1.8c-10.5,0-21.1,0-31.6,0c-0.4,0-0.9,0-1.6,0.1c1.2,1.1,2.3,1.8,3,2.8c0.2,0.3,0.6,0.2,0.9,0.2
			c4.7,0,9.4,0,14,0c0.5,0,0.9-0.1,1.2-0.6c1.5-2.2,4.5-2.2,5.8,0.1c0.4,0.6,0.7,0.7,1.3,0.7c3.1,0,6.2,0,9.2,0c1.7,0,2,0.3,2,2.1
			c0,14.8,0,29.7,0,44.5c0,0.8,0.1,1.3,0.8,1.7c1.2,0.7,1.6,2.2,1.2,3.6c-0.4,1.3-1.6,2.1-3,2.2c-1.6,0-2.7-0.7-3.2-2.1
			c-0.5-1.3-0.1-2.9,1.1-3.7c0.8-0.5,0.9-1,0.9-1.8c0-14.4,0-28.8,0-43.3c0-1-0.2-1.3-1.2-1.3c-2.7,0.1-5.3,0-8,0
			c-0.6,0-0.9,0.2-1.2,0.7c-1.4,2.4-4.7,2.3-6-0.1c-0.2-0.4-0.4-0.8-1-0.8c-4.5,0-9,0-13.5,0c-0.1,0-0.1,0-0.2,0.1
			c0,0.1-0.1,0.2,0,0.2c0.4,1.2,0.2,2.8,1,3.5c0.9,0.7,2.4,0.2,3.7,0.2c3.3,0,6.5,0,9.8,0c1.9,0,2.3,0.5,2.3,2.4c0,2.7,0,5.5,0,8.2
			c0,0.8,0.2,1,1,1c2.3,0,4.6,0,7,0c0.6,0,0.9-0.2,0.9-0.8c0-0.5,0-1.1,0-1.6c0-0.8-0.1-1.5-1-2c-1.3-0.7-1.7-2.3-1.2-3.8
			c0.4-1.2,1.8-2.1,3.1-2.1c1.4,0,2.8,1,3.2,2.3c0.4,1.4,0,3.1-1.3,3.7c-0.9,0.5-1,1-1,1.9c0,6.1,0,12.1,0,18.2c0,0.6,0.1,1,0.7,1.3
			c1.5,0.8,2,2.4,1.6,4c-0.4,1.3-1.9,2.4-3.3,2.4c-1.5,0-2.8-1-3.3-2.4c-0.5-1.5,0-3.1,1.4-3.9c0.7-0.4,0.9-0.9,0.9-1.6
			c0-4.1,0-8.1,0-12.2c0-1-0.3-1.2-1.2-1.2c-5.3,0-10.7,0-16,0c-1.1,0-1.5-0.3-1.5-1.4c0.1-1.3,0-2.5,0-3.8c0-0.5-0.1-0.8-0.7-0.8
			c-2.8,0-5.6,0-8.4,0c-0.9,0-1.5,0.6-2.3,0.9c-0.5,0.2-0.1,0.6,0.1,0.8c0.9,1.5,1.6,3.1,1.9,4.8c0,0.1,0,0.1,0.1,0.2
			c0.3,1.9,0.3,1.9,2.2,1.9c6.3,0,12.6,0,18.8,0c0.5,0,0.9,0,1.4,0.1c1.1,0.3,1.7,0.8,1.6,2.1c-0.1,4.6,0,9.2,0,13.8
			c0,0.7,0.1,1.2,0.8,1.7c1.3,0.9,1.6,2.3,1,3.8c-0.4,1-1.9,2-3,1.9c-1.3-0.1-2.5-1.1-2.9-2.3c-0.4-1.5,0.1-3,1.4-3.6
			c0.6-0.3,0.7-0.7,0.7-1.3c0-4.4,0-8.8,0-13.2c0-0.7-0.2-1-0.9-1c-6.7,0-13.4,0-20.1,0c-0.7,0-0.9,0.2-1.2,0.9
			c-0.8,2.3-1.7,4.6-4.1,6c-0.8,0.4,0,0.8,0.2,1c2.4,2.4,4.8,4.7,7.2,7c7.9,7.8,15.8,15.5,23.6,23.3c0.5,0.5,0.9,0.6,1.5,0.2
			c4.2-2.4,8.7-3.7,13.6-4.2c14.6-1.4,28.3,7.2,33.8,20.4c2.1,5.1,3,10.5,2.5,16c-1.5,15.7-12.9,27.4-27.6,30.1
			c-13.1,2.4-26.6-3.5-33.9-14.7c-3.8-5.8-5.7-12.2-5.5-19.1c0.3-9.6,4-17.8,11.3-24.3c0.9-0.8,0.9-1.1,0.1-1.9
			c-7.7-7.5-15.4-15.1-23.1-22.7c-2.4-2.4-4.9-4.8-7.3-7.2c-0.3-0.3-0.7-0.6-1.1-1c-0.5,2.6-1.1,5.1-2.7,7.2
			c-0.2,0.2-0.1,0.6-0.1,0.9c0,5.5,0,11,0,16.6c0,0.8,0.1,1.1,1,1.1c2.9,0,5.7,0,8.6,0c0.6,0,0.9-0.1,1.2-0.7
			c0.8-1.7,2.7-2.6,4.4-2.1c1.9,0.6,3.1,2.4,2.9,4.1c-0.3,1.9-1.8,3.5-3.8,3.5c-1.4,0-2.7-0.6-3.4-1.9c-0.3-0.6-0.7-0.8-1.4-0.7
			c-3.5,0-7,0-10.5,0c-1,0-1.3-0.3-1.3-1.3c0-5.4,0-10.7,0-16.1c0-1.1-0.3-1.2-1.2-0.8c-0.7,0.4-1.6,0.7-2.4,0.8
			c-1.1,0.1-1.4,0.6-1.3,1.7c0,8.4,0,16.9,0,25.3c0,0.9,0.2,1.2,1.2,1.2c6,0,12,0,18,0c0.7,0,1-0.1,1.3-0.9c0.6-1.6,2.5-2.5,4.2-2.1
			c1.8,0.3,3,1.9,3.1,3.7c0.1,1.6-1.1,3.2-2.8,3.8c-1.6,0.5-3.5-0.1-4.3-1.6c-0.4-0.8-0.9-0.9-1.7-0.9c-6.6,0-13.2,0-19.9,0
			c-0.9,0-1.2-0.2-1.2-1.1c0-9.3,0-18.6,0-28c0-0.7-0.1-1.3-0.9-1.4c-0.1,0-0.1-0.1-0.2-0.1c-1-0.1-1.5-1.7-2.5-1
			c-0.8,0.5-1.2,1.5-1.9,2.2c-0.3,0.3-0.2,0.7-0.2,1.1c0,11.6,0,23.1,0,34.7c0,0.2,0,0.3,0,0.5c0.2,2.3,0.2,2.2-2.1,2.2
			c-1.9,0-3.7,0-5.6,0c-0.6,0-0.9,0.1-1.2,0.7c-0.9,1.8-2.6,2.6-4.3,2.1c-1.8-0.5-3-2.1-2.9-3.8c0.1-1.8,1.4-3.3,3.4-3.6
			c1.3-0.2,3,0.5,3.7,1.8c0.4,0.7,0.9,0.9,1.6,0.9c1.5,0,3,0,4.6,0c0.7,0,1-0.1,1-0.9c0-11,0-21.9,0-32.9c0-0.9-0.3-0.8-0.9-0.6
			c-6.1,2.9-10.6-1-13.1-5.3c-0.3-0.5-0.4-1.1-0.4-1.7c0-24.7,0-49.3,0-74c0-1.5,1.1-2.1,2-2.9c0.4-0.4,1-0.7,1.5-0.8
			c1.4-0.2,1.5-1.1,1.5-2.3c0-7.3,0-14.6,0-21.9c0-3.3,0-3.3,3.2-3.3c6.3,0,12.6,0,19,0c0.8,0,1.5-0.1,1.9-1c0.7-1.3,2.6-1.8,4-1.3
			c1.5,0.5,2.4,2,2.3,3.5c-0.1,1.5-1.2,2.9-2.6,3.1c-1.9,0.4-3.4-0.2-4.1-1.8c-0.3-0.6-0.6-0.7-1.1-0.7c-6.6,0-13.2,0-19.9,0
			c-0.6,0-0.9,0.2-0.8,0.8c0,7.8,0,15.7,0,23.5c0,0.6,0.1,0.8,0.7,0.8c1.2,0.1,2.3,0.5,3.3,1.1c0.8,0.5,1,0.3,1-0.6
			c0-5.3,0-10.6,0-15.9c0-1.9,0.5-2.5,2.5-2.5c2.2,0,4.3,0,6.5,0c0.7,0,1.1-0.2,1.4-0.8c0.7-1.3,2-2,3.5-1.9c1.6,0.2,2.8,1,3.2,2.6
			c0.4,1.6,0,2.9-1.2,3.9c-1.7,1.5-4.5,1-5.6-1.1c-0.4-0.7-0.7-0.9-1.5-0.9c-1.9,0.1-3.8,0.1-5.7,0c-0.8,0-1.1,0.2-1.1,1
			c0,6.2,0,12.4,0,18.6c0,0.9,0.6,1.6,0.8,2.5c0.1,0.4,0.4,0.3,0.7,0.2c0.9-0.3,1.7-0.2,2.6-0.2c0.3,0,0.6-0.1,0.8-0.3
			c6.7-6.7,13.4-13.3,20.2-20c7.8-7.7,15.7-15.5,23.6-23.2c0.5-0.5,0.7-0.9,0.2-1.6c-5-7-7.3-14.8-6.3-23.4
			c1.3-12.2,7.6-21.1,18.4-26.8c5.3-2.8,11-4,17-3.7c13.8,0.8,25.4,9.4,30.1,22.1c1.6,4.3,2.4,8.7,2.1,13.3
			c-0.5,9-3.9,16.8-10.5,23.1c-5.4,5.2-11.9,8.3-19.3,9.1c-10.2,1.1-19.2-1.7-26.9-8.5c-0.7-0.6-1-0.6-1.7,0
			c-13.1,13-26.2,25.9-39.3,38.8c-0.6,0.6-1.3,1.3-2,1.9c-0.2,0.2-0.6,0.5-0.3,0.7c0.9,0.6,1.4,1.8,2.8,1.8c5.1,0,10.1,0,15.2,0
			c0.8,0,1.1-0.2,1.1-1.1c0-2.2,0-4.5,0-6.7c0-0.6-0.2-0.9-0.7-1.3c-1.4-0.8-2-2.4-1.5-3.8c0.5-1.5,1.7-2.5,3.3-2.5
			c1.6,0,2.8,0.9,3.2,2.4c0.4,1.6-0.1,3.1-1.5,3.9c-0.7,0.3-0.8,0.7-0.8,1.4c0,2.4,0,4.9,0,7.3c0,1.7-0.7,2.3-2.4,2.3
			c-4.6,0-9.2,0-13.8,0C157.9,104.3,157.6,104.3,157,104.3z M174.4,142.1c2.5,0,5.1,0.1,7.6,0c1.1,0,1.5,0.4,1.5,1.5
			c0,1.2,0,2.4,0,3.7c0,0.6,0.2,0.8,0.8,0.8c1.5,0,3-0.1,4.4,0c0.7,0,0.9-0.2,0.9-0.9c0-2.6,0-5.2,0-7.8c0-0.8-0.3-0.9-1-0.9
			c-4.4,0-8.7,0-13.1,0c-0.7-0.6-0.7,0.1-0.8,0.4c-0.3,1-0.2,2.1-0.9,3C173.7,142.1,173.8,142.1,174.4,142.1z M132.6,133.8
			c0,11.5,0,22.9,0,34.4c0,2.7,1.3,5,3.6,6.5c2.7,1.7,8.1-0.5,9.1-5c0.5-2.3-0.8-4.7-3.2-5.3c-1.3-0.3-2-1.1-1.7-2.1
			c0.2-1,1.3-1.6,2.6-1.2c3.1,0.9,5.1,2.9,5.8,6.1c0.1,0.6,0,1.2,0.1,1.8c0.3,1,3.5,2.9,4.5,2.7c2.9-0.4,4.8-1.9,5.7-4.7
			c0.3-1.1,0.5-2.1,0.2-3.2c-0.3-0.9-1.2-0.9-1.8-1.4c-0.7-0.5-1.2-1.2-0.8-2.2c0.4-0.9,1.2-1.2,2.2-0.9c0.1,0,0.3,0.1,0.4,0.1
			c2.6,0.6,5,0.2,6.9-1.7c2.3-2.2,2.5-5.1,2-7.9c-0.5-2.6-2-4.2-4.6-4.9c-1.6-0.4-3.1-0.5-4.7-0.2c-1,0.2-1.6-0.2-1.9-1.2
			c-0.2-0.9,0.2-1.7,1.1-1.9c2.6-0.4,5.2-0.6,7.7,0.6c1.7,0.8,4,0.1,4.8-1.6c1-2,1.4-4.2,0.7-6.4c-0.8-2.9-3.6-4.8-6.7-4.7
			c-1.1,0-2.1,0.1-3.2,0.2c-0.6,0.1-0.8,0.3-0.9,0.8c-0.8,3.2-3,4.9-6.2,5.4c-1.3,0.2-2.1-0.3-2.3-1.3c-0.2-1,0.5-1.9,1.7-2.1
			c0.8-0.2,1.6-0.3,2.2-0.8c1.5-1.3,1.5-3,1.1-4.7c-0.4-1.4-1.5-2.1-2.8-2.6c-0.5-0.2-1.1-0.1-1.7-0.1c-1,0-1.5-0.6-1.4-1.6
			c0.1-0.9,1.1-1.7,2.2-1.7c2.9-0.2,6.1,2,7.1,4.8c0.1,0.4,0.3,0.8,0.8,0.6c0.7-0.2,1.5-0.1,2.2-0.4c2.3-0.9,3.1-2.9,3.2-5.1
			c0.2-4-2.8-7.3-6.6-8.4c-1.5-0.4-2.7-0.2-3.8,1c-1.2,1.4-2.7,2.3-4.6,2.5c-1.2,0.1-2.1-0.3-2.3-1.4c-0.2-0.9,0.5-1.8,1.6-2
			c0.3-0.1,0.5-0.1,0.8-0.2c1.9-0.4,3.7-3.3,3-4.9c-0.6-1.6-1.6-3-3.1-4c-2.2-1.4-6.1-1.9-8.5,0.5c-0.7,0.7-1.4,0.8-2.1,0.4
			c-0.8-0.5-0.8-1.2-0.6-2.1c0.4-1.4,0.5-2.9-0.6-4.1c-1.4-1.6-3.2-2.3-5.3-2c-1.7,0.2-2.3,1-2.2,2.7c0,0.5,0,0.9,0,1.4
			C132.6,111.5,132.6,122.7,132.6,133.8z M243.3,50.4c0.1-0.1,0.3-0.1,0.3-0.2c0.2-0.2,0.4-0.5,0.5-0.7c3.4-5.5,4.9-11.4,4.4-17.8
			c-0.4-5.7-2.3-10.9-5.8-15.3C235.9,7.8,227,3.8,216.1,5.1c-14.4,1.6-25.3,13.4-25.8,28.5c-0.1,3.9,0.7,7.7,2.2,11.3
			c1,2.4,2.3,4.7,3.9,6.8c0.4,0.5,0.6,0.6,0.8-0.2c0.2-0.7,0.4-1.3,0.6-1.9c2.4-6.2,6.6-10.6,12.6-13.3c1.1-0.5,0.9-0.8,0.3-1.5
			c-2.7-2.9-3.7-6.5-3.1-10.3c1.1-7.1,7.4-11.8,14.4-10.9c7.4,0.9,12.4,7.9,11,15.3c-0.5,2.5-1.7,4.5-3.3,6.4
			C236.3,38.3,240.9,43.4,243.3,50.4z M239.5,240.3c8.5-10.1,9.3-27.6-3-39c-12-11.1-30.4-9.8-40.8,1.8c-11,12.3-8.4,29-1,37.2
			c0-0.1,0.1-0.1,0.1-0.2c1.6-7.6,5.9-13.1,13-16.4c0.8-0.4,0.5-0.6,0.1-1.1c-3.4-3.3-4.6-7.2-3.8-11.8c0.9-5.5,5.6-9.8,11.5-10.5
			c5.1-0.6,10.7,2.6,12.8,7.3c2.4,5.2,1.4,10.5-2.6,14.7c-0.6,0.6-0.6,0.8,0.2,1.2c2.4,1,4.6,2.4,6.6,4.3
			C236.2,231.2,238.5,235.3,239.5,240.3z M219.8,63.2c1.6-0.2,3.4-0.3,5.3-0.6c6-1.2,11-4,15.3-8.2c0.4-0.4,0.7-0.9,0.5-1.5
			c-2-7.4-6.5-12.5-13.6-15.3c-0.4-0.2-0.8-0.1-1.2,0.1c-3.6,1.8-7.2,1.8-10.9,0.4c-0.4-0.1-0.7-0.2-1.1-0.1
			c-7.9,2.6-12.7,8-14.5,16.1c-0.2,0.7,0,1.1,0.5,1.6C205.6,60.6,212.2,63,219.8,63.2z M217.3,251.2c7-0.1,13.4-2.6,18.9-7.2
			c0.7-0.6,0.8-1.2,0.6-1.9c-1.3-8.1-5.8-13.5-13.4-16.4c-0.9-0.4-1.9-0.4-2.9-0.1c-2.1,0.7-4.2,0.6-6.3,0.3
			c-0.9-0.1-1.7-0.6-2.8-0.4c-7.2,2-13.3,9.2-13.9,16.6c-0.1,0.8-0.1,1.4,0.6,2C203.6,248.8,209.9,251.1,217.3,251.2z M216.7,223.2
			c3.1,0.1,5.5-1.1,7.6-3.3c1.2-1.3,2-3,2.3-4.7c0.2-1-1-1.5-1.3-2.4c0,0,0-0.1,0-0.1c-0.1-0.4-0.5-0.5-0.9-0.5
			c-4.4-0.1-8.3-1.7-11.7-4.3c-0.5-0.3-0.7-0.4-1.1,0c-1,1-2.3,1.7-3.5,2.3c-0.5,0.2-0.7,0.6-0.8,1.1
			C205.6,217.3,210.3,223.2,216.7,223.2z M220.4,36.6c3.5-0.2,6.3-1.6,8.3-4.6c0.3-0.5,0.3-0.7-0.1-1.1c-2.2-1.9-3.9-4.2-5.1-6.8
			c-0.3-0.6-0.6-0.6-1.1-0.3c-1,0.6-2.1,0.9-3.3,0.6c-0.5-0.1-0.8,0-1.2,0.3c-1.9,2-4.2,3.5-6.7,4.6c-0.7,0.3-0.7,0.6-0.4,1.2
			C212.8,34.5,216,36.4,220.4,36.6z M179.2,204.2c0-1-0.7-1.8-1.7-1.9c-1.1-0.1-1.9,0.7-1.9,1.8c0,1,0.8,1.8,1.8,1.8
			C178.4,206,179.2,205.2,179.2,204.2z M174.7,193c1.1,0,1.8-0.7,1.8-1.8c0-1-0.8-1.8-1.8-1.8c-1,0-1.9,0.8-1.8,1.9
			C172.9,192.3,173.7,193,174.7,193z M131.5,213.5c0,0.9,0.8,1.8,1.7,1.8c0.9,0,1.9-0.9,1.9-1.8c0-0.9-0.8-1.7-1.8-1.7
			C132.3,211.8,131.5,212.6,131.5,213.5z M154.8,74.5c-0.8,0-1.8,0.8-1.8,1.6c0,0.8,0.9,1.7,1.7,1.8c0.8,0,1.7-0.8,1.7-1.7
			C156.5,75.3,155.7,74.5,154.8,74.5z M161.3,65.5c-1,0-1.7,0.7-1.7,1.6c0.1,0.9,0.6,1.4,1.5,1.4c0.8,0,1.6-0.7,1.5-1.5
			C162.4,66.1,162,65.6,161.3,65.5z M197.4,101.4c0.8,0,1.5-0.6,1.5-1.3c0-0.9-0.6-1.4-1.4-1.5c-0.6-0.1-1.5,0.8-1.5,1.4
			C195.9,100.7,196.6,101.4,197.4,101.4z M204.7,106.6c-0.9,0-1.6,0.8-1.5,1.5c0,0.8,0.8,1.5,1.5,1.4c0.7,0,1.5-0.8,1.4-1.5
			C205.9,107.2,205.4,106.7,204.7,106.6z M201.2,169.4c0.9,0,1.6-0.6,1.6-1.4c-0.1-0.8-0.5-1.3-1.4-1.3c-0.9,0-1.3,0.5-1.3,1.3
			C200,168.9,200.5,169.3,201.2,169.4z M192.5,133c0.8-0.1,1.4-0.4,1.4-1.3c0-0.9-0.5-1.4-1.3-1.4c-0.9,0-1.4,0.5-1.4,1.3
			C191.1,132.4,191.6,132.9,192.5,133z M174.9,90.3c0-0.8-0.6-1.3-1.3-1.3c-0.8,0-1.4,0.5-1.4,1.4c0,0.9,0.6,1.4,1.3,1.4
			C174.3,91.7,174.9,91.3,174.9,90.3z M189.9,94.4c1.2,0,1.7-0.5,1.7-1.2c0-0.8-0.4-1.3-1.3-1.3c-0.9,0-1.4,0.6-1.4,1.3
			C188.9,93.8,189.5,94.3,189.9,94.4z M201.1,139.8c-0.6,0-1,0.6-1,1.3c0,0.7,0.5,1.2,1.2,1.2c0.8,0,1.3-0.6,1.3-1.3
			C202.7,140.3,202.2,139.7,201.1,139.8z M205.7,181.5c0.1,0.8,0.5,1.3,1.2,1.3c0.7,0,1.3-0.6,1.3-1.3c0-0.7-0.5-1.2-1.3-1.1
			C206.1,180.4,205.7,180.8,205.7,181.5z M195.2,171.9c-0.6,0-1,0.4-1,1.1c0,0.7,0.4,1,1.1,1.1c0.7,0,1.2-0.3,1.2-1.1
			C196.4,172.4,196,172,195.2,171.9z"/>
		<path class="st0" d="M115.1,94.5c1.6-0.8,2.9-1.5,4.5-1.6c0.6,0,0.4-0.5,0.4-0.8c0-1.8,0-3.5,0-5.3c0-6,0-12,0-17.9
			c0-0.9-0.2-1.1-1.1-1.1c-6.4,0-12.8,0-19.2,0c-0.7,0-1.1,0.1-1.5,0.9c-0.7,1.5-2.4,2.1-4.2,1.6c-1.3-0.3-2.4-1.8-2.4-3.3
			c-0.1-1.4,1.1-3,2.4-3.4c1.5-0.5,3.3,0.1,4.1,1.5c0.4,0.7,0.9,0.8,1.5,0.8c6.8,0,13.5,0,20.3,0c1.9,0,2,0.1,2,2.1
			c0,7.9,0,15.8,0,23.6c0,0.9,0.1,1.4,1.1,1.6c1.6,0.4,2.6,1.6,3.7,2.7c0.3,0.3,0.3,0.8,0.3,1.2c0,1.8,0,3.6,0,5.4
			c0,22.4,0,44.8,0,67.3c0,2-0.5,3.7-1.9,5.2c-1.5,1.6-3.1,3.1-5.2,3.8c-2.2,0.7-4.5,0.4-6.5-0.6c-0.8-0.4-1-0.3-1,0.6
			c0,10.9,0,21.8,0,32.8c0,0.6,0.1,1,0.9,1c1.7,0,3.5,0,5.3,0c0.6,0,0.8-0.3,1.1-0.8c0.8-1.3,1.9-2,3.4-1.9c1.5,0.1,2.8,0.8,3.4,2.3
			c0.8,2,0,4-1.9,4.9c-1.8,0.9-4,0.2-4.9-1.7c-0.4-0.7-0.8-0.9-1.5-0.9c-2.2,0-4.5,0-6.7,0c-0.8,0-1-0.3-1-1c0-11.9,0-23.8,0.1-35.7
			c0-1-0.1-2-1-2.6c-0.1-0.1-0.2-0.3-0.4-0.4c-0.9-1.3-0.9-1-2.3-0.5c-2,0.7-2,1.9-2,3.7c0.1,8.7,0,17.4,0.1,26.1
			c0,1-0.3,1.4-1.3,1.4c-6.6,0-13.2,0-19.9,0c-0.7,0-1.2,0-1.6,0.9c-0.7,1.5-2.6,2.1-4.2,1.7c-2-0.6-2.9-1.9-2.8-4.1
			c0.1-1.7,1.3-3.1,3-3.4c1.7-0.4,3.6,0.5,4.2,2c0.3,0.9,0.8,1,1.6,1c5.9,0,11.7,0,17.6,0c0.9,0,1.3-0.1,1.3-1.2
			c-0.1-8.6,0-17.1,0-25.7c0-0.8-0.2-1.1-1-1.3c-1-0.2-2-0.6-2.9-1c-0.8-0.4-1-0.2-0.9,0.7c0,5.4,0,10.9,0,16.3c0,1-0.2,1.3-1.3,1.3
			c-3.5-0.1-6.9,0-10.4,0c-0.6,0-1,0.1-1.4,0.7c-0.9,1.7-2.8,2.3-4.6,1.7c-1.7-0.6-2.6-2.1-2.4-4.3c0.1-1.5,1.5-3,3.2-3.2
			c1.6-0.3,3.4,0.7,4,2.3c0.2,0.5,0.5,0.6,0.9,0.6c3,0,6.1,0,9.1,0c0.6,0,0.8-0.2,0.8-0.8c0-5.7,0-11.3,0-17c0-0.3-0.1-0.6-0.3-0.8
			c-1.2-1.5-1.7-3.3-2.3-5c-0.2-0.6,0-1.3-0.2-2c-0.5,0.2-0.9,0.6-1.2,1c-10.1,10-20.2,19.9-30.3,29.9c-1,1-1,1,0,2
			c5.6,5.1,9.3,11.3,10.6,18.8c2.2,12.5-1.5,23.1-10.9,31.5c-5.2,4.7-11.5,7.3-18.5,8c-16.8,1.8-32.4-9.3-36.2-25.9
			c-3.5-15.3,4.1-31.1,18.4-37.8c4.9-2.3,10.2-3.4,15.6-3.2c5.3,0.2,10.4,1.6,15.1,4.3c0.7,0.4,1,0.4,1.6-0.2
			c7.3-7.3,14.7-14.5,22-21.7c3-2.9,5.9-5.8,8.8-8.7c0.4-0.4,0.7-0.7,0-1.1c-2.2-1.2-3.2-3.2-3.6-5.5c-0.2-0.9-0.5-1.2-1.4-1.1
			c-6.7,0-13.4,0-20.1,0c-1,0-1.2,0.3-1.2,1.2c0.1,4.3,0,8.6,0,12.9c0,0.6,0,1.1,0.8,1.4c1.3,0.6,1.8,2.1,1.5,3.5
			c-0.3,1.3-1.6,2.3-3,2.4c-1.2,0.1-2.5-0.8-3-2c-0.6-1.4-0.2-3,1-3.8c0.6-0.4,0.7-0.8,0.7-1.5c0-4.5,0-9.1,0-13.6
			c0-1.9,0.8-2.6,2.8-2.6c6.7,0,13.3,0,20,0c1.1,0,1.5-0.2,1.5-1.4c0.1-1.9,0.8-3.7,1.7-5.4c0.4-0.6,0.6-1-0.4-1.4
			c-0.9-0.4-1.7-0.6-2.7-0.6c-2.3,0-4.6,0.1-7,0c-1,0-1.2,0.3-1.1,1.2c0.1,1.1,0,2.2,0,3.3c0,1.3-0.3,1.5-1.5,1.5
			c-5.3,0-10.6,0-15.9,0c-1.2,0-1.5,0.3-1.5,1.5c0.1,4,0.1,7.9,0,11.9c0,0.9,0.3,1.3,1,1.8c1.3,0.8,1.8,2.3,1.5,3.6
			c-0.3,1.4-1.6,2.4-3.1,2.6c-1.3,0.2-2.7-0.6-3.3-1.8c-0.9-1.5-0.4-3.6,1.2-4.5c0.7-0.4,0.8-0.8,0.8-1.5c0-6.1,0-12.3,0-18.4
			c0-0.7-0.1-1.1-0.7-1.5c-1.4-0.8-1.9-2.3-1.4-3.8c0.4-1.3,1.9-2.3,3.3-2.3c1.4,0,2.7,1,3.1,2.3c0.4,1.5-0.1,3.1-1.5,3.8
			c-0.7,0.4-0.8,0.9-0.8,1.5c0,2.6,0,2.6,2.6,2.6c1.7,0,3.4-0.1,5,0c1,0.1,1.2-0.3,1.2-1.2c-0.1-2.7,0-5.4,0-8.1
			c0-1.5,0.7-2.2,2.2-2.2c4.3,0,8.7,0,13,0c0.9,0,1.3-0.2,1.3-1.2c0-0.6,0-1.2,0.2-1.7c0.3-0.9,0.1-1.2-0.9-1.2
			c-4.1,0.1-8.1,0-12.2,0c-0.7,0-1.1,0.1-1.4,0.8c-0.5,1.1-1.4,1.7-2.7,1.7c-1.4,0.1-2.6-0.4-3.2-1.7c-0.3-0.6-0.6-0.7-1.2-0.7
			c-2.8,0-5.6,0-8.3,0c-0.8,0-1,0.2-1,1c0,14.7,0,29.3,0,44c0,0.5,0.1,0.9,0.7,1.2c1.3,0.8,1.9,2.2,1.5,3.6
			c-0.5,1.6-1.6,2.5-3.3,2.4c-1.5,0-2.6-0.8-3-2.3c-0.5-1.5,0.1-3,1.5-3.8c0.7-0.4,0.6-0.9,0.6-1.4c0-14.7,0-29.4,0-44.1
			c0-2.6,0-2.6,2.6-2.6c2.9,0,5.9,0,8.8,0c0.5,0,0.8-0.1,1.1-0.7c1.2-2.3,4.4-2.4,5.8-0.2c0.3,0.5,0.7,0.7,1.3,0.7
			c4.6,0,9.2,0,13.8,0c0.4,0,0.8,0.1,1.1-0.2c0.8-1.1,1.9-1.8,3.2-2.8c-1.3,0-2.3,0-3.3,0c-9.9,0-19.9,0-29.8,0
			c-1.8,0-2.1-0.4-2.1-2.1c0-4.3,0-8.5,0-12.8c0-0.6-0.1-1-0.7-1.3c-1.3-0.6-2-2.3-1.7-3.5c0.4-1.7,1.7-2.9,3.3-2.9
			c1.5-0.1,2.9,0.9,3.4,2.4c0.5,1.4,0.1,3.1-1.3,3.9c-0.9,0.5-1.1,1.2-1.1,2.1c0,3.8,0,7.6,0,11.4c0,0.6,0,1,0.8,1
			c11.1,0,22.3,0,33.6,0c-0.5-1.2-1-2.4-1.2-3.7c-0.1-0.6-0.5-0.4-0.9-0.4c-1.8,0-3.7,0-5.5,0c-6.6,0-13.2,0-19.9,0
			c-1.5,0-1.6-0.2-1.6-1.6c0-5,0-10,0-15.1c0-0.7-0.1-1.2-0.9-1.6c-1.3-0.7-1.9-2.2-1.6-3.6c0.3-1.4,1.3-2.5,2.7-2.7
			c1.4-0.3,2.8,0.3,3.6,1.5c1.1,1.6,0.6,3.9-1.2,4.9c-0.6,0.3-0.7,0.7-0.7,1.3c0,4.7,0,9.4,0,14c0,0.7,0.2,1,1,1c8,0,16.1,0,24.1,0
			c0.6,0,0.9-0.1,1-0.9c0.1-0.9,0.4-1.8,0.7-2.6c0.4-0.9,0.1-1-0.7-1c-5.7,0-11.3,0-17,0c-0.5,0-1.1,0-1.6,0c-1.7,0-2.3-0.6-2.3-2.4
			c0-5,0-10,0-15.1c0-0.8-0.2-1.2-0.9-1.6c-1.3-0.8-1.8-2.5-1.1-4c0.6-1.4,2.2-2.3,3.6-2c1.8,0.4,2.6,1.5,2.7,3.3
			c0,1.3-0.4,2.2-1.5,2.9c-0.5,0.3-0.6,0.6-0.6,1.2c0,4.9,0,9.7,0,14.6c0,0.8,0.3,1,1,1c6.1,0,12.3-0.1,18.4,0c1.3,0,2.3-0.2,3.3-1
			c2-1.6,4.4-2.6,7-3.2c0.7-0.2,1.1-0.5,1.2-1.3c0.1-0.7,0.3-1.4,0.7-1.9c0.7-1,0.2-1-0.6-1c-4.6,0-9.3,0-13.9,0
			c-1,0-1.7-0.1-2.1-1.1c-0.1-0.3-0.1-0.7-0.1-1c0-2.5,0-4.9,0-7.4c0-0.7-0.1-1.1-0.8-1.5c-1.6-0.8-2.1-2.5-1.5-4.2
			c0.5-1.4,2.1-2.3,3.7-2.1c1.6,0.2,3,1.7,2.9,3.3c0,1.2-0.5,2.2-1.6,2.9c-0.6,0.3-0.8,0.7-0.8,1.4c0,2.3,0,4.6,0,7
			c0,0.7,0.3,0.8,0.9,0.8c5.2,0,10.4,0,15.5,0c1.3,0,1.8-1.2,2.7-1.8c0.3-0.2-0.3-0.6-0.5-0.8c-3.3-3.3-6.7-6.6-10-9.9
			c-9.2-9.1-18.4-18.1-27.5-27.2c-1.3-1.3-2.6-2.5-3.8-3.7c-0.5-0.5-0.7-0.6-1.3-0.1c-5.3,4.9-11.6,7.8-18.7,8.7
			c-13.5,1.6-26.2-4.5-33.3-16.1C3.9,45.2,2.3,38.2,3,30.9C4.4,16.4,14.3,4.7,28.2,1.2c13-3.3,24.4,0.1,33.6,9.8
			c6.5,6.9,9.4,15.3,8.9,24.8c-0.3,6.7-2.5,12.8-6.5,18.2c-0.4,0.6-0.4,0.9,0.1,1.4c10.2,10,20.3,20,30.5,30
			c4.4,4.4,8.9,8.8,13.3,13.2c0.3,0.3,0.6,0.4,1,0.4c0.4,0,0.8,0,1.3,0c0.6-0.1,1.3,0.6,1.7,0.2c0.6-0.7,1-1.7,1-2.6
			c0.1-6.3,0-12.6,0-19c0-0.5-0.2-0.7-0.7-0.7c-2.2,0-4.4,0-6.6,0c-0.7,0-0.8,0.5-1,0.9c-1.3,2.2-4.3,2.6-6,0.7
			c-1.4-1.5-1.1-4.2,0.5-5.4c1.8-1.3,4.3-0.9,5.3,1c0.4,0.8,0.9,1,1.8,1c2.1,0,4.1,0,6.2,0c2.1,0,2.5,0.4,2.5,2.5
			c0,5.4,0,10.7,0,16.1C115.1,94,115.1,94.2,115.1,94.5z M123.7,107.4C123.8,107.4,123.8,107.4,123.7,107.4c0-3,0-6.1,0-9.1
			c0-0.7-0.2-1.2-0.9-1.6c-2.4-1.2-4.5-0.4-6.4,1.1c-1.1,0.8-1.5,2.8-0.9,4.6c0.3,0.8,0.2,1.5-0.5,1.9c-0.7,0.4-1.5,0.5-2.2-0.3
			c-0.3-0.4-0.7-0.6-1.1-0.9c-2.5-1.6-7.6-0.9-9.7,2.7c-1.2,2.1-1.2,3.2,0.2,5.2c0.7,1,1.7,1.3,2.8,1.5c1.2,0.2,1.7,1,1.5,2.1
			c-0.2,1-1,1.3-2.2,1.2c-1.9-0.2-3.4-1.1-4.7-2.5c-0.6-0.7-1.3-1.3-2.3-1.2c-5,0.4-9.2,5.4-7.7,10.4c0.7,2.2,2.8,3.9,5.1,3.7
			c0.5,0,0.6-0.4,0.8-0.7c0.5-1.4,1.4-2.5,2.7-3.3c1.6-1,3.2-1.8,5.1-1.2c0.9,0.3,1.7,0.9,1.5,2c-0.2,1.1-1,1.3-2,1.2
			c-1.8-0.1-3.1,0.8-3.8,2.3c-0.7,1.6-0.8,3.3,0.5,4.8c0.7,0.9,1.7,1,2.7,1.3c1.1,0.3,1.8,1.1,1.6,2c-0.2,1-1,1.4-2.2,1.3
			c-3.3-0.4-5.4-2.2-6.3-5.4c-0.1-0.5-0.4-0.7-0.9-0.8c-1.3-0.2-2.7-0.2-4-0.2c-1.9-0.1-3.3,1-4.5,2.3c-2.3,2.6-2,5.5-0.9,8.5
			c0.7,2,3.1,2.9,5,2c2.5-1.1,5-1,7.6-0.6c1,0.1,1.6,1,1.4,1.7c-0.2,1-1,1.5-2.1,1.3c-1-0.2-2-0.2-2.9-0.1c-2.5,0.3-4.7,1.2-5.8,3.7
			c-0.8,1.7-0.8,3.5-0.6,5.3c0.6,4.7,5.2,7.3,9.3,5.8c0.6-0.2,1.2-0.3,1.7,0.2c1.1,0.9,0.9,2.4-0.6,3c-1.2,0.5-1.7,1.3-1.7,2.4
			c0.2,2.1,0.8,4,2.5,5.3c1.4,1.1,3,1.8,4.8,1.2c1-0.4,1.8-0.9,2.6-1.6c0.5-0.4,0.8-0.9,0.8-1.6c0.1-3.3,2.6-6.3,5.8-7.1
			c1.3-0.3,2.3,0.2,2.6,1.2c0.3,1-0.3,1.8-1.8,2.2c-1.9,0.5-3.4,2.4-3.2,4.3c0.3,3,2,5,4.8,6.1c1.8,0.7,3.6,0.8,5.1-0.4
			c1.8-1.5,3-3.5,3-6c0-8.1-0.1-16.2,0-24.3c0.1-9.3-0.1-18.5,0.2-27.8C123.8,113.2,123.7,110.3,123.7,107.4z M59.4,52.3
			c9.2-11.2,9.1-28.6-2.8-39.7C45.3,1.9,26.9,2.3,16.1,13.4C4.7,25.1,6.1,41.6,13,50.5c0.2-0.4,0.3-0.8,0.5-1.2
			c2.4-6.2,6.6-10.8,12.7-13.7c0.8-0.4,0.6-0.6,0.2-1.1c-2.4-2.9-3.4-6.2-2.9-9.9c0.9-7.3,7.5-12.1,14.3-11.2
			c5,0.7,8.6,3.3,10.5,8.1c1.9,4.8,1,9.2-2.3,13.2c-0.8,1-0.9,1,0.3,1.5c3.5,1.6,6.5,3.9,8.9,6.9C57.1,45.9,58.5,48.9,59.4,52.3z
			 M61.5,240.5c8.8-10.3,9.5-28.2-3.3-39.6c-12.2-11-31.7-9.1-41.8,4c-9.7,12.6-6.2,28.3,0.3,35.2c1.8-8.1,6.6-13.7,14.3-16.9
			c-0.2-0.3-0.4-0.5-0.6-0.6c-2.9-3.1-4.3-6.8-3.8-11.1c0.8-6.5,7.6-11.8,14.1-11c6.9,0.9,12.2,6.8,11.5,14c-0.3,3.3-1.6,6.1-4,8.3
			c-0.6,0.5-0.6,0.7,0.1,1c2,0.9,3.9,2.1,5.6,3.5C58,230.8,60.5,235.1,61.5,240.5z M37.2,63.1c3.4,0.3,7-0.8,10.4-2
			c2.6-0.9,4.8-2.6,7.1-4.1c1.6-1.1,2.4-2.2,1.7-4.4c-1.2-3.6-2.9-6.8-5.5-9.4c-2-2-4.3-3.6-7-4.5c-0.9-0.3-1.7-0.9-2.8-0.5
			c-3.7,1.4-7.3,1.4-10.9-0.4c-0.5-0.2-0.9-0.3-1.4,0c-4.7,1.9-8.4,5-11,9.3c-1.1,1.8-1.7,3.9-2.4,6c-0.1,0.5,0,0.8,0.3,1.1
			c1.7,1.8,3.6,3.3,5.7,4.6c1.8,1.1,3.7,2,5.8,2.7C30.3,62.5,33.5,63.1,37.2,63.1z M39.1,251.2c2.2,0,4.4-0.2,6.5-0.8
			c2.5-0.6,4.9-1.6,7.1-2.8c1.8-1,3.5-2.1,5.1-3.5c0.6-0.5,0.8-0.9,0.8-1.7c0-1.8-0.6-3.5-1.2-5.2c-1.1-3.2-3.2-5.7-5.6-7.9
			c-1.6-1.5-3.7-2.5-5.8-3.4c-1.1-0.5-2.1-0.5-3.2-0.3c-2.4,0.4-4.7,0.7-7.1-0.1c-1-0.3-2-0.3-3,0.1c-2.9,1.1-5.4,2.6-7.6,4.8
			c-2.6,2.6-4.4,5.7-5.3,9.2c-0.4,1.7-0.9,3.3,1.1,4.9C26.5,248.9,32.4,250.9,39.1,251.2z M39.5,223.2c6.4,0,11.1-5.6,9.8-11.9
			c-0.1-0.6-0.3-1-1-1.3c-1.2-0.5-2.3-1.3-3.4-2.1c-0.5-0.4-0.8-0.5-1.3,0c-2.8,2.3-6.1,3.8-9.7,4.1c-1.9,0.1-3.1,0.7-3.9,2.3
			c-0.2,0.4-0.4,0.8-0.3,1.3C30.8,220,34.7,223.2,39.5,223.2z M36,36.6c4.1-0.2,7.3-2,9.3-5.9c0.4-0.7,0.4-1.1-0.5-1.5
			c-2.5-1-4.7-2.6-6.6-4.6c-0.3-0.3-0.5-0.5-1-0.4c-1.2,0.3-2.4,0-3.5-0.6c-0.6-0.3-0.8-0.3-1,0.3c-1.1,2.5-2.6,4.7-4.7,6.5
			c-0.8,0.7-0.8,1.2-0.2,2C29.9,35.1,32.6,36.4,36,36.6z M73.9,138.4c-2.2,0-4.3,0-6.5,0c-0.6,0-0.9,0-0.9,0.8c0,2.7,0,5.4,0,8.1
			c0,0.5,0.2,0.7,0.7,0.7c1.6,0,3.2,0,4.8,0c0.6,0,0.8-0.2,0.8-0.8c0-1.2,0-2.4,0-3.6c0-1.4,0.1-1.5,1.5-1.5c2.3,0,4.6,0,7,0
			c0.7,0,1.1-0.1,0.7-0.9c-0.3-0.6-0.5-1.3-0.6-1.9c-0.1-0.7-0.4-0.9-1-0.9C78.2,138.4,76,138.4,73.9,138.4z M81.5,193
			c1.1,0,2-0.7,2-1.7c0-0.9-0.9-1.9-1.9-1.9c-0.9,0-1.8,0.8-1.9,1.8C79.7,192.1,80.5,192.9,81.5,193z M78.9,206c1,0,1.9-0.9,1.9-1.9
			c0-0.9-0.9-1.8-1.8-1.8c-1,0-1.9,0.8-1.9,1.7C77,205,77.9,205.9,78.9,206z M124.8,213.6c0-0.9-0.8-1.8-1.8-1.7
			c-0.9,0-1.8,0.8-1.8,1.7c0,0.9,0.8,1.8,1.7,1.8C123.9,215.4,124.8,214.5,124.8,213.6z M99.8,76.1c0,0.8,0.9,1.7,1.7,1.7
			c0.8,0,1.7-0.9,1.7-1.8c0-0.9-0.8-1.6-1.7-1.6C100.6,74.5,99.8,75.2,99.8,76.1z M95,68.5c1,0.1,1.8-0.6,1.8-1.4
			c0.1-0.7-0.7-1.6-1.5-1.5c-0.9,0-1.4,0.5-1.4,1.4C93.8,67.9,94.3,68.3,95,68.5z M53.1,108c0-0.8-0.5-1.4-1.4-1.4
			c-0.9,0-1.4,0.5-1.5,1.4c0,0.9,0.6,1.4,1.4,1.5C52.4,109.7,53.1,108.9,53.1,108z M60.3,100.2c0-0.9-0.8-1.7-1.5-1.7
			c-0.6,0-1.6,1-1.4,1.6c0.2,0.8,0.6,1.4,1.6,1.3C59.8,101.3,60.2,100.8,60.3,100.2z M55.1,169.4c0.7,0,1.2-0.5,1.3-1.3
			c0-0.8-0.4-1.4-1.3-1.4c-1-0.1-1.4,0.5-1.6,1.3C53.3,168.6,54.2,169.4,55.1,169.4z M65.2,131.7c0-0.9-0.4-1.4-1.3-1.5
			c-0.9,0-1.4,0.5-1.4,1.3c0,0.8,0.5,1.4,1.3,1.4C64.7,133,65.1,132.5,65.2,131.7z M84.1,90.5c0-1-0.6-1.5-1.3-1.5
			c-0.8,0-1.4,0.6-1.4,1.4c0,0.8,0.6,1.4,1.4,1.4C83.5,91.7,84.1,91.3,84.1,90.5z M66.1,91.8c-0.9,0-1.3,0.4-1.3,1.3
			c0,0.9,0.4,1.3,1.2,1.3c0.8,0,1.3-0.4,1.3-1.3C67.3,92.3,66.8,91.9,66.1,91.8z M49.2,180.3c-0.5,0.2-1.1,0.5-1,1.3
			c0,0.8,0.5,1.2,1.2,1.3c0.8,0,1.3-0.5,1.2-1.3C50.6,180.7,50.1,180.4,49.2,180.3z M53.6,141c0,0.9,0.5,1.3,1.3,1.3
			c0.7,0,1.2-0.5,1.2-1.2c0-0.7-0.4-1.3-1.2-1.3C54.1,139.8,53.7,140.2,53.6,141z M60.8,172c-0.4,0.1-0.9,0.4-0.9,1.1
			c0,0.6,0.5,1,1.1,1.1c0.7,0,1.2-0.4,1.2-1.1C62.2,172.4,61.8,171.9,60.8,172z"/>
		<path class="st1" d="M132.6,133.8c0-11.2,0-22.4,0-33.6c0-0.5,0-0.9,0-1.4c-0.1-1.7,0.5-2.5,2.2-2.7c2.1-0.3,3.9,0.4,5.3,2
			c1.1,1.2,1,2.7,0.6,4.1c-0.2,0.9-0.3,1.6,0.6,2.1c0.8,0.4,1.5,0.3,2.1-0.4c2.3-2.4,6.2-1.9,8.5-0.5c1.5,1,2.5,2.4,3.1,4
			c0.6,1.6-1.1,4.5-3,4.9c-0.3,0.1-0.5,0.1-0.8,0.2c-1.1,0.3-1.7,1.1-1.6,2c0.2,1,1.1,1.5,2.3,1.4c1.9-0.2,3.4-1.1,4.6-2.5
			c1.1-1.3,2.3-1.4,3.8-1c3.8,1.1,6.8,4.4,6.6,8.4c-0.1,2.2-0.8,4.2-3.2,5.1c-0.7,0.3-1.5,0.2-2.2,0.4c-0.4,0.1-0.6-0.2-0.8-0.6
			c-1-2.8-4.2-4.9-7.1-4.8c-1.2,0.1-2.1,0.8-2.2,1.7c-0.1,1,0.4,1.6,1.4,1.6c0.6,0,1.2-0.1,1.7,0.1c1.3,0.5,2.5,1.2,2.8,2.6
			c0.4,1.7,0.5,3.4-1.1,4.7c-0.6,0.6-1.4,0.7-2.2,0.8c-1.2,0.3-1.9,1.1-1.7,2.1c0.2,1,1,1.5,2.3,1.3c3.2-0.5,5.4-2.2,6.2-5.4
			c0.1-0.5,0.4-0.7,0.9-0.8c1.1-0.1,2.1-0.2,3.2-0.2c3.1-0.1,5.8,1.8,6.7,4.7c0.6,2.2,0.3,4.4-0.7,6.4c-0.9,1.7-3.2,2.4-4.8,1.6
			c-2.5-1.2-5.1-1-7.7-0.6c-1,0.1-1.4,1-1.1,1.9c0.3,1,0.9,1.4,1.9,1.2c1.6-0.3,3.1-0.3,4.7,0.2c2.6,0.7,4.2,2.4,4.6,4.9
			c0.5,2.9,0.3,5.7-2,7.9c-2,1.9-4.3,2.4-6.9,1.7c-0.1,0-0.3-0.1-0.4-0.1c-1-0.3-1.7-0.1-2.2,0.9c-0.4,0.9,0.1,1.6,0.8,2.2
			c0.6,0.5,1.6,0.5,1.8,1.4c0.3,1.1,0.1,2.2-0.2,3.2c-0.9,2.8-2.8,4.3-5.7,4.7c-1,0.1-4.2-1.7-4.5-2.7c-0.2-0.6,0-1.2-0.1-1.8
			c-0.7-3.2-2.7-5.2-5.8-6.1c-1.2-0.4-2.3,0.2-2.6,1.2c-0.2,1,0.4,1.8,1.7,2.1c2.3,0.6,3.7,2.9,3.2,5.3c-1,4.5-6.5,6.7-9.1,5
			c-2.3-1.5-3.6-3.7-3.6-6.5C132.6,156.8,132.6,145.3,132.6,133.8z"/>
		<path class="st2" d="M243.3,50.4c-2.4-7-7-12.1-13.8-15.2c1.7-1.9,2.9-4,3.3-6.4c1.5-7.4-3.6-14.4-11-15.3
			c-7-0.9-13.3,3.8-14.4,10.9c-0.6,3.9,0.5,7.4,3.1,10.3c0.7,0.7,0.8,1-0.3,1.5c-6,2.7-10.2,7.2-12.6,13.3c-0.2,0.6-0.5,1.3-0.6,1.9
			c-0.2,0.8-0.4,0.7-0.8,0.2c-1.6-2.1-2.9-4.4-3.9-6.8c-1.5-3.6-2.3-7.4-2.2-11.3c0.5-15.1,11.4-26.8,25.8-28.5
			c10.9-1.2,19.9,2.7,26.6,11.3c3.5,4.4,5.4,9.6,5.8,15.3c0.5,6.4-1,12.3-4.4,17.8c-0.2,0.3-0.3,0.5-0.5,0.7
			C243.6,50.3,243.4,50.4,243.3,50.4z"/>
		<path class="st2" d="M239.5,240.3c-1-5-3.3-9-6.8-12.4c-1.9-1.8-4.1-3.3-6.6-4.3c-0.9-0.4-0.8-0.6-0.2-1.2c4-4.2,4.9-9.5,2.6-14.7
			c-2.2-4.8-7.7-7.9-12.8-7.3c-5.9,0.7-10.5,5-11.5,10.5c-0.8,4.6,0.5,8.6,3.8,11.8c0.5,0.4,0.8,0.7-0.1,1.1
			c-7.1,3.3-11.4,8.8-13,16.4c0,0.1-0.1,0.1-0.1,0.2c-7.5-8.2-10-24.9,1-37.2c10.4-11.6,28.8-13,40.8-1.8
			C248.8,212.6,248,230.2,239.5,240.3z"/>
		<path class="st3" d="M219.8,63.2c-7.6-0.3-14.1-2.7-19.7-7.5c-0.5-0.4-0.7-0.9-0.5-1.6c1.8-8.1,6.6-13.5,14.5-16.1
			c0.4-0.1,0.7,0,1.1,0.1c3.7,1.4,7.3,1.4,10.9-0.4c0.4-0.2,0.8-0.3,1.2-0.1c7.1,2.8,11.6,7.9,13.6,15.3c0.2,0.6-0.1,1.1-0.5,1.5
			c-4.3,4.3-9.4,7.1-15.3,8.2C223.2,63,221.4,63.1,219.8,63.2z"/>
		<path class="st4" d="M217.3,251.2c-7.3-0.1-13.6-2.5-19.1-7.1c-0.7-0.6-0.7-1.3-0.6-2c0.6-7.4,6.7-14.6,13.9-16.6
			c1-0.3,1.9,0.2,2.8,0.4c2.1,0.3,4.2,0.4,6.3-0.3c1-0.3,1.9-0.3,2.9,0.1c7.7,2.8,12.1,8.3,13.4,16.4c0.1,0.7,0,1.4-0.6,1.9
			C230.6,248.7,224.3,251.1,217.3,251.2z"/>
		<path class="st5" d="M216.7,223.2c-6.4,0-11.1-5.9-9.7-12c0.1-0.5,0.3-0.9,0.8-1.1c1.3-0.6,2.5-1.3,3.5-2.3c0.4-0.4,0.7-0.3,1.1,0
			c3.5,2.6,7.3,4.2,11.7,4.3c0.4,0,0.7,0.1,0.9,0.5c0,0,0,0.1,0,0.1c0.3,0.9,1.5,1.4,1.3,2.4c-0.3,1.8-1.1,3.4-2.3,4.7
			C222.3,222.1,219.8,223.3,216.7,223.2z"/>
		<path class="st5" d="M220.4,36.6c-4.4-0.2-7.6-2.1-9.6-6.1c-0.3-0.6-0.3-0.9,0.4-1.2c2.6-1.1,4.8-2.6,6.7-4.6
			c0.3-0.4,0.6-0.5,1.2-0.3c1.1,0.2,2.3-0.1,3.3-0.6c0.5-0.3,0.8-0.3,1.1,0.3c1.2,2.6,2.9,4.9,5.1,6.8c0.5,0.4,0.5,0.7,0.1,1.1
			C226.7,34.9,223.9,36.4,220.4,36.6z"/>
		<path class="st6" d="M179.2,204.2c0,1-0.8,1.8-1.8,1.8c-1,0-1.8-0.9-1.8-1.8c0-1.1,0.8-1.8,1.9-1.8
			C178.5,202.4,179.2,203.1,179.2,204.2z"/>
		<path class="st6" d="M174.7,193c-1.1,0-1.8-0.7-1.8-1.7c0-1.1,0.8-1.9,1.8-1.9c1,0,1.8,0.9,1.8,1.8
			C176.5,192.2,175.8,193,174.7,193z"/>
		<path class="st6" d="M131.5,213.5c0-1,0.8-1.7,1.8-1.7c1,0,1.8,0.8,1.8,1.7c0,0.9-1,1.8-1.9,1.8
			C132.3,215.3,131.5,214.4,131.5,213.5z"/>
		<path class="st6" d="M154.8,74.5c0.9,0,1.7,0.8,1.6,1.7c0,0.8-0.9,1.7-1.7,1.7c-0.8,0-1.7-1-1.7-1.8
			C153.1,75.3,154,74.5,154.8,74.5z"/>
		<path class="st6" d="M161.3,65.5c0.7,0.1,1.2,0.6,1.3,1.4c0.1,0.8-0.7,1.6-1.5,1.5c-0.9,0-1.4-0.5-1.5-1.4
			C159.5,66.3,160.2,65.5,161.3,65.5z"/>
		<path class="st6" d="M197.4,101.4c-0.8,0-1.5-0.7-1.4-1.5c0-0.7,0.9-1.6,1.5-1.4c0.8,0.2,1.4,0.6,1.4,1.5
			C198.9,100.8,198.2,101.4,197.4,101.4z"/>
		<path class="st6" d="M204.7,106.6c0.8,0,1.3,0.5,1.4,1.4c0.1,0.7-0.6,1.5-1.4,1.5c-0.7,0-1.5-0.7-1.5-1.4
			C203.1,107.4,203.8,106.7,204.7,106.6z"/>
		<path class="st6" d="M201.2,169.4c-0.7-0.1-1.2-0.5-1.2-1.4c0-0.9,0.5-1.3,1.3-1.3c0.9,0,1.3,0.5,1.4,1.3
			C202.8,168.8,202.1,169.4,201.2,169.4z"/>
		<path class="st6" d="M192.5,133c-0.9-0.1-1.4-0.6-1.4-1.4c0-0.8,0.5-1.4,1.4-1.3c0.9,0,1.3,0.6,1.3,1.4
			C193.8,132.5,193.2,132.9,192.5,133z"/>
		<path class="st6" d="M174.9,90.3c0,1-0.6,1.5-1.4,1.4c-0.8,0-1.4-0.5-1.3-1.4c0-0.8,0.6-1.4,1.4-1.4
			C174.3,89,174.9,89.5,174.9,90.3z"/>
		<path class="st6" d="M189.9,94.4c-0.4,0-1-0.5-1-1.2c0-0.7,0.5-1.3,1.4-1.3c0.8,0,1.3,0.6,1.3,1.3
			C191.6,93.9,191.1,94.4,189.9,94.4z"/>
		<path class="st6" d="M201.1,139.8c1.1,0,1.6,0.5,1.6,1.2c0,0.7-0.5,1.3-1.3,1.3c-0.8,0-1.2-0.5-1.2-1.2
			C200.1,140.4,200.5,139.8,201.1,139.8z"/>
		<path class="st6" d="M205.7,181.5c0-0.7,0.4-1.2,1.2-1.2c0.8,0,1.3,0.4,1.3,1.1c0,0.8-0.6,1.3-1.3,1.3
			C206.2,182.9,205.8,182.3,205.7,181.5z"/>
		<path class="st6" d="M195.2,171.9c0.9,0,1.3,0.5,1.3,1.1c0,0.7-0.5,1.1-1.2,1.1c-0.6,0-1.1-0.4-1.1-1.1
			C194.2,172.3,194.6,172,195.2,171.9z"/>
		<path class="st0" d="M175.6,138.4c-0.2,1.3-0.6,2.5-1.2,3.6c-0.6,0.1-0.7,0-0.5-0.2c0.7-0.9,0.6-2,0.9-3
			C174.9,138.5,174.9,137.8,175.6,138.4z"/>
		<path class="st7" d="M123.7,107.4c0,2.9,0.1,5.9,0,8.8c-0.3,9.3-0.1,18.5-0.2,27.8c-0.1,8.1,0,16.2,0,24.3c0,2.5-1.1,4.5-3,6
			c-1.5,1.2-3.3,1.1-5.1,0.4c-2.8-1.1-4.5-3-4.8-6.1c-0.2-1.9,1.3-3.8,3.2-4.3c1.4-0.3,2.1-1.1,1.8-2.2c-0.3-1-1.3-1.5-2.6-1.2
			c-3.2,0.8-5.7,3.8-5.8,7.1c0,0.7-0.3,1.2-0.8,1.6c-0.8,0.7-1.7,1.2-2.6,1.6c-1.8,0.7-3.5-0.1-4.8-1.2c-1.7-1.3-2.3-3.3-2.5-5.3
			c-0.1-1.2,0.5-1.9,1.7-2.4c1.5-0.6,1.7-2.1,0.6-3c-0.5-0.4-1.1-0.4-1.7-0.2c-4.1,1.5-8.7-1.1-9.3-5.8c-0.2-1.9-0.2-3.6,0.6-5.3
			c1.1-2.6,3.3-3.4,5.8-3.7c1-0.1,2-0.1,2.9,0.1c1,0.2,1.8-0.4,2.1-1.3c0.2-0.7-0.4-1.6-1.4-1.7c-2.6-0.4-5.1-0.5-7.6,0.6
			c-1.9,0.9-4.3,0-5-2c-1.1-2.9-1.4-5.9,0.9-8.5c1.2-1.3,2.6-2.4,4.5-2.3c1.3,0.1,2.7,0,4,0.2c0.5,0.1,0.8,0.3,0.9,0.8
			c0.9,3.2,3,5,6.3,5.4c1.2,0.1,2-0.3,2.2-1.3c0.2-0.9-0.5-1.7-1.6-2c-1-0.3-2-0.4-2.7-1.3c-1.3-1.5-1.2-3.2-0.5-4.8
			c0.7-1.5,2-2.4,3.8-2.3c1,0.1,1.8-0.1,2-1.2c0.2-1.1-0.6-1.7-1.5-2c-1.9-0.6-3.6,0.2-5.1,1.2c-1.2,0.8-2.1,1.9-2.7,3.3
			c-0.1,0.4-0.3,0.7-0.8,0.7c-2.3,0.2-4.4-1.4-5.1-3.7c-1.5-5,2.7-10,7.7-10.4c1-0.1,1.7,0.5,2.3,1.2c1.3,1.4,2.7,2.3,4.7,2.5
			c1.2,0.1,2-0.3,2.2-1.2c0.2-1.1-0.4-1.9-1.5-2.1c-1.1-0.2-2.1-0.6-2.8-1.5c-1.4-2-1.4-3.1-0.2-5.2c2.1-3.6,7.2-4.3,9.7-2.7
			c0.4,0.3,0.8,0.6,1.1,0.9c0.7,0.7,1.4,0.7,2.2,0.3c0.7-0.4,0.8-1.1,0.5-1.9c-0.6-1.8-0.2-3.8,0.9-4.6c1.9-1.5,4-2.3,6.4-1.1
			c0.7,0.3,0.9,0.8,0.9,1.6C123.8,101.3,123.8,104.3,123.7,107.4C123.8,107.4,123.8,107.4,123.7,107.4z"/>
		<path class="st2" d="M59.4,52.3c-1-3.4-2.3-6.5-4.5-9.1c-2.4-3-5.4-5.4-8.9-6.9c-1.2-0.5-1.1-0.5-0.3-1.5c3.2-4,4.2-8.4,2.3-13.2
			c-1.9-4.7-5.4-7.4-10.5-8.1c-6.7-0.9-13.4,3.9-14.3,11.2c-0.4,3.7,0.5,7,2.9,9.9c0.4,0.5,0.6,0.7-0.2,1.1
			c-6.1,2.8-10.3,7.4-12.7,13.7c-0.1,0.4-0.3,0.8-0.5,1.2c-6.8-8.9-8.2-25.4,3.1-37.1C26.9,2.3,45.3,1.9,56.7,12.6
			C68.5,23.7,68.6,41.1,59.4,52.3z"/>
		<path class="st2" d="M61.5,240.5c-1-5.3-3.5-9.7-7.5-13.2c-1.7-1.5-3.5-2.7-5.6-3.5c-0.7-0.3-0.7-0.5-0.1-1c2.4-2.2,3.7-5,4-8.3
			c0.7-7.2-4.6-13.2-11.5-14c-6.5-0.8-13.3,4.5-14.1,11c-0.5,4.4,0.8,8,3.8,11.1c0.2,0.2,0.4,0.4,0.6,0.6
			c-7.7,3.2-12.4,8.9-14.3,16.9c-6.5-6.9-10-22.6-0.3-35.2c10.1-13.2,29.6-15,41.8-4C71,212.3,70.3,230.2,61.5,240.5z"/>
		<path class="st8" d="M37.2,63.1c-3.7,0.1-6.9-0.5-10-1.6c-2-0.7-4-1.6-5.8-2.7c-2.1-1.3-4-2.8-5.7-4.6c-0.3-0.3-0.4-0.6-0.3-1.1
			c0.6-2.1,1.2-4.2,2.4-6c2.7-4.3,6.3-7.4,11-9.3c0.5-0.2,0.9-0.2,1.4,0c3.6,1.8,7.2,1.8,10.9,0.4c1.1-0.4,1.9,0.2,2.8,0.5
			c2.7,0.9,5,2.5,7,4.5c2.6,2.6,4.3,5.8,5.5,9.4c0.7,2.2-0.1,3.3-1.7,4.4c-2.3,1.5-4.5,3.2-7.1,4.1C44.1,62.3,40.6,63.3,37.2,63.1z"
			/>
		<path class="st9" d="M39.1,251.2c-6.7-0.3-12.7-2.3-18-6.5c-2-1.6-1.5-3.2-1.1-4.9c0.8-3.6,2.7-6.6,5.3-9.2
			c2.2-2.2,4.7-3.7,7.6-4.8c1-0.4,2-0.4,3-0.1c2.4,0.7,4.7,0.5,7.1,0.1c1.1-0.2,2.1-0.1,3.2,0.3c2.1,0.9,4.2,1.9,5.8,3.4
			c2.4,2.2,4.5,4.8,5.6,7.9c0.6,1.7,1.1,3.4,1.2,5.2c0,0.7-0.2,1.1-0.8,1.7c-1.6,1.4-3.3,2.5-5.1,3.5c-2.3,1.2-4.6,2.2-7.1,2.8
			C43.5,251,41.3,251.2,39.1,251.2z"/>
		<path class="st5" d="M39.5,223.2c-4.7,0-8.7-3.1-9.7-7.7c-0.1-0.5,0-0.8,0.3-1.3c0.8-1.6,2.1-2.2,3.9-2.3c3.6-0.3,6.9-1.8,9.7-4.1
			c0.6-0.4,0.8-0.3,1.3,0c1,0.8,2.1,1.6,3.4,2.1c0.6,0.2,0.8,0.7,1,1.3C50.6,217.5,45.9,223.2,39.5,223.2z"/>
		<path class="st5" d="M36,36.6c-3.4-0.2-6.1-1.5-8.2-4.1c-0.6-0.8-0.6-1.3,0.2-2c2.1-1.8,3.6-4,4.7-6.5c0.3-0.6,0.5-0.6,1-0.3
			c1.1,0.6,2.3,1,3.5,0.6c0.5-0.1,0.7,0.1,1,0.4c1.9,1.9,4.1,3.5,6.6,4.6c0.9,0.4,0.8,0.8,0.5,1.5C43.4,34.5,40.2,36.4,36,36.6z"/>
		<path class="st6" d="M81.5,193c-1,0-1.8-0.8-1.7-1.8c0-0.9,1-1.8,1.9-1.8c1,0,1.9,1,1.9,1.9C83.5,192.3,82.6,193,81.5,193z"/>
		<path class="st6" d="M78.9,206c-1,0-1.9-1-1.9-1.9c0-0.9,1-1.7,1.9-1.7c1,0,1.8,0.8,1.8,1.8C80.8,205,79.9,206,78.9,206z"/>
		<path class="st6" d="M124.8,213.6c0,1-0.9,1.8-1.9,1.8c-0.9,0-1.7-0.9-1.7-1.8c0-0.9,0.9-1.7,1.8-1.7
			C124,211.8,124.8,212.7,124.8,213.6z"/>
		<path class="st6" d="M99.8,76.1c0-0.9,0.7-1.6,1.7-1.6c0.9,0,1.7,0.7,1.7,1.6c0,0.9-0.9,1.8-1.7,1.8
			C100.7,77.8,99.8,76.9,99.8,76.1z"/>
		<path class="st6" d="M95,68.5c-0.7-0.2-1.2-0.6-1.1-1.5c0.1-0.9,0.6-1.4,1.4-1.4c0.8,0,1.6,0.8,1.5,1.5
			C96.7,67.9,95.9,68.5,95,68.5z"/>
		<path class="st6" d="M53.1,108c0,0.8-0.8,1.7-1.4,1.5c-0.8-0.2-1.4-0.6-1.4-1.5c0-0.9,0.6-1.4,1.5-1.4
			C52.7,106.7,53.1,107.2,53.1,108z"/>
		<path class="st6" d="M60.3,100.2c-0.1,0.6-0.4,1.1-1.3,1.2c-0.9,0.1-1.4-0.5-1.6-1.3c-0.1-0.6,0.8-1.5,1.4-1.6
			C59.5,98.5,60.3,99.2,60.3,100.2z"/>
		<path class="st6" d="M55.1,169.4c-0.9,0-1.8-0.8-1.6-1.5c0.2-0.8,0.6-1.4,1.6-1.3c0.9,0.1,1.3,0.7,1.3,1.4
			C56.3,168.9,55.8,169.4,55.1,169.4z"/>
		<path class="st6" d="M65.2,131.7c-0.1,0.8-0.5,1.3-1.4,1.2c-0.9,0-1.4-0.6-1.3-1.4c0-0.8,0.6-1.3,1.4-1.3
			C64.8,130.2,65.2,130.8,65.2,131.7z"/>
		<path class="st6" d="M84.1,90.5c0,0.8-0.5,1.3-1.3,1.3c-0.8,0-1.4-0.5-1.4-1.4c0-0.8,0.6-1.4,1.4-1.4C83.5,89,84.1,89.4,84.1,90.5
			z"/>
		<path class="st6" d="M66.1,91.8c0.7,0.1,1.2,0.5,1.2,1.3c0,0.8-0.5,1.3-1.3,1.3c-0.8,0-1.2-0.4-1.2-1.3
			C64.8,92.3,65.2,91.8,66.1,91.8z"/>
		<path class="st6" d="M49.2,180.3c0.9,0.1,1.4,0.5,1.4,1.2c0,0.8-0.5,1.4-1.2,1.3c-0.7,0-1.2-0.4-1.2-1.3
			C48.2,180.7,48.7,180.5,49.2,180.3z"/>
		<path class="st6" d="M53.6,141c0.1-0.8,0.4-1.2,1.3-1.2c0.9,0,1.2,0.5,1.2,1.3c0,0.7-0.5,1.2-1.2,1.2
			C54.2,142.3,53.7,141.9,53.6,141z"/>
		<path class="st6" d="M60.8,172c1,0,1.4,0.5,1.4,1.1c0,0.7-0.5,1.1-1.2,1.1c-0.7,0-1.1-0.4-1.1-1.1C59.9,172.4,60.4,172,60.8,172z"
			/>
	</g>
</g>
<g id="Layer_2">
</g>
</svg>
