<?xml version="1.0" encoding="utf-8"?>
<!-- Generator: Adobe Illustrator 23.0.0, SVG Export Plug-In . SVG Version: 6.00 Build 0)  -->
<svg version="1.1" xmlns="http://www.w3.org/2000/svg" xmlns:xlink="http://www.w3.org/1999/xlink" x="0px" y="0px"
	 viewBox="0 0 256 256" style="enable-background:new 0 0 256 256;" xml:space="preserve">
<style type="text/css">
	.st0{fill:#9787BD;}
	.st1{fill:#FFFFFF;}
	.st2{fill:#87607C;}
	.st3{fill:#B294C5;}
	.st4{fill:#7065A4;}
	.st5{fill:#4D2C69;}
	.st6{fill:#4C2C68;}
	.st7{fill:#9887BE;}
	.st8{fill:#866DAF;}
	.st9{fill:#856DB0;}
	.st10{fill:#7064A4;}
	.st11{fill:#B0D584;}
	.st12{fill:#FCFCFB;}
	.st13{fill:#96489A;}
	.st14{fill:#95489A;}
	.st15{fill:#4B2D6B;}
	.st16{fill:#4D2C6C;}
	.st17{fill:#4B2D6A;}
	.st18{fill:#9789BF;}
</style>
<g id="Layer_1">
	<g>
		<path class="st0" d="M250.9,76.4c2.5,0,4.1,2.1,4,4.3c-0.1,50.5,0,101,0,151.5c0,2.6,0.1,5.3-0.1,7.9c-0.1,2-0.1,4.1-0.2,6.1
			c-0.1,2.2-1.9,3.6-4.3,3.6c-7.1,0-14.3,0-21.4,0c-66.8,0-133.7,0-200.5,0c-5.3,0-10.6,0.1-15.8-0.1c-2.1-0.1-4.3,0.2-6.3-0.6
			c-1.2-0.5-2-1.7-2.1-3c-0.3-4.4-0.2-8.9-0.2-13.3c0-37.6,0-75.2,0-112.8c0-10-0.1-20,0.1-29.9C4,86.7,4,83.4,4.1,80
			c0-1.7,1.6-3.8,4.2-3.9c0.3,0,0.6,0,0.9,0c61.7,0,123.3,0,185,0c0.5,0,1,0,1.4,0c0.4-0.2,0.9-0.1,1.3-0.1c17.3,0,34.6,0,51.9,0
			C249.5,76,250.3,75.9,250.9,76.4z"/>
		<path class="st1" d="M128,7.8c36.6,0,73.2,0,109.9,0c4.3,0,8.2,1,11.4,3.9c2.5,2.2,4.1,5.1,4.7,8.4c1,5.7-1.6,11.7-6.4,14.8
			c-2.8,1.8-5.8,2.6-9,2.6c-73.7,0-147.4,0-221.1,0c-4.7,0-8.8-1.5-12.1-5c-2.2-2.4-3.4-5.2-3.8-8.4c-0.6-5.4,1.6-9.7,5.6-13.1
			c2.1-1.7,4.6-2.7,7.4-3c4.1-0.4,8.3-0.2,12.4-0.2C60.7,7.8,94.3,7.8,128,7.8z"/>
		<path class="st2" d="M250.9,76.4c-18,0-36.1,0-54.1,0c-0.4,0-0.8,0.1-1.1-0.2c0-3.4-0.2-6.7-0.1-10.1c0-1.6,0-3.2,0.1-4.8
			c0.1-1.7,1.8-3.2,3.7-3.2c3.1,0,6.2,0,9.3,0c12.6,0,25.3,0,37.9,0c2.8,0,4.3,1.5,4.3,4.3C250.9,67.1,250.9,71.7,250.9,76.4z"/>
		<path class="st3" d="M35.6,54.7c-0.2-2.2,1.6-4.4,4.5-4.4c2.3,0,4.5,2.2,4.4,4.7c-0.1,2.3-1.8,4.1-4.4,4.2
			C37.6,59.2,35.2,56.7,35.6,54.7z"/>
		<path class="st0" d="M23.9,59.3c-2.5,0-4.1-1.6-4.1-4.1c0-2.5,1.6-4.1,4.2-4.1c2.3-0.1,4.1,1.6,4.2,4.3
			C28.3,57.4,26.4,59.6,23.9,59.3z"/>
		<path class="st4" d="M7.9,59.3c-2.3,0-4.1-1.8-4.1-4.2c0-2.3,1.8-4,4.1-4c2.3,0,4.2,1.8,4.1,4.1C12,57.6,10.3,59.3,7.9,59.3z"/>
		<path class="st5" d="M138,173.5c0,16.4,0,32.7,0,49.1c0,0.7,0.1,1.4-0.4,1.9c-0.4,0.5-0.9,0.9-1.6,0.9c-0.3,0-0.7,0-1,0
			c-27.2,0-54.3,0-81.5,0c-1.5,0-2-0.5-2-2.1c0-3.3,0-6.5,0-9.8c0-0.8-0.2-1.1-1.1-1.1c-3.8,0-7.7,0-11.5,0c-1.5,0-1.9-0.4-1.9-1.9
			c0-3.1,0-6.2,0-9.3c0-0.8-0.2-1-1-1c-3.8,0-7.6,0-11.4,0c-1.7,0-2.2-0.5-2.2-2.2c0-3.1,0-6.2,0-9.3c0-21.1,0-42.1,0-63.2
			c0-1.1,0.3-2,1.1-2.7c4.7-4.6,9.4-9.1,14.2-13.7c4.1-3.9,8.1-7.8,12.2-11.8c0.7-0.7,1.4-0.7,2.2-0.7c18.2,0,36.3,0,54.5,0
			c1.7,0,2.3,0.6,2.3,2.2c0,3,0,6.1,0,9.1c0,0.8,0.2,1.1,1.1,1.1c3.8,0,7.6,0,11.4,0c1.5,0,2.1,0.6,2.1,2.1c0,3.2,0,6.4,0,9.6
			c0,0.8,0.2,1.1,1.1,1.1c3.7,0,7.5,0,11.2,0c1.7,0,2.2,0.5,2.2,2.2C138,140.5,138,157,138,173.5C138,173.5,138,173.5,138,173.5z"/>
		<path class="st6" d="M234.9,174c0,16.4,0,32.9,0,49.3c0,2.1-0.5,2.5-2.5,2.5c-27.3,0-54.7,0-82,0c-1.4,0-1.8-0.4-1.9-1.8
			c0-0.5,0-1,0-1.6c0-23.7,0-47.4,0-71.2c0-1.1,0.3-1.9,1.1-2.6c4.9-4.8,9.8-9.6,14.7-14.4c3.8-3.7,7.5-7.3,11.3-10.9
			c0.7-0.7,1.4-1.1,2.4-1.1c17.9,0,35.8,0,53.6,0c0.6,0,1.2,0,1.8,0.1c1.1,0.2,1.5,0.9,1.5,2c0,4.7,0,9.3,0,14
			C234.9,150.2,234.9,162.1,234.9,174z"/>
		<path class="st3" d="M135.1,27.4c-7.2,0-14.4,0-21.6,0c-3.1,0-5-2.8-3.7-5.5c0.8-1.8,2.4-2.3,4.2-2.3c7.4,0,14.9,0,22.3,0
			c6.7,0,13.4,0,20.1,0c2.5,0,4.3,1.6,4.3,3.9c0,2.2-1.6,3.9-4,3.9C149.5,27.4,142.3,27.4,135.1,27.4z"/>
		<path class="st3" d="M27.3,27.6c-4.5,0-8.9,0-13.4,0c-2.8,0-4.7-2.5-3.7-5.2c0.7-1.9,2.3-2.5,4.1-2.6c8.5,0,16.9-0.1,25.4,0
			c1.7,0,3.5,0.1,4.5,2c0.7,1.2,0.8,2.5,0.1,3.7c-0.7,1.3-1.8,2.1-3.3,2.1C36.4,27.6,31.8,27.6,27.3,27.6z"/>
		<path class="st7" d="M216.9,18.2c-0.2-3.4,3.1-7.7,8.3-7.6c6.2,0.1,9.5,6.1,7.7,11c-0.3,0.8-0.1,1.3,0.6,1.4
			c1.6,0.2,2.6,1.3,3.7,2c1.6,1.1,3.1,2.2,4.7,3.3c1.2,0.8,1.6,2.1,0.9,3.3c-0.7,1.1-1.9,1.5-3.2,0.7c-2.6-1.7-5.1-3.5-7.6-5.4
			c-0.2-0.1-0.3-0.3-0.4-0.5c-0.8-1.4-0.8-1.3-2.1-0.6c-2.7,1.6-5.5,1.9-8.3,0.4C218.4,24.7,216.9,22.2,216.9,18.2z"/>
		<path class="st3" d="M83.2,27.2c-3.2,0-6.4,0-9.6,0c-2.3,0-3.8-1.4-3.8-3.6c0-2.4,1.5-3.9,3.8-3.9c6.5,0,13,0,19.5,0
			c2.1,0,4,1.7,4,3.7c0,2.3-1.7,3.9-4,3.9C89.7,27.2,86.4,27.2,83.2,27.2C83.2,27.2,83.2,27.2,83.2,27.2z"/>
		<path class="st3" d="M63.7,27.4c-2.6,0-4.2-1.4-4.2-3.8c0-2.3,1.8-4,4.2-4c2.3,0,4,1.8,4,4C67.7,25.9,66.1,27.4,63.7,27.4z"/>
		<path class="st3" d="M102.9,27.4c-2.6,0-4.2-1.4-4.2-3.8c0-2.3,1.6-3.8,4.1-3.8c2.6,0,4.1,1.5,4.2,3.8
			C107,25.9,105.4,27.4,102.9,27.4z"/>
		<path class="st3" d="M55.8,24c0,2.1-1.8,3.8-4,3.8c-2.3,0-4-1.7-4-3.9c0-2.2,1.7-3.8,4-3.8C54,20,55.8,21.8,55.8,24z"/>
		<path class="st3" d="M134.7,173.6c0,15.7,0,31.4,0,47.1c0,1.1-0.3,1.4-1.3,1.3c-25.6,0-51.3,0-76.9,0c-1.6,0-1.6,0-1.6-1.5
			c0-22.5,0-45.1,0-67.6c0-1.1,0.3-1.4,1.4-1.4c7.5,0.1,15.1,0,22.6,0c2.2,0,2.8-0.6,2.8-2.8c0-7.5,0-14.9,0-22.4
			c0-1,0.3-1.2,1.2-1.2c16.8,0,33.7,0,50.5,0c1.1,0,1.3,0.3,1.3,1.3C134.7,142.1,134.7,157.9,134.7,173.6z"/>
		<path class="st8" d="M62.2,138.7c-1.9,2.2-4,3.9-5.9,5.9c-1,1.1-2,2.1-3.2,3c-1.1,0.9-1.5,2.1-1.5,3.5c0,9.1,0,18.2,0,27.3
			c0,9.9,0,19.7,0,29.6c0,1-0.3,1.3-1.3,1.3c-2.6-0.1-5.2,0-7.9,0c-2,0-2,0-2-2c0-9.6,0-19.2,0-28.8c0-12.7,0-25.5,0-38.2
			c0-1.5,0-1.5,1.4-1.5c6.2,0,12.3,0,18.5,0C60.9,138.7,61.4,138.7,62.2,138.7z"/>
		<path class="st4" d="M35.9,126.5c2.7,0,5.5,0,8.2,0c0.7,0,1.3-0.1,2-0.2c0.3,0,0.5,0,0.7,0.2c0.2,0.3-0.1,0.5-0.3,0.6
			c-2.7,2.6-5.4,5.2-8.2,7.8c-0.8,0.7-1.2,1.4-1.2,2.6c0,19.3,0,38.6,0,58c0,1.5,0,1.5-1.5,1.5c-2.8,0-5.5,0-8.3,0
			c-1.3,0-1.5-0.2-1.5-1.5c0.4-22.6,0.1-45.3,0.2-67.9c0-0.9,0.3-1.1,1.1-1.1C30.1,126.5,33,126.5,35.9,126.5z"/>
		<path class="st9" d="M67.4,133.4c-0.3-1-0.1-2-0.1-3c0-5.2,0-10.3,0-15.5c0-2.7,0-2.7,2.8-2.7c16.2,0,32.4,0,48.7,0
			c1.1,0,1.5,0.3,1.4,1.4c-0.1,2.3-0.1,4.6,0,6.9c0,1-0.2,1.3-1.3,1.3c-11.1,0-22.2,0-33.3,0c-1.6,0-3.2,0-4.8,0
			c-0.8,0-1.4,0.2-2,0.8c-3.4,3.3-6.8,6.6-10.1,9.9C68.3,132.9,67.9,133.3,67.4,133.4z"/>
		<path class="st10" d="M52.6,121.1c0-0.6,0-0.9,0-1.2c0-6.3,0-12.6,0-18.8c0-0.9,0.2-1.2,1.2-1.2c16.9,0,33.8,0,50.7,0
			c0.9,0,1.2,0.2,1.1,1.1c-0.1,2.3-0.1,4.5,0,6.8c0,0.9-0.2,1.2-1.2,1.2c-12.5,0-25,0-37.6,0c-1.3,0-2.1,0.4-3,1.2
			C60.3,113.8,56.6,117.3,52.6,121.1z"/>
		<path class="st11" d="M78.4,127.7c0,6.8,0,13.3,0,19.8c0,0.5-0.1,0.7-0.7,0.7c-6.6,0-13.3,0-19.9,0c0,0,0,0-0.2-0.2
			C64.4,141.2,71.3,134.6,78.4,127.7z"/>
		<path class="st11" d="M42.9,135.2c7-6.8,13.8-13.4,20.6-20c0.5,0.3,0.3,0.6,0.3,0.9c0,6.1,0,12.2-0.1,18.3c0,0.6,0.1,1-0.7,1
			c-6.5,0-13,0-19.5,0C43.4,135.3,43.3,135.3,42.9,135.2z"/>
		<path class="st11" d="M28.5,122.8c6.9-6.7,13.7-13.3,20.6-20c0.1,0.1,0.2,0.1,0.2,0.2c0,0.3,0,0.6,0,1c0,5.9,0,11.9,0,17.8
			c0,0.9-0.2,1.3-1.2,1.3c-6.2-0.1-12.4,0-18.6,0C29.2,123,28.9,123.1,28.5,122.8z"/>
		<path class="st3" d="M231.6,174.2c0,15.7,0,31.4,0,47.1c0,1.1-0.3,1.4-1.4,1.4c-25.3,0-50.6,0-75.9,0c-2.4,0-2.4,0-2.4-2.3
			c0-22.3,0-44.6,0-66.8c0-1.4,0-1.4,1.4-1.4c7.5,0,15.1,0,22.6,0c2.1,0,2.6-0.5,2.6-2.6c0-7.6,0-15.2,0-22.7c0-0.9,0.2-1.1,1.1-1.1
			c16.9,0,33.8,0,50.8,0c1,0,1.2,0.3,1.2,1.3C231.6,142.6,231.6,158.4,231.6,174.2z"/>
		<path class="st11" d="M175.2,128.3c0,0.6,0.1,0.9,0.1,1.2c0,6.1,0,12.1,0,18.2c0,0.6,0,1.1-0.8,1.1c-6.6,0-13.2,0-20.2,0
			C161.3,141.8,168.2,135.1,175.2,128.3z"/>
		<path class="st12" d="M230.1,18.9c0.1,2.9-2.1,5.1-5,5.1c-2.8,0-4.9-1.9-5-5c-0.1-2.7,2.3-5.1,5.1-5.1
			C227.8,13.9,230.1,16.1,230.1,18.9z"/>
		<path class="st13" d="M94.4,164.2c-8.6,0-17.3,0-25.9,0c-1.3,0-1.8-0.4-1.8-1.5c0-1,0.5-1.5,1.4-1.6c0.5,0,1,0,1.6,0
			c16.8,0,33.7,0,50.5,0c1.6,0,2.2,0.4,2.2,1.7c0,0.9-0.5,1.4-1.4,1.5c-1.1,0-2.3,0-3.4,0C109.7,164.2,102,164.2,94.4,164.2z"/>
		<path class="st14" d="M94.4,178.6c-8.5,0-17.1,0-25.6,0c-1.6,0-2.3-0.6-2.2-1.8c0-0.8,0.4-1.2,1.2-1.3c0.2,0,0.4,0,0.7,0
			c17.3,0,34.6,0,51.9,0c0.9,0,1.7,0.1,1.9,1.1c0.3,1-0.4,1.9-1.5,2c-0.7,0.1-1.3,0-2,0C110.7,178.6,102.5,178.6,94.4,178.6z"/>
		<path class="st13" d="M94.4,192.8c-8.6,0-17.3,0-25.9,0c-0.9,0-1.6-0.1-1.8-1.2c-0.2-1,0.3-1.7,1.4-1.9c0.3,0,0.6,0,0.9,0
			c17.1,0,34.3,0,51.4,0c0.7,0,1.3,0,1.7,0.7c0.7,1.1,0.2,2.2-1.1,2.4c-0.4,0-0.7,0-1.1,0C111.4,192.8,102.9,192.8,94.4,192.8z"/>
		<path class="st15" d="M192.7,164.8c-8.6,0-17.1,0-25.7,0c-0.6,0-1.2,0-1.7-0.6c-0.8-0.8-0.5-2.1,0.6-2.6c0.5-0.2,0.9-0.2,1.4-0.2
			c17,0,33.9,0,50.9,0c1.7,0,2.5,0.5,2.5,1.6c0,1.1-0.8,1.6-2.5,1.6C209.7,164.8,201.2,164.8,192.7,164.8z"/>
		<path class="st16" d="M192.8,175.9c8.6,0,17.2,0,25.8,0c0.6,0,1.1,0,1.6,0.4c0.9,0.8,0.7,2.1-0.3,2.7c-0.5,0.2-1,0.2-1.5,0.2
			c-17,0-33.9,0-50.9,0c-0.3,0-0.7,0-1,0c-0.9-0.1-1.6-0.9-1.5-1.7c0.1-0.9,0.7-1.5,1.7-1.5c2.7,0,5.3,0,8,0
			C180.7,175.9,186.7,175.9,192.8,175.9z"/>
		<path class="st17" d="M192.9,190.3c8.6,0,17.3,0,25.9,0c1.3,0,2,0.6,1.9,1.6c-0.1,0.8-0.5,1.3-1.4,1.5c-0.3,0.1-0.7,0-1,0
			c-17,0-34,0-51.1,0c-0.4,0-0.8,0-1.2-0.1c-0.8-0.2-1.2-0.8-1.2-1.6c0.1-0.8,0.6-1.3,1.4-1.4c0.4,0,0.7,0,1.1,0
			C175.9,190.3,184.4,190.3,192.9,190.3z"/>
		<path class="st18" d="M223.3,18.3c1.1,0.3,1.3-0.3,1.2-1.4c0-0.4-0.1-1.1,0.6-1c0.6,0,0.6,0.6,0.5,1c-0.2,1.2,0.3,1.6,1.5,1.4
			c0.5-0.1,1.2-0.2,1.2,0.6c0,0.8-0.7,0.7-1.2,0.7c-1.2-0.2-1.5,0.3-1.4,1.4c0.1,0.4,0,1-0.6,1c-0.6,0-0.6-0.5-0.6-1
			c0.2-1.2-0.3-1.6-1.4-1.4c-0.2,0-0.4,0-0.7,0c-0.4,0-0.7-0.2-0.8-0.6c0-0.5,0.4-0.7,0.8-0.7C222.7,18.3,222.9,18.3,223.3,18.3z"/>
		<g>
			<path class="st5" d="M19.5,250.5c-2.4,0-4.9,0-7.3-0.1c-0.5,0-1,0-1.5,0c-1.7,0-3.4,0-5.2-0.7c-1.6-0.6-2.7-2.2-2.9-4
				c-0.3-3.3-0.2-6.7-0.2-9.9c0-1.2,0-2.3,0-3.5c0-32.6,0-65.2,0-97.8l0-15c0-2.6,0-5.1,0-7.7c0-7.3,0-14.8,0.1-22.3
				c0-3.4,0.1-6.7,0.2-10.1c0-2.4,2.1-5,5.3-5c0.2,0,0.4,0,0.6,0l0.3,0h185c0.3,0,0.7,0,1,0l0.3,0c0.5-0.1,1-0.1,1.4-0.1l21.1,0
				c10.3,0,20.6,0,30.9,0l0.3,0c0.6,0,1.3,0,2.1,0.4c1.3,0.1,2.6,0.7,3.5,1.7c0.9,1,1.4,2.4,1.4,3.7c0,42,0,83.9,0,125.9v25.7
				c0,0.7,0,1.5,0,2.2c0,1.9,0,3.8-0.1,5.7c-0.1,1.1-0.1,2.1-0.1,3.2c0,1,0,1.9-0.1,2.9c-0.1,2.8-2.4,4.7-5.5,4.7
				c-7.1,0-14.3,0-21.4,0l-200.5,0c-1.4,0-2.9,0-4.3,0C22.3,250.5,20.9,250.5,19.5,250.5z M11.2,248c0.3,0,0.6,0,1,0
				c3.8,0.1,7.7,0.1,11.5,0.1c1.4,0,2.9,0,4.3,0l50.1,0l150.4,0c7.1,0,14.3,0,21.4,0c1.9,0,3.1-1,3.2-2.5c0-0.9,0.1-1.9,0.1-2.8
				c0-1.1,0-2.2,0.1-3.2c0.1-1.8,0.1-3.7,0.1-5.6c0-0.7,0-1.5,0-2.2V206c0-42,0-83.9,0-125.9c0-0.8-0.3-1.6-0.8-2.2
				c-0.4-0.4-1-0.9-2.1-0.9h-0.4l-0.3-0.3c-0.1-0.1-0.4-0.1-0.9-0.1c-0.1,0-0.3,0-0.4,0c-10.3,0-20.6,0-30.9,0l-21,0
				c-0.4,0-0.7,0-0.9,0.1l-0.2,0.1l-0.6,0c-0.3,0-0.7,0-1,0L8,76.8c-2,0-3,1.6-3,2.7c-0.1,3.4-0.1,6.7-0.2,10.1
				c-0.1,7.4-0.1,14.9-0.1,22.2c0,2.6,0,5.1,0,7.7l0,15c0,32.6,0,65.2,0,97.8c0,1.2,0,2.3,0,3.5c0,3.2-0.1,6.5,0.2,9.7
				c0.1,0.9,0.6,1.7,1.4,2c1.3,0.5,2.8,0.5,4.3,0.5C10.8,248,11,248,11.2,248z"/>
			<path class="st5" d="M123.7,38.2c-35.5,0-71.1,0-106.6,0c-5.3,0-9.6-1.8-12.9-5.4c-2.3-2.5-3.7-5.6-4.1-9.1
				c-0.6-5.5,1.5-10.3,6-14.1c2.2-1.9,4.9-3,8-3.3c3.1-0.3,6.2-0.3,9.3-0.2c1.1,0,2.2,0,3.3,0c25.8,0,51.7,0,77.5,0l47.4,0
				c28.6,0,57.3,0,85.9,0c0,0,0,0,0,0c5,0,9,1.4,12.2,4.2c2.7,2.4,4.4,5.5,5.1,9.1c1.1,6.1-1.7,12.5-7,16c-2.8,1.8-6.1,2.8-9.6,2.8
				C200,38.2,161.9,38.2,123.7,38.2z M20.2,8.5c-1.9,0-3.9,0.1-5.8,0.3C11.8,9,9.5,9.9,7.6,11.5c-4,3.3-5.7,7.3-5.2,12.1
				c0.3,3,1.4,5.6,3.5,7.7c2.9,3.1,6.7,4.6,11.2,4.6c73.7,0,147.4,0,221.1,0c3.1,0,5.9-0.8,8.3-2.4c4.4-2.9,6.9-8.5,5.9-13.6
				c-0.6-3.1-2-5.7-4.3-7.8c-2.7-2.4-6.2-3.6-10.6-3.6c0,0,0,0,0,0c-28.6,0-57.3,0-85.9,0l-47.4,0c-25.8,0-51.7,0-77.5,0
				c-1.1,0-2.2,0-3.3,0C22.3,8.5,21.3,8.5,20.2,8.5z"/>
			<path class="st5" d="M195.9,77.1c-0.4,0-1-0.1-1.5-0.6l-0.3-0.3l0-0.4c0-1,0-2-0.1-2.9c0-2.3-0.1-4.8-0.1-7.2l0-0.7
				c0-1.3,0-2.7,0.1-4.1c0.1-2.3,2.4-4.3,4.9-4.3c2.1,0,4.2,0,6.3,0l41,0c3.4,0,5.5,2.1,5.5,5.5c0,3.2,0,6.4,0,9.6l0,5.4l-5,0
				c-16.7,0-33.5,0-50.2,0l-0.2,0C196.2,77.1,196,77.1,195.9,77.1z M196.4,74.7c16.7,0,33.5,0,50.2,0h2.7v-3c0-3.2,0-6.4,0-9.6
				c0-2.2-1-3.2-3.1-3.2l-41,0c-2.1,0-4.2,0-6.3,0c-1.3,0-2.5,1-2.5,2.1c-0.1,1.3-0.1,2.7-0.1,4l0,0.7c0,2.3,0,4.7,0.1,7.1
				C196.4,73.4,196.4,74,196.4,74.7z"/>
		</g>
	</g>
</g>
<g id="Layer_2">
</g>
</svg>
