<?xml version="1.0" encoding="utf-8"?>
<!-- Generator: Adobe Illustrator 23.0.0, SVG Export Plug-In . SVG Version: 6.00 Build 0)  -->
<svg version="1.1" id="Layer_1" xmlns="http://www.w3.org/2000/svg" xmlns:xlink="http://www.w3.org/1999/xlink" x="0px" y="0px"
	 viewBox="0 0 256 256" style="enable-background:new 0 0 256 256;" xml:space="preserve">
<style type="text/css">
	.st0{display:none;}
	.st1{display:inline;}
	.st2{fill:#D1C2E2;}
	.st3{fill:#9888BF;}
	.st4{fill:#FEFEFE;}
	.st5{fill:#885F7C;}
	.st6{fill:#B895E2;}
	.st7{fill:#6F64A5;}
	.st8{fill:#4C2C69;}
	.st9{fill:#4C2C68;}
	.st10{fill:#B896E2;}
	.st11{fill:#9988BF;}
	.st12{fill:#886DC0;}
	.st13{fill:#876DC0;}
	.st14{fill:#6F63A5;}
	.st15{fill:#AEE085;}
	.st16{fill:#AEE084;}
	.st17{fill:#FDFCFB;}
	.st18{fill:#9F3FAD;}
	.st19{fill:#9E3FAC;}
	.st20{fill:#9F3FAC;}
	.st21{fill:#4B2D6B;}
	.st22{fill:#4D2C6C;}
	.st23{fill:#4B2D6A;}
	.st24{fill:#998AC0;}
	.st25{fill:#4D2C69;}
</style>
<g class="st0">
	<g class="st1">
		<path class="st2" d="M60,0h136c33.1,0,60,26.9,60,60v136c0,33.1-26.9,60-60,60H60c-33.1,0-60-26.9-60-60V60C0,26.9,26.9,0,60,0z"
			/>
	</g>
</g>
<g>
	<path class="st3" d="M221.5,88.8c1.9,0,3.1,1.6,3.1,3.3c0,38.4,0,76.8,0,115.2c0,2,0.1,4,0,6c-0.1,1.5-0.1,3.1-0.2,4.6
		c-0.1,1.7-1.4,2.8-3.3,2.8c-5.4,0-10.8,0-16.3,0c-50.8,0-101.6,0-152.4,0c-4,0-8,0.1-12-0.1c-1.6-0.1-3.3,0.2-4.8-0.5
		c-0.9-0.4-1.5-1.3-1.6-2.2c-0.3-3.4-0.1-6.7-0.1-10.1c0-28.6,0-57.2,0-85.8c0-7.6-0.1-15.2,0-22.7c0-2.5,0.1-5.1,0.1-7.7
		c0-1.3,1.2-2.9,3.2-2.9c0.2,0,0.4,0,0.7,0c46.9,0,93.7,0,140.6,0c0.4,0,0.7,0,1.1,0c0.3-0.1,0.7-0.1,1-0.1c13.1,0,26.3,0,39.4,0
		C220.5,88.5,221,88.4,221.5,88.8z"/>
	<path class="st4" d="M128.1,36.7c27.8,0,55.7,0,83.5,0c3.3,0,6.2,0.8,8.7,3c1.9,1.7,3.1,3.9,3.6,6.4c0.8,4.3-1.2,8.9-4.9,11.3
		c-2.1,1.4-4.4,2-6.8,2c-56,0-112,0-168,0c-3.5,0-6.7-1.1-9.2-3.8c-1.7-1.8-2.6-3.9-2.9-6.4c-0.4-4.1,1.2-7.4,4.3-10
		c1.6-1.3,3.5-2.1,5.6-2.3c3.1-0.3,6.3-0.1,9.4-0.1C76.9,36.7,102.5,36.7,128.1,36.7z"/>
	<path class="st5" d="M221.5,88.8c-13.7,0-27.4,0-41.1,0c-0.3,0-0.6,0.1-0.9-0.2c0-2.5-0.1-5.1-0.1-7.6c0-1.2,0-2.4,0.1-3.6
		c0.1-1.3,1.4-2.4,2.8-2.4c2.4,0,4.7,0,7.1,0c9.6,0,19.2,0,28.8,0c2.1,0,3.3,1.2,3.3,3.3C221.5,81.8,221.5,85.3,221.5,88.8z"/>
	<path class="st6" d="M57.9,72.3c-0.1-1.7,1.2-3.4,3.4-3.4c1.8,0,3.4,1.7,3.3,3.5c-0.1,1.7-1.3,3.1-3.3,3.2
		C59.4,75.8,57.6,73.9,57.9,72.3z"/>
	<path class="st3" d="M49,75.9c-1.9,0-3.1-1.2-3.1-3.1c0-1.9,1.2-3.1,3.2-3.1c1.8-0.1,3.1,1.2,3.2,3.3C52.3,74.4,50.9,76.1,49,75.9z
		"/>
	<path class="st7" d="M36.8,75.9c-1.8,0-3.1-1.4-3.1-3.2c0-1.7,1.4-3.1,3.1-3.1c1.8,0,3.2,1.4,3.1,3.1C40,74.5,38.6,75.9,36.8,75.9z
		"/>
	<path class="st8" d="M135.7,162.6c0,12.4,0,24.9,0,37.3c0,0.5,0.1,1-0.3,1.5c-0.3,0.4-0.6,0.7-1.2,0.7c-0.3,0-0.5,0-0.8,0
		c-20.6,0-41.3,0-61.9,0c-1.1,0-1.5-0.4-1.5-1.6c0-2.5,0-4.9,0-7.4c0-0.6-0.2-0.8-0.8-0.8c-2.9,0-5.8,0-8.8,0
		c-1.1,0-1.4-0.3-1.4-1.5c0-2.4,0-4.7,0-7.1c0-0.6-0.2-0.8-0.8-0.8c-2.9,0-5.8,0-8.7,0c-1.3,0-1.7-0.4-1.7-1.7c0-2.4,0-4.7,0-7.1
		c0-16,0-32,0-48c0-0.9,0.3-1.5,0.9-2.1c3.6-3.5,7.2-6.9,10.8-10.4c3.1-3,6.2-6,9.2-9c0.5-0.5,1.1-0.6,1.7-0.6c13.8,0,27.6,0,41.4,0
		c1.3,0,1.7,0.4,1.7,1.7c0,2.3,0,4.6,0,6.9c0,0.6,0.2,0.8,0.8,0.8c2.9,0,5.8,0,8.7,0c1.2,0,1.6,0.5,1.6,1.6c0,2.4,0,4.9,0,7.3
		c0,0.6,0.2,0.8,0.8,0.8c2.8,0,5.7,0,8.5,0c1.3,0,1.7,0.4,1.7,1.6C135.7,137.5,135.7,150.1,135.7,162.6
		C135.7,162.6,135.7,162.6,135.7,162.6z"/>
	<path class="st9" d="M209.4,163c0,12.5,0,25,0,37.5c0,1.6-0.4,1.9-1.9,1.9c-20.8,0-41.6,0-62.4,0c-1.1,0-1.4-0.3-1.4-1.4
		c0-0.4,0-0.8,0-1.2c0-18,0-36.1,0-54.1c0-0.8,0.2-1.4,0.8-2c3.8-3.6,7.5-7.3,11.2-10.9c2.9-2.8,5.7-5.5,8.6-8.3
		c0.5-0.5,1.1-0.8,1.9-0.8c13.6,0,27.2,0,40.8,0c0.4,0,0.9,0,1.3,0c0.8,0.1,1.2,0.7,1.1,1.5c0,3.5,0,7.1,0,10.6
		C209.4,144.9,209.4,154,209.4,163z"/>
	<path class="st10" d="M133.5,51.6c-5.5,0-11,0-16.4,0c-2.3,0-3.8-2.1-2.8-4.2c0.6-1.3,1.8-1.7,3.2-1.7c5.6,0,11.3,0,16.9,0
		c5.1,0,10.2,0,15.2,0c1.9,0,3.3,1.2,3.3,3c0,1.7-1.2,2.9-3,2.9C144.4,51.6,139,51.6,133.5,51.6z"/>
	<path class="st10" d="M51.5,51.7c-3.4,0-6.8,0-10.2,0c-2.1,0-3.5-1.9-2.8-3.9c0.5-1.4,1.8-1.9,3.1-1.9c6.4,0,12.9,0,19.3,0
		c1.3,0,2.7,0.1,3.4,1.5c0.5,0.9,0.6,1.9,0.1,2.8c-0.5,1-1.4,1.6-2.5,1.6C58.5,51.7,55,51.7,51.5,51.7z"/>
	<path class="st11" d="M195.6,44.6c-0.1-2.6,2.4-5.8,6.3-5.8c4.7,0.1,7.2,4.6,5.9,8.4c-0.2,0.6-0.1,1,0.5,1c1.2,0.1,1.9,1,2.8,1.5
		c1.2,0.8,2.4,1.7,3.6,2.5c0.9,0.6,1.2,1.6,0.7,2.5c-0.5,0.9-1.4,1.1-2.4,0.5c-2-1.3-3.9-2.6-5.8-4.1c-0.1-0.1-0.2-0.2-0.3-0.4
		c-0.6-1-0.6-1-1.6-0.4c-2.1,1.2-4.2,1.4-6.3,0.3C196.8,49.5,195.7,47.7,195.6,44.6z"/>
	<path class="st6" d="M94,51.4c-2.4,0-4.9,0-7.3,0c-1.8,0-2.9-1.1-2.9-2.8c0-1.8,1.1-3,2.9-3c4.9,0,9.9,0,14.8,0c1.6,0,3,1.3,3,2.8
		c0,1.7-1.3,3-3.1,3C99,51.4,96.5,51.4,94,51.4C94,51.4,94,51.4,94,51.4z"/>
	<path class="st10" d="M79.2,51.6c-2,0-3.2-1.1-3.2-2.9c0-1.7,1.4-3,3.2-3c1.7,0,3.1,1.3,3.1,3C82.3,50.4,81.1,51.6,79.2,51.6z"/>
	<path class="st10" d="M109,51.6c-2,0-3.2-1.1-3.2-2.9c0-1.7,1.2-2.9,3.1-2.9c1.9,0,3.2,1.1,3.2,2.9C112.1,50.4,110.9,51.6,109,51.6
		z"/>
	<path class="st10" d="M73.2,49c0,1.6-1.3,2.9-3,2.9c-1.8,0-3.1-1.3-3.1-3c0-1.6,1.3-2.9,3-2.9C71.9,46,73.2,47.3,73.2,49z"/>
	<path class="st6" d="M133.2,162.7c0,11.9,0,23.9,0,35.8c0,0.8-0.2,1-1,1c-19.5,0-39,0-58.5,0c-1.2,0-1.2,0-1.2-1.2
		c0-17.1,0-34.3,0-51.4c0-0.9,0.2-1.1,1.1-1.1c5.7,0,11.5,0,17.2,0c1.7,0,2.1-0.5,2.1-2.2c0-5.7,0-11.3,0-17c0-0.8,0.2-0.9,0.9-0.9
		c12.8,0,25.6,0,38.4,0c0.8,0,1,0.3,1,1C133.2,138.8,133.2,150.7,133.2,162.7z"/>
	<path class="st12" d="M78.1,136.2c-1.4,1.7-3.1,3-4.5,4.4c-0.8,0.8-1.6,1.6-2.4,2.3c-0.8,0.7-1.1,1.6-1.1,2.7c0,6.9,0,13.8,0,20.7
		c0,7.5,0,15,0,22.5c0,0.8-0.2,1-1,1c-2-0.1-4,0-6,0c-1.5,0-1.5,0-1.5-1.5c0-7.3,0-14.6,0-21.9c0-9.7,0-19.4,0-29.1
		c0-1.1,0-1.1,1.1-1.1c4.7,0,9.4,0,14.1,0C77.1,136.2,77.5,136.2,78.1,136.2z"/>
	<path class="st7" d="M58.1,126.9c2.1,0,4.2,0,6.2,0c0.5,0,1-0.1,1.5-0.1c0.2,0,0.4,0,0.5,0.2c0.1,0.2-0.1,0.4-0.2,0.5
		c-2.1,2-4.1,4-6.2,5.9c-0.6,0.5-0.9,1.1-0.9,1.9c0,14.7,0,29.4,0,44c0,1.1,0,1.1-1.1,1.1c-2.1,0-4.2,0-6.3,0c-1,0-1.2-0.1-1.1-1.2
		c0.3-17.2,0-34.4,0.1-51.6c0-0.7,0.2-0.9,0.9-0.8C53.7,126.9,55.9,126.9,58.1,126.9z"/>
	<path class="st13" d="M82,132.2c-0.3-0.8-0.1-1.5-0.1-2.2c0-3.9,0-7.9,0-11.8c0-2.1,0-2.1,2.1-2.1c12.3,0,24.7,0,37,0
		c0.8,0,1.1,0.2,1.1,1.1c-0.1,1.7-0.1,3.5,0,5.2c0,0.8-0.2,1-1,1c-8.4,0-16.8,0-25.3,0c-1.2,0-2.4,0-3.6,0c-0.6,0-1.1,0.2-1.5,0.6
		c-2.6,2.5-5.1,5-7.7,7.5C82.7,131.8,82.4,132.1,82,132.2z"/>
	<path class="st14" d="M70.8,122.8c0-0.5,0-0.7,0-0.9c0-4.8,0-9.5,0-14.3c0-0.7,0.2-0.9,0.9-0.9c12.9,0,25.7,0,38.6,0
		c0.6,0,0.9,0.2,0.9,0.8c0,1.7,0,3.4,0,5.1c0,0.7-0.2,0.9-0.9,0.9c-9.5,0-19,0-28.5,0c-1,0-1.6,0.3-2.3,0.9
		C76.6,117.2,73.8,119.9,70.8,122.8z"/>
	<path class="st15" d="M90.4,127.8c0,5.2,0,10.1,0,15c0,0.4-0.1,0.6-0.5,0.6c-5.1,0-10.1,0-15.2,0c0,0,0,0-0.2-0.2
		C79.8,138.1,85,133,90.4,127.8z"/>
	<path class="st16" d="M63.5,133.5c5.3-5.1,10.5-10.2,15.7-15.2c0.4,0.2,0.2,0.5,0.2,0.7c0,4.6,0,9.3,0,13.9c0,0.4,0.1,0.7-0.6,0.7
		c-4.9,0-9.9,0-14.8,0C63.8,133.6,63.7,133.6,63.5,133.5z"/>
	<path class="st15" d="M52.5,124.1c5.2-5.1,10.4-10.1,15.6-15.2c0.1,0,0.1,0.1,0.2,0.1c0,0.2,0,0.5,0,0.7c0,4.5,0,9,0,13.6
		c0,0.7-0.1,1-0.9,1c-4.7,0-9.4,0-14.2,0C53,124.2,52.8,124.3,52.5,124.1z"/>
	<path class="st6" d="M206.9,163.1c0,11.9,0,23.9,0,35.8c0,0.8-0.2,1.1-1.1,1.1c-19.2,0-38.5,0-57.7,0c-1.8,0-1.8,0-1.8-1.8
		c0-16.9,0-33.9,0-50.8c0-1.1,0-1.1,1.1-1.1c5.7,0,11.5,0,17.2,0c1.6,0,2-0.4,2-2c0-5.8,0-11.5,0-17.3c0-0.7,0.2-0.8,0.8-0.8
		c12.9,0,25.7,0,38.6,0c0.8,0,0.9,0.2,0.9,1C206.9,139.2,206.9,151.1,206.9,163.1z"/>
	<path class="st15" d="M164,128.3c0,0.5,0,0.7,0,0.9c0,4.6,0,9.2,0,13.8c0,0.5,0,0.8-0.6,0.8c-5,0-10,0-15.3,0
		C153.4,138.6,158.7,133.5,164,128.3z"/>
	<path class="st17" d="M205.7,45.1c0,2.2-1.6,3.9-3.8,3.8c-2.1,0-3.7-1.5-3.8-3.8c-0.1-2.1,1.7-3.8,3.8-3.9
		C204,41.3,205.7,43,205.7,45.1z"/>
	<path class="st18" d="M102.5,155.6c-6.6,0-13.1,0-19.7,0c-1,0-1.4-0.3-1.4-1.2c0-0.7,0.3-1.2,1.1-1.2c0.4,0,0.8,0,1.2,0
		c12.8,0,25.6,0,38.4,0c1.2,0,1.7,0.3,1.6,1.3c0,0.7-0.4,1.1-1.1,1.1c-0.9,0-1.7,0-2.6,0C114.2,155.6,108.4,155.6,102.5,155.6z"/>
	<path class="st19" d="M102.6,166.5c-6.5,0-13,0-19.5,0c-1.2,0-1.7-0.4-1.7-1.4c0-0.6,0.3-0.9,0.9-1c0.2,0,0.3,0,0.5,0
		c13.1,0,26.3,0,39.4,0c0.7,0,1.3,0.1,1.4,0.8c0.2,0.8-0.3,1.4-1.1,1.5c-0.5,0-1,0-1.5,0C114.9,166.5,108.7,166.5,102.6,166.5z"/>
	<path class="st20" d="M102.5,177.3c-6.6,0-13.1,0-19.7,0c-0.7,0-1.2-0.1-1.4-0.9c-0.1-0.8,0.3-1.3,1-1.4c0.2,0,0.4,0,0.7,0
		c13,0,26.1,0,39.1,0c0.5,0,1,0,1.3,0.5c0.5,0.8,0.1,1.7-0.8,1.8c-0.3,0-0.6,0-0.8,0C115.5,177.3,109,177.3,102.5,177.3z"/>
	<path class="st21" d="M177.3,156c-6.5,0-13,0-19.5,0c-0.5,0-0.9,0-1.3-0.4c-0.6-0.6-0.3-1.6,0.5-1.9c0.4-0.1,0.7-0.1,1.1-0.1
		c12.9,0,25.8,0,38.7,0c1.3,0,1.9,0.4,1.9,1.2c0,0.8-0.6,1.3-1.9,1.3C190.2,156,183.8,156,177.3,156z"/>
	<path class="st22" d="M177.3,164.5c6.5,0,13.1,0,19.6,0c0.4,0,0.8,0,1.2,0.3c0.7,0.6,0.6,1.6-0.3,2c-0.4,0.2-0.8,0.2-1.2,0.2
		c-12.9,0-25.8,0-38.7,0c-0.3,0-0.5,0-0.8,0c-0.7-0.1-1.2-0.7-1.2-1.3c0-0.7,0.6-1.1,1.3-1.1c2,0,4,0,6.1,0
		C168.1,164.5,172.7,164.5,177.3,164.5z"/>
	<path class="st23" d="M177.4,175.4c6.6,0,13.1,0,19.7,0c1,0,1.5,0.4,1.4,1.2c0,0.6-0.4,1-1,1.1c-0.2,0-0.5,0-0.8,0
		c-12.9,0-25.9,0-38.8,0c-0.3,0-0.6,0-0.9-0.1c-0.6-0.2-0.9-0.6-0.9-1.2c0-0.6,0.4-1,1.1-1.1c0.3,0,0.6,0,0.8,0
		C164.5,175.4,171,175.4,177.4,175.4z"/>
	<path class="st24" d="M200.5,44.7c0.8,0.2,1-0.2,0.9-1.1c0-0.3-0.1-0.8,0.5-0.8c0.5,0,0.5,0.4,0.4,0.8c-0.1,0.9,0.2,1.2,1.1,1.1
		c0.4,0,0.9-0.1,0.9,0.5c0,0.6-0.6,0.6-0.9,0.5c-0.9-0.1-1.2,0.2-1.1,1.1c0,0.3,0,0.7-0.4,0.8c-0.5,0-0.5-0.4-0.4-0.7
		c0.1-0.9-0.2-1.2-1.1-1.1c-0.2,0-0.3,0-0.5,0c-0.3,0-0.6-0.1-0.6-0.5c0-0.4,0.3-0.5,0.6-0.5C200,44.7,200.2,44.7,200.5,44.7z"/>
	<g>
		<path class="st25" d="M45.6,221.2c-1.9,0-3.7,0-5.6-0.1c-0.4,0-0.8,0-1.2,0c-1.3,0-2.6,0-4-0.5c-1.2-0.5-2.1-1.7-2.2-3
			c-0.2-2.5-0.2-5.1-0.1-7.5c0-0.9,0-1.7,0-2.6c0-24.8,0-49.6,0-74.3l0-11.4c0-1.9,0-3.9,0-5.8c0-5.5,0-11.3,0.1-16.9
			c0-2.6,0.1-5.1,0.1-7.7c0-1.8,1.6-3.8,4.1-3.8c0.2,0,0.3,0,0.5,0l0.2,0h140.6c0.2,0,0.5,0,0.7,0l0.2,0c0.4-0.1,0.8-0.1,1.1-0.1
			l16.1,0c7.8,0,15.6,0,23.5,0l0.3,0c0.4,0,1,0,1.6,0.3c1,0.1,1.9,0.5,2.6,1.3c0.7,0.8,1.1,1.8,1.1,2.8c0,31.9,0,63.8,0,95.7v19.5
			c0,0.6,0,1.1,0,1.7c0,1.4,0,2.9-0.1,4.3c0,0.8-0.1,1.6-0.1,2.4c0,0.7,0,1.5-0.1,2.2c-0.1,2.2-1.8,3.6-4.2,3.6
			c-5.4,0-10.8,0-16.3,0l-152.4,0c-1.1,0-2.2,0-3.3,0C47.8,221.2,46.7,221.2,45.6,221.2z M39.4,219.3c0.2,0,0.5,0,0.7,0
			c2.9,0.1,5.9,0.1,8.7,0.1c1.1,0,2.2,0,3.3,0l38.1,0l114.3,0c5.4,0,10.8,0,16.3,0c1.4,0,2.3-0.7,2.4-1.9c0-0.7,0.1-1.4,0.1-2.2
			c0-0.8,0-1.6,0.1-2.5c0.1-1.4,0.1-2.8,0.1-4.2c0-0.6,0-1.1,0-1.7v-19.5c0-31.9,0-63.8,0-95.7c0-0.6-0.2-1.2-0.6-1.7
			c-0.3-0.3-0.8-0.7-1.6-0.7h-0.3l-0.2-0.2c-0.1-0.1-0.3-0.1-0.7-0.1c-0.1,0-0.2,0-0.3,0c-7.8,0-15.6,0-23.5,0l-16,0
			c-0.3,0-0.5,0-0.7,0.1l-0.1,0.1l-0.5,0c-0.3,0-0.5,0-0.8,0l-141.3,0c-1.5,0-2.3,1.2-2.3,2.1c-0.1,2.5-0.1,5.1-0.1,7.6
			c-0.1,5.6-0.1,11.4-0.1,16.9c0,1.9,0,3.9,0,5.8l0,11.4c0,24.8,0,49.6,0,74.3c0,0.9,0,1.8,0,2.6c0,2.4-0.1,4.9,0.1,7.4
			c0.1,0.7,0.5,1.3,1.1,1.5c1,0.4,2.1,0.4,3.3,0.4C39,219.3,39.2,219.3,39.4,219.3z"/>
		<path class="st25" d="M124.9,59.8c-27,0-54,0-81,0c-4,0-7.3-1.4-9.8-4.1c-1.8-1.9-2.8-4.2-3.1-6.9c-0.4-4.2,1.1-7.8,4.6-10.7
			c1.7-1.4,3.7-2.2,6.1-2.5c2.4-0.2,4.7-0.2,7-0.2c0.8,0,1.6,0,2.5,0c19.6,0,39.3,0,58.9,0l36,0c21.8,0,43.5,0,65.3,0c0,0,0,0,0,0
			c3.8,0,6.8,1,9.2,3.2c2.1,1.8,3.4,4.2,3.9,6.9c0.9,4.6-1.3,9.5-5.3,12.2c-2.1,1.4-4.6,2.1-7.3,2.1
			C182.9,59.8,153.8,59.8,124.9,59.8z M46.2,37.2c-1.5,0-3,0-4.4,0.2c-2,0.2-3.7,0.9-5.1,2.1c-3,2.5-4.3,5.5-4,9.2
			c0.2,2.3,1.1,4.2,2.6,5.9c2.2,2.3,5.1,3.5,8.5,3.5c56,0,112,0,168,0c2.4,0,4.4-0.6,6.3-1.8c3.4-2.2,5.2-6.5,4.5-10.3
			c-0.4-2.3-1.5-4.3-3.3-5.9c-2.1-1.8-4.7-2.7-8-2.7c0,0,0,0,0,0c-21.8,0-43.5,0-65.3,0l-36.1,0c-19.6,0-39.3,0-58.9,0
			c-0.8,0-1.7,0-2.5,0C47.8,37.2,47,37.2,46.2,37.2z"/>
		<path class="st25" d="M179.7,89.4c-0.3,0-0.8-0.1-1.1-0.5l-0.2-0.2l0-0.3c0-0.7,0-1.5,0-2.2c0-1.8-0.1-3.6,0-5.4l0-0.5
			c0-1,0-2.1,0.1-3.1c0.1-1.7,1.8-3.2,3.7-3.2c1.6,0,3.2,0,4.8,0l31.1,0c2.6,0,4.1,1.6,4.2,4.2c0,2.4,0,4.9,0,7.3l0,4.1l-3.8,0
			c-12.7,0-25.4,0-38.2,0l-0.1,0C179.9,89.3,179.8,89.4,179.7,89.4z M180.1,87.5c12.7,0,25.4,0,38.2,0h2v-2.3c0-2.4,0-4.9,0-7.3
			c0-1.6-0.8-2.4-2.4-2.4l-31.1,0c-1.6,0-3.2,0-4.8,0c-1,0-1.9,0.8-1.9,1.6c-0.1,1-0.1,2.1-0.1,3.1l0,0.5c0,1.8,0,3.6,0,5.4
			C180.1,86.5,180.1,87,180.1,87.5z"/>
	</g>
</g>
</svg>
