<?xml version="1.0" encoding="utf-8"?>
<!-- Generator: Adobe Illustrator 23.0.0, SVG Export Plug-In . SVG Version: 6.00 Build 0)  -->
<svg version="1.1" xmlns="http://www.w3.org/2000/svg" xmlns:xlink="http://www.w3.org/1999/xlink" x="0px" y="0px"
	 viewBox="0 0 256 256" style="enable-background:new 0 0 256 256;" xml:space="preserve">
<style type="text/css">
	.st0{fill:#944B9C;}
	.st1{fill:#B395C5;}
	.st2{fill:#B7434F;}
	.st3{fill:#B1D684;}
	.st4{fill:#E59BC3;}
	.st5{fill:#98499B;}
	.st6{fill:#EAA0C5;}
	.st7{fill:#96489A;}
	.st8{fill:#C27BB3;}
	.st9{fill:#4B2C6B;}
	.st10{fill:#4C2C67;}
</style>
<g id="Layer_1">
	<g>
		<g>
			<g>
				<g>
					<path class="st0" d="M108.6,123.7c1.5,0,3.1,0,4.6,0c2.9,0,5.7,0,8.7,0c1.3,0,2.2,0.4,2.8,1.7c0.8,1.8,2.2,3.2,3.7,4.3
						c0.3,0.3,0.5,0.5,0.8,0.1c0.3,0.1,0.4,0.3,0.6,0.4c0,0.3,0.1,0.4,0.4,0.5c1.7,0.9,3.2,1.5,5.1,1.5c2.2,0,3.4,0.8,3.3,3.4
						c0,1.4,0,2.8,0,4.3c0,1.7,0,3.3,0,5c0,0.5,0,0.9,0.5,1.1c-0.9,1.4-0.5,2.9-0.3,4.5c-0.4,1.9-0.4,4,0,5.9
						c-0.4,1.4-0.4,2.9,0,4.3c-0.3,0.4-0.3,0.8-0.3,1.1c0,1.4,0,2.9,0,4.3c0,1.5,0,2.9,0,4.5c0,2,0,4.1,0,6.1c0.1,1.5,0,2.9-0.9,4.2
						c-0.6,1.5-1.4,2.9-2.3,4.3c-0.6,0.8-1.3,1.5-1.8,2.4c-0.4,0.6-1.3,1-1.3,2c-0.5,0.1-0.8,0.4-1.1,0.8c-1.5,2-3.6,3.4-5.5,5.1
						c-2.7,2.2-5.7,3.7-8.7,5.5c-1.3,0.9-2.7,1.5-3.8,2.7c-0.6,0-1.1,0.4-1.7,0.8c-0.9,0.6-1.9,0.9-3.1,0.9
						c-2.8-1.8-5.6-3.6-8.6-5.2c-3.7-2.2-7.4-4.5-10.6-7.5c-2.3-2.3-4.2-4.7-6.1-7.4c-0.6-0.9-0.8-2.2-1.9-2.8c0.1-0.5,0-1-0.3-1.5
						c-0.6-1.1-0.9-2.3-0.8-3.6c0-2.3,0-4.5,0-6.8c0-1.1,0-2.3,0-3.4c0-4.1,0-8.2,0-12.3c0.1-1.1,0.3-2.3,0-3.4c0-0.4,0-0.8,0-1.1
						c0-5,0-10,0-15.1c0-1.7,0.6-2.4,2.3-2.8c0.9-0.3,1.9,0,2.8-0.3c4-1.3,7-3.6,8.8-7.4c0.3-0.5,0.8-0.9,1.3-1
						c1-0.3,2.2-0.1,3.2-0.3c1.1,0.3,2.4,0,3.6,0C104.6,123.7,106.5,123.7,108.6,123.7z M135,136c-0.5,0-1-0.1-1.5-0.1
						c-4.9-0.9-8.7-3.6-11.2-7.7c-0.4-0.5-0.8-0.8-1.4-0.8c-7.5,0-15.1,0-22.7,0c-0.6,0-1.1,0.3-1.5,0.8c-2.7,4.2-6.5,6.9-11.5,7.7
						c-0.9,0.1-1.3,0.5-1.3,1.4c0,13.5,0,26.9,0,40.5c0,0.4,0,0.9,0.3,1.3c2,5.1,5.4,9.2,9.4,12.8c4.7,4,10.2,6.6,15.3,10
						c0.5,0.3,0.8,0.1,1.1-0.1c3.3-2,6.6-4.1,10.1-6.1c2.3-1.3,4.3-2.9,6.3-4.7c3.7-3.3,6.5-7.4,8.6-12c0.6-0.4,0.3-0.9,0.4-1.4
						c0-13,0-26,0-39.1c0-0.6-0.1-1.1,0.3-1.8C135.7,136.2,135.5,136,135,136z"/>
					<path class="st1" d="M129.1,129.8c-0.3,0.4-0.5,0.1-0.8-0.1c-1.4-1.3-2.8-2.7-3.7-4.3c-0.6-1.3-1.5-1.7-2.8-1.7
						c-2.9,0-5.7,0-8.7,0c0-7.4,0-14.7,0-22.1c0-1.5,0-1.5,1.4-1.5c28.9,0,57.7,0,86.6,0c0.4,0,0.9,0,1.3-0.1c1.7-0.4,2.2-1.9,1-3.2
						c-3.1-3.2-4-7-3.2-11.2c0.6-3.4,2.6-6.3,5.7-8.2c0,12.4,0,24.8,0,37.1c0.1,0,0.1,0.1,0.3,0.1c2.6-3.6,4.5-7.7,6.9-11.5
						c2.3,4,4.3,7.9,7,11.7c0.3-0.9,0.3-1.4,0.3-2c0-4.6,0-9.1,0-13.7c0-7.1,0-14.3,0-21.4c3.3,2.4,5.1,5.7,5.1,10
						c0,36.6,0,73.3,0,110c0,0.4,0,0.6,0,1c0,1.9,0,1.9-1.8,1.9c-28.7,0-57.4,0-86.2,0c-0.4,0-0.6,0-1,0.1c-1.8,0.4-2.3,1.9-1.1,3.2
						c2.3,2.4,3.4,5.4,3.3,8.7c0,5.5-3.3,10.1-8.6,12c-6,2.3-13-0.6-15.8-6.4c-0.8-1.7-1.3-3.3-1.3-5.1c0.1-3.1,0-6.1,0-9.2
						c1.1-1,2.6-1.8,3.8-2.7c2.8-1.8,6-3.3,8.7-5.5c1.9-1.5,4-3.1,5.5-5.1c0.3-0.4,0.6-0.6,1.1-0.8c11,0,22,0,32.9,0
						c1,0,2.4,0.5,3.1-0.3c0.6-0.6,0.1-2,0.3-3.1c0.1-0.9-0.3-1-1-1c-3.7,0-7.3,0-11,0c-7.1,0-14.2,0-21.3,0
						c0.9-1.4,1.7-2.8,2.3-4.3c22.1,0,44.2,0,66.3,0c0.5,0,0.9,0,1.4-0.1c1-0.3,1.8-1.1,1.7-2.2c0-1-0.8-1.8-1.8-1.9
						c-0.4,0-0.6,0-1,0c-21.8,0-43.7,0-65.6,0c0-2,0-4.1,0-6.1c2.6,0,2.6,0,2.6-1.9c0-2.6,0-2.6-2.6-2.6c0-1.4,0-2.9,0-4.3
						c0-0.4,0-0.9,0.3-1.1c22.1,0,44.2,0,66.3,0c0.3,0,0.5,0,0.6,0c1-0.1,1.9-0.9,1.9-1.9c0.1-1.1-0.4-1.9-1.5-2.3
						c-0.5-0.1-1.1-0.1-1.7-0.1c-20.9,0-42,0-62.9,0c-0.9,0-1.8,0-2.8,0c-0.4-1.9-0.4-4,0-5.9c6.8,0,13.5,0,20.3,0
						c3.1,0,2.9,0,3.1-3.1c0-1.1-0.4-1.4-1.4-1.4c-7.3,0-14.6,0-21.7,0c-0.4-0.3-0.5-0.8-0.5-1.1c0-1.7,0-3.3,0-5
						c21.3,0,42.6,0,64,0c1,0,1.9,0,2.9,0c1.4,0,2.3-0.9,2.3-2c0-1.3-0.9-2-2.3-2.2c-1,0-1.9,0-2.9,0c-21.3,0-42.6,0-64,0
						c0-2.7-1.1-3.3-3.3-3.4c-1.8,0-3.4-0.8-5.1-1.5c-0.3-0.1-0.4-0.3-0.4-0.5c0.4,0.1,0.8,0.3,1.3,0.3c6.5,0,13,0,19.5,0
						c0.6,0,0.9-0.1,0.8-0.8c0-0.8,0-1.7,0-2.4c0.1-1-0.3-1.3-1.3-1.3c-6.3,0-12.5,0-18.9,0C128.9,126.3,128,127.8,129.1,129.8z
						 M168,121.2c12,0,24,0,36.1,0c0.3,0,0.6,0,0.9,0c1-0.1,1.9-0.9,1.9-1.9c0.1-1-0.6-2-1.7-2.3c-0.4-0.1-0.9-0.1-1.4-0.1
						c-24,0-48,0-72,0c-0.4,0-0.6,0-1,0c-1.1,0.3-1.8,1.1-1.8,2.3c0.1,1,0.9,1.8,1.9,1.9c0.4,0,0.6,0,1,0
						C144.2,121.2,156,121.2,168,121.2z M150,107.8c-5.6,0-11.4,0-17,0c-0.4,0-0.8,0-1,0c-1,0.3-1.8,0.8-1.9,1.9
						c-0.1,1,0.5,2,1.5,2.3c0.4,0.1,0.9,0.1,1.4,0.1c11.4,0,22.7,0,34,0c0.4,0,0.6,0,1,0c1.4-0.3,2.4-1.7,1.8-3.1
						c-0.5-1-1.4-1.4-2.4-1.4C161.7,107.8,155.8,107.8,150,107.8z M189.1,126.1L189.1,126.1c-4.6,0-9.2,0-13.8,0
						c-1,0-2.4-0.5-3.1,0.3s-0.1,2-0.3,3.1c-0.1,0.8,0.1,1,1,1c10.5,0,21.1,0,31.5,0c1.7,0,2.7-0.9,2.7-2.2c0-1.4-0.9-2.2-2.7-2.2
						C199.3,126.1,194.2,126.1,189.1,126.1z M145.5,198.4c5.1,0,10.2,0,15.3,0c1.8,0,2.8-1.1,2.4-2.7c-0.3-1-1.3-1.7-2.7-1.7
						c-3.1,0-6,0-9.1,0c-7,0-13.9,0-20.9,0c-1.8,0-2.8,0.9-2.7,2.3c0,1.4,1,2,2.7,2C135.5,198.4,140.5,198.4,145.5,198.4z
						 M189.1,185.6c-4.3,0-8.7,0-13,0c-1,0-2.3-0.4-2.9,0.3c-0.6,0.6-0.1,1.9-0.3,2.9c-0.1,1,0.4,1.3,1.3,1.3c9.8,0,19.5,0,29.4,0
						c0.6,0,1.3,0,1.8-0.4c1.3-0.6,1.5-2.3,0.5-3.3c-0.5-0.6-1.3-0.6-2-0.6C198.9,185.6,194.1,185.6,189.1,185.6z M193.4,166.5
						L193.4,166.5c-3.8,0-7.7,0-11.5,0c-0.8,0-1.1,0.1-1,1c0.1,0.8,0,1.7,0,2.4c0,0.8,0.1,1,0.9,1c7.7,0,15.2,0,22.9,0
						c1.5,0,2.6-0.9,2.6-2.3s-1-2.2-2.6-2.2C200.9,166.5,197.2,166.5,193.4,166.5z M177,150.8c3.2,0,6.3,0,9.4,0c0.8,0,1.1-0.1,1-1
						c-0.1-0.9,0-1.7,0-2.6c0-0.6-0.1-0.9-0.9-0.9c-6.5,0-12.9,0-19.4,0c-0.6,0-0.9,0.1-0.8,0.8c0,0.9,0,1.7,0,2.6
						c-0.1,0.9,0.3,1.1,1.1,1.1C170.7,150.8,173.9,150.8,177,150.8z M198.9,146.3c-1.3,0-2.4,0-3.7,0c-3.6,0-3.6,0-3.4,3.4
						c0,0.6,0.1,0.9,0.9,0.9c4,0,8,0,12,0c1.5,0,2.4-0.9,2.4-2.2c0-1.3-0.9-2.2-2.4-2.2C202.9,146.3,200.9,146.3,198.9,146.3z
						 M159.9,170.9c2,0,4.2,0,6.3,0c0.8,0,1.1-0.1,1-1c0-0.8,0-1.7,0-2.4c0-0.9-0.3-1-1-1c-3.4,0-6.8,0-10.2,0s-3.4,0-3.3,3.6
						c0,0.8,0.3,0.9,0.9,0.9C155.7,170.8,157.8,170.9,159.9,170.9z M161.7,130.6c1.7,0,3.4,0,5.1,0c0.6,0,1-0.1,0.9-0.9
						c0-0.9,0-1.8,0-2.7c0-0.8-0.3-0.9-0.9-0.9c-3.4,0-6.8,0-10.2,0c-0.6,0-1,0.1-0.9,0.9c0,0.9,0,1.8,0,2.7c0,0.8,0.3,0.9,0.9,0.9
						C158.2,130.6,160,130.6,161.7,130.6z M174,166.5c-0.3,0-0.6,0-0.9,0c-1.8,0-1.5-0.1-1.7,1.7c0,2.8,0,2.8,2.9,2.8c2,0,2,0,2-2
						C176.5,166.5,176.5,166.5,174,166.5z M145.3,168.5c0,0.4,0,0.9,0,1.3c-0.1,0.8,0.1,1.1,1,1c2.6-0.1,2,0.3,2.2-2.2
						c0-0.5,0-1,0-1.7c0-0.5-0.1-0.6-0.6-0.8C145.3,166.2,145.3,166.2,145.3,168.5z"/>
					<path class="st1" d="M99,123.7c-1,0.1-2.2,0-3.2,0.3c-0.6,0.1-1,0.4-1.3,1c-1.8,3.8-4.9,6.1-8.8,7.4c-0.9,0.3-1.9,0.1-2.8,0.3
						c-1.7,0.4-2.3,1.1-2.3,2.8c0,5,0,10,0,15.1c0,0.4,0,0.8,0,1.1c-0.6,0.1-1.1,0.3-1.8,0.5c-5,1.7-10,3.2-14.9,4.9
						c-7.5,2.4-15.2,5-22.7,7.4c-1.1,0.4-1.7,1.1-1.4,2.2c0.4,1,1.3,1.4,2.4,1c6.4-2,12.9-4.2,19.3-6.3c6.4-2,12.8-4.1,19.1-6.1
						c0,4.1,0,8.2,0,12.3c-1.3,0.4-2.4,0.6-3.7,1c-8,2.6-16.2,5.2-24.3,7.9c-2.4,0.8-4.7,1.5-7.1,2.3c-1,0.4-1.4,1.1-1.1,2
						c0.3,1,1,1.3,1.9,1.1c0.5-0.1,1-0.3,1.5-0.4c2.4-0.8,4.7-1.5,7.1-2.3c6.3-2,12.5-4.1,18.8-6.1c2.3-0.8,4.5-1.7,6.8-2.2
						c0,2.3,0,4.5,0,6.8c0,1.3,0.1,2.4,0.8,3.6c0.3,0.5,0.5,1,0.3,1.5c-0.3,0.1-0.6,0.1-0.9,0.3c-10.1,3.3-20.3,6.5-30.4,9.8
						c-1.1,0.4-1.8,1.3-1.4,2.3s1.3,1.4,2.6,0.9c10.7-3.4,21.3-7,32-10.5c1.8,2.7,3.8,5.1,6.1,7.4c3.1,3.1,6.8,5.4,10.6,7.5
						c2.8,1.7,5.6,3.4,8.6,5.2c0.3,3.4,0.3,3.4-2.9,4.6c-9.6,3.1-19,6.3-28.6,9.3c-10,3.2-20,6.5-30,9.7c-0.9,0.3-1.3,0.1-1.5-0.8
						c-4.3-13.3-8.6-26.6-12.9-39.7c-3.1-9.3-6-18.6-9.1-28c-0.4-1.1,0.3-1.3,0.9-1.5c4.9-1.5,9.7-3.2,14.6-4.7
						c2.8-0.9,5.6-1.8,8.4-2.8c1.5-0.5,2-1.5,1.5-3.1c-2.4-7.7-5-15.2-7.4-22.9c-0.3-0.9-0.1-1.1,0.6-1.4c7.8-2.4,15.4-5,23.2-7.5
						c6.4-2,12.9-4.2,19.3-6.3c2.7-0.9,5.5-1.8,8.2-2.7c0.8-0.3,1,0,1.3,0.6C95.7,113.6,97.3,118.6,99,123.7z"/>
					<path class="st1" d="M246.6,29.5c2.6,1.8,3.8,4.3,4.6,7.3c0.3,0.8,0.3,1.7,0.3,2.6c0,30.4,0,60.6,0,91c0,10.9,0,21.6,0.1,32.4
						c0.1,5.5-4.6,11.9-12,12.3c-3.2,0.1-5.9-0.8-8.4-2.7c-0.8-0.5-1-1.1-1-2c0-5.2,0-10.5,0-15.6c0-9.4,0-18.9,0-28.5
						c0-0.9,0-1.4,1.1-1.4c1.3,0,2-1,2-2c0-1.1-0.6-2.2-2-2.3c-1.3,0-1.1-0.6-1.1-1.5c0-4.2,0-8.3,0-12.5c0-0.9,0.1-1.5,1.3-1.5
						s1.9-1.1,1.9-2.2c0-1.1-0.6-1.9-1.9-2c-1-0.1-1.3-0.6-1.3-1.5c0-4.5,0-8.8,0-13.3c0-0.6,0.3-0.8,0.8-0.8c1.5-0.1,2.4-1,2.4-2.4
						c-0.1-1.3-1.1-2.2-2.6-2c-1.5,0.1-2.3-0.5-3.2-1.8c-2.7-4.2-6.6-6.5-11.5-7.5c-2-0.4-4.1-0.4-6.1-0.4c-7.5,0-14.9,0-22.5,0
						c-15.2,0-30.4,0-45.6,0.1c-1.1,0-1.5-0.3-1.5-1.5c0-5.9,0-11.6,0-17.5c0-0.8,0.3-1,0.9-0.9c0.3,0,0.6,0,0.9,0
						c28.3,0,56.6,0,84.9,0c0.9,0,1.9,0.1,2.6-0.9c0.5-0.9,0.4-1.7-0.3-2.3c-4.1-4.2-4.6-11.2-0.8-16.2c0.9-1.1,2-2.2,3.3-3.1
						c0.6,0.5,0.4,1.1,0.4,1.8c-0.1,7.3,0.1,14.4-0.1,21.7c-0.1,4.2,0,8.4,0,12.8c0,0.4-0.1,0.6,0.3,1c0.9-0.8,1.4-1.8,1.9-2.8
						c1.5-2.6,2.9-5.2,4.5-7.8c0.4-0.6,0.6-0.9,1.1,0c1.1,2,2.3,4.1,3.6,6.1c0.9,1.5,1.5,3.2,3.1,4.7c0-1.7,0-3.2,0-4.6
						C246.6,50.8,246.6,40.1,246.6,29.5z"/>
					<path class="st1" d="M137.3,225.5c1.1-1.3,2-2.3,2.8-3.6c3.1-4.7,3.4-9.8,1.7-15.2c-0.4-1.3-0.5-1.3,0.8-1.3
						c27.2-0.3,54.4-0.1,81.7-0.1c4.1,0,8.3-0.1,12.4-0.1c1,0,1.5,0.4,1.9,1.4c2.4,6.5-0.1,14.4-6.8,17.5c-2,0.9-4.2,1.3-6.4,1.3
						c-1,0-2-0.1-3.1-0.1c-21.8,0-43.7,0-65.6,0c-6,0-12,0.1-17.9,0.1C138.4,225.5,137.9,225.5,137.3,225.5z"/>
					<path class="st1" d="M201.2,75.5c-1,1.1-1.8,2.2-2.6,3.2c-3.2,4.9-3.7,10-1.8,15.3c0.5,1.4,0.5,1.4-0.9,1.4
						c-27.4,0-54.9,0-82.5,0c-3.8,0-7.7,0-11.5,0c-1.1,0-1.7-0.4-2-1.4c-1.9-5.6-0.6-11.5,3.7-15.3c2.6-2.3,5.6-3.3,9.1-3.3
						c24.5,0,49.1,0,73.7,0C191.4,75.5,196.3,75.5,201.2,75.5z"/>
					<path class="st1" d="M227.4,26.8c-0.9,1.1-1.7,2-2.4,2.9c-3.3,4.7-4,10-2,15.3c0.5,1.3,0.5,1.3-0.9,1.3c-28.2,0-56.4,0-84.6,0
						c-2.8,0-5.5,0-8.3,0c-0.6,0-1-0.1-1.3-0.8c-1.8-5-1.4-9.7,1.8-13.9c2.7-3.6,6.5-5.1,11-5c0.6,0,1.1,0.1,1.8,0.1
						c22.5,0,45.1,0,67.5,0c5.4,0,10.9,0,16.2-0.1C226.5,26.8,226.8,26.8,227.4,26.8z"/>
					<path class="st1" d="M27,143.1c-2,4-4.1,7.8-6.3,11.7c-0.5,0.9-1,1.9-1.5,2.8c-0.3,0.5-0.1,1,0,1.5c1.9,5.7,3.7,11.6,5.6,17.4
						c2.9,9.2,6,18.4,8.9,27.6c1.3,3.8,2.4,7.7,3.7,11.4c0.3,0.8,0.3,1.1-0.6,1.4c-3.1,0.9-6,1.9-8.9,2.9c-0.8,0.3-1,0-1.3-0.8
						c-2.8-8.7-5.6-17.5-8.4-26.2c-3.1-9.3-6.1-18.8-9.2-28.1c-1.5-4.6-2.9-9.2-4.5-13.8c-0.3-0.6-0.3-0.9,0.5-1.1
						c7.3-2.3,14.4-4.7,21.7-7C26.9,143,27,143,27,143.1z"/>
					<path class="st1" d="M29.5,137.8c-0.8-2.6-1.7-5-2.4-7.5c-1.5-4.6-2.9-9.1-4.5-13.7c-0.3-0.9-0.3-1.4,0.9-1.7
						c12.1-3.8,24.1-7.8,36.3-11.7c4.6-1.5,9.3-3.1,13.9-4.6c0.9-0.3,1.3-0.1,1.7,0.8c0.8,2.8,1.8,5.6,2.7,8.3
						c0.3,0.9,0.1,1.3-0.8,1.5c-9.1,2.9-18.1,5.9-27.3,8.8c-3.6,1.1-7.1,2.4-10.7,3.6c-0.9,0.3-1.4,1-1.9,1.8
						c-2.3,4.3-4.6,8.8-6.9,13.1C30.2,137.1,30,137.5,29.5,137.8z"/>
					<path class="st2" d="M220.4,77.9c0,7.1,0,14.3,0,21.4c0,4.6,0,9.1,0,13.7c0,0.5,0.1,1.1-0.3,2c-2.6-3.8-4.6-7.8-7-11.7
						c-2.4,3.8-4.3,7.8-6.9,11.5c-0.1,0-0.1-0.1-0.3-0.1c0-12.4,0-24.8,0-37.1c0.9-1.1,2.3-1.4,3.4-1.8c0.9-0.3,2-0.5,3.1-0.5
						c2.4,0,4.7,0.6,6.8,1.9C219.6,77.2,220.4,77.2,220.4,77.9z"/>
					<path class="st2" d="M246.6,29.5c0,10.7,0,21.3,0,32c0,1.4,0,2.9,0,4.6c-1.4-1.5-2-3.2-3.1-4.7c-1.3-2-2.4-4.1-3.6-6.1
						c-0.5-0.9-0.8-0.6-1.1,0c-1.4,2.6-2.9,5.2-4.5,7.8c-0.5,1-1,2-1.9,2.8c-0.4-0.4-0.3-0.8-0.3-1c0-4.2-0.1-8.4,0-12.8
						c0.3-7.3,0-14.4,0.1-21.7c0-0.6,0.3-1.3-0.4-1.8c3.6-3.1,10.5-2.8,13.7-0.5C246.2,28.4,246.6,28.7,246.6,29.5z"/>
					<g>
						<path class="st3" d="M19.8,119c0.9,2.8,1.8,5.4,2.6,7.9c1.3,3.8,2.4,7.7,3.7,11.4c0.3,0.9,0.1,1.1-0.8,1.4
							c-6.3,2-12.6,4.1-18.9,6.1c-0.3,0.1-0.4,0.1-1,0.3C10.4,137,15,128.2,19.8,119z"/>
						<path class="st3" d="M38.9,128.8c0.9,2.8,1.8,5.5,2.7,8.3c1.1,3.6,2.3,7.3,3.6,10.9c0.1,0.5,0.3,0.8-0.4,0.9
							c-6.6,2.2-13.3,4.3-19.9,6.4c0,0-0.1,0-0.3-0.1c4.7-8.8,9.3-17.6,13.9-26.4C38.6,128.8,38.7,128.8,38.9,128.8z"/>
					</g>
					<path class="st4" d="M135,178.7c-2,4.6-4.7,8.6-8.6,12c-1.9,1.8-4,3.3-6.3,4.7c-3.3,2-6.8,4.1-10.1,6.1
						c-0.4,0.3-0.6,0.5-1.1,0.1c-5.1-3.3-10.7-6-15.3-10c-4.1-3.4-7.4-7.7-9.4-12.8c-0.1-0.4-0.3-0.8-0.3-1.3c0-13.5,0-26.9,0-40.5
						c0-1,0.4-1.3,1.3-1.4c5.1-0.8,8.8-3.4,11.5-7.7c0.4-0.6,0.8-0.8,1.5-0.8c7.5,0,15.1,0,22.7,0c0.6,0,1,0.3,1.4,0.8
						c2.7,4.2,6.4,6.8,11.2,7.7c0.5,0.1,1,0.1,1.5,0.1c0,0.4,0,0.6,0,1c0,13.4,0,26.7,0,40.1C135,177.6,135,178.2,135,178.7z
						 M132.7,158.7L132.7,158.7c0-6.5,0-12.9,0-19.4c0-1-0.4-1.7-1.4-1.9c-3.8-1.1-7-3.3-9.4-6.6c-0.5-0.6-1-1-1.8-1
						c-7.1,0-14.2,0-21.3,0c-0.8,0-1.3,0.3-1.7,0.8c-2.3,3.3-5.5,5.5-9.3,6.8c-1.5,0.5-1.8,0.9-1.8,2.4c0,12,0,23.9,0,35.9
						c0,2.3,0.4,4.2,1.5,6.1c2.3,4.3,5.5,7.9,9.4,10.7c3.3,2.3,6.9,4.2,10.3,6.4c1.5,1,2.9,1,4.5,0c2.4-1.5,4.7-3.1,7.3-4.5
						c4.6-2.6,8.3-6,11.1-10.3c1.7-2.4,2.8-4.9,2.7-8C132.6,170.2,132.7,164.4,132.7,158.7z"/>
					<path class="st5" d="M135,178.7c0-0.5,0.1-1,0.1-1.7c0-13.4,0-26.7,0-40.1c0-0.4,0-0.6,0-1c0.5-0.1,0.8,0.1,0.5,0.5
						c-0.4,0.6-0.3,1.1-0.3,1.8c0,13,0,26,0,39.1C135.2,177.8,135.5,178.3,135,178.7z"/>
					<path class="st6" d="M89.9,140.3c3.6-1.4,6.6-3.6,9.2-6.5c0.5-0.5,0.9-0.6,1.7-0.6c5.9,0,11.7,0,17.6,0c0.5,0,0.9-0.1,1.3,0.3
						c1.7,1.9,3.6,3.4,5.6,5c0,0.3,0,0.5,0.3,0.8c0.8,0.4,1.5,1,2.4,1c1.1,0.1,1,0.6,1,1.4c0,5.9,0,11.7,0,17.6c0,6.4,0,12.9,0,19.3
						c0,0.3,0,0.6-0.3,0.9c-1.9,4-4.7,7.1-8.2,9.7c-2.9,2.2-6.3,3.7-9.2,5.7c-1.4,1-2.4,0.8-3.7-0.1c-2.9-2-6.1-3.6-9.1-5.7
						c-3.6-2.7-6.4-6-8.4-10c-0.4-0.8-0.6-1.7-0.6-2.4c0-5.7,0-11.6,0-17.4c0-0.1,0-0.3,0-0.5c0.6-0.3,0.4-0.8,0.4-1.1
						C89.9,151.8,89.9,146.1,89.9,140.3z M126.4,161.8c0.1-1.3,0-2.7-0.5-4c-0.5-1.3-0.9-2.7-1.5-4c-1.1-1.9-2.6-3.8-4.5-5.1
						c-1.8-1.3-3.7-2.2-5.7-2.8c-2.4-0.6-4.9-0.8-7.3-0.5c-2.7,0.3-5.1,1.3-7,2.7c-2.8,2-5.1,4.7-6.4,8.2c-1.1,3.6-1.3,7-0.4,10.5
						c0.8,2.9,2.2,5.5,4.5,7.5c0.9,0.8,1.8,1.5,2.8,2.3c1,0.6,2.2,0.8,3.1,1.4c0.9,0.5,1.8,0.8,2.8,0.9c2.7,0.4,5.4,0.3,8-0.4
						c0.9-0.3,1.5-1,2.4-1c1.3,0.1,2.2-0.8,2.9-1.4c2.4-2.2,4.3-4.6,5.6-7.7C126,166.2,126.6,164.2,126.4,161.8z"/>
					<path class="st4" d="M128.9,178.6c0-6.4,0-12.9,0-19.3c0-5.9,0-11.7,0-17.6c0-0.8,0.1-1.4-1-1.4c-0.8,0-1.5-0.6-2.4-1
						c-0.3-0.1-0.3-0.4-0.3-0.8c1.3,0.5,2.3,1.4,3.7,1.7c0.4,0.1,0.5,0.5,0.5,0.8c0,0.6,0,1.4,0,2c0,11.1,0,22.1,0,33.2
						C129.2,177.1,129.6,178,128.9,178.6z"/>
					<path class="st4" d="M89.9,140.3c0,5.7,0,11.5,0,17.2c0,0.4,0.3,0.9-0.4,1.1c0-3.1,0-6.1-0.1-9.2c0-2.8,0-5.5,0-8.3
						C89.5,140.9,89.3,140.4,89.9,140.3z"/>
					<path class="st7" d="M123,162c0.3,7.5-6.1,13.7-13.5,13.7c-7.7,0-13.8-6-13.7-13.8c0-7.5,5.9-13.4,13.7-13.4
						C117,148.5,123.2,154.5,123,162z M109.5,169.3c1.4,0.3,2.7-0.5,4-1.3c0.9-0.6,1.1-1.5,0.6-2.3c-0.5-0.8-1.4-1-2.3-0.6
						c-0.6,0.3-1.1,0.6-1.8,0.8c-2.3,0.6-5-1.8-4.5-4.1c0.5-3.1,3.4-4.2,6.1-2.6c1.1,0.6,1.9,0.6,2.6-0.3c0.5-0.8,0.4-1.8-0.6-2.6
						c-1.8-1.4-3.8-1.7-5.9-1.3c-3.6,0.8-6,4.2-5.5,8C102.7,166.6,105.7,169.5,109.5,169.3z"/>
					<path class="st8" d="M109.5,169.3c-3.7,0.3-6.8-2.6-7.3-6c-0.5-3.7,1.8-7.3,5.5-8c2-0.4,4.1-0.1,5.9,1.3
						c0.9,0.8,1.1,1.8,0.6,2.6c-0.6,0.9-1.4,0.9-2.6,0.3c-2.7-1.7-5.5-0.5-6.1,2.6c-0.4,2.3,2.2,4.7,4.5,4.1
						c0.6-0.1,1.1-0.5,1.8-0.8c1-0.4,1.8-0.3,2.3,0.6c0.5,0.8,0.3,1.7-0.6,2.3C112.1,168.8,110.9,169.5,109.5,169.3z"/>
					<g>
						<g>
							<path class="st9" d="M108.6,123.7c0-7.5,0-14.9,0-22.5c0-0.9-0.3-1.1-1.1-1.1c-2.4,0.1-5,0-7.4,0c-1.4,0-2.3-0.5-2.9-1.8
								c-6.3-11,0.5-25.4,13-27.4c1.3-0.3,2.4,0,3.7,0c6.9,0,13.9,0,20.8,0c1.1,0,1.5-0.4,1.4-1.5c-0.1-5.5,0-11.1,0-16.6
								c0-1.7,0-1.7-1.7-1.7c-2.6,0-5-0.1-7.5-0.1c-1.1,0-1.8-0.6-2.2-1.5c-2.9-5.6-3.2-11.2-0.5-17c2.6-5.5,7-8.8,12.9-10.1
								c1-0.3,2.2-0.1,3.2-0.1c22.3,0,44.8,0,67.1,0c10.7,0,21.4-0.4,32.2,0.1c9.3,0.4,16.5,7.3,16.5,16.3c0,32.3,0,64.6,0,96.8
								c0,9.2,0,18.4,0,27.6c0,7.1-5.1,13.7-12.1,15.6c-2.9,0.8-6,0.9-9.1,0.8c-1.3,0-2.4,0-3.7,0c-0.9,0-1.1,0.3-1.1,1.1
								c0,5.4,0,10.7,0,16.1c0,1.1,0,2.2,0,3.3c0,0.8,0.4,1,1,0.9c2.7-0.1,5.5,0.3,8.2,0.1c1.1,0,1.8,0.6,2.3,1.5
								c3.6,6.1,3.1,14.6-1.3,20.3c-2.9,3.8-6.6,6.1-11.4,7.1c-1.4,0.3-2.8,0.1-4.2,0.1c-24.8,0-49.5,0-74.4,0
								c-8.2,0-16.5,0.1-24.6,0c-5.1-0.1-9.6-1.9-13.1-5.9c-2.7-2.9-4.1-6.4-4.2-10.3c0-0.8-0.1-0.9-1-0.6
								c-10.1,3.3-20.2,6.5-30.3,9.8c-10.2,3.3-20.4,6.6-30.6,10c-3.1,1-3.1,1-4.1-2c-1-3.3-2.2-6.6-3.2-9.8
								c-0.3-0.8-0.5-0.9-1.3-0.6c-3.8,1.3-7.8,2.6-11.6,3.8c-1.1,0.4-1.9,0-2.3-1.4c-1.7-5-3.2-9.8-4.9-14.8
								c-4.3-13.5-8.8-27.1-13.1-40.6c-1.9-5.7-3.7-11.6-5.6-17.4c-0.3-0.8-0.3-1.4,0.1-2c4-7.4,7.9-14.9,11.7-22.3
								c2-3.8,4.1-7.8,6.1-11.6c0.4-0.8,1-1.3,1.9-1.5c13.7-4.5,27.2-8.8,40.8-13.3c4.6-1.5,9.1-2.9,13.7-4.5
								c1.5-0.5,2.3-0.1,2.9,1.5c1.1,3.6,2.4,7.3,3.6,10.9c0.3,0.8,0.5,0.9,1.3,0.6c3.6-1.3,7.3-2.4,10.9-3.6
								c1.9-0.6,2.6-0.3,3.2,1.7c1.9,5.6,3.7,11.2,5.5,16.9c0.1,0.4,0.3,0.8,0.3,1.1c-1.1,0-2.4,0.3-3.6,0c-1.7-5-3.3-10.1-4.9-15.1
								c-0.3-0.8-0.5-0.9-1.3-0.6c-2.7,0.9-5.4,1.8-8.2,2.7c-6.4,2-12.9,4.2-19.3,6.3c-7.8,2.6-15.4,5-23.2,7.5
								c-0.8,0.3-1,0.5-0.6,1.4c2.6,7.7,5,15.2,7.4,22.9c0.5,1.5,0,2.6-1.5,3.1c-2.8,0.9-5.6,1.8-8.4,2.8c-4.9,1.5-9.7,3.2-14.6,4.7
								c-0.8,0.3-1.3,0.4-0.9,1.5c3.1,9.3,6.1,18.6,9.1,28c4.3,13.3,8.7,26.6,12.9,39.7c0.3,0.9,0.6,1.1,1.5,0.8
								c10-3.3,19.9-6.5,30-9.7c9.6-3.1,19-6.1,28.6-9.3c3.2-1,3.2-1.1,2.9-4.6c1.1,0,2.2-0.3,3.1-0.9c0.5-0.4,1-0.6,1.7-0.8
								c0,3.1,0.1,6.1,0,9.2c0,1.8,0.5,3.4,1.3,5.1c2.7,5.7,9.8,8.7,15.8,6.4c5.1-1.9,8.4-6.5,8.6-12c0-3.3-1-6.3-3.3-8.7
								c-1.3-1.4-0.8-2.8,1.1-3.2c0.4-0.1,0.6-0.1,1-0.1c28.7,0,57.4,0,86.2,0c1.9,0,1.9,0,1.8-1.9c0-0.4,0-0.6,0-1
								c0-36.6,0-73.3,0-110c0-4.2-1.8-7.5-5.1-10c-0.1-0.6-0.8-0.6-1.1-0.8c-2-1.3-4.3-1.9-6.8-1.9c-1,0-2,0.3-3.1,0.5
								c-1.3,0.4-2.7,0.5-3.4,1.8c-3.2,1.8-5,4.6-5.7,8.2c-0.9,4.2,0.1,8,3.2,11.2c1.1,1.1,0.6,2.8-1,3.2c-0.4,0.1-0.9,0.1-1.3,0.1
								c-28.9,0-57.7,0-86.6,0c-1.4,0-1.4,0-1.4,1.5c0,7.4,0,14.7,0,22.1C111.6,123.7,110.1,123.7,108.6,123.7z M232,28.6
								c-1.3,0.9-2.4,1.8-3.3,3.1c-3.8,5-3.3,12,0.8,16.2c0.6,0.6,0.8,1.4,0.3,2.3c-0.6,1-1.5,0.9-2.6,0.9c-28.3,0-56.6,0-84.9,0
								c-0.3,0-0.6,0-0.9,0c-0.8-0.1-0.9,0.3-0.9,0.9c0,5.9,0.1,11.6,0,17.5c0,1.1,0.3,1.5,1.5,1.5c15.2-0.1,30.4-0.1,45.6-0.1
								c7.5,0,14.9,0,22.5,0c2,0,4.1,0,6.1,0.4c4.9,1,8.8,3.3,11.5,7.5c0.8,1.3,1.5,1.9,3.2,1.8c1.5-0.1,2.6,0.9,2.6,2
								c0.1,1.3-0.8,2.2-2.4,2.4c-0.5,0-0.8,0.1-0.8,0.8c0,4.5,0,8.8,0,13.3c0,0.9,0.3,1.4,1.3,1.5c1.1,0.1,1.9,0.9,1.9,2
								s-0.8,2.2-1.9,2.2s-1.3,0.5-1.3,1.5c0,4.2,0,8.3,0,12.5c0,0.9,0,1.5,1.1,1.5c1.3,0,2,1,2,2.3c0,1.1-0.8,2-2,2
								c-1.1,0-1.1,0.6-1.1,1.4c0,9.4,0,18.9,0,28.5c0,5.2,0,10.5,0,15.6c0,0.9,0.3,1.5,1,2c2.6,1.9,5.2,2.8,8.4,2.7
								c7.3-0.3,12-6.8,12-12.3c-0.1-10.9-0.1-21.6-0.1-32.4c0-30.4,0-60.6,0-91c0-0.9,0-1.7-0.3-2.6c-0.8-2.9-2-5.5-4.6-7.3
								c0-0.8-0.5-1-1-1.4C242.5,25.8,235.4,25.5,232,28.6z M137.3,225.5c0.6,0,1.1,0,1.5,0c6,0,12-0.1,17.9-0.1
								c21.8-0.1,43.7,0,65.6,0c1,0,2,0.1,3.1,0.1c2.2,0.1,4.3-0.3,6.4-1.3c6.8-3.1,9.3-11,6.8-17.5c-0.4-1-0.8-1.3-1.9-1.4
								c-4.1-0.1-8.3,0.1-12.4,0.1c-27.2,0-54.4-0.1-81.7,0.1c-1.3,0-1.3,0-0.8,1.3c1.8,5.2,1.4,10.3-1.7,15.2
								C139.5,223.2,138.4,224.2,137.3,225.5z M201.2,75.5c-5.1,0-10,0-14.8,0c-24.5,0-49.1,0-73.7,0c-3.4,0-6.5,1-9.1,3.3
								c-4.2,3.8-5.6,9.8-3.7,15.3c0.4,1,0.9,1.4,2,1.4c3.8-0.1,7.7,0,11.5,0c27.4,0,54.9,0,82.5,0c1.4,0,1.3,0,0.9-1.4
								c-1.8-5.4-1.4-10.5,1.8-15.3C199.4,77.6,200.3,76.7,201.2,75.5z M227.4,26.8c-0.6,0-1,0-1.4,0c-5.4,0-10.9,0.1-16.2,0.1
								c-22.5,0.1-45.1,0-67.5,0c-0.6,0-1.1-0.1-1.8-0.1c-4.5-0.1-8.3,1.4-11,5c-3.2,4.2-3.6,8.9-1.8,13.9c0.3,0.6,0.6,0.8,1.3,0.8
								c2.8,0,5.5,0,8.3,0c28.2,0,56.4,0,84.6,0c1.4,0,1.4,0,0.9-1.3c-1.9-5.5-1.3-10.6,2-15.3C225.7,28.7,226.5,27.8,227.4,26.8z
								 M27,143.1c0-0.1-0.1-0.1-0.1-0.3c-7.3,2.3-14.4,4.7-21.7,7c-0.8,0.3-0.8,0.5-0.5,1.1c1.5,4.6,3.1,9.2,4.5,13.8
								c3.1,9.3,6.1,18.8,9.2,28.1c2.8,8.7,5.6,17.4,8.4,26.2c0.3,0.8,0.5,1,1.3,0.8c2.9-1,6-2,8.9-2.9c0.9-0.3,0.9-0.6,0.6-1.4
								c-1.3-3.8-2.6-7.7-3.7-11.4c-2.9-9.2-6-18.4-8.9-27.6c-1.9-5.7-3.7-11.6-5.6-17.4c-0.1-0.5-0.4-1,0-1.5
								c0.5-0.9,1-1.9,1.5-2.8C22.9,150.9,24.9,146.9,27,143.1z M29.5,137.8c0.5-0.3,0.6-0.6,0.9-1c2.3-4.3,4.6-8.8,6.9-13.1
								c0.4-0.8,0.9-1.5,1.9-1.8c3.6-1.1,7.1-2.3,10.7-3.6c9.1-2.9,18.1-5.9,27.3-8.8c0.9-0.3,1.1-0.6,0.8-1.5
								c-0.9-2.8-1.8-5.5-2.7-8.3c-0.3-1-0.6-1.1-1.7-0.8c-4.6,1.5-9.3,3.1-13.9,4.6c-12.1,4-24.1,7.9-36.3,11.7
								c-1,0.4-1.1,0.8-0.9,1.7c1.5,4.5,2.9,9.1,4.5,13.7C27.9,132.8,28.8,135.2,29.5,137.8z M19.8,119c-4.9,9.2-9.4,18-14.3,27.1
								c0.5-0.1,0.8-0.1,1-0.3c6.3-2,12.6-4.1,18.9-6.1c0.9-0.3,1-0.5,0.8-1.4c-1.3-3.8-2.4-7.7-3.7-11.4
								C21.6,124.3,20.7,121.9,19.8,119z M38.9,128.8c-0.1,0-0.3,0-0.4,0c-4.6,8.8-9.3,17.6-13.9,26.4c0.1,0,0.3,0.1,0.3,0.1
								c6.6-2.2,13.3-4.3,19.9-6.4c0.6-0.3,0.5-0.5,0.4-0.9c-1.1-3.6-2.3-7.3-3.6-10.9C40.6,134.3,39.8,131.6,38.9,128.8z"/>
							<path class="st9" d="M138.6,135.8c21.3,0,42.6,0,64,0c1,0,1.9,0,2.9,0c1.4,0,2.3,0.9,2.3,2.2c0,1.1-0.9,2-2.3,2
								c-1,0-1.9,0-2.9,0c-21.3,0-42.6,0-64,0C138.6,138.8,138.6,137.4,138.6,135.8z"/>
							<path class="st9" d="M138.6,177.1c21.8,0,43.7,0,65.6,0c0.4,0,0.6,0,1,0c1,0.1,1.8,0.9,1.8,1.9c0,1-0.6,1.9-1.7,2.2
								c-0.5,0.1-0.9,0.1-1.4,0.1c-22.1,0-44.2,0-66.3,0C138.4,180,138.6,178.6,138.6,177.1z"/>
							<path class="st9" d="M135.2,185.6c7.1,0,14.2,0,21.3,0c3.7,0,7.3,0,11,0c0.8,0,1.1,0.1,1,1c-0.1,1,0.4,2.4-0.3,3.1
								c-0.6,0.6-2,0.3-3.1,0.3c-11,0-22,0-32.9,0c0-0.9,0.9-1.3,1.3-2C134,187.2,134.7,186.4,135.2,185.6z"/>
							<path class="st9" d="M80.3,155c-6.4,2-12.8,4.1-19.1,6.1s-12.9,4.2-19.3,6.3c-1.1,0.4-2,0-2.4-1c-0.3-0.9,0.3-1.8,1.4-2.2
								c7.5-2.4,15.2-5,22.7-7.4c5-1.7,10-3.2,14.9-4.9c0.6-0.1,1.1-0.4,1.8-0.5C80.6,152.7,80.5,153.8,80.3,155z"/>
							<path class="st9" d="M80.5,170.8c-2.3,0.5-4.6,1.4-6.8,2.2c-6.3,2-12.5,4.1-18.8,6.1c-2.4,0.8-4.7,1.5-7.1,2.3
								c-0.5,0.1-1,0.4-1.5,0.4c-0.9,0.1-1.7-0.1-1.9-1.1c-0.3-0.9,0.3-1.7,1.1-2c2.4-0.8,4.7-1.5,7.1-2.3c8-2.7,16.2-5.2,24.3-7.9
								c1.1-0.4,2.4-0.8,3.7-1C80.5,168.4,80.5,169.5,80.5,170.8z"/>
							<path class="st9" d="M83.4,185.4c-10.7,3.4-21.3,7-32,10.5c-1.3,0.4-2.3,0-2.6-0.9c-0.3-0.9,0.3-1.9,1.4-2.3
								c10.1-3.3,20.3-6.5,30.4-9.8c0.3-0.1,0.6-0.1,0.9-0.3C82.8,183.2,82.8,184.5,83.4,185.4z"/>
							<path class="st9" d="M129.1,129.8c-1.1-2-0.3-3.7,2.2-3.7c6.3,0,12.5,0,18.9,0c0.9,0,1.3,0.3,1.3,1.3c-0.1,0.8,0,1.7,0,2.4
								c0,0.6-0.3,0.8-0.8,0.8c-6.5,0-13,0-19.5,0c-0.4,0-0.8-0.1-1.3-0.3C129.5,130.2,129.2,130.1,129.1,129.8z"/>
							<path class="st9" d="M138.6,166.5c2.6,0,2.6,0,2.6,2.6c0,1.9,0,1.9-2.6,1.9C138.6,169.4,138.6,167.9,138.6,166.5z"/>
							<path class="st9" d="M168,121.2c-11.9,0-23.9,0-35.7,0c-0.4,0-0.6,0-1,0c-1.1-0.1-1.9-0.9-1.9-1.9c-0.1-1.1,0.6-2,1.8-2.3
								c0.4-0.1,0.6,0,1,0c24,0,48,0,72,0c0.5,0,0.9,0,1.4,0.1c1,0.3,1.7,1.1,1.7,2.3c-0.1,1-0.9,1.8-1.9,1.9c-0.3,0-0.6,0-0.9,0
								C192,121.2,180,121.2,168,121.2z"/>
							<path class="st9" d="M150,107.8c5.7,0,11.6,0,17.4,0c1.1,0,2,0.4,2.4,1.4c0.6,1.3-0.4,2.8-1.8,3.1c-0.4,0-0.6,0-1,0
								c-11.4,0-22.7,0-34,0c-0.5,0-0.9,0-1.4-0.1c-1-0.3-1.7-1.3-1.5-2.3c0.1-1.1,0.9-1.7,1.9-1.9c0.4-0.1,0.6,0,1,0
								C138.7,107.8,144.4,107.8,150,107.8z"/>
							<path class="st9" d="M189.1,126.1c5.1,0,10.3,0,15.4,0c1.7,0,2.7,0.8,2.7,2.2c0,1.4-1,2.2-2.7,2.2c-10.5,0-21.1,0-31.5,0
								c-0.9,0-1-0.3-1-1c0.1-1-0.4-2.4,0.3-3.1c0.6-0.8,2-0.3,3.1-0.3C179.9,126.1,184.5,126.1,189.1,126.1L189.1,126.1z"/>
							<path class="st9" d="M145.5,198.4c-5,0-10,0-14.9,0c-1.8,0-2.7-0.8-2.7-2c0-1.4,1-2.3,2.7-2.3c7,0,13.9,0,20.9,0
								c3.1,0,6,0,9.1,0c1.5,0,2.4,0.6,2.7,1.7c0.4,1.5-0.6,2.7-2.4,2.7C155.8,198.4,150.6,198.4,145.5,198.4z"/>
							<path class="st9" d="M189.1,185.6c5,0,9.8,0,14.8,0c0.8,0,1.4,0.1,2,0.6c1,1,0.8,2.7-0.5,3.3c-0.5,0.3-1.1,0.4-1.8,0.4
								c-9.8,0-19.5,0-29.4,0c-1,0-1.4-0.1-1.3-1.3c0.1-1-0.4-2.3,0.3-2.9s1.9-0.3,2.9-0.3C180.4,185.6,184.8,185.6,189.1,185.6z"/>
							<path class="st9" d="M193.4,166.5c3.7,0,7.5,0,11.2,0c1.5,0,2.6,0.9,2.6,2.2c0,1.3-1,2.3-2.6,2.3c-7.7,0-15.2,0-22.9,0
								c-0.8,0-1-0.3-0.9-1c0-0.8,0.1-1.7,0-2.4c-0.1-0.9,0.3-1,1-1C185.7,166.5,189.6,166.5,193.4,166.5L193.4,166.5z"/>
							<path class="st9" d="M177,150.8c-3.2,0-6.3,0-9.4,0c-0.9,0-1.1-0.3-1.1-1.1c0.1-0.9,0-1.7,0-2.6c0-0.6,0.3-0.8,0.8-0.8
								c6.5,0,12.9,0,19.4,0c0.6,0,0.9,0.3,0.9,0.9c0,0.9,0,1.7,0,2.6c0.1,0.9-0.3,1-1,1C183.4,150.8,180.2,150.8,177,150.8z"/>
							<path class="st9" d="M198.9,146.3c1.9,0,3.8,0,5.7,0c1.5,0,2.4,0.9,2.4,2.2c0,1.3-0.9,2.2-2.4,2.2c-4,0-8,0-12,0
								c-0.8,0-0.9-0.3-0.9-0.9c-0.1-3.4-0.1-3.4,3.4-3.4C196.5,146.3,197.8,146.3,198.9,146.3z"/>
							<path class="st9" d="M159.9,170.9c-2.2,0-4.2,0-6.4,0c-0.6,0-0.9-0.1-0.9-0.9c-0.1-3.6-0.1-3.6,3.3-3.6c3.4,0,6.8,0,10.2,0
								c0.8,0,1.1,0.1,1,1c0,0.8-0.1,1.7,0,2.4c0.1,0.9-0.3,1-1,1C164.1,170.8,161.9,170.9,159.9,170.9z"/>
							<path class="st9" d="M161.7,130.6c-1.7,0-3.4,0-5.1,0c-0.6,0-1-0.1-0.9-0.9c0-0.9,0-1.8,0-2.7c0-0.8,0.3-0.9,0.9-0.9
								c3.4,0,6.8,0,10.2,0c0.6,0,1,0.1,0.9,0.9c0,0.9,0,1.8,0,2.7c0,0.8-0.3,0.9-0.9,0.9C165,130.6,163.3,130.6,161.7,130.6z"/>
							<path class="st9" d="M174,166.5c2.4,0,2.4,0,2.4,2.4c0,2,0,2-2,2c-2.9,0-2.9,0-2.9-2.8c0-1.8-0.3-1.5,1.7-1.7
								C173.4,166.5,173.8,166.5,174,166.5z"/>
							<path class="st9" d="M145.3,168.5c0-2.3,0.1-2.4,2.4-2.2c0.5,0,0.6,0.3,0.6,0.8c0,0.5,0,1,0,1.7c0,2.4,0.4,2-2.2,2.2
								c-0.9,0-1.1-0.3-1-1C145.3,169.4,145.3,169,145.3,168.5z"/>
							<path class="st9" d="M160.6,146.3c-5.9,0-11.9,0-17.7,0l0,0h-4.5v1.1c-0.1,0.6-0.1,1.3,0,1.9v1.4h4.5l0,0
								c5.4,0,10.7,0,16.1,0c3.1,0,2.9,0,3.1-3.1C162.2,146.6,161.8,146.3,160.6,146.3z"/>
							<path class="st9" d="M206.1,156.8c-0.5-0.1-1.1-0.1-1.7-0.1c-20.9,0-42,0-62.9,0c-0.9,0-1.8,0-2.8,0c-0.4,1.4-0.4,2.8,0,4.3
								l0,0h2.4c21.3,0,42.5,0,63.8,0c0.3,0,0.5,0,0.6,0c1-0.1,1.9-0.9,1.9-1.9C207.7,157.8,207.2,157,206.1,156.8z"/>
						</g>
					</g>
					<path class="st5" d="M132.7,158.7L132.7,158.7c0-6.5,0-12.9,0-19.4c0-1-0.4-1.7-1.4-1.9c-3.8-1.1-7-3.3-9.4-6.6
						c-0.5-0.6-1-1-1.8-1c-7.1,0-14.2,0-21.3,0c-0.8,0-1.3,0.3-1.7,0.8c-2.3,3.3-5.5,5.5-9.3,6.8c-1.5,0.5-1.8,0.9-1.8,2.4
						c0,12,0,23.9,0,35.9c0,2.3,0.4,4.2,1.5,6.1c2.3,4.3,5.5,7.9,9.4,10.7c3.3,2.3,6.9,4.2,10.3,6.4c1.5,1,2.9,1,4.5,0
						c2.4-1.5,4.7-3.1,7.3-4.5c4.6-2.6,8.3-6,11.1-10.3c1.7-2.4,2.8-4.9,2.7-8C132.6,170.2,132.7,164.4,132.7,158.7z M128.6,179.5
						c-1.9,4-4.7,7.1-8.2,9.7c-2.9,2.2-6.3,3.7-9.2,5.7c-1.4,1-2.4,0.8-3.7-0.1c-2.9-2-6.1-3.6-9.1-5.7c-3.6-2.7-6.4-6-8.4-10
						c-0.4-0.8-0.6-1.7-0.6-2.4c0-5.7,0-11.6,0-17.4c0-0.1,0-0.3,0-0.5c0-3.1,0-6.1-0.1-9.2c0-2.8,0-5.5,0-8.3c0-0.4-0.3-0.9,0.4-1
						c3.6-1.4,6.6-3.6,9.2-6.5c0.5-0.5,0.9-0.6,1.7-0.6c5.9,0,11.7,0,17.6,0c0.5,0,0.9-0.1,1.3,0.3c1.7,1.9,3.6,3.4,5.6,5
						c1.3,0.5,2.3,1.4,3.7,1.7c0.4,0.1,0.5,0.5,0.5,0.8c0,0.6,0,1.4,0,2c0,11.1,0,22.1,0,33.2v1.7c-0.1,0.3-0.3,0.5-0.5,0.6
						C128.7,178.9,128.7,179.2,128.6,179.5z"/>
					<path class="st8" d="M125.9,157.7c-0.5-1.3-0.9-2.7-1.5-4c-1.1-1.9-2.6-3.8-4.5-5.1c-1.8-1.3-3.7-2.2-5.7-2.8
						c-2.4-0.6-4.9-0.8-7.3-0.5c-2.7,0.3-5.1,1.3-7,2.7c-2.8,2-5.1,4.7-6.4,8.2c-1.1,3.6-1.3,7-0.4,10.5c0.8,2.9,2.2,5.5,4.5,7.5
						c0.6,0.6,1.3,1.1,2,1.7l0,0c0,0,0.3,0.1,0.5,0.4c0.1,0,0.1,0.1,0.3,0.1c0.1,0.1,0.3,0.1,0.4,0.3c0.9,0.5,2.3,1.3,4,1.8
						c0.1,0,0.3,0.1,0.4,0.1c0.1,0,0.3,0,0.4,0.1l0,0c0.8,0.1,1.5,0.3,2.4,0.3h0.1c2,0.1,4.1-0.1,6.1-0.5c0.3,0,0.5-0.1,0.8-0.3
						c1.4-0.4,2.3-0.8,2.3-0.8l0,0c0.9-0.1,1.7-0.8,2.3-1.4c2.4-2.2,4.3-4.6,5.6-7.7c0.8-2,1.4-4.2,1.3-6.6
						C126.6,160.5,126.4,159.1,125.9,157.7z M109.5,175.7c-7.7,0-13.8-6-13.7-13.8c0-7.5,5.9-13.4,13.7-13.4c7.5,0,13.8,6,13.5,13.5
						C123.2,169.4,117,175.7,109.5,175.7z"/>
				</g>
				<path class="st10" d="M130.4,127.7l-1.8,0.4c0,0-0.4,2.6,2.3,2.7c2.7,0,1.4-2.2,1.4-2.2L130.4,127.7z"/>
				<path class="st1" d="M128.3,129.8c0,0,1.8,1.5,3.4,1.9c1.7,0.4-0.9-1.1-0.9-1.1s-1.8,0.3-2.3-1.7L128.3,129.8z"/>
			</g>
		</g>
	</g>
</g>
<g id="Layer_2">
</g>
</svg>
