<?xml version="1.0" encoding="utf-8"?>
<!-- Generator: Adobe Illustrator 23.0.0, SVG Export Plug-In . SVG Version: 6.00 Build 0)  -->
<svg version="1.1" xmlns="http://www.w3.org/2000/svg" xmlns:xlink="http://www.w3.org/1999/xlink" x="0px" y="0px"
	 viewBox="0 0 256 256" style="enable-background:new 0 0 256 256;" xml:space="preserve">
<style type="text/css">
	.st0{fill:#4C2D69;}
	.st1{fill:#7B4D6C;}
	.st2{fill:#96489A;}
	.st3{fill:#B294C5;}
	.st4{fill:#AD6CAC;}
	.st5{fill:#EFC15E;}
	.st6{fill:#856EB0;}
	.st7{fill:#472565;}
	.st8{fill:#4B2668;}
	.st9{fill:#4D2769;}
	.st10{fill:#522669;}
	.st11{fill:#6C5899;}
	.st12{fill:#9888BF;}
	.st13{fill:#8C4C8A;}
	.st14{fill:#6F6679;}
	.st15{fill:#593373;}
	.st16{fill:#6F6579;}
	.st17{fill:#CEBFDD;}
	.st18{fill:#CEBEDD;}
	.st19{fill:#CEBFDE;}
	.st20{fill:#CDBDDD;}
	.st21{fill:#CDBEDD;}
	.st22{fill:#CEBDDC;}
	.st23{fill:#C6B6D9;}
	.st24{fill:#C5B5D8;}
	.st25{fill:#C7B7D9;}
	.st26{fill:#BFB0D6;}
	.st27{fill:#BEADD2;}
	.st28{fill:#FFFFFF;}
	.st29{fill:#998BA2;}
	.st30{fill:#763B78;}
	.st31{fill:#76678E;}
	.st32{fill:#746A8C;}
	.st33{fill:#8C7087;}
	.st34{fill:#3D2222;}
	.st35{fill:#753575;}
	.st36{fill:#ADCDCD;}
	.st37{fill:#293032;}
	.st38{fill:#2B313B;}
	.st39{fill:#6B3A92;}
	.st40{fill:#947D8E;}
	.st41{fill:#5D262B;}
	.st42{fill:#93A8B6;}
	.st43{fill:#CCEAEC;}
	.st44{fill:#9BB2C4;}
	.st45{fill:#909EAE;}
	.st46{fill:#8FA1B0;}
	.st47{fill:#93A6B4;}
	.st48{fill:#6A4596;}
	.st49{fill:#090607;}
	.st50{fill:#0D080B;}
	.st51{fill:#150D12;}
	.st52{fill:#170F14;}
	.st53{fill:#1B111B;}
	.st54{fill:#191418;}
	.st55{fill:#170E13;}
	.st56{fill:#151317;}
	.st57{fill:#110C0F;}
	.st58{fill:#181016;}
	.st59{fill:#200F1D;}
	.st60{fill:#170E12;}
	.st61{fill:#1B1118;}
	.st62{fill:#1A0E13;}
	.st63{fill:#1B121E;}
	.st64{fill:#1C111B;}
	.st65{fill:#170E14;}
	.st66{fill:#210F1D;}
	.st67{fill:#241124;}
	.st68{fill:#1A0E15;}
	.st69{fill:#803B7D;}
	.st70{fill:#783A79;}
	.st71{fill:#763A79;}
	.st72{fill:#7F3A76;}
	.st73{fill:#7C367A;}
	.st74{fill:#D0EBED;}
	.st75{fill:#D8EEF0;}
	.st76{fill:#96729C;}
	.st77{fill:#907993;}
	.st78{fill:#917A93;}
	.st79{fill:#D6B2B7;}
	.st80{fill:#927E95;}
	.st81{fill:#E0CBCB;}
	.st82{fill:#504836;}
	.st83{fill:#5D6C53;}
	.st84{fill:#616F59;}
	.st85{fill:#616D58;}
	.st86{fill:#585649;}
	.st87{fill:#2A2121;}
	.st88{fill:#69785F;}
	.st89{fill:#92595A;}
	.st90{fill:#2B1F1D;}
	.st91{fill:#884B4C;}
	.st92{fill:#8E5454;}
	.st93{fill:#373C34;}
	.st94{fill:#2F3131;}
	.st95{fill:#5F6B57;}
	.st96{fill:#67735E;}
	.st97{fill:#622B2B;}
	.st98{fill:#343A2F;}
	.st99{fill:#413124;}
	.st100{fill:#66725F;}
	.st101{fill:#4F1D1A;}
	.st102{fill:#423827;}
	.st103{fill:#5E665B;}
	.st104{fill:#5B6052;}
	.st105{fill:#33392F;}
	.st106{fill:#5E7050;}
	.st107{fill:#595344;}
	.st108{fill:#617155;}
	.st109{fill:#455B5B;}
	.st110{fill:#7F4343;}
	.st111{fill:#975F5F;}
	.st112{fill:#2F3529;}
	.st113{fill:#383C26;}
	.st114{fill:#2A3025;}
	.st115{fill:#2D3823;}
	.st116{fill:#B1D684;}
	.st117{fill:#6C3131;}
	.st118{fill:#4D613E;}
	.st119{fill:#6E3232;}
	.st120{fill:#2F1617;}
	.st121{fill:#393F35;}
	.st122{fill:#303822;}
	.st123{fill:#301818;}
	.st124{fill:#2F4C4C;}
	.st125{fill:#32372B;}
	.st126{fill:#495C5A;}
	.st127{fill:#5A2E27;}
	.st128{fill:#343A30;}
	.st129{fill:#323629;}
	.st130{fill:#434842;}
	.st131{fill:#262D24;}
	.st132{fill:#291B1A;}
	.st133{fill:#2A2624;}
	.st134{fill:#5B6155;}
	.st135{fill:#33382B;}
	.st136{fill:#3A4E4D;}
	.st137{fill:#282E23;}
	.st138{fill:#501B19;}
	.st139{fill:#354040;}
	.st140{fill:#231414;}
	.st141{fill:#5C2121;}
	.st142{fill:#5E2625;}
	.st143{fill:#384342;}
	.st144{fill:#A3BDBD;}
	.st145{fill:#568A8A;}
	.st146{fill:#7FBBBA;}
	.st147{fill:#9E6767;}
	.st148{fill:#444349;}
	.st149{fill:#E0CDCD;}
	.st150{fill:#315151;}
	.st151{fill:#619999;}
	.st152{fill:#96D4D3;}
	.st153{fill:#583824;}
	.st154{fill:#5B5343;}
	.st155{fill:#1D120F;}
	.st156{fill:#559B5D;}
	.st157{fill:#595141;}
	.st158{fill:#565451;}
	.st159{fill:#838B82;}
	.st160{fill:#868F82;}
	.st161{fill:#848A83;}
	.st162{fill:#858E82;}
	.st163{fill:#848B82;}
	.st164{fill:#879181;}
	.st165{fill:#747971;}
	.st166{fill:#828883;}
	.st167{fill:#777D72;}
	.st168{fill:#787D73;}
	.st169{fill:#879581;}
	.st170{fill:#8AA082;}
	.st171{fill:#879980;}
	.st172{fill:#889882;}
	.st173{fill:#889C82;}
	.st174{fill:#5A3B6D;}
	.st175{fill:#40235F;}
	.st176{fill:#4D2D69;}
	.st177{fill:#4D2D6C;}
	.st178{fill:#B9B8BC;}
	.st179{fill:#FACA6E;}
	.st180{fill:#BABABC;}
	.st181{fill:#9C92A8;}
	.st182{fill:#54317A;}
	.st183{fill:#9D94A9;}
	.st184{fill:#A39CAD;}
	.st185{fill:#4E2F6B;}
	.st186{fill:#4F306C;}
	.st187{fill:#040404;}
	.st188{fill:#B6B5B7;}
</style>
<g id="Layer_1">
	<g>
		<path class="st0" d="M160.7,94.1c1.7,1.6,3.1,3.2,4.5,4.9c2.1,2.7,4,5.6,5.3,8.8c1.4,3.6,2.6,7.4,3.6,11.3
			c0.5,2.5,0.9,4.9,1.2,7.4c0.1,1.6,0.4,3.1,0.5,4.7c0.3,1.9,0.3,3.8,0.3,5.7c0,1,0,2.1,0.8,2.9c0.4,0.5,0.9,1,1.4,1.4
			c0.6,0.5,1.3,0.9,2.1,1.3c1.3,0.5,2.6,1.3,3.9,1.9c1.2,0.6,1.7,1.7,1.7,2.9c0,0.9,0,1.8,0,2.6c0,1.2-0.6,2.2-1.4,3.1
			c-1.9,2.2-4.1,4.1-6.5,6c-0.1,0.1-0.3,0.3-0.5,0.4c-0.6,0.5-0.9,1.2-0.8,2.2c0.1,1.3,0.3,2.7-0.1,4c-0.1,0.4,0,0.8,0,1
			c0,0.9,0,1.8,0,2.6c0,0.9-0.3,1.7-0.9,2.3c-0.5,0.6-1,1.2-1.7,1.7c-1.6,1.4-2.2,3.4-2.2,5.4c-0.1,1.9,0,3.8-0.1,5.7
			c-0.1,2.7-1.4,4.8-3.5,6.5c-1.9,1.6-4.1,2.3-6.6,2.2c-1.3,0-2.7,0-4,0c-3,0-5.7-1-8.2-2.6c-2.5-1.6-4.5-3.5-6.9-5.2
			c-0.5-0.4-1.2-0.8-1.8-1c-0.3-0.1-0.5-0.1-0.8,0.1c-0.4,0.4-0.6,0.9-0.8,1.4c-0.3,1.2-0.5,2.2-0.5,3.4c0,3-0.1,5.8-0.8,8.8
			c-0.4,1.8-1.2,3.5-2.3,4.9c-0.8,1-1.9,1.7-3,2.3c-2.9,1.4-5.8,2.2-8.9,2.6c-1.9,0.3-3.8,0-5.7,0.1c-1.2,0-2.3,0.1-3.5,0.1
			c-3.8,0-7.4-0.4-11-1.4c-3.5-0.9-6.9-2.1-10-4c-1.2-0.6-2.2-1.6-3-2.6c-0.5-0.6-0.8-1.3-0.6-2.1c0-1.7-0.1-3.4,0.4-4.9
			c0.3-0.9,0.5-1.8,0.8-2.7c0.9-3.5,0.5-6.9-0.8-10.1c-1.3-3.5-3.4-6.6-5.7-9.5c-2.7-3.1-5.4-6.2-7.9-9.6c-1.7-2.3-3.4-4.7-4.8-7.3
			c-1.4-2.6-2.6-5.4-3.2-8.4c-0.6-3.1-1.2-6.2-1-9.3c0.1-2.1,0-4.3,0.1-6.3c0.1-1.4,0.3-2.9,0.5-4.3c0.3-1.9,0.8-3.9,1.2-5.8
			c0.6-2.3,1.2-4.7,1.8-7c0.6-2.5,1.6-4.9,2.7-7.3c1.2-2.1,2.6-4,4.1-5.8c0.8-1,1.6-1.9,2.5-2.9c1.9-1.9,4.1-3.6,6.3-5.3
			c4.7-3.6,9.7-6.3,15.2-8.4c2.3-0.9,4.7-1.4,7.1-1.8c3.2-0.5,6.3-1,9.6-1c1.7,0,3.5-0.1,5.2-0.1c2.3,0.1,4.8,0.1,7.1,0.5
			c1.3,0.1,2.6,0.3,3.9,0.4c2.9,0.3,5.6,0.9,8.3,1.9c2.9,1,5.4,2.3,7.9,3.9c0.8,0.5,1.4,0.9,2.2,1.4c0.1,0.3,0,0.6-0.1,0.9
			c-0.5,0.9-1.3,1.7-1.8,2.5c-0.1,0.3-0.4,0.3-0.8,0.3c-1.6-0.9-3-1.9-4.5-2.7c-3.8-2.2-7.8-3.4-12-4c-1.4-0.3-2.9-0.4-4.3-0.5
			c-1-0.1-1.2,0-1.2,1c0,2.1,0,2.1,1.9,1.7c3.8-0.8,8,1.4,10.1,5.1c3.4,6.2-0.6,13.9-7.6,14.6c-1.2,0.1-2.3,0-3.4-0.3
			c-0.9-0.3-1-0.3-1,0.8c0,6.5,0,12.8,0,19.3c0,0.1,0,0.3,0,0.4c0,0.5,0.3,0.8,0.8,0.8c6.6,0,13.2,0,19.7,0c1.6,0,1.6-0.1,1-1.7
			c-2.1-6,1.2-11.7,6.9-13c4-0.9,7.9,0.6,10.2,4.3c2.1,3.4,2.1,6.9,0,10.2c-0.4,0.6-0.4,0.8,0.4,0.8c0.9,0,1.8,0,2.6,0.1
			c0.6,0.1,0.6-0.4,0.6-0.9c-0.3-3.2-0.8-6.3-1.8-9.3c-0.9-3.2-1.8-6.3-3.4-9.5c-1.7-3.4-3.8-6.3-6.2-9.1c-0.5-0.6-1.2-1.3-1.7-1.9
			c-0.1-0.3-0.1-0.5,0.1-0.8c0.8-0.9,1.4-1.9,2.1-2.9C160.5,94.1,160.6,94.1,160.7,94.1z"/>
		<path class="st1" d="M215.7,255.9c-3.2,0-6.3-0.4-9.5-1.4c-4.9-1.6-9.3-4-13.2-7.4c-3.4-3-6.1-6.6-8.2-10.6
			c-1.8-3.8-3-7.6-3.4-11.8c-0.5-6,0.4-11.8,3.1-17.1c2.5-4.9,6.1-8.8,10.9-11.7c0.5-0.4,1-0.6,1.7-0.9c0.5-0.3,0.5-0.5,0.5-1
			c-0.1-2.5-1.2-4.7-2.3-6.7c-1.2-2.1-2.7-3.8-4.4-5.4c-0.5-0.4-0.5-1.3-0.3-2.1c0.4-0.9,1-1.3,1.9-1.6c1.6-0.4,3.1-0.5,4.7-0.1
			c2.7,0.5,5.3,1.4,7.6,2.7c2.7,1.4,5.3,3.2,7.3,5.8c1,1.3,1.7,2.9,2.5,4.3c0.4,0.6,0.8,0.9,1.6,1c2.3,0.3,4.5,0.9,6.7,1.7
			c4.8,1.7,8.9,4.4,12.6,7.9c3.1,3.1,5.7,6.6,7.5,10.6c1.4,3.2,2.5,6.6,2.9,10.2c0.5,5.6-0.1,11-2.5,16.2
			c-2.2,5.1-5.7,9.1-10.2,12.2c-3.8,2.6-7.9,4.1-12.6,4.9C219,255.8,217.3,255.9,215.7,255.9z"/>
		<path class="st1" d="M41,255.9c-6.5,0-12.2-1.6-17.2-4.9c-7.1-4.7-11.3-11.3-12.8-19.6c-1.2-6.6-0.3-13.1,2.5-19.2
			c4.3-9.3,11.4-15.5,21-18.9c1.8-0.6,3.8-1,5.7-1.3c0.8-0.1,1.3-0.4,1.7-1.2c0.9-1.6,1.6-3.1,2.7-4.5c1.2-1.4,2.6-2.5,4-3.5
			c3.2-2.3,7-3.6,10.8-4.5c1.6-0.4,3.1-0.3,4.5,0.1c1.3,0.4,2.1,1.3,2.1,2.6c0,0.4-0.1,0.6-0.4,0.9c-2.2,2.1-3.9,4.7-5.3,7.4
			c-0.8,1.6-1.3,3.4-1.4,5.2c0,0.5,0.3,0.6,0.5,0.8c1.6,0.8,3,1.7,4.3,2.7c3.9,3,6.9,6.7,8.9,11.3c1.4,3.1,2.2,6.2,2.5,9.6
			c0.6,7.3-0.9,14.1-4.8,20.3c-3.2,5.4-7.8,9.6-13.2,12.7c-3.8,2.1-7.8,3.4-12,4C43.7,255.8,42.2,255.9,41,255.9z"/>
		<path class="st1" d="M215.8-0.1c6.2,0,11.9,1.6,17.1,5.1c3.9,2.5,6.9,5.8,9.2,9.8c2.1,3.6,3.4,7.5,3.8,11.5
			c0.6,5.6-0.1,10.9-2.3,16.2c-2.1,5.2-5.3,9.6-9.5,13.2c-4.7,4.1-10.1,6.9-16.3,8c-0.6,0.1-1.4,0.3-2.2,0.4c-0.4,0-0.6,0.3-0.8,0.6
			c-0.5,1-1,1.9-1.6,3c-1,1.9-2.5,3.4-4.1,4.7c-3.5,2.9-7.6,4.4-11.9,5.4c-1.7,0.4-3.4,0.3-4.9-0.3c-1-0.4-1.7-1-1.8-2.2
			c0-0.5,0.1-0.9,0.5-1.3c2.7-2.7,4.9-5.8,6.1-9.5c0.4-0.9,0.4-1.9,0.5-3c0-0.3-0.1-0.4-0.4-0.5c-0.6-0.4-1.3-0.6-1.9-1
			c-4.3-2.6-7.8-6.2-10.2-10.6c-1.7-3-2.7-6.1-3.4-9.3c-0.5-2.9-0.6-5.8-0.4-8.7c0.3-3.1,1-6.1,2.2-9.1c1.4-3.6,3.5-7,6-10
			c3.4-4,7.5-7.1,12.3-9.2c3.4-1.6,6.9-2.5,10.5-2.9C213.5-0.1,214.6-0.1,215.8-0.1z"/>
		<path class="st0" d="M116.5,47.2c1,0.9,2.1,1.4,3,1.9c0.8,0.5,1.3,1.2,1.4,2.1s-0.4,1.7-1,2.2c-0.8,0.5-1.7,0.6-2.5,0.1
			c-0.8-0.4-1.4-0.9-2.2-1.4c-2.6-1.7-5.2-3.4-7.8-5.2c-1.2-0.8-1.4-1.7-1.2-2.6c0.1-0.5,0.5-0.9,1-1.2c3.1-2.2,6.1-4.3,9.2-6.5
			c1.2-0.8,2.5-0.6,3.1,0.4c0.9,1.3,0.8,2.5-0.4,3.4c-0.6,0.4-1.2,0.8-1.8,1.3c-0.1,0.1-0.4,0.1-0.4,0.4c0.3,0.4,0.8,0.3,1.2,0.3
			c3.1,0,6.2,0,9.3,0.1c6.3,0.3,12.8,0,19.2,0.1c5.6,0,11,0,16.6,0c1.9,0,3.5-0.6,4.9-1.8c2.3-1.9,3.5-4.4,3.5-7.4
			c0-1.9-0.6-3.9-1.8-5.6c-1.4-2.1-3.5-3.2-5.8-3.9c-0.4-0.1-0.8,0-1,0c-25.1,0-50.3,0-75.5,0c-0.5,0-0.9,0-1.3-0.1
			c-1-0.3-1.7-1-1.8-2.1c0-1.2,0.5-2.1,1.6-2.3c0.4-0.1,0.8-0.1,1.3-0.1c2.6,0,5.2,0,7.8,0c21.5,0,43,0,64.5,0c1.3,0,2.7,0,4,0.1
			c1.3,0,2.5,0.3,3.6,0.8c5.2,2.2,8.3,6,8.9,11.5c0.6,4.5-0.8,8.4-3.9,11.7c-2.3,2.5-5.3,4-8.8,4c-10.8,0-21.4,0-32.1,0
			c-1.8,0-3.8,0.3-5.6,0.1c-2.9-0.1-5.6-0.1-8.4-0.1C117.1,47.2,116.9,47.2,116.5,47.2z"/>
		<path class="st2" d="M151,91.5c0.1,0,0.3,0,0.3-0.1c0.6-0.9,1.3-1.7,1.9-2.6c0.1-0.3,0.3-0.5,0.3-0.8c0.6-0.5,1-1.2,1.4-1.8
			c1-1.4,2.1-2.9,3.1-4.3c0.4-0.4,0.6-0.9,1-1.6c-0.9,0.3-1.6,0.5-2.2,0.8c-1.6,0.6-3.1,1.3-4.7,1.9c-1.8,0.6-3.6,0.8-5.3-0.4
			c-0.4-0.3-0.8-0.6-0.9-1c-0.4-1.2-0.8-2.2-0.5-3.5c0.4-1.9,1.6-2.9,3.2-3.5c2.9-1.2,5.7-2.2,8.4-3.4c2.1-0.9,4.1-1.7,6.3-2.5
			c2.2-0.8,4.4-1.7,6.7-2.5c1.8-0.6,3.9,0.1,4.8,1.7c0.4,0.6,0.5,1.6,0.5,2.3c0,7.4,0,14.8,0,22.2c0,0.1,0,0.1,0,0.3
			c-0.1,1.6-1.3,3.5-3.1,3.8c-1.2,0.1-2.2,0.3-3.4-0.1c-0.9-0.4-1.6-1-1.9-1.9c-0.3-0.6-0.5-1.3-0.5-2.1c0-1.8,0-3.6,0-5.4
			c0-0.3,0-0.6-0.1-1c-2.1,2.7-4,5.4-6,8.2c-0.9,1.2-1.8,2.3-2.6,3.6c0,0.3-0.1,0.4-0.3,0.5c-1.7,2.2-3.2,4.7-5.1,6.7
			c-1.4,1.6-3.1,2.5-5.2,1.8c-3.4-1-4.3-4.4-2.7-7.1c1.7-2.9,3.6-5.4,5.7-8C150.7,91.7,150.9,91.7,151,91.5z"/>
		<path class="st0" d="M217.7,165.4c0.1-0.3,0.3-0.6,0.3-1c0-3.1,0-6.2,0.1-9.3c0.3-28.2,0-56.5,0.1-84.7c0-0.8,0-1.6,0.1-2.3
			c0-1.2,1-2.1,2.2-2.1c1.2,0,2.1,0.8,2.2,2.1c0.1,1,0.1,2.2,0.1,3.2c0,26.8,0,53.8,0,80.6c0,0.9,0.3,1.8,0.1,2.7
			c-0.1,3.5-0.1,7-0.1,10.5c0,0.1,0,0.3,0,0.5c0.5-0.3,0.6-0.6,0.9-1c0.4-0.5,0.8-1.2,1.2-1.8c0.5-0.6,1.2-1.2,1.9-1.3
			c0.9-0.1,1.6,0.4,2.1,1c0.5,0.8,0.6,1.6,0.3,2.5c-0.1,0.4-0.4,0.8-0.6,1c-1.9,3-4,6.1-6,9.1c-0.5,0.8-1.3,1.3-2.3,1.2
			c-0.6-0.1-1-0.6-1.4-1c-1.3-1.9-2.6-3.8-4-5.7c-0.8-1.2-1.6-2.3-2.5-3.4c-0.4-0.6-0.5-1.3-0.4-1.9c0.3-1,1-1.6,1.9-1.8
			c0.9-0.3,1.7,0.1,2.2,0.9c0.5,0.6,0.9,1.3,1.4,1.9C217.5,165.1,217.5,165.4,217.7,165.4z"/>
		<path class="st0" d="M34,90.4c-0.5,0.6-0.9,1.3-1.3,1.9s-0.8,1.3-1.4,1.7c-1.2,0.8-1.9,0.8-2.9-0.1s-1.2-1.9-0.5-3
			c0.5-0.8,1-1.7,1.6-2.5c1.7-2.5,3.2-4.9,4.9-7.4c0.5-0.9,1.3-1.6,2.3-1.3c0.8,0.1,1.2,0.6,1.6,1.2c1.6,2.1,3,4.3,4.4,6.3
			c0.6,0.9,1.3,1.8,1.9,2.7c0.5,0.6,0.6,1.4,0.4,2.2c-0.3,0.9-1,1.3-1.8,1.6c-0.8,0.3-1.7-0.1-2.2-0.9c-0.5-0.6-0.9-1.3-1.4-1.9
			c-0.1-0.1-0.1-0.4-0.4-0.4c-0.3,0.3-0.1,0.6-0.1,0.9c0,1.6,0,3.2,0,4.8c-0.3,15.3-0.1,30.7-0.1,46c0,4,3.4,8,7.4,8.7
			c0.4,0.1,0.8,0.1,1.2,0.1c6,0,12,0,18,0c0.3,0,0.5,0,0.8,0c0.6,0.1,1.3,0.3,1.7,0.6c0.8,0.8,0.9,1.6,0.5,2.5
			c-0.3,0.9-1.2,1.4-2.1,1.4c-0.1,0-0.4,0-0.5,0c-4.7,0-9.3,0-14,0c-1.4,0-2.9,0-4.1,0c-3.1,0-5.8-1-8.2-3.1
			c-1.7-1.4-3.2-3.1-4.1-5.2c-0.6-1.6-1-3.2-1-5.1c0-12.8,0-25.7,0-38.5c0-3-0.1-5.8,0-8.8c0-1.4,0.1-2.9,0.1-4.3
			C34.2,90.7,34.2,90.6,34,90.4z"/>
		<path class="st0" d="M89,226c0.4,0.1,0.8,0.1,1.2,0.1c3.2,0,6.3,0.1,9.6,0.1c1.8,0,3.5,0,5.3,0c20,0,39.8,0,59.7,0
			c0.9,0,1.7,0.1,2.3,0.8c0.6,0.6,0.9,1.6,0.5,2.5c-0.4,0.9-1,1.4-1.9,1.4c-0.3,0-0.5,0-0.8,0c-20.6,0-41.3,0-61.9,0
			c-0.8,0-1.6,0.1-2.2,0.1c-3.5-0.1-7.1-0.1-10.6-0.1c-0.3,0-0.5,0-0.8,0c0,0.4,0.4,0.5,0.6,0.6c0.6,0.5,1.4,0.9,2.1,1.3
			c0.8,0.5,1.3,1.3,1.3,2.3c0,1.2-1.6,2.5-2.9,2.2c-0.5-0.1-0.9-0.4-1.3-0.6c-3.1-2.1-6.2-4.1-9.5-6.2c-0.9-0.6-1.3-1.6-1.2-2.5
			c0.1-0.6,0.6-1,1.2-1.4c2.9-1.9,5.7-4,8.6-6c0.5-0.4,1-0.8,1.8-0.9c0.8-0.1,1.4,0.1,1.8,0.8c1.2,1.4,0.9,2.7-0.5,3.8
			C90.4,225,89.7,225.5,89,226z"/>
		<path class="st3" d="M93.7,126.5c0.1,0.3,0.1,0.5-0.3,0.5c-0.5-0.1-1,0-1.7,0c-6.2,0-12.3,0-18.5,0c-0.1,0-0.3,0-0.4,0
			c-0.8,0-0.8,0-0.6-0.8c0.9-4.8,2.1-9.5,3.5-14.1c0.8-2.7,2.2-5.2,4-7.5c1.7-2.2,3.5-4.4,5.7-6.3c1.6-1.3,3.1-2.6,4.8-3.9
			c2.5-1.9,5.1-3.5,7.8-4.9c2.6-1.4,5.4-2.6,8.3-3.5c2.7-0.8,5.6-1.3,8.4-1.7c2.9-0.4,5.7-0.5,8.6-0.5c0.6,0,1.4,0.1,2.1,0.1
			c0.5,0,0.6,0.3,0.6,0.6c0,1.7,0,3.4,0,5.1c0,0.3,0,0.4,0,0.6c0,0.4,0.1,0.5,0.5,0.5c0.8,0,1.6-0.1,2.2-0.5
			c1.6-0.9,3.4-0.9,5.1-0.5c2.6,0.6,4.4,2.3,5.2,4.9c1.4,4.5-1.8,9.1-6.2,9.5c-1.2,0.1-2.3,0-3.4-0.4c-0.9-0.3-1.7-0.5-2.7-0.5
			c-0.6,0-0.6,0-0.6,0.6s0,1.3,0,1.9c0,7,0,14,0,21c0,0.1,0,0.3,0,0.4c0,0.6,0,0.6-0.6,0.6c-0.1,0-0.4,0-0.5,0c-3.6,0-7.4,0-11,0
			c-0.9,0-1.8,0.1-2.7,0c-0.1-0.3,0.1-0.5,0.3-0.6c2.7-4.3,2.2-9.3-1.3-12.8c-3.6-3.8-9.3-4.3-13.5-1.2c-2.2,1.6-3.6,3.8-4.1,6.5
			c-0.5,2.1-0.1,4,0.6,6C93.4,125.9,93.5,126.2,93.7,126.5z"/>
		<path class="st4" d="M179.9,148.8c-0.9,1.3-2.1,2.3-3.2,3.4c-1.6,1.4-3.2,2.7-4.7,4.1c-0.8,0.8-1.2,1.6-1.2,2.6c0,0.9,0,1.7,0,2.6
			c0,0.3,0,0.5,0.1,0.8c0.1,0.3,0.4,0.6,0,0.9c-0.4,0.4-0.6,0.8-1.3,0.8c-0.6,0-1.4-0.1-2.1-0.3c-0.5-0.1-1.2,0.1-1.4-0.3
			c-0.4-0.4-0.3-1-0.4-1.4c-1.2-4-3.6-6.6-7.8-7.4c-1.6-0.3-3.2-0.4-4.9-0.1c-1,0.1-2.1,0.3-3,0.6c-2.1,0.6-3.6,2.1-4.8,3.9
			c-1.2,1.7-1.4,3.6-1.6,5.7c0,1.3,0,2.6,0.3,3.9c0.1,0.4,0,0.5-0.4,0.5c-0.1,0-0.4,0-0.5,0c-4.5,0-9.2,0-13.7,0c-0.3,0-0.4,0-0.6,0
			c-0.3,0-0.4-0.1-0.4-0.5c0-0.3,0-0.5,0-0.8c0.1-3.1,0-6.2,0-9.3c0-0.9-0.1-1-1-1c-1.3,0-2.6,0-3.9,0c-0.5,0-1,0.3-1.4,0.5
			c-0.9,0.4-1.7,0.3-2.5-0.1c-2.2-0.9-3.5-2.7-4.1-4.9c0-0.3,0-0.4,0-0.6c0.6-2.5,2.2-4.1,4.5-5.1c0.6-0.3,1.2-0.3,1.8,0
			c0.6,0.3,1.2,0.5,1.7,0.9c0.4,0.3,0.9,0.4,1.4,0.4c1.3,0,2.6-0.1,3.9-0.1c0.6,0,1-0.3,1.2-1c0-0.8,0-1.6,0-2.3
			c0-0.5-0.1-0.9-0.1-1.4c0-3.5,0-7,0-10.6c0-0.3,0-0.5,0-0.8c0-0.3,0.1-0.4,0.5-0.5c0.3,0,0.5,0,0.8,0c6.7,0,13.5,0,20.2,0
			c1.2,0,2.3-0.3,3.5-0.1c0.4,0,0.5-0.1,0.5-0.5c0-1.4,0-3,0-4.4c0-0.4-0.1-0.6-0.4-1c-0.5-0.6-0.9-1.4-1.2-2.2
			c-0.3-0.8,0-1.6,0.4-2.2c0.9-1.9,2.3-3.2,4.4-4c0.6-0.3,1.2-0.1,1.8,0c2.3,0.9,3.9,2.6,4.5,5.1c0.3,0.9-0.1,1.7-0.5,2.5
			c-0.4,0.9-1,1.6-1.8,2.2c-0.4,0.3-0.5,0.6-0.5,1.2c0,1.3,0,2.7,0,4c0,0.6,0.3,0.8,0.8,0.8c1.8,0,3.6,0,5.4,0
			c0.5,0,0.9-0.3,1.4-0.1c0.8,0,0.9,0,0.9,0.9c0.3,2.2,0.5,4.5,0.4,6.7c0,0.4,0,0.8,0.1,1.2c0.1,1.3,0.9,2.3,1.8,3.4
			c1.2,1.2,2.5,2.1,4,2.7C177.8,147.7,178.9,148.3,179.9,148.8z"/>
		<path class="st3" d="M98.2,198.3c-0.6-0.5-1.4-0.9-2.1-1.6c-0.4-0.4-0.5-0.6-0.4-1.3c0.6-1.8,0.9-3.8,1.2-5.8
			c0.1-1.6,0.1-3.2,0.1-4.8c-0.1-4.1-0.9-8.2-3.2-11.9c0-0.1-0.1-0.3-0.1-0.3c-0.5-0.8-0.9-1.7-0.8-2.6c0-0.4,0-0.9,0-1.3
			c0-0.8-0.3-1.4-0.6-2.1c-0.9-1.4-1-2.9-0.1-4.4c1-1.7,2.3-2.9,4.3-3.5c0.5-0.1,1.2-0.3,1.7,0c1.6,0.5,2.9,1.3,3.8,2.7
			c1.4,2.2,1.4,3.2,0.1,5.3c-0.4,0.5-0.6,1.2-1.2,1.6c-0.3,0.1-0.4,0.4-0.4,0.8c0,1.2,0,2.2,0,3.4c0,0.1,0.1,0.3,0.1,0.4
			c0.1,0.6,0.5,0.8,1.2,0.8c6.7-0.1,13.5-0.1,20.2-0.1c0.4,0,0.9-0.1,1.2,0.1c0,1,0,2.2,0,3.2c0,1.9,0,4,0,6c0,0.8,0.1,0.9,0.9,0.9
			c1.4,0,3,0.1,4.4-0.1c0.1,0,0.4,0,0.5,0.1c1.3,0.4,2.6,0.9,3.5,1.9c1,1,1.3,1.4,1,2.9c-0.1,0.9-0.1,1.8-0.1,2.9
			c0,0.5-0.1,1.2-0.3,1.7c0,0.4-0.3,0.6-0.5,0.9c-1.3,1.2-2.6,2.1-4.4,2.2c-1.6-0.1-3-0.1-4.5-0.1c-1,0-1.4,0.4-1.6,1.4
			c-0.1,1.3-0.1,2.6-0.1,3.9c0,1.2-0.1,1.3-1.3,1.2c-0.4,0-0.8-0.1-1.2,0.1c-0.3,0.3-0.5,0.1-0.9,0.1c-1.9,0-3.9,0-5.7,0
			c-0.8,0-1.7-0.1-2.5-0.3l0,0c-0.1-0.1-0.4,0-0.5-0.1c-0.5-0.1-1-0.3-1.6-0.3c-1.4,0-2.6-0.5-3.9-0.9c-1.9-0.5-3.8-1.2-5.6-2.2
			c-0.1,0-0.3-0.1-0.3-0.1s-0.1,0-0.1-0.1c-0.1,0-0.1-0.1-0.3-0.1c0,0-0.1,0-0.1-0.1c-0.1,0-0.1-0.1-0.3-0.1
			C98.2,198.4,98.2,198.3,98.2,198.3z"/>
		<path class="st5" d="M151,91.5c0,0.3-0.1,0.4-0.3,0.5c-0.9,1.3-1.9,2.6-2.9,3.9c-0.9,1.2-1.7,2.5-2.6,3.6c-0.9,1.2-0.9,4-0.1,5.1
			c1.4,1.7,2.7,2.5,4.9,2.1c1-0.3,1.9-0.9,2.6-1.7c1.6-1.9,3-4,4.4-6c0.4-0.5,0.6-0.9,1-1.3c4.7,4.7,8.3,10,10.2,16.5
			c1,3.4,2.1,6.6,2.6,10.1c0.1,1.3,0.4,2.6,0.5,3.9c0,0.5,0,0.6-0.5,0.6c-1.3-0.1-2.6,0-3.8-0.1c-0.5,0-0.5-0.1-0.3-0.5
			c0.9-1.2,1.4-2.6,1.7-4c0.5-2.7-0.1-5.3-1.9-7.4c-2.5-3-5.7-4.1-9.5-3.4c-3.9,0.9-6.3,3.5-7.1,7.4c-0.4,2.1-0.1,4.1,0.9,6.1
			c0.1,0.1,0.1,0.3,0.3,0.4c0.1,0.3,0.1,0.5-0.3,0.5c-0.6,0-1.2,0.1-1.8,0.1c-6.5,0-13.1,0-19.6,0c-0.1,0-0.4,0-0.5,0
			c-0.3,0-0.4-0.1-0.4-0.5c0-0.1,0-0.4,0-0.5c0-6.6,0-13.3,0-20v-0.1c0-0.9,0-0.9,0.9-0.6c5.3,1.7,11.3-1.8,12.3-7.4
			c1.2-6-3.5-11.4-9.5-11.5c-1,0-1.9,0.1-3,0.4c-0.5,0.1-0.6,0.1-0.6-0.4c0-0.9,0-1.8,0-2.6c0-0.4,0-0.6,0.5-0.6
			c3.1,0.4,6.3,0.6,9.5,1.4c2.6,0.6,5.2,1.7,7.5,3C147.8,89.3,149.5,90.4,151,91.5z"/>
		<path class="st3" d="M137.7,172.6c3,0,6.1,0,9.1,0c0.3,0,0.4,0,0.6,0c1,0,1,0,1-1c0-0.3,0-0.5,0-0.8c0-1.3-0.1-2.5-0.4-3.6
			c-1-3.5,0.9-7.8,5.1-8.9c3.5-1,7.3,0.8,8.7,4.3c0.1,0.4,0.4,0.8,0.4,1.2c0,0.4-0.1,0.5-0.5,0.4c-0.6-0.1-1.3-0.3-1.9-0.5
			c-1-0.4-2.1-0.5-3-0.9c-0.4-0.1-0.8-0.4-1.2-0.6c-0.8-0.5-1.4-0.3-1.8,0.4c-0.4,0.8,0,1.4,0.8,1.8c1.3,0.6,2.6,1,3.9,1.4
			c1.8,0.5,3.6,0.9,5.4,1.4c1,0.3,2.2,0.4,3.4,0.5c1.4,0.3,2.9,0.1,4.3,0.4c0.4,0.1,0.8,0.3,1.2,0.3c0.4,0,0.4,0.3,0.3,0.5
			c-0.3,0.3-0.4,0.5-0.6,0.8c-0.9,0.9-1.8,1.8-2.3,3c-1,1.9-1.6,4.1-1.3,6.3c0.1,1.6,0.1,3.1-0.1,4.7c-0.5,3-2.3,4.8-5.2,5.6
			c-3.8,1-7.3,0.4-10.4-1.8c-2.1-1.3-4-2.9-5.8-4.4c-0.9-0.8-1.9-1.4-3-1.9c-1.4-0.6-2.9-0.9-4.4-0.8c-1,0.1-1.8,0.9-2.5,1.7
			c-0.3,0.3-0.4,0.5-0.5,0.8c-0.4,0.5-0.4,0.5-0.8,0.1c-1.4-1.2-3-1.9-4.8-2.3c-0.9-0.3-1.8-0.3-2.9-0.1c-0.8,0-0.8,0-0.8-0.8
			c0-1.9,0-4,0-6c0-0.6,0-0.8,0.6-0.8C131.1,172.6,134.3,172.6,137.7,172.6L137.7,172.6z"/>
		<path class="st6" d="M125.9,201.5c0-0.4,0-0.6,0-1c0-0.8,0.1-0.8,0.8-0.6c0.8,0.1,1.4,0.3,2.2,0.3c1.2,0,2.3-0.3,3.5-0.6
			c0.1,0,0.3-0.1,0.4-0.1s0.3,0,0.4,0.1s0,0.3,0,0.4c-0.1,0.3-0.4,0.4-0.5,0.6c-1.4,1.3-3,1.9-4.8,2.6c-0.3,0.1-0.6,0.1-0.9,0.3
			c-0.9,0.3-0.9,0.3-0.9-0.6C125.9,202.2,125.9,201.8,125.9,201.5z"/>
		<path class="st7" d="M123.3,173.9c-3.4,0-6.9,0-10.2,0c-3.6,0-7.3,0-10.9,0c-0.1,0-0.4,0-0.5,0c-0.8,0-0.8,0-0.9-0.9v-0.1
			c0.1-0.1,0.1-0.1,0.1,0c0.3,0.8,0.3,0.8,1,0.8c1.2,0,2.3,0.1,3.5,0c5.7-0.4,11.4,0,17.1-0.1c0.3,0,0.5,0,0.8,0
			C123.3,173.7,123.4,173.7,123.3,173.9z"/>
		<path class="st8" d="M121.1,202.7c0.1,0,0.3,0,0.4,0c0.6-0.1,0.8-0.1,0.8-0.9c0-1.4,0-2.9,0-4.1c0-1,0.5-1.6,1.4-1.6
			c1.2,0,2.3,0,3.5,0c0.4,0,0.8,0.1,1.3,0.3c-0.3,0.3-0.4,0.1-0.6,0.1c-1.3-0.3-2.6-0.1-4-0.1c-0.8,0-1,0.4-1.2,1.3
			c-0.1,1.6-0.1,3-0.1,4.5c0,0.6-0.1,0.8-0.8,0.8C121.5,202.8,121.2,202.9,121.1,202.7z"/>
		<path class="st9" d="M99.2,198.8c2.7,1.4,5.7,2.3,8.7,3.1c0.3,0.1,0.6,0.1,0.9,0.3c-0.3,0.3-0.4,0.1-0.6,0.1
			c-1.8-0.5-3.6-0.9-5.4-1.6c-1.6-0.5-3-1.3-4.5-2.1c-0.1-0.1-0.3-0.3,0-0.4c0,0,0.1,0,0.1,0.1l0.1,0.1c0,0,0.1,0,0.1,0.1
			c0,0,0.1,0,0.1,0.1c0.1,0,0.1,0,0.3,0.1C99.1,198.8,99.2,198.8,99.2,198.8z"/>
		<path class="st10" d="M110.8,202.7c0.8-0.1,1.4,0.1,2.2,0.1c2.3,0,4.5,0,6.9,0c-0.1,0.3-0.5,0.3-0.8,0.3c-2.1,0-4.1,0-6.2,0
			C112.3,202.9,111.6,202.9,110.8,202.7z"/>
		<path class="st11" d="M93.7,126.5c-0.4-0.3-0.5-0.6-0.5-1C93.5,125.7,93.6,126.1,93.7,126.5z"/>
		<path class="st10" d="M110.3,202.4c0.1,0,0.4,0,0.5,0.1c-0.3,0-0.4,0-0.6,0c-0.1,0-0.1,0-0.1-0.1
			C110.2,202.4,110.3,202.4,110.3,202.4z"/>
		<path class="st12" d="M198.4,183.5c1.8,0.5,3.4,1.2,4.8,1.9c1.4,0.8,2.7,1.8,4,3c0.6,0.6,1.2,1.3,1.7,2.2c0.6,1.4,1.4,2.9,1.7,4.4
			c0,0.3,0.1,0.4,0.1,0.6c0.1,0.4,0.3,0.6,0.8,0.6c1.6,0.1,3.1,0.3,4.7,0.5c2.2,0.4,4.3,1,6.3,1.8c4.4,1.8,8.3,4.7,11.4,8.3
			c3.5,4.1,6,8.8,6.9,14.3c0.3,1.6,0.5,3.1,0.5,4.7c0,2.3-0.4,4.7-1,6.9c-0.9,3.6-2.7,6.9-5.2,9.7c-1.9,2.2-4.1,4-6.7,5.4
			c-3,1.7-6.1,2.6-9.5,3.1c-2.3,0.3-4.5,0.3-6.9-0.1c-1.7-0.3-3.4-0.6-5.1-1.2c-3.5-1.2-6.6-2.9-9.6-5.1c-4.1-3.2-7.1-7.3-9.2-12
			c-1.2-2.7-1.9-5.6-2.2-8.6c-0.1-0.9-0.1-1.8-0.1-2.7c0-3.1,0.6-6.2,1.8-9.1c1.4-3.9,3.9-7.1,6.9-9.7c1.3-1.2,2.7-2.1,4.1-2.9
			c0.8-0.4,1.4-0.8,2.2-1c0.5-0.3,0.8-0.5,0.8-1c0-0.3,0.1-0.4,0.1-0.6c0.4-2.7-0.1-5.4-0.8-8c-0.3-1.2-0.9-2.1-1.4-3.1
			C199.3,184.9,199.1,184.3,198.4,183.5z"/>
		<path class="st12" d="M57.9,183.6c-0.5,0.9-1,1.9-1.7,2.9c-0.9,1.8-1.4,3.6-1.7,5.6c-0.3,1.7-0.3,3.5,0,5.2
			c0.1,0.5,0.4,0.9,0.9,1.2c2.1,0.8,4,2.1,5.8,3.5c2.5,1.9,4.4,4.3,6.1,7.1c1.6,2.7,2.5,5.7,3,8.7c0.4,2.2,0.4,4.3,0.1,6.5
			c-0.3,2.2-0.8,4.3-1.3,6.2c-0.6,1.9-1.6,3.9-2.6,5.6c-1.4,2.5-3.2,4.8-5.3,6.7c-2.9,2.6-6,4.7-9.6,6.1c-2.5,1-4.9,1.6-7.4,1.9
			c-1.6,0.3-3.2,0.4-4.8,0.1c-4.9-0.4-9.5-1.8-13.5-4.7c-3.2-2.3-5.7-5.2-7.6-8.7c-1.3-2.5-2.2-5.1-2.6-7.8
			c-0.4-2.5-0.4-4.9-0.1-7.4c0.3-2.6,1-5.1,1.9-7.5c1.2-2.7,2.7-5.3,4.5-7.6c2.1-2.6,4.5-4.8,7.4-6.5c3.4-2.1,6.9-3.5,10.8-4.1
			c1.6-0.3,3-0.3,4.5-0.5c0.6-0.1,0.8,0,0.9-0.8c0.3-1.3,0.8-2.6,1.3-3.9c0.9-1.8,2.2-3.4,3.8-4.5c2.1-1.6,4.4-2.7,6.9-3.5
			C57.7,183.6,57.9,183.5,57.9,183.6z"/>
		<path class="st12" d="M198.7,72.2c1-1.8,1.9-3.4,2.6-5.2c0.5-1.3,1-2.7,0.8-4.1c-0.1-1.7-0.1-3.4-0.5-4.9c-0.1-0.5-0.4-0.8-0.8-1
			c-1.6-0.8-3.1-1.6-4.5-2.6c-1.2-0.9-2.6-1.7-3.6-2.9c-2.2-2.5-3.9-5.2-5.1-8.2c-0.8-2.2-1.3-4.4-1.6-6.7c-0.1-1.3-0.1-2.6-0.1-3.8
			c0.3-2.7,0.6-5.4,1.7-7.9c1-2.9,2.5-5.4,4.3-7.8c2.5-3.2,5.3-5.8,8.8-7.9c3.2-1.9,6.9-3.2,10.6-3.9c1.9-0.4,3.9-0.5,5.8-0.4
			c3.4,0.3,6.7,1,9.8,2.5c3.1,1.6,5.8,3.5,8,6.1c3,3.4,4.9,7.4,5.7,11.9c0.3,1.7,0.6,3.5,0.5,5.2c-0.1,3.6-0.9,7.3-2.3,10.6
			c-1.2,2.9-2.9,5.4-4.8,7.8c-2.3,2.6-4.9,4.9-7.9,6.6c-2.9,1.7-5.8,2.9-9.1,3.5c-1.2,0.3-2.5,0.5-3.6,0.5c-0.1,0-0.4,0-0.5,0
			c-0.5,0.1-0.9,0.3-1.2,0.8c-0.9,2.2-2.2,4-3.4,6c-0.6,0.9-1.4,1.6-2.3,2.2c-2.1,1.7-4.4,2.9-7,3.6
			C199.1,72.1,198.9,72.1,198.7,72.2z"/>
		<path d="M158.4,139.8c1.7,1.3,4.1,1.2,5.7-0.1c0.3-0.3,0.5-0.4,0.8-0.5c0.5-0.3,1.2,0,1.6,0.5c0.3,0.5,0.3,1-0.3,1.4
			c-1.2,0.9-2.3,1.7-4,1.8c-1.6,0.1-3.1,0-4.5-0.8c-0.5-0.3-1-0.6-1.6-1c-0.5-0.5-1-1-1.4-1.4c-0.5-0.5-0.5-1-0.1-1.6
			c0.3-0.4,0.9-0.5,1.4-0.3c0.3,0.1,0.5,0.4,0.8,0.5C157.4,138.9,157.9,139.5,158.4,139.8z"/>
		<path class="st13" d="M158.4,139.8c-0.6-0.3-1.2-0.8-1.4-1.4C157.5,138.8,158,139.2,158.4,139.8z"/>
		<path class="st0" d="M98.8,198.7l-0.1-0.1C98.8,198.5,98.8,198.7,98.8,198.7z"/>
		<path class="st0" d="M98.5,198.4l-0.1-0.1C98.4,198.4,98.4,198.4,98.5,198.4z"/>
		<path class="st0" d="M99.2,198.8l-0.1-0.1C99.1,198.8,99.2,198.8,99.2,198.8z"/>
		<path class="st0" d="M215.9,222.4c1.3-0.5,2.7-1.2,4.1-1.4c1.9-0.4,3.8,0.1,5.4,1c1,0.5,1.9,1.2,2.6,2.1c0.5,0.8,0.9,1.6,1,2.5
			c0.1,0.6,0.3,1.3,0.3,1.9c0,0.5,0.1,0.6,0.6,0.4c1-0.5,2.1-0.9,3.2-1.2c2.6-0.5,4.8,0.1,6.9,1.6c0.4,0.3,0.4,0.5,0.3,0.9
			c-0.3,0.5-0.5,1-0.8,1.6c-0.4,0.8-0.4,0.6-1.2,0.5c-0.9,1.9-1.9,3.9-2.9,5.8c-0.1,0.4-0.4,0.6,0.3,0.8c0.3,0.1,0.3,0.3,0.1,0.5
			c-0.3,0.6-0.6,1.3-0.9,1.9c-0.1,0.4-0.4,0.4-0.8,0.3c-2.9-0.9-4.9-2.6-6-5.4c-0.4-0.9-0.5-1.8-0.8-2.7c-0.3-0.1-0.4,0.1-0.5,0.1
			c-1.2,0.8-2.6,1.4-4,1.6c-0.8,0.1-1.4,0-2.1-0.1c-3.5-0.9-5.6-3.2-6.6-6.6c-0.1-0.5-0.3-1-0.5-1.7c-0.9,0.4-1.7,0.8-2.6,1
			c-3.5,1-6.6,0.3-9.2-2.2c-1.3-1.2-1.9-2.7-2.1-4.4c0-0.1,0-0.3,0-0.4c0-0.4-0.1-0.5-0.5-0.4c-0.4,0.1-0.8,0.4-1.2,0.5
			c-3.4,1.3-6.3,0.6-9.2-1.6c-1.2-0.9-1.2-0.8-0.4-2.2c0.1-0.4,0.4-0.6,0.5-1c0.3-0.5,0.3-0.5,0.9-0.1c0.1,0,0.1,0.1,0.3,0.1
			c0.3-0.6,0.6-1.2,0.9-1.8c0.5-1,1-2.1,1.6-3.2c0.4-0.9,0.4-0.9-0.6-1.2c0.4-0.9,0.8-1.7,1.3-2.5c0.3-0.5,0.8-0.4,1.2-0.3
			c1.2,0.3,2.3,0.6,3.4,1.3c1.9,1.3,3.4,3,3.9,5.3c0.1,0.5,0.1,1.2,0.5,1.3c0.4,0.3,0.9-0.3,1.3-0.4c1.2-0.4,2.3-0.8,3.6-0.8
			c2.2,0.1,4,0.8,5.6,2.2c1.7,1.4,2.5,3.4,3,5.4C215.7,222,215.7,222.2,215.9,222.4z"/>
		<path class="st0" d="M25.9,206.3c0.5-0.4,1.2-0.5,1.8-0.4c2.2,0.3,4.4,0.3,6.6,0.4c2.6,0.3,5.2,0.4,7.6,0.5
			c1.7,0.1,3.4,0.3,5.2,0.4c2.1,0.1,4.1,0.3,6.1,0.5c0.8,0.1,0.8,0.1,0.8,0.9c-0.1,1.7-0.3,3.2-0.5,4.9c-0.1,1.4-0.3,2.7-0.4,4.1
			c-0.1,1.7-0.4,3.4-0.5,4.9c-0.1,0.5,0.1,1.2-0.3,1.7c-0.3,0.4,0.1,0.9-0.4,1.2c-0.4,0.3-1,0.1-1.3,0.5c-0.4,0.1-0.8,0.1-1,0
			c-0.1,0-0.1-0.1-0.1-0.1c0-0.1,0-0.3,0.1-0.4c-0.1-0.1-0.3,0-0.4-0.1c-0.1,0-0.1,0-0.3-0.1c-0.1-0.1-0.3-0.3-0.1-0.5
			c0.4-0.4,0.9-0.4,1.4-0.4c1.3,0,1.3,0,1.4-1.4c0.3-2.7,0.5-5.4,0.8-8.3c0.3-1.7,0.3-3.4,0.5-5.1c0.1-1.2,0-1.3-1-1.4
			c-4.1-0.4-8.4-0.6-12.6-0.9c-3.8-0.3-7.5-0.5-11.3-0.8c-0.9-0.1-1.2,0-1,0.9c0.1,2.3,0.3,4.8,0.4,7.1c0.1,2.5,0.3,4.8,0.5,7.3
			c0,1,0.3,2.2,0.3,3.2c0,0.5,0.3,0.8,0.8,0.6c3.4-0.4,6.7-0.5,10.1-0.8c0.5,0,1-0.1,1.6,0.1c0.1,0.1,0.1,0.1,0.1,0.3
			c0,0.1,0,0.3,0,0.3c0,0.1-0.1,0.1-0.3,0.3c-0.1,0-0.1,0-0.3,0.1c-0.3,0-0.6,0-0.9,0c-0.5,0-1,0.1-1.6,0.1c-0.3,0-0.5,0-0.8,0
			c-0.6-0.1-1.3,0.1-1.9,0.1c-0.3,0-0.5,0-0.8,0c-0.5,0-0.9,0-1.4,0.1c-0.1,0-0.3,0-0.4,0.1c-0.3,0-0.5,0-0.8,0
			c-0.8,0-1.4,0.1-2.2,0.3c-0.1,0-0.1,0-0.3,0c-0.1,0-0.3,0-0.5,0c-0.9,0.1-1.2,0.3-0.9,1.2c0.9,3.1,1.6,6.2,2.3,9.2
			c0.3,1.2,0.5,2.2,0.9,3.4c0.3,1,0.4,1.2,1.4,0.9c6.7-1.3,13.5-2.6,20.2-3.9c3.4-0.6,6.7-1.3,10.1-1.9c0.3,0,0.4-0.3,0.6-0.1
			c0.5,0.9,0.3,1.6-0.8,1.8c-1.2,0.3-2.2,0.5-3.4,0.6c-1.9,0.4-4,0.8-6,1.2c-3.2,0.6-6.5,1.2-9.7,1.8c-3.8,0.6-7.5,1.4-11.3,2.2
			c-0.4,0.1-0.9,0.1-1.3,0.3c-0.9,0-1-0.1-1.3-1.2c-0.6-2.9-1.4-5.7-2.1-8.7c-0.4-1.9-0.9-3.8-1.3-5.7c0-0.3-0.1-0.5,0-0.8
			c0.1-0.3,0.1-0.5,0.1-0.8c0-0.1,0-0.1,0-0.3c0-0.1,0-0.3,0-0.4s0-0.3,0-0.4c0-0.9,0-1.7-0.1-2.5c0-0.1,0-0.1,0-0.3
			c0.1-0.9-0.1-1.8-0.3-2.9c0-0.1,0-0.1,0-0.3c0.1-0.9-0.1-1.8-0.1-2.6c0-0.1,0-0.4,0-0.5c0.1-0.8,0-1.4-0.1-2.2c0-0.1,0-0.4,0-0.5
			c0.1-0.9-0.1-1.8-0.1-2.7c0-0.1,0-0.1,0-0.3c0.1-0.9-0.1-1.8-0.1-2.7c0-0.1,0-0.3,0-0.5C25.7,207.6,25.5,207,25.9,206.3z"/>
		<path class="st14" d="M26.4,217.1c0,0.1,0,0.4,0,0.5c0.1,0.9,0.1,1.8,0.1,2.7v0.1c0.1,1,0.1,1.9,0.1,3v0.1c0.3,0.9,0,1.8,0.1,2.7
			c0,0.1,0,0.3,0,0.4s0,0.1,0,0.3l0,0c-0.3,0.3,0,0.5-0.1,0.8c0,0.8,0.3,1.6,0.5,2.3c0.6,3.1,1.4,6.1,2.2,9.2
			c0.3,1.3,0.5,2.5,0.8,3.8c0.1,0.5,0.3,1.2,1,1.2c-0.9,0.3-1.3,0.1-1.4-0.8c-0.8-3.2-1.6-6.3-2.2-9.6c-0.4-1.6-0.8-3.2-1.2-4.8
			c-0.1-0.3-0.1-0.5,0-0.8c0.3-1.2,0.3-2.3,0-3.4c0-0.1,0-0.1,0-0.3c0.1-1.6-0.1-3.1-0.3-4.7c-0.1-2.1-0.3-4.1-0.4-6.2
			c-0.1-1.9-0.4-4-0.4-6c0-0.3-0.1-0.6,0.1-0.9c0.3,0.6-0.1,1.2,0.1,1.8c0,0.1,0,0.3,0,0.4c0.1,0.9,0,1.8,0.1,2.7v0.1
			c0.1,0.9,0,1.8,0.1,2.7c0,0.1,0,0.4,0,0.5C26.4,215.5,26.1,216.3,26.4,217.1z"/>
		<path class="st15" d="M63.7,236.1c-0.1,0.1-0.3,0.3-0.4,0.4c-1.8-1.8-3.8-3.6-5.6-5.4c-1.7-1.6-3.4-3.2-5.1-4.8
			c-0.3-0.3-0.5-0.5-0.6-0.9c0.3-0.3,0-0.8,0.4-1c-0.1,0.5,0.1,0.9,0.5,1.4c3.1,3,6.1,6,9.2,8.9C62.7,235.1,63.3,235.6,63.7,236.1z"
			/>
		<path class="st16" d="M25.9,208.3c-0.4-0.5-0.1-1.2-0.1-1.8c0-0.1,0.1-0.1,0.3-0.1C25.9,207,25.9,207.6,25.9,208.3z"/>
		<path class="st0" d="M206.7,9.4c6.7-0.1,12.6,4.7,13.7,11.4c0.6,3.6-0.1,6.9-2.1,10c-0.5,0.8-0.5,1,0.3,1.7
			c0.3,0.3,0.5,0.4,0.8,0.4c1.3,0.3,2.1,1.2,2.9,2.1c1.6,1.7,3,3.4,4.5,5.1c1.4,1.7,3,3.2,4.5,4.9c1,1.2,1.3,2.5,0.8,4
			s-1.8,2.3-3.4,2.5c-1.3,0.1-2.3-0.4-3.2-1.3c-0.8-0.8-1.6-1.7-2.3-2.5c-1.2-1.3-2.5-2.6-3.6-3.9c-1.3-1.4-2.7-3-4-4.4
			c-0.6-0.6-0.9-1.6-1-2.5c0-0.3-0.1-0.5-0.3-0.8c-0.5-0.8-0.6-0.8-1.4-0.4c-1.8,0.9-3.8,1.4-5.8,1.4c-4.4,0-8.2-1.6-11-5.1
			c-1.8-2.1-2.9-4.5-3.1-7.3c-0.4-4.1,0.6-7.8,3.5-10.9c2.2-2.5,4.9-3.9,8.2-4.5C205.4,9.4,206.1,9.4,206.7,9.4z"/>
		<path class="st17" d="M191.8,217.3c-0.1,0-0.3-0.1-0.4-0.1c-0.3-0.1-0.4-0.3-0.3-0.6c0.3-0.4,0.4-0.9,0.6-1.3
			c0.6-1.4,1.3-2.7,1.9-4.1c0.1-0.3,0.3-0.6,0.6-0.4c0.3,0.1,0.5,0.3,0.4,0.6c-0.1,0.1-0.1,0.3-0.1,0.4c-0.8,1.6-1.6,3.2-2.3,4.8
			C192.2,216.8,191.9,217.1,191.8,217.3z"/>
		<path class="st18" d="M209,218c-0.4,0.9-0.8,1.8-1.3,2.7c-0.5,1-0.9,1.9-1.4,3c-0.1,0.3-0.1,0.8-0.6,0.4c-0.4-0.3-0.5-0.4-0.3-0.9
			c0.8-1.7,1.7-3.4,2.5-5.1C208.3,217.5,208.3,217.5,209,218z"/>
		<path class="st17" d="M224.3,225.6c0,0.1-0.1,0.3-0.1,0.4c-0.9,1.8-1.7,3.5-2.6,5.3c-0.1,0.4-0.4,0.4-0.6,0.3
			c-0.4-0.1-0.4-0.3-0.3-0.5c0.9-1.8,1.8-3.6,2.7-5.6c0.1-0.1,0.1-0.4,0.5-0.3C224.1,225.2,224.2,225.4,224.3,225.6z"/>
		<path class="st19" d="M210.2,218.5c0.6,0.4,0.8,0.4,0.4,1c-0.8,1.7-1.7,3.4-2.5,5.1c-0.3,0.4-0.5,0.4-0.8,0.3
			c-0.3-0.1-0.3-0.3-0.3-0.4c0,0,0-0.1,0.1-0.1c0.9-1.8,1.8-3.8,2.7-5.6C210.1,218.6,210.2,218.6,210.2,218.5z"/>
		<path class="st18" d="M222.5,224.4c-1,1.9-1.9,3.9-2.9,5.8c-0.1,0.3-0.1,0.5-0.5,0.3c-0.3-0.1-0.5-0.4-0.3-0.8
			c0.1-0.1,0.1-0.4,0.3-0.5c0.8-1.4,1.4-3,2.2-4.4C221.6,224.1,221.6,224.1,222.5,224.4z"/>
		<path class="st18" d="M237,231.7c0,0.1-0.1,0.1-0.1,0.3c-0.9,1.8-1.7,3.6-2.6,5.4c-0.1,0.3-0.3,0.5-0.6,0.3
			c-0.3-0.1-0.4-0.4-0.3-0.8c0.9-1.8,1.7-3.5,2.6-5.3c0.3-0.5,0.4-0.5,0.9-0.3C237,231.6,237,231.6,237,231.7z"/>
		<path class="st18" d="M193.8,218c-0.5,0-0.8-0.3-0.5-0.6c0.8-1.7,1.7-3.5,2.6-5.2c0.1-0.1,0.1-0.4,0.4-0.3
			c0.3,0.1,0.6,0.3,0.4,0.8c-0.3,0.6-0.6,1.3-0.9,1.8c-0.5,1-1,2.1-1.6,3.1C194.2,217.8,194,218,193.8,218z"/>
		<path class="st18" d="M204.3,222.8c-0.8-0.8-0.8-0.8-0.4-1.7c0.5-1,1-2.1,1.6-3.2c0.4-0.8,0.4-0.8,1.4-0.6
			C206.1,219.1,205.2,220.9,204.3,222.8z"/>
		<path class="st18" d="M225.4,226.4c0.8,0.8,0.8,0.8,0.4,1.4c-0.5,1-1,2.1-1.6,3.1c-0.4,0.8-0.4,0.8-1.4,0.8
			C223.6,230,224.5,228.2,225.4,226.4z"/>
		<path class="st18" d="M235,231.2c-0.8,1.8-1.7,3.5-2.5,5.2c-0.8-0.5-0.8-0.6-0.4-1.3c0.5-1,1-2.2,1.6-3.2
			C233.9,231.1,233.9,231.1,235,231.2z"/>
		<path class="st20" d="M220.2,224.1c-0.6,1.7-1.6,3.2-2.3,4.9c-0.5-0.3-0.8-0.5-0.5-1c0.5-1.3,1.2-2.5,1.8-3.6
			C219.3,223.9,219.7,223.9,220.2,224.1z"/>
		<path class="st21" d="M209.4,225c0.6-1.7,1.6-3.2,2.3-4.8c0.6,0.5,0.8,0.6,0.4,1.3c-0.5,1-1,2.1-1.6,3.1
			C210.5,225.1,210.3,225.1,209.4,225z"/>
		<path class="st22" d="M197.6,213.3c0.6,0.8,0.6,0.8,0.4,1.4c-0.4,0.9-0.9,1.7-1.3,2.6c-0.3,0.6-0.6,0.9-1.4,0.8
			C196.1,216.4,196.9,214.9,197.6,213.3z"/>
		<path class="st20" d="M232.5,231.3c-0.5,1-0.9,1.9-1.4,3c-0.5-0.6-0.8-1.4-1-2.1c-0.1-0.3,0-0.4,0.3-0.4
			C230.9,231.6,231.6,231.3,232.5,231.3z"/>
		<path class="st23" d="M198.9,215.6c0.1,0,0.1,0,0.1,0.1c0.6,1.4,0.8,1.6-1.2,2.1C198.2,216.9,198.6,216.3,198.9,215.6z"/>
		<path class="st24" d="M203,220.3c-0.6-1.2-0.1-2.1,1-2.5C204,218.4,203.6,219.1,203,220.3z"/>
		<path class="st25" d="M226.7,228.9c0.6,1.6,0.5,1.8-1.2,2.3C225.9,230.4,226.2,229.8,226.7,228.9z"/>
		<path class="st26" d="M216.6,226.5c-0.6-1.3-0.6-1.3,0.8-1.8C217.2,225.4,217,226,216.6,226.5z"/>
		<path class="st27" d="M213.1,222.8c0.5,1.2,0.5,1.3-0.8,1.7C212.4,223.8,212.7,223.3,213.1,222.8z"/>
		<path class="st2" d="M52,225.4c0.1,0.1,0.3,0.1,0.4,0.3c1.6,1.4,3.1,3,4.5,4.4c1.9,1.8,3.8,3.6,5.7,5.4c0.3,0.3,0.6,0.5,0.8,1
			c-2.5,0.5-4.9,0.9-7.5,1.4c-3.8,0.8-7.5,1.4-11.3,2.2c-4.1,0.8-8.3,1.6-12.4,2.3c-0.6,0.1-0.8,0.1-1-0.6c-0.5-2.1-1-4.1-1.6-6.2
			c-0.6-2.3-1.2-4.8-1.8-7.1c0-0.1-0.1-0.4-0.1-0.5c0-0.5,0.1-0.8,0.6-0.8c0.4,0,0.8,0,1.2,0c0.4,0,0.8,0,1.2-0.1
			c0.3-0.1,0.5,0,0.6,0c0.5,0,1.2,0.1,1.8-0.1c0.1-0.1,0.4,0,0.6,0c0.6,0,1.2,0.1,1.8-0.1c0.3,0,0.6-0.1,0.9-0.1c0.6,0,1.2,0,1.8,0
			c0.3-0.1,0.5-0.1,0.8-0.1c0.5,0,1,0,1.6,0c0.1,0,0.4-0.1,0.5-0.3c0.1,0,0.3-0.1,0.4,0c0.5,0.1,1.2,0.1,1.7,0
			c0.1,0,0.4-0.1,0.5-0.1c0.1,0,0.1,0,0.3,0c0.6,0,1.2,0.1,1.8,0c0.1,0,0.3-0.1,0.4-0.1c0.1,0,0.4,0,0.5,0c0.5,0.1,1.2,0,1.8,0.1
			c0.1,0,0.1,0.1,0.1,0.3c-1,0.5-2.3,0.4-3.5,0.5c-2.6,0.3-5.3,0.5-7.9,0.6c-2.3,0.1-4.7,0.4-6.2,0.5c1.3-0.1,3.1-0.3,5.1-0.4
			c2.3-0.1,4.8-0.4,7.1-0.6c2.6-0.1,5.2-0.6,7.8-0.6c0,0,0,0,0.1,0v-0.1c0-0.4,0.3-0.4,0.5-0.5C51.5,225.5,51.8,225.5,52,225.4z"/>
		<path class="st28" d="M40.8,225.7c-0.5-0.3-1-0.1-1.6-0.1c-1.6,0.1-3.2,0.3-4.8,0.4c-1.8,0.1-3.6,0.1-5.4,0.5c-0.1,0-0.3,0-0.4,0
			c-0.4,0-0.5-0.1-0.5-0.4c0-0.8-0.1-1.6-0.1-2.3c-0.3-3.6-0.4-7.4-0.6-11c-0.1-1.8-0.3-3.5-0.4-5.3c0-0.3,0-0.4,0-0.6
			c0-0.3,0.1-0.4,0.4-0.4c0.3,0,0.5,0,0.8,0c1.7,0.3,3.4,0.3,5.1,0.4c1.9,0.1,4,0.3,6,0.5c1.3,0.1,2.7,0.1,4,0.3
			c2.1,0.1,4,0.3,6.1,0.5c1.3,0.1,2.5,0.1,3.8,0.3c0.8,0,0.8,0.1,0.6,0.8c-0.3,2.2-0.4,4.4-0.6,6.7c-0.3,2.7-0.5,5.4-0.8,8.2
			c0,0.3,0,0.4-0.1,0.6c0,0.3-0.1,0.4-0.4,0.4c-0.4,0-0.6,0-1,0c-0.5,0-1,0-1.6,0.3c-0.4,0.4-1,0.3-1.6,0.3c-0.3,0-0.6,0-0.9,0.1
			c-0.4,0-0.8,0.1-1.2,0.1c-0.5,0-1,0-1.4,0.1c-0.4,0-0.6,0.1-1,0.1c-0.4,0-0.9,0-1.3,0.1C41.1,226,40.9,226,40.8,225.7z"/>
		<path class="st29" d="M50.7,225.9c0.1,0,0.4,0,0.5,0.1c-0.5,0.3-1,0.3-1.6,0.3c-0.9,0-1.9,0.1-2.9,0.3c-1.7,0.1-3.5,0.3-5.2,0.5
			c-0.8,0.1-1.4,0.1-2.2,0.1c-1,0-2.1,0.1-3.1,0.3c-1.7,0.1-3.5,0.3-5.2,0.5c-0.5,0.1-1,0-1.7-0.1c0.4-0.1,0.8-0.3,1.3-0.3
			c0.9,0,1.7-0.1,2.6-0.1c1.3-0.1,2.5-0.1,3.6-0.4c0.8-0.1,1.6-0.1,2.2-0.1c1-0.1,1.9-0.1,3-0.3c2.1-0.1,4.1-0.1,6.2-0.6
			c0.4-0.4,0.8-0.3,1.2-0.1C50,226,50.3,226,50.7,225.9z"/>
		<path class="st16" d="M26.8,223.4c-0.3-0.3-0.1-0.5-0.1-0.8c0-0.8,0-1.4,0-2.2c0,0.1,0.1,0.1,0.1,0.3c0,0.6,0,1.4,0.3,2.1
			C26.9,223,26.9,223.3,26.8,223.4z"/>
		<path class="st16" d="M26.5,220.3c-0.3-0.1-0.1-0.4-0.1-0.6c0-0.6,0-1.4,0-2.1c0,0.1,0.1,0.3,0.1,0.3c0,0.5,0,1.2,0.1,1.7
			C26.8,219.8,26.6,220,26.5,220.3z"/>
		<path class="st16" d="M26,211.4c-0.3-0.1-0.1-0.4-0.1-0.6c0-0.6,0-1.4,0-2.1c0,0,0,0,0,0.1C26,209.7,26.2,210.5,26,211.4z"/>
		<path class="st16" d="M26.1,214.3c-0.3-0.1-0.1-0.4-0.1-0.6c0-0.6,0-1.4,0-2.1c0,0,0,0,0,0.1C26.1,212.5,26.4,213.4,26.1,214.3z"
			/>
		<path class="st30" d="M35.4,226.6c-0.6,0.4-1.2,0.1-1.8,0.1c-0.3-0.3-0.5,0-0.8-0.3c0.5-0.3,1-0.1,1.4-0.1c0.3,0.1,0.5,0,0.8,0.1
			C35.3,226.6,35.4,226.6,35.4,226.6z"/>
		<path class="st16" d="M26.9,226.4c-0.3-0.1-0.1-0.4-0.1-0.6c0-0.6,0-1.4,0-2.1c0,0.1,0.1,0.1,0.1,0.3
			C26.9,224.7,27,225.5,26.9,226.4z"/>
		<path class="st31" d="M31.3,227c-0.3,0-0.5,0-0.8,0c-0.3,0.1-0.6,0.1-0.9,0c0.6-0.4,1.4-0.4,2.2-0.4v0.1v0.1
			C31.7,227,31.4,226.9,31.3,227z"/>
		<path class="st32" d="M35.4,226.6c-0.1,0-0.3,0-0.4,0c0,0-0.1-0.1,0-0.1l0,0c0.6,0,1.3-0.3,2.1-0.1c0,0.1,0,0.1,0,0.3
			c-0.3,0.1-0.5,0-0.8,0.1C36.1,226.6,35.8,226.6,35.4,226.6z"/>
		<path class="st16" d="M26.4,217.1c-0.4-0.4-0.1-0.8-0.1-1.2c0-0.4,0-0.8,0-1C26.4,215.5,26.5,216.3,26.4,217.1z"/>
		<path class="st33" d="M38.9,226.5c-0.3,0-0.5,0-0.8,0c-0.1,0.1-0.3,0.1-0.4,0l-0.1-0.1v-0.1c0.5-0.1,1-0.3,1.7-0.1
			c0,0.1,0,0.1,0,0.3C39.3,226.5,39.1,226.4,38.9,226.5z"/>
		<path class="st34" d="M47.1,225.4c0.5-0.1,1.2-0.1,1.7-0.1c0.1,0,0.3,0.1,0.4,0.1c-0.1,0.3-0.4,0.3-0.6,0.3c-0.3,0-0.5,0-0.8,0
			c-0.1,0-0.4,0-0.5-0.1C47.1,225.5,47.1,225.4,47.1,225.4z"/>
		<path class="st35" d="M38.9,226.5c0.1-0.3,0.4-0.1,0.5-0.3c0.3-0.1,0.6,0,0.9-0.1c0.1,0,0.1,0,0.3,0c0,0,0.1,0,0.1,0.1l0,0
			C40.1,226.6,39.5,226.4,38.9,226.5z"/>
		<path class="st36" d="M41.3,226.3c-0.1,0-0.3,0-0.4,0c-0.1,0-0.1,0-0.3,0v-0.1c0.4-0.1,0.8-0.1,1.2-0.1c0.1,0,0.1,0,0.3,0.1
			c0,0.1,0,0.1,0,0.3C41.9,226.3,41.7,226.3,41.3,226.3z"/>
		<path class="st37" d="M41.9,225.9c-0.4,0-0.8,0-1.2,0c0-0.1,0-0.1,0-0.3c0.1,0,0.3,0,0.4,0c0.3-0.1,0.5-0.1,0.8,0
			C42.1,225.7,42.1,225.9,41.9,225.9z"/>
		<path class="st38" d="M49.6,225.9c-0.4,0-0.8,0-1.2,0.1l-0.1-0.1c0-0.1,0-0.1,0-0.3c0.1,0,0.1-0.1,0.3-0.1c0.3,0,0.4,0,0.6,0
			C49.3,225.6,49.4,225.7,49.6,225.9C49.4,225.9,49.4,225.9,49.6,225.9z"/>
		<path class="st39" d="M29.6,227c0.3,0,0.6,0,0.9,0c-0.4,0.3-0.8,0.3-1,0H29.6z"/>
		<path class="st40" d="M32.9,226.6c0.3,0,0.5-0.1,0.8,0.3c-0.1,0-0.4,0-0.5,0c-0.1,0.1-0.3,0.1-0.5,0l-0.1-0.1v-0.1
			C32.7,226.8,32.9,226.6,32.9,226.6z"/>
		<path class="st41" d="M49.4,225.7c-0.1,0-0.3,0-0.4,0c0-0.1,0-0.1,0-0.3c0.1,0,0.1,0,0.3,0c0.3,0,0.4,0,0.6,0
			C50,225.9,49.7,225.7,49.4,225.7z"/>
		<path class="st42" d="M40.4,226.1c-0.3,0.3-0.5,0.1-0.9,0.1v-0.1C39.7,226.1,40.1,226.1,40.4,226.1z"/>
		<path class="st43" d="M49.3,225.6h-0.1c-0.3,0.1-0.5,0-0.6,0c-0.1,0-0.1-0.1,0-0.3c0.3,0,0.5,0,0.8-0.1h0.1
			C49.3,225.5,49.4,225.5,49.3,225.6L49.3,225.6z"/>
		<path class="st44" d="M49.3,225.6v-0.1c0.3,0,0.5-0.1,0.6,0.1C49.8,225.6,49.6,225.6,49.3,225.6z"/>
		<path class="st45" d="M37.8,226.4L37.8,226.4c-0.3,0.3-0.5,0.3-0.8,0.1v-0.1C37.4,226.4,37.5,226.4,37.8,226.4z"/>
		<path class="st46" d="M35.1,226.5v0.1c-0.3,0-0.5,0.1-0.8-0.1C34.7,226.5,34.8,226.5,35.1,226.5z"/>
		<path class="st47" d="M32.6,226.8L32.6,226.8c-0.3,0.3-0.5,0.3-0.8,0.1v-0.1C32.1,226.8,32.3,226.8,32.6,226.8z"/>
		<path class="st16" d="M26.8,227.6c0-0.3-0.1-0.5,0.1-0.8C26.9,227.2,27,227.4,26.8,227.6z"/>
		<path class="st42" d="M40.8,226.1c0.1,0,0.1,0,0.3,0c-0.1,0-0.3,0.1-0.4,0.1v-0.1C40.6,226.1,40.6,226.1,40.8,226.1z"/>
		<path class="st16" d="M26.9,226.9c0-0.1,0-0.1,0-0.3C27,226.8,27,226.8,26.9,226.9z"/>
		<path class="st3" d="M206.8,12.2c5.8,0,10.9,4.8,10.8,11c-0.1,6.6-5.7,10.6-11,10.5C201.3,33.6,196,29.5,196,23
			S201.3,12.2,206.8,12.2z"/>
		<path class="st48" d="M215,35.3c0.3-1.6,1.7-2.6,3.5-2.6c-0.8,0.4-1.6,0.4-2.1,0.9C215.9,34.1,215.4,34.6,215,35.3z"/>
		<path class="st0" d="M47.6,234.2c0.4,0,0.6,0,0.9,0.3c0.9,1.2,1.7,2.3,2.6,3.5c-0.8,0.4-1.6,0.4-2.2,0.5c-2.1,0.4-4,0.6-6.1,0.9
			c-0.4,0-0.5-0.1-0.6-0.4c-0.4-1-0.9-2.1-1.3-3.2c-0.3-0.6-0.3-0.8,0.5-0.8h0.1c0.4-0.3,0.9,0.1,1.3-0.1l0,0c0.4-0.3,0.9,0,1.3-0.1
			l0,0c0.4-0.3,0.9,0,1.3-0.1l0,0c0.5-0.3,1,0,1.4-0.1l0,0C47.1,234.2,47.5,234.4,47.6,234.2z"/>
		<path class="st49" d="M48.5,232.9c-1.3,0.1-2.7,0.1-3.9,0.4c-1.2,0.3-2.3,0.5-3.5,0.6c-0.3,0-0.5,0-0.8,0c-0.3,0-0.4-0.1-0.4-0.4
			s0.3-0.3,0.4-0.3c1.3-0.1,2.7-0.4,4-0.5c1.2-0.1,2.3-0.3,3.5-0.4C48.4,232.2,48.5,232.5,48.5,232.9z"/>
		<path class="st50" d="M32.9,234.9c-0.3-0.1-0.5,0.1-0.8-0.1c-0.1-0.1-0.1-0.1-0.1-0.3c0-0.1,0.1-0.3,0.3-0.3c0.5,0,1-0.1,1.6-0.1
			c0.3,0,0.3,0.1,0.4,0.3c0.1,0.3-0.1,0.4-0.3,0.4C33.4,234.9,33.1,234.9,32.9,234.9z"/>
		<path class="st51" d="M32.2,232.6c-0.3,0-0.4,0-0.5,0c-0.3,0-0.5-0.1-0.5-0.4c0-0.4,0.4-0.3,0.5-0.3c0.4,0,0.6-0.1,1-0.1
			c0.1,0,0.3,0,0.4,0c0.1,0,0.3,0.3,0.3,0.4c0,0.3-0.1,0.3-0.3,0.3C32.9,232.6,32.5,232.6,32.2,232.6z"/>
		<path class="st51" d="M51.1,229.9c0.9-0.5,1.8-0.3,2.5-0.4c0.1,0,0.3,0.1,0.3,0.3c0,0.3-0.1,0.3-0.3,0.3
			C52.9,230.1,52.2,230.4,51.1,229.9z"/>
		<path class="st52" d="M51,227.9c0.5-0.3,1-0.1,1.4-0.1c0.4-0.1,0.5,0.3,0.6,0.5C51.6,228.5,51.4,228.5,51,227.9z"/>
		<path class="st53" d="M37.1,234.3c0,0-0.1,0-0.3,0c-0.3,0-0.4-0.1-0.4-0.4c0-0.3,0.1-0.3,0.3-0.3c0.3,0,0.5-0.1,0.6-0.1
			c0.3,0,0.5,0.1,0.5,0.4c0,0.3-0.3,0.3-0.5,0.3C37.4,234.3,37.3,234.3,37.1,234.3z"/>
		<path class="st54" d="M38.9,229.8c-0.4,0-0.6,0.1-0.9,0.1c-0.3,0-0.5,0-0.6-0.3c0-0.1-0.1-0.1,0-0.3c0.1-0.3,1.3-0.3,1.6,0.1
			C38.9,229.5,38.9,229.6,38.9,229.8z"/>
		<path class="st55" d="M55.1,231.7c-0.6,0.4-1.2,0.3-1.7,0.3c-0.1,0-0.1-0.1-0.1-0.1c0-0.1,0-0.1,0.1-0.3
			C54,231.4,54.5,231.2,55.1,231.7z"/>
		<path class="st56" d="M34.8,230.1c-0.3-0.1-0.9,0.3-0.8-0.4c0-0.4,0.5-0.1,0.8-0.3c0.3-0.1,0.5-0.1,0.5,0.3
			C35.3,230.3,34.9,230.1,34.8,230.1z"/>
		<path class="st57" d="M40.8,231.6c-0.3,0.3-0.5,0-0.8,0.1c-0.3,0-0.4-0.1-0.5-0.4c0-0.4,0.3-0.3,0.4-0.3
			C40.4,230.9,40.8,230.9,40.8,231.6z"/>
		<path class="st58" d="M36.5,231.4c0.4,0,0.5,0.1,0.5,0.4c0,0.3-0.3,0.3-0.4,0.3c-0.3,0-0.6,0-0.6-0.4
			C36,231.3,36.4,231.4,36.5,231.4z"/>
		<path class="st59" d="M48.7,228.2c0.4-0.3,0.8-0.4,1.2-0.1c0.1,0.1,0.3,0.3,0.1,0.4c0,0.1-0.3,0.1-0.3,0.1
			C49.3,228.6,48.8,228.7,48.7,228.2z"/>
		<path class="st60" d="M41.1,229.5c-0.1,0.1-0.3,0.1-0.4,0c-0.1-0.1-0.1-0.1-0.1-0.3c0-0.1,0.1-0.3,0.3-0.3c0.3,0,0.4,0,0.6,0
			s0.4,0.1,0.4,0.4c0,0.3-0.3,0.3-0.4,0.3C41.3,229.5,41.3,229.5,41.1,229.5z"/>
		<path class="st61" d="M30.4,230.1c0.3-0.3,0.6-0.1,0.9-0.3c0.4-0.1,0.4,0.1,0.4,0.4c0,0.3-0.3,0.3-0.4,0.3
			C30.9,230.5,30.7,230.5,30.4,230.1z"/>
		<path class="st62" d="M46.5,230.9c-0.3,0-0.6,0-0.6-0.3c0-0.5,0.4-0.3,0.6-0.4s0.4,0.1,0.4,0.4C47,231.1,46.6,230.8,46.5,230.9z"
			/>
		<path class="st63" d="M49.6,230.5c-0.3,0-0.4,0-0.5,0c-0.1,0-0.3-0.1-0.3-0.3c0-0.3,0.1-0.3,0.3-0.3c0.1,0,0.3,0,0.4,0
			c0.3,0,0.4,0.1,0.4,0.4C50,230.7,49.7,230.4,49.6,230.5z"/>
		<path class="st64" d="M43.7,231.2c-0.3,0.1-0.5,0-0.8,0.1c-0.3,0-0.4-0.1-0.4-0.3c0-0.1,0.1-0.3,0.3-0.3
			C43.3,230.7,43.7,230.5,43.7,231.2z"/>
		<path class="st65" d="M46.6,228.3c0.3,0,0.4,0,0.5,0.1c0.1,0.1,0.1,0.3,0.1,0.3c-0.1,0.3-0.5,0.1-0.6,0.1c-0.1,0-0.4,0-0.4-0.3
			c0-0.1,0.1-0.3,0.3-0.3C46.3,228.3,46.5,228.3,46.6,228.3z"/>
		<path class="st66" d="M44,229.1c-0.3,0-0.6,0.1-0.6-0.3c0-0.3,0.4-0.3,0.6-0.3c0.3,0,0.4,0.1,0.4,0.4
			C44.5,229.2,44.3,229.2,44,229.1z"/>
		<path class="st67" d="M57.3,231.6c-0.5,0.1-0.9,0-1.4-0.1C56.7,231.1,56.8,231.1,57.3,231.6z"/>
		<path class="st68" d="M51.4,232.3c-0.3,0-0.4,0-0.5,0c-0.3,0-0.6,0.1-0.6-0.3c0-0.3,0.4-0.3,0.6-0.3
			C51.1,231.8,51.4,232,51.4,232.3z"/>
		<path class="st69" d="M45.7,226c-0.6,0.4-1.3,0.3-2.1,0.1c0.3-0.4,0.6-0.3,1-0.3C45,225.7,45.4,225.7,45.7,226z"/>
		<path class="st70" d="M37.1,226.5c0.3,0,0.5,0,0.8,0c0.1,0,0.3,0,0.4,0c-0.5,0.4-1.2,0.1-1.8,0.1
			C36.6,226.4,36.9,226.5,37.1,226.5z"/>
		<path class="st71" d="M31.8,226.9c0.3,0,0.5,0,0.8,0c0.1,0,0.4,0,0.5,0c-0.5,0.4-1.2,0.1-1.8,0.1
			C31.4,226.9,31.7,226.9,31.8,226.9z"/>
		<path class="st72" d="M48.3,225.9L48.3,225.9c-0.6,0.1-1.3,0.3-1.8,0c0.3-0.4,0.6-0.3,0.9-0.3c0.3,0,0.5,0,0.6,0
			C48.1,225.6,48.1,225.7,48.3,225.9z"/>
		<path class="st73" d="M41.3,226.3c0.3,0,0.5,0,0.9,0c0.3-0.3,0.6-0.3,0.9,0C42.6,226.5,41.9,226.4,41.3,226.3z"/>
		<path class="st74" d="M44.8,226c-0.4,0-0.8,0-1,0.1h-0.1c-0.1,0.1-0.3,0.1-0.4,0c0-0.1,0-0.1,0-0.3c0.3-0.1,0.5,0,0.6-0.1
			c0.3,0,0.4,0,0.6,0c0.1,0,0.1,0,0.3,0.1C44.8,225.7,44.8,225.9,44.8,226C44.8,225.9,44.8,226,44.8,226z"/>
		<path class="st75" d="M47.5,225.7c-0.4,0-0.8,0-1,0.1c-0.1,0-0.4,0-0.5,0v-0.1c0-0.1,0-0.1,0.1-0.1c0.1,0,0.4,0,0.5,0
			c0.1,0,0.4-0.1,0.5,0c0.1,0,0.4,0,0.5,0.1C47.5,225.6,47.5,225.6,47.5,225.7L47.5,225.7z"/>
		<path class="st76" d="M47,234.3c-0.5,0.4-1,0.1-1.4,0.1C45.9,234.2,46.5,234.4,47,234.3z"/>
		<path class="st77" d="M44.3,234.7c-0.4,0.3-0.9,0.1-1.3,0.1C43.3,234.6,43.7,234.8,44.3,234.7z"/>
		<path class="st78" d="M43,234.9c-0.4,0.3-0.9,0.1-1.3,0.1C42.1,234.8,42.6,234.9,43,234.9z"/>
		<path class="st79" d="M43.1,226c0.1,0,0.3,0,0.4,0c-0.1,0.1-0.3,0.1-0.4,0.1c-0.3,0-0.6,0-0.9,0V226
			C42.6,225.7,42.8,225.7,43.1,226z"/>
		<path class="st80" d="M45.6,234.6c-0.4,0.3-0.9,0.1-1.3,0.1C44.6,234.4,45,234.6,45.6,234.6z"/>
		<path class="st81" d="M44.8,226v-0.1c0.1-0.3,0.4-0.3,0.5-0.3c0.3,0,0.4,0,0.5,0.1l0,0l-0.1,0.1C45.4,226,45,226,44.8,226z"/>
		<path class="st76" d="M47.6,234.2c-0.1,0.3-0.5,0.1-0.8,0.1C47.1,234,47.4,234.2,47.6,234.2z"/>
		<path class="st82" d="M40.2,208.8c0.8,0,1.6,0.1,2.3,0.1c0,0.1,0,0.3-0.1,0.3c-0.9,0.3-1.8,0.3-2.6-0.1
			C39.7,208.6,40.1,208.8,40.2,208.8z"/>
		<path class="st83" d="M28.3,219c-0.3-0.6-0.1-1.3-0.1-2.1c0.1,0,0.3,0,0.3,0c0.4,0.6,0.4,1.3,0.1,1.9
			C28.6,219.1,28.5,219.1,28.3,219z"/>
		<path class="st84" d="M28.5,222.4c-0.1-0.6-0.1-1.4-0.1-2.1c0.1,0,0.1,0,0.3,0c0.4,0.5,0.4,1.2,0.1,1.8
			C28.8,222.2,28.7,222.4,28.5,222.4z"/>
		<path class="st85" d="M28.2,215.6c-0.1-0.6-0.1-1.3-0.1-2.1c0.1,0,0.1,0,0.3,0c0.4,0.5,0.3,1.2,0.1,1.7
			C28.5,215.5,28.3,215.6,28.2,215.6z"/>
		<path class="st86" d="M34.2,223.9c-0.8,0.1-1.6,0.3-2.3,0.1c0-0.1,0-0.3,0-0.3c0.8-0.4,1.4-0.4,2.2-0.1
			C34.3,223.8,34.3,223.8,34.2,223.9z"/>
		<path class="st87" d="M50.1,223.2c-0.6,0-1.2,0-1.8,0c-0.5,0-0.9,0.4-1.3-0.3c1-0.4,1.9-0.3,3-0.1C50.1,223,50.1,223.2,50.1,223.2
			z"/>
		<path class="st88" d="M27.9,212.4c-0.1-0.5-0.1-1-0.1-1.6c0.1-0.1,0-0.4,0.4-0.4c0.4,0.5,0.3,1,0.1,1.6
			C28.2,212.3,28.2,212.3,27.9,212.4z"/>
		<path class="st89" d="M31,208.1c0.5,0,1,0,1.6,0.1c-0.1,0.3-0.4,0.3-0.6,0.4c-0.5,0-1,0.3-1.4-0.3C30.5,208,30.9,208.4,31,208.1z"
			/>
		<path class="st90" d="M46.1,223.4c-0.5,0-0.9,0-1.4,0c-0.4,0-0.8,0.3-0.9-0.3c0.8-0.4,1.6-0.3,2.3-0.1
			C46.1,223.2,46.1,223.3,46.1,223.4z"/>
		<path class="st91" d="M43.3,208.9c0.4,0,0.9,0,1.3,0.1c-0.1,0.3-0.4,0.3-0.6,0.4c-0.4,0.1-0.8,0.1-1-0.1
			C42.8,208.9,43.2,209,43.3,208.9z"/>
		<path class="st92" d="M37.3,208.5c0.4,0,0.9,0,1.3,0.1c-0.1,0.3-0.5,0.3-0.8,0.4c-0.4,0-0.8,0.1-1.2-0.3
			C36.7,208.4,37.1,208.6,37.3,208.5z"/>
		<path class="st93" d="M51.5,219.7c0,0.5,0,0.9-0.1,1.4c0,0.1-0.1,0.1-0.1,0.3c-0.1,0-0.1,0-0.3-0.1c-0.1-0.6,0-1.2,0.3-1.7
			C51.5,219.4,51.6,219.4,51.5,219.7z"/>
		<path class="st94" d="M40.1,223.8c-0.8,0-1.4,0-2.2,0c0-0.1,0-0.1,0-0.3c0.5-0.3,1-0.1,1.4-0.1c0.3,0,0.4,0,0.5,0.1
			C40,223.5,40.1,223.7,40.1,223.8z"/>
		<path class="st95" d="M51.5,219.7c-0.1-0.1-0.1-0.1-0.3-0.3c-0.3-0.4-0.3-0.8,0-1c0.1-0.1,0.1-0.1,0.3,0
			C51.8,218.7,51.6,219.3,51.5,219.7z"/>
		<path class="st96" d="M52.4,210.5c0,0.4,0,0.9-0.1,1.3c-0.1,0-0.3-0.1-0.3-0.3c-0.1-0.4-0.1-0.8,0.1-1
			C52.2,210.5,52.3,210.5,52.4,210.5z"/>
		<path class="st97" d="M50.9,209.4c0.5,0,1-0.1,1.6,0.3c-0.1,0.1-0.3,0.1-0.4,0.3c-0.5,0-1.2,0.1-1.7-0.1c-0.1-0.3-0.1-0.3-0.1-0.4
			C50.3,209.3,50.6,209.3,50.9,209.4z"/>
		<path class="st98" d="M51.1,221.2C51.3,221.2,51.3,221.2,51.1,221.2c0.3,0.1,0.3,0.4,0.1,0.5c0,0.4-0.1,0.8-0.1,1.2
			c-0.1,0-0.1,0.1-0.3,0.1c0,0-0.1,0-0.1-0.1s-0.1-0.1-0.1-0.3C50.9,222.1,50.7,221.6,51.1,221.2z"/>
		<path class="st99" d="M31,208.1c-0.1,0.1-0.3,0.1-0.5,0.3c-0.5,0.3-1,0.3-1.6,0c-0.1,0-0.1-0.1-0.1-0.3c0.3-0.1,0.4-0.1,0.6,0
			C30,208.1,30.5,208.1,31,208.1z"/>
		<path class="st100" d="M52.2,212.7c0,0.3,0,0.6-0.1,0.9c-0.1,0.1-0.1,0.1-0.3,0c-0.3-0.4-0.3-0.8,0-1.2
			C52,212.4,52.2,212.5,52.2,212.7z"/>
		<path class="st101" d="M47.8,209.2c0.5,0,1,0,1.6,0c0,0.1,0,0.1,0,0.3c-0.3,0.1-0.5,0.1-0.8,0.1c-0.4,0-0.8,0-1.2-0.1
			c-0.1-0.1-0.1-0.1-0.1-0.3C47.4,209.2,47.5,209.2,47.8,209.2z"/>
		<path class="st102" d="M31.9,208.4c0.3,0,0.4-0.1,0.6-0.1c0.5,0,0.9,0,1.4,0c0,0.1,0,0.3-0.1,0.3
			C33.2,208.8,32.6,208.9,31.9,208.4z"/>
		<path class="st103" d="M47,223.2c0.4,0.3,0.9,0,1.3,0.1c-0.5,0.3-1.2,0.1-1.7,0.1c0-0.1,0-0.1,0-0.3C46.7,223,46.8,222.9,47,223.2
			z"/>
		<path class="st104" d="M43.6,223.3c0.3,0.3,0.6,0,0.9,0.1c-0.4,0.1-0.9,0.1-1.3,0.1c-0.1,0-0.3-0.1-0.3-0.3
			C43.2,223,43.5,223,43.6,223.3z"/>
		<path class="st105" d="M28.5,222.4c0.1-0.1,0.1-0.1,0.3-0.3c0.4,0.4,0.3,1,0.3,1.6c0,0.1,0,0.1-0.1,0.3c-0.1,0.1-0.1,0.1-0.3,0
			C28.6,223.4,28.6,222.9,28.5,222.4z"/>
		<path class="st106" d="M51.8,216.7c0,0.4,0,0.6-0.1,0.9c-0.1,0-0.3-0.1-0.3-0.3c-0.1-0.3-0.1-0.6,0.1-0.9
			C51.6,216.4,51.8,216.5,51.8,216.7z"/>
		<path class="st107" d="M37.9,223.7v0.1c-0.3,0.1-0.4,0.1-0.6,0c-0.4,0.1-0.8,0.1-1.2,0C36.5,223.2,37,223.2,37.9,223.7z"/>
		<path class="st108" d="M52,214.7c0,0.4,0,0.6-0.1,0.9c-0.1,0-0.3-0.1-0.3-0.3c-0.1-0.4-0.1-0.6,0.1-0.9
			C51.9,214.5,51.9,214.6,52,214.7z"/>
		<path class="st109" d="M36,223.8c0.4,0,0.8,0,1.2,0c-0.6,0.3-1.3,0.1-1.9,0.1c0-0.1,0-0.1,0.1-0.3C35.6,223.5,35.8,223.5,36,223.8
			z"/>
		<path class="st105" d="M30.4,224.2c-0.1,0-0.4,0-0.5,0c-0.4,0.1-0.8,0.1-1.2,0l0,0c0-0.1,0-0.1,0-0.3l0,0c0.5-0.4,1-0.3,1.6-0.1
			C30.4,223.9,30.4,224.1,30.4,224.2z"/>
		<path class="st110" d="M34,208.5c0,0,0-0.1-0.1-0.1c0.5,0,1,0,1.6,0.1c-0.1,0.1-0.3,0.3-0.4,0.3C34.7,208.8,34.4,208.8,34,208.5z"
			/>
		<path class="st111" d="M29.5,208.1c-0.1,0-0.4,0-0.5,0c-0.3,0.3-0.5,0.3-0.9,0.1c-0.1,0-0.1-0.1-0.3-0.1
			C28.3,207.7,29,208,29.5,208.1z"/>
		<path class="st112" d="M28.2,215.6c0-0.1,0.1-0.1,0.1-0.3c0.4,0.5,0.4,1,0,1.7h-0.1h-0.1C28.2,216.5,28.2,216.2,28.2,215.6z"/>
		<path class="st113" d="M35.1,208.6c0.1,0,0.3-0.1,0.4-0.1c0.4,0,0.6,0,1,0c0,0.1,0,0.3-0.1,0.3C36,208.9,35.4,209,35.1,208.6z"/>
		<path class="st114" d="M27.9,212.4c0.1-0.1,0.1-0.1,0.3-0.3c0.4,0.5,0.4,0.9,0,1.4h-0.1C28.1,213.2,27.9,212.8,27.9,212.4z"/>
		<path class="st115" d="M37.8,208.8c0.3,0,0.5-0.1,0.8-0.1c0.3,0,0.4,0,0.6,0c0,0.1,0,0.3-0.1,0.3
			C38.7,209.2,38.2,209.3,37.8,208.8z"/>
		<path class="st91" d="M49.3,209.4C49.3,209.3,49.3,209.3,49.3,209.4c0.5-0.1,1-0.1,1.6,0c-0.1,0-0.4,0-0.5,0
			C50,209.7,49.6,209.7,49.3,209.4z"/>
		<path class="st116" d="M40.1,223.8v-0.1c0.4-0.4,0.8-0.3,1.2-0.1c0.1,0,0.1,0.1,0.3,0.3C41,223.8,40.5,223.8,40.1,223.8z"/>
		<path class="st117" d="M43.6,225.6c0.5-0.3,1-0.1,1.6-0.1c0,0.1,0,0.1,0,0.3c-0.1,0-0.4,0-0.5,0c-0.3,0-0.4,0-0.6,0
			C43.7,225.7,43.7,225.6,43.6,225.6z"/>
		<path class="st118" d="M27.8,208.1c0.1,0,0.1,0,0.3,0c0,0.1,0.1,0.1,0.1,0.3c0,0.1,0,0.4-0.1,0.5c-0.1,0-0.1,0-0.3,0
			C27.7,208.6,27.7,208.4,27.8,208.1z"/>
		<path class="st119" d="M42.1,225.7c-0.3,0-0.5,0-0.8,0c0.4-0.3,0.9-0.1,1.4-0.1c0,0.1,0,0.1,0,0.3
			C42.3,225.9,42.2,225.9,42.1,225.7z"/>
		<path class="st120" d="M42.6,225.7v-0.1c0.4,0,0.6,0,1,0h0.1c0.1,0,0.1,0,0.1,0v0.1c-0.3,0-0.5,0-0.6,0
			C43,225.9,42.7,225.9,42.6,225.7z"/>
		<path class="st121" d="M51.6,215.4c0,0.1,0.1,0.1,0.1,0.3c0,0.4,0,0.6-0.1,1c0-0.1-0.1-0.1-0.1-0.3
			C51.4,216.2,51.4,215.8,51.6,215.4z"/>
		<path class="st122" d="M44,209.2c0.3,0,0.4-0.1,0.6-0.1s0.4,0,0.6,0c0,0.1,0,0.3-0.1,0.3C44.8,209.4,44.4,209.5,44,209.2z"/>
		<path class="st123" d="M45.2,225.6v-0.1c0.4,0,0.9,0,1.3,0c0,0.1,0,0.1,0,0.1c-0.1,0-0.4,0-0.5,0c-0.1,0.1-0.4,0-0.5,0
			C45.3,225.7,45.2,225.6,45.2,225.6z"/>
		<path class="st124" d="M46.3,225.6v-0.1c0.3-0.1,0.4-0.1,0.6-0.1v0.1c0,0.1-0.1,0.1-0.1,0.3C46.7,225.6,46.6,225.6,46.3,225.6z"/>
		<path class="st92" d="M47.8,209.2c-0.1,0-0.3,0-0.4,0c-0.3,0.1-0.5,0.3-0.9,0.1c-0.1,0-0.1-0.1-0.1-0.3
			C46.8,209,47.2,209,47.8,209.2z"/>
		<path class="st125" d="M28.6,220.3L28.6,220.3c-0.1,0-0.1,0-0.1,0c0-0.4,0-0.9,0-1.3h0.1C28.8,219.5,28.8,219.9,28.6,220.3z"/>
		<path class="st126" d="M50.1,223.2V223c0.3-0.3,0.5-0.3,0.9-0.1c0,0,0,0,0.1,0l0,0c0,0,0.1,0,0.1,0.1
			C50.9,223.3,50.5,223.3,50.1,223.2z"/>
		<path class="st127" d="M46.3,209v0.1c-0.1,0.1-0.3,0.3-0.5,0.3c-0.3,0-0.4,0-0.5-0.3V209C45.7,209,46.1,209,46.3,209z"/>
		<path class="st128" d="M52,214.7c0-0.1-0.1-0.1-0.1-0.3c-0.3-0.3-0.3-0.6,0-0.9c0.1,0,0.1,0,0.3,0C52,214,52,214.3,52,214.7z"/>
		<path class="st129" d="M52.2,212.7l-0.1-0.1c-0.3-0.3-0.3-0.6,0-0.9c0,0.1,0.1,0.1,0.1,0.3C52.3,212.1,52.2,212.4,52.2,212.7z"/>
		<path class="st130" d="M28.1,210.5c0,0.1,0,0.3-0.3,0.4c0-0.4,0-0.8,0-1c0.1,0,0.1,0,0.3,0C28.2,210.1,28.2,210.2,28.1,210.5z"/>
		<path class="st131" d="M52,209.5c0.1,0,0.3,0,0.4,0c0.1,0.3,0,0.6,0,0.9h-0.1C52,210.2,51.9,209.9,52,209.5z"/>
		<path class="st132" d="M41.4,223.7c0,0-0.1,0-0.1-0.1s0-0.1,0.1-0.3c0.4-0.1,0.6-0.1,0.9,0c0.1,0.1,0.1,0.1,0,0.3
			C42.1,223.5,41.8,223.7,41.4,223.7z"/>
		<path class="st133" d="M35.3,223.8v0.1c-0.4,0-0.8,0-1,0v-0.1C34.5,223.5,34.9,223.5,35.3,223.8z"/>
		<path class="st134" d="M28.7,224.2c0.4-0.1,0.8-0.1,1.2,0C29.5,224.3,29.1,224.4,28.7,224.2z"/>
		<path class="st135" d="M51.5,217.5c0,0.1,0.1,0.1,0.1,0.3c0,0.3,0,0.5,0,0.6h-0.1C51.3,218,51.3,217.7,51.5,217.5z"/>
		<path class="st136" d="M42.3,223.5v-0.1c0.3-0.3,0.5-0.3,0.6,0c0.1,0,0.1,0.1,0.3,0.1C43,223.7,42.7,223.7,42.3,223.5z"/>
		<path class="st137" d="M27.9,209.8L27.9,209.8h-0.1c0-0.3-0.1-0.6,0-0.9h0.1C28.3,209.2,28.3,209.4,27.9,209.8z"/>
		<path class="st138" d="M39.3,208.8v-0.1c0.3,0,0.6,0,0.9,0c-0.1,0-0.3,0.1-0.4,0.1C39.6,209,39.5,209,39.3,208.8z"/>
		<path class="st139" d="M31.8,223.9v0.1c-0.3,0-0.5,0.1-0.8,0c0-0.1,0-0.1,0.1-0.3C31.4,223.8,31.6,223.8,31.8,223.9z"/>
		<path class="st140" d="M31,223.9v0.1c-0.3,0-0.5,0-0.6,0v-0.1C30.7,223.8,30.9,223.8,31,223.9z"/>
		<path class="st141" d="M36.6,208.6v-0.1c0.3,0,0.5,0,0.8,0c-0.1,0.1-0.4,0.1-0.5,0.3C36.7,208.8,36.6,208.8,36.6,208.6z"/>
		<path class="st142" d="M43.3,208.9c-0.1,0-0.3,0.1-0.3,0.1c-0.1,0.1-0.3,0-0.4,0v-0.1C42.8,208.9,43.1,208.9,43.3,208.9z"/>
		<path class="st116" d="M51.4,221.7c0-0.1,0-0.4-0.1-0.5l0.1-0.1C51.5,221.3,51.5,221.6,51.4,221.7z"/>
		<path class="st143" d="M46.6,223.3v0.1c-0.1,0-0.4,0-0.5,0v-0.1C46.2,223,46.3,223,46.6,223.3z"/>
		<path class="st116" d="M51.1,222.9h0.1c0,0.1,0,0.1,0,0.1l0,0l0,0C51,223,51.1,222.9,51.1,222.9z"/>
		<path class="st134" d="M28.7,223.9c0,0.1,0,0.1,0,0.3c-0.1,0-0.1-0.1-0.1-0.3C28.6,223.9,28.7,223.9,28.7,223.9z"/>
		<path class="st144" d="M48.4,225.5v0.1c0,0,0.1,0.1,0,0.1c0,0,0,0-0.1,0h-0.1c0,0,0,0,0-0.1c-0.1,0-0.4,0-0.5-0.1
			c0-0.1,0-0.1,0-0.1C47.9,225.5,48.1,225.5,48.4,225.5z"/>
		<path class="st145" d="M47.6,225.5v0.1c0,0.1-0.1,0.1-0.1,0c-0.1,0-0.4,0-0.5,0c0-0.1,0.1-0.1,0.1-0.3
			C47.4,225.4,47.5,225.5,47.6,225.5z"/>
		<path class="st146" d="M42.6,225.7c0.1,0,0.4,0,0.5,0v0.1c-0.3,0-0.6,0-0.9,0c-0.1,0-0.1,0-0.3,0l0.1-0.1
			C42.2,225.7,42.4,225.7,42.6,225.7z"/>
		<path class="st147" d="M48.4,225.7v-0.1c0.3,0,0.5,0,0.8,0v0.1C48.9,225.7,48.7,225.7,48.4,225.7z"/>
		<path class="st0" d="M208.7,19.2c-0.1,0.4-0.1,0.9-0.3,1.4c-0.1,0.4-0.1,0.6-0.3,1c-0.1,0.4,0,0.6,0.4,0.6
			c0.6,0.1,1.4,0.3,2.1,0.5c0.3,0,0.6,0.1,0.9,0.3c0.5,0.4,0.8,0.9,0.5,1.4c-0.1,0.5-0.6,0.8-1.3,0.6c-0.8-0.1-1.7-0.3-2.5-0.5
			c-0.8-0.1-0.8-0.3-1,0.6c-0.1,0.8-0.3,1.4-0.5,2.2c-0.1,0.5-0.5,0.8-1,0.8c-0.5,0-0.9-0.3-1-0.6c-0.1-0.3-0.1-0.5,0-0.8
			c0.1-0.8,0.3-1.6,0.5-2.3c0.1-0.4,0-0.6-0.4-0.6c-1,0-1.8-0.5-2.9-0.6c-0.8-0.1-1.2-0.6-1-1.4c0.1-0.6,0.8-1,1.4-0.9
			c0.9,0.1,1.7,0.4,2.6,0.5c0.8,0.1,0.8,0.1,1-0.6c0.1-0.8,0.3-1.6,0.5-2.3c0.1-0.5,0.6-0.9,1.2-0.8
			C208.3,18.1,208.7,18.6,208.7,19.2z"/>
		<path class="st148" d="M42.8,238.7c2.5-0.5,5.1-0.8,7.6-1c-0.8,0.4-1.7,0.4-2.5,0.5c-0.9,0.1-1.7,0.3-2.6,0.4S43.7,239,42.8,238.7
			z"/>
		<path class="st149" d="M47.5,225.6h0.1c0.1,0,0.4,0,0.5,0.1c-0.3,0-0.5,0.1-0.8,0C47.5,225.7,47.5,225.6,47.5,225.6z"/>
		<path class="st150" d="M43.9,225.7C43.9,225.7,43.9,225.6,43.9,225.7c0.3-0.1,0.5-0.1,0.8-0.1c0,0,0.1,0.1,0,0.1c0,0,0,0-0.1,0
			C44.3,225.7,44.1,225.7,43.9,225.7z"/>
		<path class="st151" d="M44.5,225.7v-0.1c0.1,0,0.4,0,0.5,0h0.1c0,0,0.1,0.1,0,0.1l0,0c-0.1,0-0.4,0-0.5,0
			C44.6,225.7,44.6,225.7,44.5,225.7z"/>
		<path class="st152" d="M45.3,225.7v-0.1c0.1,0,0.4,0,0.5,0v0.1C45.7,225.7,45.4,225.7,45.3,225.7z"/>
		<path class="st116" d="M46.6,223.3c-0.1,0-0.4,0-0.5,0c-0.8-0.1-1.6,0-2.3,0c-0.3-0.1-0.4,0-0.6,0.1c-0.3,0-0.5,0-0.6,0
			c-0.4,0-0.8-0.1-1,0c-0.5,0.1-1.2-0.1-1.8,0.1c-0.5,0-1.2-0.1-1.7,0c-0.6,0-1.3-0.3-1.8,0.1c-0.3,0-0.5,0-0.8,0
			c-0.4,0-0.8-0.1-1,0c-0.8,0-1.6-0.1-2.3,0.1c-0.3,0-0.5,0-0.8,0c-0.3,0-0.5,0-0.8,0c-0.5,0-1,0-1.6,0c0-0.6,0-1.2,0-1.8
			c0-0.6,0.1-1.3-0.1-1.8c0-0.4,0.1-0.8,0-1.3c0-0.6,0.3-1.4-0.1-2.1c0-0.5,0.1-1,0-1.7c0-0.6,0.1-1.3-0.1-1.8c0-0.5,0-0.9,0-1.4
			c0-0.5,0.1-1.2-0.1-1.7c0-0.3,0-0.5,0-0.6c0-0.3,0-0.6,0-0.9c0-0.1,0-0.4,0-0.5c0.3-0.1,0.6-0.1,0.9,0c0.5,0,1.2,0,1.7,0
			c0.4,0.1,0.9,0.1,1.4,0c0.6,0.1,1.4,0,2.1,0.1c0.4,0,0.6,0,1,0.1c0.5,0.1,1,0,1.6,0.1c0.1,0,0.1,0,0.3,0c0.4,0.1,0.6,0.1,1,0
			c0.5,0.1,1,0.1,1.4,0c0.1,0,0.4,0,0.5,0c0.9,0.3,1.8,0.1,2.9,0.1c0.1,0,0.3,0,0.4,0c0.4,0.1,0.6,0.1,1,0c0.4,0.1,0.9,0.1,1.3,0
			c0.1,0,0.4,0,0.5,0c0.5,0.1,1,0,1.6,0.1c0.4,0,0.8,0,1.3,0c0.5,0.3,1.2,0,1.7,0.1c0.5,0,1.2,0,1.7,0c0.3,0.3,0.3,0.5,0.3,0.9
			c-0.3,0.4-0.3,0.8-0.1,1.2c0,0.3,0,0.6,0,0.9c-0.3,0.4-0.1,0.8-0.1,1s0,0.6,0,0.9c-0.3,0.3-0.1,0.6-0.1,0.9c0,0.4,0,0.6,0,1
			c-0.3,0.3-0.1,0.6-0.1,0.9c-0.1,0.3,0,0.6,0,0.9c-0.3,0.4-0.1,0.8-0.1,1c0,0.6-0.3,1.2-0.1,1.8c-0.1,0.5,0,1.2-0.3,1.7
			c-0.3,0.1-0.6,0.1-0.9,0.1c-1,0-2.1,0-3.1,0C46.8,223.2,46.7,223.2,46.6,223.3z"/>
		<path class="st153" d="M39.6,223.7c0.5-0.4,1.2-0.1,1.8-0.1v0.1c-0.4,0-0.8,0-1.2,0C39.9,223.7,39.7,223.7,39.6,223.7z"/>
		<path class="st154" d="M50.2,209.5c-0.5-0.1-1.2,0.1-1.7-0.1c0.3,0,0.5,0,0.6,0c0.4,0,0.6,0,1,0V209.5z"/>
		<path class="st155" d="M51.1,222.9v0.1C51,223,51,223,51.1,222.9C51,222.9,51.1,222.9,51.1,222.9z"/>
		<path class="st156" d="M29,208.3c-0.3,0-0.6,0-0.9,0c0-0.1,0-0.1,0-0.3c0.3,0,0.6,0,0.9,0C29,208.3,29,208.3,29,208.3z"/>
		<path class="st157" d="M47.4,209.4c-0.5,0-1,0.1-1.6-0.1c0.1,0,0.4,0,0.5,0c0.4,0,0.6,0,1,0C47.4,209.3,47.4,209.3,47.4,209.4z"/>
		<path class="st158" d="M36.6,216.5c0.4,0,0.6,0,1,0c0.3-0.1,0.4-0.1,0.6,0c0.4,0.1,0.6,0.1,1,0c0.1-0.1,0.4-0.1,0.5,0
			c0.3,0.1,0.6,0.3,0.9,0c0.3,0,0.5,0,0.8,0.1c0.3,0,0.5,0,0.6,0c0.3,0,0.4-0.4,0.8-0.1c0.3,0.3,0.6,0.3,0.9,0.1
			c0.3-0.1,0.5-0.3,0.8,0c0.4,0.1,0.6,0.1,1,0c0.3-0.1,0.4-0.1,0.5,0c0.4,0,0.8,0.3,1.2,0c0.1-0.1,0.4-0.1,0.5,0
			c0.1,0.1,0.5,0.1,0.6,0.4c0,0.3-0.3,0.3-0.4,0.3c-0.3,0-0.5,0.1-0.8,0c-0.3,0-0.3,0.5-0.5,0.3c-0.3-0.3-0.5-0.3-0.8-0.3
			s-0.6,0-0.9,0c-0.1,0.1-0.3,0.1-0.4,0c-0.4-0.3-0.9-0.3-1.3,0c-0.1,0.1-0.3,0.1-0.4,0c-0.3-0.3-0.6-0.1-0.9,0
			c-0.1,0.1-0.3,0.1-0.4,0c-0.5-0.3-1-0.3-1.6,0c-0.1,0.1-0.3,0.1-0.3,0c-0.4-0.3-0.8-0.1-1-0.1c-0.1,0.1-0.3,0.1-0.4,0
			c-0.4,0-0.8-0.1-1.3,0c-0.1,0.1-0.4,0.1-0.5,0c-0.4-0.3-0.9-0.3-1.3,0c-0.1,0.1-0.3,0.1-0.4,0c-0.3-0.1-0.5-0.1-0.8-0.1
			c-0.3,0-0.5,0.3-0.8,0.1c-0.3-0.3-0.6-0.3-1-0.3c-0.3,0-0.5,0.1-0.8-0.1c0.3-0.3,0.6-0.3,0.9-0.4c0.1-0.1,0.4-0.1,0.5,0
			c0.3,0.3,0.6,0.1,0.9,0.1c0.3-0.3,0.5-0.3,0.8,0c0.3,0,0.6,0,0.9,0l0.1-0.1l0,0C36.4,216.2,36.5,216.3,36.6,216.5z"/>
		<path class="st159" d="M39.9,216.5c-0.1,0-0.4,0-0.5,0c0-1.7,0-3.2,0-4.9c0-0.3-0.1-0.6,0.3-0.6c0.4,0,0.3,0.4,0.3,0.6
			C39.9,213.2,39.9,214.9,39.9,216.5z"/>
		<path class="st160" d="M47.9,216.7c-0.1,0-0.4,0-0.5,0c0-1.6-0.1-3,0.1-4.5c0-0.1,0.1-0.3,0.4-0.3
			C48.1,213.4,47.8,215.1,47.9,216.7z"/>
		<path class="st161" d="M44.6,216.7c-0.3,0-0.5,0-0.8,0c0.1-0.3,0.1-0.6,0.1-0.9c0-1,0-1.9,0-3c0-0.3,0-0.4,0-0.6
			c0-0.1,0.1-0.3,0.3-0.3c0.1,0,0.3,0.1,0.3,0.3c0,0.3,0,0.4,0,0.6C44.5,214.1,44.6,215.4,44.6,216.7z"/>
		<path class="st162" d="M46.2,216.7c-0.1,0-0.4,0-0.5,0c0-1,0-2.1,0-3.1c0-0.3,0-0.4,0-0.6c0-0.1,0.1-0.3,0.3-0.3
			c0.1,0,0.3,0.1,0.3,0.3c0,0.3,0,0.4,0,0.6C46.2,214.6,46.2,215.6,46.2,216.7z"/>
		<path class="st163" d="M38.2,216.4c-0.3,0-0.4,0-0.6,0c0-1,0-2.1,0-3.2c0-0.1,0-0.4,0-0.5c0-0.1,0-0.1,0.1-0.1
			c0.1,0,0.1,0,0.3,0.1c0.1,0.3,0.1,0.5,0.1,0.6C38.2,214.5,38.2,215.5,38.2,216.4z"/>
		<path class="st164" d="M43,216.5c-0.3,0-0.5,0.1-0.8,0.1c0.3-0.3,0.3-0.6,0.3-0.9c0-0.8,0-1.4,0-2.2c0-0.1,0-0.4,0-0.5
			c0-0.1,0.1-0.3,0.3-0.3c0.3,0,0.3,0.1,0.3,0.3c0,0.6,0,1.2,0,1.8C43,215.4,43,216,43,216.5z"/>
		<path class="st165" d="M36.6,216.5c-0.1,0-0.4-0.1-0.5-0.1c-0.1-0.9-0.1-1.8,0-2.9c0-0.1,0-0.3,0-0.4s0.1-0.3,0.3-0.3
			c0.1,0,0.3,0.1,0.3,0.3c0,0.5,0,0.9,0,1.4C36.6,215.2,36.6,215.9,36.6,216.5z"/>
		<path class="st166" d="M40.9,216.3c-0.1-1.3-0.3-2.5,0.1-3.8c0.4,0.5,0.3,1.2,0.3,1.8c0,0.6,0,1.3-0.1,1.9
			C41.1,216.4,41,216.4,40.9,216.3z"/>
		<path class="st167" d="M34.9,216.4c-0.3-0.1-0.5-0.1-0.8,0c0.3-0.6,0.3-1.3,0.1-2.1c-0.1-0.3,0-0.5,0.1-0.8
			c0.4,0.1,0.4,0.5,0.5,0.8C34.9,215.1,34.8,215.8,34.9,216.4z"/>
		<path class="st168" d="M33.2,216.3c-0.1,0-0.4,0-0.5,0c0-0.6,0.1-1.2,0-1.8c0-0.1,0-0.3,0-0.4s0.1-0.3,0.3-0.3
			c0.1,0,0.3,0.1,0.3,0.3c0,0.5,0,1,0,1.6C33.2,215.9,33.2,216.2,33.2,216.3z"/>
		<path class="st159" d="M33.6,217.1c0.3-0.1,0.5-0.3,0.8-0.1c-0.3,0.3-0.4,0.5-0.4,0.9c0,0.3,0.1,0.6-0.3,0.9
			C33.6,218.1,33.6,217.6,33.6,217.1z"/>
		<path class="st160" d="M40,217.2c0.1,0,0.3,0,0.3,0c0,0.5,0.1,1-0.1,1.6C40,218.2,40,217.7,40,217.2z"/>
		<path class="st159" d="M41.8,217.2c0.1,0,0.3,0,0.4,0c0,0.5,0.1,1-0.3,1.7C41.8,218.2,41.9,217.7,41.8,217.2z"/>
		<path class="st169" d="M43.1,217.2c0.1,0,0.3,0,0.4,0c0,0.4,0.1,0.8-0.1,1.2C43,218.1,43.2,217.6,43.1,217.2z"/>
		<path class="st170" d="M36.7,217.1c0.1,0,0.4,0,0.5,0c0,0.3,0.1,0.8-0.3,0.8C36.6,217.8,36.7,217.3,36.7,217.1z"/>
		<path class="st171" d="M38.6,217.1c0.1,0,0.3,0,0.4,0c0,0.3,0.1,0.5-0.3,0.9C38.4,217.7,38.6,217.3,38.6,217.1z"/>
		<path class="st172" d="M35.2,217.1c0.1,0,0.3,0,0.4,0c0,0.1,0,0.1,0,0.3c0,0.1-0.1,0.1-0.1,0.1c-0.1,0-0.1-0.1-0.3-0.3
			C35.1,217.2,35.1,217.1,35.2,217.1z"/>
		<path class="st173" d="M44.8,217.2c0.1,0,0.3,0,0.4,0c0,0.1,0,0.4-0.1,0.4C44.6,217.7,44.8,217.5,44.8,217.2z"/>
		<path class="st174" d="M40.9,216.3c0.1,0,0.3,0,0.4,0c0.1,0.1,0.1,0.3,0.3,0.4c-0.3,0-0.5,0.1-0.8-0.1
			C40.8,216.4,40.9,216.4,40.9,216.3z"/>
		<path class="st165" d="M36,216.3c0,0.1-0.1,0.1-0.1,0.1C36,216.4,36,216.4,36,216.3z"/>
		<g>
			<path class="st1" d="M40.6-0.1c5.7,0,10.9,1.3,15.8,3.8c3.8,1.9,7.1,4.5,10,7.6c4.4,4.9,7.4,10.8,8.6,17.4
				c0.9,5.6,0.5,11.1-1.6,16.6c-1.4,3.6-3.4,6.9-6.1,9.6c-2.3,2.5-4.9,4.4-7.8,6c-0.5,0.3-0.5,0.5-0.5,1c0.1,1.7,0.6,3.4,1.4,4.9
				c0.9,1.7,1.9,3.4,3.1,4.9c0.6,0.9,1.3,1.8,2.3,2.6c0.3,0.1,0.3,0.4,0.3,0.8c0,1.2-0.6,2.2-1.9,2.6c-1.6,0.4-3.1,0.5-4.7,0.3
				c-3.4-0.8-6.6-1.8-9.5-3.6c-2.1-1.3-4-2.7-5.4-4.5c-0.8-0.9-1.2-2.1-1.8-3c-0.3-0.4-0.5-0.9-0.8-1.3c-0.3-0.8-0.9-1-1.7-1.2
				c-3.9-0.5-7.6-1.8-11.1-3.6s-6.7-4.3-9.5-7.3c-3.4-3.5-5.8-7.6-7.4-12.2c-0.8-2.2-1.3-4.5-1.6-6.7s-0.4-4.5-0.1-6.9
				c0.5-6.2,2.6-11.8,6.6-16.6c4.1-5.2,9.6-8.3,16.1-10C35.8,0.2,38.3-0.1,40.6-0.1z"/>
			<path class="st12" d="M57.9,72.2c-2.5-0.8-4.8-1.9-7-3.5c-2.2-1.6-3.6-3.6-4.9-5.8c-0.5-0.9-0.9-1.8-1.3-2.7
				c-0.3-0.5-0.6-0.8-1.2-0.8c-4.5-0.1-8.7-1.6-12.7-3.8c-3-1.7-5.6-3.8-7.9-6.3c-2.6-2.9-4.5-6.1-5.8-9.7c-0.5-1.7-1-3.2-1.3-5.1
				c-0.1-0.6-0.3-1.4-0.3-2.1c0-2.2-0.1-4.3,0.1-6.5c0.4-2.1,0.9-4.1,1.7-6c1.3-3,3.1-5.7,5.4-8c3.2-3.1,6.9-5.2,11.1-6.3
				c2.3-0.6,4.8-1,7.1-0.9c3.4,0.1,6.7,0.8,10,1.9c3,1.2,5.7,2.7,8.2,4.7c1.8,1.4,3.5,3.1,4.9,4.9c1.4,1.8,2.6,3.8,3.6,5.7
				c1,2.2,1.8,4.4,2.3,6.7c0.5,2.2,0.6,4.4,0.5,6.7c-0.1,3.1-0.8,6-1.9,8.8c-1.2,2.6-2.7,5.1-4.5,7.1c-1,1.2-2.5,1.9-3.6,3
				c-1.6,1.2-3.1,2.1-4.9,2.9c-0.4,0.1-0.6,0.4-0.8,0.9c-0.5,3.2-0.8,6.5,0.6,9.6c0.6,1.4,1.4,2.9,2.2,4.3
				C57.7,71.8,58,72,57.9,72.2z"/>
			<path class="st0" d="M58.6,23.6c0,0.3,0,0.5-0.1,0.8c-0.6,0.9-1,1.9-1.7,3c-0.4,0.5-0.6,1.2-0.9,1.8c-0.1,0.4,0,0.6,0.1,0.9
				c1,2.7,2.2,5.3,3.4,8c0.9,2.1,1.7,4.1,2.6,6.3c0.3,0.8,0.1,1.2-0.6,1.6c-2.5,1-4.9,1.9-7.3,3c-3.8,1.6-7.5,3.1-11.3,4.7
				c-1.8,0.8-3.8,1.6-5.6,2.3c-0.1,0.1-0.4,0.1-0.5,0.1c-0.6,0.1-0.9,0-1.2-0.5c-0.5-1.3-1-2.5-1.6-3.8c-2.5-6-4.9-12-7.4-18
				c-0.6-1.4-1.2-2.9-1.8-4.3c-0.3-0.6-0.3-1.3-0.1-1.9c1.3-3.8,2.6-7.4,3.8-11.1c0.3-0.6,0.6-1,1.2-1.3c4.7-1.9,9.3-3.9,14-5.8
				c0.8-0.4,1.6-0.6,2.3-0.9c0.8-0.3,1-0.1,1.3,0.6c1.3,3.2,2.6,6.5,4,9.7c0.3,0.5,0.5,1,0.6,1.7c0.1,0.6,0,1-0.8,0.9
				c-0.6-0.5-0.8-1.3-1-1.9c-1.2-2.9-2.3-5.7-3.5-8.6c-0.4-1-0.5-1-1.4-0.6c-4.7,1.9-9.3,3.9-14,5.8c-0.6,0.3-0.8,0.6-0.5,1.3
				c1,2.2,1.8,4.4,2.7,6.6c0.5,1.3,0.4,1.9-1,2.5c-1.2,0.5-2.3,1-3.5,1.4c-0.3,0.1-0.4,0.1-0.6,0.3c-0.4,0.1-0.8,0.3-1.2,0.5
				c-1,0.4-1,0.5-0.6,1.4c2.1,4.9,4.1,10,6.2,14.9c1.2,3,2.5,6,3.6,8.9c0.4,1,0.4,1,1.4,0.6c7.4-3,14.6-6.1,22-9.2
				c0.9-0.4,0.9-0.4,0.5-1.4c-1.7-4.1-3.4-8.3-5.2-12.7c-0.6,1.3-1.3,2.6-2.1,3.8c-0.1,0.1-0.1,0.4,0,0.5c0.5,0.6,0.4,0.9-0.3,1.2
				c-0.8,0.4-1.6,0.6-1.7,1.7c0.8-0.1,1.3-0.5,1.9-0.6c0.3-0.1,0.6-0.3,0.9-0.3s0.4,0.1,0.5,0.4c0.1,0.3,0,0.4-0.1,0.5
				c-0.3,0.3-0.5,0.4-0.9,0.5c-0.9,0.4-1.9,0.8-2.9,1.2c-0.5,0.3-0.9,0.5-0.9,1.2c1.2-0.4,2.3-0.9,3.4-1.4c0.4-0.1,0.8-0.4,1.3-0.4
				c0.3,0,0.6,0,0.8,0.4c0.1,0.3-0.1,0.5-0.4,0.6c-0.8,0.5-1.8,0.8-2.7,1.2c-1,0.5-2.1,0.8-3,1.3c-0.3,0.1-0.5,0.3-0.9,0
				c-0.3-0.5,0-1.2,0.1-1.7c0.8-2.1,1.9-3.8,3-5.6c2.2-3.9,4.4-7.6,6.6-11.5c0.1-0.3,0.3-0.8,0.8-0.6C58.6,23.1,58.8,23.4,58.6,23.6
				z"/>
			<path class="st175" d="M53.5,17.9c0.6-1.4,1.6-2.6,2.7-3.8c1.3-1,2.2-1.2,3.5-0.1c0.4,0.4,0.8,0.8,1.2,1.2c0.9,0.9,1,1.9,0.6,3
				c-0.4,1.3-0.9,2.6-1.7,3.6c-0.4,0.1-0.5-0.1-0.6-0.4c-0.4-0.5-0.8-1-1.3-1.4c-0.3-0.3-0.5-0.4-0.8-0.6c-0.9-0.6-1.9-1-3.1-1
				C53.6,18.5,53.3,18.5,53.5,17.9z"/>
			<path class="st176" d="M51.1,20.9c0.6,0.1,0.6-0.4,0.8-0.8c0.4,0.3,0.8,0,1.2-0.1c0.1-0.1,0.3-0.1,0.4-0.1h0.1c0,0,0,0.1,0.1,0.1
				c0,0.8-0.5,1.3-0.9,1.9c-3.1,5.2-6.2,10.4-9.5,15.5c0,0.1-0.1,0.1-0.1,0.3c0,0.1-0.1,0.3-0.3,0.4c-0.6,0.6-1.3,1.4-2.3,1.6
				c-1.2,0.1-2.1,0.6-3.1,1c-1.4,0.5-2.9,1.2-4.3,1.8c-0.3,0.1-0.4,0.1-0.6,0.3c-0.3,0-0.5,0-0.6-0.3s0-0.5,0.3-0.8
				c0.3-0.1,0.4-0.3,0.6-0.3c2.5-1,4.9-2.1,7.3-3c0.6-0.3,1.3-0.6,1.7-1.4c0.6-1,1.3-2.1,1.9-3.1c0-0.1,0.1-0.1,0.1-0.3
				c0.1-0.1,0.1-0.1,0.3-0.3c0.3-0.3,0.4-0.6,0.5-0.9c1.8-3.5,4-6.6,6-10.1C51,21.8,51,21.4,51.1,20.9z"/>
			<path class="st177" d="M53.5,17.9c0,0.1,0,0.4,0.3,0.3c1.4-0.1,2.6,0.4,3.6,1.2c-0.1,0.1-0.3,0.3,0,0.4c0.4,0.3,0.6,0.8,1,1
				c-0.1-0.3-0.8-0.4-0.3-0.9c0.6,0.4,1.2,0.9,1.4,1.7c0.1,0.1,0.1,0.3,0.4,0.4c-0.3,0.5-0.5,0.9-0.9,1.3c-0.3-0.1-0.4-0.4-0.5-0.6
				c-1.2-1.9-2.7-3-5.1-3c-0.3,0-0.4,0-0.6,0h-0.1c-0.1-0.1-0.1-0.3-0.1-0.3C53.1,19,53.2,18.3,53.5,17.9z"/>
			<path class="st178" d="M53.3,19.5c2.5-0.3,4.8,1.3,5.7,3.8c0,0.3-0.1,0.4-0.4,0.4c-0.1-0.1-0.1-0.4-0.3-0.5
				c-0.3-0.1-0.4-0.4-0.5-0.6c-0.3-0.3-0.5-0.6-0.8-0.9c-0.1,0-0.1-0.1-0.1-0.1c-0.3-0.3-0.5-0.5-0.9-0.8c-0.1-0.1-0.1-0.1-0.3-0.3
				c-0.1,0-0.1,0-0.3-0.1c-0.1,0.1-0.3,0.1-0.4,0.1c-0.4-0.1-0.8-0.1-1.3-0.1c-0.1,0-0.3-0.1-0.4-0.1l0,0c0-0.1-0.1-0.1-0.1,0
				c-0.1,0-0.3,0-0.4,0c-0.3,0-0.4-0.1-0.3-0.4l0,0C52.9,19.5,53.2,19.6,53.3,19.5z"/>
			<path class="st3" d="M51.1,20.9c0.3,0.5,0.1,0.9-0.1,1.3c-1.9,3.2-4,6.6-6,9.8c-0.1,0.1-0.3,0.3-0.3,0.4
				c-0.3,0.3-0.5,0.4-0.8,0.5c-3.4,1.7-6.7,3-10.2,4.4c-1,0.4-1.3,0.3-1.7-0.6c-1.2-2.7-2.3-5.6-3.5-8.3c-0.1-0.4-0.4-0.6-0.1-1.2
				c1.3-0.5,2.6-1.2,3.9-1.7c1-0.4,1.2-0.8,0.8-1.8c-0.9-2.3-1.9-4.7-2.9-7c-0.4-0.9-0.4-0.9,0.5-1.3c4.3-1.8,8.7-3.6,13-5.4
				c0.6-0.3,1.2-0.5,1.8-0.8C46.2,9,46.2,9,46.5,9.6c1,2.5,2.1,4.9,3.1,7.4C50,18.5,50.5,19.7,51.1,20.9z"/>
			<path class="st3" d="M44,33.6c0,0.1-0.1,0.3-0.1,0.4c-0.8,1.2-1.6,2.3-2.2,3.4c-0.3,0.4-0.5,0.6-0.9,0.8c-2.7,1-5.3,2.2-7.9,3.2
				c-0.3,0.1-0.9,0.1-0.6,0.6c0.3,0.5,0.6,0.1,1,0c2.3-0.9,4.5-1.9,6.9-2.9c0.3-0.1,0.5-0.4,0.6,0c0,0.3,0,0.5-0.1,0.8
				c-0.3,0.6-0.9,0.8-1.4,1c-1.7,0.6-3.2,1.4-4.9,2.1c-0.3,0.1-0.6,0.3-0.9,0.5c0.4,0,0.8-0.1,1-0.3c1.6-0.6,3.1-1.3,4.7-1.9
				c0.4-0.1,0.9-0.6,1.3-0.1c0.3,0.4-0.1,1.6-0.6,1.8c-0.9,0.4-1.8,0.8-2.7,1.2c-0.9,0.4-1.9,0.6-2.7,1.3c1.3-0.4,2.5-0.9,3.8-1.4
				c0.4-0.1,0.8-0.4,1.2-0.5c0.5-0.1,0.8,0.1,0.6,0.6c0,0.6-0.3,1-0.9,1.3c-1,0.4-2.1,0.9-3.1,1.3c-0.4,0.1-0.6,0.3-0.9,0.5
				c1-0.3,2.1-0.8,3.1-1.2c0.4-0.1,0.6-0.4,1-0.1c0.4,0.3,0.1,0.8,0.1,1.2c0,0.3-0.1,0.4-0.1,0.6s0,0.5-0.1,0.6
				c-0.3,1-0.4,2.1-0.6,3c-0.1,0.4-0.3,0.8-0.3,1.2c1.3-0.5,2.2-1.3,3.4-1.9c1.6-0.9,3.1-1.9,4.5-3.1c0.4-0.3,0.9-0.5,0.4-1.3
				c-0.3-0.3,0-0.6,0.1-0.9c0.3-0.5,0.5-1,0.6-1.6c0.1-0.3,0.4-0.5,0.5-0.8c0.1-0.3,0.3-0.6,0.5-0.8c1.8-0.8,3.6-1.6,5.4-2.2
				c0.4-0.1,0.8-0.3,1-0.5c0.1-0.1,0.3-0.3,0.1-0.4c0-0.1-0.3-0.3-0.4-0.3c-0.3,0-0.5,0.1-0.6,0.3c-1.3,0.5-2.6,1-4,1.7
				c-0.3,0.1-0.4,0.3-0.8,0.1c0.3-0.9,0.5-1.6,1.6-1.8c1-0.3,1.9-0.8,2.9-1.2c0.3-0.1,0.4-0.1,0.6-0.3c0.1-0.1,0.3-0.3,0.1-0.4
				c0,0-0.1-0.1-0.4-0.1c-0.1,0-0.4,0.1-0.5,0.1c-0.6,0.3-1.4,0.6-2.1,0.9c-0.3,0.1-0.4,0.3-0.8,0.1c0.4-0.9,0.6-1.7,1.7-2.1
				c0.3-0.1,0.5-0.1,0.8-0.3c0.3-0.1,0.4-0.3,0.3-0.5c-0.1-0.3-0.3-0.3-0.5-0.3c-0.1,0-0.3,0.1-0.4-0.1c1-1.4,1.8-3.1,2.7-4.8
				c0.6,1.7,1.3,3.1,1.9,4.5c1.3,3,2.5,6,3.8,8.9c0.3,0.6,0.3,0.8-0.4,1c-4,1.7-8,3.4-12,5.1c-3.6,1.6-7.3,3-10.9,4.5
				c-0.8,0.3-0.8,0.3-1-0.4c-2.6-6.2-5.1-12.4-7.6-18.5c-0.9-2.1-1.8-4.3-2.6-6.3c-0.4-0.8-0.4-0.8,0.3-1c0.6-0.3,1.2-0.5,1.8-0.6
				c0.6,0.5,0.8,1.3,1,2.1c1,2.5,2.1,4.8,3,7.3c0.5,1.2,0.5,1.2,1.7,0.8c3.1-1.3,6.2-2.6,9.3-3.9C43.5,33.5,43.7,33.4,44,33.6z"/>
			<path class="st179" d="M25.7,27.1c1.2-3.4,2.2-6.6,3.4-9.8h0.1c0.6,1.7,1.4,3.4,2.1,5.1c0.3,0.5,0.4,1,0.6,1.6
				c0.3,0.4,0.1,0.6-0.4,0.8c-1.7,0.6-3.2,1.3-4.9,1.9C26.5,26.9,26.2,27,25.7,27.1z"/>
			<path class="st3" d="M44,33.6c-1,0.1-1.8,0.6-2.9,1c-2.6,1-5.2,2.2-7.8,3.2c-1,0.4-1,0.4-1.4-0.6c-1-2.5-2.1-5.1-3.1-7.5
				c-0.3-0.8-0.6-1.6-0.9-2.2c0.1-0.1,0.4-0.3,0.5-0.3c0.9,2.3,1.9,4.5,2.9,6.9c0.4,0.9,0.6,1.7,1,2.6c0.3,0.8,0.4,0.8,1.2,0.5
				c3.8-1.6,7.5-3.1,11.3-4.7c-0.1,0.4-0.3,0.6-0.5,0.9C44.1,33.5,44.1,33.6,44,33.6L44,33.6z"/>
			<path class="st180" d="M40.4,40.1c0-0.3,0-0.5,0.3-0.6c0.9-0.3,1.6-1,2.2-1.6c0-0.1,0.1-0.1,0.1-0.3l0,0c0,0,0.1-0.1,0.1,0
				l0.1,0.1c0.1,0.1,0.3,0.1,0.5,0.1c0.5,0,0.9-0.4,1.3-0.5c0.1,0,0.3-0.1,0.3-0.1s0.1-0.1,0.3-0.1c0.1,0,0.3,0.1,0.3,0.3
				c0.1,0.3,0.3,0.5,0.5,0.8c0.3,0.1,0.4,0.1,0.6,0c0.1,0,0.3,0,0.4,0.1c0.4,0.3,0.1,0.8,0.4,1.2c0.1,0.3,0.3,0.4,0.4,0.6
				c0.3,0.3,0.4,0.5,0.1,0.8c0,0.6-0.4,1.2-0.3,1.8c0,0.4-0.3,0.6-0.4,0.9c-0.6-0.4-0.4-1-0.3-1.4c0.3-1-0.6-1.8-0.8-2.7
				c0-0.3-1.9-0.6-2.2-0.6c-1.2,0.1-2.3,0.5-3.1,1.3C41,40.2,40.8,40.3,40.4,40.1z"/>
			<path class="st181" d="M48.3,40.7c0-0.4-0.1-0.5-0.4-0.8c1.9-3,3.5-6.1,5.3-9.1c1.7-2.9,3.2-5.7,4.9-8.6c0.3,0.1,0.3,0.5,0.4,0.8
				c-0.3,0-0.4,0.3-0.5,0.5c-3,5.3-6,10.6-8.9,15.8C48.7,39.8,48.4,40.3,48.3,40.7z"/>
			<path class="st182" d="M58,20c0,0.1,0,0.4,0.1,0.5c0.3,0.3,0.5,0.4,0.6,0.9c-0.8-0.6-1.3-1.4-2.1-1.8c0.3-0.3,0.5-0.1,0.6-0.1
				C57.6,19.6,57.9,19.7,58,20z"/>
			<path class="st183" d="M43.2,37.6c-0.1,0-0.1,0-0.3,0c0.6-1.3,1.4-2.6,2.2-3.8c2.7-4.4,5.3-8.7,7.9-13.1c0.1-0.3,0.3-0.5,0.4-0.8
				c0.1,0,0.3,0,0.4,0c0.1,0.4-0.1,0.6-0.3,1c-3.1,5.4-6.5,10.8-9.7,16.1C43.7,37.2,43.6,37.6,43.2,37.6z"/>
			<path class="st183" d="M43,37.6c0,0.1-0.1,0.1-0.1,0.3C42.8,37.8,42.8,37.6,43,37.6z"/>
			<path class="st3" d="M44,33.6c0-0.1,0.1-0.1,0.3-0.1C44.3,33.6,44.1,33.6,44,33.6z"/>
			<path class="st183" d="M53.3,20c0.1-0.1,0.1-0.1,0.1,0H53.3z"/>
			<path class="st12" d="M53.3,19.5c-0.1,0.1-0.4,0.1-0.5,0.1C52.9,19.4,53.1,19.4,53.3,19.5z"/>
			<path class="st0" d="M43.2,37.6c1.2-1.8,2.3-3.6,3.4-5.4c2.3-3.8,4.5-7.5,6.9-11.3c0.1-0.3,0.3-0.5,0.5-0.9
				c0.5,0,0.9,0.1,1.4,0.1c0.4,0.5,0,0.8-0.3,1.2c-1.7,3.1-3.5,6.1-5.3,9.2c-1.2,1.9-2.3,3.9-3.5,5.8c-0.1,0.3-0.4,0.6-0.6,0.8v0.1
				c0,0.1-0.1,0.1-0.3,0.1c-0.5,0.1-0.9,0.6-1.6,0.5C43.5,37.9,43.2,38,43.2,37.6C43.1,37.8,43.1,37.6,43.2,37.6z"/>
			<path class="st0" d="M47.1,38.1c-0.1,0-0.3,0-0.4,0c-0.1,0.1-0.4,0.1-0.5,0c-0.3-0.3-0.4-0.5-0.5-0.9c0.6-1.4,1.6-2.7,2.3-4
				c2.5-4,4.9-8.2,7.1-12.3c0.1-0.3,0.1-0.5,0.5-0.5h0.1c0.1,0,0.1,0.1,0.3,0.1c0.3,0.4,0.8,0.4,0.9,0.9c0,0.4-0.1,0.5-0.3,0.8
				c-2.9,5.2-6,10.2-8.8,15.3C47.6,37.9,47.5,38.1,47.1,38.1z"/>
			<path class="st0" d="M58,22.3c0.1,0.4-0.1,0.8-0.4,1c-3,5.2-6,10.5-8.9,15.7c-0.3,0.4-0.3,0.9-0.9,0.9c-0.1-0.1-0.3-0.4-0.4-0.5
				c-0.3-1,0.1-1.8,0.6-2.6c2.9-4.8,5.7-9.7,8.6-14.6c0.1-0.3,0.3-0.6,0.6-0.8C57.6,21.7,57.7,22.1,58,22.3z"/>
			<path class="st184" d="M55.8,20.4c-1.3,2.3-2.6,4.5-3.9,6.9c-1.8,3.2-3.8,6.3-5.7,9.5c-0.1,0.3-0.3,0.4-0.4,0.5l-0.1-0.1
				c1.2-2.2,2.6-4.4,3.9-6.6c1.8-3.1,3.8-6.2,5.4-9.5c0.1-0.3,0.4-0.5,0.4-0.9C55.4,20.3,55.5,20.3,55.8,20.4z"/>
			<path class="st181" d="M57.2,21.4c-2.3,4.1-4.8,8.2-7.1,12.3c-0.6,1-1.2,2.1-1.8,3.1c-0.5,0.8-0.9,1.6-0.8,2.6
				c-0.3-0.1-0.1-0.4-0.1-0.6s0-0.5-0.3-0.6c1.4-2.5,2.9-4.8,4.3-7.3c1.7-3,3.4-5.8,5.1-8.8c0.1-0.3,0.3-0.5,0.5-0.6
				C57,21.4,57.1,21.4,57.2,21.4z"/>
			<path class="st184" d="M56,20.5c-0.1,0-0.1-0.1-0.3-0.1C55.9,20.4,56,20.4,56,20.5z"/>
			<path class="st3" d="M43.5,17.4c-0.4-0.3-0.6,0-0.9,0.1c-0.1,0-0.4,0.1-0.5-0.1c-0.1-0.3,0.1-0.4,0.3-0.4
				c0.6-0.3,1.3-0.5,1.9-0.8c0.4-0.1,0.5,0.1,0.5,0.4c-0.1,0.6-0.3,1.4-0.4,2.1c0,0.1-0.1,0.3-0.3,0.3c-0.3,0-0.3-0.3-0.3-0.4
				c0-0.3,0.3-0.5,0.1-0.9c-0.1,0-0.3,0.1-0.4,0.3c-0.6,0.8-1.4,1.4-1.8,2.5c0,0.1-0.1,0.1-0.1,0.3c-1,0.4-1.3,1.6-1.9,2.2
				c0,0,0,0.1-0.1,0.1c-0.5,0.5-0.3,1.3-1.2,1.7c-0.6,0.3-1,1-1.4,1.6c-0.4,0.4-0.9,0.9-1,1.4c0,0.1-0.1,0.3-0.1,0.3
				c-0.8,0.3-1.2,1-1.6,1.7c-0.5,0.5-0.9,1.2-1.4,1.8c-0.3,0.3-0.5,0.6-0.5,1c0,0.1-0.1,0.3-0.1,0.3c-0.1,0.1-0.3,0.3-0.5,0.3
				c-0.3,0-0.4-0.3-0.4-0.4c0-0.3,0-0.5,0.3-0.5c0.6-0.1,0.9-0.8,1.3-1.3c0.6-0.8,1.2-1.6,1.8-2.3c0.1-0.3,0.4-0.5,0.4-0.9
				c0-0.1,0.1-0.4,0.3-0.4c0.8-0.1,1-0.9,1.6-1.3c0.4-0.4,0.6-0.8,0.9-1c0.1-0.1,0.3-0.1,0.3-0.3c0.5-1.2,1.6-1.8,2.2-2.9
				c0.3-0.5,0.5-0.9,0.8-1.4c0.1-0.5,0.9-0.4,1.2-0.9C42.4,18.5,43,17.9,43.5,17.4z"/>
			<path class="st0" d="M40.4,40.1c0.8-0.3,1.3-0.6,1.9-1.2c0.3-0.3,0.5-0.4,0.9-0.3c0.5,0.1,0.9,0,1.4-0.3c0.4-0.1,0.6-0.3,0.9,0.1
				c0.3,0.4,0.6,0.4,1,0.4c0.3,0,0.4,0.1,0.4,0.4c0,0.5,0.1,1,0.6,1.4c0.3,0.3,0.1,0.5,0.1,0.9c-0.1,0.6-0.3,1.3,0,1.8
				c-0.1,0.3-0.4,0.5-0.5,0.6c-0.9,1.3-2.2,2.2-3.2,3.1c-0.6,0.5-1.2,1.2-1.8,1.7c-0.4,0.3-0.6,0.6-1.2,0.4
				c-0.4-0.8-0.9-1.3-1.8-1.2c-0.3,0-0.5,0-0.6-0.3c0.1-0.5,0.3-1,0.4-1.7c-1.3,0.5-2.5,1-3.8,1.6c-0.3,0.1-0.4,0.1-0.6,0.3
				c-0.3,0.1-0.4,0-0.4-0.3c-0.1-0.3,0-0.4,0.1-0.5c0.3-0.1,0.4-0.3,0.6-0.3c1.2-0.5,2.2-1,3.4-1.4c0.9-0.3,1-0.9,1-1.7
				c-0.3-0.1-0.5,0-0.6,0.1c-1.4,0.5-2.9,1.2-4.3,1.8c-0.3,0.1-0.8,0.4-0.9,0c-0.3-0.5,0.4-0.5,0.6-0.6c1.6-0.6,3.1-1.3,4.7-1.9
				c1.2-0.5,1.2-0.5,1.2-1.9c-0.8,0.3-1.6,0.5-2.3,0.9c-1.3,0.5-2.5,1-3.8,1.6c-0.3,0.1-0.5,0.1-0.8,0.3c-0.1,0-0.3,0-0.4-0.1
				c0-0.1,0-0.3,0.1-0.4c0.3-0.1,0.6-0.4,1-0.5c1.9-0.8,3.8-1.6,5.7-2.3C39.9,40.6,40.2,40.5,40.4,40.1z"/>
			<path class="st12" d="M41.1,49.3c0.5,0,0.6-0.3,1-0.5c1.6-1.4,3.1-2.9,4.7-4.3c0.1-0.1,0.3-0.1,0.4-0.3c-0.1,0.5-0.4,1-0.6,1.6
				c-0.4,0.9-0.4,0.9,0.4,1.6c-0.4,0.4-0.8,0.8-1.3,1.2c-0.6,0.4-1.4,0.9-2.1,1.4c-1.2,0.8-2.5,1.4-3.6,2.2
				c-0.6,0.5-1.4,0.9-2.3,1.4c-0.3-0.6,0-1.2,0.3-1.7c0.3,0.1,0.4,0.1,0.5,0c0.6-0.8,1.4-1.3,2.1-2.1C40.6,49.5,40.9,49.4,41.1,49.3
				z"/>
			<path class="st185" d="M56.4,43.2c0,0.3-0.3,0.4-0.5,0.5c-1.3,0.5-2.6,1-3.9,1.6c-0.9,0.4-1.8,0.8-2.7,1.2
				c-0.1,0.1-0.4,0.1-0.5,0.1c-0.1,0-0.4,0-0.4-0.3c-0.1-0.3,0-0.4,0.3-0.5c0.1-0.1,0.3-0.1,0.4-0.3c2.2-0.9,4.4-1.8,6.6-2.7
				C56.2,42.8,56.4,42.8,56.4,43.2z"/>
			<path class="st186" d="M48.1,44.6c-0.3,0-0.4,0-0.4-0.3c-0.1-0.3,0-0.4,0.1-0.5c0.1-0.1,0.4-0.1,0.5-0.3c2.1-0.9,4.1-1.7,6.2-2.6
				c0.1,0,0.3-0.1,0.4-0.1c0.3-0.1,0.4,0,0.5,0.3c0.1,0.3,0,0.4-0.3,0.4c-0.3,0.1-0.4,0.3-0.6,0.3c-1.9,0.8-4,1.7-6,2.5
				C48.5,44.5,48.3,44.5,48.1,44.6z"/>
			<path class="st187" d="M40.6,49.7c0,0.1,0,0.3-0.1,0.4c-0.9,0.8-1.7,1.7-2.6,2.5c-0.1-0.3-0.1-0.4-0.1-0.6c0.4-1,0.4-2.1,0.8-3.1
				C39.6,48.3,40.5,48.5,40.6,49.7z"/>
			<path class="st188" d="M40.6,49.7c-0.5-1-0.6-1-2.1-0.9c0-0.3,0-0.5,0-0.8c0.3,0.1,0.5,0,0.6,0c1-0.1,1.6,0.1,1.8,1.3
				C41,49.5,41,49.9,40.6,49.7z"/>
			<path class="st181" d="M46.2,38.1c0.1,0,0.4,0,0.5,0C46.6,38.4,46.3,38.4,46.2,38.1z"/>
			<path class="st183" d="M43.1,37.8c0.3,0,0.4,0,0.5,0.3C43.5,38,43.2,38,43.1,37.8z"/>
			<path class="st184" d="M45.3,37.5c0.1,0,0.1-0.1,0.3-0.1C45.4,37.4,45.4,37.4,45.3,37.5z"/>
			<g>
				<path class="st116" d="M31.8,33c0.4,0,0.6-0.3,0.6-0.6c0-0.1,0-0.3-0.1-0.4c0.8-0.9,1.8-2.3,3.1-3.9h0.1c0.4,0,0.6-0.3,0.6-0.6
					c0-0.1,0-0.1,0-0.3c0.9-1.2,1.7-2.1,2.3-2.9c0.1,0,0.1,0,0.3,0c0.4,0,0.6-0.3,0.6-0.6c0-0.1,0-0.3-0.1-0.4l2.1-2.6l0,0
					c0.4,0,0.6-0.3,0.6-0.6v-0.1l2.2-2.7l-0.1,1.7c0,0,0,0,0,0.1h0.3l0,0l0,0l0.3-2.3c0-0.1,0-0.1-0.1-0.1c0,0-0.1,0-0.3,0l-2.2,0.8
					c0,0,0,0,0,0.1l0.1,0.3l0,0l0,0l1.6-0.5l-2.1,2.6c-0.1-0.1-0.3-0.1-0.4-0.1c-0.4,0-0.6,0.3-0.6,0.6c0,0.1,0.1,0.4,0.3,0.5
					L38.9,23c-0.1,0-0.1,0-0.3,0c-0.4,0-0.6,0.3-0.6,0.6c0,0.1,0,0.3,0.1,0.4c-0.6,0.8-1.4,1.7-2.3,2.9c-0.1,0-0.3-0.1-0.3-0.1
					c-0.4,0-0.6,0.3-0.6,0.6c0,0.1,0,0.3,0.1,0.4c-1.3,1.7-2.6,3.2-3,3.9c-0.1,0-0.1,0-0.3,0c-0.4,0-0.6,0.3-0.6,0.6
					C31.2,32.7,31.4,33,31.8,33z"/>
				<path class="st116" d="M44.6,32.7L44.6,32.7l-11.9,4.8l-4.3-10.2l0,0l0,0l-0.3,0.1c0,0,0,0,0,0.1l4.4,10.4
					c0,0.1,0.1,0.1,0.3,0.1c0,0,0,0,0.1,0l12-4.9l0,0l0,0L44.6,32.7z"/>
			</g>
			<polygon class="st176" points="46.2,30.1 43.1,35.2 45.6,32.6 			"/>
		</g>
	</g>
</g>
<g id="Layer_2">
</g>
</svg>
