<?xml version="1.0" encoding="utf-8"?>
<!-- Generator: Adobe Illustrator 23.0.0, SVG Export Plug-In . SVG Version: 6.00 Build 0)  -->
<svg version="1.1" xmlns="http://www.w3.org/2000/svg" xmlns:xlink="http://www.w3.org/1999/xlink" x="0px" y="0px"
	 viewBox="0 0 256 256" style="enable-background:new 0 0 256 256;" xml:space="preserve">
<style type="text/css">
	.st0{display:none;}
	.st1{display:inline;}
	.st2{fill:#885F7B;}
	.st3{fill:#AE6DAC;}
	.st4{fill:#96489A;}
	.st5{fill:#B294C5;}
	.st6{fill:#6E904F;}
	.st7{fill:#E8B361;}
	.st8{fill:#B1D684;}
	.st9{fill:#856EB0;}
	.st10{fill:#98509E;}
	.st11{fill:#C27CB3;}
	.st12{fill:#FFFFFF;}
	.st13{fill:#E9B260;}
	.st14{fill:#46245E;}
	.st15{fill:#4C2D69;}
	.st16{fill:none;}
	.st17{fill:#B7424E;}
	.st18{fill:#846EB0;}
	.st19{fill:#AD6CAC;}
	.st20{fill:#6C914E;}
	.st21{fill:#4D2F6A;}
	.st22{fill:#874C9D;}
	.st23{fill:#884C9D;}
	.st24{fill:#78688A;}
	.st25{fill:#A872AF;}
	.st26{fill:#74658E;}
	.st27{fill:#43235B;}
	.st28{fill:#884E9E;}
	.st29{fill:#54AA4F;}
	.st30{fill:#E8CA7A;}
	.st31{fill:#B19AC9;}
	.st32{fill:#756B8E;}
	.st33{fill:#874F9E;}
	.st34{fill:#A972AF;}
	.st35{fill:#AFD587;}
	.st36{fill:#B1D686;}
	.st37{fill:#EBCC75;}
	.st38{fill:#EBCC76;}
	.st39{fill:#EAD179;}
	.st40{fill:#EAD079;}
	.st41{fill:#55A64D;}
	.st42{fill:#54AA4C;}
	.st43{fill:#55AB4C;}
	.st44{fill:#54AB4C;}
	.st45{fill:#54AD4C;}
	.st46{fill:#9A509E;}
	.st47{fill:#E5ADBB;}
</style>
<g id="Layer_1">
	<g>
		<g>
			<g class="st0">
				<g class="st1">
					<polygon class="st2" points="225.2,27.5 208,29.9 209.7,42.4 227.3,40 226.6,35.6 					"/>
					<polygon class="st3" points="231,156.7 232.9,168.2 249,165.7 246.1,154.2 					"/>
					<polygon class="st4" points="249.5,173.5 235.3,176.2 237.3,186.7 252.6,183.8 					"/>
					<polygon class="st5" points="230.2,43.5 211,46.2 212.6,57.4 232.2,54.7 232,53.9 					"/>
					<polygon class="st6" points="227.5,67.8 214,69.6 215.8,82.4 229.9,80.4 					"/>
					<polygon class="st7" points="234.1,86.5 218.5,88.6 220.1,100 236.3,97.7 					"/>
					<polygon class="st4" points="243.1,118.1 224.9,120.7 226.6,133.9 245.5,131.2 					"/>
					<polygon class="st8" points="227.5,138.4 229.5,151.1 252.2,147.5 250.2,135 					"/>
					<path class="st5" d="M54.4,37.1c1-1.6,2.7-2.6,4.5-3L151.9,17c-0.1-2.3-0.6-4-1.6-4.8c-0.7-0.6-1.4-0.6-1.4-0.6
						s-85.1,16.5-123,23.7l37,193.4l24-4.3l-33.6-182C53,40.5,53.4,38.7,54.4,37.1z"/>
					<path class="st9" d="M202.5,14.9c-0.1-0.7-0.6-1.3-1.1-1.7c-0.4-0.3-1-0.4-1.6-0.4c-0.1,0-0.3,0-0.4,0L76.9,35.3l37,192.5
						l121.2-22.4l0,0c1.4-0.3,2.4-1.7,2.1-3.1L202.5,14.9z"/>
					<polygon class="st10" points="88.9,71.2 97,113.9 195.7,95 187.9,51.5 					"/>
					<polygon class="st11" points="92,66.4 99.9,109.8 198.4,89.8 189.7,47.4 					"/>
					<g>
						<path class="st12" d="M117.8,97.6l-5.1-27.7l9.6-1.7c2.4-0.4,4.3-0.6,5.4-0.3c1.1,0.3,2.1,1,3.1,2.1c0.9,1.1,1.6,2.6,1.8,4.3
							c0.4,2.1,0.1,4-0.6,5.5c-0.9,1.6-2.1,2.6-4,3.3c1.1,0.6,2.1,1.1,2.8,1.8c0.9,0.7,2,2.1,3.4,4l3.7,4.8l-5.5,1l-4.4-5.4
							c-1.6-2-2.7-3.1-3.1-3.7c-0.6-0.4-1-0.7-1.6-0.9s-1.3-0.1-2.4,0.1l-1,0.1l2.1,11.5L117.8,97.6z M119.4,80.7l3.4-0.6
							c2.1-0.4,3.4-0.7,4-1c0.6-0.3,1-0.7,1.1-1.4c0.3-0.6,0.3-1.4,0.1-2.3c-0.1-0.9-0.4-1.6-0.9-2s-1-0.7-1.7-0.9
							c-0.4,0-1.7,0.1-3.7,0.4l-3.5,0.7L119.4,80.7z"/>
						<path class="st12" d="M140.6,93.3l-5.1-27.7l16.9-3.1l0.9,4.7l-12.3,2.3l1.1,6.1l11.3-2.1l0.9,4.7l-11.3,2.1l1.4,7.5l12.6-2.3
							l0.9,4.7L140.6,93.3z"/>
						<path class="st12" d="M161.8,89.5l-5.1-27.7l15.6-2.8l0.9,4.7l-10.9,2l1.1,6.5l9.5-1.7l0.9,4.7l-9.5,1.7l2.1,11.8L161.8,89.5z
							"/>
					</g>
					<g>
						<path class="st13" d="M117.7,98L117.7,98l-5.2-28.1l9.8-2c2.4-0.4,4.3-0.6,5.5-0.3c1.1,0.3,2.3,1,3.1,2.1
							c0.9,1.1,1.6,2.6,1.8,4.3c0.4,2.3,0.3,4.1-0.6,5.7c-0.7,1.4-2,2.6-3.7,3.3c1,0.6,1.8,1.1,2.6,1.7c0.9,0.7,2,2.1,3.5,4.1l4,5.1
							l-5.8,1.1l0,0l-4.4-5.4c-1.6-2-2.7-3.1-3.1-3.7c-0.6-0.4-1-0.7-1.6-0.9c-0.6-0.1-1.3-0.1-2.3,0.1l-0.9,0.1l2.1,11.6L117.7,98z
							 M112.7,70.1l5.2,27.7l4.3-0.9l-2.1-11.6l1.1-0.1c1.1-0.1,1.8-0.3,2.4-0.1c0.6,0.1,1.1,0.4,1.7,0.9c0.6,0.4,1.6,1.7,3.3,3.7
							l4.4,5.4l5.1-1l-3.7-4.7c-1.6-2-2.7-3.3-3.4-4c-0.9-0.7-1.7-1.3-2.8-1.8l-0.3-0.1l0.3-0.1c1.8-0.7,3.1-1.8,3.8-3.3
							c0.7-1.6,1-3.4,0.6-5.5c-0.3-1.7-1-3.1-1.8-4.3s-1.8-1.8-3-2.1s-3-0.1-5.4,0.3L112.7,70.1z M119.2,81L119.2,81l-1.4-7.4
							l3.7-0.7c2.1-0.4,3.3-0.6,3.8-0.6c0.7,0.1,1.3,0.4,1.7,0.9c0.4,0.4,0.9,1.1,1,2.1c0.1,1,0.1,1.7-0.1,2.4
							c-0.3,0.7-0.7,1.1-1.3,1.4c-0.6,0.3-1.8,0.7-4,1L119.2,81z M118.2,73.9l1.3,6.8l3.3-0.6c2-0.4,3.4-0.7,3.8-1
							c0.6-0.3,0.9-0.7,1.1-1.3c0.3-0.6,0.3-1.4,0.1-2.3c-0.1-0.9-0.4-1.6-0.9-2s-1-0.7-1.6-0.9c-0.4,0-1.7,0.1-3.7,0.4L118.2,73.9z
							"/>
						<path class="st13" d="M140.6,93.6L140.6,93.6l-5.2-28.1h0.1l17-3.3l1,5h-0.1l-12.1,2.3l1.1,6l11.3-2.1l1,5h-0.1l-11.2,2.1
							l1.4,7.2l12.6-2.4l1,5h-0.1L140.6,93.6z M135.7,65.7l5.1,27.7l17-3.3l-0.9-4.4l-12.6,2.4v-0.1l-1.4-7.7h0.1l11.2-2.1l-0.9-4.5
							l-11.3,2.1v-0.1l-1.1-6.4h0.1l12.1-2.3l-0.9-4.4L135.7,65.7z"/>
						<path class="st13" d="M161.8,89.6L161.8,89.6l-5.2-28.1h0.1l15.7-3l1,5l-10.9,2.1l1.1,6.4l9.5-1.8l1,5H174l-9.4,1.8l2.3,11.9
							L161.8,89.6z M156.8,61.7l5.1,27.7l4.3-0.9l-2.3-11.9h0.1l9.4-1.8l-0.9-4.4l-9.5,1.8V72l-1.3-6.7h0.1l10.8-2.1l-0.9-4.4
							L156.8,61.7z"/>
					</g>
					<g>
						
							<rect x="192.1" y="42.8" transform="matrix(0.9905 -0.1373 0.1373 0.9905 -4.2885 27.4195)" class="st14" width="8.9" height="4"/>
						
							<rect x="195.8" y="59.3" transform="matrix(0.9905 -0.1373 0.1373 0.9905 -6.5131 28.0818)" class="st14" width="8.9" height="4"/>
						
							<rect x="199.2" y="74.2" transform="matrix(0.9905 -0.1373 0.1373 0.9905 -8.5261 28.6904)" class="st14" width="8.9" height="4"/>
						
							<rect x="202.6" y="90.2" transform="matrix(0.9905 -0.1373 0.1373 0.9905 -10.6949 29.3097)" class="st14" width="8.9" height="4"/>
					</g>
					<path class="st2" d="M8.4,38.8c-1.7,0.3-2.7,1-3.3,2c-0.9,1.4-0.3,3.7,0,4.4l0.1,0.4l36.9,187l15.5-2.7l-37-193.5
						C14.1,37.7,9.7,38.6,8.4,38.8z"/>
					<path class="st15" d="M241.4,201.6L206.8,14c-0.3-1.8-1.4-3.4-3-4.5c-1.6-1-3.4-1.4-5.2-1.1l-42.3,7.9c-0.1-3.3-1.3-5.8-3-7.4
						c-2.3-1.8-4.7-1.6-5.1-1.4c0,0-132.5,25.5-140.5,27.1c-3,0.6-5.1,2-6.2,4.1c-1.7,3.3-0.7,6.8-0.3,7.8l36.9,186.7
						c0.1,1.3,1.1,8.2,5.1,10.9c1.1,0.9,2.4,1.1,3.7,1.1c0.6,0,1.1,0,1.7-0.1c6.4-1.6,43.1-8.5,43.6-8.7l-0.3-1.7
						c1,0.6,2.1,0.9,3.4,0.9c0.4,0,0.9,0,1.3-0.1l14.3-2.7l0.3,1.8l4.3-0.9l-0.3-1.8l121.2-22.4l0,0
						C239.5,209.1,242.1,205.4,241.4,201.6z M42.2,232.5L5.3,45.5l-0.1-0.4c-0.3-0.7-0.9-2.8,0-4.4c0.6-1,1.7-1.6,3.3-2
						c1.3-0.3,5.7-1.1,12.1-2.3l37.2,193.2L42.2,232.5z M63,228.8L26,35.4c37.9-7.2,123-23.7,123-23.7s0.9,0,1.4,0.6
						c0.9,0.7,1.4,2.4,1.6,4.8l-93.1,17c-1.8,0.3-3.4,1.4-4.5,3c-1,1.6-1.4,3.4-1.1,5.2l33.6,182.2L63,228.8z M95.3,231.2
						c-1.4,0.3-2.8-0.7-3.1-2.1L57.7,41.5c-0.1-0.7,0-1.4,0.4-2s1-1,1.7-1.1L72.7,36l37,192.5L95.3,231.2z M235,205.4L235,205.4
						l-121.2,22.4L76.9,35.3l122.6-22.6c0.1,0,0.3,0,0.4,0c0.6,0,1,0.1,1.6,0.4c0.6,0.4,1,1,1.1,1.7l34.5,187.6
						C237.4,203.8,236.4,205.1,235,205.4z"/>
					<path class="st2" d="M59.8,38.6c-0.7,0.1-1.3,0.6-1.7,1.1c-0.4,0.6-0.6,1.3-0.4,2l34.6,187.6c0.3,1.4,1.7,2.4,3.1,2.1l14.3-2.7
						L72.6,36.1L59.8,38.6z"/>
					<polygon class="st9" points="77.9,212.9 78.7,217.3 85.3,216.2 84.6,211.8 					"/>
					<polygon class="st9" points="75.4,198 76.1,202.3 82.6,201.1 81.8,196.9 					"/>
					<polygon class="st9" points="72.6,181.4 73.4,185.8 79.6,184.7 78.8,180.4 					"/>
					<polygon class="st9" points="68.7,164.4 69.4,168.8 76.4,167.5 75.7,163.3 					"/>
					<polygon class="st9" points="65.3,144.7 66.2,148.9 72.8,147.8 72,143.5 					"/>
					<polygon class="st9" points="62.2,125.9 62.9,130.2 69.3,129.1 68.6,124.8 					"/>
					<polygon class="st9" points="57.8,108.1 58.5,112.5 66,111.2 65.2,106.8 					"/>
					<polygon class="st9" points="55.1,92.8 55.8,97.1 63.2,95.9 62.3,91.5 					"/>
					<polygon class="st9" points="52.5,77.7 53.3,82 60.4,80.8 59.6,76.4 					"/>
					<polygon class="st9" points="45.5,49.5 50,76.7 59.4,75 54.4,48.5 					"/>
					<path class="st11" d="M117.8,238"/>
					<path class="st15" d="M83.6,234.3l12.2-1l12.8,5.7C108.4,239.2,86.2,237,83.6,234.3z"/>
					<path class="st15" d="M88.9,232.5c0,0,1.8,8.1,3.7,10.6c1.8,2.6,3.4,5.8,13.8,4C116.5,245.1,88.9,232.5,88.9,232.5z"/>
					<path class="st16" d="M95.4,246.5c0.1,0.1,0.3,0.1,0.4,0.3C95.7,246.7,95.5,246.7,95.4,246.5z"/>
					<path class="st15" d="M245.6,216.9c-10.4-1.8-5.4-10.4-5.4-10.4L95.7,233.3c0,0-7.9,1.7-3.1,9.8c0.9,1.4,1.8,2.6,2.7,3.4
						c0,0,0,0,0.1,0.1s0.3,0.1,0.4,0.3c2.1,1.3,6.7,0.9,10.1,0.3c18.6-3.5,134.9-26,138.9-26.8C249.2,219.3,245.6,216.9,245.6,216.9
						z"/>
					<path class="st15" d="M95.4,246.5L95.4,246.5L95.4,246.5z"/>
					<polygon class="st17" points="228.2,216.7 227,208.1 201.9,212.9 203.1,220.3 203.1,220.3 206.1,240.7 216.3,223.1 231,237.9 
											"/>
				</g>
			</g>
			<g>
				<path class="st15" d="M220.9,83.2c0.4,2.3,0.7,4.4,1.3,6.5c0.3,0.3,0.3,0.9,0.4,1.3c0,0.1,0,0.1,0.1,0.3c0.6,2.7,1,5.4,1.6,7.9
					c0.1,0.4,0.3,0.9,0,1.3c0.1,1.7,0.6,3.4,1,5.1c1.1,5.5,2.1,11.1,3.3,16.7c0.1,0.1,0,0.3,0.1,0.4l0,0c0.3,0.3,0.3,0.9,0.4,1.3
					c0,0.1,0,0.3,0.1,0.3c0.6,3.1,1.1,6.2,1.8,9.2c0,0.4,0.1,0.7,0,1.1c0,0.1,0,0.3,0,0.4c0.1,0.1,0,0.4,0.1,0.6
					c0.3,1.1,0.4,2.3,0.7,3.3c0.7,1.3,0.7,2.6,1,4c0.6,2.6,1,5.2,1.6,7.8c0.1,0.4,0.1,0.9,0,1.1c0.3,2.1,0.7,4.1,1.1,6.2
					c0.1,0.6,0.4,1,0.6,1.7c0,0.1,0,0.1,0.1,0.3c0.6,2.7,1,5.2,1.6,7.9c0.1,0.4,0.3,1,0,1.4c0.4,2,0.7,4,1.1,6
					c0.1,0.6,0.3,1.3,0.3,1.8c0.3,0.3,0.3,0.9,0.4,1.1c0,0.1,0,0.3,0,0.3c0.6,3,1.1,6,1.7,8.8c0.1,0.4,0,0.7,0,1.1
					c0.9,4.3,1.7,8.5,2.6,12.8c0.3,1.6,0.6,3,0.9,4.5c0.1,0.7-0.3,1.4-1,1.8c-0.1,0.1-0.4,0.3-0.7,0.3c-2,0.4-2.8,2.8-2.6,4.4
					c0.3,2,1.1,3.5,2.7,4.8c0.7,0.6,1.4,1,2.3,1.1c0.4,0.1,1,0.1,1.4,0.4c0.9,0.3,1,0.9,0.6,1.6s-1,1-1.7,1.1c-2.3,0.4-4.7,1-7,1.4
					c-3,0.6-6,1.1-8.9,1.7c-0.6-0.3-0.6-0.9-0.7-1.3c-0.7-3.5-1.4-7.2-2.3-10.8c-0.3-1.6-0.4-1.6-2-1.3c-7,1.4-13.9,2.8-20.9,4.3
					c-1.1,0.3-1.3,0.4-1,1.6c0.7,3.7,1.4,7.4,2.1,10.9c0.1,0.4,0.4,1,0,1.4c-4,0.7-7.9,1.6-11.9,2.3c-7.2,1.4-14.5,2.8-21.7,4.3
					c-7.4,1.4-14.8,3-22.1,4.4c-6.8,1.3-13.6,2.7-20.3,4c-6,1.1-12.1,2.3-18,3.5c-2.6,0.6-5.1,1-7.7,1.7c-1.1,0.3-2.3,0.3-3.5,0
					c-1.8-0.4-3.4-1.1-4.8-2.3c-2.7-2.3-4.1-5.1-4.3-8.7c0-0.1,0-0.3,0-0.6c-0.1,0-0.1,0-0.1,0c-1.1,1.3-2.7,1.3-4.1,1.6
					c-8.2,1.6-16.3,3.1-24.5,4.7c-4.8,1-9.8,1.8-14.6,2.8c-2,0.4-3.5-0.3-4.8-1.6c-2-1.7-3.1-4-4.1-6.4c-1.3-3.3-1.8-6.7-2.4-10.1
					c-1.3-6.8-2.6-13.8-4-20.6c-1.1-5.5-2.3-11.2-3.3-16.7c-1.6-7.7-3-15.3-4.4-23c-1.1-5.8-2.3-11.5-3.4-17.3
					c-1.4-7.7-3-15.2-4.4-22.8c-1.1-5.7-2.3-11.5-3.4-17.2c-1.4-7.7-3-15.3-4.4-23C7.9,83,6.7,77.1,5.6,71.5
					c-1.6-8.1-3.1-16-4.7-24.1c-0.3-1.1-0.4-2.3-0.7-3.4c-0.3-1.4-0.3-2.8,0.1-4.1c0.9-2.6,2.4-4.4,5.2-4.8
					c4.1-0.7,8.2-1.6,12.2-2.4c1-0.1,2-0.4,2.8-0.6c7-1,13.8-2.6,20.7-3.8c7.4-1.4,14.9-2.8,22.3-4.3c5-1,9.8-1.8,14.8-2.8
					c7.7-1.4,15.3-3,23-4.4c7.1-1.4,14.2-2.8,21.3-4.1c7.1-1.4,14.3-2.8,21.4-4.1c1.3-0.3,2.6-0.4,3.8-0.7c3-0.6,6,1.3,7.2,3.4
					c0.6,1,0.9,2,1.1,3.1c0.1,0.7,0.3,1.3,0.3,2c-1.3,0.6-2.7,0.7-4.1,0.9c-0.4-0.4-0.4-1.1-0.6-1.7c-0.4-2.1-1.7-3-3.8-2.6
					c-9.4,1.8-18.7,3.7-28.1,5.4c-17.7,3.4-35.3,6.8-53.1,10.4c-11.8,2.3-23.4,4.5-35.2,6.8c-1.4,0.3-3,0.6-4.4,0.9
					c-1,0.3-1.1,0.4-1,1.4c1.4,6.8,2.6,13.6,4,20.4c1,4.7,1.8,9.5,2.7,14.2c2,10.1,4,20.1,5.8,30.2c2,9.9,3.8,19.9,5.8,29.8
					c1.3,6.4,2.6,12.9,3.8,19.3c1.6,8.1,3.1,16.2,4.7,24.3c1.3,7,2.7,13.8,4,20.7c1.6,7.7,3.1,15.3,4.5,23.1
					c0.6,3.1,1.1,6.1,1.7,9.2c0,0.3,0.1,0.7,0.3,1c0.1,0.9,0.6,1,1.3,0.9c2-0.3,3.8-0.9,5.8-1.1c5-1,9.9-1.8,14.9-2.8
					c1.6-0.3,1.6-0.3,1.3-2c-0.4-2.3-1-4.5-1.3-6.8c-0.3-1.7-0.7-3.4-1-5.1c-0.6-3-1.4-6.1-1.8-9.1c0-0.3,0-0.7-0.1-1
					c0-0.1,0-0.3-0.1-0.3c-0.3-1.7-0.7-3.4-1-5.1c-0.7-3.5-1.4-7.1-2.1-10.6c-0.3-1.7-0.6-3.4-1-5.2c-0.7-3.5-1.4-7-2.1-10.5
					c0-0.4,0-0.7-0.1-1.1c0-0.1,0-0.1-0.1-0.3c-0.3-1.3-0.4-2.7-0.9-4c-1.1-5.2-2-10.5-3.1-15.7c-0.3-1.7-0.7-3.4-1-5.2
					c-0.9-4.7-1.8-9.4-2.7-14.2c-0.1-1.7-0.7-3.4-1-5.2c-0.9-3.8-1.6-7.8-2.3-11.6c-0.3-1.7-0.7-3.4-1-5.2
					c-0.9-3.8-1.6-7.8-2.3-11.6c-0.1-1.4-0.4-2.8-0.7-4.1c-0.7-3.5-1.4-7.1-2.1-10.6c-0.1-1.7-0.7-3.4-1-5.1c0-0.1,0-0.3-0.1-0.3
					c-0.7-4-1.6-7.9-2.3-12.1c-1-5.1-2-10.4-3-15.5c-0.4-2.1-1-4.3-1.1-6.5c-0.1-3.3,2-7,5.8-7.5c4.8-0.9,9.8-2,14.6-2.8
					c18.6-3.3,37-7.1,55.5-10.6c7.8-1.6,15.7-3.1,23.6-4.5c0.4-0.1,0.9-0.3,1.3-0.1c0.3,0.3,0.7,0.1,1,0c1.1-0.3,2.3-0.3,3.3-0.7
					c2-0.3,4-0.7,6.1-1.1c7.9-1.6,15.9-3.1,23.8-4.7c4-0.7,7.9-1.6,11.9-2.4c2.1-0.4,4-0.4,5.8,0.9c1.7,1.1,2.8,2.7,3.3,4.7
					c1.1,5.7,2.3,11.3,3.3,17.2c0.1,0.1,0.3,0.3,0.3,0.6c0,0.1,0,0.1,0.1,0.3c0,0.7,0.3,1.3,0.4,2c0.4,2.4,1,4.8,1.4,7.2
					c0,0.3,0,0.6,0.1,0.9c0,0.1,0,0.1,0.1,0.3c0,0.3,0.1,0.7,0.1,1c0.1,0.4-0.3,0.7,0,1.1c0.3,1,0.4,2.1,0.7,3.1
					c0.6,0.9,0.6,1.8,0.9,2.7c0.4,2,0.7,4.1,1.1,6.1c0.3,1.1,0.6,2.3,0.4,3.5c0.3,2,0.7,4,1.1,6.1c0.3,1.6,0.7,3.3,1,4.8
					c0.4,0.4,0.4,1.1,0.6,1.7c0.6,3.3,1.3,6.4,1.8,9.6c0,0.1,0,0.3,0,0.3C220.9,82.4,221.2,82.8,220.9,83.2z"/>
				<path class="st18" d="M240.7,205.8c0-0.3-0.1-0.6-0.1-0.9c-0.1-1.1-0.4-2.4-0.7-3.5c-0.7-3.4-1.3-6.7-2-10.1
					c-0.6-3.3-1.3-6.5-1.8-9.8c-0.9-4.1-1.6-8.2-2.4-12.3c-0.9-4.5-1.8-9.2-2.7-13.9c-1-5.2-2-10.4-3-15.6c-0.7-3-1.3-6.1-1.8-9.1
					c-0.9-4.4-1.7-8.8-2.6-13.2c-0.9-4.7-1.8-9.2-2.7-13.9c-1-5.2-2-10.5-3-15.7c-0.9-4-1.7-7.9-2.4-11.9c-1-5.5-2.1-10.9-3.1-16.5
					c-1-4.8-1.8-9.8-2.8-14.6c-0.9-5-1.8-9.9-2.8-14.9c-1-5.1-2-10.2-3-15.3c-0.4-1.7-1.6-2.7-3.3-2.7c-0.9,0-1.7,0.1-2.7,0.4
					c-5.2,1-10.5,2-15.7,3c-3,0.6-6,1.1-8.9,1.7c-4.4,0.9-8.8,1.7-13.2,2.6c-3.1,0.6-6.1,1.1-9.1,1.7c-4.4,0.9-8.8,1.7-13.2,2.6
					c-3.4,0.7-6.7,1.3-10.1,2c-4,0.9-8.1,1.6-12.2,2.4c-4.4,0.9-8.7,1.7-12.9,2.6c-5.2,1-10.5,2-15.7,3c-3,0.6-6,1.1-8.9,1.7
					c-1.3,0.3-1.3,0.3-1,1.6c0.7,3,1.3,6,1.8,8.9c0.7,4.3,1.6,8.4,2.4,12.6c0.6,2.3,1,4.7,1.4,7.1c0.6,2.8,1.1,5.8,1.7,8.7
					c0.4,2,0.7,4.1,1.1,6.1c0.6,2.8,1.1,5.8,1.7,8.7c0.4,2.1,0.7,4.1,1.1,6.2c0.6,2.8,1.1,5.7,1.7,8.4c0.4,2.1,0.7,4.1,1.1,6.2
					c0.9,4.5,1.8,9.1,2.7,13.6c1,5.4,2.1,10.6,3.1,16c0.9,4.8,2,9.6,2.8,14.6c0.7,4.7,1.8,9.4,2.7,14c0.7,3.7,1.4,7.2,2.1,10.9
					c0.7,3.4,1.3,6.8,2,10.2c0.9,4.1,1.7,8.4,2.6,12.5c0.7,3.1,1.3,6.1,1.8,9.2c1,5.2,2.1,10.2,2.7,15.5c0,1.3,0.6,2.3,1,3.3
					c0.4,1,1.1,1.4,2.1,1.4c0.4,0,0.9,0,1.3-0.1c2-0.4,3.8-0.7,5.8-1.1c4.7-1,9.5-1.8,14.2-2.8c2.8-0.6,5.8-1.1,8.7-1.7
					c5-1,10.1-2,15-3c5.5-1.1,10.9-2.1,16.3-3.3c4.5-0.9,9.2-1.8,13.9-2.7c5.5-1.1,10.9-2.1,16.3-3.3c4.7-1,9.4-1.8,14-2.8
					c3-0.6,6-1.1,8.8-1.7c3-0.6,6.1-1.1,9.1-2C240.5,206.5,240.8,206.4,240.7,205.8z"/>
				<path class="st17" d="M205.2,229.8c-0.9-4.3-1.7-8.7-2.6-12.9c-0.1-0.9,0-1,0.9-1.3c7.4-1.6,14.6-3,22-4.5
					c1.1-0.3,1.4-0.1,1.7,1.1c0.9,4,1.7,7.8,2.4,11.8c0,0.3,0.1,0.6,0.3,0.9c0.1,1.7,0.6,3.4,1,5c0.4,2.4,1,4.8,1.6,7.4
					c0.1,0.4,0.3,0.9-0.3,1.1c-0.4,0.1-0.9,0-1.1-0.3c-1.7-1.8-3.5-3.5-5.2-5.4c-1.8-2-3.8-3.8-5.8-5.8c-0.9-0.4-1.3-1.1-1.8-1.7
					c-0.4-0.4-0.7-0.4-1.1,0.1c-0.6,0.9-0.7,1.7-1.6,2.4c-0.7,1.3-1.3,2.6-2,4c-1.4,2.8-2.8,5.5-4.3,8.4c-0.1,0.1-0.1,0.3-0.3,0.4
					c-0.1,0.3-0.4,0.6-1,0.6c-0.4,0-0.6-0.4-0.7-0.9c-0.4-2-0.9-4-1.1-6C205.8,232.6,205.5,231.2,205.2,229.8z"/>
				<path class="st5" d="M216.3,59.4c-0.4-1.6-0.7-3.1-1-4.7c-0.6-2.4-1-5-1.4-7.4c0-0.1,0-0.1,0-0.3c0.7,0.4,1.4,0,2.1,0
					c3.8-0.7,7.7-1.4,11.3-2.3c1.1-0.3,2.3-0.3,3.4-0.7c0.4-0.1,0.7-0.1,0.9,0.4c0.7,3.4,1.3,6.8,2,10.2c0.1,0.6,0,0.9-0.6,0.9
					c-4.4,0.7-8.8,1.7-13.2,2.6c-0.9,0.1-1.7,0.4-2.6,0.4C216.7,58.6,216.3,58.8,216.3,59.4z"/>
				<path class="st2" d="M212.7,40.8c-0.4-1.3-0.6-2.7-0.9-4c-0.3-1.1-0.6-2.4-0.6-3.5c-0.1-1.1-0.1-1.1,1-1.4
					c4.3-0.9,8.4-1.6,12.5-2.4c0.9-0.1,1.1,0,1.3,0.9c0.6,2.6,0.9,5.1,1.6,7.7c0.1,0.7,0,1.1-0.9,1.3c-0.7,0.1-1.4,0.1-2.1,0.4
					c-2,0.3-3.8,0.9-5.8,1.1c2-0.3,3.8-0.9,5.7-1c0.7-0.3,1.6-0.3,2.4-0.6c0.6-0.1,0.7-0.4,0.6-1c-0.6-2.6-1-5.1-1.6-7.7
					c-0.3-1.6-0.4-1.4-2-1.1c-4,0.9-7.9,1.6-11.9,2.3c-0.6,0.1-1.3,0.3-1.3-0.7v-0.1c-0.1-0.1-0.1-0.3,0-0.4
					c2.4-0.4,4.8-0.9,7.2-1.4c2-0.4,4-0.7,6-1.1c0.9-0.1,1.6-0.4,2.4-0.6c0.4,1,0.4,2,0.7,2.8c0.6,3,1.1,6,1.8,8.9
					c0.1,0.9,0.1,0.9-0.7,1c-3.7,0.7-7.5,1.4-11.2,2.1c-1.1,0.1-2.1,0.4-3.3,0.6c-0.6,0.1-0.6,0.4-0.6,0.9c-0.3-0.4-0.1-0.9-0.1-1.1
					c-0.1-0.4-0.1-0.9,0.3-0.9c1.3-0.3,2.4-0.6,3.7-0.7c-1,0.1-1.8,0.3-2.8,0.6c-0.4,0.1-0.9,0.3-1.3,0l0,0
					C212.6,41.4,212.9,41.1,212.7,40.8z"/>
				<path class="st4" d="M231,134.7c-0.4-1.1-0.6-2.4-0.9-3.5c-0.4-2.1-0.9-4.3-1.3-6.2c0-0.1,0-0.4,0-0.6c0.9-0.4,1.8-0.3,2.7-0.7
					c2.1-0.3,4.3-0.7,6.4-1.3c1.4,0,2.7-0.4,4-0.7c1.6-0.3,1.6-0.4,2,1.3c0.1,0.3,0,0.7,0.1,1c0.1,1.3,0.6,2.6,0.7,3.8
					c0.3,0.6,0.1,1.1,0.4,1.7c0.3,0.7,0,1.1-0.7,1.3c-1.7,0.1-3.4,0.6-5.1,1c-0.3,0-0.4,0.1-0.6,0.1c1.8-0.3,3.5-0.9,5.5-1
					c0.9,0,1.1-0.6,0.9-1.3c-0.1-0.6-0.1-1.1-0.4-1.7c-0.1-1.3-0.4-2.6-0.7-3.8c-0.1-0.4-0.3-1-0.3-1.4c0-0.9-0.4-1.1-1.3-1
					c-1.7,0.4-3.3,0.6-5,1c-1.7,0.1-3.3,0.6-5,1c-0.4,0.1-0.9,0-1.1,0.1c-0.9,0-1.7,0.4-2.7,0.4c-0.3-0.4-0.1-0.9-0.1-1.3
					c2.7-0.6,5.5-1.1,8.2-1.6c2.3-0.4,4.7-0.9,7-1.3c0.4-0.1,0.7-0.1,0.9,0.4c0.7,3.7,1.4,7.5,2.3,11.2c-1,0.4-2.1,0.6-3.3,0.7
					c-4.1,0.9-8.1,1.6-12.2,2.3C231.3,134.6,231.2,134.7,231,134.7z"/>
				<path class="st19" d="M235.8,159.9c-0.3-0.6-0.3-1.1-0.4-1.6c0.3,0.3,0.4,0.4,0.9,0.3c4-0.9,7.9-1.6,12.1-2.4c0.3,0,0.4,0,0.7,0
					c0.4,0,0.7,0.1,0.7,0.7c0.3,1.7,0.7,3.3,1,5c0.3,1.3,0.4,2.6,0.7,3.8c0.1,1.1,0.3,1-0.9,1.3c-1.8,0.4-3.7,0.7-5.5,1.1
					c-2.3,0.4-4.5,0.9-7,1.3c-0.1,0-0.4,0.1-0.6,0.1c-0.4-1.6-0.7-3.1-1-4.5c-0.3-1.6-0.7-3.3-0.9-4.8c1.7-0.3,3.4-0.7,5.1-1
					c0.1,0-0.1-0.1,0,0v0.1c-1.3,0.1-2.7,0.4-4,0.7C236.6,160,236.3,160,235.8,159.9z"/>
				<path class="st4" d="M241.4,188.8c-0.3-1.6-0.7-3-1-4.5c-0.4-1.8-0.7-3.7-1-5.5c1.1-0.6,2.4-0.6,3.5-0.9
					c3.3-0.7,6.4-1.3,9.6-1.8c0.6-0.1,1.3-0.6,1.6,0.4c0.6,2.6,1.1,5.1,1.6,7.8c-0.7,0.6-1.6,0.3-2.4,0.7c-1.1,0.1-2.1,0.4-3.3,0.6
					c-1.1,0.1-2.1,0.4-3.3,0.6c-1.1,0.1-2.1,0.4-3.3,0.6c-0.6,0.3-1.3,0.1-1.7,0.3c0.6-0.1,1.1,0,1.8-0.4c1.1,0,2.1-0.4,3.3-0.6
					c1.1-0.1,2.1-0.4,3.3-0.6c1.1-0.1,2.1-0.4,3.3-0.6c0.9-0.1,1.6-0.4,2.4-0.4c0.3,1.3,0.3,1.3-1,1.6c-4.1,0.9-8.4,1.6-12.5,2.4
					C241.8,188.5,241.5,188.5,241.4,188.8z"/>
				<path class="st8" d="M234.3,152.1c-0.7-3.3-1.3-6.5-2-9.8c-0.1-1.1-0.6-2.1-0.6-3.3c1.1-0.4,2.4-0.6,3.7-0.9
					c2.7-0.6,5.4-1.1,8.1-1.6c2.8-0.6,5.7-1.1,8.5-1.7c0.6-0.1,0.9,0,1.1,0.6c0.4,0.6,0.4,1.3,0.6,2c0.6,3.1,1.3,6.2,1.8,9.4
					c0.1,0.9,0,1-0.9,1.1c-1.3,0.1-2.6,0.4-3.7,0.7c-3.8,0.7-7.5,1.4-11.3,2.3c-1.6,0.3-3,0.6-4.5,0.9
					C235,151.8,234.7,151.9,234.3,152.1z"/>
				<path class="st13" d="M224.4,100.7c-0.1-0.4-0.3-0.9-0.3-1.1v-0.1c0.9-0.6,2-0.6,3-0.9c0.1,0,0.1,0,0.3,0c0.3,0,0.6,0,0.9-0.1
					c0.1,0,0.1,0,0.3-0.1c0.3,0,0.6,0,0.9-0.1c0.1,0,0.1,0,0.3-0.1c1.6-0.1,3.1-0.6,4.8-0.9c0.1,0,0.1,0,0.3-0.1
					c0.3-0.1,0.9,0.1,0.9-0.6c0-0.1,0-0.1,0-0.3c-0.3-2.1-0.9-4.4-1.3-6.5c-0.1-0.4-0.3-0.6-0.7-0.4c-0.9,0.1-1.6,0.3-2.4,0.4
					c-0.1,0-0.1,0-0.3,0.1c-0.3,0-0.7,0-1,0.1c-0.1,0-0.1,0-0.3,0.1c-0.3,0-0.4,0-0.7,0.1c-1.4,0.3-2.7,0.6-4.1,0.9
					c-0.1,0-0.1,0-0.3,0.1c-0.3,0-0.7,0-1,0.1c-0.1,0-0.1,0-0.3,0.1c-0.3,0-0.6,0-0.9-0.1c-0.3-0.4-0.1-0.9-0.3-1.3
					c1.1-0.4,2.4-0.6,3.7-0.9c2-0.4,4-0.7,6-1.1c0.7-0.1,1.6-0.3,2.3-0.4c0.7-0.1,0.9,0,1,0.7c0.3,1.4,0.6,3,0.9,4.4
					c0.3,1.6,0.6,3.1,1,4.7c0.1,1,0.1,1-0.9,1.3c-3.5,0.7-7.1,1.4-10.6,2.1C225.2,100.6,224.8,100.7,224.4,100.7z"/>
				<path class="st20" d="M218.8,71.9c-0.3-0.6-0.3-1.1-0.4-1.7c3-0.6,6-1.1,9.1-1.7c0.7-0.1,0.9,0,1.1,0.7c0.4,1.3,0.6,2.7,0.9,4.1
					c0.4,2.4,0.9,5,1.4,7.4c0.1,0.4,0,0.6-0.4,0.7c-1.3,0.4-2.4,0.6-3.7,0.9c-1.7,0.3-3.3,0.7-5,1c-0.3,0-0.6,0-0.9,0
					c-0.1-0.4-0.3-0.9-0.3-1.3c0.3-0.3,0.6-0.1,0.9-0.3c0.1,0,0.1,0,0.3,0c0.3,0,0.6,0,0.7-0.1c0.1,0,0.1,0,0.3,0
					c0.3,0,0.6,0,0.9-0.1c0.1,0,0.1,0,0.3-0.1c0.3,0,0.4,0,0.7-0.1c0.3,0,0.6-0.1,0.9-0.1c0.9-0.1,1.6-0.3,2.4-0.4
					c0.1,0,0.1,0,0.3-0.1c0.3,0,0.4,0,0.7-0.1c0.4-0.3,0.1-0.7,0.1-1.1c-0.6-2.7-1-5.4-1.6-8.1c-0.1-0.4,0-0.9-0.6-0.7
					c-2.6,0.6-5.1,0.9-7.7,1.6C219,71.9,219,71.9,218.8,71.9z"/>
				<path class="st4" d="M239.4,178.6c-0.1-0.4-0.3-0.9-0.3-1.3c1.7-0.1,3.3-0.6,5-0.9c2.8-0.6,5.8-1.1,8.7-1.7c1-0.1,1.1,0,1.1,1.1
					c-4.7,1-9.2,1.8-13.9,2.7C239.8,178.7,239.7,178.7,239.4,178.6z"/>
				<path class="st21" d="M215.3,227.7c0.6-1.1,1.1-2.3,1.8-3.5c1,1,1.8,1.8,2.6,2.7C218.4,227.1,216.8,227.5,215.3,227.7z"/>
				<path class="st22" d="M239.4,178.6c1.7-0.1,3.4-0.6,5.1-1c3-0.6,5.8-1.1,8.8-1.7c0.3,0,0.4,0,0.7,0c0.1,0.1,0.1,0.4,0.1,0.6
					c-0.3-0.3-0.4-0.4-0.9-0.3c-3.8,0.9-7.8,1.6-11.6,2.3c-0.7,0.1-1.4,0.4-2.3,0.3V178.6z"/>
				<path class="st23" d="M253.3,185c0.7-0.4,1.6-0.4,2.3-0.6c0.1,0,0.1,0.1,0.1,0.3C255,184.8,254.1,185,253.3,185L253.3,185z"/>
				<path class="st4" d="M231.2,135.7c-0.1-0.1-0.1-0.4-0.1-0.6C231.2,135.3,231.2,135.6,231.2,135.7z"/>
				<path class="st24" d="M210.7,30.6c0,0.1,0,0.3,0,0.4c-0.1-0.1-0.1-0.3-0.1-0.4C210.7,30.5,210.7,30.6,210.7,30.6z"/>
				<path class="st4" d="M228.6,122.8c-0.1-0.1-0.3-0.3-0.1-0.4C228.6,122.5,228.8,122.7,228.6,122.8z"/>
				<path class="st5" d="M79.5,186.4c0.7,3.5,1.4,7.1,2.1,10.6c0.1,1.1,0.1,1.3-1,1.6c-1.4,0.3-2.8,0.6-4.4,0.9
					c-1.1,0.3-1.1,0.4-1,1.4c0.4,2.7,0.3,2.3,2.6,1.8c1.3-0.3,2.4-0.4,3.7-0.7c0.4-0.1,0.9-0.1,1.1,0.1v0.1c0.1,0.3,0,0.6,0.1,0.9
					c0.6,3.1,1.3,6.1,1.8,9.2c0.1,1.1,0,1.3-1,1.6c-1.6,0.3-3,0.6-4.5,0.9c-0.9,0.1-1,0.6-1,1.3c0.4,2.4,0.3,2.4,2.7,2
					c1.1-0.3,2.3-0.4,3.4-0.7c0.4-0.1,1-0.3,1.4,0.1c0.6,2.6,1,5.2,1.6,7.8c0.1,0.9,0.1,0.9-0.7,1c-5,1-9.8,1.8-14.8,2.8
					c-1.8,0.3-3.5,0.7-5.2,1.1c-0.7,0.1-1.6,0.1-2.3,0.4c-0.6,0.1-0.7,0-0.9-0.4c-0.4-1.7-0.7-3.4-1-5c-0.3-1.3-0.4-2.7-0.7-4
					c-0.7-4.7-1.7-9.2-2.6-13.8c-0.6-2.8-1.1-5.7-1.7-8.5c-1-5.2-2.1-10.6-3.1-15.9c-0.9-5-2-9.8-2.8-14.8c-1-5-1.8-9.9-2.8-14.8
					c-1-5-2-9.9-2.8-14.8c-1-5-2-9.9-2.8-14.9c-1-5.2-2.1-10.6-3.1-15.9c-0.9-4.3-1.7-8.5-2.6-12.8c-0.4-1.8-0.7-3.8-1-5.7
					c-0.6-3-1.1-6-1.7-8.9c-1.1-5.5-2.1-11.1-3.3-16.7c-1.1-5.5-2.1-10.9-3.1-16.5c-0.6-3.5-1.4-7.1-2.1-10.5c-0.1-1-0.1-1,0.9-1.1
					c4.3-0.9,8.5-1.7,12.9-2.6c6.2-1.3,12.5-2.4,18.7-3.7c7.4-1.4,14.8-2.8,22.3-4.3c7.4-1.4,14.8-2.8,22.1-4.3
					c7.4-1.4,14.8-2.8,22.3-4.3c5-1,9.8-2,14.8-2.8c2.8-0.6,5.8-1.1,8.7-1.7c1.8-0.3,3.4,0.7,3.7,2.6c0.1,0.7,0.3,1.4,0.4,2.1l0,0
					c-2.1,0.4-4.1,0.9-6.2,1.3c-5.8,1.1-11.5,2.3-17.3,3.4c-6.5,1.3-13.1,2.6-19.6,3.8c-5.8,1.1-11.6,2.3-17.5,3.4
					c-5.8,1.1-11.6,2.4-17.5,3.4c-5.8,1-11.6,2.3-17.5,3.4c-2.6,0.4-3.8,2.3-4.7,4.7c-0.4,1.4-0.4,2.7-0.1,4.1
					c0.3,1.6,0.6,3.1,0.9,4.7c0.1,0.7-0.4,0.9-0.9,0.9c-1.8,0.3-3.8,0.7-5.7,1.1c-0.9,0.1-1,0.4-0.9,1.3c1.6,7.9,3.1,16,4.7,24
					c0.3,1.4,0.3,1.4,1.7,1.1c1.7-0.3,3.4-0.7,5.1-1c0.4-0.1,0.9-0.3,1.3,0.1v0.1c0.1,0.7-0.4,0.7-0.9,0.9c-1.6,0.3-3,0.6-4.5,0.9
					c-1.3,0.3-1.4,0.3-1.1,1.6c0.6,2.4,0.1,2.3,2.6,1.7c1.3-0.3,2.6-0.4,3.7-0.7c0.7-0.1,1.1,0,1.3,0.7c0.7,3.5,1.4,7.1,2,10.6
					c-0.3,0.4-0.9,0.4-1.4,0.6c-1.4,0.3-2.8,0.6-4.3,0.9c-0.9,0.1-1.1,0.6-0.9,1.4c0.6,2.7,0.3,2.4,2.8,2c1.1-0.3,2.3-0.4,3.4-0.7
					c0.4-0.1,0.9-0.1,1.1,0.1c0.6,2.7,1.1,5.5,1.7,8.2c0.3,1.1,0.4,2.3,0.6,3.4c0.3,0.7-0.1,0.9-0.7,1c-1.6,0.3-3.1,0.6-4.7,1
					c-1.3,0.3-1.3,0.4-1,1.6c0.6,2.6,0.3,2.1,2.6,1.7c1.3-0.1,2.6-0.4,3.8-0.7c0.6-0.1,1,0,1,0.7c0.7,4,1.6,7.8,2.3,11.8
					c0.1,0.9-0.4,0.7-0.9,0.9c-1.6,0.3-3.1,0.6-4.7,1c-1.1,0.3-1.3,0.3-1,1.6c0.4,2.7,0.3,2.3,2.6,1.8c1.3-0.3,2.4-0.4,3.7-0.7
					c0.7-0.1,1.3-0.1,1.3,0.7c0.9,4.1,1.6,8.2,2.4,12.3c0.1,0.6,0.1,1.3,0.3,1.8c0.3,0.9-0.1,1.1-0.9,1.4c-1.6,0.3-3.1,0.7-4.7,1
					c-0.7,0.1-1,0.4-0.9,1.1c0.6,3,0.1,2.6,2.8,2.1c1.1-0.1,2.3-0.4,3.4-0.7c0.4-0.1,0.9-0.3,1.1,0.3c1.1,5.1,2,10.2,3.1,15.3
					c0,0.1,0,0.3,0,0.6c0,0.6-0.6,0.6-1,0.6c-1.6,0.3-3.1,0.6-4.7,0.9c-1.1,0.3-1.1,0.4-1,1.4c0.4,2.3,0.4,2.3,2.7,1.8
					c1.1-0.3,2.3-0.4,3.4-0.7c0.4-0.1,0.9-0.3,1.1,0l0,0c0.3,0.3,0,0.7,0.3,1c0.7,3.5,1.4,7.1,2.1,10.6c0.3,0.9-0.1,1.1-0.9,1.3
					c-1.6,0.3-3.1,0.6-4.7,0.9c-0.9,0.1-1.1,0.6-0.9,1.4c0.6,2.7,0.1,2.3,2.7,1.8c1.3-0.1,2.4-0.4,3.7-0.7
					C78.8,186,79.2,185.8,79.5,186.4z"/>
				<path class="st2" d="M55.7,43c0-1-0.1-1.8,0.4-2.6c0.4-0.6,1-1.1,1.8-1.3c2.4-0.6,4.8-1,7.4-1.4c1.6-0.3,3.1-0.6,4.5-1
					c0.4-0.1,0.6,0,0.6,0.4c0.4,2.3,1,4.5,1.3,7c0.1,1.1,0.4,2.3,0.7,3.3c1,3.8,1.7,7.8,2.3,11.6c0.7,4.3,1.7,8.4,2.4,12.5
					c0.4,2.3,0.7,4.7,1.3,7c0.7,3.1,1.3,6.2,1.8,9.4c0.7,4.4,1.8,8.8,2.6,13.2c0.4,2.4,0.9,4.8,1.3,7.1c0.6,2.6,1,5.1,1.6,7.7
					c0.4,2.6,0.9,5.1,1.4,7.5c0.4,1.7,0.7,3.4,1,5.1c0.6,3,1.1,5.8,1.6,8.8c0.3,2.1,0.9,4.1,1.3,6.2c0.6,2.8,1.1,5.7,1.6,8.5
					c0.3,1.7,0.7,3.4,1.1,5.2c0.6,2.7,1,5.2,1.4,7.9c0.4,2.3,1,4.4,1.4,6.7c0.6,3,1.1,5.8,1.7,8.8c0.3,2.1,0.9,4.1,1.3,6.2
					c0.6,2.6,1.1,5.1,1.4,7.7c0.4,2.7,1.1,5.2,1.6,7.9c0.4,2.7,1,5.2,1.4,7.8c0.7,4,1.4,7.8,2.3,11.8c0.6,2.6,1.1,5.2,1.7,7.8
					c0.1,0.9,0.1,1.8,0.4,2.7c0.1,0.4-0.1,0.6-0.4,0.7c-2.1,0.4-4.3,0.9-6.4,1.3c-1.6,0.3-3.3,0.6-4.8,1c-0.6,0.1-1.3,0.1-1.8,0.1
					c-1.4-0.1-2.4-1.1-2.7-2.7c-0.4-2.4-1-4.7-1.3-7.1c-0.6-3.7-1.4-7.2-2-10.8c-0.4-2.1-0.9-4.3-1.3-6.4c-0.9-3.8-1.6-7.7-2.3-11.3
					c-1-5-2-9.8-2.8-14.8c-1-5-2-9.9-2.8-14.9c-1-5-1.8-9.8-2.8-14.8c-0.9-4.7-1.8-9.2-2.7-13.9c-1-5-2-9.8-2.8-14.8
					c-1-5-2-9.9-2.8-14.9c-1-5-1.8-9.8-2.8-14.8c-1-5-2-9.9-2.8-14.9c-1-5-1.8-9.8-2.8-14.8c-0.9-4.7-1.7-9.2-2.7-13.9
					c-0.4-2.3-0.9-4.5-1.3-6.7C55.5,43.7,55.7,43.2,55.7,43z"/>
				<path class="st2" d="M4.2,42.8c0-0.4,0-0.7,0-1C4.3,40.7,5,40,6,39.5c1.1-0.4,2.3-0.6,3.4-0.7c2.7-0.6,5.4-1,8.1-1.6
					c1-0.1,1.1-0.1,1.3,0.7c0.4,2.1,1,4.1,1.1,6.4c0.1,1.1,0.4,2.3,0.7,3.4c0.7,3.1,1.3,6.2,2,9.4c0.4,2,0.6,3.8,1,5.8
					c0.6,2.8,1.3,5.8,1.7,8.7c0.4,2.1,0.7,4.3,1.1,6.4c0.4,1.7,0.7,3.4,1.1,5.2c0.6,2.8,1.1,5.8,1.6,8.8c0.4,2,0.9,4.1,1.3,6.1
					c0.6,2.8,1,5.8,1.6,8.7c0.3,1.7,0.7,3.4,1.1,5.1c0.7,3.3,1.3,6.5,1.8,9.8c0.3,2.1,0.9,4.1,1.3,6.2c0.6,2.6,1.1,5.1,1.4,7.7
					c0.4,3.1,1.3,6.1,1.8,9.1c0.4,2.4,1,4.8,1.3,7.4c0.4,2.6,1.1,5,1.6,7.5c0.4,2.3,1,4.4,1.1,6.7c0.1,1.7,0.7,3.3,1,5
					c0.6,2.8,1.3,5.8,1.7,8.7c0.4,3.1,1.3,6.1,1.8,9.1c0.3,2,0.9,3.8,1.1,5.7c0.3,2.8,1.3,5.5,1.7,8.4c0.3,2.4,0.9,4.8,1.3,7.4
					c0.7,4,1.4,7.8,2.3,11.8c0.4,2.1,1,4.3,1.3,6.2c0.1,1.3,0.6,2.6,0.7,3.8c0,0.4,0,0.6-0.4,0.6c-3.3,0.6-6.5,1.3-9.8,1.8
					c-0.6,0.1-1.1,0.3-1.7,0.3c-2.3,0.3-3.4-0.7-3.7-2.4c-0.4-2.3-1-4.4-1.3-6.7c-0.4-2.7-0.9-5.2-1.4-7.8
					c-0.9-4.3-1.6-8.5-2.6-12.8c-0.7-3.4-1.3-6.8-2-10.2c-0.3-1.8-0.7-3.5-1-5.2c-0.7-3.4-1.3-7-2-10.4c-0.9-4.1-1.6-8.1-2.4-12.2
					c-0.9-4-1.6-8.1-2.3-12.1c-0.7-3.3-1.3-6.7-1.8-9.9c-0.7-3.4-1.3-7-2-10.4c-0.9-4-1.6-8.1-2.4-12.1c-0.7-3.7-1.4-7.4-2.1-11.1
					c-0.6-3.3-1.3-6.5-1.8-9.8c-0.7-3.4-1.3-7-2-10.4c-0.9-4.1-1.6-8.1-2.4-12.2c-0.9-4.1-1.6-8.1-2.3-12.2c-0.7-3.4-1.3-6.7-2-10.1
					s-1.3-6.8-2-10.1C4.6,45.6,4.2,44.4,4.2,42.8z"/>
				<path class="st9" d="M58.1,76.4c-1.3,0.1-2.6,0.4-3.8,0.7c-1.1,0.1-2.3,0.4-3.4,0.7c-0.7,0.1-0.9,0-1-0.7c-0.7-3.5-1.4-7-2-10.5
					c-0.7-3.7-1.4-7.4-2.1-11.1c-0.3-1.4-0.4-2.8-0.7-4.3c-0.1-0.4,0-0.6,0.4-0.7c2.3-0.4,4.4-1,6.7-1.3c0.4,0,0.7-0.1,0.7-0.6
					c0.4,1.1,0.6,2.4,0.9,3.5c1,5.1,2,10.4,3,15.5c0.6,2.6,1,5.1,1.4,7.7C58.1,75.9,58.1,76.2,58.1,76.4z"/>
				<path class="st13" d="M224.1,99.4c-0.4-1.6-0.7-3.3-1-4.8c-0.3-1.1-0.6-2.3-0.6-3.4c0.3-0.3,0.7,0,1-0.3l0,0
					c0.3-0.3,0.7,0,1-0.1l0,0c1.4-0.3,3-0.6,4.4-0.9c0.3-0.1,0.7,0.1,1-0.1l0,0c0.3-0.3,0.7,0,1-0.1l0,0c0.9-0.1,1.7-0.3,2.4-0.4
					c0.6-0.1,1,0,1.1,0.9c0.4,2.3,0.9,4.4,1.3,6.7l0,0c0,0.9-0.7,0.3-1,0.6l0,0c-1.8,0.3-3.5,0.7-5.4,1l0,0c-0.3,0.3-0.7,0-1,0.1
					l0,0c-0.3,0.3-0.7,0-1,0.1l0,0C226.3,98.9,225.2,98.9,224.1,99.4L224.1,99.4z"/>
				<path class="st20" d="M218.8,71.9c0-0.1,0-0.1,0-0.3c2.7-0.7,5.4-1.1,7.9-1.7c0.7-0.1,0.6,0.4,0.7,0.7c0.4,2.6,1,5.2,1.6,7.8
					c0.1,0.6,0.4,1.1,0,1.7c-0.3,0.3-0.7,0-1,0.3l0,0c-0.9,0.1-1.7,0.3-2.6,0.6c-0.3,0-0.6,0.1-0.9,0.1c-0.3,0-0.6-0.1-0.9,0.1l0,0
					c-0.3,0.3-0.7,0-1,0.1l0,0c-0.3,0.3-0.7,0-1,0.1l0,0c-0.3,0.1-0.7,0.1-1,0c-0.4-1.1-0.6-2.4-0.7-3.7c-0.4-1.8-0.7-3.7-1.1-5.5
					C218.8,72.3,218.8,72.2,218.8,71.9z"/>
				<path class="st9" d="M85.6,217.6c-1.1-0.1-2.1,0.3-3.1,0.4c-1.1,0.1-2.3,0.4-3.5,0.7c-0.4,0.1-0.7,0-0.7-0.4c-0.1-1-0.4-2-0.6-3
					c0-0.4,0.1-0.6,0.6-0.6c1-0.1,1.8-0.4,2.8-0.6c0.9-0.1,1.7-0.3,2.6-0.4c1-0.1,1-0.3,1-1.3c0.4,1.3,0.6,2.6,0.9,3.8
					C85.5,216.6,85.7,217.2,85.6,217.6z"/>
				<path class="st9" d="M68.6,130.2c-0.3-0.6-0.6-0.7-1.1-0.6c-1.8,0.4-3.5,0.7-5.4,1.1c-0.4,0.1-0.7,0-0.9-0.6
					c-0.1-1-0.4-1.8-0.6-2.8c-0.1-0.4,0-0.6,0.6-0.7c1.7-0.3,3.5-0.7,5.2-1c0.4-0.1,1.1,0.1,1.3-0.6c0.4,1.3,0.6,2.6,0.9,3.7
					C68.4,129.4,68.7,129.8,68.6,130.2z"/>
				<path class="st9" d="M72.3,149.6c-0.6-0.3-1,0-1.6,0.1c-1.7,0.3-3.3,0.6-5,1c-0.7,0.1-0.7,0-0.9-0.6c-0.1-1.1-0.4-2.1-0.6-3.3
					c0.9-0.4,2-0.4,2.8-0.7c1-0.3,2.1-0.4,3.1-0.6c0.9-0.1,0.9-0.1,1-1.1c0.4,1.3,0.6,2.6,0.9,3.7C72.1,148.6,72.4,149.1,72.3,149.6
					z"/>
				<path class="st9" d="M59.1,81.7c-0.3-0.4-0.4-0.7-1.1-0.6c-1.8,0.4-3.7,0.7-5.5,1.1c-0.6,0.1-0.7,0-0.9-0.6
					c-0.1-0.9-0.4-1.7-0.6-2.6c-0.1-0.6,0-0.9,0.6-0.9c1.7-0.4,3.5-0.7,5.2-1c0.4-0.1,1,0,1-0.6C58.5,78.3,58.9,80,59.1,81.7z"/>
				<path class="st9" d="M82.5,202.1c-1.7,0.1-3.4,0.6-5.1,0.9c-0.4,0.1-0.9,0.1-1.3,0.3c-0.4,0.1-0.9,0-1-0.6
					c-0.1-0.9-0.3-1.7-0.4-2.6c-0.1-0.6,0.1-0.9,0.7-1c1.7-0.3,3.3-0.7,5-1c1.1-0.1,1.1-0.1,1.1-1.3c0.4,1.3,0.6,2.6,0.9,3.8
					C82.5,201.3,82.6,201.7,82.5,202.1z"/>
				<path class="st9" d="M65.3,113.5c-0.1-0.3-0.4-0.6-0.9-0.4c-1.1,0.3-2.4,0.4-3.5,0.7c-0.7,0.1-1.6,0.3-2.3,0.4
					c-0.4,0.1-0.6-0.1-0.6-0.4c-0.1-0.9-0.3-1.8-0.6-2.7c-0.1-0.6,0-0.7,0.6-0.9c1-0.1,1.8-0.4,2.8-0.6s2.1-0.4,3.1-0.6
					c0.4,0,0.4-0.3,0.4-0.7c0.4,1.3,0.4,2.6,0.9,3.8C65.2,112.5,65.3,112.9,65.3,113.5z"/>
				<path class="st9" d="M79.5,186.4c-0.3-0.1-0.4-0.1-0.7-0.1c-1.8,0.4-3.7,0.7-5.5,1.1c-0.9,0.1-1,0-1.1-0.9
					c-0.1-0.7-0.3-1.3-0.4-2c-0.1-1,0-1.1,1-1.3c1.7-0.4,3.4-0.7,5.2-1c0.7-0.1,0.6-0.6,0.7-1c0.4,1.3,0.4,2.6,0.9,3.7
					C79.4,185.4,79.5,185.8,79.5,186.4z"/>
				<path class="st9" d="M62.1,96.6c-1.7,0.1-3.3,0.6-5,0.9c-0.6,0.1-1.1,0.3-1.6,0.3c-0.4,0-0.7-0.1-0.7-0.6
					c-0.1-0.9-0.4-1.8-0.6-2.7c-0.1-0.6,0-0.7,0.7-0.9c1.7-0.3,3.5-0.7,5.2-1c0.3,0,0.7-0.1,1-0.1C61.6,93.7,61.8,95.2,62.1,96.6z"
					/>
				<path class="st9" d="M76.1,169.5c-2,0.4-4,0.9-5.8,1.1c-0.3,0-0.6,0-0.9,0s-0.4-0.1-0.6-0.4c-0.1-1-0.4-2-0.6-2.8
					c-0.1-0.6,0.3-0.7,0.7-0.7c1.3-0.3,2.4-0.4,3.7-0.7c0.9-0.1,1.8-0.3,2.7-0.6C75.8,166.7,76.1,168.1,76.1,169.5z"/>
				<path class="st24" d="M224.6,39.5c0.6-0.4,1.4-0.3,2-0.6c0.9-0.3,0.9-0.3,0.7-1.1c-0.6-2.6-1-5.2-1.6-7.8
					c-0.1-0.7-0.1-0.9-0.9-0.7c-1.6,0.3-3.1,0.6-4.7,0.9c-2.8,0.6-5.5,1.1-8.4,1.6c-0.6,0.1-0.6,0.1-0.7,1.3
					c-0.3-0.7-0.4-1.4-0.4-2.1c0.3,0.6,0.6,0.7,1.3,0.6c3.1-0.6,6.1-1.1,9.2-1.8c1.1-0.3,2.4-0.4,3.5-0.7c1-0.1,1-0.1,1.3,0.9
					c0.3,1.6,0.6,3,0.9,4.5c0.3,1.1,0.4,2.3,0.7,3.4c0.1,1,0,1.1-1,1.4c-0.7,0.1-1.4,0.1-2.1,0.4C224.5,39.8,224.5,39.7,224.6,39.5
					C224.5,39.7,224.5,39.5,224.6,39.5z"/>
				<path class="st25" d="M235.8,159.9c1.4,0,2.7-0.4,4.1-0.7c0.3,0,0.7-0.1,1,0c-1.7,0.3-3.4,0.9-5.1,1
					C235.8,160,235.8,159.9,235.8,159.9z"/>
				<path class="st26" d="M212.9,41.7c1.1,0,2.1-0.3,3.3-0.6c0.3,0,0.7-0.1,1.3,0c-1.3,0.3-2.4,0.6-3.5,0.7
					c-0.6,0.1-0.7,0.3-0.7,0.9C212.7,42.4,212.9,42,212.9,41.7z"/>
				<path class="st27" d="M152.1,16.7c1.4-0.3,2.8-0.6,4.3-0.9l0,0c-0.1,0.3-0.3,0.4-0.6,0.4c-1,0.1-1.8,0.4-2.8,0.6
					C152.6,17,152.4,17,152.1,16.7L152.1,16.7z"/>
				<path class="st28" d="M231.6,123.7c-0.9,0.4-1.8,0.4-2.7,0.6v-0.1C229.7,123.8,230.6,123.7,231.6,123.7L231.6,123.7z"/>
				<path class="st9" d="M76.4,170.5c-0.3-0.3-0.1-0.7-0.3-1C76.5,169.8,76.4,170.2,76.4,170.5z"/>
				<path class="st29" d="M220.7,81.7c0.3,0,0.7,0,1,0C221.4,82,220.9,81.8,220.7,81.7C220.7,81.8,220.7,81.8,220.7,81.7z"/>
				<path class="st30" d="M223.5,91c-0.3,0.3-0.7,0.1-1,0.3c0-0.1,0-0.1,0-0.3C222.8,91,223.2,91,223.5,91z"/>
				<path class="st26" d="M212.7,40.8c0.3,0.3,0.1,0.6,0.1,0.9C212.6,41.4,212.7,41.1,212.7,40.8z"/>
				<path class="st9" d="M82.8,203.3c-0.3-0.3-0.1-0.6-0.1-0.9C82.8,202.6,82.8,203,82.8,203.3z"/>
				<path class="st31" d="M231.7,48.1c0.4,1.7,0.7,3.5,1.1,5.2c0.1,0.4,0.1,0.9-0.4,1c-1,0.3-2,0.6-3.1,0.4c0.7-0.4,1.6-0.4,2.4-0.6
					c0.9-0.1,0.9-0.3,0.7-1.1c-0.3-1.3-0.6-2.7-0.7-4c0-0.4,0-0.7-0.1-1.1C231.6,48.1,231.6,48.1,231.7,48.1z"/>
				<path class="st31" d="M231.6,48.1c-0.4-0.9,0-2-1.1-2.7c0.6,0,0.9,0,0.9,0.6C231.4,46.6,231.7,47.4,231.6,48.1z"/>
				<path class="st32" d="M224.6,39.5L224.6,39.5c-1.3,0.3-2.6,0.7-3.8,0.9c-0.7,0.1-1.3,0.4-2.3,0.3c1.8-0.4,3.7-0.7,5.4-1.1
					C224.1,39.5,224.4,39.5,224.6,39.5z"/>
				<path class="st28" d="M237.7,122.4c0.9-0.4,1.7-0.3,2.6-0.6c0.9-0.3,1.8-0.3,2.8-0.6c0.6-0.1,0.7,0,0.9,0.4
					c0.1,0.7,0.4,1.4,0.3,2.1l0,0c-0.3-0.4-0.4-1-0.4-1.4c-0.1-0.7-0.3-1-1.1-0.9c-0.7,0.1-1.4,0.3-2.1,0.6
					c-0.9,0.1-1.6,0.4-2.4,0.3C237.8,122.5,237.8,122.5,237.7,122.4z"/>
				<path class="st28" d="M230.9,133.2c2-0.4,4-1,6.1-1.1C236,132.5,231.6,133.3,230.9,133.2z"/>
				<path class="st28" d="M237.7,122.4h0.1c-0.7,0.4-1.4,0.4-2.1,0.6c-1.4,0.3-2.8,0.7-4.3,0.7l0,0c0.7-0.4,1.4-0.4,2.1-0.6
					C235,123,236.3,122.4,237.7,122.4z"/>
				<path class="st33" d="M244.5,130.9c-1.3,0.1-2.6,0.6-3.8,0.7c-0.7,0.1-1.3,0.4-2.3,0.3c1.8-0.4,3.7-0.7,5.4-1.1
					c0.3,0,0.4,0,0.7,0C244.6,130.8,244.6,130.8,244.5,130.9C244.5,130.8,244.5,130.9,244.5,130.9z"/>
				<path class="st28" d="M244.5,130.9v-0.1c0.6-0.1,0.7-0.6,0.6-1.1c-0.1-0.6-0.3-1.1-0.4-1.7c0-0.1,0.1-0.1,0.1,0
					c0.1,0.7,0.4,1.6,0.6,2.3c0.1,0.4,0,0.6-0.4,0.7C244.9,130.8,244.6,130.8,244.5,130.9z"/>
				<path class="st33" d="M244.9,127.8h-0.1c-0.1-0.9-0.3-1.7-0.4-2.6c-0.1-0.4-0.1-1-0.1-1.4l0,0c0.4,0.9,0.4,1.7,0.6,2.6
					C244.8,126.8,245.1,127.2,244.9,127.8z"/>
				<path class="st34" d="M246.9,166.2c0.9-0.4,1.7-0.4,2.6-0.6c0.6-0.1,0.6-0.3,0.6-0.7c-0.3-1.1-0.6-2.3-0.6-3.4
					c0.4,1.3,0.6,2.6,0.9,3.8c0,0.3-0.1,0.4-0.3,0.4C248.9,165.8,248,166.2,246.9,166.2z"/>
				<path class="st25" d="M246.9,166.2c-1.7,0.3-3.4,0.9-5.1,0.9C243.5,166.8,245.2,166.2,246.9,166.2z"/>
				<path class="st34" d="M242.5,158.7c1.6-0.3,3.3-0.6,4.8-1C246.3,158.2,243.4,158.9,242.5,158.7z"/>
				<path class="st34" d="M249.5,161.6c-0.3-0.4-0.3-0.7-0.1-1.1C249.5,161,249.5,161.3,249.5,161.6z"/>
				<path class="st23" d="M253.3,185c-1,0.4-2.1,0.6-3.3,0.6l0,0C251.2,185.1,252.2,184.8,253.3,185L253.3,185z"/>
				<path class="st23" d="M246.8,186.1c1-0.4,2.1-0.7,3.3-0.6l0,0C249,186,247.9,186.1,246.8,186.1L246.8,186.1z"/>
				<path class="st23" d="M246.8,186.1c-1,0.4-2.1,0.6-3.3,0.6C244.5,186.4,245.6,186.1,246.8,186.1L246.8,186.1z"/>
				<path class="st23" d="M243.5,186.8c-0.7,0.1-1.4,0.4-2.1,0.4C241.9,186.8,242.2,186.8,243.5,186.8z"/>
				<path class="st35" d="M253.6,140.7c0.4,1.1,0.6,2.4,0.9,3.5c0.1,0.6,0.1,1.3,0.3,1.8c0.1,0.4,0,0.6-0.4,0.6c-1,0.1-2,0.4-3,0.6
					c-3.7,0.7-7.5,1.4-11.2,2.1c-1.7,0.3-3.4,0.6-5.1,1c-0.6,0.1-0.7,0-0.9-0.4c-0.3-1-0.4-2-0.6-2.8c-0.4-1.8-0.7-3.8-1.1-5.7
					c0-0.3-0.1-0.4-0.1-0.7c0-0.3,0.1-0.6,0.4-0.6c0.9-0.1,1.8-0.4,2.7-0.6c2-0.3,4-0.7,6-1.1c2.1-0.4,4.3-0.9,6.2-1.3
					c0.1,0,0.3-0.1,0.4-0.1c0.1,0.1,0.6,0,0.4,0.4c-0.4,0.4-1,0.4-1.4,0.6c-4.4,0.9-8.7,1.7-13.1,2.6c-1.3,0.3-1.3,0.3-1,1.4
					c0.4,2.3,0.9,4.7,1.3,7c0.1,0.7,0.4,1,1.3,0.9c2.3-0.4,4.7-0.9,7-1.4c3.4-0.7,6.7-1.3,10.1-2c1.3-0.3,1.3-0.3,1-1.6
					c-0.3-1.1-0.6-2.3-0.6-3.5C253.3,141.1,253.3,140.8,253.6,140.7z"/>
				<path class="st36" d="M253.6,140.7c0,0.1,0,0.3-0.1,0.4c-0.6-0.9-0.6-1.8-0.7-2.8c-0.3-1.4-0.3-1.4-1.7-1.1
					c-0.6,0.1-1.1,0.3-1.6,0l-0.1-0.1c1-0.4,2.1-0.4,3.3-0.7c0.3,0,0.4,0.1,0.4,0.3C253,138,253.6,139.3,253.6,140.7z"/>
				<path class="st36" d="M248.6,137.3c-0.1,0-0.3,0-0.4-0.1c0.3,0,0.7,0,1,0C249.2,137.4,248.9,137.4,248.6,137.3z"/>
				<path class="st37" d="M235.8,96.6c-0.6-0.7-0.4-1.4-0.6-2.3c-0.3-1.4-0.6-3-0.9-4.4c-0.1-0.7-0.3-0.9-1.1-0.7
					c-0.9,0.1-1.6,0.4-2.4,0.3c1-0.4,2.1-0.4,3.3-0.7c0.3-0.1,0.4,0.3,0.4,0.6c0.3,1.6,0.6,3,0.9,4.5
					C235.7,94.7,236,95.6,235.8,96.6z"/>
				<path class="st38" d="M229.5,98.1c0.7-0.4,1.4-0.4,2.1-0.6c1-0.1,2.1-0.6,3.3-0.6c-0.7,0.4-1.4,0.4-2.1,0.6
					C231.6,97.9,230.6,98.3,229.5,98.1z"/>
				<path class="st38" d="M229,89.9c-1.6,0.4-3,0.7-4.5,0.9c0.9-0.4,1.7-0.4,2.6-0.6c0.7-0.1,1.3-0.3,2-0.4
					C229.2,89.8,229.2,89.9,229,89.9C229.2,89.9,229.2,89.9,229,89.9z"/>
				<path class="st38" d="M224.2,99.4c0-0.1,0-0.3,0.1-0.3c1-0.1,2-0.6,3.1-0.4c-0.9,0.4-1.7,0.4-2.6,0.6
					C224.6,99.3,224.4,99.3,224.2,99.4z"/>
				<path class="st37" d="M234.9,97.1c0.3-0.4,0.9-0.1,1-0.6c0.4,0.4,0,0.6-0.3,0.6C235.4,97.1,235.1,97.1,234.9,97.1z"/>
				<path class="st38" d="M227.5,98.6c0.3-0.3,0.7-0.1,1-0.1C228.2,98.7,227.8,98.6,227.5,98.6z"/>
				<path class="st39" d="M228.5,98.4c0.3-0.3,0.7-0.1,1-0.1C229.2,98.6,228.8,98.3,228.5,98.4z"/>
				<path class="st38" d="M224.6,90.8c-0.3,0.3-0.7,0.1-1,0.1C223.8,90.6,224.2,90.8,224.6,90.8z"/>
				<path class="st40" d="M230.9,89.5c-0.3,0.3-0.7,0.1-1,0.1C230.2,89.3,230.6,89.6,230.9,89.5z"/>
				<path class="st39" d="M229,89.9L229,89.9c0.3-0.1,0.6-0.1,0.9-0.1C229.7,90.1,229.3,89.9,229,89.9z"/>
				<path class="st41" d="M228.9,80.3c0.4-0.7,0-1.4,0-2.1c-0.4-2.4-0.9-4.8-1.4-7.2c0-0.3-0.1-0.6-0.3-0.9c-1.8,0.3-3.5,0.7-5.4,1
					c-1,0.1-1.8,0.4-2.8,0.6c0.4-0.6,1.1-0.4,1.7-0.6c2-0.4,4.1-0.9,6.2-1.3c0.6-0.1,0.9,0,1,0.6c0.6,3,1.1,6.1,1.7,9.1
					C229.7,80,229.5,80.1,228.9,80.3C228.8,80.4,228.8,80.4,228.9,80.3L228.9,80.3z"/>
				<path class="st42" d="M225.3,81c0.9-0.1,1.7-0.4,2.7-0.4C227.2,81,226.2,81,225.3,81C225.3,81.1,225.3,81,225.3,81L225.3,81z"/>
				<path class="st43" d="M225.3,81L225.3,81c-0.3,0.1-0.6,0.3-0.9,0.3c0,0-0.1-0.1,0-0.1l0,0C224.8,81,225.1,80.8,225.3,81z"/>
				<path class="st44" d="M222.6,81.5c0.3-0.3,0.7-0.1,1-0.1C223.5,81.7,223.1,81.5,222.6,81.5z"/>
				<path class="st42" d="M221.7,81.7c0.3-0.3,0.7-0.1,1-0.1C222.4,81.8,222.1,81.7,221.7,81.7z"/>
				<path class="st45" d="M224.6,81.1L224.6,81.1c-0.3,0.1-0.6,0.1-0.9,0.1C223.9,81,224.4,81.1,224.6,81.1z"/>
				<path class="st42" d="M228.9,80.3L228.9,80.3c-0.3,0.1-0.6,0.1-0.9,0.1C228.3,80.3,228.6,80.3,228.9,80.3z"/>
				<path class="st11" d="M92.4,71c0-0.7-0.1-1.4-0.3-2c0-0.3-0.1-0.6-0.1-0.9c0-0.4,0.1-0.7,0.6-0.7c2.3-0.3,4.7-0.9,7-1.4
					c5.1-1,10.2-2,15.3-3c2.8-0.6,5.7-1.1,8.4-1.7c3.8-0.7,7.5-1.4,11.3-2.3c4-0.7,7.9-1.6,11.9-2.3c4.1-0.9,8.2-1.6,12.3-2.4
					c3.3-0.6,6.5-1.3,9.8-1.8c4.1-0.9,8.2-1.6,12.3-2.4c2.8-0.6,5.8-1,8.7-1.6c0.9-0.1,1-0.1,1.1,0.7c0.7,3,1.4,6.1,2,9.2
					c0.9,4.3,1.7,8.7,2.6,12.9c0.9,4.1,1.6,8.2,2.4,12.3c0.4,2.3,0.9,4.5,1.3,6.7c0.1,0.9,0.1,0.7-0.7,1c-0.9,0.1-1.7,0.3-2.4,0.6
					c-0.4,0.4-0.9,0.4-1.3,0.4c-18.7,3.8-37.6,7.4-56.3,11.1c-9.2,1.8-18.3,3.5-27.5,5.4c-3,0.6-6.1,1.3-9.1,1.7
					c-1.4,0.3-1.6,0.1-1.8-1.3c-2.7-12.2-4.8-24.5-7.4-36.9C92.4,72,92.3,71.5,92.4,71z"/>
				<path class="st46" d="M92.4,71c0.4,1.3,0.6,2.6,0.9,3.8c0.7,3.4,1.3,6.7,2,10.1c0.7,3.7,1.4,7.4,2.1,11.2
					c0.9,4.1,1.6,8.4,2.6,12.5c0.1,0.6,0.3,1,0.3,1.6c0,0.4,0.3,0.6,0.6,0.4c1.4-0.3,3-0.6,4.4-0.9c4.1-0.9,8.2-1.6,12.3-2.4
					c4-0.9,8.1-1.6,12.1-2.4c3.7-0.7,7.4-1.4,11.2-2.1c3.7-0.7,7.2-1.4,10.9-2.1c3.7-0.7,7.5-1.4,11.2-2.1c3.7-0.7,7.2-1.4,10.9-2.1
					c4.1-0.9,8.2-1.6,12.3-2.4c3-0.6,5.8-1.1,8.7-1.7c0.3,0,0.7-0.1,1-0.1c0,0.9,0.3,1.7,0.3,2.6c0,0.3,0,0.6,0.1,0.9
					c0,0.4-0.1,0.6-0.6,0.6c-2.3,0.3-4.4,0.9-6.7,1.3c-3.4,0.6-6.7,1.3-10.1,2c-1.8,0.4-3.7,0.7-5.5,1.1c-3.1,0.6-6.2,1.1-9.4,1.8
					c-1.8,0.4-3.7,0.7-5.5,1.1c-3.1,0.6-6.1,1.1-9.2,1.8c-1.8,0.4-3.7,0.7-5.7,1.1c-3.1,0.6-6.1,1.1-9.2,1.8
					c-4,0.9-8.1,1.6-12.1,2.4c-3,0.6-6.1,1.1-9.1,1.7c-1.8,0.4-3.8,0.7-5.7,1.1c-3.3,0.7-6.5,1.3-9.8,1.8c-0.4,0.1-0.7,0-0.9-0.6
					c-0.7-2.4-1.1-4.8-1.6-7.2c-0.7-3.5-1.4-7.2-2.1-10.8c-0.6-3-1.1-6.1-1.7-9.1c-0.4-1.8-0.7-3.8-1.1-5.7
					c-0.6-2.8-1.1-5.8-1.7-8.7c-0.1-0.7,0.1-1.1,0.9-1.1C90.7,71.6,91.6,71.3,92.4,71z"/>
				<path class="st15" d="M192.6,44.2c-0.1-0.3,0.1-0.4,0.4-0.4c2.1-0.4,4.3-0.9,6.4-1.3c0.4-0.1,0.6,0,0.6,0.4
					c0.1,0.9,0.4,1.7,0.6,2.6c0.1,0.4,0,0.7-0.6,0.9c-0.9,0.1-1.7,0.3-2.6,0.4c-1.1,0.3-2.3,0.4-3.4,0.7c-0.7,0.1-0.9,0-1-0.7
					C193,46.1,192.9,45.2,192.6,44.2z"/>
				<path class="st15" d="M210.2,94.3c0,0.3-0.3,0.3-0.6,0.4c-1.4,0.3-2.8,0.6-4.3,0.9c-0.6,0.1-1.3,0.3-1.8,0.4
					c-0.4,0.1-0.7,0-0.7-0.4c-0.1-0.9-0.3-1.7-0.4-2.6c-0.1-0.7-0.1-0.7,0.6-0.9c1.7-0.3,3.5-0.7,5.2-1c1.4-0.3,1.4-0.3,1.7,1.1
					C209.9,92.9,210,93.5,210.2,94.3z"/>
				<path class="st15" d="M196.8,64.1c-0.3,0.1-0.4-0.1-0.4-0.4c-0.1-0.9-0.3-1.7-0.4-2.6c-0.1-0.7-0.1-0.9,0.6-1
					c1.1-0.3,2.4-0.4,3.5-0.7c0.9-0.1,1.7-0.3,2.6-0.4c0.4-0.1,0.7,0,0.7,0.4c0.1,0.9,0.3,1.8,0.6,2.7c0.1,0.4,0,0.6-0.4,0.7
					c-1.3,0.3-2.7,0.6-4,0.9C198.7,63.8,197.8,64,196.8,64.1z"/>
				<path class="st15" d="M206.3,74.4c0.1,1,0.4,1.8,0.6,2.8c0.1,0.7,0,0.9-0.7,1c-1.6,0.3-3,0.6-4.5,0.9c-0.6,0.1-1.1,0.1-1.6,0.3
					s-0.6,0-0.6-0.4c-0.1-1-0.4-1.8-0.6-2.8c-0.1-0.4,0.1-0.6,0.6-0.7c1.7-0.3,3.4-0.7,5.1-1C205.1,74.6,205.6,74.4,206.3,74.4z"/>
				<path class="st8" d="M248.6,137.3c0.3,0,0.4,0,0.6-0.1c0.9,0,1.7-0.1,2.6-0.3c0.6-0.1,0.9,0,1,0.6c0.3,1.3,0.4,2.6,0.7,3.8
					c0.4,1.3,0.6,2.6,0.9,3.8c0.3,1.4,0.3,1.4-1.1,1.7c-3.4,0.7-6.8,1.4-10.4,2c-2.6,0.4-5.1,1-7.7,1.4c-0.4,0-0.6,0-0.7-0.4
					c-0.6-3.1-1.1-6.1-1.8-9.2c2.4-0.4,4.8-0.9,7.1-1.3c1.8-0.3,3.7-0.7,5.5-1.1c1-0.1,2-0.4,2.8-0.6
					C248.3,137.4,248.5,137.4,248.6,137.3z"/>
				<path class="st47" d="M135.8,66.1c1-0.4,2-0.6,3-0.7c3.5-0.9,7.2-1.6,10.9-2.4c0.7-0.1,1.3-0.3,2-0.4c0.9-0.1,1.4,0.1,1.7,1
					c0.4,1.6,0.7,3.1,1,4.5c0.3,1.3,0,1.7-1.3,2c-2.4,0.6-5,1.1-7.4,1.7c-0.3,0-0.4,0.1-0.7,0.3c-0.1,0-0.1,0.1-0.1,0.1
					c-0.1,0.1,0.4,1.8,0.6,2c0.1,0.1,0.4,0,0.6,0c1.8-0.4,3.7-0.9,5.5-1.3c0.1,0,0.3-0.1,0.4-0.1c1.6-0.3,2,0,2.3,1.4
					c0.3,1.4,0.6,2.8,1,4.3c0.1,0.7-0.1,1.3-0.9,1.6c-0.6,0.1-1.3,0.3-1.8,0.4c-1.6,0.4-3.3,0.7-4.8,1c-0.6,0.1-0.7,0.3-0.6,0.9
					c0.1,0.6,0.3,1,0.3,1.6c0.1,0.7,0.3,0.9,1,0.7c1.8-0.4,3.7-0.9,5.5-1.3c0.9-0.1,1.7-0.4,2.6-0.6c1-0.1,1.4,0.1,1.7,1.1
					c0.3,1,0.4,1.8,0.6,2.8c0.1,0.6,0.3,1,0.4,1.6c0.3,1.3,0,1.8-1.3,2.1c-2.6,0.6-5.1,1.1-7.5,1.7c-2.3,0.6-4.7,1-7,1.6
					c-0.4,0.1-0.7,0.1-1.1,0.1c-1,0.3-1.3-0.6-1.6-1.1c-0.4-1.1-0.7-2.6-1-3.7c-0.6-2.3-1-4.5-1.4-6.8c-0.6-2.7-1.3-5.4-1.8-8.2
					c-0.3-1.6-0.7-3.3-1.1-4.8C135,67.9,135.1,66.9,135.8,66.1z"/>
				<path class="st47" d="M125.9,68.6c1.8,0.1,3.7,0.4,5.4,1.6c1.3,0.9,2.1,2,2.8,3.4c0.7,1.6,1.1,3.3,1.1,4.8c0,2-0.6,4-2,5.5
					c-0.6,0.7-0.6,0.7,0,1.4c2.1,2.3,4.1,4.5,6.2,6.8c0.9,0.9,0.6,2.3-0.9,2.4c-2,0.3-4,0.9-5.8,1.3c-0.9,0.3-1.6,0-2.1-0.9
					c-0.7-1-1.6-2-2.4-3c-1-1.1-2-2.3-3-3.4c-0.1-0.1-0.3-0.4-0.7-0.4c-0.6,0-0.7,0.1-0.7,0.7c0.4,2.1,1,4.3,1.4,6.4
					c0,0.3,0.1,0.6,0.1,0.9c0,0.9-0.3,1.3-1.1,1.4c-2,0.4-3.8,0.9-5.8,1.3c-0.9,0.1-1.4-0.3-1.6-1c-0.3-1.4-0.7-2.8-1-4.3
					c-1.3-6-2.7-11.9-4-17.9c-0.1-1-0.4-1.8-0.7-2.8c-0.3-1,0.1-1.7,1.1-1.8c3.4-0.7,6.8-1.6,10.2-2.3
					C124.1,68.6,124.9,68.6,125.9,68.6z"/>
				<path class="st47" d="M172.4,57.9c0.9,0,1.1,0.1,1.4,1c0.3,0.7,0.4,1.4,0.6,2.1c0.1,0.9,0.4,1.8,0.6,2.7
					c0.1,1.1-0.1,1.6-1.3,1.8c-2.6,0.6-5.1,1.1-7.7,1.7c-0.6,0.1-0.7,0.3-0.6,1c0.1,0.6,0.3,1.1,0.4,1.7c0.1,0.6,0.3,0.7,1,0.6
					c2.1-0.4,4.3-1,6.2-1.4c1-0.3,1.7,0.1,2,1.3c0.3,1.4,0.6,3,1,4.4c0.3,1.1,0,1.6-1.1,1.8c-2.1,0.4-4.3,1-6.4,1.4
					c-0.7,0.1-0.7,0.1-0.6,1c0.6,2.4,1,4.7,1.6,7.1c0,0.1,0.1,0.4,0.1,0.6c0,0.9-0.1,1.3-1,1.6c-1,0.3-2,0.6-3.1,0.7
					c-0.9,0.1-1.7,0.3-2.6,0.6c-1.1,0.3-1.7,0-2-1.3c-0.3-1.3-0.6-2.6-0.9-3.8c-0.6-2.3-1-4.7-1.6-7c-1-4.7-2.1-9.5-3.1-14.2
					c-0.1-0.7,0.3-1.3,1.1-1.6c0.9-0.3,1.8-0.4,2.7-0.6c3-0.7,6-1.3,8.9-2c1.3-0.3,2.7-0.6,4-0.9C172.1,57.9,172.3,57.9,172.4,57.9z
					"/>
				<path class="st47" d="M135.8,66.1c0,0.3-0.1,0.6-0.1,0.9c-0.3,0.7-0.3,1.4,0,2.1s0.3,1.6,0.6,2.3c0.3,1.3,0.6,2.4,0.7,3.7
					c0.1,0.9,0.3,1.7,0.6,2.4c0.3,0.9,0.3,1.8,0.7,2.7c0.3,0.7,0.3,1.4,0.4,2.1c0.1,0.6,0.1,1.1,0.4,1.7c0.1,0.1,0,0.3,0,0.6
					c0,0.4,0,0.9,0.3,1.3c0.3,0.9,0.3,1.7,0.6,2.6c0.1,0.4,0,0.9,0.3,1.3c0,0.1,0.1,0.1,0.1,0.3c-0.1,0.9,0.3,1.6,0.4,2.3
					c0.1,0.7,0.6,1.4,1.4,1.6c-1,0.4-1.6,0.1-1.8-1c-0.4-2.1-1-4.1-1.4-6.2c-0.4-2.3-1-4.4-1.4-6.7c-0.9-3.8-1.7-7.8-2.6-11.6
					c0-0.3,0-0.6,0-0.9C134.8,66.5,134.8,66.4,135.8,66.1z"/>
				<path class="st12" d="M151.9,63.7c0.4,1.1,0.6,2.4,0.9,3.7c0.3,1.4,0.3,1.4-1.1,1.7c-2.6,0.6-5.2,1.1-7.8,1.7
					c-0.7,0.1-0.7,0.1-0.6,1c0.3,1,0.4,2.1,0.7,3.1c0.1,0.7,0.3,0.7,1,0.6c2.3-0.4,4.4-1,6.7-1.4c0.1,0,0.3,0,0.6-0.1s0.6,0,0.6,0.3
					c0.3,1.4,0.6,2.8,0.9,4.3c0.1,0.6-0.3,0.6-0.6,0.6c-1.6,0.3-3.1,0.7-4.7,1c-0.9,0.1-1.6,0.4-2.4,0.6c-0.4,0.1-0.7,0.3-0.6,0.9
					c0.3,1.3,0.6,2.7,0.9,4c0.1,0.7,0.3,0.7,1,0.6c1.8-0.4,3.7-0.9,5.5-1.3c1-0.3,2.1-0.4,3.1-0.7c0.7-0.1,0.9-0.1,1,0.6
					c0.3,1.3,0.6,2.4,0.9,3.7c0.1,0.6-0.1,0.7-0.6,0.7c-1.8,0.4-3.7,0.9-5.5,1.3c-3.1,0.7-6.4,1.4-9.5,2.1c-0.9,0.1-0.9,0.1-1-0.7
					c-0.4-1.8-0.9-3.7-1.3-5.5c-1.3-6-2.7-12.1-4-18c-0.1-0.9-0.1-1,0.9-1.1c2.8-0.6,5.8-1.3,8.7-1.8
					C147.7,64.7,149.7,64.2,151.9,63.7z"/>
				<path class="st12" d="M131.1,84.5c2.6,2.8,5.1,5.7,7.7,8.7c-0.9,0.4-1.7,0.4-2.6,0.7c-1.1,0.3-2.3,0.4-3.4,0.7
					c-0.6,0.1-0.9,0-1.3-0.4c-1-1.1-2-2.3-3-3.4c-1-1.1-1.8-2.3-2.8-3.4c-0.3-0.4-0.7-0.6-1.3-0.4c-0.4,0.1-0.9,0.1-1.3,0.3
					c-0.7,0.1-0.9,0.3-0.7,1c0.6,2.4,1.1,4.8,1.6,7.2c0.1,0.7,0.1,0.7-0.6,1c-1.6,0.4-3.3,0.7-4.8,1.1c-0.3,0.1-0.4,0-0.6-0.4
					c-0.7-3.1-1.4-6.1-2-9.2c-0.7-3-1.3-5.8-2-8.8c-0.4-2-0.9-4-1.3-5.8c0-0.1,0-0.3,0-0.6c-0.1-0.4,0-0.6,0.4-0.7
					c1.7-0.4,3.5-0.9,5.2-1.1c1.4-0.3,3-0.7,4.4-1c2-0.4,4.1-0.4,6.1,0.3c1.4,0.6,2.7,1.4,3.4,2.7c1,1.6,1.6,3.4,1.4,5.2
					c0,2.1-0.7,4-2.3,5.4C131.6,84,131.3,84.2,131.1,84.5z"/>
				<path class="st12" d="M173.6,63.8c0,0.3-0.3,0.4-0.6,0.4c-0.9,0.1-1.7,0.4-2.6,0.6c-2.1,0.4-4.3,1-6.2,1.4
					c-0.6,0.1-0.7,0.4-0.6,0.9c0.3,1.4,0.6,2.7,1,4.1c0.1,0.7,0.3,0.7,1,0.6c2.1-0.4,4.3-1,6.5-1.4c1.4-0.3,1.4-0.3,1.6,1.1
					c0.1,1,0.4,2,0.6,2.8c0.1,0.9,0.1,0.9-0.6,1c-1.6,0.4-3.3,0.7-5,1.1c-0.7,0.1-1.6,0.3-2.3,0.6c-0.6,0.1-0.6,0.3-0.6,0.9
					c0.7,2.7,1.3,5.4,1.8,8.1c0.1,0.9,0.1,0.9-0.7,1.1c-1.4,0.3-2.8,0.7-4.3,1c-0.9,0.1-1,0.1-1.1-0.7c-0.6-2.3-1-4.5-1.6-6.8
					c-1.3-5.7-2.6-11.2-3.7-16.9c-0.1-0.9-0.1-0.9,0.7-1c3.3-0.7,6.5-1.4,9.6-2.1c1.7-0.4,3.4-0.7,5-1.1c0.4-0.1,0.7,0,0.9,0.4
					C172.9,61.1,173.1,62.4,173.6,63.8C173.6,63.7,173.6,63.7,173.6,63.8z"/>
				<path class="st47" d="M128,78.4c0,1.4-0.7,2.4-1.8,3c-1.3,0.7-2.7,0.9-4,1.1c-0.4,0.1-0.7-0.1-0.9-0.6c-0.4-1.8-0.9-3.8-1.3-5.7
					c-0.1-0.4,0-0.4,0.4-0.6c1.4-0.3,2.7-0.7,4.1-0.7C126.6,74.9,127.9,75.9,128,78.4z"/>
				<path class="st11" d="M124.3,76.2c1.3,0,1.8,0.4,2.1,1.1c0.4,1,0.1,2-0.6,2.6c-0.9,0.7-2,0.9-3.1,1.1c-0.3,0-0.6-0.1-0.6-0.4
					c-0.3-1.1-0.4-2.3-0.7-3.4c-0.1-0.4,0.1-0.6,0.4-0.6C122.8,76.4,123.8,76.3,124.3,76.2z"/>
			</g>
		</g>
		<polygon class="st15" points="209.6,25.1 243.7,199.4 237.8,191.3 205.9,26 		"/>
	</g>
</g>
<g id="Layer_2">
</g>
</svg>
