<?xml version="1.0" encoding="utf-8"?>
<!-- Generator: Adobe Illustrator 23.0.0, SVG Export Plug-In . SVG Version: 6.00 Build 0)  -->
<svg version="1.1" xmlns="http://www.w3.org/2000/svg" xmlns:xlink="http://www.w3.org/1999/xlink" x="0px" y="0px"
	 viewBox="0 0 256 256" style="enable-background:new 0 0 256 256;" xml:space="preserve">
<style type="text/css">
	.st0{display:none;}
	.st1{display:inline;}
	.st2{fill:#D1C2E2;}
	.st3{fill:#4C2C69;}
	.st4{fill:#4C2C68;}
	.st5{fill:#5D52B6;}
	.st6{fill:#9F3EAC;}
	.st7{fill:#9A59D7;}
	.st8{fill:#6957E3;}
	.st9{fill:#779D58;}
	.st10{fill:#C468D4;}
</style>
<g id="Layer_2" class="st0">
	<g class="st1">
		<path class="st2" d="M60,0h136c33.1,0,60,26.9,60,60v136c0,33.1-26.9,60-60,60H60c-33.1,0-60-26.9-60-60V60C0,26.9,26.9,0,60,0z"
			/>
	</g>
</g>
<g id="Layer_1">
	<g>
		<path class="st3" d="M170.8,177.8c0.6,0.6,1.1,1.3,1.7,1.9c1.8,1.9,1.8,4.4-0.1,6.2c-1.2,1.1-3.5,1.3-4.8,0.3
			c-0.5-0.3-0.9-0.7-1.3-1.1c-2.3-2.2-4.6-4.5-6.9-6.7c-0.4-0.4-0.8-0.7-1.3-1c-2.1-1.4-2.6-4.2-1-6.1c1.8-2.1,3.8-3.9,5.7-5.9
			c1.2-1.2,2.4-2.5,3.8-3.7c1.6-1.4,4-1.3,5.5,0.2c1.5,1.4,1.7,3.8,0.4,5.5c-0.5,0.7-1.2,1.3-1.8,2c0.3,0.2,0.5,0.1,0.8,0.1
			c12.5,0,24.9,0,37.4,0c0.9,0,1.1-0.2,1.1-1.1c-0.1-1.1,0-2.2,0-3.3c0-42.7,0-85.4,0-128.2c0-2.2,0-2.2-2.2-2.2
			c-14.9,0-29.8,0-44.7,0c-1.1,0-2.2,0-3.2-0.7c-1.4-0.9-2.1-2.2-1.9-3.9c0.2-1.7,1.1-2.9,2.8-3.4c0.6-0.2,1.3-0.3,2-0.3
			c15.6,0,31.3,0,46.9,0c4,0,7.1,1.8,8.3,5.8c0.3,1,0.3,2,0.3,3c0,44.8,0,89.5,0,134.3c0,4.5-3.5,8-8,8c-12.7,0-25.5,0-38.2,0
			C171.5,177.7,171.1,177.6,170.8,177.8z"/>
		<path class="st3" d="M86.9,81.4c-1-1-2.1-1.9-3.1-2.9c-1.8-1.9-1.8-4.4,0-6.1c1.5-1.4,4.2-1.4,5.8,0.2c1.4,1.3,2.7,2.8,4.1,4.1
			c1.8,1.8,3.5,3.7,5.3,5.5c2.4,2.3,1.6,5.6-0.7,7c-1.7,1.1-3,2.8-4.4,4.2c-1.4,1.4-2.8,2.9-4.3,4.3c-2.4,2.3-6.3,1.4-7.1-1.6
			c-0.4-1.5-0.2-2.9,1-4c0.6-0.6,1.3-1.2,2-1.8c-0.4-0.5-0.7-0.3-0.9-0.3c-11.8,0-23.6,0-35.4,0c-0.8,0-1,0.2-1,1
			c0,40.5,0,81.1,0,121.6c0,0.9,0.3,1,1.1,1c12.9,0,25.7,0,38.6,0c2.5,0,4.1,1.1,4.7,3c0.8,2.7-1.1,5-4.2,5.3c-0.3,0-0.5,0-0.8,0
			c-13.2,0-26.5,0-39.7,0c-4.3,0-8-3.6-8-7.9c0-41,0-82,0-123c0-2.9,0.6-5.4,3-7.3c1.9-1.6,4.2-1.8,6.6-1.8c11.8,0,23.7,0,35.5,0
			c0.6,0,1.1,0,1.7,0C86.8,81.7,86.9,81.6,86.9,81.4z"/>
		<path class="st4" d="M130,236.2c-5.6,0-11.3,0.1-16.9,0c-3.7,0-3.2,0-3.2-3.2c0-10.4,0-20.9,0-31.3c0-1.5,0.2-1.7,1.7-1.8
			c4.5-0.1,9-0.1,13.5-0.1c0.8,0,1.2-0.2,1.1-1.1c-0.1-1.8-0.1-3.7,0-5.5c0-0.9-0.3-1-1.1-1c-4.3,0-8.7,0-13,0c-0.4,0-0.8,0-1.1,0
			c-0.7,0-1-0.4-1.1-1.1c0-0.5,0-1,0-1.5c0-10.7,0-21.3,0-32c0-1.2,0.2-1.4,1.4-1.5c4.7-0.3,9.4-0.1,14.1-0.1c0.8,0,1.1-0.2,1.1-1.1
			c-0.1-1.8-0.1-3.6,0-5.4c0-0.7-0.2-1-1-1c-4.6,0-9.1,0-13.7,0c-1.7,0-1.9-0.2-1.9-1.9c0-10.8,0-21.7,0-32.5c0-1.7,0.3-1.9,1.9-2
			c4.2,0,8.5,0,12.7,0c0.8,0,1-0.2,1-1c-0.1-2.1-0.1-4.1,0-6.2c0-0.8-0.2-0.9-1-0.9c-4.3,0-8.6,0-12.9,0c-0.4,0-0.8,0-1.1,0
			c-0.6,0-0.9-0.4-0.9-1c0-0.2,0-0.3,0-0.5c0-11,0-22,0-33c0-1.5,0.1-1.6,1.6-1.7c4.6-0.2,9.2,0,13.8,0c0.8,0,1.1-0.2,1-1
			c-0.1-2-0.1-4,0-5.9c0-0.7-0.2-0.9-0.9-0.9c-4.3,0-8.6,0-12.9,0c-0.2,0-0.3,0-0.5,0c-1.6-0.1-1.8-0.3-1.8-1.9
			c0-10.8,0-21.7,0-32.5c0-1.6,0-1.6,1.6-1.8c0.8-0.1,1.6-0.1,2.4-0.1c10.1,0,20.2,0,30.2,0c1.9,0,3.8,0.1,5.7,0.1
			c0.8,0,1.1,0.4,1.2,1.1c0,0.2,0,0.4,0,0.6c0,10.8,0,21.6,0,32.3c0,0.4,0,0.8-0.1,1.1c-0.1,0.6-0.4,0.9-1,0.9
			c-4.8,0.3-9.6,0.1-14.4,0.1c-1,0-1.2,0.3-1.2,1.2c0.1,1.9,0.1,3.8,0,5.6c0,0.7,0.2,1,0.9,1c4.6,0,9.3,0,13.9,0.1
			c1.3,0,1.6,0.3,1.6,1.6c0,4.6,0,9.1,0,13.7c0,6.3,0,12.6,0,18.9c0,0.3,0,0.6,0,1c0,0.7-0.4,1.1-1.1,1.1c-2.9,0-5.7,0-8.6,0.1
			c-2,0-4.1,0-6.1,0c-0.6,0-0.8,0.2-0.8,0.8c0,2.1,0,4.3,0,6.4c0,0.7,0.2,0.9,0.9,0.9c4.8,0,9.7,0,14.5,0c1.2,0,1.6,0.4,1.6,1.6
			c0,11.1,0,22.1,0,33.2c0,1.2-0.2,1.4-1.4,1.5c-2.9,0.2-5.7,0-8.6,0.1c-1.8,0-3.6,0-5.4,0c-0.8,0-1,0.2-0.9,1c0,1.8,0,3.7,0,5.6
			c0,0.7,0.2,0.9,0.9,0.9c2.6,0,5.2,0,7.8,0c2.1,0,4.3,0.1,6.4,0.1c0.8,0,1.1,0.4,1.2,1.1c0,0.4,0,0.8,0,1.1c0,10.5,0,21,0,31.5
			c0,0.1,0,0.1,0,0.2c0,2.1-0.1,2.3-2.3,2.3c-4.2,0-8.5,0-12.7,0c-1.7,0-1.5-0.2-1.5,1.5s0,3.3,0,5c0,0.9,0.2,1.1,1.1,1.1
			c4.7,0,9.3,0,14,0c1.1,0,1.5,0.3,1.5,1.5c0,10.9,0,21.8,0,32.7c0,1.8-0.2,2-2.3,2.1c-1.9,0-3.8,0-5.6,0
			C138.7,236.2,134.3,236.2,130,236.2L130,236.2z"/>
		<path class="st5" d="M88.8,133.5c-7.6,0-15.1,0-22.7,0c-0.7,0-0.7,0.4-0.7,0.9c0,4.4,0,8.9,0,13.3c0,7.1,0,14.2,0,21.2
			c0,0.9,0.3,1.1,1.1,1.1c9,0,17.9,0,26.9,0c1.4,0,2.8,0.1,3.9,1.3s1.5,2.9,0.8,4.3c-0.7,1.6-1.9,2.5-3.6,2.5c-9.9,0-19.8,0-29.8,0
			c-3.9,0-7.4-3.6-7.5-7.5c0-12.2,0-24.4,0-36.6c0-5.2,3.3-8.5,8.5-8.5c7.5,0,15,0,22.5,0c0.3,0,0.6,0.1,0.8-0.1
			c0.1-0.3-0.2-0.5-0.4-0.6c-0.9-0.9-1.8-1.9-2.8-2.8c-1.6-1.4-1.7-4.1-0.4-5.7c1.3-1.6,3.9-1.8,5.7-0.5c0.2,0.1,0.3,0.2,0.5,0.3
			c2.3,2.2,4.6,4.4,6.9,6.7c1,1,2,2,3.1,2.9c2.2,1.8,2.2,5,0.3,6.8c-3.1,3-6.2,6.1-9.3,9.1c-1.6,1.6-4.2,1.6-5.8,0.1
			c-1.7-1.6-1.7-4.2-0.1-5.9c0.7-0.7,1.4-1.3,2.2-2C88.9,133.6,88.9,133.5,88.8,133.5z"/>
		<path class="st5" d="M169.2,90.1c0.8,1,1.7,1.6,2.1,2.8c0.7,1.9,0.1,3.9-1.6,4.9c-1.5,1-3.8,0.7-5.1-0.6c-2.6-2.7-5.2-5.3-7.8-8
			c-1.3-1.4-2.1-3-1.5-5c0.2-0.8,0.7-1.3,1.3-1.9c2.5-2.5,4.9-4.9,7.5-7.3c1.6-1.5,4.1-1.5,5.6-0.1c1.6,1.6,1.8,3.8,0.3,5.7
			c-0.3,0.4-0.6,0.7-0.9,1.1c0.3,0.2,0.5,0.1,0.8,0.1c7.5,0,15.1,0,22.6,0c0.9,0,1.1-0.2,1.1-1.1c0-10.9,0-21.9,0-32.8
			c0-0.8-0.3-0.9-1-0.9c-9.1,0-18.2,0-27.4,0c-2.2,0-3.9-1.1-4.4-2.9c-0.8-2.8,1.1-5.3,4.1-5.3c4.8,0,9.6,0,14.4,0
			c4.8,0,9.5,0.1,14.3,0c4.4-0.1,8.1,3.3,8.2,8c0.1,11.6,0.1,23.2,0,34.8c-0.1,4-2,7.1-6.5,8.2c-0.3,0.1-0.7,0.1-1,0.1
			c-7.9,0-15.8,0-23.6,0C170,90,169.6,89.9,169.2,90.1z"/>
		<path class="st6" d="M130.4,58c-5.9,0-11.7,0-17.6,0c-0.8,0-1-0.2-1-1c0-10.2,0-20.4,0-30.6c0-0.8,0.2-1,1-1c11.8,0,23.6,0,35.4,0
			c0.8,0,1,0.2,1,1c0,10.2,0,20.4,0,30.6c0,0.8-0.2,1-1,1C142.2,58,136.3,58,130.4,58z"/>
		<path class="st7" d="M130.5,114.1c5.9,0,11.7,0,17.6,0c0.9,0,1.1,0.3,1.1,1.1c0,10.2,0,20.4,0,30.5c0,0.7-0.2,1-1,1
			c-11.8,0-23.5,0-35.3,0c-0.9,0-1.1-0.3-1.1-1.1c0-10.2,0-20.4,0-30.5c0-0.8,0.3-0.9,1-0.9C118.7,114.1,124.6,114.1,130.5,114.1
			L130.5,114.1z"/>
		<path class="st8" d="M130.5,201.8c5.8,0,11.7,0,17.5,0c0.9,0,1.1,0.2,1.1,1.1c0,10.1,0,20.2,0,30.2c0,1-0.4,1.1-1.2,1.1
			c-11.6,0-23.1,0-34.7-0.1c-1.4,0-1.4,0-1.4-1.4c0-9.9,0-19.7,0-29.6c0-1.4,0-1.3,1.4-1.3C118.9,201.8,124.7,201.8,130.5,201.8
			L130.5,201.8z"/>
		<path class="st9" d="M130.1,102.1c-5.8,0-11.7,0-17.5,0c-0.8,0-1.1-0.1-1.1-1c0.1-3.7,0-7.5,0-11.2c0-5.8,0-11.5,0-17.3
			c0-0.7-0.1-1.3-0.1-2c-0.1-0.6,0.1-0.9,0.8-0.8c0.8,0,1.7,0,2.5,0c10.9,0,21.9,0,32.8,0c0.9,0,1.2,0.2,1.2,1.2c0,10,0,20,0,30
			c0,0.9-0.2,1.2-1.1,1.2C141.8,102,135.9,102.1,130.1,102.1z"/>
		<path class="st10" d="M130.4,190.1c-5.9,0-11.7,0-17.6,0c-0.8,0-1-0.3-1-1c0-9.5,0-19.1,0-28.6c0-2.6,0-2.6,2.6-2.6
			c11.1,0,22.3,0,33.4,0c1,0,1.2,0.3,1.2,1.2c0,9.9,0,19.8,0,29.7c0,1.3,0,1.3-1.3,1.3C141.9,190.1,136.1,190.1,130.4,190.1z"/>
	</g>
</g>
</svg>
