<?xml version="1.0" encoding="utf-8"?>
<!-- Generator: Adobe Illustrator 23.0.0, SVG Export Plug-In . SVG Version: 6.00 Build 0)  -->
<svg version="1.1" id="Layer_1" xmlns="http://www.w3.org/2000/svg" xmlns:xlink="http://www.w3.org/1999/xlink" x="0px" y="0px"
	 viewBox="0 0 256 256" style="enable-background:new 0 0 256 256;" xml:space="preserve">
<style type="text/css">
	.st0{fill:#4D2C69;}
	.st1{fill:#4C2C68;}
	.st2{fill:#5E56A4;}
	.st3{fill:#96479A;}
	.st4{fill:#865FA7;}
	.st5{fill:#635FA9;}
	.st6{fill:#779C58;}
	.st7{fill:#AD6DAC;}
</style>
<g>
	<g>
		<path class="st0" d="M179,185.5c0.7,0.7,1.3,1.6,2,2.3c2.2,2.3,2.2,5.3-0.1,7.5c-1.4,1.3-4.2,1.6-5.8,0.4
			c-0.6-0.4-1.1-0.8-1.6-1.3c-2.8-2.6-5.5-5.4-8.3-8.1c-0.5-0.5-1-0.8-1.6-1.2c-2.5-1.7-3.1-5.1-1.2-7.3c2.2-2.5,4.6-4.7,6.9-7.1
			c1.4-1.4,2.9-3,4.6-4.5c1.9-1.7,4.8-1.6,6.6,0.2c1.8,1.7,2,4.6,0.5,6.6c-0.6,0.8-1.4,1.6-2.2,2.4c0.4,0.2,0.6,0.1,1,0.1
			c15,0,30,0,45,0c1.1,0,1.3-0.2,1.3-1.3c-0.1-1.3,0-2.6,0-4c0-51.4,0-102.8,0-154.3c0-2.6,0-2.6-2.6-2.6c-17.9,0-35.9,0-53.8,0
			c-1.3,0-2.6,0-3.9-0.8c-1.7-1.1-2.5-2.6-2.3-4.7c0.2-2,1.3-3.5,3.4-4.1c0.7-0.2,1.6-0.4,2.4-0.4c18.8,0,37.7,0,56.4,0
			c4.8,0,8.5,2.2,10,7c0.4,1.2,0.4,2.4,0.4,3.6c0,53.9,0,107.7,0,161.6c0,5.4-4.2,9.6-9.6,9.6c-15.3,0-30.7,0-46,0
			C179.9,185.4,179.4,185.2,179,185.5z"/>
		<path class="st0" d="M78,69.4c-1.2-1.2-2.5-2.3-3.7-3.5c-2.2-2.3-2.2-5.3,0-7.3c1.8-1.7,5.1-1.7,7,0.2c1.7,1.6,3.2,3.4,4.9,4.9
			c2.2,2.2,4.2,4.5,6.4,6.6c2.9,2.8,1.9,6.7-0.8,8.4c-2,1.3-3.6,3.4-5.3,5.1c-1.7,1.7-3.4,3.5-5.2,5.2c-2.9,2.8-7.6,1.7-8.5-1.9
			c-0.5-1.8-0.2-3.5,1.2-4.8c0.7-0.7,1.6-1.4,2.4-2.2c-0.5-0.6-0.8-0.4-1.1-0.4c-14.2,0-28.4,0-42.6,0c-1,0-1.2,0.2-1.2,1.2
			c0,48.7,0,97.6,0,146.4c0,1.1,0.4,1.2,1.3,1.2c15.5,0,30.9,0,46.5,0c3,0,4.9,1.3,5.7,3.6c1,3.2-1.3,6-5.1,6.4c-0.4,0-0.6,0-1,0
			c-15.9,0-31.9,0-47.8,0c-5.2,0-9.6-4.3-9.6-9.5c0-49.3,0-98.7,0-148c0-3.5,0.7-6.5,3.6-8.8c2.3-1.9,5.1-2.2,7.9-2.2
			c14.2,0,28.5,0,42.7,0c0.7,0,1.3,0,2,0C77.9,69.8,78,69.7,78,69.4z"/>
		<path class="st1" d="M129.9,255.8c-6.7,0-13.6,0.1-20.3,0c-4.5,0-3.9,0-3.9-3.9c0-12.5,0-25.2,0-37.7c0-1.8,0.2-2,2-2.2
			c5.4-0.1,10.8-0.1,16.2-0.1c1,0,1.4-0.2,1.3-1.3c-0.1-2.2-0.1-4.5,0-6.6c0-1.1-0.4-1.2-1.3-1.2c-5.2,0-10.5,0-15.6,0
			c-0.5,0-1,0-1.3,0c-0.8,0-1.2-0.5-1.3-1.3c0-0.6,0-1.2,0-1.8c0-12.9,0-25.6,0-38.5c0-1.4,0.2-1.7,1.7-1.8c5.7-0.4,11.3-0.1,17-0.1
			c1,0,1.3-0.2,1.3-1.3c-0.1-2.2-0.1-4.3,0-6.5c0-0.8-0.2-1.2-1.2-1.2c-5.5,0-11,0-16.5,0c-2,0-2.3-0.2-2.3-2.3c0-13,0-26.1,0-39.1
			c0-2,0.4-2.3,2.3-2.4c5.1,0,10.2,0,15.3,0c1,0,1.2-0.2,1.2-1.2c-0.1-2.5-0.1-4.9,0-7.5c0-1-0.2-1.1-1.2-1.1c-5.2,0-10.4,0-15.5,0
			c-0.5,0-1,0-1.3,0c-0.7,0-1.1-0.5-1.1-1.2c0-0.2,0-0.4,0-0.6c0-13.2,0-26.5,0-39.7c0-1.8,0.1-1.9,1.9-2c5.5-0.2,11.1,0,16.6,0
			c1,0,1.3-0.2,1.2-1.2c-0.1-2.4-0.1-4.8,0-7.1c0-0.8-0.2-1.1-1.1-1.1c-5.2,0-10.4,0-15.5,0c-0.2,0-0.4,0-0.6,0
			c-1.9-0.1-2.2-0.4-2.2-2.3c0-13,0-26.1,0-39.1c0-1.9,0-1.9,1.9-2.2c1-0.1,1.9-0.1,2.9-0.1c12.2,0,24.3,0,36.3,0
			c2.3,0,4.6,0.1,6.9,0.1c1,0,1.3,0.5,1.4,1.3c0,0.2,0,0.5,0,0.7c0,13,0,26,0,38.9c0,0.5,0,1-0.1,1.3c-0.1,0.7-0.5,1.1-1.2,1.1
			c-5.8,0.4-11.6,0.1-17.3,0.1c-1.2,0-1.4,0.4-1.4,1.4c0.1,2.3,0.1,4.6,0,6.7c0,0.8,0.2,1.2,1.1,1.2c5.5,0,11.2,0,16.7,0.1
			c1.6,0,1.9,0.4,1.9,1.9c0,5.5,0,11,0,16.5c0,7.6,0,15.2,0,22.7c0,0.4,0,0.7,0,1.2c0,0.8-0.5,1.3-1.3,1.3c-3.5,0-6.9,0-10.4,0.1
			c-2.4,0-4.9,0-7.3,0c-0.7,0-1,0.2-1,1c0,2.5,0,5.2,0,7.7c0,0.8,0.2,1.1,1.1,1.1c5.8,0,11.7,0,17.5,0c1.4,0,1.9,0.5,1.9,1.9
			c0,13.4,0,26.6,0,40c0,1.4-0.2,1.7-1.7,1.8c-3.5,0.2-6.9,0-10.4,0.1c-2.2,0-4.3,0-6.5,0c-1,0-1.2,0.2-1.1,1.2c0,2.2,0,4.5,0,6.7
			c0,0.8,0.2,1.1,1.1,1.1c3.1,0,6.3,0,9.4,0c2.5,0,5.2,0.1,7.7,0.1c1,0,1.3,0.5,1.4,1.3c0,0.5,0,1,0,1.3c0,12.6,0,25.3,0,37.9
			c0,0.1,0,0.1,0,0.2c0,2.5-0.1,2.8-2.8,2.8c-5.1,0-10.2,0-15.3,0c-2,0-1.8-0.2-1.8,1.8c0,2,0,4,0,6c0,1.1,0.2,1.3,1.3,1.3
			c5.7,0,11.2,0,16.9,0c1.3,0,1.8,0.4,1.8,1.8c0,13.1,0,26.2,0,39.4c0,2.2-0.2,2.4-2.8,2.5c-2.3,0-4.6,0-6.7,0
			C140.4,255.8,135.1,255.8,129.9,255.8L129.9,255.8z"/>
		<path class="st2" d="M80.3,132.2c-9.1,0-18.2,0-27.3,0c-0.8,0-0.8,0.5-0.8,1.1c0,5.3,0,10.7,0,16c0,8.5,0,17.1,0,25.5
			c0,1.1,0.4,1.3,1.3,1.3c10.8,0,21.5,0,32.4,0c1.7,0,3.4,0.1,4.7,1.6c1.3,1.4,1.8,3.5,1,5.2c-0.8,1.9-2.3,3-4.3,3
			c-11.9,0-23.8,0-35.9,0c-4.7,0-8.9-4.3-9-9c0-14.7,0-29.4,0-44.1c0-6.3,4-10.2,10.2-10.2c9,0,18.1,0,27.1,0c0.4,0,0.7,0.1,1-0.1
			c0.1-0.4-0.2-0.6-0.5-0.7c-1.1-1.1-2.2-2.3-3.4-3.4c-1.9-1.7-2-4.9-0.5-6.9c1.6-1.9,4.7-2.2,6.9-0.6c0.2,0.1,0.4,0.2,0.6,0.4
			c2.8,2.6,5.5,5.3,8.3,8.1c1.2,1.2,2.4,2.4,3.7,3.5c2.6,2.2,2.6,6,0.4,8.2c-3.7,3.6-7.5,7.3-11.2,11c-1.9,1.9-5.1,1.9-7,0.1
			c-2-1.9-2-5.1-0.1-7.1c0.8-0.8,1.7-1.6,2.6-2.4C80.4,132.3,80.4,132.2,80.3,132.2z"/>
		<path class="st2" d="M177.1,79.9c1,1.2,2,1.9,2.5,3.4c0.8,2.3,0.1,4.7-1.9,5.9c-1.8,1.2-4.6,0.8-6.1-0.7c-3.1-3.2-6.3-6.4-9.4-9.6
			c-1.6-1.7-2.5-3.6-1.8-6c0.2-1,0.8-1.6,1.6-2.3c3-3,5.9-5.9,9-8.8c1.9-1.8,4.9-1.8,6.7-0.1c1.9,1.9,2.2,4.6,0.4,6.9
			c-0.4,0.5-0.7,0.8-1.1,1.3c0.4,0.2,0.6,0.1,1,0.1c9,0,18.2,0,27.2,0c1.1,0,1.3-0.2,1.3-1.3c0-13.1,0-26.4,0-39.5
			c0-1-0.4-1.1-1.2-1.1c-11,0-21.9,0-33,0c-2.6,0-4.7-1.3-5.3-3.5c-1-3.4,1.3-6.4,4.9-6.4c5.8,0,11.6,0,17.3,0
			c5.8,0,11.4,0.1,17.2,0c5.3-0.1,9.7,4,9.9,9.6c0.1,14,0.1,27.9,0,41.9c-0.1,4.8-2.4,8.5-7.8,9.9c-0.4,0.1-0.8,0.1-1.2,0.1
			c-9.5,0-19,0-28.4,0C178.1,79.8,177.6,79.7,177.1,79.9z"/>
		<path class="st3" d="M130.4,41.3c-7.1,0-14.1,0-21.2,0c-1,0-1.2-0.2-1.2-1.2c0-12.3,0-24.6,0-36.8c0-1,0.2-1.2,1.2-1.2
			c14.2,0,28.4,0,42.6,0c1,0,1.2,0.2,1.2,1.2c0,12.3,0,24.6,0,36.8c0,1-0.2,1.2-1.2,1.2C144.6,41.3,137.5,41.3,130.4,41.3z"/>
		<path class="st4" d="M130.5,108.8c7.1,0,14.1,0,21.2,0c1.1,0,1.3,0.4,1.3,1.3c0,12.3,0,24.6,0,36.7c0,0.8-0.2,1.2-1.2,1.2
			c-14.2,0-28.3,0-42.5,0c-1.1,0-1.3-0.4-1.3-1.3c0-12.3,0-24.6,0-36.7c0-1,0.4-1.1,1.2-1.1C116.3,108.8,123.4,108.8,130.5,108.8
			L130.5,108.8z"/>
		<path class="st5" d="M130.5,214.4c7,0,14.1,0,21.1,0c1.1,0,1.3,0.2,1.3,1.3c0,12.2,0,24.3,0,36.3c0,1.2-0.5,1.3-1.4,1.3
			c-14,0-27.8,0-41.8-0.1c-1.7,0-1.7,0-1.7-1.7c0-11.9,0-23.7,0-35.6c0-1.7,0-1.6,1.7-1.6C116.6,214.4,123.5,214.4,130.5,214.4
			L130.5,214.4z"/>
		<path class="st6" d="M130,94.4c-7,0-14.1,0-21.1,0c-1,0-1.3-0.1-1.3-1.2c0.1-4.5,0-9,0-13.5c0-7,0-13.8,0-20.8
			c0-0.8-0.1-1.6-0.1-2.4c-0.1-0.7,0.1-1.1,1-1c1,0,2,0,3,0c13.1,0,26.4,0,39.5,0c1.1,0,1.4,0.2,1.4,1.4c0,12,0,24.1,0,36.1
			c0,1.1-0.2,1.4-1.3,1.4C144.1,94.2,137,94.4,130,94.4z"/>
		<path class="st7" d="M130.4,200.3c-7.1,0-14.1,0-21.2,0c-1,0-1.2-0.4-1.2-1.2c0-11.4,0-23,0-34.4c0-3.1,0-3.1,3.1-3.1
			c13.4,0,26.8,0,40.2,0c1.2,0,1.4,0.4,1.4,1.4c0,11.9,0,23.8,0,35.7c0,1.6,0,1.6-1.6,1.6C144.2,200.3,137.3,200.3,130.4,200.3z"/>
	</g>
</g>
</svg>
