<?xml version="1.0" encoding="utf-8"?>
<!-- Generator: Adobe Illustrator 23.0.0, SVG Export Plug-In . SVG Version: 6.00 Build 0)  -->
<svg version="1.1" id="Layer_1" xmlns="http://www.w3.org/2000/svg" xmlns:xlink="http://www.w3.org/1999/xlink" x="0px" y="0px"
	 viewBox="0 0 256 256" style="enable-background:new 0 0 256 256;" xml:space="preserve">
<style type="text/css">
	.st0{display:none;}
	.st1{display:inline;fill:#D1C2E2;}
	.st2{fill:#4E2F6A;}
	.st3{fill:#AC6DAC;}
	.st4{fill:#CFBFDE;}
	.st5{fill:#B294C5;}
	.st6{fill:#AFD584;}
	.st7{fill:#DBC185;}
	.st8{fill:#CBB8D9;}
	.st9{fill:#AC6CAC;}
	.st10{fill:#6D8F4E;}
	.st11{fill:#7B4D6C;}
</style>
<g class="st0">
	<path class="st1" d="M60,0h136c33.1,0,60,26.9,60,60v136c0,33.1-26.9,60-60,60H60c-33.1,0-60-26.9-60-60V60C0,26.9,26.9,0,60,0z"/>
</g>
<g>
	<path class="st2" d="M151.1,111.5c0.6,0.9,0.9,1.7,1.1,2.6c0.1,0.4,0.3,0.5,0.7,0.6c2.4,0.5,4.5,1.6,6.4,3.1
		c0.3,0.2,0.6,0.2,0.9,0.2c5.1,0,10.1,0,15.2,0c0.9,0,1-0.3,1-1.1c0-3.6,0-7.2,0-10.8c0-0.6-0.1-1-0.7-1.3c-1-0.5-1.4-1.8-1-3
		c0.3-1,1.5-1.8,2.5-1.8c1.2,0,2.2,0.8,2.5,2c0.3,1.1-0.1,2.3-1.1,2.8c-0.5,0.3-0.6,0.6-0.6,1.1c0,4,0,8,0,12c0,1.4-0.4,1.8-1.8,1.8
		c-4.8,0-9.7,0-14.5,0c-0.7,0-0.9,0.1-0.6,0.8c0.3,0.6,0.4,1.3,0.5,2c0.1,0.5,0.3,0.7,0.8,0.7c6.3,0,12.6,0,19,0
		c0.5,0,0.7-0.2,0.7-0.7c0-3.8,0-7.5,0-11.3c0-0.5-0.3-0.6-0.6-0.8c-1-0.6-1.5-1.5-1.4-2.7c0.1-1,0.7-1.8,1.7-2.2
		c1.1-0.4,2.1-0.2,3,0.7c1.1,1.2,0.9,3.2-0.5,4.1c-0.6,0.3-0.7,0.7-0.7,1.3c0,3.8,0,7.6,0,11.4c0,1.7-0.1,1.8-1.8,1.8
		c-6.4,0-12.8,0-19.1,0c-0.7,0-1.1,0-1.2,0.9c-0.1,0.8-0.4,1.5-0.9,2.3c0.3,0,0.5,0,0.7,0c8.4,0,16.8,0,25.2,0c0.8,0,1-0.2,1-1
		c0-3,0-6.1,0-9.1c0-0.5-0.1-0.9-0.6-1.2c-1.1-0.7-1.6-2-1.1-3.2c0.4-1.2,1.5-1.9,2.7-1.9c1.2,0.1,2.3,0.9,2.6,2.1
		c0.3,1.2-0.3,2.4-1.4,3c-0.5,0.2-0.5,0.5-0.5,1c0,3.4,0,6.9,0,10.3c0,1.2-0.3,1.4-1.4,1.4c-8.3,0-16.5,0-24.8,0
		c-0.3,0-0.7,0-1.2,0.1c0.9,0.8,1.8,1.4,2.4,2.2c0.2,0.2,0.4,0.1,0.7,0.1c3.7,0,7.3,0,11,0c0.4,0,0.7-0.1,0.9-0.5
		c1.1-1.7,3.5-1.7,4.6,0.1c0.3,0.5,0.6,0.6,1.1,0.6c2.4,0,4.8,0,7.2,0c1.4,0,1.6,0.2,1.6,1.6c0,11.6,0,23.3,0,34.9
		c0,0.6,0.1,1,0.7,1.4c0.9,0.6,1.2,1.8,0.9,2.9c-0.3,1-1.2,1.7-2.4,1.7c-1.2,0-2.1-0.6-2.5-1.7c-0.4-1-0.1-2.3,0.9-2.9
		c0.6-0.4,0.7-0.8,0.7-1.4c0-11.3,0-22.6,0-33.9c0-0.7-0.1-1-1-1c-2.1,0.1-4.2,0-6.3,0c-0.5,0-0.7,0.1-1,0.6
		c-1.1,1.8-3.7,1.8-4.7-0.1c-0.2-0.3-0.3-0.6-0.8-0.6c-3.5,0-7,0-10.6,0c-0.1,0-0.1,0-0.2,0.1c0,0.1,0,0.1,0,0.2
		c0.3,0.9,0.1,2.2,0.8,2.8c0.7,0.5,1.9,0.1,2.9,0.2c2.6,0,5.1,0,7.7,0c1.5,0,1.8,0.4,1.8,1.8c0,2.1,0,4.3,0,6.4
		c0,0.6,0.2,0.8,0.8,0.8c1.8,0,3.6,0,5.5,0c0.5,0,0.7-0.1,0.7-0.6c0-0.4,0-0.8,0-1.3c0-0.7-0.1-1.1-0.8-1.5c-1-0.6-1.3-1.8-0.9-3
		c0.3-0.9,1.4-1.7,2.4-1.7c1.1,0,2.2,0.8,2.5,1.8c0.3,1.1,0,2.4-1,2.9c-0.7,0.4-0.8,0.8-0.8,1.5c0,4.7,0,9.5,0,14.2
		c0,0.5,0.1,0.8,0.6,1.1c1.2,0.7,1.6,1.9,1.2,3.2c-0.3,1-1.5,1.9-2.6,1.9c-1.1,0-2.2-0.8-2.6-1.9c-0.4-1.2,0-2.4,1.1-3.1
		c0.6-0.3,0.7-0.7,0.7-1.3c0-3.2,0-6.4,0-9.6c0-0.8-0.2-1-1-1c-4.2,0-8.4,0-12.5,0c-0.8,0-1.2-0.2-1.2-1.1c0.1-1,0-2,0-3
		c0-0.4-0.1-0.7-0.6-0.7c-2.2,0-4.4,0-6.6,0c-0.7,0-1.2,0.5-1.8,0.7c-0.4,0.2,0,0.5,0.1,0.7c0.7,1.2,1.3,2.4,1.5,3.8
		c0,0.1,0,0.1,0,0.2c0.2,1.5,0.2,1.5,1.7,1.5c4.9,0,9.8,0,14.8,0c0.4,0,0.7,0,1.1,0.1c0.8,0.2,1.3,0.7,1.3,1.6c0,3.6,0,7.2,0,10.8
		c0,0.6,0.1,1,0.6,1.3c1,0.7,1.3,1.8,0.8,3c-0.3,0.8-1.5,1.5-2.4,1.5c-1-0.1-2-0.9-2.2-1.8c-0.3-1.2,0.1-2.3,1.1-2.9
		c0.5-0.3,0.6-0.6,0.6-1c0-3.5,0-6.9,0-10.4c0-0.6-0.1-0.8-0.7-0.8c-5.2,0-10.5,0-15.7,0c-0.5,0-0.7,0.1-0.9,0.7
		c-0.6,1.8-1.4,3.6-3.2,4.7c-0.6,0.3,0,0.6,0.2,0.8c1.9,1.8,3.7,3.7,5.6,5.5c6.2,6.1,12.4,12.2,18.5,18.3c0.4,0.4,0.7,0.5,1.2,0.2
		c3.3-1.9,6.9-2.9,10.7-3.3c11.4-1.1,22.2,5.7,26.5,16c1.7,4,2.3,8.2,1.9,12.5c-1.2,12.3-10.1,21.5-21.6,23.6
		c-10.2,1.8-20.9-2.7-26.6-11.5c-3-4.5-4.5-9.6-4.3-15c0.2-7.6,3.2-14,8.8-19.1c0.7-0.6,0.7-0.9,0-1.5c-6.1-5.9-12.1-11.9-18.1-17.8
		c-1.9-1.9-3.8-3.8-5.7-5.7c-0.2-0.2-0.5-0.5-0.8-0.7c-0.4,2.1-0.9,4-2.1,5.6c-0.1,0.2-0.1,0.5-0.1,0.7c0,4.3,0,8.6,0,13
		c0,0.6,0.1,0.8,0.8,0.8c2.2,0,4.5,0,6.7,0c0.4,0,0.7-0.1,1-0.6c0.6-1.4,2.2-2,3.5-1.6c1.5,0.4,2.4,1.8,2.3,3.2
		c-0.2,1.5-1.4,2.7-2.9,2.7c-1.1,0-2.1-0.5-2.7-1.5c-0.3-0.5-0.6-0.6-1.1-0.6c-2.7,0-5.5,0-8.2,0c-0.8,0-1-0.3-1-1
		c0-4.2,0-8.4,0-12.6c0-0.8-0.2-0.9-0.9-0.6c-0.6,0.3-1.2,0.6-1.9,0.6c-0.9,0.1-1.1,0.5-1.1,1.3c0,6.6,0,13.2,0,19.9
		c0,0.7,0.1,1,0.9,1c4.7,0,9.4,0,14.1,0c0.5,0,0.8-0.1,1-0.7c0.5-1.3,1.9-1.9,3.3-1.7c1.4,0.3,2.4,1.5,2.5,2.9
		c0.1,1.3-0.9,2.5-2.2,2.9c-1.2,0.4-2.8-0.1-3.4-1.3c-0.3-0.6-0.7-0.7-1.3-0.7c-5.2,0-10.4,0-15.6,0c-0.7,0-0.9-0.1-0.9-0.9
		c0-7.3,0-14.6,0-21.9c0-0.6-0.1-1-0.7-1.1c-0.1,0-0.1-0.1-0.2-0.1c-0.8,0-1.1-1.3-2-0.8c-0.6,0.4-1,1.2-1.5,1.7
		c-0.3,0.2-0.2,0.5-0.2,0.8c0,9.1,0,18.1,0,27.2c0,0.1,0,0.2,0,0.4c0.1,1.8,0.1,1.8-1.7,1.8c-1.5,0-2.9,0-4.4,0
		c-0.5,0-0.7,0.1-1,0.5c-0.7,1.4-2,2-3.4,1.7c-1.4-0.4-2.4-1.6-2.3-3c0.1-1.4,1.1-2.6,2.6-2.9c1-0.2,2.3,0.4,2.9,1.4
		c0.3,0.6,0.7,0.7,1.3,0.7c1.2,0,2.4,0,3.6,0c0.5,0,0.8-0.1,0.8-0.7c0-8.6,0-17.2,0-25.8c0-0.7-0.2-0.7-0.7-0.4
		c-4.8,2.2-8.3-0.8-10.3-4.1c-0.2-0.4-0.3-0.9-0.3-1.4c0-19.3,0-38.7,0-58c0-1.2,0.8-1.6,1.5-2.3c0.3-0.3,0.8-0.6,1.2-0.6
		c1.1-0.2,1.2-0.9,1.2-1.8c0-5.7,0-11.5,0-17.2c0-2.6,0-2.6,2.5-2.6c5,0,9.9,0,14.9,0c0.7,0,1.1-0.1,1.5-0.8c0.6-1,2-1.4,3.2-1
		c1.1,0.4,1.9,1.6,1.8,2.8c-0.1,1.2-1,2.2-2,2.4c-1.5,0.3-2.7-0.2-3.2-1.4c-0.2-0.5-0.4-0.5-0.9-0.5c-5.2,0-10.4,0-15.6,0
		c-0.5,0-0.7,0.1-0.7,0.6c0,6.1,0,12.3,0,18.4c0,0.4,0.1,0.6,0.6,0.6c0.9,0,1.8,0.4,2.6,0.8c0.6,0.4,0.8,0.2,0.8-0.5
		c0-4.1,0-8.3,0-12.4c0-1.5,0.4-1.9,2-1.9c1.7,0,3.4,0,5.1,0c0.5,0,0.8-0.1,1.1-0.6c0.6-1.1,1.5-1.6,2.7-1.5
		c1.2,0.1,2.2,0.8,2.5,2.1c0.3,1.2,0,2.2-0.9,3.1c-1.4,1.2-3.5,0.8-4.4-0.9c-0.3-0.5-0.6-0.7-1.2-0.7c-1.5,0-3,0-4.5,0
		c-0.6,0-0.8,0.1-0.8,0.8c0,4.9,0,9.7,0,14.6c0,0.7,0.4,1.3,0.6,1.9c0.1,0.3,0.3,0.2,0.5,0.2c0.7-0.2,1.4-0.2,2-0.2
		c0.2,0,0.4-0.1,0.6-0.2c5.3-5.2,10.5-10.5,15.8-15.7c6.2-6.1,12.3-12.1,18.5-18.2c0.4-0.4,0.6-0.7,0.1-1.2
		c-4-5.5-5.7-11.6-4.9-18.4c1.1-9.6,6-16.5,14.4-21c4.1-2.2,8.6-3.1,13.3-2.9c10.8,0.6,19.9,7.3,23.6,17.3c1.3,3.4,1.9,6.8,1.7,10.4
		c-0.4,7.1-3.1,13.2-8.2,18.1c-4.2,4.1-9.3,6.5-15.2,7.2c-8,0.9-15-1.3-21.1-6.7c-0.6-0.5-0.8-0.5-1.3,0
		c-10.2,10.1-20.5,20.3-30.8,30.4c-0.5,0.5-1,1-1.5,1.5c-0.2,0.2-0.5,0.4-0.2,0.6c0.7,0.5,1.1,1.4,2.2,1.4c4,0,7.9,0,11.9,0
		c0.7,0,0.9-0.2,0.9-0.8c0-1.8,0-3.5,0-5.3c0-0.5-0.2-0.7-0.6-1c-1.1-0.6-1.5-1.9-1.2-3c0.4-1.2,1.4-2,2.6-1.9
		c1.2,0,2.2,0.7,2.5,1.9c0.3,1.2-0.1,2.5-1.2,3.1c-0.5,0.3-0.6,0.6-0.6,1.1c0,1.9,0,3.8,0,5.7c0,1.3-0.5,1.8-1.8,1.8
		c-3.6,0-7.2,0-10.8,0C151.8,111.5,151.5,111.5,151.1,111.5z M164.7,141.1c2,0,4,0.1,6,0c0.9,0,1.2,0.3,1.2,1.2c0,1,0,1.9,0,2.9
		c0,0.5,0.1,0.6,0.6,0.6c1.2,0,2.3,0,3.5,0c0.6,0,0.7-0.2,0.7-0.7c0-2,0-4.1,0-6.1c0-0.6-0.2-0.7-0.8-0.7c-3.4,0-6.9,0-10.3,0
		c-0.5-0.5-0.5,0-0.6,0.3c-0.2,0.8-0.1,1.7-0.7,2.3C164.2,141.1,164.2,141.1,164.7,141.1z M132,134.7c0,9,0,18,0,26.9
		c0,2.1,1,3.9,2.8,5.1c2.1,1.3,6.4-0.4,7.2-3.9c0.4-1.8-0.7-3.7-2.5-4.1c-1-0.2-1.5-0.9-1.4-1.6c0.2-0.8,1-1.2,2-1
		c2.4,0.7,4,2.2,4.5,4.8c0.1,0.5,0,1,0.1,1.4c0.2,0.8,2.7,2.2,3.6,2.1c2.2-0.3,3.8-1.5,4.5-3.7c0.3-0.8,0.4-1.7,0.2-2.5
		c-0.2-0.7-1-0.7-1.4-1.1c-0.5-0.4-1-0.9-0.6-1.7c0.3-0.7,1-0.9,1.7-0.7c0.1,0,0.2,0.1,0.3,0.1c2,0.5,3.9,0.2,5.4-1.4
		c1.8-1.8,2-4,1.6-6.2c-0.4-2-1.6-3.3-3.6-3.9c-1.2-0.3-2.5-0.4-3.7-0.1c-0.8,0.1-1.3-0.2-1.5-0.9c-0.2-0.7,0.1-1.4,0.9-1.5
		c2-0.3,4.1-0.5,6,0.4c1.3,0.6,3.1,0.1,3.8-1.3c0.8-1.6,1.1-3.3,0.6-5c-0.7-2.3-2.8-3.8-5.2-3.7c-0.8,0-1.7,0.1-2.5,0.2
		c-0.4,0-0.6,0.2-0.7,0.6c-0.6,2.5-2.4,3.8-4.8,4.2c-1,0.2-1.7-0.2-1.8-1c-0.1-0.8,0.4-1.5,1.4-1.7c0.6-0.1,1.2-0.2,1.7-0.7
		c1.2-1,1.2-2.3,0.8-3.7c-0.3-1.1-1.2-1.7-2.2-2c-0.4-0.1-0.9-0.1-1.3-0.1c-0.8,0-1.2-0.5-1.1-1.3c0.1-0.7,0.8-1.3,1.7-1.4
		c2.3-0.1,4.8,1.6,5.5,3.7c0.1,0.3,0.3,0.6,0.6,0.5c0.6-0.1,1.2-0.1,1.8-0.3c1.8-0.7,2.4-2.3,2.5-4c0.1-3.1-2.2-5.7-5.2-6.6
		c-1.1-0.3-2.1-0.2-3,0.8c-0.9,1.1-2.1,1.8-3.6,2c-0.9,0.1-1.6-0.3-1.8-1.1c-0.1-0.7,0.4-1.4,1.2-1.6c0.2,0,0.4-0.1,0.6-0.1
		c1.5-0.3,2.9-2.6,2.4-3.9c-0.5-1.3-1.3-2.4-2.4-3.1c-1.8-1.1-4.8-1.5-6.6,0.4c-0.5,0.5-1.1,0.7-1.7,0.3c-0.7-0.4-0.6-0.9-0.5-1.6
		c0.3-1.1,0.4-2.3-0.5-3.2c-1.1-1.2-2.5-1.8-4.2-1.6c-1.3,0.2-1.8,0.8-1.7,2.1c0,0.4,0,0.7,0,1.1C132,117.1,132,125.9,132,134.7z
		 M218.7,69.3c0.1-0.1,0.2-0.1,0.2-0.1c0.1-0.2,0.3-0.4,0.4-0.6c2.6-4.3,3.8-8.9,3.4-14c-0.3-4.5-1.8-8.5-4.6-12
		c-5.3-6.7-12.3-9.8-20.9-8.9C186,35,177.5,44.2,177.1,56c-0.1,3.1,0.5,6,1.7,8.9c0.8,1.9,1.8,3.7,3,5.3c0.3,0.4,0.5,0.5,0.6-0.1
		c0.1-0.5,0.3-1,0.5-1.5c1.9-4.8,5.1-8.3,9.8-10.4c0.8-0.4,0.7-0.6,0.2-1.2c-2.1-2.3-2.9-5.1-2.5-8.1c0.8-5.6,5.8-9.3,11.3-8.6
		c5.8,0.7,9.8,6.2,8.6,12c-0.4,1.9-1.3,3.5-2.6,5C213.2,59.8,216.8,63.8,218.7,69.3z M215.7,218.1c6.7-7.9,7.3-21.7-2.3-30.6
		c-9.4-8.7-23.8-7.7-32,1.4c-8.6,9.6-6.6,22.8-0.8,29.1c0-0.1,0.1-0.1,0.1-0.2c1.3-6,4.7-10.3,10.2-12.8c0.7-0.3,0.4-0.5,0.1-0.8
		c-2.6-2.6-3.6-5.7-3-9.3c0.7-4.3,4.4-7.6,9-8.2c4-0.5,8.4,2,10.1,5.7c1.8,4.1,1.1,8.3-2,11.5c-0.5,0.5-0.5,0.7,0.2,0.9
		c1.9,0.8,3.6,1.9,5.1,3.3C213.1,211,214.9,214.2,215.7,218.1z M200.2,79.3c1.2-0.1,2.7-0.2,4.1-0.5c4.7-0.9,8.7-3.1,12-6.5
		c0.3-0.3,0.6-0.7,0.4-1.2c-1.6-5.8-5.1-9.8-10.7-12c-0.3-0.1-0.6-0.1-0.9,0.1c-2.8,1.4-5.7,1.4-8.6,0.3c-0.3-0.1-0.6-0.2-0.9-0.1
		c-6.2,2.1-9.9,6.3-11.4,12.6c-0.1,0.6,0,0.9,0.4,1.2C189.1,77.2,194.3,79.1,200.2,79.3z M198.3,226.6c5.5-0.1,10.5-2,14.8-5.7
		c0.5-0.4,0.6-0.9,0.5-1.5c-1-6.3-4.5-10.6-10.5-12.8c-0.7-0.3-1.5-0.3-2.3-0.1c-1.6,0.5-3.3,0.5-4.9,0.2c-0.7-0.1-1.4-0.5-2.2-0.3
		c-5.6,1.6-10.4,7.2-10.9,13c-0.1,0.6-0.1,1.1,0.5,1.6C187.6,224.7,192.5,226.6,198.3,226.6z M197.8,204.7c2.4,0.1,4.3-0.9,5.9-2.6
		c1-1.1,1.6-2.3,1.8-3.7c0.1-0.8-0.8-1.2-1-1.9c0,0,0-0.1,0-0.1c-0.1-0.3-0.4-0.4-0.7-0.4c-3.5-0.1-6.5-1.3-9.2-3.4
		c-0.4-0.3-0.6-0.3-0.9,0c-0.8,0.8-1.8,1.3-2.8,1.8c-0.4,0.2-0.6,0.4-0.7,0.9C189.1,200,192.8,204.6,197.8,204.7z M200.7,58.4
		c2.7-0.2,5-1.3,6.5-3.6c0.2-0.4,0.3-0.6-0.1-0.9c-1.7-1.5-3-3.3-4-5.3c-0.2-0.5-0.4-0.5-0.9-0.3c-0.8,0.4-1.7,0.7-2.6,0.5
		c-0.4-0.1-0.7,0-0.9,0.3c-1.5,1.6-3.3,2.8-5.3,3.6c-0.5,0.2-0.5,0.5-0.3,0.9C194.8,56.8,197.3,58.3,200.7,58.4z M168.4,189.8
		c0-0.8-0.5-1.4-1.3-1.5c-0.9,0-1.5,0.5-1.5,1.4c0,0.8,0.6,1.4,1.4,1.4C167.8,191.2,168.4,190.6,168.4,189.8z M164.9,181
		c0.8,0,1.4-0.6,1.4-1.4c0-0.8-0.6-1.4-1.4-1.4c-0.8,0-1.5,0.7-1.4,1.5C163.5,180.4,164.1,181,164.9,181z M131.1,197.1
		c0,0.7,0.6,1.4,1.3,1.4c0.7,0,1.5-0.7,1.5-1.4c0-0.7-0.7-1.3-1.4-1.3C131.7,195.8,131.1,196.4,131.1,197.1z M149.3,88.1
		c-0.7,0-1.4,0.6-1.4,1.3c0,0.6,0.7,1.4,1.3,1.4c0.6,0,1.3-0.7,1.4-1.3C150.6,88.8,150,88.1,149.3,88.1z M154.4,81.1
		c-0.8,0-1.4,0.6-1.3,1.2c0.1,0.7,0.5,1.1,1.2,1.1c0.6,0,1.2-0.6,1.2-1.2C155.3,81.6,154.9,81.2,154.4,81.1z M182.7,109.2
		c0.6,0,1.2-0.5,1.2-1.1c0-0.7-0.5-1.1-1.1-1.2c-0.5-0.1-1.2,0.6-1.2,1.1C181.5,108.7,182.1,109.2,182.7,109.2z M188.4,113.3
		c-0.7,0-1.2,0.6-1.2,1.2c0,0.6,0.6,1.2,1.2,1.1c0.6,0,1.1-0.6,1.1-1.2C189.4,113.7,189,113.4,188.4,113.3z M185.7,162.5
		c0.7,0,1.3-0.5,1.2-1.1c-0.1-0.7-0.4-1-1.1-1c-0.7,0-1,0.4-1.1,1C184.7,162.1,185.1,162.5,185.7,162.5z M178.8,134
		c0.6-0.1,1.1-0.3,1.1-1.1c0-0.7-0.4-1.1-1-1.1c-0.7,0-1.1,0.4-1.1,1C177.7,133.5,178.1,133.9,178.8,134z M165.1,100.5
		c0-0.6-0.5-1-1-1c-0.6,0-1.1,0.4-1.1,1.1c0,0.7,0.4,1.1,1.1,1.1C164.6,101.7,165.1,101.3,165.1,100.5z M176.8,103.7
		c0.9,0,1.3-0.4,1.3-1c0-0.6-0.3-1-1-1c-0.7,0-1.1,0.4-1.1,1C176.1,103.3,176.5,103.7,176.8,103.7z M185.6,139.3
		c-0.5,0-0.8,0.5-0.8,1c0,0.6,0.4,0.9,1,0.9c0.6,0,1-0.5,1-1C186.9,139.7,186.5,139.3,185.6,139.3z M189.2,172c0.1,0.6,0.4,1,0.9,1
		c0.6,0,1-0.4,1-1c0-0.6-0.4-0.9-1-0.9C189.5,171.1,189.2,171.5,189.2,172z M180.9,164.5c-0.5,0-0.8,0.3-0.8,0.9
		c0,0.6,0.3,0.8,0.8,0.8c0.6,0,1-0.3,1-0.8C181.9,164.9,181.6,164.5,180.9,164.5z"/>
	<path class="st2" d="M118.2,103.9c1.2-0.6,2.3-1.2,3.6-1.2c0.5,0,0.3-0.4,0.4-0.7c0-1.4,0-2.7,0-4.1c0-4.7,0-9.4,0-14
		c0-0.7-0.2-0.9-0.9-0.9c-5,0-10,0-15,0c-0.6,0-0.9,0.1-1.2,0.7c-0.6,1.2-1.9,1.6-3.3,1.3c-1-0.2-1.9-1.4-1.9-2.5
		c-0.1-1.1,0.8-2.3,1.9-2.7c1.2-0.4,2.6,0,3.2,1.1c0.3,0.6,0.7,0.6,1.2,0.6c5.3,0,10.6,0,15.9,0c1.5,0,1.6,0,1.6,1.6
		c0,6.2,0,12.3,0,18.5c0,0.7,0.1,1.1,0.9,1.2c1.2,0.3,2.1,1.2,2.9,2.1c0.3,0.3,0.2,0.6,0.2,0.9c0,1.4,0,2.8,0,4.2
		c0,17.6,0,35.1,0,52.7c0,1.6-0.4,2.9-1.5,4.1c-1.2,1.3-2.4,2.5-4.1,3c-1.7,0.5-3.5,0.3-5.1-0.5c-0.6-0.3-0.8-0.2-0.8,0.5
		c0,8.6,0,17.1,0,25.7c0,0.5,0.1,0.8,0.7,0.7c1.4,0,2.7,0,4.1,0c0.5,0,0.6-0.3,0.9-0.6c0.6-1,1.5-1.6,2.7-1.5
		c1.2,0.1,2.2,0.7,2.6,1.8c0.6,1.5,0,3.1-1.5,3.9c-1.4,0.7-3.1,0.1-3.9-1.4c-0.3-0.6-0.6-0.7-1.2-0.7c-1.8,0-3.5,0-5.3,0
		c-0.6,0-0.8-0.2-0.8-0.8c0-9.3,0-18.7,0-28c0-0.8-0.1-1.5-0.8-2c-0.1-0.1-0.2-0.2-0.3-0.3c-0.7-1-0.7-0.8-1.8-0.4
		c-1.5,0.5-1.6,1.5-1.6,2.9c0.1,6.8,0,13.7,0,20.5c0,0.8-0.2,1.1-1.1,1.1c-5.2,0-10.4,0-15.6,0c-0.6,0-0.9,0-1.2,0.7
		c-0.5,1.1-2.1,1.7-3.3,1.3c-1.6-0.4-2.3-1.5-2.2-3.2c0-1.3,1-2.4,2.3-2.7c1.3-0.3,2.8,0.4,3.3,1.6c0.3,0.7,0.6,0.8,1.3,0.8
		c4.6,0,9.2,0,13.8,0c0.7,0,1-0.1,1-1c0-6.7,0-13.4,0-20.1c0-0.6-0.2-0.9-0.8-1c-0.8-0.2-1.5-0.4-2.3-0.8c-0.6-0.3-0.7-0.1-0.7,0.5
		c0,4.3,0,8.5,0,12.8c0,0.8-0.2,1.1-1,1c-2.7-0.1-5.4,0-8.1,0c-0.5,0-0.8,0.1-1.1,0.6c-0.7,1.3-2.2,1.8-3.6,1.3
		c-1.3-0.4-2-1.6-1.9-3.4c0.1-1.2,1.2-2.3,2.5-2.5c1.2-0.2,2.6,0.6,3.2,1.8c0.2,0.4,0.4,0.5,0.7,0.4c2.4,0,4.8,0,7.2,0
		c0.5,0,0.6-0.2,0.6-0.6c0-4.4,0-8.9,0-13.3c0-0.2,0-0.4-0.2-0.7c-0.9-1.2-1.4-2.6-1.8-3.9c-0.2-0.5,0-1-0.2-1.5
		c-0.4,0.1-0.7,0.5-0.9,0.8c-7.9,7.8-15.8,15.6-23.8,23.4c-0.8,0.8-0.8,0.8,0,1.5c4.4,4,7.3,8.9,8.3,14.7c1.7,9.8-1.2,18.1-8.6,24.7
		c-4.1,3.7-9,5.7-14.5,6.3c-13.2,1.4-25.4-7.3-28.4-20.3c-2.7-12,3.2-24.3,14.5-29.6c3.9-1.8,8-2.7,12.2-2.5
		c4.2,0.2,8.2,1.2,11.8,3.4c0.5,0.3,0.8,0.3,1.3-0.2c5.7-5.7,11.5-11.3,17.3-17c2.3-2.3,4.6-4.6,6.9-6.9c0.3-0.3,0.5-0.5,0-0.8
		c-1.7-0.9-2.5-2.5-2.8-4.3c-0.1-0.7-0.4-0.9-1.1-0.9c-5.2,0-10.5,0-15.7,0c-0.8,0-0.9,0.2-0.9,0.9c0,3.4,0,6.7,0,10.1
		c0,0.5,0,0.9,0.6,1.1c1,0.5,1.4,1.7,1.2,2.7c-0.3,1-1.3,1.8-2.3,1.9c-0.9,0-2-0.6-2.3-1.5c-0.4-1.1-0.2-2.3,0.8-3
		c0.5-0.3,0.6-0.6,0.6-1.2c0-3.5,0-7.1,0-10.6c0-1.5,0.6-2.1,2.2-2.1c5.2,0,10.4,0,15.7,0c0.8,0,1.1-0.1,1.2-1.1
		c0-1.5,0.6-2.9,1.4-4.2c0.3-0.5,0.4-0.8-0.3-1.1c-0.7-0.3-1.4-0.5-2.1-0.5c-1.8,0-3.6,0-5.5,0c-0.7,0-0.9,0.2-0.9,0.9
		c0.1,0.9,0,1.7,0,2.6c0,1-0.2,1.2-1.2,1.2c-4.1,0-8.3,0-12.4,0c-0.9,0-1.2,0.2-1.1,1.1c0.1,3.1,0,6.2,0,9.3c0,0.7,0.2,1.1,0.8,1.4
		c1,0.6,1.4,1.8,1.2,2.9c-0.3,1.1-1.2,1.9-2.4,2.1c-1,0.1-2.1-0.5-2.6-1.4c-0.7-1.2-0.3-2.8,0.9-3.5c0.5-0.3,0.6-0.6,0.6-1.2
		c0-4.8,0-9.6,0-14.4c0-0.5-0.1-0.8-0.6-1.1c-1.1-0.7-1.5-1.8-1.1-3c0.3-1,1.5-1.8,2.5-1.8c1.1,0,2.1,0.8,2.4,1.8
		c0.4,1.2-0.1,2.4-1.1,3c-0.6,0.3-0.6,0.7-0.6,1.2c0,2.1,0,2.1,2,2.1c1.3,0,2.6,0,3.9,0c0.8,0,0.9-0.3,0.9-1c0-2.1,0-4.2,0-6.4
		c0-1.2,0.5-1.7,1.7-1.7c3.4,0,6.8,0,10.2,0c0.7,0,1-0.2,1-0.9c0-0.4,0-0.9,0.2-1.3c0.3-0.7,0.1-1-0.7-0.9c-3.2,0-6.4,0-9.6,0
		c-0.5,0-0.8,0.1-1.1,0.6c-0.4,0.9-1.1,1.3-2.1,1.4c-1.1,0.1-2-0.3-2.5-1.3c-0.2-0.4-0.5-0.5-0.9-0.5c-2.2,0-4.4,0-6.5,0
		c-0.6,0-0.8,0.2-0.8,0.8c0,11.5,0,23,0,34.4c0,0.4,0.1,0.7,0.5,0.9c1,0.6,1.5,1.8,1.2,2.8c-0.4,1.3-1.2,1.9-2.6,1.9
		c-1.2,0-2-0.6-2.4-1.8c-0.4-1.2,0-2.3,1.2-3c0.6-0.3,0.5-0.7,0.5-1.1c0-11.5,0-23,0-34.5c0-2,0-2,2-2c2.3,0,4.6,0,6.9,0
		c0.4,0,0.7-0.1,0.9-0.5c0.9-1.8,3.4-1.9,4.6-0.2c0.3,0.4,0.5,0.5,1,0.5c3.6,0,7.2,0,10.8,0c0.3,0,0.6,0.1,0.8-0.2
		c0.6-0.8,1.5-1.4,2.5-2.2c-1,0-1.8,0-2.6,0c-7.8,0-15.6,0-23.4,0c-1.4,0-1.7-0.3-1.7-1.7c0-3.3,0-6.7,0-10c0-0.5-0.1-0.8-0.6-1.1
		c-1-0.5-1.6-1.8-1.4-2.8c0.3-1.4,1.3-2.2,2.6-2.3c1.2-0.1,2.3,0.7,2.7,1.9c0.4,1.1,0.1,2.5-1,3.1c-0.7,0.4-0.8,0.9-0.8,1.6
		c0,3,0,6,0,8.9c0,0.4,0,0.8,0.6,0.8c8.7,0,17.5,0,26.3,0c-0.4-1-0.8-1.9-1-2.9c-0.1-0.5-0.4-0.3-0.7-0.3c-1.4,0-2.9,0-4.3,0
		c-5.2,0-10.4,0-15.6,0c-1.2,0-1.3-0.1-1.3-1.3c0-3.9,0-7.9,0-11.8c0-0.6-0.1-1-0.7-1.3c-1-0.5-1.5-1.7-1.3-2.8
		c0.2-1.1,1-1.9,2.1-2.2c1.1-0.2,2.2,0.2,2.8,1.2c0.9,1.3,0.5,3-1,3.9c-0.4,0.3-0.6,0.5-0.6,1c0,3.7,0,7.3,0,11
		c0,0.6,0.1,0.8,0.7,0.8c6.3,0,12.6,0,18.9,0c0.5,0,0.7-0.1,0.8-0.7c0.1-0.7,0.3-1.4,0.5-2.1c0.3-0.7,0.1-0.8-0.6-0.8
		c-4.4,0-8.9,0-13.3,0c-0.4,0-0.8,0-1.3,0c-1.3,0-1.8-0.5-1.8-1.9c0-3.9,0-7.9,0-11.8c0-0.6-0.1-1-0.7-1.3c-1-0.6-1.4-2-0.9-3.1
		c0.5-1.1,1.7-1.8,2.8-1.6c1.4,0.3,2.1,1.2,2.1,2.6c0,1-0.3,1.8-1.2,2.2c-0.4,0.2-0.5,0.5-0.5,0.9c0,3.8,0,7.6,0,11.5
		c0,0.7,0.2,0.8,0.8,0.8c4.8,0,9.6,0,14.4,0c1,0,1.8-0.2,2.6-0.8c1.6-1.3,3.5-2.1,5.5-2.5c0.6-0.1,0.9-0.4,1-1
		c0.1-0.5,0.2-1.1,0.5-1.5c0.6-0.8,0.1-0.8-0.5-0.8c-3.6,0-7.3,0-10.9,0c-0.8,0-1.4-0.1-1.7-0.9c-0.1-0.3-0.1-0.5-0.1-0.8
		c0-1.9,0-3.9,0-5.8c0-0.5-0.1-0.9-0.7-1.2c-1.2-0.6-1.7-2-1.2-3.3c0.4-1.1,1.6-1.8,2.9-1.6c1.3,0.2,2.3,1.3,2.3,2.6
		c0,0.9-0.4,1.8-1.2,2.3c-0.4,0.3-0.6,0.6-0.6,1.1c0,1.8,0,3.6,0,5.5c0,0.5,0.2,0.6,0.7,0.6c4.1,0,8.1,0,12.2,0c1,0,1.4-0.9,2.1-1.4
		c0.2-0.2-0.2-0.4-0.4-0.6c-2.6-2.6-5.2-5.1-7.8-7.7C93.3,93.1,86.1,86,78.9,78.9c-1-1-2-1.9-3-2.9c-0.4-0.4-0.6-0.5-1-0.1
		c-4.2,3.8-9.1,6.1-14.7,6.8C49.7,84,39.7,79.2,34.1,70.2c-3-5-4.3-10.4-3.7-16.2c1.1-11.4,8.8-20.5,19.7-23.3
		c10.2-2.6,19.1,0.1,26.3,7.7c5.1,5.4,7.3,12,7,19.5c-0.3,5.3-2,10-5.1,14.2c-0.3,0.5-0.3,0.7,0.1,1.1c8,7.8,15.9,15.7,23.9,23.5
		c3.5,3.4,7,6.9,10.4,10.3c0.2,0.2,0.5,0.4,0.8,0.3c0.3,0,0.7,0,1,0c0.5,0,1,0.5,1.4,0.1c0.5-0.5,0.8-1.3,0.8-2c0.1-5,0-9.9,0-14.9
		c0-0.4-0.1-0.5-0.5-0.5c-1.7,0-3.5,0-5.2,0c-0.5,0-0.6,0.4-0.8,0.7c-1,1.7-3.4,2-4.7,0.5c-1.1-1.2-0.9-3.3,0.4-4.2
		c1.4-1,3.4-0.7,4.2,0.8c0.3,0.6,0.7,0.8,1.4,0.8c1.6,0,3.2,0,4.8,0c1.7,0,2,0.3,2,2c0,4.2,0,8.4,0,12.6
		C118.2,103.4,118.2,103.6,118.2,103.9z M125,113.9C125,113.9,125,113.9,125,113.9c0-2.4,0-4.8,0-7.2c0-0.6-0.2-1-0.7-1.2
		c-1.9-1-3.5-0.3-5,0.8c-0.9,0.7-1.2,2.2-0.7,3.6c0.2,0.6,0.1,1.2-0.4,1.5c-0.6,0.3-1.2,0.4-1.7-0.2c-0.3-0.3-0.6-0.5-0.9-0.7
		c-1.9-1.3-5.9-0.7-7.6,2.1c-1,1.7-1,2.5,0.2,4.1c0.5,0.8,1.3,1,2.2,1.2c0.9,0.2,1.4,0.8,1.2,1.6c-0.1,0.7-0.8,1.1-1.7,1
		c-1.5-0.1-2.7-0.9-3.7-2c-0.5-0.5-1-1-1.8-0.9c-3.9,0.3-7.2,4.3-6,8.2c0.5,1.8,2.2,3,4,2.9c0.4,0,0.5-0.3,0.6-0.6
		c0.4-1.1,1.1-2,2.1-2.6c1.2-0.8,2.5-1.4,4-0.9c0.7,0.2,1.3,0.7,1.2,1.6c-0.1,0.9-0.8,1-1.5,1c-1.4-0.1-2.4,0.6-2.9,1.8
		c-0.5,1.2-0.6,2.6,0.4,3.8c0.6,0.7,1.4,0.8,2.1,1c0.9,0.2,1.4,0.9,1.2,1.6c-0.2,0.7-0.8,1.1-1.7,1c-2.6-0.3-4.3-1.7-4.9-4.2
		c-0.1-0.4-0.3-0.6-0.7-0.6c-1-0.2-2.1-0.1-3.1-0.2c-1.5-0.1-2.6,0.8-3.5,1.8c-1.8,2-1.6,4.3-0.7,6.6c0.6,1.6,2.5,2.2,4,1.6
		c1.9-0.9,3.9-0.8,6-0.5c0.8,0.1,1.2,0.8,1.1,1.4c-0.2,0.8-0.8,1.2-1.6,1c-0.8-0.2-1.6-0.2-2.3-0.1c-2,0.2-3.7,0.9-4.6,2.9
		c-0.6,1.4-0.6,2.7-0.5,4.2c0.5,3.7,4.1,5.7,7.3,4.5c0.5-0.2,0.9-0.2,1.3,0.1c0.9,0.7,0.7,1.9-0.5,2.3c-0.9,0.4-1.4,1-1.3,1.9
		c0.1,1.6,0.6,3.1,1.9,4.2c1.1,0.9,2.4,1.4,3.8,0.9c0.7-0.3,1.4-0.7,2.1-1.2c0.4-0.3,0.6-0.7,0.6-1.3c0.1-2.6,2-5,4.5-5.6
		c1-0.2,1.8,0.1,2.1,0.9c0.2,0.8-0.3,1.4-1.4,1.7c-1.5,0.4-2.7,1.8-2.5,3.4c0.2,2.4,1.6,3.9,3.7,4.8c1.4,0.5,2.8,0.6,4-0.3
		c1.4-1.2,2.3-2.8,2.3-4.7c0-6.4-0.1-12.7,0-19.1c0.1-7.3-0.1-14.5,0.1-21.8C125,118.5,125,116.2,125,113.9z M74.6,70.8
		c7.2-8.8,7.1-22.4-2.2-31.1c-8.9-8.4-23.3-8.1-31.8,0.6c-8.9,9.1-7.8,22.1-2.4,29c0.1-0.3,0.2-0.6,0.4-0.9
		c1.9-4.9,5.2-8.5,9.9-10.7c0.6-0.3,0.5-0.4,0.1-0.9c-1.9-2.2-2.7-4.9-2.3-7.7c0.7-5.7,5.9-9.5,11.2-8.8c3.9,0.5,6.7,2.6,8.2,6.3
		c1.5,3.8,0.8,7.2-1.8,10.3c-0.7,0.8-0.7,0.8,0.2,1.2c2.8,1.2,5.1,3.1,7,5.4C72.8,65.7,73.8,68.1,74.6,70.8z M76.2,218.2
		c6.9-8.1,7.4-22.1-2.6-31.1c-9.6-8.6-24.8-7.2-32.7,3.2c-7.6,9.9-4.9,22.2,0.3,27.6c1.4-6.3,5.2-10.7,11.2-13.3
		c-0.2-0.2-0.3-0.4-0.5-0.5c-2.3-2.5-3.4-5.3-2.9-8.7c0.6-5.1,5.9-9.3,11-8.6c5.4,0.7,9.6,5.3,9,11c-0.3,2.6-1.3,4.8-3.2,6.5
		c-0.5,0.4-0.4,0.6,0.1,0.8c1.6,0.7,3,1.6,4.4,2.8C73.5,210.6,75.4,214,76.2,218.2z M57.1,79.2c2.6,0.2,5.5-0.6,8.2-1.6
		c2-0.7,3.8-2,5.6-3.2c1.3-0.9,1.9-1.8,1.3-3.4c-0.9-2.8-2.3-5.3-4.3-7.4c-1.5-1.5-3.4-2.8-5.5-3.5c-0.7-0.2-1.3-0.7-2.2-0.4
		c-2.9,1.1-5.8,1.1-8.5-0.3c-0.4-0.2-0.7-0.2-1.1,0c-3.7,1.5-6.6,4-8.6,7.3c-0.9,1.4-1.4,3.1-1.9,4.7c-0.1,0.4,0,0.6,0.2,0.9
		c1.3,1.4,2.8,2.6,4.5,3.6c1.4,0.9,2.9,1.6,4.5,2.2C51.8,78.7,54.2,79.2,57.1,79.2z M58.7,226.6c1.7,0,3.4-0.2,5.1-0.6
		c2-0.5,3.8-1.2,5.6-2.2c1.4-0.8,2.8-1.7,4-2.7c0.5-0.4,0.6-0.7,0.6-1.3c0-1.4-0.5-2.7-0.9-4.1c-0.9-2.5-2.5-4.5-4.4-6.2
		c-1.3-1.2-2.9-2-4.6-2.7c-0.8-0.4-1.7-0.4-2.5-0.2c-1.9,0.3-3.7,0.5-5.6,0c-0.8-0.2-1.5-0.2-2.3,0.1c-2.2,0.9-4.2,2-6,3.7
		c-2,2.1-3.5,4.4-4.1,7.2c-0.3,1.3-0.7,2.6,0.9,3.9C48.7,224.8,53.4,226.4,58.7,226.6z M58.9,204.7c5,0,8.7-4.4,7.7-9.3
		c-0.1-0.5-0.3-0.8-0.8-1c-1-0.4-1.8-1-2.6-1.6c-0.4-0.3-0.6-0.4-1,0c-2.2,1.8-4.8,3-7.6,3.2c-1.5,0.1-2.4,0.5-3.1,1.8
		c-0.2,0.3-0.3,0.6-0.2,1C52.1,202.2,55.2,204.6,58.9,204.7z M56.3,58.4c3.2-0.2,5.7-1.6,7.3-4.6c0.3-0.5,0.3-0.9-0.4-1.1
		c-2-0.8-3.7-2.1-5.2-3.6c-0.2-0.2-0.4-0.4-0.8-0.3c-1,0.2-1.9,0-2.7-0.5c-0.4-0.2-0.6-0.2-0.8,0.3c-0.9,1.9-2.1,3.7-3.7,5.1
		c-0.6,0.5-0.6,1-0.2,1.6C51.5,57.3,53.6,58.3,56.3,58.4z M85.9,138.2c-1.7,0-3.4,0-5.1,0c-0.4,0-0.7,0-0.7,0.6c0,2.1,0,4.2,0,6.3
		c0,0.4,0.1,0.6,0.6,0.6c1.3,0,2.5,0,3.8,0c0.5,0,0.6-0.1,0.6-0.6c0-1,0-1.9,0-2.9c0-1.1,0.1-1.2,1.2-1.2c1.8,0,3.6,0,5.4,0
		c0.6,0,0.9-0.1,0.5-0.7c-0.2-0.5-0.4-1-0.5-1.5c-0.1-0.5-0.3-0.7-0.8-0.7C89.3,138.2,87.6,138.2,85.9,138.2z M91.9,181
		c0.9,0,1.5-0.5,1.6-1.3c0-0.7-0.7-1.5-1.5-1.5c-0.7,0-1.4,0.7-1.5,1.4C90.5,180.3,91.1,180.9,91.9,181z M89.8,191.2
		c0.8,0,1.5-0.7,1.5-1.5c0-0.7-0.7-1.4-1.4-1.4c-0.7,0-1.5,0.6-1.5,1.3C88.3,190.4,89.1,191.1,89.8,191.2z M125.8,197.1
		c0-0.7-0.7-1.4-1.4-1.4c-0.7,0-1.4,0.6-1.4,1.3c0,0.7,0.6,1.4,1.3,1.4C125.1,198.6,125.8,197.9,125.8,197.1z M106.2,89.4
		c0,0.6,0.7,1.3,1.3,1.4c0.7,0,1.4-0.7,1.3-1.4c0-0.7-0.6-1.3-1.3-1.3C106.8,88.1,106.2,88.7,106.2,89.4z M102.4,83.4
		c0.8,0,1.4-0.5,1.4-1.1c0-0.6-0.6-1.2-1.2-1.2c-0.7,0-1.1,0.4-1.1,1.1C101.5,83,101.9,83.3,102.4,83.4z M69.6,114.4
		c0-0.6-0.4-1.1-1.1-1.1c-0.7,0-1.1,0.4-1.1,1.1c0,0.7,0.5,1.1,1.1,1.2C69,115.7,69.6,115.1,69.6,114.4z M75.3,108.3
		c0-0.7-0.6-1.3-1.1-1.3c-0.5,0-1.2,0.8-1.1,1.2c0.2,0.6,0.5,1.1,1.2,1C74.9,109.2,75.2,108.7,75.3,108.3z M71.2,162.6
		c0.5,0,1-0.4,1-1c0-0.6-0.3-1.1-1-1.1c-0.7-0.1-1.1,0.4-1.3,1C69.8,161.9,70.5,162.5,71.2,162.6z M79.1,133c0-0.7-0.3-1.1-1-1.2
		c-0.7,0-1.1,0.4-1.1,1c0,0.6,0.4,1.1,1,1.1C78.7,134,79,133.6,79.1,133z M93.9,100.6c0-0.8-0.5-1.2-1.1-1.2c-0.6,0-1.1,0.5-1.1,1.1
		c0,0.6,0.5,1.1,1.1,1.1C93.5,101.6,93.9,101.3,93.9,100.6z M79.8,101.7c-0.7,0-1,0.4-1,1c0,0.7,0.3,1,1,1c0.6,0,1-0.3,1-1
		C80.8,102.1,80.4,101.8,79.8,101.7z M66.6,171c-0.4,0.2-0.8,0.4-0.8,1c0,0.6,0.4,1,0.9,1c0.6,0,1-0.4,1-1
		C67.7,171.4,67.3,171.1,66.6,171z M70.1,140.3c0,0.7,0.4,1,1,1c0.6,0,1-0.4,1-1c0-0.6-0.3-1-1-1C70.4,139.3,70.1,139.7,70.1,140.3z
		 M75.6,164.5c-0.3,0.1-0.7,0.3-0.7,0.9c0,0.5,0.4,0.8,0.9,0.8c0.6,0,0.9-0.3,0.9-0.9C76.8,164.9,76.4,164.5,75.6,164.5z"/>
	<path class="st3" d="M132,134.7c0-8.8,0-17.5,0-26.3c0-0.4,0-0.7,0-1.1c-0.1-1.3,0.4-2,1.7-2.1c1.6-0.2,3.1,0.3,4.2,1.6
		c0.8,0.9,0.8,2.1,0.5,3.2c-0.2,0.7-0.2,1.3,0.5,1.6c0.6,0.3,1.1,0.2,1.7-0.3c1.8-1.8,4.9-1.5,6.6-0.4c1.2,0.7,1.9,1.8,2.4,3.1
		c0.5,1.3-0.9,3.5-2.4,3.9c-0.2,0-0.4,0.1-0.6,0.1c-0.9,0.2-1.4,0.9-1.2,1.6c0.2,0.8,0.9,1.2,1.8,1.1c1.5-0.2,2.7-0.9,3.6-2
		c0.8-1,1.8-1.1,3-0.8c3,0.8,5.3,3.5,5.2,6.6c-0.1,1.7-0.7,3.3-2.5,4c-0.6,0.2-1.2,0.1-1.8,0.3c-0.3,0.1-0.5-0.2-0.6-0.5
		c-0.7-2.2-3.3-3.9-5.5-3.7c-0.9,0-1.7,0.6-1.7,1.4c-0.1,0.8,0.3,1.2,1.1,1.3c0.4,0,0.9-0.1,1.3,0.1c1,0.4,1.9,0.9,2.2,2
		c0.3,1.3,0.4,2.7-0.8,3.7c-0.5,0.4-1.1,0.5-1.7,0.7c-1,0.2-1.5,0.8-1.4,1.7c0.1,0.8,0.8,1.2,1.8,1c2.5-0.4,4.2-1.7,4.8-4.2
		c0.1-0.4,0.3-0.6,0.7-0.6c0.8-0.1,1.7-0.1,2.5-0.2c2.4-0.1,4.6,1.4,5.2,3.7c0.5,1.7,0.2,3.4-0.6,5c-0.7,1.3-2.5,1.9-3.8,1.3
		c-2-1-4-0.7-6-0.4c-0.8,0.1-1.1,0.8-0.9,1.5c0.2,0.8,0.7,1.1,1.5,0.9c1.2-0.2,2.5-0.2,3.7,0.1c2,0.6,3.3,1.9,3.6,3.9
		c0.4,2.3,0.2,4.5-1.6,6.2c-1.5,1.5-3.4,1.9-5.4,1.4c-0.1,0-0.2-0.1-0.3-0.1c-0.8-0.3-1.4-0.1-1.7,0.7c-0.3,0.7,0.1,1.3,0.6,1.7
		c0.5,0.4,1.2,0.4,1.4,1.1c0.3,0.9,0.1,1.7-0.2,2.5c-0.7,2.2-2.2,3.4-4.5,3.7c-0.8,0.1-3.3-1.4-3.6-2.1c-0.1-0.4,0-0.9-0.1-1.4
		c-0.6-2.5-2.1-4.1-4.5-4.8c-1-0.3-1.8,0.2-2,1c-0.2,0.8,0.3,1.4,1.4,1.6c1.8,0.4,2.9,2.3,2.5,4.1c-0.8,3.5-5.1,5.2-7.2,3.9
		c-1.8-1.1-2.8-2.9-2.8-5.1C131.9,152.6,132,143.6,132,134.7z"/>
	<path class="st4" d="M218.7,69.3c-1.9-5.5-5.5-9.5-10.9-11.9c1.3-1.5,2.2-3.1,2.6-5c1.2-5.8-2.8-11.3-8.6-12
		c-5.5-0.7-10.4,3-11.3,8.6c-0.5,3,0.4,5.8,2.5,8.1c0.5,0.6,0.6,0.8-0.2,1.2c-4.7,2.1-8,5.6-9.8,10.4c-0.2,0.5-0.4,1-0.5,1.5
		c-0.1,0.6-0.3,0.5-0.6,0.1c-1.3-1.6-2.3-3.4-3-5.3c-1.2-2.8-1.8-5.8-1.7-8.9c0.4-11.8,8.9-21,20.2-22.3c8.5-1,15.6,2.1,20.9,8.9
		c2.8,3.5,4.2,7.5,4.6,12c0.4,5.1-0.8,9.7-3.4,14c-0.1,0.2-0.3,0.4-0.4,0.6C218.9,69.2,218.8,69.2,218.7,69.3z"/>
	<path class="st4" d="M215.7,218.1c-0.8-3.9-2.6-7.1-5.4-9.7c-1.5-1.4-3.2-2.6-5.1-3.3c-0.7-0.3-0.6-0.5-0.2-0.9
		c3.1-3.3,3.8-7.5,2-11.5c-1.7-3.7-6.1-6.2-10.1-5.7c-4.6,0.6-8.3,3.9-9,8.2c-0.6,3.6,0.4,6.7,3,9.3c0.4,0.3,0.6,0.5-0.1,0.8
		c-5.6,2.6-8.9,6.9-10.2,12.8c0,0.1-0.1,0.1-0.1,0.2c-5.8-6.4-7.9-19.5,0.8-29.1c8.1-9.1,22.5-10.2,32-1.4
		C223,196.4,222.4,210.1,215.7,218.1z"/>
	<path class="st5" d="M200.2,79.3c-6-0.2-11.1-2.1-15.5-5.9c-0.4-0.4-0.5-0.7-0.4-1.2c1.4-6.3,5.2-10.6,11.4-12.6
		c0.3-0.1,0.6,0,0.9,0.1c2.9,1.1,5.8,1.1,8.6-0.3c0.3-0.2,0.6-0.2,0.9-0.1c5.6,2.2,9.1,6.2,10.7,12c0.1,0.5-0.1,0.8-0.4,1.2
		c-3.4,3.4-7.3,5.5-12,6.5C202.9,79.1,201.5,79.2,200.2,79.3z"/>
	<path class="st6" d="M198.3,226.6c-5.8-0.1-10.7-1.9-15-5.5c-0.6-0.5-0.5-1-0.5-1.6c0.5-5.8,5.3-11.4,10.9-13
		c0.8-0.2,1.5,0.2,2.2,0.3c1.7,0.3,3.3,0.3,4.9-0.2c0.8-0.3,1.5-0.2,2.3,0.1c6,2.2,9.5,6.5,10.5,12.8c0.1,0.6,0,1.1-0.5,1.5
		C208.8,224.6,203.8,226.6,198.3,226.6z"/>
	<path class="st7" d="M197.8,204.7c-5,0-8.7-4.6-7.6-9.4c0.1-0.4,0.3-0.7,0.7-0.9c1-0.5,2-1,2.8-1.8c0.3-0.3,0.5-0.2,0.9,0
		c2.7,2,5.7,3.3,9.2,3.4c0.3,0,0.6,0.1,0.7,0.4c0,0,0,0.1,0,0.1c0.2,0.7,1.2,1.1,1,1.9c-0.2,1.4-0.8,2.7-1.8,3.7
		C202.2,203.8,200.2,204.7,197.8,204.7z"/>
	<path class="st7" d="M200.7,58.4c-3.4-0.2-6-1.6-7.5-4.8c-0.2-0.5-0.2-0.7,0.3-0.9c2-0.8,3.8-2,5.3-3.6c0.3-0.3,0.5-0.4,0.9-0.3
		c0.9,0.2,1.8-0.1,2.6-0.5c0.4-0.2,0.6-0.2,0.9,0.3c0.9,2.1,2.2,3.9,4,5.3c0.4,0.3,0.4,0.5,0.1,0.9
		C205.7,57.1,203.5,58.3,200.7,58.4z"/>
	<path class="st8" d="M168.4,189.8c0,0.8-0.7,1.4-1.4,1.4c-0.8,0-1.4-0.7-1.4-1.4c0-0.9,0.6-1.4,1.5-1.4
		C167.9,188.4,168.5,189,168.4,189.8z"/>
	<path class="st8" d="M164.9,181c-0.8,0-1.4-0.5-1.4-1.3c0-0.8,0.6-1.5,1.4-1.5c0.8,0,1.4,0.7,1.4,1.4
		C166.3,180.4,165.8,181,164.9,181z"/>
	<path class="st8" d="M131.1,197.1c0-0.8,0.6-1.3,1.4-1.3c0.8,0,1.4,0.6,1.4,1.3c0,0.7-0.8,1.4-1.5,1.4
		C131.7,198.5,131.1,197.8,131.1,197.1z"/>
	<path class="st8" d="M149.3,88.1c0.7,0,1.3,0.6,1.3,1.3c0,0.7-0.7,1.3-1.4,1.3c-0.6,0-1.3-0.8-1.3-1.4
		C148,88.8,148.7,88.1,149.3,88.1z"/>
	<path class="st8" d="M154.4,81.1c0.5,0,0.9,0.5,1,1.1c0.1,0.6-0.5,1.2-1.2,1.2c-0.7,0-1.1-0.4-1.2-1.1
		C153,81.7,153.6,81.1,154.4,81.1z"/>
	<path class="st8" d="M182.7,109.2c-0.6,0-1.1-0.6-1.1-1.1c0-0.5,0.7-1.2,1.2-1.1c0.6,0.1,1.1,0.5,1.1,1.2
		C183.9,108.7,183.3,109.2,182.7,109.2z"/>
	<path class="st8" d="M188.4,113.3c0.6,0,1,0.4,1.1,1.1c0.1,0.6-0.5,1.2-1.1,1.2c-0.6,0-1.2-0.5-1.2-1.1
		C187.2,113.9,187.7,113.3,188.4,113.3z"/>
	<path class="st8" d="M185.7,162.5c-0.6-0.1-0.9-0.4-0.9-1.1c0-0.7,0.4-1.1,1.1-1c0.7,0,1,0.4,1.1,1
		C187,162,186.4,162.5,185.7,162.5z"/>
	<path class="st8" d="M178.8,134c-0.7-0.1-1.1-0.5-1.1-1.1c0-0.7,0.4-1.1,1.1-1c0.7,0,1,0.4,1,1.1
		C179.9,133.6,179.4,133.9,178.8,134z"/>
	<path class="st8" d="M165.1,100.5c0,0.8-0.5,1.1-1.1,1.1c-0.6,0-1.1-0.4-1.1-1.1c0-0.7,0.5-1.1,1.1-1.1
		C164.6,99.5,165.1,99.9,165.1,100.5z"/>
	<path class="st8" d="M176.8,103.7c-0.3,0-0.8-0.4-0.8-1c0-0.6,0.4-1,1.1-1c0.6,0,1,0.4,1,1C178.1,103.3,177.8,103.7,176.8,103.7z"
		/>
	<path class="st8" d="M185.6,139.3c0.8,0,1.2,0.4,1.2,1c0,0.6-0.4,1-1,1c-0.6,0-1-0.4-1-0.9C184.9,139.8,185.2,139.3,185.6,139.3z"
		/>
	<path class="st8" d="M189.2,172c0-0.6,0.3-0.9,0.9-0.9c0.6,0,1,0.4,1,0.9c0,0.6-0.4,1-1,1C189.6,173.1,189.3,172.6,189.2,172z"/>
	<path class="st8" d="M180.9,164.5c0.7,0,1,0.4,1,0.9c0,0.6-0.4,0.8-1,0.8c-0.5,0-0.8-0.3-0.8-0.8
		C180.2,164.8,180.5,164.5,180.9,164.5z"/>
	<path class="st2" d="M165.6,138.2c-0.1,1-0.4,2-0.9,2.8c-0.5,0-0.5,0-0.4-0.2c0.6-0.7,0.5-1.6,0.7-2.3
		C165.1,138.3,165.1,137.7,165.6,138.2z"/>
	<path class="st9" d="M125,113.9c0,2.3,0.1,4.6,0,6.9c-0.2,7.3-0.1,14.5-0.1,21.8c-0.1,6.4,0,12.7,0,19.1c0,2-0.9,3.5-2.3,4.7
		c-1.1,1-2.6,0.9-4,0.3c-2.2-0.9-3.5-2.4-3.7-4.8c-0.1-1.5,1-3,2.5-3.4c1.1-0.3,1.6-0.9,1.4-1.7c-0.2-0.8-1.1-1.1-2.1-0.9
		c-2.5,0.6-4.5,3-4.5,5.6c0,0.6-0.2,0.9-0.6,1.3c-0.6,0.5-1.3,1-2.1,1.2c-1.4,0.5-2.7-0.1-3.8-0.9c-1.3-1-1.8-2.6-1.9-4.2
		c-0.1-0.9,0.4-1.5,1.3-1.9c1.2-0.5,1.3-1.6,0.5-2.3c-0.4-0.4-0.9-0.3-1.3-0.1c-3.2,1.2-6.9-0.9-7.3-4.5c-0.2-1.5-0.1-2.8,0.5-4.2
		c0.9-2,2.6-2.7,4.6-2.9c0.8-0.1,1.5-0.1,2.3,0.1c0.8,0.2,1.4-0.3,1.6-1c0.1-0.6-0.3-1.3-1.1-1.4c-2-0.3-4-0.4-6,0.5
		c-1.5,0.7-3.4,0-4-1.6c-0.8-2.3-1.1-4.6,0.7-6.6c0.9-1,2-1.9,3.5-1.8c1,0.1,2.1,0,3.1,0.2c0.4,0.1,0.6,0.2,0.7,0.6
		c0.7,2.5,2.4,3.9,4.9,4.2c0.9,0.1,1.6-0.3,1.7-1c0.1-0.7-0.4-1.3-1.2-1.6c-0.8-0.2-1.5-0.3-2.1-1c-1-1.2-1-2.5-0.4-3.8
		c0.5-1.2,1.6-1.9,2.9-1.8c0.8,0.1,1.4-0.1,1.5-1c0.1-0.9-0.5-1.3-1.2-1.6c-1.5-0.5-2.8,0.2-4,0.9c-1,0.6-1.7,1.5-2.1,2.6
		c-0.1,0.3-0.2,0.5-0.6,0.6c-1.8,0.2-3.5-1.1-4-2.9c-1.2-3.9,2.1-7.9,6-8.2c0.8-0.1,1.3,0.4,1.8,0.9c1,1.1,2.2,1.8,3.7,2
		c0.9,0.1,1.6-0.2,1.7-1c0.2-0.8-0.3-1.5-1.2-1.6c-0.9-0.2-1.6-0.4-2.2-1.2c-1.1-1.6-1.1-2.4-0.2-4.1c1.6-2.8,5.6-3.4,7.6-2.1
		c0.3,0.2,0.6,0.4,0.9,0.7c0.5,0.6,1.1,0.5,1.7,0.2c0.6-0.3,0.6-0.9,0.4-1.5c-0.5-1.4-0.2-3,0.7-3.6c1.5-1.2,3.1-1.8,5-0.8
		c0.5,0.3,0.7,0.6,0.7,1.2C125,109.1,125,111.5,125,113.9C125,113.9,125,113.9,125,113.9z"/>
	<path class="st4" d="M74.6,70.8c-0.7-2.7-1.8-5.1-3.5-7.2c-1.9-2.4-4.2-4.2-7-5.4c-0.9-0.4-0.9-0.4-0.2-1.2
		c2.5-3.1,3.3-6.6,1.8-10.3c-1.5-3.7-4.3-5.8-8.2-6.3c-5.3-0.7-10.5,3.1-11.2,8.8c-0.3,2.9,0.4,5.5,2.3,7.7c0.3,0.4,0.5,0.6-0.1,0.9
		c-4.8,2.2-8,5.8-9.9,10.7c-0.1,0.3-0.2,0.6-0.4,0.9c-5.4-7-6.4-19.9,2.4-29c8.5-8.7,22.9-9,31.8-0.6C81.7,48.4,81.8,62,74.6,70.8z"
		/>
	<path class="st4" d="M76.2,218.2c-0.8-4.2-2.7-7.6-5.9-10.3c-1.3-1.1-2.8-2.1-4.4-2.8c-0.6-0.2-0.6-0.4-0.1-0.8
		c1.9-1.7,2.9-3.9,3.2-6.5c0.6-5.7-3.6-10.3-9-11c-5.1-0.7-10.4,3.6-11,8.6c-0.4,3.4,0.6,6.3,2.9,8.7c0.1,0.1,0.3,0.3,0.5,0.5
		c-6,2.5-9.7,7-11.2,13.3c-5.1-5.4-7.9-17.7-0.3-27.6c7.9-10.3,23.2-11.8,32.7-3.2C83.7,196.2,83.1,210.1,76.2,218.2z"/>
	<path class="st10" d="M57.1,79.2c-2.9,0-5.4-0.4-7.8-1.3c-1.6-0.6-3.1-1.3-4.5-2.2c-1.6-1-3.2-2.2-4.5-3.6
		c-0.2-0.3-0.4-0.5-0.2-0.9c0.5-1.6,1-3.3,1.9-4.7c2.1-3.4,5-5.8,8.6-7.3c0.4-0.2,0.7-0.2,1.1,0c2.8,1.4,5.7,1.4,8.5,0.3
		c0.9-0.3,1.5,0.2,2.2,0.4c2.1,0.7,3.9,2,5.5,3.5c2.1,2.1,3.4,4.6,4.3,7.4c0.6,1.7-0.1,2.6-1.3,3.4c-1.8,1.2-3.5,2.5-5.6,3.2
		C62.6,78.6,59.8,79.4,57.1,79.2z"/>
	<path class="st11" d="M58.7,226.6c-5.2-0.3-9.9-1.8-14.1-5.1c-1.6-1.2-1.2-2.5-0.9-3.9c0.7-2.8,2.1-5.2,4.1-7.2
		c1.7-1.7,3.7-2.9,6-3.7c0.8-0.3,1.6-0.3,2.3-0.1c1.9,0.6,3.7,0.4,5.6,0c0.9-0.1,1.7-0.1,2.5,0.2c1.6,0.7,3.3,1.5,4.6,2.7
		c1.9,1.7,3.5,3.7,4.4,6.2c0.5,1.3,0.9,2.6,0.9,4.1c0,0.6-0.2,0.9-0.6,1.3c-1.2,1.1-2.6,2-4,2.7c-1.8,1-3.6,1.7-5.6,2.2
		C62.1,226.5,60.4,226.6,58.7,226.6z"/>
	<path class="st7" d="M58.9,204.7c-3.7,0-6.8-2.5-7.6-6c-0.1-0.4,0-0.6,0.2-1c0.7-1.3,1.6-1.7,3.1-1.8c2.8-0.2,5.4-1.4,7.6-3.2
		c0.4-0.3,0.7-0.3,1,0c0.8,0.7,1.7,1.3,2.6,1.6c0.5,0.2,0.7,0.5,0.8,1C67.6,200.2,64,204.7,58.9,204.7z"/>
	<path class="st7" d="M56.3,58.4c-2.7-0.1-4.8-1.2-6.4-3.2c-0.5-0.6-0.5-1,0.2-1.6c1.7-1.4,2.8-3.1,3.7-5.1c0.2-0.5,0.4-0.5,0.8-0.3
		c0.8,0.5,1.8,0.7,2.7,0.5c0.4-0.1,0.5,0.1,0.8,0.3c1.5,1.5,3.2,2.8,5.2,3.6c0.7,0.3,0.6,0.6,0.4,1.1C62,56.8,59.5,58.3,56.3,58.4z"
		/>
	<path class="st8" d="M91.9,181c-0.8,0-1.4-0.7-1.4-1.4c0-0.7,0.7-1.4,1.5-1.4c0.8,0,1.5,0.8,1.5,1.5C93.4,180.4,92.7,181,91.9,181z
		"/>
	<path class="st8" d="M89.8,191.2c-0.8,0-1.5-0.8-1.5-1.5c0-0.7,0.8-1.3,1.5-1.3c0.8,0,1.4,0.6,1.4,1.4
		C91.3,190.4,90.6,191.2,89.8,191.2z"/>
	<path class="st8" d="M125.8,197.1c0,0.8-0.7,1.4-1.5,1.4c-0.7,0-1.3-0.7-1.3-1.4c0-0.7,0.7-1.3,1.4-1.3
		C125.2,195.8,125.8,196.4,125.8,197.1z"/>
	<path class="st8" d="M106.2,89.4c0-0.7,0.6-1.3,1.3-1.3c0.7,0,1.3,0.6,1.3,1.3c0,0.7-0.7,1.4-1.3,1.4
		C106.9,90.7,106.2,90,106.2,89.4z"/>
	<path class="st8" d="M102.4,83.4c-0.5-0.1-0.9-0.5-0.9-1.2c0-0.7,0.4-1.1,1.1-1.1c0.6,0,1.2,0.6,1.2,1.2
		C103.8,83,103.2,83.5,102.4,83.4z"/>
	<path class="st8" d="M69.6,114.4c0,0.7-0.6,1.3-1.1,1.2c-0.6-0.1-1.1-0.5-1.1-1.2c0-0.7,0.4-1.1,1.1-1.1
		C69.3,113.4,69.6,113.8,69.6,114.4z"/>
	<path class="st8" d="M75.3,108.3c0,0.5-0.3,0.9-1,1c-0.7,0.1-1.1-0.4-1.2-1c-0.1-0.4,0.6-1.2,1.1-1.2
		C74.6,106.9,75.2,107.5,75.3,108.3z"/>
	<path class="st8" d="M71.2,162.6c-0.7,0-1.4-0.7-1.3-1.2c0.1-0.6,0.5-1.1,1.3-1c0.7,0.1,1,0.5,1,1.1
		C72.1,162.1,71.7,162.5,71.2,162.6z"/>
	<path class="st8" d="M79.1,133c-0.1,0.6-0.4,1-1.1,1c-0.7,0-1.1-0.4-1-1.1c0-0.6,0.5-1.1,1.1-1C78.8,131.8,79.1,132.3,79.1,133z"/>
	<path class="st8" d="M93.9,100.6c0,0.6-0.4,1-1,1c-0.6,0-1.1-0.4-1.1-1.1c0-0.6,0.5-1.1,1.1-1.1C93.4,99.5,93.9,99.9,93.9,100.6z"
		/>
	<path class="st8" d="M79.8,101.7c0.6,0.1,1,0.4,1,1c0,0.6-0.4,1-1,1c-0.7,0-1-0.3-1-1C78.8,102.1,79.1,101.7,79.8,101.7z"/>
	<path class="st8" d="M66.6,171c0.7,0.1,1.1,0.4,1.1,1c0,0.6-0.4,1.1-1,1c-0.5,0-0.9-0.4-0.9-1C65.8,171.4,66.2,171.2,66.6,171z"/>
	<path class="st8" d="M70.1,140.3c0-0.6,0.3-1,1-1c0.7,0,1,0.4,1,1c0,0.6-0.4,0.9-1,1C70.4,141.3,70.1,140.9,70.1,140.3z"/>
	<path class="st8" d="M75.6,164.5c0.8,0,1.1,0.4,1.1,0.9c0,0.5-0.4,0.9-0.9,0.9c-0.5,0-0.9-0.3-0.9-0.8
		C74.9,164.8,75.3,164.6,75.6,164.5z"/>
</g>
</svg>
