<?xml version="1.0" encoding="utf-8"?>
<!-- Generator: Adobe Illustrator 23.0.0, SVG Export Plug-In . SVG Version: 6.00 Build 0)  -->
<svg version="1.1" xmlns="http://www.w3.org/2000/svg" xmlns:xlink="http://www.w3.org/1999/xlink" x="0px" y="0px"
	 viewBox="0 0 256 256" style="enable-background:new 0 0 256 256;" xml:space="preserve">
<style type="text/css">
	.st0{display:none;}
	.st1{display:inline;}
	.st2{fill:#D1C2E2;}
	.st3{fill:#9C44AC;}
	.st4{fill:#B996E3;}
	.st5{fill:#B8434F;}
	.st6{fill:#AFE185;}
	.st7{fill:#EC9BCE;}
	.st8{fill:#A041AB;}
	.st9{fill:#EDA0CB;}
	.st10{fill:#9F3FAD;}
	.st11{fill:#E473E6;}
	.st12{fill:#4B2C6B;}
	.st13{fill:#4C2C67;}
</style>
<g id="Layer_2" class="st0">
	<g class="st1">
		<path class="st2" d="M60,0h136c33.1,0,60,26.9,60,60v136c0,33.1-26.9,60-60,60H60c-33.1,0-60-26.9-60-60V60C0,26.9,26.9,0,60,0z"
			/>
	</g>
</g>
<g id="Layer_1">
	<g>
		<g>
			<g>
				<path class="st3" d="M107.6,122.2c1.2,0,2.4,0,3.6,0c2.3,0,4.5,0,6.8,0c1,0,1.7,0.3,2.2,1.3c0.6,1.4,1.7,2.5,2.9,3.4
					c0.2,0.2,0.4,0.4,0.6,0.1c0.2,0.1,0.3,0.2,0.5,0.3c0,0.2,0.1,0.3,0.3,0.4c1.3,0.7,2.5,1.2,4,1.2c1.7,0,2.7,0.6,2.6,2.7
					c0,1.1,0,2.2,0,3.4c0,1.3,0,2.6,0,3.9c0,0.4,0,0.7,0.4,0.9c-0.7,1.1-0.4,2.3-0.2,3.5c-0.3,1.5-0.3,3.1,0,4.6
					c-0.3,1.1-0.3,2.3,0,3.4c-0.2,0.3-0.2,0.6-0.2,0.9c0,1.1,0,2.3,0,3.4c0,1.2,0,2.3,0,3.5c0,1.6,0,3.2,0,4.8
					c0.1,1.2,0,2.3-0.7,3.3c-0.5,1.2-1.1,2.3-1.8,3.4c-0.5,0.6-1,1.2-1.4,1.9c-0.3,0.5-1,0.8-1,1.6c-0.4,0.1-0.6,0.3-0.9,0.6
					c-1.2,1.6-2.8,2.7-4.3,4c-2.1,1.7-4.5,2.9-6.8,4.3c-1,0.7-2.1,1.2-3,2.1c-0.5,0-0.9,0.3-1.3,0.6c-0.7,0.5-1.5,0.7-2.4,0.7
					c-2.2-1.4-4.4-2.8-6.7-4.1c-2.9-1.7-5.8-3.5-8.3-5.9c-1.8-1.8-3.3-3.7-4.8-5.8c-0.5-0.7-0.6-1.7-1.5-2.2c0.1-0.4,0-0.8-0.2-1.2
					c-0.5-0.9-0.7-1.8-0.6-2.8c0-1.8,0-3.5,0-5.3c0-0.9,0-1.8,0-2.7c0-3.2,0-6.4,0-9.6c0.1-0.9,0.2-1.8,0-2.7c0-0.3,0-0.6,0-0.9
					c0-3.9,0-7.8,0-11.8c0-1.3,0.5-1.9,1.8-2.2c0.7-0.2,1.5,0,2.2-0.2c3.1-1,5.5-2.8,6.9-5.8c0.2-0.4,0.6-0.7,1-0.8
					c0.8-0.2,1.7-0.1,2.5-0.2c0.9,0.2,1.9,0,2.8,0C104.5,122.2,106,122.2,107.6,122.2z M128.3,131.8c-0.4,0-0.8-0.1-1.2-0.1
					c-3.8-0.7-6.8-2.8-8.8-6c-0.3-0.4-0.6-0.6-1.1-0.6c-5.9,0-11.8,0-17.8,0c-0.5,0-0.9,0.2-1.2,0.6c-2.1,3.3-5.1,5.4-9,6
					c-0.7,0.1-1,0.4-1,1.1c0,10.6,0,21.1,0,31.7c0,0.3,0,0.7,0.2,1c1.6,4,4.2,7.2,7.4,10c3.7,3.1,8,5.2,12,7.8
					c0.4,0.2,0.6,0.1,0.9-0.1c2.6-1.6,5.2-3.2,7.9-4.8c1.8-1,3.4-2.3,4.9-3.7c2.9-2.6,5.1-5.8,6.7-9.4c0.5-0.3,0.2-0.7,0.3-1.1
					c0-10.2,0-20.4,0-30.6c0-0.5-0.1-0.9,0.2-1.4C128.9,132,128.7,131.8,128.3,131.8z"/>
				<path class="st4" d="M123.7,127c-0.2,0.3-0.4,0.1-0.6-0.1c-1.1-1-2.2-2.1-2.9-3.4c-0.5-1-1.2-1.3-2.2-1.3c-2.3,0-4.5,0-6.8,0
					c0-5.8,0-11.5,0-17.3c0-1.2,0-1.2,1.1-1.2c22.6,0,45.2,0,67.8,0c0.3,0,0.7,0,1-0.1c1.3-0.3,1.7-1.5,0.8-2.5
					c-2.4-2.5-3.1-5.5-2.5-8.8c0.5-2.7,2-4.9,4.5-6.4c0,9.7,0,19.4,0,29.1c0.1,0,0.1,0.1,0.2,0.1c2-2.8,3.5-6,5.4-9
					c1.8,3.1,3.4,6.2,5.5,9.2c0.2-0.7,0.2-1.1,0.2-1.6c0-3.6,0-7.1,0-10.7c0-5.6,0-11.2,0-16.8c2.6,1.9,4,4.5,4,7.8
					c0,28.7,0,57.4,0,86.2c0,0.3,0,0.5,0,0.8c0,1.5,0,1.5-1.4,1.5c-22.5,0-45,0-67.5,0c-0.3,0-0.5,0-0.8,0.1
					c-1.4,0.3-1.8,1.5-0.9,2.5c1.8,1.9,2.7,4.2,2.6,6.8c0,4.3-2.6,7.9-6.7,9.4c-4.7,1.8-10.2-0.5-12.4-5c-0.6-1.3-1-2.6-1-4
					c0.1-2.4,0-4.8,0-7.2c0.9-0.8,2-1.4,3-2.1c2.2-1.4,4.7-2.6,6.8-4.3c1.5-1.2,3.1-2.4,4.3-4c0.2-0.3,0.5-0.5,0.9-0.6
					c8.6,0,17.2,0,25.8,0c0.8,0,1.9,0.4,2.4-0.2c0.5-0.5,0.1-1.6,0.2-2.4c0.1-0.7-0.2-0.8-0.8-0.8c-2.9,0-5.7,0-8.6,0
					c-5.6,0-11.1,0-16.7,0c0.7-1.1,1.3-2.2,1.8-3.4c17.3,0,34.6,0,51.9,0c0.4,0,0.7,0,1.1-0.1c0.8-0.2,1.4-0.9,1.3-1.7
					c0-0.8-0.6-1.4-1.4-1.5c-0.3,0-0.5,0-0.8,0c-17.1,0-34.2,0-51.4,0c0-1.6,0-3.2,0-4.8c2,0,2,0,2-1.5c0-2,0-2-2-2
					c0-1.1,0-2.3,0-3.4c0-0.3,0-0.7,0.2-0.9c17.3,0,34.6,0,51.9,0c0.2,0,0.4,0,0.5,0c0.8-0.1,1.5-0.7,1.5-1.5
					c0.1-0.9-0.3-1.5-1.2-1.8c-0.4-0.1-0.9-0.1-1.3-0.1c-16.4,0-32.9,0-49.3,0c-0.7,0-1.4,0-2.2,0c-0.3-1.5-0.3-3.1,0-4.6
					c5.3,0,10.6,0,15.9,0c2.4,0,2.3,0,2.4-2.4c0-0.9-0.3-1.1-1.1-1.1c-5.7,0-11.4,0-17,0c-0.3-0.2-0.4-0.6-0.4-0.9
					c0-1.3,0-2.6,0-3.9c16.7,0,33.4,0,50.1,0c0.8,0,1.5,0,2.3,0c1.1,0,1.8-0.7,1.8-1.6c0-1-0.7-1.6-1.8-1.7c-0.8,0-1.5,0-2.3,0
					c-16.7,0-33.4,0-50.1,0c0-2.1-0.9-2.6-2.6-2.7c-1.4,0-2.7-0.6-4-1.2c-0.2-0.1-0.3-0.2-0.3-0.4c0.3,0.1,0.6,0.2,1,0.2
					c5.1,0,10.2,0,15.3,0c0.5,0,0.7-0.1,0.6-0.6c0-0.6,0-1.3,0-1.9c0.1-0.8-0.2-1-1-1c-4.9,0-9.8,0-14.8,0
					C123.5,124.2,122.8,125.4,123.7,127z M154.2,120.2c9.4,0,18.8,0,28.3,0c0.2,0,0.5,0,0.7,0c0.8-0.1,1.5-0.7,1.5-1.5
					c0.1-0.8-0.5-1.6-1.3-1.8c-0.3-0.1-0.7-0.1-1.1-0.1c-18.8,0-37.6,0-56.4,0c-0.3,0-0.5,0-0.8,0c-0.9,0.2-1.4,0.9-1.4,1.8
					c0.1,0.8,0.7,1.4,1.5,1.5c0.3,0,0.5,0,0.8,0C135.5,120.2,144.8,120.2,154.2,120.2z M140.1,109.7c-4.4,0-8.9,0-13.3,0
					c-0.3,0-0.6,0-0.8,0c-0.8,0.2-1.4,0.6-1.5,1.5c-0.1,0.8,0.4,1.6,1.2,1.8c0.3,0.1,0.7,0.1,1.1,0.1c8.9,0,17.8,0,26.6,0
					c0.3,0,0.5,0,0.8,0c1.1-0.2,1.9-1.3,1.4-2.4c-0.4-0.8-1.1-1.1-1.9-1.1C149.2,109.7,144.6,109.7,140.1,109.7z M170.7,124.1
					L170.7,124.1c-3.6,0-7.2,0-10.8,0c-0.8,0-1.9-0.4-2.4,0.2s-0.1,1.6-0.2,2.4c-0.1,0.6,0.1,0.8,0.8,0.8c8.2,0,16.5,0,24.7,0
					c1.3,0,2.1-0.7,2.1-1.7c0-1.1-0.7-1.7-2.1-1.7C178.7,124.1,174.7,124.1,170.7,124.1z M136.5,180.7c4,0,8,0,12,0
					c1.4,0,2.2-0.9,1.9-2.1c-0.2-0.8-1-1.3-2.1-1.3c-2.4,0-4.7,0-7.1,0c-5.5,0-10.9,0-16.4,0c-1.4,0-2.2,0.7-2.1,1.8
					c0,1.1,0.8,1.6,2.1,1.6C128.7,180.7,132.6,180.7,136.5,180.7z M170.7,170.7c-3.4,0-6.8,0-10.2,0c-0.8,0-1.8-0.3-2.3,0.2
					s-0.1,1.5-0.2,2.3c-0.1,0.8,0.3,1,1,1c7.7,0,15.3,0,23,0c0.5,0,1,0,1.4-0.3c1-0.5,1.2-1.8,0.4-2.6c-0.4-0.5-1-0.5-1.6-0.5
					C178.4,170.7,174.6,170.7,170.7,170.7z M174.1,155.7L174.1,155.7c-3,0-6,0-9,0c-0.6,0-0.9,0.1-0.8,0.8c0.1,0.6,0,1.3,0,1.9
					c0,0.6,0.1,0.8,0.7,0.8c6,0,11.9,0,17.9,0c1.2,0,2-0.7,2-1.8s-0.8-1.7-2-1.7C179.9,155.7,177,155.7,174.1,155.7z M161.2,143.4
					c2.5,0,4.9,0,7.4,0c0.6,0,0.9-0.1,0.8-0.8c-0.1-0.7,0-1.3,0-2c0-0.5-0.1-0.7-0.7-0.7c-5.1,0-10.1,0-15.2,0
					c-0.5,0-0.7,0.1-0.6,0.6c0,0.7,0,1.3,0,2c-0.1,0.7,0.2,0.9,0.9,0.9C156.3,143.4,158.8,143.4,161.2,143.4z M178.4,139.9
					c-1,0-1.9,0-2.9,0c-2.8,0-2.8,0-2.7,2.7c0,0.5,0.1,0.7,0.7,0.7c3.1,0,6.3,0,9.4,0c1.2,0,1.9-0.7,1.9-1.7s-0.7-1.7-1.9-1.7
					C181.5,139.9,179.9,139.9,178.4,139.9z M147.8,159.2c1.6,0,3.3,0,4.9,0c0.6,0,0.9-0.1,0.8-0.8c0-0.6,0-1.3,0-1.9
					c0-0.7-0.2-0.8-0.8-0.8c-2.7,0-5.3,0-8,0s-2.7,0-2.6,2.8c0,0.6,0.2,0.7,0.7,0.7C144.5,159.1,146.2,159.2,147.8,159.2z
					 M149.2,127.6c1.3,0,2.7,0,4,0c0.5,0,0.8-0.1,0.7-0.7c0-0.7,0-1.4,0-2.1c0-0.6-0.2-0.7-0.7-0.7c-2.7,0-5.3,0-8,0
					c-0.5,0-0.8,0.1-0.7,0.7c0,0.7,0,1.4,0,2.1c0,0.6,0.2,0.7,0.7,0.7C146.5,127.6,147.9,127.6,149.2,127.6z M158.9,155.7
					c-0.2,0-0.5,0-0.7,0c-1.4,0-1.2-0.1-1.3,1.3c0,2.2,0,2.2,2.3,2.2c1.6,0,1.6,0,1.6-1.6C160.8,155.7,160.8,155.7,158.9,155.7z
					 M136.4,157.3c0,0.3,0,0.7,0,1c-0.1,0.6,0.1,0.9,0.8,0.8c2-0.1,1.6,0.2,1.7-1.7c0-0.4,0-0.8,0-1.3c0-0.4-0.1-0.5-0.5-0.6
					C136.4,155.5,136.4,155.5,136.4,157.3z"/>
				<path class="st4" d="M100.1,122.2c-0.8,0.1-1.7,0-2.5,0.2c-0.5,0.1-0.8,0.3-1,0.8c-1.4,3-3.8,4.8-6.9,5.8
					c-0.7,0.2-1.5,0.1-2.2,0.2c-1.3,0.3-1.8,0.9-1.8,2.2c0,3.9,0,7.8,0,11.8c0,0.3,0,0.6,0,0.9c-0.5,0.1-0.9,0.2-1.4,0.4
					c-3.9,1.3-7.8,2.5-11.7,3.8c-5.9,1.9-11.9,3.9-17.8,5.8c-0.9,0.3-1.3,0.9-1.1,1.7c0.3,0.8,1,1.1,1.9,0.8
					c5-1.6,10.1-3.3,15.1-4.9c5-1.6,10-3.2,15-4.8c0,3.2,0,6.4,0,9.6c-1,0.3-1.9,0.5-2.9,0.8c-6.3,2-12.7,4.1-19,6.2
					c-1.9,0.6-3.7,1.2-5.6,1.8c-0.8,0.3-1.1,0.9-0.9,1.6c0.2,0.8,0.8,1,1.5,0.9c0.4-0.1,0.8-0.2,1.2-0.3c1.9-0.6,3.7-1.2,5.6-1.8
					c4.9-1.6,9.8-3.2,14.7-4.8c1.8-0.6,3.5-1.3,5.3-1.7c0,1.8,0,3.5,0,5.3c0,1,0.1,1.9,0.6,2.8c0.2,0.4,0.4,0.8,0.2,1.2
					c-0.2,0.1-0.5,0.1-0.7,0.2c-7.9,2.6-15.9,5.1-23.8,7.7c-0.9,0.3-1.4,1-1.1,1.8c0.3,0.8,1,1.1,2,0.7c8.4-2.7,16.7-5.5,25.1-8.2
					c1.4,2.1,3,4,4.8,5.8c2.4,2.4,5.3,4.2,8.3,5.9c2.2,1.3,4.4,2.7,6.7,4.1c0.2,2.7,0.2,2.7-2.3,3.6c-7.5,2.4-14.9,4.9-22.4,7.3
					c-7.8,2.5-15.7,5.1-23.5,7.6c-0.7,0.2-1,0.1-1.2-0.6c-3.4-10.4-6.7-20.8-10.1-31.1c-2.4-7.3-4.7-14.6-7.1-21.9
					c-0.3-0.9,0.2-1,0.7-1.2c3.8-1.2,7.6-2.5,11.4-3.7c2.2-0.7,4.4-1.4,6.6-2.2c1.2-0.4,1.6-1.2,1.2-2.4c-1.9-6-3.9-11.9-5.8-17.9
					c-0.2-0.7-0.1-0.9,0.5-1.1c6.1-1.9,12.1-3.9,18.2-5.9c5-1.6,10.1-3.3,15.1-4.9c2.1-0.7,4.3-1.4,6.4-2.1c0.6-0.2,0.8,0,1,0.5
					C97.5,114.3,98.8,118.2,100.1,122.2z"/>
				<path class="st4" d="M215.7,48.4c2,1.4,3,3.4,3.6,5.7c0.2,0.6,0.2,1.3,0.2,2c0,23.8,0,47.5,0,71.3c0,8.5,0,16.9,0.1,25.4
					c0.1,4.3-3.6,9.3-9.4,9.6c-2.5,0.1-4.6-0.6-6.6-2.1c-0.6-0.4-0.8-0.9-0.8-1.6c0-4.1,0-8.2,0-12.2c0-7.4,0-14.8,0-22.3
					c0-0.7,0-1.1,0.9-1.1c1,0,1.6-0.8,1.6-1.6c0-0.9-0.5-1.7-1.6-1.8c-1,0-0.9-0.5-0.9-1.2c0-3.3,0-6.5,0-9.8c0-0.7,0.1-1.2,1-1.2
					s1.5-0.9,1.5-1.7c0-0.9-0.5-1.5-1.5-1.6c-0.8-0.1-1-0.5-1-1.2c0-3.5,0-6.9,0-10.4c0-0.5,0.2-0.6,0.6-0.6
					c1.2-0.1,1.9-0.8,1.9-1.9c-0.1-1-0.9-1.7-2-1.6c-1.2,0.1-1.8-0.4-2.5-1.4c-2.1-3.3-5.2-5.1-9-5.9c-1.6-0.3-3.2-0.3-4.8-0.3
					c-5.9,0-11.7,0-17.6,0c-11.9,0-23.8,0-35.7,0.1c-0.9,0-1.2-0.2-1.2-1.2c0-4.6,0-9.1,0-13.7c0-0.6,0.2-0.8,0.7-0.7
					c0.2,0,0.5,0,0.7,0c22.2,0,44.3,0,66.5,0c0.7,0,1.5,0.1,2-0.7c0.4-0.7,0.3-1.3-0.2-1.8c-3.2-3.3-3.6-8.8-0.6-12.7
					c0.7-0.9,1.6-1.7,2.6-2.4c0.5,0.4,0.3,0.9,0.3,1.4c-0.1,5.7,0.1,11.3-0.1,17c-0.1,3.3,0,6.6,0,10c0,0.3-0.1,0.5,0.2,0.8
					c0.7-0.6,1.1-1.4,1.5-2.2c1.2-2,2.3-4.1,3.5-6.1c0.3-0.5,0.5-0.7,0.9,0c0.9,1.6,1.8,3.2,2.8,4.8c0.7,1.2,1.2,2.5,2.4,3.7
					c0-1.3,0-2.5,0-3.6C215.7,65.1,215.7,56.7,215.7,48.4z"/>
				<path class="st4" d="M130.1,201.9c0.9-1,1.6-1.8,2.2-2.8c2.4-3.7,2.7-7.7,1.3-11.9c-0.3-1-0.4-1,0.6-1c21.3-0.2,42.6-0.1,64-0.1
					c3.2,0,6.5-0.1,9.7-0.1c0.8,0,1.2,0.3,1.5,1.1c1.9,5.1-0.1,11.3-5.3,13.7c-1.6,0.7-3.3,1-5,1c-0.8,0-1.6-0.1-2.4-0.1
					c-17.1,0-34.2,0-51.4,0c-4.7,0-9.4,0.1-14,0.1C131,201.9,130.6,201.9,130.1,201.9z"/>
				<path class="st4" d="M180.2,84.4c-0.8,0.9-1.4,1.7-2,2.5c-2.5,3.8-2.9,7.8-1.4,12c0.4,1.1,0.4,1.1-0.7,1.1c-21.5,0-43,0-64.6,0
					c-3,0-6,0-9,0c-0.9,0-1.3-0.3-1.6-1.1c-1.5-4.4-0.5-9,2.9-12c2-1.8,4.4-2.6,7.1-2.6c19.2,0,38.5,0,57.7,0
					C172.5,84.4,176.3,84.4,180.2,84.4z"/>
				<path class="st4" d="M200.7,46.3c-0.7,0.9-1.3,1.6-1.9,2.3c-2.6,3.7-3.1,7.8-1.6,12c0.4,1,0.4,1-0.7,1c-22.1,0-44.2,0-66.3,0
					c-2.2,0-4.3,0-6.5,0c-0.5,0-0.8-0.1-1-0.6c-1.4-3.9-1.1-7.6,1.4-10.9c2.1-2.8,5.1-4,8.6-3.9c0.5,0,0.9,0.1,1.4,0.1
					c17.6,0,35.3,0,52.9,0c4.2,0,8.5,0,12.7-0.1C200,46.3,200.2,46.3,200.7,46.3z"/>
				<path class="st4" d="M43.7,137.4c-1.6,3.1-3.2,6.1-4.9,9.2c-0.4,0.7-0.8,1.5-1.2,2.2c-0.2,0.4-0.1,0.8,0,1.2
					c1.5,4.5,2.9,9.1,4.4,13.6c2.3,7.2,4.7,14.4,7,21.6c1,3,1.9,6,2.9,8.9c0.2,0.6,0.2,0.9-0.5,1.1c-2.4,0.7-4.7,1.5-7,2.3
					c-0.6,0.2-0.8,0-1-0.6c-2.2-6.8-4.4-13.7-6.6-20.5c-2.4-7.3-4.8-14.7-7.2-22c-1.2-3.6-2.3-7.2-3.5-10.8
					c-0.2-0.5-0.2-0.7,0.4-0.9c5.7-1.8,11.3-3.7,17-5.5C43.6,137.3,43.7,137.3,43.7,137.4z"/>
				<path class="st4" d="M45.7,133.2c-0.6-2-1.3-3.9-1.9-5.9c-1.2-3.6-2.3-7.1-3.5-10.7c-0.2-0.7-0.2-1.1,0.7-1.3
					c9.5-3,18.9-6.1,28.4-9.2c3.6-1.2,7.3-2.4,10.9-3.6c0.7-0.2,1-0.1,1.3,0.6c0.6,2.2,1.4,4.4,2.1,6.5c0.2,0.7,0.1,1-0.6,1.2
					c-7.1,2.3-14.2,4.6-21.4,6.9c-2.8,0.9-5.6,1.9-8.4,2.8c-0.7,0.2-1.1,0.8-1.5,1.4c-1.8,3.4-3.6,6.9-5.4,10.3
					C46.2,132.7,46.1,133,45.7,133.2z"/>
				<path class="st5" d="M195.2,86.3c0,5.6,0,11.2,0,16.8c0,3.6,0,7.1,0,10.7c0,0.4,0.1,0.9-0.2,1.6c-2-3-3.6-6.1-5.5-9.2
					c-1.9,3-3.4,6.1-5.4,9c-0.1,0-0.1-0.1-0.2-0.1c0-9.7,0-19.4,0-29.1c0.7-0.9,1.8-1.1,2.7-1.4c0.7-0.2,1.6-0.4,2.4-0.4
					c1.9,0,3.7,0.5,5.3,1.5C194.6,85.8,195.2,85.8,195.2,86.3z"/>
				<path class="st5" d="M215.7,48.4c0,8.4,0,16.7,0,25.1c0,1.1,0,2.3,0,3.6c-1.1-1.2-1.6-2.5-2.4-3.7c-1-1.6-1.9-3.2-2.8-4.8
					c-0.4-0.7-0.6-0.5-0.9,0c-1.1,2-2.3,4.1-3.5,6.1c-0.4,0.8-0.8,1.6-1.5,2.2c-0.3-0.3-0.2-0.6-0.2-0.8c0-3.3-0.1-6.6,0-10
					c0.2-5.7,0-11.3,0.1-17c0-0.5,0.2-1-0.3-1.4c2.8-2.4,8.2-2.2,10.7-0.4C215.4,47.5,215.7,47.8,215.7,48.4z"/>
				<g>
					<path class="st6" d="M38.1,118.5c0.7,2.2,1.4,4.2,2,6.2c1,3,1.9,6,2.9,8.9c0.2,0.7,0.1,0.9-0.6,1.1c-4.9,1.6-9.9,3.2-14.8,4.8
						c-0.2,0.1-0.3,0.1-0.8,0.2C30.7,132.6,34.3,125.7,38.1,118.5z"/>
					<path class="st6" d="M53,126.2c0.7,2.2,1.4,4.3,2.1,6.5c0.9,2.8,1.8,5.7,2.8,8.5c0.1,0.4,0.2,0.6-0.3,0.7
						c-5.2,1.7-10.4,3.4-15.6,5c0,0-0.1,0-0.2-0.1c3.7-6.9,7.3-13.8,10.9-20.7C52.8,126.2,52.9,126.2,53,126.2z"/>
				</g>
				<path class="st7" d="M128.3,165.3c-1.6,3.6-3.7,6.7-6.7,9.4c-1.5,1.4-3.1,2.6-4.9,3.7c-2.6,1.6-5.3,3.2-7.9,4.8
					c-0.3,0.2-0.5,0.4-0.9,0.1c-4-2.6-8.4-4.7-12-7.8c-3.2-2.7-5.8-6-7.4-10c-0.1-0.3-0.2-0.6-0.2-1c0-10.6,0-21.1,0-31.7
					c0-0.8,0.3-1,1-1.1c4-0.6,6.9-2.7,9-6c0.3-0.5,0.6-0.6,1.2-0.6c5.9,0,11.8,0,17.8,0c0.5,0,0.8,0.2,1.1,0.6c2.1,3.3,5,5.3,8.8,6
					c0.4,0.1,0.8,0.1,1.2,0.1c0,0.3,0,0.5,0,0.8c0,10.5,0,20.9,0,31.4C128.3,164.4,128.3,164.9,128.3,165.3z M126.5,149.6
					L126.5,149.6c0-5.1,0-10.1,0-15.2c0-0.8-0.3-1.3-1.1-1.5c-3-0.9-5.5-2.6-7.4-5.2c-0.4-0.5-0.8-0.8-1.4-0.8c-5.6,0-11.1,0-16.7,0
					c-0.6,0-1,0.2-1.3,0.6c-1.8,2.6-4.3,4.3-7.3,5.3c-1.2,0.4-1.4,0.7-1.4,1.9c0,9.4,0,18.7,0,28.1c0,1.8,0.3,3.3,1.2,4.8
					c1.8,3.4,4.3,6.2,7.4,8.4c2.6,1.8,5.4,3.3,8.1,5c1.2,0.8,2.3,0.8,3.5,0c1.9-1.2,3.7-2.4,5.7-3.5c3.6-2,6.5-4.7,8.7-8.1
					c1.3-1.9,2.2-3.8,2.1-6.3C126.4,158.6,126.5,154.1,126.5,149.6z"/>
				<path class="st8" d="M128.3,165.3c0-0.4,0.1-0.8,0.1-1.3c0-10.5,0-20.9,0-31.4c0-0.3,0-0.5,0-0.8c0.4-0.1,0.6,0.1,0.4,0.4
					c-0.3,0.5-0.2,0.9-0.2,1.4c0,10.2,0,20.4,0,30.6C128.5,164.6,128.7,165,128.3,165.3z"/>
				<path class="st9" d="M93,135.2c2.8-1.1,5.2-2.8,7.2-5.1c0.4-0.4,0.7-0.5,1.3-0.5c4.6,0,9.2,0,13.8,0c0.4,0,0.7-0.1,1,0.2
					c1.3,1.5,2.8,2.7,4.4,3.9c0,0.2,0,0.4,0.2,0.6c0.6,0.3,1.2,0.8,1.9,0.8c0.9,0.1,0.8,0.5,0.8,1.1c0,4.6,0,9.2,0,13.8
					c0,5,0,10.1,0,15.1c0,0.2,0,0.5-0.2,0.7c-1.5,3.1-3.7,5.6-6.4,7.6c-2.3,1.7-4.9,2.9-7.2,4.5c-1.1,0.8-1.9,0.6-2.9-0.1
					c-2.3-1.6-4.8-2.8-7.1-4.5c-2.8-2.1-5-4.7-6.6-7.8c-0.3-0.6-0.5-1.3-0.5-1.9c0-4.5,0-9.1,0-13.6c0-0.1,0-0.2,0-0.4
					c0.5-0.2,0.3-0.6,0.3-0.9C93,144.2,93,139.7,93,135.2z M121.6,152c0.1-1,0-2.1-0.4-3.1s-0.7-2.1-1.2-3.1c-0.9-1.5-2-3-3.5-4
					c-1.4-1-2.9-1.7-4.5-2.2c-1.9-0.5-3.8-0.6-5.7-0.4c-2.1,0.2-4,1-5.5,2.1c-2.2,1.6-4,3.7-5,6.4c-0.9,2.8-1,5.5-0.3,8.2
					c0.6,2.3,1.7,4.3,3.5,5.9c0.7,0.6,1.4,1.2,2.2,1.8c0.8,0.5,1.7,0.6,2.4,1.1c0.7,0.4,1.4,0.6,2.2,0.7c2.1,0.3,4.2,0.2,6.3-0.3
					c0.7-0.2,1.2-0.8,1.9-0.8c1,0.1,1.7-0.6,2.3-1.1c1.9-1.7,3.4-3.6,4.4-6C121.3,155.5,121.7,153.9,121.6,152z"/>
				<path class="st7" d="M123.5,165.2c0-5,0-10.1,0-15.1c0-4.6,0-9.2,0-13.8c0-0.6,0.1-1.1-0.8-1.1c-0.6,0-1.2-0.5-1.9-0.8
					c-0.2-0.1-0.2-0.3-0.2-0.6c1,0.4,1.8,1.1,2.9,1.3c0.3,0.1,0.4,0.4,0.4,0.6c0,0.5,0,1.1,0,1.6c0,8.7,0,17.3,0,26
					C123.8,164,124.1,164.7,123.5,165.2z"/>
				<path class="st7" d="M93,135.2c0,4.5,0,9,0,13.5c0,0.3,0.2,0.7-0.3,0.9c0-2.4,0-4.8-0.1-7.2c0-2.2,0-4.3,0-6.5
					C92.7,135.7,92.5,135.3,93,135.2z"/>
				<path class="st10" d="M118.9,152.2c0.2,5.9-4.8,10.7-10.6,10.7c-6,0-10.8-4.7-10.7-10.8c0-5.9,4.6-10.5,10.7-10.5
					C114.2,141.6,119.1,146.3,118.9,152.2z M108.3,157.9c1.1,0.2,2.1-0.4,3.1-1c0.7-0.5,0.9-1.2,0.5-1.8s-1.1-0.8-1.8-0.5
					c-0.5,0.2-0.9,0.5-1.4,0.6c-1.8,0.5-3.9-1.4-3.5-3.2c0.4-2.4,2.7-3.3,4.8-2c0.9,0.5,1.5,0.5,2-0.2c0.4-0.6,0.3-1.4-0.5-2
					c-1.4-1.1-3-1.3-4.6-1c-2.8,0.6-4.7,3.3-4.3,6.3C103,155.8,105.4,158.1,108.3,157.9z"/>
				<path class="st11" d="M108.3,157.9c-2.9,0.2-5.3-2-5.7-4.7c-0.4-2.9,1.4-5.7,4.3-6.3c1.6-0.3,3.2-0.1,4.6,1
					c0.7,0.6,0.9,1.4,0.5,2c-0.5,0.7-1.1,0.7-2,0.2c-2.1-1.3-4.3-0.4-4.8,2c-0.3,1.8,1.7,3.7,3.5,3.2c0.5-0.1,0.9-0.4,1.4-0.6
					c0.8-0.3,1.4-0.2,1.8,0.5c0.4,0.6,0.2,1.3-0.5,1.8C110.4,157.5,109.4,158.1,108.3,157.9z"/>
				<g>
					<g>
						<path class="st12" d="M107.6,122.2c0-5.9,0-11.7,0-17.6c0-0.7-0.2-0.9-0.9-0.9c-1.9,0.1-3.9,0-5.8,0c-1.1,0-1.8-0.4-2.3-1.4
							c-4.9-8.6,0.4-19.9,10.2-21.5c1-0.2,1.9,0,2.9,0c5.4,0,10.9,0,16.3,0c0.9,0,1.2-0.3,1.1-1.2c-0.1-4.3,0-8.7,0-13
							c0-1.3,0-1.3-1.3-1.3c-2,0-3.9-0.1-5.9-0.1c-0.9,0-1.4-0.5-1.7-1.2c-2.3-4.4-2.5-8.8-0.4-13.3c2-4.3,5.5-6.9,10.1-7.9
							c0.8-0.2,1.7-0.1,2.5-0.1c17.5,0,35.1,0,52.6,0c8.4,0,16.8-0.3,25.2,0.1c7.3,0.3,12.9,5.7,12.9,12.8c0,25.3,0,50.6,0,75.8
							c0,7.2,0,14.4,0,21.6c0,5.6-4,10.7-9.5,12.2c-2.3,0.6-4.7,0.7-7.1,0.6c-1,0-1.9,0-2.9,0c-0.7,0-0.9,0.2-0.9,0.9
							c0,4.2,0,8.4,0,12.6c0,0.9,0,1.7,0,2.6c0,0.6,0.3,0.8,0.8,0.7c2.1-0.1,4.3,0.2,6.4,0.1c0.9,0,1.4,0.5,1.8,1.2
							c2.8,4.8,2.4,11.4-1,15.9c-2.3,3-5.2,4.8-8.9,5.6c-1.1,0.2-2.2,0.1-3.3,0.1c-19.4,0-38.8,0-58.3,0c-6.4,0-12.9,0.1-19.3,0
							c-4-0.1-7.5-1.5-10.3-4.6c-2.1-2.3-3.2-5-3.3-8.1c0-0.6-0.1-0.7-0.8-0.5c-7.9,2.6-15.8,5.1-23.7,7.7c-8,2.6-16,5.2-24,7.8
							c-2.4,0.8-2.4,0.8-3.2-1.6c-0.8-2.6-1.7-5.2-2.5-7.7c-0.2-0.6-0.4-0.7-1-0.5c-3,1-6.1,2-9.1,3c-0.9,0.3-1.5,0-1.8-1.1
							c-1.3-3.9-2.5-7.7-3.8-11.6c-3.4-10.6-6.9-21.2-10.3-31.8c-1.5-4.5-2.9-9.1-4.4-13.6c-0.2-0.6-0.2-1.1,0.1-1.6
							c3.1-5.8,6.2-11.7,9.2-17.5c1.6-3,3.2-6.1,4.8-9.1c0.3-0.6,0.8-1,1.5-1.2c10.7-3.5,21.3-6.9,32-10.4c3.6-1.2,7.1-2.3,10.7-3.5
							c1.2-0.4,1.8-0.1,2.3,1.2c0.9,2.8,1.9,5.7,2.8,8.5c0.2,0.6,0.4,0.7,1,0.5c2.8-1,5.7-1.9,8.5-2.8c1.5-0.5,2-0.2,2.5,1.3
							c1.5,4.4,2.9,8.8,4.3,13.2c0.1,0.3,0.2,0.6,0.2,0.9c-0.9,0-1.9,0.2-2.8,0c-1.3-3.9-2.6-7.9-3.8-11.8c-0.2-0.6-0.4-0.7-1-0.5
							c-2.1,0.7-4.2,1.4-6.4,2.1c-5,1.6-10.1,3.3-15.1,4.9c-6.1,2-12.1,3.9-18.2,5.9c-0.6,0.2-0.8,0.4-0.5,1.1
							c2,6,3.9,11.9,5.8,17.9c0.4,1.2,0,2-1.2,2.4c-2.2,0.7-4.4,1.4-6.6,2.2c-3.8,1.2-7.6,2.5-11.4,3.7c-0.6,0.2-1,0.3-0.7,1.2
							c2.4,7.3,4.8,14.6,7.1,21.9c3.4,10.4,6.8,20.8,10.1,31.1c0.2,0.7,0.5,0.9,1.2,0.6c7.8-2.6,15.6-5.1,23.5-7.6
							c7.5-2.4,14.9-4.8,22.4-7.3c2.5-0.8,2.5-0.9,2.3-3.6c0.9,0,1.7-0.2,2.4-0.7c0.4-0.3,0.8-0.5,1.3-0.6c0,2.4,0.1,4.8,0,7.2
							c0,1.4,0.4,2.7,1,4c2.1,4.5,7.7,6.8,12.4,5c4-1.5,6.6-5.1,6.7-9.4c0-2.6-0.8-4.9-2.6-6.8c-1-1.1-0.6-2.2,0.9-2.5
							c0.3-0.1,0.5-0.1,0.8-0.1c22.5,0,45,0,67.5,0c1.5,0,1.5,0,1.4-1.5c0-0.3,0-0.5,0-0.8c0-28.7,0-57.4,0-86.2
							c0-3.3-1.4-5.9-4-7.8c-0.1-0.5-0.6-0.5-0.9-0.6c-1.6-1-3.4-1.5-5.3-1.5c-0.8,0-1.6,0.2-2.4,0.4c-1,0.3-2.1,0.4-2.7,1.4
							c-2.5,1.4-3.9,3.6-4.5,6.4c-0.7,3.3,0.1,6.3,2.5,8.8c0.9,0.9,0.5,2.2-0.8,2.5c-0.3,0.1-0.7,0.1-1,0.1c-22.6,0-45.2,0-67.8,0
							c-1.1,0-1.1,0-1.1,1.2c0,5.8,0,11.5,0,17.3C110,122.2,108.8,122.2,107.6,122.2z M204.3,47.7c-1,0.7-1.9,1.4-2.6,2.4
							c-3,3.9-2.6,9.4,0.6,12.7c0.5,0.5,0.6,1.1,0.2,1.8c-0.5,0.8-1.2,0.7-2,0.7c-22.2,0-44.3,0-66.5,0c-0.2,0-0.5,0-0.7,0
							c-0.6-0.1-0.7,0.2-0.7,0.7c0,4.6,0.1,9.1,0,13.7c0,0.9,0.2,1.2,1.2,1.2c11.9-0.1,23.8-0.1,35.7-0.1c5.9,0,11.7,0,17.6,0
							c1.6,0,3.2,0,4.8,0.3c3.8,0.8,6.9,2.6,9,5.9c0.6,1,1.2,1.5,2.5,1.4c1.2-0.1,2,0.7,2,1.6c0.1,1-0.6,1.7-1.9,1.9
							c-0.4,0-0.6,0.1-0.6,0.6c0,3.5,0,6.9,0,10.4c0,0.7,0.2,1.1,1,1.2c0.9,0.1,1.5,0.7,1.5,1.6s-0.6,1.7-1.5,1.7s-1,0.4-1,1.2
							c0,3.3,0,6.5,0,9.8c0,0.7,0,1.2,0.9,1.2c1,0,1.6,0.8,1.6,1.8c0,0.9-0.6,1.6-1.6,1.6c-0.9,0-0.9,0.5-0.9,1.1
							c0,7.4,0,14.8,0,22.3c0,4.1,0,8.2,0,12.2c0,0.7,0.2,1.2,0.8,1.6c2,1.5,4.1,2.2,6.6,2.1c5.7-0.2,9.4-5.3,9.4-9.6
							c-0.1-8.5-0.1-16.9-0.1-25.4c0-23.8,0-47.5,0-71.3c0-0.7,0-1.3-0.2-2c-0.6-2.3-1.6-4.3-3.6-5.7c0-0.6-0.4-0.8-0.8-1.1
							C212.5,45.5,207,45.3,204.3,47.7z M130.1,201.9c0.5,0,0.9,0,1.2,0c4.7,0,9.4-0.1,14-0.1c17.1-0.1,34.2,0,51.4,0
							c0.8,0,1.6,0.1,2.4,0.1c1.7,0.1,3.4-0.2,5-1c5.3-2.4,7.3-8.6,5.3-13.7c-0.3-0.8-0.6-1-1.5-1.1c-3.2-0.1-6.5,0.1-9.7,0.1
							c-21.3,0-42.6-0.1-64,0.1c-1,0-1,0-0.6,1c1.4,4.1,1.1,8.1-1.3,11.9C131.8,200.1,131,200.9,130.1,201.9z M180.2,84.4
							c-4,0-7.8,0-11.6,0c-19.2,0-38.5,0-57.7,0c-2.7,0-5.1,0.8-7.1,2.6c-3.3,3-4.4,7.7-2.9,12c0.3,0.8,0.7,1.1,1.6,1.1
							c3-0.1,6,0,9,0c21.5,0,43,0,64.6,0c1.1,0,1,0,0.7-1.1c-1.4-4.2-1.1-8.2,1.4-12C178.8,86.1,179.5,85.4,180.2,84.4z M200.7,46.3
							c-0.5,0-0.8,0-1.1,0c-4.2,0-8.5,0.1-12.7,0.1c-17.6,0.1-35.3,0-52.9,0c-0.5,0-0.9-0.1-1.4-0.1c-3.5-0.1-6.5,1.1-8.6,3.9
							c-2.5,3.3-2.8,7-1.4,10.9c0.2,0.5,0.5,0.6,1,0.6c2.2,0,4.3,0,6.5,0c22.1,0,44.2,0,66.3,0c1.1,0,1.1,0,0.7-1
							c-1.5-4.3-1-8.3,1.6-12C199.4,47.8,200,47.1,200.7,46.3z M43.7,137.4c0-0.1-0.1-0.1-0.1-0.2c-5.7,1.8-11.3,3.7-17,5.5
							c-0.6,0.2-0.6,0.4-0.4,0.9c1.2,3.6,2.4,7.2,3.5,10.8c2.4,7.3,4.8,14.7,7.2,22c2.2,6.8,4.4,13.6,6.6,20.5
							c0.2,0.6,0.4,0.8,1,0.6c2.3-0.8,4.7-1.6,7-2.3c0.7-0.2,0.7-0.5,0.5-1.1c-1-3-2-6-2.9-8.9c-2.3-7.2-4.7-14.4-7-21.6
							c-1.5-4.5-2.9-9.1-4.4-13.6c-0.1-0.4-0.3-0.8,0-1.2c0.4-0.7,0.8-1.5,1.2-2.2C40.5,143.5,42.1,140.4,43.7,137.4z M45.7,133.2
							c0.4-0.2,0.5-0.5,0.7-0.8c1.8-3.4,3.6-6.9,5.4-10.3c0.3-0.6,0.7-1.2,1.5-1.4c2.8-0.9,5.6-1.8,8.4-2.8
							c7.1-2.3,14.2-4.6,21.4-6.9c0.7-0.2,0.9-0.5,0.6-1.2c-0.7-2.2-1.4-4.3-2.1-6.5c-0.2-0.8-0.5-0.9-1.3-0.6
							c-3.6,1.2-7.3,2.4-10.9,3.6c-9.5,3.1-18.9,6.2-28.4,9.2c-0.8,0.3-0.9,0.6-0.7,1.3c1.2,3.5,2.3,7.1,3.5,10.7
							C44.4,129.3,45.1,131.2,45.7,133.2z M38.1,118.5c-3.8,7.2-7.4,14.1-11.2,21.2c0.4-0.1,0.6-0.1,0.8-0.2
							c4.9-1.6,9.9-3.2,14.8-4.8c0.7-0.2,0.8-0.4,0.6-1.1c-1-3-1.9-6-2.9-8.9C39.5,122.7,38.8,120.8,38.1,118.5z M53,126.2
							c-0.1,0-0.2,0-0.3,0c-3.6,6.9-7.3,13.8-10.9,20.7c0.1,0,0.2,0.1,0.2,0.1c5.2-1.7,10.4-3.4,15.6-5c0.5-0.2,0.4-0.4,0.3-0.7
							c-0.9-2.8-1.8-5.7-2.8-8.5C54.4,130.5,53.7,128.4,53,126.2z"/>
						<path class="st12" d="M131.1,131.7c16.7,0,33.4,0,50.1,0c0.8,0,1.5,0,2.3,0c1.1,0,1.8,0.7,1.8,1.7c0,0.9-0.7,1.6-1.8,1.6
							c-0.8,0-1.5,0-2.3,0c-16.7,0-33.4,0-50.1,0C131.1,134,131.1,132.9,131.1,131.7z"/>
						<path class="st12" d="M131.1,164c17.1,0,34.2,0,51.4,0c0.3,0,0.5,0,0.8,0c0.8,0.1,1.4,0.7,1.4,1.5s-0.5,1.5-1.3,1.7
							c-0.4,0.1-0.7,0.1-1.1,0.1c-17.3,0-34.6,0-51.9,0C131,166.3,131.1,165.2,131.1,164z"/>
						<path class="st12" d="M128.5,170.7c5.6,0,11.1,0,16.7,0c2.9,0,5.7,0,8.6,0c0.6,0,0.9,0.1,0.8,0.8c-0.1,0.8,0.3,1.9-0.2,2.4
							s-1.6,0.2-2.4,0.2c-8.6,0-17.2,0-25.8,0c0-0.7,0.7-1,1-1.6C127.5,171.9,128.1,171.3,128.5,170.7z"/>
						<path class="st12" d="M85.5,146.7c-5,1.6-10,3.2-15,4.8s-10.1,3.3-15.1,4.9c-0.9,0.3-1.6,0-1.9-0.8c-0.2-0.7,0.2-1.4,1.1-1.7
							c5.9-1.9,11.9-3.9,17.8-5.8c3.9-1.3,7.8-2.5,11.7-3.8c0.5-0.1,0.9-0.3,1.4-0.4C85.7,144.9,85.6,145.8,85.5,146.7z"/>
						<path class="st12" d="M85.6,159.1c-1.8,0.4-3.6,1.1-5.3,1.7c-4.9,1.6-9.8,3.2-14.7,4.8c-1.9,0.6-3.7,1.2-5.6,1.8
							c-0.4,0.1-0.8,0.3-1.2,0.3c-0.7,0.1-1.3-0.1-1.5-0.9c-0.2-0.7,0.2-1.3,0.9-1.6c1.9-0.6,3.7-1.2,5.6-1.8
							c6.3-2.1,12.7-4.1,19-6.2c0.9-0.3,1.9-0.6,2.9-0.8C85.6,157.2,85.6,158.1,85.6,159.1z"/>
						<path class="st12" d="M87.9,170.5c-8.4,2.7-16.7,5.5-25.1,8.2c-1,0.3-1.8,0-2-0.7s0.2-1.5,1.1-1.8c7.9-2.6,15.9-5.1,23.8-7.7
							c0.2-0.1,0.5-0.1,0.7-0.2C87.4,168.8,87.4,169.8,87.9,170.5z"/>
						<path class="st12" d="M123.7,127c-0.9-1.6-0.2-2.9,1.7-2.9c4.9,0,9.8,0,14.8,0c0.7,0,1,0.2,1,1c-0.1,0.6,0,1.3,0,1.9
							c0,0.5-0.2,0.6-0.6,0.6c-5.1,0-10.2,0-15.3,0c-0.3,0-0.6-0.1-1-0.2C124,127.3,123.8,127.2,123.7,127z"/>
						<path class="st12" d="M131.1,155.7c2,0,2,0,2,2c0,1.5,0,1.5-2,1.5C131.1,158,131.1,156.8,131.1,155.7z"/>
						<path class="st12" d="M154.2,120.2c-9.3,0-18.7,0-28,0c-0.3,0-0.5,0-0.8,0c-0.9-0.1-1.5-0.7-1.5-1.5c-0.1-0.9,0.5-1.6,1.4-1.8
							c0.3-0.1,0.5,0,0.8,0c18.8,0,37.6,0,56.4,0c0.4,0,0.7,0,1.1,0.1c0.8,0.2,1.3,0.9,1.3,1.8c-0.1,0.8-0.7,1.4-1.5,1.5
							c-0.2,0-0.5,0-0.7,0C173,120.2,163.6,120.2,154.2,120.2z"/>
						<path class="st12" d="M140.1,109.7c4.5,0,9.1,0,13.6,0c0.9,0,1.6,0.3,1.9,1.1c0.5,1-0.3,2.2-1.4,2.4c-0.3,0-0.5,0-0.8,0
							c-8.9,0-17.8,0-26.6,0c-0.4,0-0.7,0-1.1-0.1c-0.8-0.2-1.3-1-1.2-1.8c0.1-0.9,0.7-1.3,1.5-1.5c0.3-0.1,0.5,0,0.8,0
							C131.2,109.7,135.7,109.7,140.1,109.7z"/>
						<path class="st12" d="M170.7,124.1c4,0,8.1,0,12.1,0c1.3,0,2.1,0.6,2.1,1.7s-0.8,1.7-2.1,1.7c-8.2,0-16.5,0-24.7,0
							c-0.7,0-0.8-0.2-0.8-0.8c0.1-0.8-0.3-1.9,0.2-2.4c0.5-0.6,1.6-0.2,2.4-0.2C163.5,124.1,167.1,124.1,170.7,124.1L170.7,124.1z"
							/>
						<path class="st12" d="M136.5,180.7c-3.9,0-7.8,0-11.7,0c-1.4,0-2.1-0.6-2.1-1.6c0-1.1,0.8-1.8,2.1-1.8c5.5,0,10.9,0,16.4,0
							c2.4,0,4.7,0,7.1,0c1.2,0,1.9,0.5,2.1,1.3c0.3,1.2-0.5,2.1-1.9,2.1C144.6,180.7,140.5,180.7,136.5,180.7z"/>
						<path class="st12" d="M170.7,170.7c3.9,0,7.7,0,11.6,0c0.6,0,1.1,0.1,1.6,0.5c0.8,0.8,0.6,2.1-0.4,2.6
							c-0.4,0.2-0.9,0.3-1.4,0.3c-7.7,0-15.3,0-23,0c-0.8,0-1.1-0.1-1-1c0.1-0.8-0.3-1.8,0.2-2.3s1.5-0.2,2.3-0.2
							C163.9,170.7,167.3,170.7,170.7,170.7z"/>
						<path class="st12" d="M174.1,155.7c2.9,0,5.9,0,8.8,0c1.2,0,2,0.7,2,1.7s-0.8,1.8-2,1.8c-6,0-11.9,0-17.9,0
							c-0.6,0-0.8-0.2-0.7-0.8c0-0.6,0.1-1.3,0-1.9c-0.1-0.7,0.2-0.8,0.8-0.8C168,155.7,171.1,155.7,174.1,155.7L174.1,155.7z"/>
						<path class="st12" d="M161.2,143.4c-2.5,0-4.9,0-7.4,0c-0.7,0-0.9-0.2-0.9-0.9c0.1-0.7,0-1.3,0-2c0-0.5,0.2-0.6,0.6-0.6
							c5.1,0,10.1,0,15.2,0c0.5,0,0.7,0.2,0.7,0.7c0,0.7,0,1.3,0,2c0.1,0.7-0.2,0.8-0.8,0.8C166.2,143.4,163.7,143.4,161.2,143.4z"
							/>
						<path class="st12" d="M178.4,139.9c1.5,0,3,0,4.5,0c1.2,0,1.9,0.7,1.9,1.7s-0.7,1.7-1.9,1.7c-3.1,0-6.3,0-9.4,0
							c-0.6,0-0.7-0.2-0.7-0.7c-0.1-2.7-0.1-2.7,2.7-2.7C176.5,139.9,177.5,139.9,178.4,139.9z"/>
						<path class="st12" d="M147.8,159.2c-1.7,0-3.3,0-5,0c-0.5,0-0.7-0.1-0.7-0.7c-0.1-2.8-0.1-2.8,2.6-2.8c2.7,0,5.3,0,8,0
							c0.6,0,0.9,0.1,0.8,0.8c0,0.6-0.1,1.3,0,1.9c0.1,0.7-0.2,0.8-0.8,0.8C151.1,159.1,149.4,159.2,147.8,159.2z"/>
						<path class="st12" d="M149.2,127.6c-1.3,0-2.7,0-4,0c-0.5,0-0.8-0.1-0.7-0.7c0-0.7,0-1.4,0-2.1c0-0.6,0.2-0.7,0.7-0.7
							c2.7,0,5.3,0,8,0c0.5,0,0.8,0.1,0.7,0.7c0,0.7,0,1.4,0,2.1c0,0.6-0.2,0.7-0.7,0.7C151.8,127.6,150.5,127.6,149.2,127.6z"/>
						<path class="st12" d="M158.9,155.7c1.9,0,1.9,0,1.9,1.9c0,1.6,0,1.6-1.6,1.6c-2.3,0-2.3,0-2.3-2.2c0-1.4-0.2-1.2,1.3-1.3
							C158.4,155.7,158.7,155.7,158.9,155.7z"/>
						<path class="st12" d="M136.4,157.3c0-1.8,0.1-1.9,1.9-1.7c0.4,0,0.5,0.2,0.5,0.6c0,0.4,0,0.8,0,1.3c0,1.9,0.3,1.6-1.7,1.7
							c-0.7,0-0.9-0.2-0.8-0.8C136.4,158,136.4,157.7,136.4,157.3z"/>
						<path class="st12" d="M148.4,139.9c-4.6,0-9.3,0-13.9,0l0,0H131v0.9c-0.1,0.5-0.1,1,0,1.5v1.1h3.5l0,0c4.2,0,8.4,0,12.6,0
							c2.4,0,2.3,0,2.4-2.4C149.6,140.1,149.3,139.9,148.4,139.9z"/>
						<path class="st12" d="M184,148.1c-0.4-0.1-0.9-0.1-1.3-0.1c-16.4,0-32.9,0-49.3,0c-0.7,0-1.4,0-2.2,0c-0.3,1.1-0.3,2.2,0,3.4
							l0,0h1.9c16.7,0,33.3,0,50,0c0.2,0,0.4,0,0.5,0c0.8-0.1,1.5-0.7,1.5-1.5C185.3,148.9,184.9,148.3,184,148.1z"/>
					</g>
				</g>
				<path class="st8" d="M126.5,149.6L126.5,149.6c0-5.1,0-10.1,0-15.2c0-0.8-0.3-1.3-1.1-1.5c-3-0.9-5.5-2.6-7.4-5.2
					c-0.4-0.5-0.8-0.8-1.4-0.8c-5.6,0-11.1,0-16.7,0c-0.6,0-1,0.2-1.3,0.6c-1.8,2.6-4.3,4.3-7.3,5.3c-1.2,0.4-1.4,0.7-1.4,1.9
					c0,9.4,0,18.7,0,28.1c0,1.8,0.3,3.3,1.2,4.8c1.8,3.4,4.3,6.2,7.4,8.4c2.6,1.8,5.4,3.3,8.1,5c1.2,0.8,2.3,0.8,3.5,0
					c1.9-1.2,3.7-2.4,5.7-3.5c3.6-2,6.5-4.7,8.7-8.1c1.3-1.9,2.2-3.8,2.1-6.3C126.4,158.6,126.5,154.1,126.5,149.6z M123.3,165.9
					c-1.5,3.1-3.7,5.6-6.4,7.6c-2.3,1.7-4.9,2.9-7.2,4.5c-1.1,0.8-1.9,0.6-2.9-0.1c-2.3-1.6-4.8-2.8-7.1-4.5c-2.8-2.1-5-4.7-6.6-7.8
					c-0.3-0.6-0.5-1.3-0.5-1.9c0-4.5,0-9.1,0-13.6c0-0.1,0-0.2,0-0.4c0-2.4,0-4.8-0.1-7.2c0-2.2,0-4.3,0-6.5c0-0.3-0.2-0.7,0.3-0.8
					c2.8-1.1,5.2-2.8,7.2-5.1c0.4-0.4,0.7-0.5,1.3-0.5c4.6,0,9.2,0,13.8,0c0.4,0,0.7-0.1,1,0.2c1.3,1.5,2.8,2.7,4.4,3.9
					c1,0.4,1.8,1.1,2.9,1.3c0.3,0.1,0.4,0.4,0.4,0.6c0,0.5,0,1.1,0,1.6c0,8.7,0,17.3,0,26v1.3c-0.1,0.2-0.2,0.4-0.4,0.5
					C123.4,165.4,123.4,165.7,123.3,165.9z"/>
				<path class="st11" d="M121.2,148.8c-0.4-1-0.7-2.1-1.2-3.1c-0.9-1.5-2-3-3.5-4c-1.4-1-2.9-1.7-4.5-2.2c-1.9-0.5-3.8-0.6-5.7-0.4
					c-2.1,0.2-4,1-5.5,2.1c-2.2,1.6-4,3.7-5,6.4c-0.9,2.8-1,5.5-0.3,8.2c0.6,2.3,1.7,4.3,3.5,5.9c0.5,0.5,1,0.9,1.6,1.3l0,0
					c0,0,0.2,0.1,0.4,0.3c0.1,0,0.1,0.1,0.2,0.1c0.1,0.1,0.2,0.1,0.3,0.2c0.7,0.4,1.8,1,3.1,1.4c0.1,0,0.2,0.1,0.3,0.1
					c0.1,0,0.2,0,0.3,0.1l0,0c0.6,0.1,1.2,0.2,1.9,0.2h0.1c1.6,0.1,3.2-0.1,4.8-0.4c0.2,0,0.4-0.1,0.6-0.2c1.1-0.3,1.8-0.6,1.8-0.6
					l0,0c0.7-0.1,1.3-0.6,1.8-1.1c1.9-1.7,3.4-3.6,4.4-6c0.6-1.6,1.1-3.3,1-5.2C121.7,151,121.6,149.9,121.2,148.8z M108.3,162.9
					c-6,0-10.8-4.7-10.7-10.8c0-5.9,4.6-10.5,10.7-10.5c5.9,0,10.8,4.7,10.6,10.6C119.1,158,114.2,162.9,108.3,162.9z"/>
			</g>
			<path class="st13" d="M124.7,125.3l-1.4,0.3c0,0-0.3,2,1.8,2.1c2.1,0,1.1-1.7,1.1-1.7L124.7,125.3z"/>
			<path class="st4" d="M123.1,127c0,0,1.4,1.2,2.7,1.5c1.3,0.3-0.7-0.9-0.7-0.9s-1.4,0.2-1.8-1.3L123.1,127z"/>
		</g>
	</g>
</g>
</svg>
