<?xml version="1.0" encoding="utf-8"?>
<!-- Generator: Adobe Illustrator 23.0.0, SVG Export Plug-In . SVG Version: 6.00 Build 0)  -->
<svg version="1.1" xmlns="http://www.w3.org/2000/svg" xmlns:xlink="http://www.w3.org/1999/xlink" x="0px" y="0px"
	 viewBox="0 0 256 256" style="enable-background:new 0 0 256 256;" xml:space="preserve">
<style type="text/css">
	.st0{display:none;}
	.st1{display:inline;}
	.st2{fill:#D1C2E2;}
	.st3{fill:#4C2D69;}
	.st4{fill:#EEA2CB;}
	.st5{fill:#9F92BC;}
	.st6{fill:#866EC0;}
	.st7{fill:#876EC1;}
	.st8{fill:#B896E3;}
	.st9{fill:#CF92B2;}
	.st10{fill:#C567D4;}
	.st11{fill:#AD7EAB;}
	.st12{fill:#7B4C6C;}
	.st13{fill:#7F5273;}
	.st14{fill:#7E5071;}
	.st15{fill:#7E5171;}
	.st16{fill:#7E5172;}
	.st17{fill:#7F5171;}
	.st18{fill:#7F5272;}
	.st19{fill:#7E5070;}
	.st20{fill:#7F5172;}
	.st21{fill:#6E64A5;}
	.st22{fill:#845175;}
	.st23{fill:#7B4C6D;}
	.st24{fill:#AF65BC;}
	.st25{fill:#B18FD6;}
	.st26{fill:#A48CCD;}
	.st27{fill:#AD8DD0;}
	.st28{fill:#A288C2;}
	.st29{fill:#AF8ED3;}
	.st30{fill:#CE92B2;}
	.st31{fill:#CE91B2;}
	.st32{fill:#CB90B1;}
	.st33{fill:#CD91B1;}
	.st34{fill:#AF81A8;}
	.st35{fill:#C467D3;}
	.st36{fill:#C366D2;}
	.st37{fill:#BE65CC;}
	.st38{fill:#BD64C8;}
	.st39{fill:#94568D;}
	.st40{fill:#8E5484;}
	.st41{fill:#8D5485;}
	.st42{fill:#BD64CA;}
	.st43{fill:#BC64C8;}
	.st44{fill:#A75CA8;}
	.st45{fill:#BA63C7;}
	.st46{fill:#AC5EB1;}
	.st47{fill:#8F5586;}
	.st48{fill:#9A5896;}
	.st49{fill:#A15A9E;}
	.st50{fill:#965791;}
	.st51{fill:#BF64CA;}
	.st52{fill:#B361BC;}
	.st53{fill:#B563C3;}
	.st54{fill:#B662C0;}
	.st55{fill:#A75DAA;}
	.st56{fill:#B864CA;}
	.st57{fill:#A95DAC;}
	.st58{fill:#A35AA0;}
	.st59{fill:#BA63C5;}
	.st60{fill:#A55CA9;}
	.st61{fill:#B361BF;}
	.st62{fill:#AB5EB0;}
	.st63{fill:#B763C5;}
	.st64{fill:#9E599B;}
	.st65{fill:#A35CA5;}
	.st66{fill:#AB5DAD;}
	.st67{fill:#995896;}
	.st68{fill:#A05BA3;}
	.st69{fill:#AE5FB4;}
	.st70{fill:#995796;}
	.st71{fill:#A15BA4;}
	.st72{fill:#9B5A9B;}
	.st73{fill:#AC60B6;}
	.st74{fill:#9F5999;}
	.st75{fill:#A25CA6;}
	.st76{fill:#AE60B8;}
	.st77{fill:#A55CA5;}
	.st78{fill:#A35BA1;}
	.st79{fill:#9E599C;}
	.st80{fill:#9D5AA0;}
	.st81{fill:#955790;}
	.st82{fill:#A05BA6;}
	.st83{fill:#A35DA9;}
	.st84{fill:#B563C2;}
	.st85{fill:#AB5EB3;}
	.st86{fill:#B161B9;}
	.st87{fill:#9C5BA3;}
	.st88{fill:#9D5CA8;}
	.st89{fill:#AF5FB2;}
	.st90{fill:#C467D2;}
	.st91{fill:#C466D3;}
	.st92{fill:#BF65CD;}
	.st93{fill:#C266D1;}
	.st94{fill:#C166CF;}
	.st95{fill:#BE64CB;}
	.st96{fill:#7E4D73;}
	.st97{fill:#7E4C72;}
	.st98{fill:#BD64C9;}
	.st99{fill:#8F538A;}
	.st100{fill:#7E4C70;}
	.st101{fill:#7A4B6D;}
	.st102{fill:#794B6B;}
	.st103{fill:#C065CE;}
	.st104{fill:#BB63C7;}
	.st105{fill:#91538B;}
	.st106{fill:#8D5287;}
	.st107{fill:#8F528A;}
	.st108{fill:#874F7E;}
	.st109{fill:#834E7D;}
	.st110{fill:#864F7D;}
	.st111{fill:#895185;}
	.st112{fill:#885082;}
	.st113{fill:#955590;}
	.st114{fill:#9E5A9C;}
</style>
<g id="Layer_2" class="st0">
	<g class="st1">
		<path class="st2" d="M60,0h136c33.1,0,60,26.9,60,60v136c0,33.1-26.9,60-60,60H60c-33.1,0-60-26.9-60-60V60C0,26.9,26.9,0,60,0z"
			/>
	</g>
</g>
<g id="Layer_1">
	<g>
		<path class="st3" d="M76.2,53.7c0-2.7,0-5.5,0-8.2c0-0.4,0.1-0.5,0.5-0.5c0.3,0,0.6,0,0.9,0c40.1,0,80.1,0,120.2,0
			c1.8,0,3.4,0.4,4.8,1.5c1.4,1.1,2.2,2.6,2.2,4.4c0,44.3,0,88.6,0,132.9c0,4.8,0,9.7,0,14.5c0,2.2,0,4.5,0,6.7
			c0,2.1-0.9,3.7-2.6,4.9c-0.7,0.5-1.5,0.8-2.3,1.1c-0.6,0.2-1.2,0.2-1.8,0.2c-0.1,0-0.3,0-0.4,0c-40.2,0-80.3,0-120.5,0
			c-0.3,0-0.6,0.1-0.8-0.1c-0.1-1.7-0.1-3.3,0-5c0.1-0.1,0.3-0.2,0.5-0.2c0.9,0,1.7,0,2.6,0c0.2,0,0.4,0,0.5,0.2
			c0.2,0.3,0.2,0.7,0.2,1c0,0.4,0.2,0.5,0.5,0.5c0.2,0,0.5,0,0.7,0c38.8,0,77.5,0,116.3,0c1.1,0,2-0.3,2.7-1.1
			c0.5-0.5,0.7-1.1,0.7-1.8c0-0.2,0-0.4,0-0.6c0-50.8,0-101.7,0-152.5c0-0.6,0.1-1.2-0.3-1.7c-0.5-1-1.4-1.3-2.4-1.4
			c-0.3,0-0.6,0-0.9,0c-38.7,0-77.4,0-116,0c-1.4,0-1.3,0-1.3,1.3c0,1,0,2.1,0,3.1c0,0.3,0,0.6-0.1,0.8c-0.1,0.1-0.2,0.2-0.4,0.2
			c-1,0.1-2,0.1-2.9,0C76.4,53.9,76.3,53.8,76.2,53.7z"/>
		<path class="st3" d="M71.4,206.2c-0.1,1.4,0,2.8,0,4.1c0,0.9,0,0.8-0.8,0.8c-5,0-10,0-15,0c-3,0-6.1-2.7-6-6c0-1.6,0-3.3,0-4.9
			c0.1-4.9,0.1-9.9,0-14.8c-0.1-44.8,0-89.6-0.1-134.3c0-3,2-5.4,5-6.1c0.3-0.1,0.7-0.1,1-0.1c4,0,8,0,12,0c1.1,0,2.2-0.1,3.3-0.1
			c0.6,0,0.6,0,0.6,0.6c0,2.5,0,5,0,7.5c0,0.2,0,0.5,0,0.7l-0.1,0.1c-1.1,0.2-2.2,0.3-3.4,0c-0.2-0.3-0.2-0.6-0.2-0.9
			c0-1.3,0-2.6,0-3.9c0-0.7-0.1-0.7-0.7-0.7c-3.5,0-7,0-10.6,0c-0.4,0-0.7,0.1-1,0.1c-1,0.2-1.7,0.8-2,1.9c-0.2,0.7-0.2,1.4-0.2,2.1
			c0,14.1,0,28.1,0,42.2c0,29.2,0,58.5,0,87.7c0,5.1,0.1,10.3,0.1,15.4c0,2.5-0.1,5-0.1,7.5c0,1.5,0.6,2.2,2,2.6
			c0.5,0.1,1,0.2,1.5,0.2c3.4,0,6.7,0,10.1,0c0.9,0,0.9,0,0.9-0.9c0-0.3,0-0.7,0.1-1c0.1-0.1,0.2-0.1,0.3-0.1
			c1.1-0.1,2.1-0.1,3.2,0.1C71.4,206.1,71.4,206.2,71.4,206.2z"/>
		<path class="st4" d="M68,53.7c1.1,0.1,2.3,0,3.4,0c1.6,0,3.2,0,4.9,0c1.2,0,2.4,0,3.6,0c0.2-0.1,0.4-0.2,0.6-0.2
			c0.7,0,1.4,0,2.1,0c1.2,0.1,2.1,1,2.1,2.2c0,1.1-1,2-2.1,2c-1.7,0-3.5,0-5.2,0c-0.3,0-0.7,0-1,0c-1.6,0-3.2,0-4.8,0
			c-1.8-0.1-3.7,0-5.5,0c-0.3,0-0.7,0-1,0c-1.1,0-2.1-0.9-2.2-1.9c-0.1-1,0.8-2,1.9-2.2c0.6-0.1,1.2-0.1,1.8,0
			C66.9,53.6,67.5,53.4,68,53.7z"/>
		<path class="st5" d="M71.4,206.2L71.4,206.2c0.2-0.3,0.4-0.3,0.6-0.3c1.2,0,2.4,0,3.6,0c0.2,0,0.5,0,0.6,0.2c0,1.6,0,3.3,0,4.9
			c-0.2-0.2-0.1-0.4-0.1-0.6c0-1.2,0-2.4,0-3.6c0-0.6,0-0.6-0.6-0.6C74.2,206.2,72.8,206.2,71.4,206.2z"/>
		<path class="st6" d="M76.2,57.7c0.2-0.2,0.5-0.1,0.7-0.1c1.8,0,3.7,0,5.5,0c1,0,2.1-1.1,2-2.1c-0.1-0.9-0.9-1.7-1.9-1.8
			c-0.9,0-1.8,0-2.7,0c0-1.5,0-3,0-4.5c0-0.2,0-0.3,0-0.5c0-0.3,0.1-0.4,0.4-0.4c0.1,0,0.3,0,0.4,0c39,0,78.1,0,117.1,0
			c0.7,0,1.3,0.1,1.9,0.4c0.9,0.5,1.4,1.3,1.4,2.5c0,44,0,88,0,132c0,7.2,0,14.4,0,21.7c0,1.6-1.4,3-3,3c-34.8,0-69.7,0-104.5,0
			c-4.3,0-8.6,0-13,0c-0.8,0-0.7,0.1-0.8-0.7c0-0.3,0-0.7,0-1c0.2-0.3,0.5-0.2,0.8-0.2c0.8,0,1.6,0.1,2.3-0.1
			c0.9-0.2,1.5-0.9,1.6-1.7c0-0.8-0.6-1.5-1.5-1.7c-0.8-0.2-1.6-0.1-2.4-0.1c-0.3,0-0.7,0.1-0.9-0.3c-0.2-1-0.2-1.9-0.1-2.9
			c0.1-1.3,0.1-2.7,0.1-4c0-0.3,0-0.6,0.1-0.9c0.2-0.3,0.4-0.3,0.7-0.3c0.6,0,1.2,0,1.8,0c0.4,0,0.7-0.1,1.1-0.2
			c0.6-0.3,1-0.8,1.1-1.6c0-0.7-0.4-1.2-1-1.5c-0.4-0.2-0.8-0.3-1.3-0.3c-0.6,0-1.1,0-1.7,0c-0.3,0-0.5,0-0.7-0.2
			c-0.1-0.3-0.1-0.6-0.1-0.9c0-1.5,0-3,0-4.5c0-0.9-0.2-1.8-0.1-2.7c0-0.3,0-0.6,0.1-0.8c0.2-0.3,0.5-0.2,0.7-0.2c0.7,0,1.4,0,2,0
			c0.4,0,0.7,0,1.1-0.3c0.6-0.4,1-0.9,1-1.6c0-0.8-0.5-1.2-1.2-1.5c-0.4-0.2-0.8-0.2-1.2-0.2c-1.7,0-3.4,0.2-5.1,0.1
			c-0.2,0-0.5,0-0.7-0.1c-0.1-0.1-0.2-0.1-0.1-0.3c0.7-0.3,1.5-0.1,2.2-0.1c1.1,0,1.1,0,1.1-1.1c0-2.1,0-4.2,0-6.3
			c0-0.3,0-0.6,0.1-0.9c0.2-0.3,0.5-0.2,0.7-0.2c0.6,0,1.1,0,1.7,0c0.2,0,0.4,0,0.6,0c1.1-0.1,1.9-0.8,1.9-1.8s-0.8-1.7-1.9-1.8
			c-0.8,0-1.5,0-2.3,0c-0.3,0-0.6,0-0.8-0.2c-0.1-0.2-0.1-0.4-0.1-0.7c0-2.3,0-4.5,0-6.8c0-0.2,0-0.5,0.1-0.7
			c0.2-0.3,0.5-0.3,0.8-0.3c0.7,0,1.3,0,2,0s1.2-0.3,1.7-0.8c0.6-0.6,0.6-1.5,0-2.1c-0.5-0.5-1-0.7-1.7-0.7s-1.3,0-2,0
			c-0.3,0-0.5,0-0.7-0.2c-0.1-0.2-0.1-0.4-0.1-0.6c0-2.2,0-4.4,0-6.7c0-0.2,0-0.4,0.1-0.5c0.1-0.3,0.4-0.2,0.6-0.2
			c0.7,0,1.4,0,2.1-0.1c1.1-0.2,1.9-1,1.8-1.9c-0.1-1-0.9-1.6-2-1.6c-0.6,0-1.2,0-1.8,0c-0.3,0-0.5,0-0.7-0.3c0-2.5,0-5,0-7.5
			c0-0.2,0-0.3,0.1-0.5c0.1-0.3,0.4-0.2,0.6-0.2c0.8,0,1.6,0,2.4-0.1c1.2-0.3,1.8-1.4,1.3-2.4c-0.3-0.7-0.9-1-1.6-1s-1.4,0-2.2,0
			c-0.3,0-0.5,0-0.7-0.3c0-2.8,0-5.6,0-8.5c0-0.2,0-0.3,0.1-0.5c0.2-0.3,0.4-0.3,0.7-0.3c0.5,0,0.9,0,1.4,0c0.2,0,0.5,0,0.7-0.1
			c1-0.2,1.6-0.9,1.6-1.7c0-0.9-0.8-1.6-1.8-1.7c-0.6-0.1-1.3,0-1.9,0c-0.3,0-0.6,0-0.8-0.3c-0.1-0.2-0.1-0.5-0.1-0.7
			c0-2.3,0-4.5,0-6.8c0-0.2,0-0.5,0.1-0.7c0.2-0.3,0.5-0.2,0.7-0.3c0.5,0,0.9,0,1.4,0c0.2,0,0.5,0,0.7-0.1c0.9-0.2,1.5-0.9,1.6-1.6
			c0-0.8-0.5-1.5-1.4-1.8s-1.8-0.2-2.7-0.1c-1.1,0.1-2.2,0.1-3.3,0c-0.2,0-0.5,0.1-0.4-0.3c0.7-0.3,1.5-0.1,2.2-0.1
			c1.1,0,1.1,0,1.1-1.1c0-1.9,0-3.8,0-5.7c0-0.3,0-0.6,0.1-0.9c0.2-0.3,0.4-0.2,0.7-0.3c0.5,0,1,0,1.5,0c0.3,0,0.6,0,0.8-0.1
			c0.9-0.3,1.4-0.9,1.4-1.7c0-0.8-0.7-1.5-1.5-1.7c-0.7-0.1-1.4,0-2.1-0.1c-0.3,0-0.6,0.1-0.8-0.3c-0.1-0.2-0.1-0.5-0.1-0.7
			c0-2.3,0-4.6,0-6.9c0-0.2,0-0.5,0.1-0.7c0.2-0.3,0.5-0.2,0.8-0.3c0.6,0,1.3,0,1.9,0c1.2-0.1,2-1.3,1.6-2.3c-0.3-0.8-1-1.1-1.8-1.2
			c-0.7-0.1-1.4-0.1-2.2,0c-1.1,0.1-2.2,0.1-3.3,0c-0.2,0-0.5,0.1-0.4-0.3c0.7-0.3,1.5-0.1,2.2-0.1c1.1,0,1.1,0,1.1-1.1
			c0-2,0-4.1,0-6.1c0-0.3,0-0.6,0.1-0.9c0.2-0.3,0.5-0.2,0.7-0.3c0.6,0,1.2,0,1.8,0c0.6,0,1.1-0.2,1.5-0.6c0.7-0.7,0.7-1.7-0.1-2.4
			c-0.4-0.4-1-0.6-1.6-0.6c-0.5,0-1.1,0-1.6,0c-0.3,0-0.5,0-0.7-0.2c-0.1-0.3-0.1-0.6-0.1-0.9c0-2.2,0-4.4,0-6.7
			c0-0.8-0.1-0.8-0.8-0.8c-0.8,0-1.6,0.1-2.4-0.1C76.3,57.8,76.2,57.7,76.2,57.7z"/>
		<path class="st4" d="M79.8,202.2c0.9,0,1.8,0,2.6,0c0.8,0,1.5,0.3,2,1c0.5,0.9,0.2,2-0.7,2.5c-0.5,0.3-1,0.3-1.5,0.4
			c-0.8,0-1.6,0-2.5,0c-1.2,0-2.4,0-3.6,0c-1.6,0-3.2,0-4.8,0c-1.1,0-2.3,0-3.4,0c-1.2,0.3-2.5,0.3-3.7-0.2
			c-0.8-0.3-1.3-1.3-1.2-2.1c0.2-0.9,1-1.7,2-1.8s1.9-0.1,2.9,0c0.3,0.1,0.7,0.1,1,0.1c3.6,0,7.1,0,10.7,0
			C79.7,202.2,79.8,202.2,79.8,202.2z"/>
		<path class="st7" d="M67.9,202.2c-0.9,0-1.7,0-2.6,0c-0.8,0-1.4,0.4-1.8,1.1c-0.6,1,0,2.5,1.2,2.7c0.4,0.1,0.8,0.1,1.2,0.1
			c0.7,0,1.4,0,2,0c0,0.6,0,1.1,0,1.7c0,0.3-0.1,0.4-0.4,0.4c-0.1,0-0.2,0-0.3,0c-3.6,0-7.3,0-10.9,0c-0.7,0-1.3-0.2-1.9-0.4
			c-1-0.5-1.4-1.2-1.4-2.3c0-0.2,0-0.3,0-0.5c0.1-6.7,0.2-13.4,0.1-20.1c-0.2-11,0-22-0.1-33c0-11,0-22.1,0-33.1s0-22,0-33
			s0-22,0-33c0-0.9,0.1-1.9,0.3-2.8c0.3-1.1,1.1-1.5,2.1-1.7C56,48,56.6,48,57.1,48c3.3,0,6.7,0,10,0c0.1,0,0.3,0,0.4,0
			c0.3,0,0.4,0.1,0.4,0.4c0,0.7,0,1.4,0,2c0,1.1,0,2.1,0,3.2c-1,0-2,0-3,0c-0.6,0-1.2,0.3-1.6,0.7c-0.5,0.5-0.7,1.2-0.4,1.8
			c0.3,0.7,0.8,1.2,1.7,1.3c1.1,0,2.1,0,3.2,0c1,0,2,0,3,0c0.2,0,0.4,0,0.5,0.1c-0.1,0.1-0.1,0.1-0.2,0.1c-0.6,0.1-1.3,0.1-2,0.1
			c-1.2,0-1.2,0-1.2,1.1c0,2.1,0,4.2,0,6.3c0,0.3,0,0.6-0.1,0.9c-0.2,0.3-0.5,0.2-0.7,0.2c-0.7,0-1.3,0-2,0c-0.6,0-1.1,0.1-1.6,0.5
			c-0.9,0.7-0.8,2.1,0.2,2.7c0.4,0.3,0.9,0.4,1.3,0.4c0.7,0,1.4,0,2,0c0.3,0,0.5,0,0.7,0.2c0.1,0.2,0.1,0.5,0.1,0.7
			c0,2.3,0,4.5,0,6.8c0,0.2,0,0.5-0.1,0.7c-0.2,0.3-0.4,0.3-0.7,0.3c-0.6,0-1.2,0-1.8,0c-0.5,0-0.9,0.1-1.3,0.3
			c-0.7,0.3-1.2,1.1-1.1,1.8c0.1,0.8,0.9,1.4,1.7,1.5c0.8,0.1,1.6,0,2.4,0c0.3,0,0.6,0,0.8,0.3c0.1,0.2,0.1,0.5,0.1,0.7
			c0,2.3,0,4.6,0,6.9c0,0.2,0,0.5-0.1,0.7C67.5,91,67.2,91,66.9,91c-0.7,0-1.3,0-2,0c-0.4,0-0.8,0-1.2,0.2c-0.6,0.3-1,0.9-1,1.6
			s0.4,1.2,1,1.5c0.4,0.2,0.9,0.3,1.3,0.3c0.6,0,1.2,0,1.9,0c0.3,0,0.5,0,0.7,0.2c0.1,0.3,0.1,0.6,0.1,0.9c0,2,0,4,0,6
			c0,0.8,0,0.8,0.8,0.8s1.6-0.1,2.3,0.1c0.2,0.4-0.2,0.4-0.4,0.4c-1,0-2.1,0.1-3.1,0c-0.7-0.1-1.5-0.1-2.2,0c-0.4,0-0.8,0.2-1.1,0.3
			c-0.7,0.4-1.1,1.1-0.9,1.8c0.2,0.7,0.8,1.3,1.6,1.4c0.7,0.1,1.4,0,2.1,0c0.3,0,0.6,0,0.8,0.2c0.1,0.2,0.1,0.5,0.1,0.7
			c0,2.3,0,4.6,0,6.8c0,0.2,0,0.5-0.1,0.7c-0.2,0.3-0.5,0.3-0.8,0.3c-0.7,0-1.4,0-2.1,0c-0.9,0.1-1.7,0.6-1.8,1.3
			c-0.2,1,0.3,1.9,1.3,2.2c0.8,0.2,1.6,0.1,2.5,0.1c0.3,0,0.7-0.1,0.9,0.2c0.1,0.2,0.1,0.4,0.1,0.5c0,2.8,0,5.6,0,8.4
			c-0.1,0.3-0.4,0.3-0.6,0.3c-0.7,0-1.3,0-2-0.1c-0.5-0.1-0.9,0-1.3,0.2c-0.7,0.3-1.2,1.1-1.1,1.8c0.1,0.8,0.7,1.4,1.5,1.6
			c0.9,0.2,1.8,0.2,2.6,0.2c0.3,0,0.6-0.1,0.8,0.2c0.1,0.2,0.1,0.3,0.1,0.5c0,2.5,0,4.9,0,7.4c-0.2,0.3-0.5,0.3-0.8,0.3
			c-0.9,0-1.7,0-2.6,0c-1,0-1.8,0.9-1.7,1.9c0.1,0.7,0.7,1.3,1.5,1.5c1,0.2,1.9,0.2,2.9,0.2c0.2,0,0.5-0.1,0.6,0.2
			c0.1,0.2,0.1,0.4,0.1,0.7c0,2.2,0,4.3,0,6.5c0,0.2,0,0.5-0.1,0.7c-0.2,0.3-0.5,0.3-0.8,0.3c-0.7,0-1.3,0-2,0
			c-0.6,0-1.2,0.2-1.6,0.7c-0.8,0.9-0.6,2.1,0.4,2.7c0.4,0.2,0.8,0.3,1.2,0.3c0.7,0,1.3,0,2,0c0.3,0,0.5,0,0.7,0.2
			c0.1,0.2,0.1,0.4,0.1,0.7c0,2.3,0,4.5,0,6.8c0,0.2,0,0.4-0.1,0.6c-0.2,0.3-0.4,0.3-0.7,0.3c-0.6,0-1.1,0-1.7,0
			c-0.4,0-0.9,0.1-1.2,0.3c-1.2,0.7-1.2,2.3,0,3c0.4,0.2,0.8,0.3,1.2,0.3c0.6,0,1.1,0,1.7,0c0.3,0,0.5,0,0.7,0.2
			c0.1,0.3,0.1,0.6,0.1,0.9c0,2.1,0,4.3,0,6.4c0,1.1,0,1.1,1.1,1.1c0.7,0,1.4-0.1,2.1,0.1c0,0.3,0,0.4-0.4,0.4c-1,0-2.1,0.1-3.1,0
			c-0.9-0.1-1.8-0.1-2.6,0c-1.2,0.1-1.9,0.7-1.9,1.7s0.7,1.8,1.7,1.8c0.7,0,1.4,0,2.2,0c0.3,0,0.6,0,0.8,0.2
			c0.2,0.9,0.2,1.8,0.1,2.7c-0.2,1.9-0.1,3.9-0.1,5.8c0,0.2,0,0.3,0,0.5c-0.1,0.3-0.4,0.2-0.6,0.3c-0.5,0-1,0-1.5,0
			c-0.2,0-0.4,0-0.6,0c-1.1,0.1-1.9,1-1.8,1.9c0.1,0.9,0.9,1.6,2,1.7c0.6,0,1.2,0,1.8,0c0.3,0,0.5,0,0.7,0.2c0.1,0.4,0,0.8,0,1.2
			c-0.1,1.9,0.1,3.8,0.1,5.7c0,0.3,0,0.6-0.1,0.9C68,202.1,68,202.2,67.9,202.2z"/>
		<path class="st3" d="M144.3,75.6c-10,0-20,0-29.9,0c-0.1,0-0.3,0-0.4,0c-0.3,0-0.5,0.1-0.6,0.4c-0.3,1.3-0.9,2.6-1.8,3.6
			c-1.5,1.8-3.4,3-5.8,3.4c-2.5,0.4-4.8-0.1-6.8-1.5c-2.2-1.5-3.6-3.6-4-6.3c-0.5-3.4,0.6-6.2,3.1-8.5c1.4-1.3,3.1-2,5-2.3
			c1.6-0.2,3.1,0,4.6,0.6c2,0.8,3.6,2.1,4.7,4c0.5,0.9,0.9,1.8,1.1,2.9c0.1,0.6,0.1,0.6,0.7,0.6c0.7,0,1.4,0,2.1,0
			c19.4,0,38.8,0,58.2,0c1,0,0.9-0.1,0.9,0.9c0,0.6,0,1.2,0,1.9c0,0.4-0.1,0.5-0.5,0.5c-0.2,0-0.3,0-0.5,0
			C164.3,75.6,154.3,75.6,144.3,75.6z"/>
		<path class="st3" d="M144.3,101.6c-10,0-19.9,0-29.9,0c-0.2,0-0.3,0-0.5,0c-0.3,0-0.4,0.1-0.5,0.4c-0.3,1.8-1,3.4-2.3,4.8
			c-1.6,1.8-3.6,2.8-6,3.1c-3.1,0.3-5.7-0.7-7.8-2.8c-1.3-1.3-2.1-3-2.5-4.9c-0.4-2.7,0.1-5.2,1.8-7.3c1.5-1.9,3.4-3.1,5.9-3.5
			c1.8-0.3,3.6-0.1,5.3,0.6c2.3,1,4,2.7,4.9,5c0.2,0.4,0.3,0.7,0.4,1.1c0.1,0.3,0.2,0.5,0.5,0.4c0.2,0,0.3,0,0.5,0c20,0,40,0,60.1,0
			c1,0,0.9-0.1,0.9,0.9c0,0.6,0,1.2,0,1.7c0,0.4,0,0.5-0.4,0.5c-0.2,0-0.3,0-0.5,0C164.3,101.6,154.3,101.6,144.3,101.6z"/>
		<path class="st3" d="M135.8,85.8c12.9,0,25.8,0,38.6,0c0.9,0,0.8-0.1,0.8,0.8c0,0.6,0,1.3,0,1.9c0,0.4-0.1,0.5-0.5,0.5
			c-0.1,0-0.3,0-0.4,0c-25.7,0-51.5,0-77.2,0c-1,0-1,0-1-1c0-0.6,0-1.2,0-1.7c0-0.3,0.1-0.5,0.4-0.5c0.2,0,0.4,0,0.6,0
			C110,85.8,122.9,85.8,135.8,85.8z"/>
		<path class="st3" d="M135.7,115c-12.8,0-25.7,0-38.5,0c-1.1,0-1.1,0-1.1-1.1c0-0.5,0-1,0-1.5c0-0.4,0.1-0.5,0.5-0.6
			c0.2,0,0.3,0,0.5,0c25.8,0,51.6,0,77.4,0c0.1,0,0.3,0,0.4,0c0.2,0,0.3,0.1,0.3,0.3c0,0.8,0,1.7,0,2.5c0,0.2-0.1,0.3-0.3,0.3
			s-0.4,0-0.6,0C161.5,115,148.6,115,135.7,115z"/>
		<path class="st8" d="M110.2,152.4c-3,0-6,0-9,0c-0.2,0-0.3,0-0.5,0s-0.3-0.1-0.3-0.3c0-0.1,0-0.2,0-0.4c0-5.6,0-11.3,0-16.9
			c0-0.1,0-0.2,0-0.4s0.1-0.3,0.3-0.3c0.1,0,0.3,0,0.4,0c6.1,0,12.1,0,18.2,0c0.8,0,0.8-0.1,0.8,0.8c0,5.6,0,11.1,0,16.7
			c0,0.1,0,0.2,0,0.2c0,0.5,0,0.5-0.6,0.5C116.5,152.4,113.4,152.4,110.2,152.4z"/>
		<path class="st3" d="M135.7,125.5c12.9,0,25.8,0,38.7,0c1,0,0.9-0.1,0.9,0.9c0,0.6,0,1.2,0,1.9c0,0.3-0.1,0.4-0.4,0.4
			c-0.2,0-0.4,0-0.6,0c-24,0-48.1,0-72.1,0c-1.8,0-3.6,0-5.4,0c-0.6,0-0.6,0-0.6-0.6c0-0.7,0-1.4,0-2c0-0.5,0-0.5,0.5-0.5
			c1.2,0,2.4,0,3.6,0C112.1,125.5,123.9,125.5,135.7,125.5L135.7,125.5z"/>
		<path class="st9" d="M143,134.2c3,0,5.9,0,8.9,0c0.2,0,0.3,0,0.5,0s0.3,0.1,0.3,0.3c0,0.1,0,0.2,0,0.4c0,5.5,0,11,0,16.5
			c0,0.1,0,0.2,0,0.2c0,0.4,0,0.5-0.4,0.5c-0.1,0-0.2,0-0.4,0c-5.9,0-11.9,0-17.8,0c-0.1,0-0.2,0-0.3,0c-0.5,0-0.5,0-0.5-0.6
			c0-2.1,0-4.2,0-6.4c0-3.4,0-6.7,0-10.1c0-0.1,0-0.3,0-0.4c0-0.3,0.1-0.5,0.4-0.4c0.1,0,0.3,0,0.4,0C137,134.2,140,134.2,143,134.2
			z"/>
		<path class="st10" d="M175.9,134.5c3,0,6,0,9,0c0.1,0,0.3,0,0.4,0c0.3,0,0.4,0.1,0.4,0.4c0,0.1,0,0.2,0,0.4c0,5.6,0,11.1,0,16.7
			c0,0.8,0,0.8-0.8,0.8c-6,0-12.1,0-18.1,0c-0.8,0-0.8,0.1-0.8-0.8c0-5.6,0-11.1,0-16.7c0-0.1,0-0.1,0-0.2c0-0.5,0-0.5,0.6-0.5
			C169.7,134.5,172.8,134.5,175.9,134.5z"/>
		<path class="st3" d="M176.6,171.7c4.6,0,9.3,0,13.9,0c0.9,0,0.8-0.1,0.8,0.8c0,0.6,0,1.2,0,1.9c0,0.3-0.1,0.4-0.4,0.4
			c-0.1,0-0.3,0-0.4,0c-9.2,0-18.5,0-27.7,0c-1.1,0-1,0-1-1c0-0.6,0-1.1,0-1.7c0-0.3,0.1-0.4,0.4-0.4c0.2,0,0.4,0,0.6,0
			C167.4,171.7,172,171.7,176.6,171.7z"/>
		<path class="st3" d="M176.6,200.3c-4.6,0-9.3,0-13.9,0c-1,0-0.9,0-0.9-0.9c0-0.6,0-1.2,0-1.8c0-0.3,0.1-0.5,0.4-0.5
			c0.2,0,0.3,0,0.5,0c9.3,0,18.5,0,27.8,0c0.9,0,0.8-0.1,0.8,0.8c0,0.6,0,1.2,0,1.9c0,0.3-0.1,0.4-0.4,0.4c-0.2,0-0.3,0-0.5,0
			C185.9,200.3,181.2,200.3,176.6,200.3z"/>
		<path class="st3" d="M176.6,161.2c-4.6,0-9.3,0-13.9,0c-1,0-0.9,0-0.9-0.9c0-0.6,0-1.2,0-1.8c0-0.3,0.1-0.5,0.4-0.4
			c0.2,0,0.3,0,0.5,0c9.3,0,18.5,0,27.8,0c0.9,0,0.8-0.1,0.8,0.8c0,0.6,0,1.2,0,1.9c0,0.3-0.1,0.4-0.4,0.4c-0.2,0-0.3,0-0.5,0
			C185.8,161.2,181.2,161.2,176.6,161.2z"/>
		<path class="st3" d="M176.6,184.7c4.7,0,9.3,0,14,0c0.8,0,0.8,0,0.8,0.8c0,0.6,0,1.3,0,1.9c0,0.3-0.1,0.4-0.4,0.4
			c-0.1,0-0.3,0-0.4,0c-9.2,0-18.4,0-27.7,0c-1,0-1,0-1-1c0-0.6,0-1.1,0-1.7c0-0.3,0.1-0.4,0.4-0.4c0.2,0,0.4,0,0.6,0
			C167.4,184.7,172,184.7,176.6,184.7z"/>
		<path class="st3" d="M110.3,174.8c-4.4,0-8.8,0-13.3,0c-1.1,0-1,0-1-1c0-0.6,0-1.1,0-1.7c0-0.3,0.1-0.5,0.4-0.4c0.2,0,0.3,0,0.5,0
			c8.9,0,17.8,0,26.7,0c0.9,0,0.8-0.1,0.8,0.8c0,0.6,0,1.3,0,1.9c0,0.3-0.1,0.4-0.4,0.4c-0.1,0-0.3,0-0.4,0
			C119.2,174.8,114.8,174.8,110.3,174.8z"/>
		<path class="st3" d="M110.3,161.2c-4.4,0-8.9,0-13.3,0c-0.9,0-0.8,0-0.8-0.8c0-0.6,0-1.2,0-1.7s0.1-0.5,0.5-0.5c0.1,0,0.2,0,0.4,0
			c8.9,0,17.8,0,26.7,0c0.9,0,0.8-0.1,0.8,0.8c0,0.6,0,1.3,0,1.9c0,0.3-0.1,0.4-0.4,0.4c-0.2,0-0.3,0-0.5,0
			C119.2,161.2,114.7,161.2,110.3,161.2z"/>
		<path class="st3" d="M110.3,200.3c-4.4,0-8.9,0-13.3,0c-0.9,0-0.8,0-0.8-0.8c0-0.6,0-1.2,0-1.7s0.1-0.5,0.5-0.5c0.1,0,0.2,0,0.4,0
			c8.9,0,17.8,0,26.7,0c0.9,0,0.8-0.1,0.8,0.8c0,0.6,0,1.3,0,1.9c0,0.3-0.1,0.4-0.4,0.4c-0.2,0-0.3,0-0.5,0
			C119.2,200.3,114.7,200.3,110.3,200.3z"/>
		<path class="st3" d="M110.4,184.7c4.5,0,8.9,0,13.4,0c0.8,0,0.7,0,0.7,0.7c0,0.6,0,1.3,0,1.9c0,0.4,0,0.4-0.5,0.5
			c-0.1,0-0.2,0-0.3,0c-8.9,0-17.7,0-26.6,0c-1,0-1,0-1-1c0-0.5,0-1.1,0-1.6s0-0.5,0.5-0.5c0.2,0,0.3,0,0.5,0
			C101.5,184.7,106,184.7,110.4,184.7z"/>
		<path class="st3" d="M178.9,63.1c-4.4,0-8.8,0-13.2,0c-0.2,0-0.4,0-0.6,0c-0.4,0-0.5-0.1-0.5-0.5c0-0.7,0-1.4,0-2
			c0-0.5,0.1-0.5,0.5-0.5c0.1,0,0.3,0,0.4,0c8.9,0,17.7,0,26.6,0c0.9,0,0.8-0.1,0.8,0.8c0,0.5,0,1,0,1.5c0,0.7,0.1,0.7-0.7,0.7
			c-0.6,0-1.1,0-1.7,0C186.8,63.1,182.9,63.1,178.9,63.1z"/>
		<path class="st4" d="M68,156.4c-0.9,0-1.9,0-2.8,0s-1.6-0.4-2-1.3c-0.3-0.6-0.1-1.3,0.3-1.8c0.5-0.6,1.1-0.8,1.9-0.8
			c0.9,0,1.7,0,2.6,0c0.2-0.2,0.4-0.2,0.7-0.2c0.9,0,1.8,0,2.8,0c1.6,0,3.2,0,4.8,0c1,0,1.9,0,2.9,0c0.2,0,0.5,0,0.7,0.2
			c0.9,0,1.8,0,2.7,0c0.6,0,1.1,0.2,1.5,0.6c1,0.9,0.8,2.3-0.3,3c-0.4,0.3-0.9,0.4-1.3,0.4c-0.9,0-1.7,0-2.6,0c-0.7,0.1-1.3,0-2,0
			c-0.6,0-1.1,0-1.7,0.1c-1.6,0-3.2,0-4.7,0c-0.9-0.2-1.9-0.1-2.8-0.1C68.4,156.4,68.2,156.5,68,156.4z"/>
		<path class="st4" d="M68,181.2c-0.9,0-1.9,0-2.8,0c-0.5,0-0.9-0.2-1.3-0.5c-0.7-0.5-0.8-1.2-0.6-2s0.7-1.1,1.5-1.3
			c0.3-0.1,0.6-0.1,0.8-0.1c1.8,0,3.5,0.2,5.3,0.1c0.2,0,0.5,0.1,0.6-0.1c0,0,0.1,0,0.1-0.1c0.4-0.2,0.9-0.1,1.3-0.1
			c1.1,0,2.2-0.1,3.3,0.1l0.1,0.1c0.1,0.1,0.2,0.1,0.3,0.1c1,0,2.1,0.1,3.1,0s2-0.1,3-0.1c0.9,0,1.7,0.6,2,1.3
			c0.5,1.3-0.7,2.6-1.8,2.6c-1,0-2,0-3,0c-0.2,0.2-0.5,0.2-0.8,0.2c-0.9,0-1.8,0-2.8,0c-1.6-0.1-3.2-0.1-4.8,0c-0.9-0.1-1.8,0-2.6,0
			C68.5,181.4,68.2,181.4,68,181.2z"/>
		<path class="st4" d="M67.9,95.1c-0.9,0-1.8,0-2.7,0c-0.7,0-1.3-0.2-1.7-0.7c-1.3-1.2-0.3-2.8,0.7-3.1c0.3-0.1,0.6-0.2,1-0.2
			c0.9,0,1.8,0,2.8,0c0.2-0.2,0.5-0.2,0.7-0.2c0.9,0,1.8,0,2.7,0c1.6,0,3.2,0,4.8,0c1,0,1.9,0,2.9,0c0.2,0,0.5,0,0.7,0.2
			c0.8,0,1.6,0,2.3,0c0.5,0,0.9,0.1,1.3,0.4c0.6,0.4,0.9,1,0.9,1.7c-0.1,0.9-0.6,1.4-1.4,1.7c-0.3,0.1-0.7,0.2-1,0.1
			c-0.7,0-1.4,0-2,0c-0.2,0.2-0.4,0.2-0.7,0.2c-1,0-1.9,0-2.9,0c-1.6,0-3.2,0-4.8,0c-0.9,0-1.8,0-2.8,0
			C68.4,95.3,68.2,95.3,67.9,95.1z"/>
		<path class="st4" d="M67.9,194.3c-0.8,0-1.7,0-2.5,0c-0.7,0-1.3-0.3-1.8-0.8c-0.8-1.1-0.3-2.2,0.7-2.8c0.4-0.2,0.8-0.3,1.2-0.3
			c0.8,0,1.6,0,2.4,0c0.2-0.2,0.4-0.2,0.7-0.2c0.9,0,1.8,0,2.8,0c1.6,0,3.2,0,4.8,0c1,0,2,0,3,0c0.2,0,0.5,0,0.7,0.2
			c0.8,0,1.7,0,2.5,0c0.9,0,1.6,0.3,2,1.2c0.4,0.7,0.3,1.4-0.3,2c-0.5,0.5-1.1,0.7-1.8,0.7c-0.8,0-1.7,0-2.5,0
			c-0.2,0.2-0.4,0.2-0.6,0.2c-1,0-2,0-3.1,0c-1.6,0-3.2,0-4.8,0c-0.9,0-1.9,0-2.8,0C68.4,194.5,68.1,194.5,67.9,194.3z"/>
		<path class="st4" d="M67.9,168.6c-0.8,0-1.6,0-2.3,0c-0.4,0-0.9-0.1-1.2-0.3c-0.7-0.4-1.1-1-1.1-1.7s0.4-1.3,1.1-1.6
			c0.4-0.2,0.7-0.3,1.1-0.3c0.8,0,1.6,0,2.4,0c0.2-0.2,0.4-0.2,0.7-0.2c0.9,0,1.8,0,2.8,0c1.6,0,3.2,0,4.8,0c1,0,1.9,0,2.9,0
			c0.2,0,0.5,0,0.7,0.2c1,0,2,0,3,0c0.9,0,1.7,0.6,1.9,1.4c0.4,1.3-0.5,2.5-1.9,2.6c-0.9,0.1-1.8,0-2.7,0c-0.1,0-0.2,0-0.4,0
			c-0.6,0.1-1.1,0-1.7,0.1c-0.6,0-1.3,0-1.9,0.1c-1.6-0.1-3.2-0.1-4.8,0c-1-0.1-1.9-0.1-2.9-0.1C68.3,168.6,68.1,168.7,67.9,168.6z"
			/>
		<path class="st4" d="M67.9,119.4c-0.9,0-1.7,0-2.6,0c-0.6,0-1.2-0.2-1.7-0.6c-0.8-0.7-0.9-2.3,0.4-3c0.4-0.2,0.8-0.4,1.3-0.3
			c0.9,0,1.8,0,2.6,0c0.2-0.2,0.5-0.2,0.7-0.2c0.9,0,1.8,0,2.7,0c1.6,0,3.2,0,4.8,0c1,0,1.9,0,2.9,0c0.2,0,0.5,0,0.7,0.2
			c0.8,0,1.6,0,2.3,0c0.5,0,1,0.2,1.4,0.5c0.5,0.4,0.9,1,0.8,1.7c-0.1,0.8-0.7,1.4-1.4,1.6c-0.3,0.1-0.6,0.2-1,0.1
			c-0.7,0-1.4,0-2.1,0c-0.2,0.2-0.4,0.2-0.7,0.2c-1,0-1.9,0-2.9,0c-1.6,0-3.2,0-4.8,0c-0.9,0-1.8,0-2.8,0
			C68.4,119.6,68.2,119.6,67.9,119.4z"/>
		<path class="st4" d="M71.4,66.3c1.6,0,3.2,0,4.8,0c0.2-0.1,0.4-0.2,0.6-0.2c0.8,0,1.6,0,2.4,0c0.2,0,0.4,0,0.6,0.2
			c0.8,0,1.6,0,2.4,0c0.7,0,1.3,0.3,1.8,0.8c0.7,0.8,0.6,2.2-0.9,2.9c-0.3,0.1-0.7,0.2-1,0.2c-0.8,0-1.5,0-2.3,0
			c-0.8,0.1-1.5,0-2.3,0c-0.5,0-0.9,0-1.3,0.2c-1.6,0-3.2,0-4.8,0c-1-0.3-1.9-0.1-2.9-0.1c-0.2,0-0.4,0.1-0.6-0.1
			c-0.9,0-1.8,0-2.7,0c-0.5,0-0.9-0.1-1.4-0.4c-1.2-0.7-1.2-2.5,0.1-3.2c0.4-0.2,0.8-0.3,1.3-0.3c0.9,0,1.8,0,2.7,0
			c0.1-0.1,0.3-0.2,0.5-0.2c0.8,0,1.6,0,2.4,0C71.1,66.1,71.3,66.2,71.4,66.3z"/>
		<path class="st4" d="M68,82.7c-1-0.1-1.9,0-2.9,0c-0.6,0-1.1-0.2-1.5-0.6c-1.2-1.1-0.5-2.8,0.7-3.2c0.4-0.1,0.7-0.2,1.1-0.2
			c0.8,0,1.7,0,2.5,0c0.2-0.2,0.4-0.2,0.7-0.2c0.9,0,1.8,0,2.8,0c1.4,0,2.8,0,4.2,0c0.2,0,0.4,0,0.6,0.1l0.1,0.1
			c0.1,0.1,0.2,0.1,0.3,0.1c1,0,2.1,0.1,3.1,0c0.8-0.1,1.6-0.1,2.5-0.1c0.8,0,1.5,0.4,1.9,1c0.6,1,0.1,2.3-0.9,2.7
			c-0.3,0.1-0.7,0.2-1,0.2c-0.8,0-1.5,0-2.3,0c-0.2,0.2-0.5,0.2-0.8,0.2c-0.9,0-1.8,0-2.8,0c-1.6-0.1-3.2-0.1-4.8,0
			c-0.9-0.1-1.8,0-2.6,0C68.5,82.8,68.2,82.8,68,82.7z"/>
		<path class="st4" d="M67.9,132.5c-0.8,0-1.5,0-2.3,0c-0.6,0-1.2-0.1-1.7-0.3c-0.7-0.4-1.1-1-1.1-1.7c0-0.8,0.4-1.4,1.1-1.7
			c0.5-0.3,1-0.4,1.5-0.3c0.9,0.2,1.7,0.1,2.6,0.1c0.2-0.2,0.5-0.2,0.7-0.2c0.9,0,1.8,0,2.6,0c1.6,0,3.2,0,4.8,0c0.9,0,1.8,0,2.8,0
			c0.2,0,0.5,0,0.7,0.2c0.9,0,1.8,0,2.8,0s2,0.8,2,1.8c0,0.6-0.2,1.1-0.6,1.5c-0.5,0.4-1.1,0.6-1.7,0.6c-0.8,0-1.6,0.1-2.3,0
			c-0.3,0.2-0.5,0.1-0.8,0.1c-0.9,0-1.8,0-2.7,0c-1.6-0.1-3.2-0.1-4.8,0c-0.9-0.1-1.8,0-2.8-0.1C68.4,132.6,68.2,132.6,67.9,132.5z"
			/>
		<path class="st4" d="M68,144.4c-1.2,0.1-2.3,0.2-3.5-0.1c-1.1-0.2-1.8-1.2-1.5-2.4c0.2-0.8,1-1.4,1.8-1.4c1.1,0,2.2,0,3.3,0
			c0.2-0.2,0.5-0.2,0.7-0.2c0.9,0,1.8,0,2.6,0c1.6,0,3.2,0,4.8,0c0.9,0,1.8,0,2.8,0c0.2,0,0.5,0,0.7,0.2c0.9,0,1.8,0,2.6,0
			c1,0,1.6,0.5,1.9,1.4c0.2,0.7-0.1,1.5-0.6,1.9s-1.1,0.5-1.7,0.6c-0.7,0-1.5,0.1-2.2,0c-0.2,0.2-0.5,0.2-0.7,0.2c-1,0-1.9,0-2.9,0
			c-1.6,0-3.2,0-4.8,0.1c-0.9-0.1-1.8,0-2.6-0.1C68.5,144.6,68.2,144.6,68,144.4z"/>
		<path class="st3" d="M142.9,161.2c-3.9,0-7.9,0-11.8,0c-0.1,0-0.2,0-0.4,0c-0.5,0-0.5,0-0.5-0.6c0-0.7,0-1.3,0-2
			c0-0.6,0-0.6,0.6-0.6c0.1,0,0.1,0,0.2,0c8,0,15.9,0,23.9,0c0.8,0,0.8-0.1,0.8,0.8c0,0.6,0,1.2,0,1.7c0,0.6,0,0.6-0.6,0.6
			c-0.8,0-1.7,0-2.5,0C149.3,161.2,146.1,161.2,142.9,161.2z"/>
		<path class="st3" d="M142.9,197.2c4,0,7.9,0,11.9,0c0.1,0,0.3,0,0.4,0c0.2,0,0.4,0.1,0.4,0.3c0,0.8,0,1.6,0,2.4
			c0,0.2-0.1,0.3-0.3,0.3c-0.1,0-0.3,0-0.4,0c-8,0-15.9,0-23.9,0c-0.8,0-0.8,0.1-0.8-0.8c0-0.6,0-1.3,0-1.9c0-0.3,0.1-0.5,0.4-0.4
			c0.1,0,0.3,0,0.4,0C135,197.2,139,197.2,142.9,197.2z"/>
		<path class="st3" d="M142.9,174.8c-4,0-8,0-12,0c-0.8,0-0.7,0-0.7-0.7c0-0.6,0-1.3,0-1.9c0-0.4,0-0.4,0.5-0.4c0.1,0,0.2,0,0.3,0
			c8,0,15.9,0,23.9,0c0.8,0,0.8-0.1,0.8,0.8c0,0.6,0,1.2,0,1.9c0,0.5,0,0.5-0.5,0.5c-0.1,0-0.3,0-0.4,0
			C150.8,174.8,146.8,174.8,142.9,174.8z"/>
		<path class="st3" d="M143,184.7c4,0,7.9,0,11.9,0c0.8,0,0.7,0,0.7,0.7c0,0.6,0,1.3,0,1.9c0,0.4,0,0.4-0.5,0.4c-0.1,0-0.2,0-0.3,0
			c-8,0-15.9,0-23.9,0c-0.8,0-0.8,0.1-0.8-0.8c0-0.6,0-1.3,0-1.9c0-0.3,0.1-0.4,0.4-0.4c0.1,0,0.3,0,0.4,0
			C135,184.7,139,184.7,143,184.7z"/>
		<path class="st4" d="M68,107.1c-0.9,0-1.7,0-2.6,0c-0.6,0-1.1-0.2-1.5-0.7c-0.9-1-0.5-2.5,0.8-3c0.4-0.2,0.8-0.2,1.2-0.2
			c1.6,0,3.3,0.2,4.9,0.1c0.2,0,0.5,0.1,0.6-0.1l0.1-0.1c0.4-0.2,0.9-0.1,1.3-0.1c1.1,0,2.2-0.1,3.3,0.1l0.1,0.1
			c0.1,0.2,0.2,0.1,0.4,0.1c1,0,2,0.1,3,0c0.8-0.1,1.6-0.1,2.4-0.1c0.7,0,1.2,0.2,1.7,0.7c0.7,0.7,0.8,2.1-0.3,2.8
			c-0.4,0.3-0.9,0.4-1.4,0.4c-0.7,0-1.5,0-2.2,0c-0.2,0.2-0.5,0.2-0.8,0.2c-0.9,0-1.8,0-2.8,0c-1.6-0.1-3.2-0.1-4.8,0
			c-0.9-0.1-1.8,0-2.6,0C68.5,107.3,68.2,107.3,68,107.1z"/>
		<path class="st3" d="M79.9,190.3c-1.2,0.1-2.5,0-3.7,0c-0.2-0.2-0.2-0.5-0.2-0.8c0-2.5,0-5,0-7.4c0-0.3,0-0.5,0.2-0.8
			c0.1-0.1,0.2-0.1,0.3-0.1c1.1,0,2.2-0.1,3.3,0c0.1,2.8,0.1,5.6,0.1,8.4C79.9,189.8,79.9,190.1,79.9,190.3z"/>
		<path class="st3" d="M79.7,128.5c-1.1,0-2.3,0-3.4,0c-0.2-0.2-0.2-0.5-0.2-0.7c0-2.6,0-5.1,0-7.7c0-0.2,0-0.5,0.2-0.7
			c1.2,0,2.4,0,3.6,0c0,2.8,0,5.6,0,8.4C79.8,128.1,79.9,128.3,79.7,128.5z"/>
		<path class="st3" d="M76.2,168.6c0.2-0.1,0.4-0.1,0.7-0.1c0.8,0,1.6,0,2.4,0c0.2,0,0.4,0,0.5,0.1c0,2.6,0,5.1,0,7.7
			c0,0.1,0,0.3,0,0.4c0,0.5,0,0.5-0.5,0.5c-1,0-2.1,0-3.1,0l0,0c-0.2-0.2-0.2-0.5-0.2-0.8c0-2.3,0-4.7,0-7
			C76,169.1,76,168.8,76.2,168.6z"/>
		<path class="st3" d="M79.8,66.3c-1.2,0-2.4,0-3.6,0c0-2.9,0-5.8,0-8.7c1,0,2.1,0,3.1,0c0.5,0,0.5,0,0.5,0.5c0,1.4,0,2.7,0,4.1
			S79.8,65,79.8,66.3z"/>
		<path class="st3" d="M76.2,82.7c0.1-0.1,0.2-0.1,0.3-0.1c1.1,0,2.2,0,3.3,0c0,2.8,0,5.6,0,8.5c-1.2,0-2.4,0-3.6,0
			C76,90.9,76,90.6,76,90.3c0-2.3,0-4.6,0-6.8C76,83.2,76,83,76.2,82.7z"/>
		<path class="st3" d="M76.2,70.4c0.1-0.2,0.3-0.2,0.5-0.2c0.9,0,1.9,0,2.8,0c0.1,0,0.2,0.1,0.3,0.1c0,2.5,0,5,0,7.5
			c0,0.1,0,0.3,0,0.4c0,0.3-0.1,0.4-0.4,0.4c-1,0-2.1,0-3.1,0l0,0C76,78.4,76,78.1,76,77.9c0-2.2,0-4.5,0-6.7
			C76,70.9,76,70.6,76.2,70.4z"/>
		<path class="st3" d="M76.2,107.2c0.1-0.1,0.2-0.1,0.3-0.1c1.1,0,2.2-0.1,3.3,0c0,2.6,0,5.3,0,7.9c0,0.2,0,0.3,0,0.5
			c-1.2,0-2.4,0-3.6,0c-0.2-0.2-0.2-0.5-0.2-0.8c0-2.2,0-4.5,0-6.7C76,107.7,76,107.4,76.2,107.2z"/>
		<path class="st3" d="M79.8,164.6c-1.2,0-2.4,0-3.6,0c-0.2-0.2-0.2-0.5-0.2-0.8c0-2.2,0-4.4,0-6.6c0-0.3,0-0.6,0.2-0.8
			c0.2-0.1,0.5-0.1,0.7-0.1c0.8,0,1.5,0,2.3,0c0.2,0,0.4,0,0.6,0.1C79.8,159.1,79.8,161.9,79.8,164.6z"/>
		<path class="st3" d="M79.7,140.5c-1.1,0-2.3,0-3.4,0c-0.2-0.2-0.2-0.5-0.2-0.8c0-2.2,0-4.3,0-6.5c0-0.3,0-0.5,0.2-0.8
			c0.1,0,0.1-0.1,0.2-0.1c1.1,0,2.3-0.1,3.4,0c0,2.5,0,5,0,7.6C79.8,140.2,79.8,140.4,79.7,140.5z"/>
		<path class="st3" d="M76.2,194.3c1.2,0,2.5,0,3.7,0c0,1.3,0.1,2.6,0,3.9c-0.1,1.3,0,2.6-0.1,3.9l0,0c-1.1,0.1-2.3,0-3.4,0.1
			c-0.1,0-0.2-0.1-0.2-0.2c-0.1-0.2-0.1-0.4-0.1-0.6c0-2.1,0-4.3,0-6.4C76,194.8,76,194.5,76.2,194.3z"/>
		<path class="st3" d="M76.2,144.4c1.2,0,2.4-0.1,3.6,0c0,2.7,0,5.3,0,8c-1.2,0-2.4,0-3.6,0c-0.2-0.2-0.2-0.5-0.2-0.8
			c0-2.1,0-4.3,0-6.4C76,144.9,76,144.6,76.2,144.4z"/>
		<path class="st3" d="M76.2,95.1c1.2,0,2.4,0,3.6,0c0,2.4,0,4.8,0,7.2c0,0.1,0,0.3,0,0.4c0,0.3-0.1,0.4-0.4,0.4c-1,0-2.1,0-3.1,0
			l0,0c-0.2-0.2-0.2-0.5-0.2-0.8c0-2.1,0-4.3,0-6.4C76,95.6,76,95.3,76.2,95.1z"/>
		<path class="st3" d="M189.1,115c-1,0-2,0-3,0c-0.5,0-0.6,0-0.6-0.6c0-0.7,0-1.4,0-2.1c0-0.5,0.1-0.5,0.5-0.5c2.1,0,4.1,0,6.2,0
			c0.5,0,0.5,0.1,0.5,0.5c0,0.7,0,1.4,0,2.2c0,0.4-0.1,0.5-0.5,0.5C191.2,115,190.2,115,189.1,115z"/>
		<path class="st3" d="M189.1,89c-1,0-2,0-3,0c-0.5,0-0.6,0-0.6-0.6c0-0.7,0-1.4,0-2.1c0-0.5,0.1-0.5,0.5-0.5c2.1,0,4.2,0,6.3,0
			c0.4,0,0.5,0.1,0.5,0.5c0,0.7,0,1.5,0,2.2c0,0.4-0.1,0.5-0.5,0.5C191.2,89,190.2,89,189.1,89z"/>
		<path class="st3" d="M189.2,72.4c1,0,2,0,3,0c0.5,0,0.6,0.1,0.6,0.6c0,0.6,0,1.3,0,1.9c0,0.5-0.1,0.5-0.5,0.6c-0.1,0-0.3,0-0.4,0
			c-1.9,0-3.7,0-5.6,0c-0.6,0-0.7,0-0.7-0.6c0-0.7,0-1.4,0-2c0-0.4,0.1-0.5,0.5-0.5C187.1,72.4,188.1,72.4,189.2,72.4L189.2,72.4z"
			/>
		<path class="st3" d="M189.2,98.5c1,0,2,0,3,0c0.6,0,0.6,0,0.6,0.5c0,0.7,0,1.3,0,2c0,0.5,0,0.6-0.5,0.6c-2.1,0-4.1,0-6.2,0
			c-0.5,0-0.5-0.1-0.5-0.5c0-0.7,0-1.4,0-2c0-0.5,0-0.5,0.5-0.5C187.1,98.5,188.2,98.5,189.2,98.5z"/>
		<path class="st3" d="M189.1,128.6c-1,0-2,0-3,0c-0.5,0-0.5,0-0.5-0.5c0-0.7,0-1.4,0-2.2c0-0.3,0.1-0.4,0.4-0.4c2.1,0,4.2,0,6.3,0
			c0.4,0,0.5,0.1,0.5,0.5c0,0.7,0,1.4,0,2c0,0.5-0.1,0.5-0.5,0.5C191.2,128.6,190.2,128.6,189.1,128.6L189.1,128.6z"/>
		<path class="st11" d="M76.2,202c0.2,0.2,0.4,0.1,0.6,0.1c1,0,2,0,3,0c-0.2,0.2-0.4,0.1-0.6,0.1c-3.6,0-7.1,0-10.7,0
			c-0.2,0-0.4,0.1-0.6-0.1c0,0,0,0,0-0.1c0.3-0.2,0.6-0.1,0.9-0.2c0.9,0,1.7,0.1,2.6-0.1c1.4-0.1,2.8,0,4.2,0
			C75.9,201.9,76.1,201.9,76.2,202z"/>
		<path class="st3" d="M71.4,190.3c-1.2,0-2.3,0-3.5,0c-0.1-0.2-0.1-0.5-0.1-0.7c0-1.5-0.1-3.1,0-4.6c0.1-1.3,0.1-2.5,0.1-3.8
			c1-0.1,2.1,0,3.2,0c0.1,0,0.2,0,0.3,0.1c0.2,0.2,0.2,0.5,0.2,0.8c0,2.4,0,4.9,0,7.3C71.6,189.7,71.6,190.1,71.4,190.3z"/>
		<path class="st3" d="M71.4,128.6c-1.1,0-2.2,0-3.3,0c-0.2-0.2-0.1-0.5-0.1-0.7c0-2.8,0-5.6,0-8.4c1.2-0.1,2.3,0,3.5,0
			c0.2,0.2,0.2,0.4,0.2,0.7c0,2.6,0,5.1,0,7.7C71.6,128.1,71.6,128.4,71.4,128.6z"/>
		<path class="st3" d="M67.9,168.6c0.1-0.1,0.3-0.1,0.4-0.1c0.8,0,1.7,0,2.5,0c0.2,0,0.4,0.1,0.5,0.1c0.2,0.2,0.2,0.5,0.2,0.8
			c0,2.3,0,4.7,0,7c0,0.3,0,0.6-0.2,0.8l0,0c-1,0-1.9,0-2.9,0c-0.5,0-0.5,0-0.5-0.6c0-2.5,0-5,0-7.5C67.9,169,67.9,168.8,67.9,168.6
			z"/>
		<path class="st3" d="M71.4,66.3c-1.2,0-2.3,0-3.5,0c0-2.7,0-5.4,0-8.1c0-0.5,0-0.5,0.6-0.5c1,0,1.9,0,2.9,0
			C71.4,60.6,71.4,63.4,71.4,66.3z"/>
		<path class="st3" d="M68,82.7c1.1,0,2.1,0,3.2,0c0.1,0,0.2,0,0.3,0.1c0.2,0.2,0.2,0.5,0.2,0.8c0,2.2,0,4.5,0,6.7
			c0,0.3,0,0.6-0.2,0.9c-1.1,0-2.3,0-3.4,0C68,88.3,68,85.5,68,82.7z"/>
		<path class="st3" d="M71.4,78.7c-1.2,0-2.3,0-3.5,0c0-2.8,0-5.6,0-8.4c0.2-0.1,0.3-0.1,0.5-0.1c0.8,0,1.5,0,2.3,0
			c0.2,0,0.5,0,0.6,0.2c0.2,0.2,0.2,0.5,0.2,0.8c0,2.2,0,4.5,0,6.7C71.6,78.1,71.6,78.4,71.4,78.7z"/>
		<path class="st3" d="M68,107.1c1.1-0.1,2.1,0,3.2,0c0.1,0,0.2,0.1,0.3,0.1c0.2,0.2,0.2,0.5,0.2,0.8c0,2.2,0,4.4,0,6.6
			c0,0.3,0,0.6-0.2,0.9c-1.1,0-2.3,0-3.4,0C68,112.7,68,109.9,68,107.1z"/>
		<path class="st3" d="M71.4,164.6c-1.1,0-2.3,0-3.4,0c0-2.8,0-5.5,0-8.3c0.1,0,0.2-0.1,0.3-0.1c0.9,0,1.9,0,2.8,0
			c0.1,0,0.2,0.1,0.4,0.1c0.2,0.2,0.2,0.5,0.2,0.8c0,2.2,0,4.4,0,6.6C71.6,164.1,71.6,164.4,71.4,164.6z"/>
		<path class="st3" d="M71.4,140.5c-1.1,0-2.2,0-3.3,0c-0.2-0.2-0.1-0.5-0.1-0.7c0-2.2,0-4.4,0-6.6c0-0.2,0-0.4,0-0.7
			c0.1-0.1,0.2-0.1,0.3-0.1c0.9,0,1.8,0,2.7,0c0.2,0,0.3,0,0.5,0.1c0.2,0.2,0.2,0.5,0.2,0.8c0,2.1,0,4.2,0,6.3
			C71.6,140,71.6,140.3,71.4,140.5z"/>
		<path class="st3" d="M71.4,202c-0.1,0.1-0.2,0.1-0.4,0.1c-1,0-2,0-3.1,0c0,0,0,0,0-0.1c0-2.4-0.2-4.8-0.1-7.2c0-0.2,0-0.4,0.1-0.6
			c1.2,0,2.3,0,3.5,0c0.2,0.2,0.2,0.5,0.2,0.8c0,2.1,0,4.1,0,6.2C71.6,201.5,71.6,201.8,71.4,202z"/>
		<path class="st3" d="M67.9,95.1c1.2-0.1,2.3,0,3.5,0c0.2,0.2,0.2,0.5,0.2,0.8c0,2.1,0,4.3,0,6.4c0,0.3,0,0.6-0.2,0.8l0,0
			c-1,0-1.9,0-2.9,0c-0.5,0-0.5,0-0.5-0.6C67.9,100.1,67.9,97.6,67.9,95.1z"/>
		<path class="st3" d="M68,144.4c1.1-0.1,2.1,0,3.2,0c0.1,0,0.2,0.1,0.3,0.1c0.2,0.2,0.2,0.5,0.2,0.7c0,2.2,0,4.3,0,6.5
			c0,0.3,0,0.5-0.2,0.8c-1.1,0-2.3,0-3.4,0C68,149.7,68,147.1,68,144.4z"/>
		<path class="st8" d="M111.8,73.7c0,3.9-3,7.6-7.5,7.6c-4.2,0-7.6-3.2-7.6-7.6c0-4.6,3.6-7.6,7.5-7.6
			C108.5,66.2,111.8,69.7,111.8,73.7z"/>
		<path class="st8" d="M111.8,100.6c0,4-3.2,7.6-7.6,7.6c-3.8,0-7.6-2.9-7.6-7.6c0-4.5,3.4-7.6,7.6-7.6
			C108.9,93,111.9,96.9,111.8,100.6z"/>
		<path class="st12" d="M110.4,151.3c-0.3,0-0.6,0-0.9,0c-0.5,0-0.8-0.2-0.8-0.7c-0.1-0.6-0.2-1.3-0.3-1.9c0-0.3-0.2-0.6-0.4-0.8
			c-0.5-0.8-1-1.5-1.5-2.3c-0.6-0.9-1.1-1.8-1.4-2.9c-0.2-0.7-0.2-1.4-0.1-2.1c0.2-1,0.9-1.6,1.6-2.2c0.5-0.4,1.2-0.6,1.8-0.7
			c1.6-0.3,3.2-0.3,4.8,0.3c1.1,0.4,1.8,1.1,2.3,2.1c0.6,1.3,0.6,2.6-0.1,4c-0.7,1.3-1.5,2.6-2.4,3.8c-0.4,0.6-0.6,1.2-0.7,1.9
			c0,0.3-0.1,0.7-0.2,1s-0.3,0.6-0.7,0.6C111,151.3,110.7,151.3,110.4,151.3L110.4,151.3z"/>
		<path class="st13" d="M108,136.7c0,0.2,0,0.3-0.2,0.4c-0.1,0-0.3,0-0.3-0.1c-0.3-0.4-0.5-0.9-0.7-1.4c0-0.1,0.1-0.2,0.2-0.3
			c0.1,0,0.2-0.1,0.3,0C107.6,135.8,107.8,136.3,108,136.7z"/>
		<path class="st14" d="M105.2,138.5c0,0.2-0.2,0.4-0.4,0.3c-0.5-0.3-0.9-0.5-1.3-0.9c-0.1-0.1-0.1-0.2-0.1-0.3
			c0.1-0.1,0.2-0.2,0.3-0.2c0.1,0,0.1,0,0.2,0c0.4,0.2,0.8,0.5,1.2,0.8C105.2,138.3,105.2,138.4,105.2,138.5z"/>
		<path class="st15" d="M103.7,141.1c-0.4-0.1-0.8-0.1-1.2-0.2c-0.2,0-0.3-0.1-0.3-0.3s0.2-0.3,0.4-0.3c0.4,0.1,0.9,0.1,1.3,0.2
			c0.2,0,0.3,0.1,0.3,0.3C104.1,141.1,104,141.2,103.7,141.1z"/>
		<path class="st16" d="M110.9,136.2c0.1-0.3,0.1-0.7,0.2-1.1c0-0.2,0.1-0.3,0.3-0.3c0.2,0,0.3,0.2,0.3,0.4
			c-0.1,0.4-0.1,0.8-0.2,1.1c0,0.2-0.2,0.3-0.4,0.3C111,136.7,110.9,136.5,110.9,136.2z"/>
		<path class="st17" d="M102.6,143.9c-0.2,0-0.3,0-0.3-0.2c-0.1-0.2,0-0.3,0.2-0.3c0.5-0.1,0.9-0.3,1.4-0.3c0.1,0,0.3,0,0.3,0.2
			s-0.1,0.3-0.2,0.4C103.6,143.7,103.1,143.8,102.6,143.9z"/>
		<path class="st15" d="M115.7,136.7c0,0-0.1,0.1-0.1,0.2c-0.3,0.3-0.6,0.6-0.9,0.9c-0.1,0.1-0.3,0.2-0.5,0c-0.1-0.2-0.1-0.3,0-0.4
			c0.3-0.3,0.6-0.6,0.9-0.9c0.1-0.1,0.2-0.2,0.4-0.1C115.6,136.5,115.7,136.6,115.7,136.7z"/>
		<path class="st18" d="M116.6,140.8c-0.2,0-0.3-0.1-0.4-0.3c0-0.2,0.1-0.3,0.2-0.3c0.4-0.1,0.8-0.2,1.1-0.3c0.2,0,0.4,0,0.4,0.2
			c0.1,0.2-0.1,0.3-0.3,0.4C117.4,140.6,117,140.7,116.6,140.8z"/>
		<path class="st13" d="M117,142.9c0.3,0.1,0.7,0.1,1.1,0.2c0.2,0,0.3,0.1,0.3,0.3s-0.2,0.2-0.4,0.2c-0.4-0.1-0.8-0.1-1.1-0.2
			c-0.2,0-0.4-0.1-0.3-0.3C116.5,142.8,116.7,142.9,117,142.9z"/>
		<path class="st19" d="M116,145c0.4,0.2,0.9,0.4,1.2,0.8c0.1,0.1,0,0.2,0,0.3c-0.1,0.1-0.2,0.2-0.3,0.1c-0.4-0.2-0.8-0.4-1.1-0.6
			c-0.1-0.1-0.2-0.2-0.1-0.3C115.8,145.1,115.9,145,116,145z"/>
		<path class="st20" d="M103.9,146.2c-0.2,0-0.3,0-0.4-0.2c-0.1-0.1,0-0.2,0.1-0.3c0.3-0.3,0.7-0.5,1-0.7c0.1-0.1,0.3,0,0.4,0.1
			c0.1,0.2,0,0.3-0.2,0.4C104.6,145.8,104.3,146.1,103.9,146.2z"/>
		<path class="st21" d="M140.5,143.1c0.6,0.1,1.3,0.1,2,0.1c0.4,0,0.4,0,0.4-0.5c-0.1-1-0.1-2,0-3c0.1-0.5,0-1,0.2-1.5
			c0.4-1.6,1.2-2.9,2.6-3.8c0.3-0.2,0.4-0.1,0.6,0.1c0.3,0.3,0.6,0.5,0.8,0.8c0.2,0.2,0.4,0.3,0.3,0.6c0,0.1,0.1,0.2,0.2,0.3
			c0.9,0.8,1.7,1.6,2.5,2.4c0.1,0.1,0.2,0.3,0.4,0.1c0.1-0.1,0.2,0,0.2,0.1c0.4,0.4,0.9,0.8,1.3,1.2c0.2,0.2,0.2,0.4,0.1,0.6
			c-0.6,1.6-1.7,2.6-3.2,3.3c-1,0.5-2.1,0.5-3.3,0.5c-1.1,0-1.1,0-1.1,1.1c0,0.8,0,1.7-0.4,2.5c-0.8,1.7-2.1,2.9-3.9,3.4
			c-0.4,0.1-0.8,0.1-1.1-0.3c-0.2-0.2-0.4-0.3-0.5-0.5c-0.1-0.1-0.3-0.2-0.2-0.5c0-0.1-0.1-0.2-0.2-0.3c-0.9-0.9-1.8-1.8-2.8-2.6
			c-0.1-0.1-0.1-0.1-0.2-0.1c-0.2,0-0.3,0.1-0.5-0.1c-0.4-0.4-0.8-0.7-1.2-1.1c-0.1-0.2-0.1-0.3,0.1-0.4c0.8-0.9,1.7-1.6,2.9-1.9
			c0.9-0.3,1.8-0.4,2.8-0.4C139.8,143.3,140.1,143.2,140.5,143.1z"/>
		<path class="st22" d="M183.3,141.7c0.3,0.2,0.6,0.4,0.8,0.7c0.4,0.5,0.7,1.1,0.4,1.8c-0.2,0.4-0.6,0.6-0.9,0.8
			c0.2,0.3,0.4,0.5,0.4,0.9c0.2,1-0.5,2-1.4,2c-0.3,0-0.4,0.1-0.4,0.4c0,0.3-0.1,0.5-0.2,0.8c-0.2,0.5-0.6,0.8-1.2,0.8
			c-0.4,0-0.7,0-1.1-0.2c-0.2-0.1-0.3,0-0.5,0.1c-0.7,0.8-2,0.9-2.8,0.2c-0.3-0.2-0.4-0.5-0.4-0.9c0-0.8,0-1.7,0-2.5
			c0-3.1,0-6.3,0-9.4c0-0.7,0.1-0.7,0.7-0.8c0.8,0,1.3,0.3,1.7,0.8c0.2,0.2,0.3,0.3,0.6,0.2c0.9-0.2,1.8,0.4,2,1.3
			c0.1,0.3,0.2,0.4,0.5,0.4c0.2,0,0.4,0,0.5,0.1c1,0.3,1.4,1.1,1,2.1C183.4,141.5,183.3,141.6,183.3,141.7z"/>
		<path class="st23" d="M168.5,145c-1.5-0.5-1.1-2.1-0.2-2.8c0.2-0.1,0.4-0.3,0.6-0.4c0-0.1,0-0.1-0.1-0.2c-0.6-1.2,0-2.2,1.3-2.4
			c0.5-0.1,0.5-0.1,0.7-0.6c0.1-0.6,0.6-0.8,1.1-1c0.3-0.1,0.6-0.2,0.9-0.1c0.3,0.1,0.4,0,0.6-0.2c0.5-0.6,1.1-0.9,1.9-0.8
			c0.5,0,0.6,0.1,0.6,0.6c0,4,0,8,0,12c0,0.5-0.2,0.8-0.5,1c-0.6,0.4-1.3,0.4-2,0.2c-0.1,0-0.3-0.1-0.4-0.2
			c-0.4-0.3-0.7-0.4-1.2-0.3c-1.2,0.2-1.8-0.4-1.9-1.6c0-0.3-0.1-0.4-0.4-0.4c-1.2-0.2-1.7-1.3-1.2-2.4
			C168.3,145.3,168.4,145.1,168.5,145z"/>
		<path class="st24" d="M102,75.9c0.4-0.6,0.7-1.2,1.1-1.8c1-1.5,2.1-3,3.4-4.2c0.7-0.6,1.4-0.6,1.9,0.1c0.3,0.4,0.3,1.2-0.1,1.5
			c-1.3,1-2.2,2.3-3.1,3.6c-0.7,1-1.2,2-1.5,3.2c-0.2,0.9-1,1.1-1.8,0.8c-0.4-0.2-0.8-0.5-1.1-0.9c-0.4-0.5-0.9-1-1.4-1.4
			s-0.6-0.9-0.3-1.4c0.2-0.5,0.8-0.8,1.3-0.6c0.4,0.1,0.8,0.3,1.1,0.6C101.6,75.5,101.7,75.8,102,75.9z"/>
		<path class="st24" d="M102,102.8c0.3-0.5,0.6-1.1,0.9-1.6c0.6-1,1.4-2,2.1-2.9c0.5-0.6,1-1.1,1.6-1.6c0.4-0.3,0.8-0.4,1.3-0.3
			c0.7,0.2,1,1.2,0.6,1.8c-0.1,0.1-0.2,0.3-0.4,0.4c-0.9,0.6-1.5,1.5-2.1,2.3c-0.6,0.9-1.2,1.7-1.7,2.7c-0.2,0.5-0.5,0.9-0.5,1.4
			c-0.1,1.1-1.4,1.5-2.3,0.7c-0.7-0.7-1.5-1.5-2.2-2.2c-0.4-0.4-0.5-1-0.2-1.5c0.3-0.4,0.9-0.6,1.5-0.3
			C101.2,102,101.6,102.4,102,102.8z"/>
		<path class="st8" d="M111.1,148.1c0.5-1.2,0.8-2.4,1.4-3.5c0.3-0.5,0.4-1,0.6-1.5s0.2-1,0.2-1.5c0-0.7-0.7-1.2-1.4-1.1
			c-0.3,0.1-0.5,0-0.8-0.1c-0.4-0.2-0.8-0.3-1.2,0c-0.2,0.1-0.4,0.1-0.6,0.1c-0.9-0.3-2.1,0.7-1.7,1.9c0.6,1.8,1.1,3.6,1.7,5.4
			c0,0.1,0.1,0.2,0.1,0.2c0,0.1,0,0.1-0.1,0.2c-0.1,0-0.2,0-0.2-0.1c-0.1-0.2-0.2-0.4-0.3-0.5c-0.7-1.2-1.5-2.3-2.2-3.5
			c-0.4-0.7-0.8-1.4-0.9-2.2c-0.2-1.7,0.8-2.8,2.4-3.4c0.7-0.2,1.4-0.3,2.1-0.4c1.1-0.1,2.1,0.2,3.1,0.6c0.4,0.1,0.7,0.5,0.9,0.8
			c0.5,0.6,0.8,1.4,0.9,2.1c0.1,0.6-0.1,1.1-0.3,1.7c-0.4,0.9-0.8,1.7-1.4,2.5c-0.5,0.7-0.9,1.4-1.4,2.1
			C111.8,148.2,111.5,148.3,111.1,148.1z"/>
		<path class="st8" d="M110.8,142.4c0.1,0.1,0.2,0.2,0.3,0.2c0.4,0.3,0.9,0.1,0.9-0.4c0-0.2,0-0.5,0-0.7s0.1-0.2,0.3-0.1
			c0.2,0.1,0.3,0.3,0.3,0.6c0,0.7-0.2,1.3-0.5,1.9c-0.7,1.3-1.2,2.7-1.7,4.1c0,0.1-0.1,0.3-0.2,0.3c-0.2,0-0.2-0.1-0.3-0.3
			c-0.3-0.8-0.5-1.7-0.8-2.5c-0.3-1.1-0.6-2.2-1-3.2c-0.2-0.5,0.1-1,0.6-1.1c0.3-0.1,0.4,0,0.4,0.3c0,0.1,0,0.2,0,0.4
			c-0.1,0.6,0.1,0.9,0.4,1c0.4,0.2,0.7-0.1,0.9-0.4C110.6,142.3,110.7,142.3,110.8,142.4z"/>
		<path class="st25" d="M110.8,142.4c-0.1,0-0.2,0-0.3,0c0-0.5,0.1-0.9-0.2-1.3c-0.1-0.1-0.1-0.2,0-0.2c0,0,0.1,0,0.2,0
			c0.4,0.1,0.6,0.3,0.4,0.7C110.8,141.8,110.8,142.1,110.8,142.4z"/>
		<path class="st26" d="M109.4,148.9c0.7,0,1.3,0,2,0C110.8,149.3,110.1,149.2,109.4,148.9z"/>
		<path class="st27" d="M111.1,150.4c-0.5,0.2-1,0.1-1.4,0.1C110.1,150.4,110.6,150.2,111.1,150.4z"/>
		<path class="st28" d="M111.2,149.7c-0.5,0.1-1.1,0.1-1.6,0C110.1,149.6,110.6,149.7,111.2,149.7z"/>
		<path class="st29" d="M109.9,141.6c0.1,0.2,0.1,0.4,0,0.5h-0.1C109.6,141.9,109.8,141.8,109.9,141.6z"/>
		<path class="st9" d="M140.5,149.2c0,0.2-0.1,0.2-0.2,0.3c-0.5,0.4-0.5,0.4-1-0.1c-1-0.9-2-1.8-3-2.8c-0.1-0.1-0.4-0.2-0.3-0.4
			c0.2-0.2,0.4-0.4,0.7-0.5c0.1,0,0.2,0.1,0.3,0.2c1,0.9,2,1.9,3,2.8C140.2,148.9,140.4,149,140.5,149.2z"/>
		<path class="st30" d="M146.6,136.6c0,0,0.1,0.1,0.2,0.1c1,1,2.1,2,3.1,3c0.3,0.2,0.2,0.7-0.2,0.9c-0.1,0-0.1,0-0.2,0
			c-0.1,0-0.1-0.1-0.2-0.2c-1-1-2.1-2-3.1-2.9c-0.1-0.1-0.3-0.2-0.2-0.3C146.1,137,146.3,136.8,146.6,136.6
			C146.5,136.6,146.5,136.6,146.6,136.6z"/>
		<path class="st30" d="M148.9,141.5c0,0.2-0.2,0.3-0.3,0.4c-0.2,0.1-0.3,0-0.4-0.1c-0.9-0.9-1.9-1.8-2.8-2.7
			c-0.2-0.2-0.2-0.6,0-0.8c0.1-0.1,0.2-0.1,0.3-0.1s0.1,0.1,0.2,0.2c1,0.9,1.9,1.8,2.9,2.8C148.8,141.3,148.9,141.4,148.9,141.5z"/>
		<path class="st30" d="M142.3,147.1c-0.9-0.9-1.9-1.6-2.7-2.6c0.3-0.1,0.5-0.1,0.8-0.2c0.4-0.1,0.7,0,0.9,0.3
			c0.4,0.4,0.7,0.7,1.1,1.1c0.2,0.2,0.3,0.3,0.2,0.6C142.5,146.6,142.4,146.8,142.3,147.1z"/>
		<path class="st31" d="M141.7,148c-0.1,0.4-0.4,0.5-0.6,0.3c-0.6-0.5-1.1-1.1-1.7-1.6c-0.5-0.4-0.9-0.8-1.4-1.3
			c-0.1-0.1-0.4-0.2-0.2-0.4s0.4-0.2,0.6-0.1c0.2,0.2,0.5,0.4,0.7,0.6c0.5,0.5,1,1,1.5,1.5c0.3,0.3,0.6,0.5,0.8,0.7
			C141.6,147.8,141.7,147.9,141.7,148z"/>
		<path class="st32" d="M147.5,142.5c-0.2,0.2-0.4,0.2-0.6,0c-0.3-0.3-0.5-0.6-0.8-0.8c-0.4-0.3-0.7-0.7-1.1-1
			c-0.1-0.1-0.3-0.2-0.3-0.4c0-0.1,0-0.2,0.1-0.2c0.1-0.1,0.2,0,0.2,0C145.9,141,146.8,141.7,147.5,142.5z"/>
		<path class="st33" d="M146.1,143.1c-0.4,0.2-0.8,0.2-1.1,0.2c-0.2,0-0.3,0-0.3-0.2c0-0.4-0.2-0.8,0.1-1.2
			C145.2,142.3,145.7,142.6,146.1,143.1z"/>
		<path class="st34" d="M142.7,144.4c0.1,0,0.2,0,0.2,0.2c0,0.1,0,0.1-0.1,0.1c-0.2,0-0.3-0.1-0.3-0.2
			C142.5,144.4,142.6,144.4,142.7,144.4z"/>
		<path class="st35" d="M177.1,143.2c0,0.1,0.1,0.2,0.1,0.4c-0.1,0.1,0,0.2,0,0.4c-0.1,0.7,0,1.5-0.1,2.2v0.1
			c0.1,0.4-0.1,0.8,0.1,1.2l0.1,0.1c0.1,0.1,0.1,0.2,0.2,0.2c0,0,0.1,0,0.1,0.1c0.3,0.2,0.7,0,1,0.3c0.4,0.3,0.7,0.6,0.5,1.1
			c-0.2,0.6-0.6,0.8-1.2,0.9c-0.3,0-0.5-0.1-0.8-0.2c-0.4-0.1-0.5-0.4-0.5-0.8c0-0.9,0-1.8,0-2.8c0-2.9,0-5.8,0-8.6
			c0-0.8,0.2-0.9,0.9-0.6c0.3,0.1,0.6,0.3,0.7,0.7c0.1,0.4,0.3,0.3,0.6,0.3c0.6-0.2,1.1-0.1,1.6,0.2s0.5,0.5,0.3,1.1
			c-0.3,0.2-0.5-0.1-0.8-0.2c-0.2-0.1-0.5-0.2-0.7-0.3h-0.1c-0.1-0.1-0.3,0-0.4-0.1l0,0l-0.1-0.1l0,0c-1.2-0.2-1.6,0.2-1.6,1.4
			c-0.1,0.3-0.2,0.6,0,0.8c0.1,0.2,0,0.3,0,0.5c0,0.4-0.2,0.7-0.1,1.1l0,0C177.3,142.6,177,142.9,177.1,143.2z"/>
		<path class="st10" d="M181.5,145.4c0.4-0.4,0.9-0.5,1.4-0.3c0.4,0.2,0.6,0.5,0.7,0.9c0,0.5-0.1,0.9-0.5,1.2
			c-0.2,0.2-0.5,0.1-0.7,0.1c-0.1,0-0.2-0.1-0.3-0.1c-0.1-0.1-0.2,0-0.3,0.1s-0.1,0.2,0,0.3c0.2,0.2,0.2,0.5,0.2,0.8
			c0,0.5-0.3,0.8-0.7,0.9c-0.4,0.2-0.8,0.1-1.2-0.2c-0.1-0.1-0.2-0.2-0.2-0.3c0-0.3-0.2-0.6-0.3-0.9c0-0.1,0-0.1,0-0.2l0,0
			c0.1-0.2,0.4-0.1,0.5-0.2l0,0h0.1h0.1c0.1-0.1,0.2,0,0.3-0.1s0.3-0.2,0.4-0.4c0.3-0.3,0.5-0.6,0.5-1.1
			C181.3,145.8,181.3,145.6,181.5,145.4L181.5,145.4z"/>
		<path class="st35" d="M182.9,142.1c0.6,0.2,0.9,0.6,1.1,1.1c0.2,0.5,0,1-0.5,1.2c-0.3,0.1-0.5,0.2-0.8,0.1c-0.1,0-0.1-0.1-0.2-0.1
			c-0.7,0-0.7,0-0.7-0.8c0-0.1,0.1-0.2,0.1-0.3c0-0.3,0.1-0.5,0.1-0.8C182.2,142.1,182.3,142.1,182.9,142.1z"/>
		<path class="st36" d="M181.9,141.1c-0.3-0.2-0.5-0.6-1-0.6c-0.1,0-0.2-0.2-0.1-0.3c0.1-0.3,0.4-0.6,0.7-0.5c0.3,0,0.5,0.1,0.8,0.2
			c0.4,0.1,0.7,0.4,0.7,0.8c0,0.5-0.1,0.9-0.6,1.1c-0.1,0-0.1,0.1-0.2,0.1C182,141.7,182.1,141.3,181.9,141.1z"/>
		<path class="st37" d="M180,147.6c-0.1,0.2-0.3,0.2-0.5,0.2c-0.3-0.1-0.5,0-0.7,0.1c-0.4,0.2-0.8,0.1-1.2-0.1l0,0
			c-0.1-0.1-0.2-0.1-0.3-0.3l0,0c-0.2-0.3-0.2-0.6-0.2-0.9c0-0.2,0.1-0.2,0.3-0.1c0,0.2,0.2,0.4,0.4,0.5c0.5,0.4,1.1,0.3,1.7,0.2
			c0.1,0,0.2,0,0.4,0l0,0C179.8,147.5,179.8,147.6,180,147.6z"/>
		<path class="st38" d="M177.1,139.9c-0.3-0.6-0.3-0.8,0.1-1.2c0.6-0.5,1-0.6,1.5-0.2c-0.1,0-0.2,0.1-0.2,0.1
			c-0.2,0.1-0.4-0.1-0.6,0c0.1,0.4-0.1,0.7-0.4,0.9c-0.1-0.1,0,0,0,0l0,0C177.4,139.8,177.3,139.9,177.1,139.9z"/>
		<path class="st39" d="M181.9,141.1c0.3,0.2,0.2,0.5,0.4,0.7c-0.1,0.1-0.1,0.2,0.1,0.2c0.2,0,0.4-0.1,0.6,0.1c-0.6,0-0.7,0-0.7,0.6
			c0,0.3,0,0.5-0.3,0.7c-0.4-0.4-0.4-0.4-0.1-0.7c0.2-0.2,0.2-0.4,0-0.6h-0.1c0,0,0,0-0.1,0c0,0,0,0-0.1,0c0-0.1-0.1-0.2-0.1-0.2
			c0.2,0,0.3-0.1,0.4-0.3C182,141.5,181.9,141.3,181.9,141.1z"/>
		<path class="st40" d="M177.1,146.1c-0.1-0.1-0.1-0.3-0.1-0.4c0-0.4,0-0.7-0.1-1.1c-0.1-0.3,0.2-0.5,0.2-0.8c0.1,0,0.1,0,0.1,0.1
			s0.4,0.2,0.1,0.4c-0.1,0-0.1,0.1-0.1,0.1c0.2,0.3,0.3-0.1,0.5-0.1c0.1,0.1,0.1,0.3,0.1,0.5c-0.1,0.3-0.2,0.6-0.6,0.5
			c-0.1,0.2,0,0.4,0.1,0.6C177.3,145.9,177.2,146,177.1,146.1z"/>
		<path class="st41" d="M179.5,147.3c-0.4,0.2-0.8,0.3-1.3,0.2c-0.3-0.1-0.4-0.2-0.5-0.4c0.1-0.1,0.2-0.3,0.4-0.2l0,0
			c0.1,0.2,0.4,0.2,0.4,0.4c0.1,0.2,0.2,0,0.3,0C179.1,147.3,179.3,147,179.5,147.3z"/>
		<path class="st42" d="M181.5,145.4c-0.3,0-0.3-0.3-0.5-0.4c-0.1-0.2,0-0.3,0.2-0.4c0.3-0.1,0.4-0.4,0.5-0.6
			c0.4,0.2,0.1,0.5,0.1,0.7C181.3,144.9,181.3,144.9,181.5,145.4L181.5,145.4z"/>
		<path class="st43" d="M179.3,138.8c0.5,0,0.9,0,1.2,0.4c0.1,0.1,0.2,0.1,0.3,0.1c-0.6,0.3-0.7,0.3-1.1-0.1
			C179.6,139,179.5,139,179.3,138.8z"/>
		<path class="st44" d="M177,142.4c-0.2-0.4-0.1-0.8,0.1-1.1C177.4,141.7,177.3,142.1,177,142.4z"/>
		<path class="st45" d="M181.8,141.7c0.1,0.4-0.2,0.3-0.4,0.3c-0.2-0.2-0.1-0.4-0.1-0.7C181.6,141.3,181.7,141.5,181.8,141.7z"/>
		<path class="st46" d="M177.8,141.2c0.1,0.3,0,0.6,0.2,0.9C177.6,141.8,177.5,141.7,177.8,141.2z"/>
		<path class="st47" d="M177.1,143.2c-0.2-0.2-0.1-0.5-0.1-0.8c0.1,0,0.2,0,0.4,0s0.2,0.1,0.1,0.2
			C177.2,142.7,177.2,143,177.1,143.2z"/>
		<path class="st48" d="M181.8,144.6c0-0.2,0.1-0.5-0.1-0.7c0-0.1,0.1-0.1,0.1-0.1c0.2,0.2,0,0.5,0.2,0.7s0.5,0,0.7,0.2
			C182.4,144.6,182.1,144.6,181.8,144.6z"/>
		<path class="st49" d="M177.4,146.6c-0.1,0-0.2,0.1-0.2,0.2c0,0.3,0.1,0.5,0.1,0.8c-0.3-0.1-0.2-0.4-0.3-0.6c0-0.3,0.1-0.5,0.1-0.8
			c0.1,0.1,0.2,0.2,0.2,0.2l0,0C177.4,146.5,177.4,146.6,177.4,146.6z"/>
		<path class="st50" d="M179.4,142.6c0.1,0,0.3-0.1,0.3,0.1c0,0.1,0.1,0.2,0,0.3c-0.3,0.2-0.3-0.2-0.5-0.2
			C179.1,142.7,179.3,142.8,179.4,142.6L179.4,142.6z"/>
		<path class="st51" d="M177.9,138.7c0.2-0.3,0.4-0.2,0.6,0c0,0.2-0.2,0.3-0.4,0.2C178.1,138.8,178,138.8,177.9,138.7z"/>
		<path class="st52" d="M181.8,142.2c0.3,0,0.3,0.3,0.2,0.4c0,0.1,0,0.3-0.3,0.2C181.8,142.6,181.8,142.4,181.8,142.2z"/>
		<path class="st49" d="M177.5,147.8c0.4,0.1,0.8,0.2,1.2,0.1v0.1C178.3,148,177.9,148.2,177.5,147.8z"/>
		<path class="st53" d="M179,141.2c-0.2-0.1-0.3-0.3-0.4-0.4l0.1-0.1C179,140.7,179.1,140.9,179,141.2z"/>
		<path class="st39" d="M181.7,142.4c-0.1,0.2-0.3,0.2-0.5,0.1c0.1-0.2,0.2-0.3,0.3-0.4l0,0C181.7,142.2,181.6,142.3,181.7,142.4z"
			/>
		<path class="st54" d="M177.4,145.9c-0.3-0.1-0.3-0.2-0.1-0.6C177.3,145.5,177.4,145.6,177.4,145.9z"/>
		<path class="st55" d="M178,140.3c0,0.1,0,0.2-0.1,0.2s-0.1-0.1-0.1-0.2c0-0.1,0-0.2,0.1-0.2S178,140.2,178,140.3z"/>
		<path class="st56" d="M178.2,139.4c0.1,0,0.2,0,0.2,0.1s0,0.2-0.1,0.1c-0.1,0-0.2,0-0.2-0.1C178,139.5,178.1,139.5,178.2,139.4z"
			/>
		<path class="st57" d="M177.9,144.8c-0.2-0.1-0.1-0.3-0.1-0.5C178,144.4,178.1,144.5,177.9,144.8z"/>
		<path class="st58" d="M177.3,143.9l-0.1-0.1c0-0.1,0-0.2,0.1-0.3C177.3,143.6,177.7,143.8,177.3,143.9z"/>
		<path class="st59" d="M180.5,140.1c0-0.1,0-0.1,0.1-0.1s0.1,0.1,0.1,0.2c0,0.1,0,0.1-0.1,0.1C180.5,140.2,180.5,140.2,180.5,140.1
			z"/>
		<path class="st60" d="M181,142.8c0.1,0,0.2,0,0.2,0.1c0.1,0,0.1,0.1,0,0.2c-0.1,0.1-0.2,0-0.2-0.1S181,142.8,181,142.8L181,142.8z
			"/>
		<path class="st61" d="M180.3,143.4c0.1,0,0.1,0,0.1,0.1s0,0.2-0.1,0.2c0,0-0.1,0-0.2,0C180.2,143.5,180.3,143.4,180.3,143.4z"/>
		<path class="st62" d="M177.4,146.5c0-0.1-0.1-0.3,0.1-0.3c0.1,0,0.2,0.1,0.1,0.2C177.6,146.6,177.5,146.5,177.4,146.5L177.4,146.5
			z"/>
		<path class="st41" d="M179,146.2c0-0.1-0.1-0.2,0-0.2s0.2,0.1,0.3,0.2C179.2,146.3,179.1,146.2,179,146.2L179,146.2z"/>
		<path class="st41" d="M178.3,146.2c0,0.1-0.1,0.1-0.1,0.1c-0.1,0-0.1,0-0.1-0.1s0.1-0.1,0.1-0.2
			C178.2,146,178.3,146.1,178.3,146.2z"/>
		<path class="st63" d="M180.7,146.7C180.8,146.7,180.8,146.7,180.7,146.7c0.1,0.1,0.1,0.2,0,0.2h-0.1
			C180.6,146.8,180.6,146.7,180.7,146.7z"/>
		<path class="st57" d="M181,142.8c-0.1,0-0.1,0.1-0.2,0.1c-0.1,0-0.2,0-0.2-0.1s0.1-0.1,0.1-0.1C180.9,142.7,180.9,142.7,181,142.8
			L181,142.8z"/>
		<path class="st35" d="M177.3,140.1c0,0.2,0,0.3-0.1,0.3h-0.1C177.2,140.3,177.2,140.2,177.3,140.1z"/>
		<path class="st64" d="M179.8,145.3c0.1,0.2,0.1,0.3,0,0.4C179.7,145.6,179.7,145.5,179.8,145.3z"/>
		<path class="st41" d="M178.6,146.2h0.1c0.1,0.1,0.1,0.2,0.1,0.3c-0.1,0.1-0.1,0.2-0.3,0.2c-0.1-0.1-0.1-0.2,0-0.2
			C178.6,146.4,178.6,146.3,178.6,146.2z"/>
		<path class="st65" d="M180.1,144.3L180.1,144.3c-0.1,0.1-0.2,0.1-0.2,0v-0.1C180,144.1,180.1,144.2,180.1,144.3z"/>
		<path class="st66" d="M179.8,147.3c0-0.1,0-0.1,0.1-0.2c0-0.1,0.1-0.1,0.2,0c0.1,0.1,0,0.1-0.1,0.2
			C180,147.3,179.9,147.3,179.8,147.3L179.8,147.3z"/>
		<path class="st67" d="M180,140.8c0,0.1-0.1,0.1-0.2,0.1v-0.1l0.1-0.1C180,140.7,180,140.7,180,140.8z"/>
		<path class="st68" d="M178.5,144.7c0.1,0,0.2,0.1,0.2,0.2c0,0,0,0.1-0.1,0.1C178.5,144.9,178.4,144.9,178.5,144.7
			C178.4,144.8,178.4,144.7,178.5,144.7z"/>
		<path class="st69" d="M180.7,146c0,0.1,0,0.2-0.1,0.2s-0.1-0.1-0.1-0.1c0-0.1,0.1-0.2,0.1-0.2C180.7,145.8,180.7,145.9,180.7,146z
			"/>
		<path class="st70" d="M180,141.2L180,141.2c-0.1,0.1-0.2,0-0.1,0C179.9,141.1,180,141.1,180,141.2C180,141.1,180,141.1,180,141.2z
			"/>
		<path class="st71" d="M178.8,141.6L178.8,141.6c-0.1,0-0.2,0-0.1-0.1C178.7,141.5,178.7,141.5,178.8,141.6
			C178.8,141.5,178.8,141.5,178.8,141.6z"/>
		<path class="st54" d="M178.6,144.1c0.1,0.1,0.1,0.2,0,0.3C178.5,144.3,178.5,144.2,178.6,144.1z"/>
		<path class="st72" d="M179.4,142.6c-0.1,0-0.2,0-0.2-0.1s0.1-0.1,0.2-0.1C179.5,142.5,179.4,142.6,179.4,142.6L179.4,142.6z"/>
		<path class="st73" d="M178.9,146.5c-0.1-0.1-0.1-0.2-0.1-0.3c0.1,0,0.2,0,0.2,0l0,0C179,146.3,179,146.4,178.9,146.5z"/>
		<path class="st74" d="M178.2,143.9c-0.1,0-0.1-0.1-0.1-0.1c0-0.1,0.1-0.1,0.1-0.1l0.1,0.1C178.3,143.9,178.3,143.9,178.2,143.9z"
			/>
		<path class="st75" d="M178.3,143C178.3,143.1,178.3,143.1,178.3,143c-0.2,0-0.2,0-0.1-0.1C178.2,143,178.3,142.9,178.3,143
			L178.3,143z"/>
		<path class="st50" d="M179.2,143.2l0.1,0.1c0,0.1,0,0.1-0.1,0.1C179.1,143.3,179.1,143.3,179.2,143.2
			C179.1,143.2,179.1,143.2,179.2,143.2z"/>
		<path class="st76" d="M179.7,146.6C179.6,146.6,179.6,146.7,179.7,146.6c-0.2,0-0.2,0-0.1-0.1
			C179.6,146.5,179.6,146.5,179.7,146.6C179.7,146.5,179.7,146.6,179.7,146.6z"/>
		<path class="st77" d="M178.6,146.5c0,0.1,0,0.2,0,0.2h-0.1c-0.1-0.1-0.2-0.1-0.1-0.2C178.4,146.5,178.5,146.5,178.6,146.5z"/>
		<path class="st41" d="M178.4,146.5c0,0.1,0.1,0.2,0.1,0.2c-0.1,0-0.2,0-0.3,0l0,0C178.2,146.6,178.3,146.5,178.4,146.5z"/>
		<path class="st78" d="M179.2,140C179.2,140,179.3,140,179.2,140c0.1,0.1,0.1,0.1,0.1,0.1C179.2,140.1,179.2,140.1,179.2,140
			L179.2,140z"/>
		<path class="st79" d="M177.6,140.2C177.6,140.3,177.6,140.3,177.6,140.2c-0.1,0.1-0.1,0-0.1,0S177.5,140.2,177.6,140.2
			L177.6,140.2z"/>
		<path class="st41" d="M178.8,146.9C178.7,146.9,178.7,147,178.8,146.9c-0.1,0.1-0.2,0-0.2,0S178.6,146.9,178.8,146.9
			C178.7,146.9,178.7,146.9,178.8,146.9z"/>
		<path class="st80" d="M179.5,139.2C179.5,139.3,179.5,139.3,179.5,139.2c-0.1,0-0.1,0-0.1-0.1
			C179.4,139.1,179.4,139.1,179.5,139.2L179.5,139.2z"/>
		<path class="st81" d="M179.2,144.5C179.3,144.5,179.3,144.6,179.2,144.5c0,0.1,0,0.1-0.1,0.1C179.2,144.6,179.1,144.6,179.2,144.5
			L179.2,144.5z"/>
		<path class="st51" d="M178.9,138.7c0.1,0,0.3,0,0.4,0.1C179.1,138.8,179,138.8,178.9,138.7z"/>
		<path class="st82" d="M177.9,145.6C177.9,145.7,177.9,145.7,177.9,145.6c0,0.1,0,0.1-0.1,0.1C177.8,145.8,177.8,145.7,177.9,145.6
			C177.8,145.7,177.8,145.7,177.9,145.6z"/>
		<path class="st37" d="M180.5,147.5c-0.1,0.1-0.2,0.1-0.3,0.1C180.3,147.5,180.4,147.5,180.5,147.5z"/>
		<path class="st83" d="M180.8,141.6L180.8,141.6C180.8,141.6,180.8,141.7,180.8,141.6C180.8,141.7,180.8,141.7,180.8,141.6
			C180.7,141.7,180.8,141.6,180.8,141.6z"/>
		<path class="st84" d="M178.7,142.1L178.7,142.1C178.6,142.1,178.6,142,178.7,142.1C178.7,142,178.7,142,178.7,142.1
			C178.7,142,178.7,142,178.7,142.1z"/>
		<path class="st85" d="M179.9,142.2L179.9,142.2L179.9,142.2C179.9,142.1,179.9,142.1,179.9,142.2
			C180,142.1,179.9,142.2,179.9,142.2z"/>
		<path class="st86" d="M181.7,142.4c-0.1,0-0.1-0.1-0.1-0.2h0.1C181.7,142.2,181.7,142.3,181.7,142.4z"/>
		<path class="st87" d="M177.8,142.7C177.8,142.7,177.9,142.7,177.8,142.7C177.9,142.7,177.9,142.7,177.8,142.7
			C177.9,142.7,177.9,142.7,177.8,142.7L177.8,142.7z"/>
		<path class="st88" d="M181.2,143.6C181.2,143.6,181.2,143.5,181.2,143.6C181.3,143.6,181.3,143.6,181.2,143.6L181.2,143.6
			L181.2,143.6z"/>
		<path class="st89" d="M177.3,144.4c0-0.1-0.1-0.3,0.1-0.1C177.3,144.3,177.3,144.3,177.3,144.4z"/>
		<path class="st37" d="M180.1,147.6H180C180,147.5,180.1,147.5,180.1,147.6z"/>
		<path class="st41" d="M178.6,146.2L178.6,146.2L178.6,146.2z"/>
		<path class="st51" d="M178.7,138.6l0.1,0.1C178.8,138.6,178.8,138.6,178.7,138.6z"/>
		<path class="st37" d="M179.5,147.8c0,0.1,0,0.1,0,0.2C179.4,147.9,179.4,147.9,179.5,147.8z"/>
		<path class="st41" d="M178.2,146.7l-0.1,0.1l0,0C178.2,146.8,178.2,146.8,178.2,146.7L178.2,146.7z"/>
		<path class="st35" d="M174.7,145.7c0.7-0.1,0.7-0.1,0.7,0.6c0,0.8,0,1.7,0,2.5c0,0.7-0.3,1.1-1.1,1.2c-0.7,0.1-1.3-0.2-1.5-0.8
			c-0.1-0.3,0-0.6,0.2-0.8s0.4-0.5,0.8-0.4c0.2,0,0.4-0.1,0.5-0.3s0.1-0.4-0.1-0.5C173.9,146.5,174.3,146.1,174.7,145.7z"/>
		<path class="st35" d="M172.9,139.2c-0.1-0.1-0.2-0.2-0.4-0.2c-0.4-0.1-0.6,0-0.8,0.3s-0.3,0.3-0.5,0s-0.1-0.8,0.3-1
			c0.5-0.3,1-0.4,1.5-0.3c0.5,0.1,0.5,0.1,0.8-0.4s1-0.8,1.5-0.6c0.1,0.3,0,0.7,0.1,1c0,0.2-0.2,0.3-0.3,0.3c-0.5-0.1-0.8,0.2-1,0.6
			C173.7,139.1,173.3,139.2,172.9,139.2z"/>
		<path class="st35" d="M171.3,149.4c-0.8,0-1.4-1-1-1.7c0.1-0.2,0.2-0.2,0.4-0.2c0.3,0,0.5,0,0.7-0.2c0.1-0.1,0.2-0.1,0.3-0.1
			c0.3,0.1,0.7,0.1,1,0.1c0.1,0,0.2,0.1,0.2,0.2c0,0.1,0,0.2-0.1,0.3c-0.4,0.2-0.5,0.5-0.6,0.9C172.2,149.2,171.9,149.4,171.3,149.4
			z"/>
		<path class="st35" d="M170.3,146.7c-0.3,0.5-0.7,0.7-1.1,0.6c-0.3-0.1-0.7-0.5-0.7-0.9c-0.1-0.6,0.2-1.1,0.6-1.3
			c0.2-0.1,0.4-0.2,0.6-0.1c0.1,0,0.1,0.2,0.1,0.2l0,0C170.2,145.7,170.6,146.1,170.3,146.7z"/>
		<path class="st90" d="M169.6,141.8c-0.1-0.1-0.3-0.2-0.4-0.3c-0.4-0.4-0.3-1.1,0.1-1.5c0.5-0.4,1.2-0.5,1.7-0.2
			c0.1,0.1,0.2,0.1,0.3,0.1c0,0.4-0.4,0.9-0.8,0.9c-0.5,0-0.8,0.1-0.7,0.8C169.9,141.8,169.8,141.9,169.6,141.8z"/>
		<path class="st35" d="M171.8,141.6c-0.2,0.2,0,0.5-0.2,0.7c-0.1,0-0.1,0.1-0.1,0.1l0,0c-0.1,0-0.1,0.1-0.1,0.1l0,0
			c-0.1,0-0.1,0.1-0.1,0.1l0,0c-0.2,0.1-0.3,0.1-0.5,0c0-0.1-0.1-0.2-0.1-0.4c-0.1-0.1-0.2-0.3-0.1-0.4c0.3-0.6,0.4-1.5,1.2-1.8
			c0.1,0,0.2-0.1,0.3-0.1l0.1,0.1l0,0c0.3,0.4,0.2,0.9,0,1.3C172.1,141.5,172,141.6,171.8,141.6z"/>
		<path class="st91" d="M173.3,146.1V146c-0.1-0.1,0-0.2-0.1-0.3l0,0v-0.1l0,0c0.1-0.1,0.1-0.1,0-0.2c0-0.2,0-0.5-0.1-0.7
			c0-0.4,0.2-0.6,0.4-0.9c0.2-0.1,0.4,0,0.6,0.2c0.1,0.1,0.1,0.2,0.2,0.3c0.1,0.1,0.1,0.2,0.2,0.3c0,0.1-0.1,0.2-0.1,0.3
			c-0.2,0.2-0.1,0.4,0.1,0.5c0.2,0.6-0.2,0.9-0.5,1.2l-0.1,0.1h-0.1c-0.1-0.1-0.1-0.1-0.1-0.2c-0.1-0.1,0-0.2-0.1-0.3
			C173.4,146.3,173.4,146.2,173.3,146.1z"/>
		<path class="st90" d="M171.6,144.3c0.2,0.1,0.4,0.3,0.5,0.5v0.1v0.1v0.1c-0.1,0.1-0.1,0.2,0,0.2l0.1,0.1c0.1,0.1,0.1,0.1,0.1,0.2
			c0,0.1,0,0.1-0.1,0.2c-0.2,0.2-0.4,0.4-0.6,0.6c-0.2,0.2-0.4,0.2-0.6,0.1l0,0c-0.4-0.4-0.1-0.9-0.1-1.3c0-0.3,0-0.7,0-1
			c0-0.2,0.1-0.3,0.3-0.2l0,0l0.1,0.1l0,0l0.1,0.1l0,0C171.5,144.2,171.5,144.2,171.6,144.3z"/>
		<path class="st92" d="M172.7,145.6c0.4,0.3,0.5,0.8,0.6,1.2c0.1,0.2-0.1,0.4-0.3,0.4c-0.5-0.1-1.1,0.1-1.6-0.3
			c-0.2-0.3,0.1-0.5,0.2-0.7c0.2-0.2,0.4-0.4,0.6-0.6C172.5,145.5,172.6,145.5,172.7,145.6z"/>
		<path class="st93" d="M168.9,142.8c-0.5,0.4-0.5,0.7,0.1,1c0.3,0.2,0.3,0.2,0.5,0.8c-0.4,0.1-0.8,0-1.1-0.2
			c-0.4-0.3-0.5-0.6-0.3-1.1c0.2-0.7,0.8-1.1,1.5-1.1v0.1l0,0l0,0c-0.1,0.1-0.1,0.2-0.1,0.2l0,0l-0.1,0.1l0,0
			C169.1,142.7,169,142.7,168.9,142.8z"/>
		<path class="st94" d="M175,144.6c-0.2,0-0.3,0-0.5-0.1c-0.3-0.3-0.6-0.6-0.4-1c0.1-0.2,0-0.4-0.1-0.5c0-0.6,0.2-1.2,0.6-1.7l0,0
			c0.3,0,0.4,0.2,0.4,0.5c0,0.8,0.1,1.6,0.2,2.4C175.2,144.3,175.2,144.5,175,144.6z"/>
		<path class="st36" d="M172.9,139.9c0.4,0.1,0.6,0.3,1,0.4c0.2,0.1,0.3,0.2,0.2,0.4l-0.1,0.1l0,0c-0.4,0.3-0.8,0.6-1.3,0.6
			c-0.1,0-0.1,0-0.2-0.1c-0.1,0-0.1-0.1-0.1-0.1c0-0.1-0.1-0.1-0.1-0.2c0-0.4-0.1-0.7,0.1-1.1c0.1-0.1,0.2-0.1,0.3-0.1
			C172.8,139.9,172.9,139.9,172.9,139.9z"/>
		<path class="st95" d="M172.8,144.6c-0.4,0.1-0.7,0-0.9-0.3c-0.1-0.2-0.3-0.4-0.5-0.5c-0.1-0.1-0.1-0.2,0-0.4
			c0.5-0.3,1.1-0.2,1.6-0.1c0.2,0.1,0.3,0.2,0.4,0.4C173.4,144.1,173.2,144.4,172.8,144.6z"/>
		<path class="st35" d="M174.2,141c0.1,0,0.1,0,0.2,0c0.2,0.4,0,0.7-0.1,1c-0.1,0.2-0.1,0.5-0.3,0.7c-0.6,0.3-0.7,0.3-1.2-0.4
			c0-0.1,0-0.1,0-0.2c0-0.1,0-0.2,0-0.3s0.1-0.3,0.2-0.4C173.4,141.4,173.7,141.1,174.2,141z"/>
		<path class="st96" d="M171.7,140.1c-0.1,0.1-0.3,0.3-0.4,0.4c-0.2,0.2-0.4,0.4-0.3,0.7c0,0.1,0,0.3-0.1,0.3
			c-0.3,0.2-0.2,0.4-0.2,0.7l-0.1,0.1c-0.3,0-0.3-0.4-0.6-0.4c-0.1-0.1-0.2-0.2-0.3-0.3c0.1,0,0.2,0,0.2-0.2c-0.2-0.6,0-0.9,0.6-0.9
			s0.8-0.4,1.1-0.7C171.5,140,171.6,140,171.7,140.1z"/>
		<path class="st97" d="M172.8,142.2c0.1,0.1,0.1,0.2,0.2,0.3c0.2,0.3,0.5,0.4,0.9,0.3c0.2-0.1,0.1,0.2,0.3,0.2
			c0.1,0.1,0.3,0.3,0.2,0.5c-0.3,0.3-0.1,0.6,0.1,0.8c0,0.1,0.1,0.1,0.1,0.2l-0.1,0.1c-0.1-0.1-0.2-0.2-0.2-0.2
			c-0.1-0.1-0.1-0.2-0.1-0.2c-0.1-0.2-0.3-0.2-0.5-0.2c-0.1,0.1-0.2-0.1-0.3-0.1c-0.1-0.1-0.2-0.2-0.3-0.4l-0.1-0.1
			c0.1-0.5-0.3-0.6-0.6-0.9C172.5,142.2,172.6,142.1,172.8,142.2z"/>
		<path class="st95" d="M174.6,140.2c-0.3,0.1-0.5,0.1-0.7-0.1c-0.2-0.2-0.5-0.3-0.8-0.4c-0.2-0.1-0.3-0.2-0.1-0.4
			c0.3-0.2,0.6-0.2,1-0.4c0.1,0,0.1,0,0.2,0c0.1,0,0.2,0.1,0.3,0.1C174.9,139.4,175,139.8,174.6,140.2z"/>
		<path class="st98" d="M170.7,144.8c-0.3,0-0.5-0.1-0.7-0.2c-0.4-0.1-0.6-0.8-0.3-1.1c0.2-0.2,0.3-0.2,0.5,0l0.1,0.1
			C170.8,143.8,170.7,144.3,170.7,144.8z"/>
		<path class="st38" d="M172.4,142.4c0.6,0.1,0.8,0.4,0.6,0.9c-0.6,0.1-1.2,0.1-1.7-0.1c0-0.1-0.1-0.2,0-0.3
			c0.3-0.2,0.5-0.5,0.9-0.5C172.3,142.3,172.4,142.3,172.4,142.4z"/>
		<path class="st99" d="M175,144.6c0.1-1-0.2-1.9-0.1-2.9c0-0.2-0.1-0.4-0.2-0.5c0.1-0.1,0.2-0.1,0.4-0.1c0.3,0.8,0.2,1.7,0.2,2.4
			c0.1-0.7-0.1-1.6-0.1-2.5c0.1-0.1,0.1-0.1,0.2,0c0,0.1,0.1,0.2,0.1,0.3c0,1,0,2,0,3.1C175.4,144.7,175.3,144.8,175,144.6z"/>
		<path class="st100" d="M174.6,140.2c0.2-0.6,0.1-0.9-0.3-1.1l-0.1-0.1h-0.1c-0.1,0.1-0.1,0-0.1-0.1c0.2-0.4,0.4-0.7,1-0.6
			c0.4,0.2,0.6,0.5,0.3,0.9c-0.2,0.3,0,0.7-0.3,1C174.8,140.2,174.7,140.2,174.6,140.2z"/>
		<path class="st93" d="M174.9,140.2c0-0.5-0.2-0.9,0.3-1.3c0.1-0.1,0.1-0.2,0-0.3s-0.2-0.2-0.3-0.3c0.1,0,0.2,0,0.4,0
			c0-0.4,0-0.8,0-1.1c0.1,0.1,0.1,0.2,0.1,0.3c0,0.8,0,1.7,0,2.5C175.4,140.3,175.4,140.3,174.9,140.2z"/>
		<path class="st101" d="M172.4,142.4c-0.1,0-0.2,0-0.3,0c-0.3-0.2-0.4-0.4-0.4-0.7c0-0.1,0.1-0.2,0.3-0.2c0.1-0.1,0.2-0.2,0.4-0.1
			l0,0l0.1,0.1h0.1c0.1,0.1,0.4-0.1,0.4,0.2c-0.1,0.1-0.1,0.3-0.1,0.4l-0.1,0.1l0,0C172.7,142.2,172.5,142.3,172.4,142.4z"/>
		<path class="st102" d="M172.7,145.6c-0.1,0-0.2,0-0.3,0s-0.1,0-0.2,0v-0.1l0,0l0,0l0,0l0,0c0.1-0.6,0.1-0.6,0.9-0.6
			c0-0.1,0.1-0.1,0.1,0c0.3,0.2,0.2,0.5,0.1,0.7c0,0.1-0.1,0.1-0.1,0C173,145.5,172.8,145.6,172.7,145.6z"/>
		<path class="st43" d="M169.8,142l0.1-0.1c0.2-0.1,0.3-0.2,0.3,0.1c0,0.1,0,0.3,0.1,0.4c0.1,0.3-0.2,0.5-0.4,0.7
			c-0.1,0.1-0.3,0.1-0.4,0c-0.1-0.1-0.2-0.2-0.2-0.4C169.6,142.4,169.8,142.3,169.8,142z"/>
		<path class="st103" d="M170.2,145.1c0.1,0.1,0.4,0.1,0.5,0.3c0.2,0.4,0.2,0.7,0,1.1l0,0h-0.1l0,0c-0.3-0.3-0.4-0.6-0.5-1
			C170,145.3,169.9,145.1,170.2,145.1z"/>
		<path class="st104" d="M175.2,141c0.1,0,0.1,0.1,0.1,0.2c0,0.8,0,1.7,0,2.6c-0.2-0.3-0.1-0.4-0.1-0.6c0-0.7-0.1-1.4-0.1-2.1
			C175.1,141.1,175.1,141.1,175.2,141z"/>
		<path class="st105" d="M174.2,143c-0.1-0.1-0.2-0.2-0.3-0.2c0.2-0.6,0.5-1.1,0.5-1.7c0.1,0,0.1,0.2,0.3,0.2c0,0.3-0.2,0.6-0.3,0.9
			C174.3,142.4,174.1,142.7,174.2,143z"/>
		<path class="st106" d="M170.2,145.1c-0.2,0.1-0.1,0.3,0,0.4c0.1,0.3,0.3,0.6,0.4,0.9c-0.1,0.1-0.2,0.2-0.2,0.3
			c0-0.3-0.1-0.5-0.2-0.8c-0.1-0.2-0.3-0.4-0.3-0.7C170,145.2,170,144.9,170.2,145.1z"/>
		<path class="st107" d="M173,141.6c-0.1-0.1-0.3-0.1-0.4-0.2c0.3,0,0.5-0.1,0.7-0.3c0.2-0.1,0.4-0.2,0.6-0.3l0.1,0.1
			C173.8,141.3,173.4,141.5,173,141.6z"/>
		<path class="st108" d="M172.2,145.6c0.1,0,0.1,0,0.2,0c-0.2,0.2-0.4,0.5-0.7,0.7c-0.1,0.1-0.2,0.3-0.2,0.5
			c-0.2-0.1-0.3-0.3-0.5-0.4c0.2,0.1,0.4-0.1,0.5-0.2C171.7,146,171.9,145.8,172.2,145.6z"/>
		<path class="st109" d="M172.4,141.3c-0.1,0.1-0.2,0.1-0.4,0.1c0.2-0.4,0.1-0.9,0.1-1.4c0.1,0,0.2,0,0.2,0
			C172.4,140.5,172.4,140.9,172.4,141.3z"/>
		<path class="st110" d="M173.9,146.7c0.1-0.4,0.5-0.8,0.5-1.2c0.1,0.1,0.2,0.2,0.3,0.2c0,0.3-0.2,0.5-0.4,0.7
			c-0.1,0.2-0.2,0.4-0.1,0.6C174,147,174.1,146.8,173.9,146.7z"/>
		<path class="st106" d="M170.7,146.5c0-0.4,0-0.7,0-1.1c0.1-0.1,0.1-0.2,0.1-0.3h0.1c0,0.4,0,0.9,0,1.3
			C170.9,146.5,170.8,146.5,170.7,146.5z"/>
		<path class="st111" d="M171.3,143.1c0.6,0,1.1,0.2,1.7,0.1v0.1c-0.6,0-1.1,0-1.7,0C171.3,143.3,171.3,143.2,171.3,143.1z"/>
		<path class="st112" d="M173.2,144.7h-0.1c-0.1-0.1-0.2-0.1-0.3-0.1c0.2-0.3,0.5-0.5,0.5-0.9c0.1,0,0.2,0.1,0.3,0.1
			C173.4,144.2,173.2,144.4,173.2,144.7z"/>
		<path class="st113" d="M173.9,138.8l0.1,0.1c-0.3,0.2-0.7,0.3-1,0.4l-0.1-0.1C173.2,139,173.6,139,173.9,138.8z"/>
		<path class="st95" d="M171,145.1h-0.1c0-0.4,0-0.7,0-1.1c0-0.3,0.2-0.3,0.4-0.1c-0.2,0-0.2,0.2-0.2,0.3
			C171,144.5,171,144.8,171,145.1z"/>
		<path class="st38" d="M170.7,142.6c0.2,0,0.3,0,0.5,0C171,142.8,170.9,142.8,170.7,142.6z"/>
		<path class="st43" d="M168.9,142.8c0.1-0.1,0.2-0.1,0.4-0.1C169.1,142.8,169,142.8,168.9,142.8z"/>
		<path class="st95" d="M172.9,139.9c-0.1,0-0.2,0-0.3,0C172.8,139.8,172.9,139.8,172.9,139.9z"/>
		<path class="st92" d="M173.2,145.7c0.1,0.1,0.1,0.2,0.1,0.3C173.2,145.9,173.2,145.8,173.2,145.7z"/>
		<path class="st43" d="M169.3,142.5c0-0.1,0-0.2,0.1-0.2C169.5,142.4,169.4,142.5,169.3,142.5z"/>
		<path class="st95" d="M172.1,145.2c-0.1-0.1-0.1-0.2,0-0.2C172.1,145.1,172.1,145.2,172.1,145.2z"/>
		<path class="st106" d="M169.8,145.2c-0.1-0.1-0.1-0.1-0.1-0.2C169.8,145,169.8,145.1,169.8,145.2z"/>
		<path class="st92" d="M173.3,146.1c0.1,0.1,0.1,0.1,0.1,0.2C173.3,146.3,173.3,146.2,173.3,146.1z"/>
		<path class="st92" d="M173.4,146.3c0.1,0.1,0.1,0.2,0.1,0.3C173.5,146.5,173.4,146.5,173.4,146.3z"/>
		<path class="st95" d="M171.6,144.3l-0.1-0.1C171.5,144.2,171.5,144.2,171.6,144.3z"/>
		<path class="st95" d="M171.4,144.1l-0.1-0.1C171.4,144,171.4,144.1,171.4,144.1z"/>
		<path class="st95" d="M171.3,144l-0.1-0.1C171.3,143.9,171.3,143.9,171.3,144z"/>
		<path class="st95" d="M172.1,144.9v-0.1C172.2,144.8,172.1,144.8,172.1,144.9z"/>
		<path class="st110" d="M173.7,146.9h0.1H173.7z"/>
		<path class="st38" d="M171.2,142.6l0.1-0.1C171.3,142.6,171.2,142.6,171.2,142.6z"/>
		<path class="st43" d="M169.2,142.7l0.1-0.1C169.3,142.6,169.3,142.6,169.2,142.7z"/>
		<path class="st38" d="M171.3,142.5l0.1-0.1C171.4,142.4,171.4,142.5,171.3,142.5z"/>
		<path class="st38" d="M171.5,142.4c0-0.1,0.1-0.1,0.1-0.1C171.6,142.3,171.5,142.4,171.5,142.4z"/>
		<path class="st102" d="M172.2,145.5c0,0-0.1-0.1,0-0.1l0,0l0,0C172.2,145.4,172.2,145.4,172.2,145.5L172.2,145.5L172.2,145.5z"/>
		<path class="st43" d="M169.5,142.3v-0.1C169.6,142.2,169.6,142.2,169.5,142.3z"/>
		<path class="st92" d="M173.2,145.5h0.1c0,0.1-0.1,0.1-0.1,0.1V145.5z"/>
		<path class="st92" d="M173.2,145.6v0.1C173.1,145.7,173.1,145.6,173.2,145.6z"/>
		<path class="st107" d="M174,140.9l0.1-0.1C174.1,140.8,174.1,140.9,174,140.9z"/>
		<path class="st106" d="M170.6,146.5h0.1C170.7,146.6,170.6,146.6,170.6,146.5z"/>
		<path class="st109" d="M172.2,140.1l-0.1-0.1C172.1,140,172.1,140,172.2,140.1z"/>
		<path class="st49" d="M177.3,147.6c0.1,0,0.2,0.1,0.3,0.3C177.3,147.8,177.3,147.7,177.3,147.6z"/>
		<path class="st35" d="M177.5,139.7c-0.2,0-0.3-0.1-0.2-0.3C177.4,139.5,177.4,139.6,177.5,139.7L177.5,139.7z"/>
		<path class="st114" d="M177.5,144.9c0,0.1,0,0.1-0.1,0.1s-0.1-0.1-0.1-0.2c0-0.1,0-0.1,0.1-0.1S177.5,144.8,177.5,144.9z"/>
		<path class="st94" d="M174,144.1c0.1,0.1,0.1,0.1,0.1,0.2C174.1,144.3,174,144.2,174,144.1z"/>
		<path class="st109" d="M172.6,141.4l-0.1-0.1C172.5,141.3,172.5,141.4,172.6,141.4z"/>
		<path class="st97" d="M172.8,142.2l0.1-0.1C172.9,142.1,172.9,142.1,172.8,142.2z"/>
		<path class="st113" d="M174.2,138.9l0.1,0.1C174.2,139,174.2,139,174.2,138.9z"/>
		<path class="st108" d="M172.2,145.5v-0.1C172.2,145.4,172.3,145.4,172.2,145.5L172.2,145.5z"/>
	</g>
</g>
</svg>
