<?xml version="1.0" encoding="utf-8"?>
<!-- Generator: Adobe Illustrator 23.0.0, SVG Export Plug-In . SVG Version: 6.00 Build 0)  -->
<svg version="1.1" xmlns="http://www.w3.org/2000/svg" xmlns:xlink="http://www.w3.org/1999/xlink" x="0px" y="0px"
	 viewBox="0 0 256 256" style="enable-background:new 0 0 256 256;" xml:space="preserve">
<style type="text/css">
	.st0{display:none;}
	.st1{display:inline;}
	.st2{fill:#D1C2E2;}
	.st3{fill:#895F7B;}
	.st4{fill:#C567D3;}
	.st5{fill:#9F3FAD;}
	.st6{fill:#B896E3;}
	.st7{fill:#6E914F;}
	.st8{fill:#EAB462;}
	.st9{fill:#9F3FAC;}
	.st10{fill:#AFE085;}
	.st11{fill:#876EC1;}
	.st12{fill:#A349B4;}
	.st13{fill:#E773EB;}
	.st14{fill:#FFFFFF;}
	.st15{fill:#EAB361;}
	.st16{fill:#45255F;}
	.st17{fill:#4C2D69;}
	.st18{fill:none;}
	.st19{fill:#B8424E;}
	.st20{fill:#866EC1;}
	.st21{fill:#C567D4;}
	.st22{fill:#6D924E;}
	.st23{fill:#4D2E6A;}
	.st24{fill:#953CBE;}
	.st25{fill:#983BBE;}
	.st26{fill:#77688B;}
	.st27{fill:#C66BE5;}
	.st28{fill:#74658E;}
	.st29{fill:#43235B;}
	.st30{fill:#983EC3;}
	.st31{fill:#54AB50;}
	.st32{fill:#E8CB7A;}
	.st33{fill:#B89BED;}
	.st34{fill:#756B8E;}
	.st35{fill:#993DC3;}
	.st36{fill:#993DC5;}
	.st37{fill:#983EC2;}
	.st38{fill:#983EC4;}
	.st39{fill:#C66BE4;}
	.st40{fill:#ACE789;}
	.st41{fill:#ADEC88;}
	.st42{fill:#EBCC74;}
	.st43{fill:#EBCD75;}
	.st44{fill:#EBD279;}
	.st45{fill:#EBD179;}
	.st46{fill:#57A84E;}
	.st47{fill:#55AC4E;}
	.st48{fill:#56AD4E;}
	.st49{fill:#54AD4E;}
	.st50{fill:#54AC4E;}
	.st51{fill:#53AE4E;}
	.st52{fill:#A64AB6;}
	.st53{fill:#E6AEBC;}
</style>
<g id="Layer_2" class="st0">
	<g id="Layer_3" class="st1">
		<g>
			<path class="st2" d="M60,0h136c33.1,0,60,26.9,60,60v136c0,33.1-26.9,60-60,60H60c-33.1,0-60-26.9-60-60V60C0,26.9,26.9,0,60,0z"
				/>
		</g>
	</g>
</g>
<g id="Layer_1">
	<g class="st0">
		<g class="st1">
			<polygon class="st3" points="197.6,57.5 185.5,59.2 186.7,68 199.1,66.3 198.6,63.2 			"/>
			<polygon class="st4" points="201.7,148.6 203,156.7 214.4,154.9 212.3,146.8 			"/>
			<polygon class="st5" points="214.7,160.4 204.7,162.3 206.1,169.7 216.9,167.7 			"/>
			<polygon class="st6" points="201.1,68.8 187.6,70.7 188.7,78.6 202.5,76.7 202.4,76.1 			"/>
			<polygon class="st7" points="199.2,85.9 189.7,87.2 191,96.2 200.9,94.8 			"/>
			<polygon class="st8" points="203.9,99.1 192.9,100.6 194,108.6 205.4,107 			"/>
			<polygon class="st9" points="210.2,121.4 197.4,123.2 198.6,132.5 211.9,130.6 			"/>
			<polygon class="st10" points="199.2,135.7 200.6,144.6 216.6,142.1 215.2,133.3 			"/>
			<path class="st6" d="M77.2,64.3c0.7-1.1,1.9-1.8,3.2-2.1l65.5-12.1c-0.1-1.6-0.4-2.8-1.1-3.4c-0.5-0.4-1-0.4-1-0.4
				S83.8,57.9,57.1,63l26.1,136.3l16.9-3L76.4,68C76.2,66.7,76.5,65.4,77.2,64.3z"/>
			<path class="st11" d="M181.6,48.6c-0.1-0.5-0.4-0.9-0.8-1.2c-0.3-0.2-0.7-0.3-1.1-0.3c-0.1,0-0.2,0-0.3,0L93.1,63l26.1,135.7
				l85.4-15.8l0,0c1-0.2,1.7-1.2,1.5-2.2L181.6,48.6z"/>
			<polygon class="st12" points="101.5,88.3 107.2,118.4 176.8,105.1 171.3,74.4 			"/>
			<polygon class="st13" points="103.7,84.9 109.3,115.5 178.7,101.4 172.6,71.5 			"/>
			<g>
				<path class="st14" d="M121.9,106.9l-3.6-19.5l6.8-1.2c1.7-0.3,3-0.4,3.8-0.2c0.8,0.2,1.5,0.7,2.2,1.5c0.6,0.8,1.1,1.8,1.3,3
					c0.3,1.5,0.1,2.8-0.4,3.9c-0.6,1.1-1.5,1.8-2.8,2.3c0.8,0.4,1.5,0.8,2,1.3c0.6,0.5,1.4,1.5,2.4,2.8l2.6,3.4l-3.9,0.7l-3.1-3.8
					c-1.1-1.4-1.9-2.2-2.2-2.6c-0.4-0.3-0.7-0.5-1.1-0.6s-0.9-0.1-1.7,0.1l-0.7,0.1l1.5,8.1L121.9,106.9z M123,95l2.4-0.4
					c1.5-0.3,2.4-0.5,2.8-0.7s0.7-0.5,0.8-1c0.2-0.4,0.2-1,0.1-1.6c-0.1-0.6-0.3-1.1-0.6-1.4s-0.7-0.5-1.2-0.6
					c-0.3,0-1.2,0.1-2.6,0.3l-2.5,0.5L123,95z"/>
				<path class="st14" d="M138,103.9l-3.6-19.5l11.9-2.2l0.6,3.3l-8.7,1.6l0.8,4.3l8-1.5l0.6,3.3l-8,1.5l1,5.3l8.9-1.6l0.6,3.3
					L138,103.9z"/>
				<path class="st14" d="M152.9,101.2l-3.6-19.5l11-2l0.6,3.3l-7.7,1.4L154,89l6.7-1.2l0.6,3.3l-6.7,1.2l1.5,8.3L152.9,101.2z"/>
			</g>
			<g>
				<path class="st15" d="M121.8,107.2L121.8,107.2l-3.7-19.8L125,86c1.7-0.3,3-0.4,3.9-0.2c0.8,0.2,1.6,0.7,2.2,1.5
					c0.6,0.8,1.1,1.8,1.3,3c0.3,1.6,0.2,2.9-0.4,4c-0.5,1-1.4,1.8-2.6,2.3c0.7,0.4,1.3,0.8,1.8,1.2c0.6,0.5,1.4,1.5,2.5,2.9l2.8,3.6
					l-4.1,0.8l0,0l-3.1-3.8c-1.1-1.4-1.9-2.2-2.2-2.6c-0.4-0.3-0.7-0.5-1.1-0.6s-0.9-0.1-1.6,0.1l-0.6,0.1l1.5,8.2L121.8,107.2z
					 M118.3,87.5L122,107l3-0.6l-1.5-8.2l0.8-0.1c0.8-0.1,1.3-0.2,1.7-0.1c0.4,0.1,0.8,0.3,1.2,0.6c0.4,0.3,1.1,1.2,2.3,2.6l3.1,3.8
					l3.6-0.7l-2.6-3.3c-1.1-1.4-1.9-2.3-2.4-2.8c-0.6-0.5-1.2-0.9-2-1.3l-0.2-0.1l0.2-0.1c1.3-0.5,2.2-1.3,2.7-2.3
					c0.5-1.1,0.7-2.4,0.4-3.9c-0.2-1.2-0.7-2.2-1.3-3s-1.3-1.3-2.1-1.5s-2.1-0.1-3.8,0.2L118.3,87.5z M122.9,95.2L122.9,95.2l-1-5.2
					l2.6-0.5c1.5-0.3,2.3-0.4,2.7-0.4c0.5,0.1,0.9,0.3,1.2,0.6c0.3,0.3,0.6,0.8,0.7,1.5c0.1,0.7,0.1,1.2-0.1,1.7
					c-0.2,0.5-0.5,0.8-0.9,1c-0.4,0.2-1.3,0.5-2.8,0.7L122.9,95.2z M122.2,90.2l0.9,4.8l2.3-0.4c1.4-0.3,2.4-0.5,2.7-0.7
					c0.4-0.2,0.6-0.5,0.8-0.9s0.2-1,0.1-1.6c-0.1-0.6-0.3-1.1-0.6-1.4s-0.7-0.5-1.1-0.6c-0.3,0-1.2,0.1-2.6,0.3L122.2,90.2z"/>
				<path class="st15" d="M138,104.1L138,104.1l-3.7-19.8h0.1l12-2.3l0.7,3.5H147l-8.5,1.6l0.8,4.2l8-1.5l0.7,3.5h-0.1l-7.9,1.5
					l1,5.1l8.9-1.7l0.7,3.5h-0.1L138,104.1z M134.5,84.4l3.6,19.5l12-2.3l-0.6-3.1l-8.9,1.7v-0.1l-1-5.4h0.1l7.9-1.5L147,90l-8,1.5
					v-0.1l-0.8-4.5h0.1l8.5-1.6l-0.6-3.1L134.5,84.4z"/>
				<path class="st15" d="M152.9,101.3L152.9,101.3l-3.7-19.8h0.1l11.1-2.1l0.7,3.5l-7.7,1.5l0.8,4.5l6.7-1.3l0.7,3.5h-0.1l-6.6,1.3
					l1.6,8.4L152.9,101.3z M149.4,81.6l3.6,19.5l3-0.6l-1.6-8.4h0.1l6.6-1.3l-0.6-3.1l-6.7,1.3v-0.1l-0.9-4.7h0.1l7.6-1.5l-0.6-3.1
					L149.4,81.6z"/>
			</g>
			<g>
				
					<rect x="174.3" y="68.3" transform="matrix(0.9905 -0.1373 0.1373 0.9905 -7.8894 25.024)" class="st16" width="6.3" height="2.8"/>
				
					<rect x="176.9" y="79.9" transform="matrix(0.9905 -0.1373 0.1373 0.9905 -9.4572 25.4908)" class="st16" width="6.3" height="2.8"/>
				
					<rect x="179.3" y="90.4" transform="matrix(0.9905 -0.1373 0.1373 0.9905 -10.8762 25.9198)" class="st16" width="6.3" height="2.8"/>
				
					<rect x="181.7" y="101.7" transform="matrix(0.9905 -0.1373 0.1373 0.9905 -12.4051 26.3562)" class="st16" width="6.3" height="2.8"/>
			</g>
			<path class="st3" d="M44.8,65.5c-1.2,0.2-1.9,0.7-2.3,1.4c-0.6,1-0.2,2.6,0,3.1l0.1,0.3l26,131.8l10.9-1.9L53.4,63.8
				C48.8,64.7,45.7,65.3,44.8,65.5z"/>
			<path class="st17" d="M209,180.2L184.6,48c-0.2-1.3-1-2.4-2.1-3.2c-1.1-0.7-2.4-1-3.7-0.8L149,49.6c-0.1-2.3-0.9-4.1-2.1-5.2
				c-1.6-1.3-3.3-1.1-3.6-1c0,0-93.4,18-99,19.1c-2.1,0.4-3.6,1.4-4.4,2.9c-1.2,2.3-0.5,4.8-0.2,5.5l26,131.6
				c0.1,0.9,0.8,5.8,3.6,7.7c0.8,0.6,1.7,0.8,2.6,0.8c0.4,0,0.8,0,1.2-0.1c4.5-1.1,30.4-6,30.7-6.1l-0.2-1.2
				c0.7,0.4,1.5,0.6,2.4,0.6c0.3,0,0.6,0,0.9-0.1l10.1-1.9l0.2,1.3l3-0.6l-0.2-1.3l85.4-15.8l0,0C207.7,185.5,209.5,182.9,209,180.2
				z M68.6,202l-26-131.8l-0.1-0.3c-0.2-0.5-0.6-2,0-3.1c0.4-0.7,1.2-1.1,2.3-1.4c0.9-0.2,4-0.8,8.5-1.6L79.5,200L68.6,202z
				 M83.3,199.4L57.2,63.1c26.7-5.1,86.7-16.7,86.7-16.7s0.6,0,1,0.4c0.6,0.5,1,1.7,1.1,3.4l-65.6,12c-1.3,0.2-2.4,1-3.2,2.1
				c-0.7,1.1-1,2.4-0.8,3.7l23.7,128.4L83.3,199.4z M106,201.1c-1,0.2-2-0.5-2.2-1.5L79.5,67.4c-0.1-0.5,0-1,0.3-1.4
				s0.7-0.7,1.2-0.8l9.1-1.7l26.1,135.7L106,201.1z M204.5,182.9L204.5,182.9l-85.4,15.8L93.1,63l86.4-15.9c0.1,0,0.2,0,0.3,0
				c0.4,0,0.7,0.1,1.1,0.3c0.4,0.3,0.7,0.7,0.8,1.2L206,180.8C206.2,181.8,205.5,182.7,204.5,182.9z"/>
			<path class="st3" d="M81,65.3c-0.5,0.1-0.9,0.4-1.2,0.8c-0.3,0.4-0.4,0.9-0.3,1.4l24.4,132.2c0.2,1,1.2,1.7,2.2,1.5l10.1-1.9
				L90,63.6L81,65.3z"/>
			<polygon class="st11" points="93.8,188.2 94.3,191.3 99,190.5 98.5,187.4 			"/>
			<polygon class="st11" points="92,177.7 92.5,180.7 97.1,179.9 96.5,176.9 			"/>
			<polygon class="st11" points="90,166 90.6,169.1 95,168.3 94.4,165.3 			"/>
			<polygon class="st11" points="87.3,154 87.8,157.1 92.7,156.2 92.2,153.2 			"/>
			<polygon class="st11" points="84.9,140.1 85.5,143.1 90.2,142.3 89.6,139.3 			"/>
			<polygon class="st11" points="82.7,126.9 83.2,129.9 87.7,129.1 87.2,126.1 			"/>
			<polygon class="st11" points="79.6,114.3 80.1,117.4 85.4,116.5 84.8,113.4 			"/>
			<polygon class="st11" points="77.7,103.5 78.2,106.6 83.4,105.7 82.8,102.6 			"/>
			<polygon class="st11" points="75.9,92.9 76.4,95.9 81.4,95.1 80.9,92 			"/>
			<polygon class="st11" points="70.9,73 74.1,92.2 80.7,91 77.2,72.3 			"/>
			<path class="st13" d="M121.9,205.9"/>
			<path class="st17" d="M97.8,203.3l8.6-0.7l9,4C115.3,206.7,99.6,205.2,97.8,203.3z"/>
			<path class="st17" d="M101.5,202c0,0,1.3,5.7,2.6,7.5s2.4,4.1,9.7,2.8C121,210.9,101.5,202,101.5,202z"/>
			<path class="st18" d="M106.1,211.9c0.1,0.1,0.2,0.1,0.3,0.2C106.3,212,106.2,212,106.1,211.9z"/>
			<path class="st17" d="M212,191c-7.3-1.3-3.8-7.3-3.8-7.3l-101.9,18.9c0,0-5.6,1.2-2.2,6.9c0.6,1,1.3,1.8,1.9,2.4c0,0,0,0,0.1,0.1
				s0.2,0.1,0.3,0.2c1.5,0.9,4.7,0.6,7.1,0.2c13.1-2.5,95.1-18.3,97.9-18.9C214.5,192.7,212,191,212,191z"/>
			<path class="st17" d="M106.1,211.9L106.1,211.9L106.1,211.9z"/>
			<polygon class="st19" points="199.7,190.9 198.9,184.8 181.2,188.2 182,193.4 182,193.4 184.1,207.8 191.3,195.4 201.7,205.8 			
				"/>
		</g>
	</g>
	<g>
		<path class="st17" d="M194.6,96.8c0.3,1.6,0.5,3.1,0.9,4.6c0.2,0.2,0.2,0.6,0.3,0.9c0,0.1,0,0.1,0.1,0.2c0.4,1.9,0.7,3.8,1.1,5.6
			c0.1,0.3,0.2,0.6,0,0.9c0.1,1.2,0.4,2.4,0.7,3.6c0.8,3.9,1.5,7.8,2.3,11.8c0.1,0.1,0,0.2,0.1,0.3l0,0c0.2,0.2,0.2,0.6,0.3,0.9
			c0,0.1,0,0.2,0.1,0.2c0.4,2.2,0.8,4.4,1.3,6.5c0,0.3,0.1,0.5,0,0.8c0,0.1,0,0.2,0,0.3c0.1,0.1,0,0.3,0.1,0.4
			c0.2,0.8,0.3,1.6,0.5,2.3c0.5,0.9,0.5,1.8,0.7,2.8c0.4,1.8,0.7,3.7,1.1,5.5c0.1,0.3,0.1,0.6,0,0.8c0.2,1.5,0.5,2.9,0.8,4.4
			c0.1,0.4,0.3,0.7,0.4,1.2c0,0.1,0,0.1,0.1,0.2c0.4,1.9,0.7,3.7,1.1,5.6c0.1,0.3,0.2,0.7,0,1c0.3,1.4,0.5,2.8,0.8,4.2
			c0.1,0.4,0.2,0.9,0.2,1.3c0.2,0.2,0.2,0.6,0.3,0.8c0,0.1,0,0.2,0,0.2c0.4,2.1,0.8,4.2,1.2,6.2c0.1,0.3,0,0.5,0,0.8
			c0.6,3,1.2,6,1.8,9c0.2,1.1,0.4,2.1,0.6,3.2c0.1,0.5-0.2,1-0.7,1.3c-0.1,0.1-0.3,0.2-0.5,0.2c-1.4,0.3-2,2-1.8,3.1
			c0.2,1.4,0.8,2.5,1.9,3.4c0.5,0.4,1,0.7,1.6,0.8c0.3,0.1,0.7,0.1,1,0.3c0.6,0.2,0.7,0.6,0.4,1.1s-0.7,0.7-1.2,0.8
			c-1.6,0.3-3.3,0.7-4.9,1c-2.1,0.4-4.2,0.8-6.3,1.2c-0.4-0.2-0.4-0.6-0.5-0.9c-0.5-2.5-1-5.1-1.6-7.6c-0.2-1.1-0.3-1.1-1.4-0.9
			c-4.9,1-9.8,2-14.7,3c-0.8,0.2-0.9,0.3-0.7,1.1c0.5,2.6,1,5.2,1.5,7.7c0.1,0.3,0.3,0.7,0,1c-2.8,0.5-5.6,1.1-8.4,1.6
			c-5.1,1-10.2,2-15.3,3c-5.2,1-10.4,2.1-15.6,3.1c-4.8,0.9-9.6,1.9-14.3,2.8c-4.2,0.8-8.5,1.6-12.7,2.5c-1.8,0.4-3.6,0.7-5.4,1.2
			c-0.8,0.2-1.6,0.2-2.5,0c-1.3-0.3-2.4-0.8-3.4-1.6c-1.9-1.6-2.9-3.6-3-6.1c0-0.1,0-0.2,0-0.4c-0.1,0-0.1,0-0.1,0
			c-0.8,0.9-1.9,0.9-2.9,1.1c-5.8,1.1-11.5,2.2-17.3,3.3c-3.4,0.7-6.9,1.3-10.3,2c-1.4,0.3-2.5-0.2-3.4-1.1
			c-1.4-1.2-2.2-2.8-2.9-4.5c-0.9-2.3-1.3-4.7-1.7-7.1c-0.9-4.8-1.8-9.7-2.8-14.5c-0.8-3.9-1.6-7.9-2.3-11.8
			c-1.1-5.4-2.1-10.8-3.1-16.2c-0.8-4.1-1.6-8.1-2.4-12.2c-1-5.4-2.1-10.7-3.1-16.1c-0.8-4-1.6-8.1-2.4-12.1
			c-1-5.4-2.1-10.8-3.1-16.2c-0.8-4-1.6-8.1-2.4-12.1c-1.1-5.7-2.2-11.3-3.3-17c-0.2-0.8-0.3-1.6-0.5-2.4c-0.2-1-0.2-2,0.1-2.9
			c0.6-1.8,1.7-3.1,3.7-3.4c2.9-0.5,5.8-1.1,8.6-1.7c0.7-0.1,1.4-0.3,2-0.4C58.3,60,63.1,58.9,68,58c5.2-1,10.5-2,15.7-3
			c3.5-0.7,6.9-1.3,10.4-2c5.4-1,10.8-2.1,16.2-3.1c5-1,10-2,15-2.9c5-1,10.1-2,15.1-2.9c0.9-0.2,1.8-0.3,2.7-0.5
			c2.1-0.4,4.2,0.9,5.1,2.4c0.4,0.7,0.6,1.4,0.8,2.2c0.1,0.5,0.2,0.9,0.2,1.4c-0.9,0.4-1.9,0.5-2.9,0.6c-0.3-0.3-0.3-0.8-0.4-1.2
			c-0.3-1.5-1.2-2.1-2.7-1.8c-6.6,1.3-13.2,2.6-19.8,3.8c-12.5,2.4-24.9,4.8-37.4,7.3c-8.3,1.6-16.5,3.2-24.8,4.8
			c-1,0.2-2.1,0.4-3.1,0.6c-0.7,0.2-0.8,0.3-0.7,1c1,4.8,1.8,9.6,2.8,14.4c0.7,3.3,1.3,6.7,1.9,10c1.4,7.1,2.8,14.2,4.1,21.3
			c1.4,7,2.7,14,4.1,21c0.9,4.5,1.8,9.1,2.7,13.6c1.1,5.7,2.2,11.4,3.3,17.1c0.9,4.9,1.9,9.7,2.8,14.6c1.1,5.4,2.2,10.8,3.2,16.3
			c0.4,2.2,0.8,4.3,1.2,6.5c0,0.2,0.1,0.5,0.2,0.7c0.1,0.6,0.4,0.7,0.9,0.6c1.4-0.2,2.7-0.6,4.1-0.8c3.5-0.7,7-1.3,10.5-2
			c1.1-0.2,1.1-0.2,0.9-1.4c-0.3-1.6-0.7-3.2-0.9-4.8c-0.2-1.2-0.5-2.4-0.7-3.6c-0.4-2.1-1-4.3-1.3-6.4c0-0.2,0-0.5-0.1-0.7
			c0-0.1,0-0.2-0.1-0.2c-0.2-1.2-0.5-2.4-0.7-3.6c-0.5-2.5-1-5-1.5-7.5c-0.2-1.2-0.4-2.4-0.7-3.7c-0.5-2.5-1-4.9-1.5-7.4
			c0-0.3,0-0.5-0.1-0.8c0-0.1,0-0.1-0.1-0.2c-0.2-0.9-0.3-1.9-0.6-2.8c-0.8-3.7-1.4-7.4-2.2-11.1c-0.2-1.2-0.5-2.4-0.7-3.7
			c-0.6-3.3-1.3-6.6-1.9-10c-0.1-1.2-0.5-2.4-0.7-3.7c-0.6-2.7-1.1-5.5-1.6-8.2c-0.2-1.2-0.5-2.4-0.7-3.7c-0.6-2.7-1.1-5.5-1.6-8.2
			c-0.1-1-0.3-2-0.5-2.9c-0.5-2.5-1-5-1.5-7.5c-0.1-1.2-0.5-2.4-0.7-3.6c0-0.1,0-0.2-0.1-0.2c-0.5-2.8-1.1-5.6-1.6-8.5
			c-0.7-3.6-1.4-7.3-2.1-10.9c-0.3-1.5-0.7-3-0.8-4.6c-0.1-2.3,1.4-4.9,4.1-5.3c3.4-0.6,6.9-1.4,10.3-2c13.1-2.3,26.1-5,39.1-7.5
			c5.5-1.1,11.1-2.2,16.6-3.2c0.3-0.1,0.6-0.2,0.9-0.1c0.2,0.2,0.5,0.1,0.7,0c0.8-0.2,1.6-0.2,2.3-0.5c1.4-0.2,2.8-0.5,4.3-0.8
			c5.6-1.1,11.2-2.2,16.8-3.3c2.8-0.5,5.6-1.1,8.4-1.7c1.5-0.3,2.8-0.3,4.1,0.6c1.2,0.8,2,1.9,2.3,3.3c0.8,4,1.6,8,2.3,12.1
			c0.1,0.1,0.2,0.2,0.2,0.4c0,0.1,0,0.1,0.1,0.2c0,0.5,0.2,0.9,0.3,1.4c0.3,1.7,0.7,3.4,1,5.1c0,0.2,0,0.4,0.1,0.6
			c0,0.1,0,0.1,0.1,0.2c0,0.2,0.1,0.5,0.1,0.7c0.1,0.3-0.2,0.5,0,0.8c0.2,0.7,0.3,1.5,0.5,2.2c0.4,0.6,0.4,1.3,0.6,1.9
			c0.3,1.4,0.5,2.9,0.8,4.3c0.2,0.8,0.4,1.6,0.3,2.5c0.2,1.4,0.5,2.8,0.8,4.3c0.2,1.1,0.5,2.3,0.7,3.4c0.3,0.3,0.3,0.8,0.4,1.2
			c0.4,2.3,0.9,4.5,1.3,6.8c0,0.1,0,0.2,0,0.2C194.6,96.2,194.8,96.5,194.6,96.8z"/>
		<path class="st20" d="M208.5,183.2c0-0.2-0.1-0.4-0.1-0.6c-0.1-0.8-0.3-1.7-0.5-2.5c-0.5-2.4-0.9-4.7-1.4-7.1
			c-0.4-2.3-0.9-4.6-1.3-6.9c-0.6-2.9-1.1-5.8-1.7-8.7c-0.6-3.2-1.3-6.5-1.9-9.8c-0.7-3.7-1.4-7.3-2.1-11c-0.5-2.1-0.9-4.3-1.3-6.4
			c-0.6-3.1-1.2-6.2-1.8-9.3c-0.6-3.3-1.3-6.5-1.9-9.8c-0.7-3.7-1.4-7.4-2.1-11.1c-0.6-2.8-1.2-5.6-1.7-8.4
			c-0.7-3.9-1.5-7.7-2.2-11.6c-0.7-3.4-1.3-6.9-2-10.3c-0.6-3.5-1.3-7-2-10.5c-0.7-3.6-1.4-7.2-2.1-10.8c-0.3-1.2-1.1-1.9-2.3-1.9
			c-0.6,0-1.2,0.1-1.9,0.3c-3.7,0.7-7.4,1.4-11.1,2.1c-2.1,0.4-4.2,0.8-6.3,1.2c-3.1,0.6-6.2,1.2-9.3,1.8c-2.2,0.4-4.3,0.8-6.4,1.2
			c-3.1,0.6-6.2,1.2-9.3,1.8c-2.4,0.5-4.7,0.9-7.1,1.4c-2.8,0.6-5.7,1.1-8.6,1.7c-3.1,0.6-6.1,1.2-9.1,1.8
			c-3.7,0.7-7.4,1.4-11.1,2.1c-2.1,0.4-4.2,0.8-6.3,1.2c-0.9,0.2-0.9,0.2-0.7,1.1c0.5,2.1,0.9,4.2,1.3,6.3c0.5,3,1.1,5.9,1.7,8.9
			c0.4,1.6,0.7,3.3,1,5c0.4,2,0.8,4.1,1.2,6.1c0.3,1.4,0.5,2.9,0.8,4.3c0.4,2,0.8,4.1,1.2,6.1c0.3,1.5,0.5,2.9,0.8,4.4
			c0.4,2,0.8,4,1.2,5.9c0.3,1.5,0.5,2.9,0.8,4.4c0.6,3.2,1.3,6.4,1.9,9.6c0.7,3.8,1.5,7.5,2.2,11.3c0.6,3.4,1.4,6.8,2,10.3
			c0.5,3.3,1.3,6.6,1.9,9.9c0.5,2.6,1,5.1,1.5,7.7c0.5,2.4,0.9,4.8,1.4,7.2c0.6,2.9,1.2,5.9,1.8,8.8c0.5,2.2,0.9,4.3,1.3,6.5
			c0.7,3.7,1.5,7.2,1.9,10.9c0,0.9,0.4,1.6,0.7,2.3c0.3,0.7,0.8,1,1.5,1c0.3,0,0.6,0,0.9-0.1c1.4-0.3,2.7-0.5,4.1-0.8
			c3.3-0.7,6.7-1.3,10-2c2-0.4,4.1-0.8,6.1-1.2c3.5-0.7,7.1-1.4,10.6-2.1c3.9-0.8,7.7-1.5,11.5-2.3c3.2-0.6,6.5-1.3,9.8-1.9
			c3.9-0.8,7.7-1.5,11.5-2.3c3.3-0.7,6.6-1.3,9.9-2c2.1-0.4,4.2-0.8,6.2-1.2c2.1-0.4,4.3-0.8,6.4-1.4
			C208.4,183.7,208.6,183.6,208.5,183.2z"/>
		<path class="st19" d="M183.5,200.1c-0.6-3-1.2-6.1-1.8-9.1c-0.1-0.6,0-0.7,0.6-0.9c5.2-1.1,10.3-2.1,15.5-3.2
			c0.8-0.2,1-0.1,1.2,0.8c0.6,2.8,1.2,5.5,1.7,8.3c0,0.2,0.1,0.4,0.2,0.6c0.1,1.2,0.4,2.4,0.7,3.5c0.3,1.7,0.7,3.4,1.1,5.2
			c0.1,0.3,0.2,0.6-0.2,0.8c-0.3,0.1-0.6,0-0.8-0.2c-1.2-1.3-2.5-2.5-3.7-3.8c-1.3-1.4-2.7-2.7-4.1-4.1c-0.6-0.3-0.9-0.8-1.3-1.2
			c-0.3-0.3-0.5-0.3-0.8,0.1c-0.4,0.6-0.5,1.2-1.1,1.7c-0.5,0.9-0.9,1.8-1.4,2.8c-1,2-2,3.9-3,5.9c-0.1,0.1-0.1,0.2-0.2,0.3
			c-0.1,0.2-0.3,0.4-0.7,0.4c-0.3,0-0.4-0.3-0.5-0.6c-0.3-1.4-0.6-2.8-0.8-4.2C183.9,202.1,183.7,201.1,183.5,200.1z"/>
		<path class="st6" d="M191.3,80c-0.3-1.1-0.5-2.2-0.7-3.3c-0.4-1.7-0.7-3.5-1-5.2c0-0.1,0-0.1,0-0.2c0.5,0.3,1,0,1.5,0
			c2.7-0.5,5.4-1,8-1.6c0.8-0.2,1.6-0.2,2.4-0.5c0.3-0.1,0.5-0.1,0.6,0.3c0.5,2.4,0.9,4.8,1.4,7.2c0.1,0.4,0,0.6-0.4,0.6
			c-3.1,0.5-6.2,1.2-9.3,1.8c-0.6,0.1-1.2,0.3-1.8,0.3C191.6,79.4,191.3,79.6,191.3,80z"/>
		<path class="st3" d="M188.8,66.9c-0.3-0.9-0.4-1.9-0.6-2.8c-0.2-0.8-0.4-1.7-0.4-2.5c-0.1-0.8-0.1-0.8,0.7-1
			c3-0.6,5.9-1.1,8.8-1.7c0.6-0.1,0.8,0,0.9,0.6c0.4,1.8,0.6,3.6,1.1,5.4c0.1,0.5,0,0.8-0.6,0.9c-0.5,0.1-1,0.1-1.5,0.3
			c-1.4,0.2-2.7,0.6-4.1,0.8c1.4-0.2,2.7-0.6,4-0.7c0.5-0.2,1.1-0.2,1.7-0.4c0.4-0.1,0.5-0.3,0.4-0.7c-0.4-1.8-0.7-3.6-1.1-5.4
			c-0.2-1.1-0.3-1-1.4-0.8c-2.8,0.6-5.6,1.1-8.4,1.6c-0.4,0.1-0.9,0.2-0.9-0.5v-0.1c-0.1-0.1-0.1-0.2,0-0.3c1.7-0.3,3.4-0.6,5.1-1
			c1.4-0.3,2.8-0.5,4.2-0.8c0.6-0.1,1.1-0.3,1.7-0.4c0.3,0.7,0.3,1.4,0.5,2c0.4,2.1,0.8,4.2,1.3,6.3c0.1,0.6,0.1,0.6-0.5,0.7
			c-2.6,0.5-5.3,1-7.9,1.5c-0.8,0.1-1.5,0.3-2.3,0.4c-0.4,0.1-0.4,0.3-0.4,0.6c-0.2-0.3-0.1-0.6-0.1-0.8c-0.1-0.3-0.1-0.6,0.2-0.6
			c0.9-0.2,1.7-0.4,2.6-0.5c-0.7,0.1-1.3,0.2-2,0.4c-0.3,0.1-0.6,0.2-0.9,0l0,0C188.7,67.3,188.9,67.1,188.8,66.9z"/>
		<path class="st5" d="M201.7,133.1c-0.3-0.8-0.4-1.7-0.6-2.5c-0.3-1.5-0.6-3-0.9-4.4c0-0.1,0-0.3,0-0.4c0.6-0.3,1.3-0.2,1.9-0.5
			c1.5-0.2,3-0.5,4.5-0.9c1,0,1.9-0.3,2.8-0.5c1.1-0.2,1.1-0.3,1.4,0.9c0.1,0.2,0,0.5,0.1,0.7c0.1,0.9,0.4,1.8,0.5,2.7
			c0.2,0.4,0.1,0.8,0.3,1.2c0.2,0.5,0,0.8-0.5,0.9c-1.2,0.1-2.4,0.4-3.6,0.7c-0.2,0-0.3,0.1-0.4,0.1c1.3-0.2,2.5-0.6,3.9-0.7
			c0.6,0,0.8-0.4,0.6-0.9c-0.1-0.4-0.1-0.8-0.3-1.2c-0.1-0.9-0.3-1.8-0.5-2.7c-0.1-0.3-0.2-0.7-0.2-1c0-0.6-0.3-0.8-0.9-0.7
			c-1.2,0.3-2.3,0.4-3.5,0.7c-1.2,0.1-2.3,0.4-3.5,0.7c-0.3,0.1-0.6,0-0.8,0.1c-0.6,0-1.2,0.3-1.9,0.3c-0.2-0.3-0.1-0.6-0.1-0.9
			c1.9-0.4,3.9-0.8,5.8-1.1c1.6-0.3,3.3-0.6,4.9-0.9c0.3-0.1,0.5-0.1,0.6,0.3c0.5,2.6,1,5.3,1.6,7.9c-0.7,0.3-1.5,0.4-2.3,0.5
			c-2.9,0.6-5.7,1.1-8.6,1.6C201.9,133,201.8,133.1,201.7,133.1z"/>
		<path class="st21" d="M205.1,150.8c-0.2-0.4-0.2-0.8-0.3-1.1c0.2,0.2,0.3,0.3,0.6,0.2c2.8-0.6,5.6-1.1,8.5-1.7c0.2,0,0.3,0,0.5,0
			c0.3,0,0.5,0.1,0.5,0.5c0.2,1.2,0.5,2.3,0.7,3.5c0.2,0.9,0.3,1.8,0.5,2.7c0.1,0.8,0.2,0.7-0.6,0.9c-1.3,0.3-2.6,0.5-3.9,0.8
			c-1.6,0.3-3.2,0.6-4.9,0.9c-0.1,0-0.3,0.1-0.4,0.1c-0.3-1.1-0.5-2.2-0.7-3.2c-0.2-1.1-0.5-2.3-0.6-3.4c1.2-0.2,2.4-0.5,3.6-0.7
			c0.1,0-0.1-0.1,0,0v0.1c-0.9,0.1-1.9,0.3-2.8,0.5C205.6,150.9,205.4,150.9,205.1,150.8z"/>
		<path class="st5" d="M209,171.2c-0.2-1.1-0.5-2.1-0.7-3.2c-0.3-1.3-0.5-2.6-0.7-3.9c0.8-0.4,1.7-0.4,2.5-0.6
			c2.3-0.5,4.5-0.9,6.8-1.3c0.4-0.1,0.9-0.4,1.1,0.3c0.4,1.8,0.8,3.6,1.1,5.5c-0.5,0.4-1.1,0.2-1.7,0.5c-0.8,0.1-1.5,0.3-2.3,0.4
			c-0.8,0.1-1.5,0.3-2.3,0.4c-0.8,0.1-1.5,0.3-2.3,0.4c-0.4,0.2-0.9,0.1-1.2,0.2c0.4-0.1,0.8,0,1.3-0.3c0.8,0,1.5-0.3,2.3-0.4
			c0.8-0.1,1.5-0.3,2.3-0.4c0.8-0.1,1.5-0.3,2.3-0.4c0.6-0.1,1.1-0.3,1.7-0.3c0.2,0.9,0.2,0.9-0.7,1.1c-2.9,0.6-5.9,1.1-8.8,1.7
			C209.3,171,209.1,171,209,171.2z"/>
		<path class="st10" d="M204,145.3c-0.5-2.3-0.9-4.6-1.4-6.9c-0.1-0.8-0.4-1.5-0.4-2.3c0.8-0.3,1.7-0.4,2.6-0.6
			c1.9-0.4,3.8-0.8,5.7-1.1c2-0.4,4-0.8,6-1.2c0.4-0.1,0.6,0,0.8,0.4c0.3,0.4,0.3,0.9,0.4,1.4c0.4,2.2,0.9,4.4,1.3,6.6
			c0.1,0.6,0,0.7-0.6,0.8c-0.9,0.1-1.8,0.3-2.6,0.5c-2.7,0.5-5.3,1-8,1.6c-1.1,0.2-2.1,0.4-3.2,0.6
			C204.5,145.1,204.3,145.2,204,145.3z"/>
		<path class="st15" d="M197,109.1c-0.1-0.3-0.2-0.6-0.2-0.8v-0.1c0.6-0.4,1.4-0.4,2.1-0.6c0.1,0,0.1,0,0.2,0c0.2,0,0.4,0,0.6-0.1
			c0.1,0,0.1,0,0.2-0.1c0.2,0,0.4,0,0.6-0.1c0.1,0,0.1,0,0.2-0.1c1.1-0.1,2.2-0.4,3.4-0.6c0.1,0,0.1,0,0.2-0.1
			c0.2-0.1,0.6,0.1,0.6-0.4c0-0.1,0-0.1,0-0.2c-0.2-1.5-0.6-3.1-0.9-4.6c-0.1-0.3-0.2-0.4-0.5-0.3c-0.6,0.1-1.1,0.2-1.7,0.3
			c-0.1,0-0.1,0-0.2,0.1c-0.2,0-0.5,0-0.7,0.1c-0.1,0-0.1,0-0.2,0.1c-0.2,0-0.3,0-0.5,0.1c-1,0.2-1.9,0.4-2.9,0.6
			c-0.1,0-0.1,0-0.2,0.1c-0.2,0-0.5,0-0.7,0.1c-0.1,0-0.1,0-0.2,0.1c-0.2,0-0.4,0-0.6-0.1c-0.2-0.3-0.1-0.6-0.2-0.9
			c0.8-0.3,1.7-0.4,2.6-0.6c1.4-0.3,2.8-0.5,4.2-0.8c0.5-0.1,1.1-0.2,1.6-0.3c0.5-0.1,0.6,0,0.7,0.5c0.2,1,0.4,2.1,0.6,3.1
			c0.2,1.1,0.4,2.2,0.7,3.3c0.1,0.7,0.1,0.7-0.6,0.9c-2.5,0.5-5,1-7.5,1.5C197.6,109,197.3,109.1,197,109.1z"/>
		<path class="st22" d="M193.1,88.8c-0.2-0.4-0.2-0.8-0.3-1.2c2.1-0.4,4.2-0.8,6.4-1.2c0.5-0.1,0.6,0,0.8,0.5
			c0.3,0.9,0.4,1.9,0.6,2.9c0.3,1.7,0.6,3.5,1,5.2c0.1,0.3,0,0.4-0.3,0.5c-0.9,0.3-1.7,0.4-2.6,0.6c-1.2,0.2-2.3,0.5-3.5,0.7
			c-0.2,0-0.4,0-0.6,0c-0.1-0.3-0.2-0.6-0.2-0.9c0.2-0.2,0.4-0.1,0.6-0.2c0.1,0,0.1,0,0.2,0c0.2,0,0.4,0,0.5-0.1c0.1,0,0.1,0,0.2,0
			c0.2,0,0.4,0,0.6-0.1c0.1,0,0.1,0,0.2-0.1c0.2,0,0.3,0,0.5-0.1c0.2,0,0.4-0.1,0.6-0.1c0.6-0.1,1.1-0.2,1.7-0.3
			c0.1,0,0.1,0,0.2-0.1c0.2,0,0.3,0,0.5-0.1c0.3-0.2,0.1-0.5,0.1-0.8c-0.4-1.9-0.7-3.8-1.1-5.7c-0.1-0.3,0-0.6-0.4-0.5
			c-1.8,0.4-3.6,0.6-5.4,1.1C193.2,88.8,193.2,88.8,193.1,88.8z"/>
		<path class="st5" d="M207.6,164c-0.1-0.3-0.2-0.6-0.2-0.9c1.2-0.1,2.3-0.4,3.5-0.6c2-0.4,4.1-0.8,6.1-1.2c0.7-0.1,0.8,0,0.8,0.8
			c-3.3,0.7-6.5,1.3-9.8,1.9C207.9,164.1,207.8,164.1,207.6,164z"/>
		<path class="st23" d="M190.6,198.6c0.4-0.8,0.8-1.6,1.3-2.5c0.7,0.7,1.3,1.3,1.8,1.9C192.8,198.2,191.7,198.5,190.6,198.6z"/>
		<path class="st24" d="M207.6,164c1.2-0.1,2.4-0.4,3.6-0.7c2.1-0.4,4.1-0.8,6.2-1.2c0.2,0,0.3,0,0.5,0c0.1,0.1,0.1,0.3,0.1,0.4
			c-0.2-0.2-0.3-0.3-0.6-0.2c-2.7,0.6-5.5,1.1-8.2,1.6c-0.5,0.1-1,0.3-1.6,0.2V164z"/>
		<path class="st25" d="M217.4,168.5c0.5-0.3,1.1-0.3,1.6-0.4c0.1,0,0.1,0.1,0.1,0.2C218.6,168.4,218,168.5,217.4,168.5L217.4,168.5
			z"/>
		<path class="st5" d="M201.8,133.8c-0.1-0.1-0.1-0.3-0.1-0.4C201.8,133.5,201.8,133.7,201.8,133.8z"/>
		<path class="st26" d="M187.4,59.7c0,0.1,0,0.2,0,0.3c-0.1-0.1-0.1-0.2-0.1-0.3C187.4,59.6,187.4,59.7,187.4,59.7z"/>
		<path class="st5" d="M200,124.7c-0.1-0.1-0.2-0.2-0.1-0.3C200,124.5,200.1,124.6,200,124.7z"/>
		<path class="st6" d="M94.9,169.5c0.5,2.5,1,5,1.5,7.5c0.1,0.8,0.1,0.9-0.7,1.1c-1,0.2-2,0.4-3.1,0.6c-0.8,0.2-0.8,0.3-0.7,1
			c0.3,1.9,0.2,1.6,1.8,1.3c0.9-0.2,1.7-0.3,2.6-0.5c0.3-0.1,0.6-0.1,0.8,0.1v0.1c0.1,0.2,0,0.4,0.1,0.6c0.4,2.2,0.9,4.3,1.3,6.5
			c0.1,0.8,0,0.9-0.7,1.1c-1.1,0.2-2.1,0.4-3.2,0.6c-0.6,0.1-0.7,0.4-0.7,0.9c0.3,1.7,0.2,1.7,1.9,1.4c0.8-0.2,1.6-0.3,2.4-0.5
			c0.3-0.1,0.7-0.2,1,0.1c0.4,1.8,0.7,3.7,1.1,5.5c0.1,0.6,0.1,0.6-0.5,0.7c-3.5,0.7-6.9,1.3-10.4,2c-1.3,0.2-2.5,0.5-3.7,0.8
			c-0.5,0.1-1.1,0.1-1.6,0.3c-0.4,0.1-0.5,0-0.6-0.3c-0.3-1.2-0.5-2.4-0.7-3.5c-0.2-0.9-0.3-1.9-0.5-2.8c-0.5-3.3-1.2-6.5-1.8-9.7
			c-0.4-2-0.8-4-1.2-6c-0.7-3.7-1.5-7.5-2.2-11.2c-0.6-3.5-1.4-6.9-2-10.4c-0.7-3.5-1.3-7-2-10.4c-0.7-3.5-1.4-7-2-10.4
			c-0.7-3.5-1.4-7-2-10.5c-0.7-3.7-1.5-7.5-2.2-11.2c-0.6-3-1.2-6-1.8-9c-0.3-1.3-0.5-2.7-0.7-4c-0.4-2.1-0.8-4.2-1.2-6.3
			c-0.8-3.9-1.5-7.8-2.3-11.8c-0.8-3.9-1.5-7.7-2.2-11.6c-0.4-2.5-1-5-1.5-7.4c-0.1-0.7-0.1-0.7,0.6-0.8c3-0.6,6-1.2,9.1-1.8
			c4.4-0.9,8.8-1.7,13.2-2.6c5.2-1,10.4-2,15.7-3c5.2-1,10.4-2,15.6-3s10.4-2,15.7-3c3.5-0.7,6.9-1.4,10.4-2c2-0.4,4.1-0.8,6.1-1.2
			c1.3-0.2,2.4,0.5,2.6,1.8c0.1,0.5,0.2,1,0.3,1.5l0,0c-1.5,0.3-2.9,0.6-4.4,0.9c-4.1,0.8-8.1,1.6-12.2,2.4
			c-4.6,0.9-9.2,1.8-13.8,2.7c-4.1,0.8-8.2,1.6-12.3,2.4c-4.1,0.8-8.2,1.7-12.3,2.4c-4.1,0.7-8.2,1.6-12.3,2.4
			c-1.8,0.3-2.7,1.6-3.3,3.3c-0.3,1-0.3,1.9-0.1,2.9c0.2,1.1,0.4,2.2,0.6,3.3c0.1,0.5-0.3,0.6-0.6,0.6c-1.3,0.2-2.7,0.5-4,0.8
			c-0.6,0.1-0.7,0.3-0.6,0.9c1.1,5.6,2.2,11.3,3.3,16.9c0.2,1,0.2,1,1.2,0.8c1.2-0.2,2.4-0.5,3.6-0.7c0.3-0.1,0.6-0.2,0.9,0.1v0.1
			c0.1,0.5-0.3,0.5-0.6,0.6c-1.1,0.2-2.1,0.4-3.2,0.6c-0.9,0.2-1,0.2-0.8,1.1c0.4,1.7,0.1,1.6,1.8,1.2c0.9-0.2,1.8-0.3,2.6-0.5
			c0.5-0.1,0.8,0,0.9,0.5c0.5,2.5,1,5,1.4,7.5c-0.2,0.3-0.6,0.3-1,0.4c-1,0.2-2,0.4-3,0.6c-0.6,0.1-0.8,0.4-0.6,1
			c0.4,1.9,0.2,1.7,2,1.4c0.8-0.2,1.6-0.3,2.4-0.5c0.3-0.1,0.6-0.1,0.8,0.1c0.4,1.9,0.8,3.9,1.2,5.8c0.2,0.8,0.3,1.6,0.4,2.4
			c0.2,0.5-0.1,0.6-0.5,0.7c-1.1,0.2-2.2,0.4-3.3,0.7c-0.9,0.2-0.9,0.3-0.7,1.1c0.4,1.8,0.2,1.5,1.8,1.2c0.9-0.1,1.8-0.3,2.7-0.5
			c0.4-0.1,0.7,0,0.7,0.5c0.5,2.8,1.1,5.5,1.6,8.3c0.1,0.6-0.3,0.5-0.6,0.6c-1.1,0.2-2.2,0.4-3.3,0.7c-0.8,0.2-0.9,0.2-0.7,1.1
			c0.3,1.9,0.2,1.6,1.8,1.3c0.9-0.2,1.7-0.3,2.6-0.5c0.5-0.1,0.9-0.1,0.9,0.5c0.6,2.9,1.1,5.8,1.7,8.7c0.1,0.4,0.1,0.9,0.2,1.3
			c0.2,0.6-0.1,0.8-0.6,1c-1.1,0.2-2.2,0.5-3.3,0.7c-0.5,0.1-0.7,0.3-0.6,0.8c0.4,2.1,0.1,1.8,2,1.5c0.8-0.1,1.6-0.3,2.4-0.5
			c0.3-0.1,0.6-0.2,0.8,0.2c0.8,3.6,1.4,7.2,2.2,10.8c0,0.1,0,0.2,0,0.4c0,0.4-0.4,0.4-0.7,0.4c-1.1,0.2-2.2,0.4-3.3,0.6
			c-0.8,0.2-0.8,0.3-0.7,1c0.3,1.6,0.3,1.6,1.9,1.3c0.8-0.2,1.6-0.3,2.4-0.5c0.3-0.1,0.6-0.2,0.8,0l0,0c0.2,0.2,0,0.5,0.2,0.7
			c0.5,2.5,1,5,1.5,7.5c0.2,0.6-0.1,0.8-0.6,0.9c-1.1,0.2-2.2,0.4-3.3,0.6c-0.6,0.1-0.8,0.4-0.6,1c0.4,1.9,0.1,1.6,1.9,1.3
			c0.9-0.1,1.7-0.3,2.6-0.5C94.4,169.2,94.7,169.1,94.9,169.5z"/>
		<path class="st3" d="M78.1,68.4c0-0.7-0.1-1.3,0.3-1.8c0.3-0.4,0.7-0.8,1.3-0.9c1.7-0.4,3.4-0.7,5.2-1c1.1-0.2,2.2-0.4,3.2-0.7
			c0.3-0.1,0.4,0,0.4,0.3c0.3,1.6,0.7,3.2,0.9,4.9c0.1,0.8,0.3,1.6,0.5,2.3c0.7,2.7,1.2,5.5,1.6,8.2c0.5,3,1.2,5.9,1.7,8.8
			c0.3,1.6,0.5,3.3,0.9,4.9c0.5,2.2,0.9,4.4,1.3,6.6c0.5,3.1,1.3,6.2,1.8,9.3c0.3,1.7,0.6,3.4,0.9,5c0.4,1.8,0.7,3.6,1.1,5.4
			c0.3,1.8,0.6,3.6,1,5.3c0.3,1.2,0.5,2.4,0.7,3.6c0.4,2.1,0.8,4.1,1.1,6.2c0.2,1.5,0.6,2.9,0.9,4.4c0.4,2,0.8,4,1.1,6
			c0.2,1.2,0.5,2.4,0.8,3.7c0.4,1.9,0.7,3.7,1,5.6c0.3,1.6,0.7,3.1,1,4.7c0.4,2.1,0.8,4.1,1.2,6.2c0.2,1.5,0.6,2.9,0.9,4.4
			c0.4,1.8,0.8,3.6,1,5.4c0.3,1.9,0.8,3.7,1.1,5.6c0.3,1.9,0.7,3.7,1,5.5c0.5,2.8,1,5.5,1.6,8.3c0.4,1.8,0.8,3.7,1.2,5.5
			c0.1,0.6,0.1,1.3,0.3,1.9c0.1,0.3-0.1,0.4-0.3,0.5c-1.5,0.3-3,0.6-4.5,0.9c-1.1,0.2-2.3,0.4-3.4,0.7c-0.4,0.1-0.9,0.1-1.3,0.1
			c-1-0.1-1.7-0.8-1.9-1.9c-0.3-1.7-0.7-3.3-0.9-5c-0.4-2.6-1-5.1-1.4-7.6c-0.3-1.5-0.6-3-0.9-4.5c-0.6-2.7-1.1-5.4-1.6-8
			c-0.7-3.5-1.4-6.9-2-10.4c-0.7-3.5-1.4-7-2-10.5c-0.7-3.5-1.3-6.9-2-10.4c-0.6-3.3-1.3-6.5-1.9-9.8c-0.7-3.5-1.4-6.9-2-10.4
			c-0.7-3.5-1.4-7-2-10.5c-0.7-3.5-1.3-6.9-2-10.4s-1.4-7-2-10.5c-0.7-3.5-1.3-6.9-2-10.4c-0.6-3.3-1.2-6.5-1.9-9.8
			c-0.3-1.6-0.6-3.2-0.9-4.7C78,68.9,78.1,68.6,78.1,68.4z"/>
		<path class="st3" d="M41.8,68.3c0-0.3,0-0.5,0-0.7c0.1-0.8,0.6-1.3,1.3-1.6c0.8-0.3,1.6-0.4,2.4-0.5c1.9-0.4,3.8-0.7,5.7-1.1
			c0.7-0.1,0.8-0.1,0.9,0.5c0.3,1.5,0.7,2.9,0.8,4.5c0.1,0.8,0.3,1.6,0.5,2.4c0.5,2.2,0.9,4.4,1.4,6.6c0.3,1.4,0.4,2.7,0.7,4.1
			c0.4,2,0.9,4.1,1.2,6.1c0.3,1.5,0.5,3,0.8,4.5c0.3,1.2,0.5,2.4,0.8,3.7c0.4,2,0.8,4.1,1.1,6.2c0.3,1.4,0.6,2.9,0.9,4.3
			c0.4,2,0.7,4.1,1.1,6.1c0.2,1.2,0.5,2.4,0.8,3.6c0.5,2.3,0.9,4.6,1.3,6.9c0.2,1.5,0.6,2.9,0.9,4.4c0.4,1.8,0.8,3.6,1,5.4
			c0.3,2.2,0.9,4.3,1.3,6.4c0.3,1.7,0.7,3.4,0.9,5.2c0.3,1.8,0.8,3.5,1.1,5.3c0.3,1.6,0.7,3.1,0.8,4.7c0.1,1.2,0.5,2.3,0.7,3.5
			c0.4,2,0.9,4.1,1.2,6.1c0.3,2.2,0.9,4.3,1.3,6.4c0.2,1.4,0.6,2.7,0.8,4c0.2,2,0.9,3.9,1.2,5.9c0.2,1.7,0.6,3.4,0.9,5.2
			c0.5,2.8,1,5.5,1.6,8.3c0.3,1.5,0.7,3,0.9,4.4c0.1,0.9,0.4,1.8,0.5,2.7c0,0.3,0,0.4-0.3,0.4c-2.3,0.4-4.6,0.9-6.9,1.3
			c-0.4,0.1-0.8,0.2-1.2,0.2c-1.6,0.2-2.4-0.5-2.6-1.7c-0.3-1.6-0.7-3.1-0.9-4.7c-0.3-1.9-0.6-3.7-1-5.5c-0.6-3-1.1-6-1.8-9
			c-0.5-2.4-0.9-4.8-1.4-7.2c-0.2-1.3-0.5-2.5-0.7-3.7c-0.5-2.4-0.9-4.9-1.4-7.3c-0.6-2.9-1.1-5.7-1.7-8.6c-0.6-2.8-1.1-5.7-1.6-8.5
			c-0.5-2.3-0.9-4.7-1.3-7c-0.5-2.4-0.9-4.9-1.4-7.3c-0.6-2.8-1.1-5.7-1.7-8.5c-0.5-2.6-1-5.2-1.5-7.8c-0.4-2.3-0.9-4.6-1.3-6.9
			c-0.5-2.4-0.9-4.9-1.4-7.3c-0.6-2.9-1.1-5.7-1.7-8.6c-0.6-2.9-1.1-5.7-1.6-8.6c-0.5-2.4-0.9-4.7-1.4-7.1s-0.9-4.8-1.4-7.1
			C42.1,70.3,41.8,69.4,41.8,68.3z"/>
		<path class="st11" d="M79.8,92c-0.9,0.1-1.8,0.3-2.7,0.5c-0.8,0.1-1.6,0.3-2.4,0.5c-0.5,0.1-0.6,0-0.7-0.5c-0.5-2.5-1-4.9-1.4-7.4
			c-0.5-2.6-1-5.2-1.5-7.8c-0.2-1-0.3-2-0.5-3c-0.1-0.3,0-0.4,0.3-0.5c1.6-0.3,3.1-0.7,4.7-0.9c0.3,0,0.5-0.1,0.5-0.4
			c0.3,0.8,0.4,1.7,0.6,2.5c0.7,3.6,1.4,7.3,2.1,10.9c0.4,1.8,0.7,3.6,1,5.4C79.8,91.6,79.8,91.8,79.8,92z"/>
		<path class="st15" d="M196.8,108.2c-0.3-1.1-0.5-2.3-0.7-3.4c-0.2-0.8-0.4-1.6-0.4-2.4c0.2-0.2,0.5,0,0.7-0.2l0,0
			c0.2-0.2,0.5,0,0.7-0.1l0,0c1-0.2,2.1-0.4,3.1-0.6c0.2-0.1,0.5,0.1,0.7-0.1l0,0c0.2-0.2,0.5,0,0.7-0.1l0,0
			c0.6-0.1,1.2-0.2,1.7-0.3c0.4-0.1,0.7,0,0.8,0.6c0.3,1.6,0.6,3.1,0.9,4.7l0,0c0,0.6-0.5,0.2-0.7,0.4l0,0c-1.3,0.2-2.5,0.5-3.8,0.7
			l0,0c-0.2,0.2-0.5,0-0.7,0.1l0,0c-0.2,0.2-0.5,0-0.7,0.1l0,0C198.4,107.8,197.6,107.8,196.8,108.2L196.8,108.2z"/>
		<path class="st22" d="M193.1,88.8c0-0.1,0-0.1,0-0.2c1.9-0.5,3.8-0.8,5.6-1.2c0.5-0.1,0.4,0.3,0.5,0.5c0.3,1.8,0.7,3.7,1.1,5.5
			c0.1,0.4,0.3,0.8,0,1.2c-0.2,0.2-0.5,0-0.7,0.2l0,0c-0.6,0.1-1.2,0.2-1.8,0.4c-0.2,0-0.4,0.1-0.6,0.1c-0.2,0-0.4-0.1-0.6,0.1l0,0
			c-0.2,0.2-0.5,0-0.7,0.1l0,0c-0.2,0.2-0.5,0-0.7,0.1l0,0c-0.2,0.1-0.5,0.1-0.7,0c-0.3-0.8-0.4-1.7-0.5-2.6
			c-0.3-1.3-0.5-2.6-0.8-3.9C193.1,89.1,193.1,89,193.1,88.8z"/>
		<path class="st11" d="M99.2,191.5c-0.8-0.1-1.5,0.2-2.2,0.3c-0.8,0.1-1.6,0.3-2.5,0.5c-0.3,0.1-0.5,0-0.5-0.3
			c-0.1-0.7-0.3-1.4-0.4-2.1c0-0.3,0.1-0.4,0.4-0.4c0.7-0.1,1.3-0.3,2-0.4c0.6-0.1,1.2-0.2,1.8-0.3c0.7-0.1,0.7-0.2,0.7-0.9
			c0.3,0.9,0.4,1.8,0.6,2.7C99.1,190.8,99.3,191.2,99.2,191.5z"/>
		<path class="st11" d="M87.2,129.9c-0.2-0.4-0.4-0.5-0.8-0.4c-1.3,0.3-2.5,0.5-3.8,0.8c-0.3,0.1-0.5,0-0.6-0.4
			c-0.1-0.7-0.3-1.3-0.4-2c-0.1-0.3,0-0.4,0.4-0.5c1.2-0.2,2.5-0.5,3.7-0.7c0.3-0.1,0.8,0.1,0.9-0.4c0.3,0.9,0.4,1.8,0.6,2.6
			C87.1,129.3,87.3,129.6,87.2,129.9z"/>
		<path class="st11" d="M89.8,143.6c-0.4-0.2-0.7,0-1.1,0.1c-1.2,0.2-2.3,0.4-3.5,0.7c-0.5,0.1-0.5,0-0.6-0.4
			c-0.1-0.8-0.3-1.5-0.4-2.3c0.6-0.3,1.4-0.3,2-0.5c0.7-0.2,1.5-0.3,2.2-0.4c0.6-0.1,0.6-0.1,0.7-0.8c0.3,0.9,0.4,1.8,0.6,2.6
			C89.7,142.9,89.9,143.2,89.8,143.6z"/>
		<path class="st11" d="M80.5,95.7c-0.2-0.3-0.3-0.5-0.8-0.4c-1.3,0.3-2.6,0.5-3.9,0.8c-0.4,0.1-0.5,0-0.6-0.4
			c-0.1-0.6-0.3-1.2-0.4-1.8c-0.1-0.4,0-0.6,0.4-0.6c1.2-0.3,2.5-0.5,3.7-0.7c0.3-0.1,0.7,0,0.7-0.4C80.1,93.3,80.4,94.5,80.5,95.7z
			"/>
		<path class="st11" d="M97,180.6c-1.2,0.1-2.4,0.4-3.6,0.6c-0.3,0.1-0.6,0.1-0.9,0.2c-0.3,0.1-0.6,0-0.7-0.4
			c-0.1-0.6-0.2-1.2-0.3-1.8c-0.1-0.4,0.1-0.6,0.5-0.7c1.2-0.2,2.3-0.5,3.5-0.7c0.8-0.1,0.8-0.1,0.8-0.9c0.3,0.9,0.4,1.8,0.6,2.7
			C97,180,97.1,180.3,97,180.6z"/>
		<path class="st11" d="M84.9,118.1c-0.1-0.2-0.3-0.4-0.6-0.3c-0.8,0.2-1.7,0.3-2.5,0.5c-0.5,0.1-1.1,0.2-1.6,0.3
			c-0.3,0.1-0.4-0.1-0.4-0.3c-0.1-0.6-0.2-1.3-0.4-1.9c-0.1-0.4,0-0.5,0.4-0.6c0.7-0.1,1.3-0.3,2-0.4s1.5-0.3,2.2-0.4
			c0.3,0,0.3-0.2,0.3-0.5c0.3,0.9,0.3,1.8,0.6,2.7C84.8,117.4,84.9,117.7,84.9,118.1z"/>
		<path class="st11" d="M94.9,169.5c-0.2-0.1-0.3-0.1-0.5-0.1c-1.3,0.3-2.6,0.5-3.9,0.8c-0.6,0.1-0.7,0-0.8-0.6
			c-0.1-0.5-0.2-0.9-0.3-1.4c-0.1-0.7,0-0.8,0.7-0.9c1.2-0.3,2.4-0.5,3.7-0.7c0.5-0.1,0.4-0.4,0.5-0.7c0.3,0.9,0.3,1.8,0.6,2.6
			C94.8,168.8,94.9,169.1,94.9,169.5z"/>
		<path class="st11" d="M82.6,106.2c-1.2,0.1-2.3,0.4-3.5,0.6c-0.4,0.1-0.8,0.2-1.1,0.2c-0.3,0-0.5-0.1-0.5-0.4
			c-0.1-0.6-0.3-1.3-0.4-1.9c-0.1-0.4,0-0.5,0.5-0.6c1.2-0.2,2.5-0.5,3.7-0.7c0.2,0,0.5-0.1,0.7-0.1
			C82.3,104.2,82.4,105.2,82.6,106.2z"/>
		<path class="st11" d="M92.5,157.6c-1.4,0.3-2.8,0.6-4.1,0.8c-0.2,0-0.4,0-0.6,0s-0.3-0.1-0.4-0.3c-0.1-0.7-0.3-1.4-0.4-2
			c-0.1-0.4,0.2-0.5,0.5-0.5c0.9-0.2,1.7-0.3,2.6-0.5c0.6-0.1,1.3-0.2,1.9-0.4C92.3,155.6,92.5,156.6,92.5,157.6z"/>
		<path class="st26" d="M197.2,66c0.4-0.3,1-0.2,1.4-0.4c0.6-0.2,0.6-0.2,0.5-0.8c-0.4-1.8-0.7-3.7-1.1-5.5
			c-0.1-0.5-0.1-0.6-0.6-0.5c-1.1,0.2-2.2,0.4-3.3,0.6c-2,0.4-3.9,0.8-5.9,1.1c-0.4,0.1-0.4,0.1-0.5,0.9c-0.2-0.5-0.3-1-0.3-1.5
			c0.2,0.4,0.4,0.5,0.9,0.4c2.2-0.4,4.3-0.8,6.5-1.3c0.8-0.2,1.7-0.3,2.5-0.5c0.7-0.1,0.7-0.1,0.9,0.6c0.2,1.1,0.4,2.1,0.6,3.2
			c0.2,0.8,0.3,1.6,0.5,2.4c0.1,0.7,0,0.8-0.7,1c-0.5,0.1-1,0.1-1.5,0.3C197.1,66.2,197.1,66.1,197.2,66
			C197.1,66.1,197.1,66,197.2,66z"/>
		<path class="st27" d="M205.1,150.8c1,0,1.9-0.3,2.9-0.5c0.2,0,0.5-0.1,0.7,0c-1.2,0.2-2.4,0.6-3.6,0.7
			C205.1,150.9,205.1,150.8,205.1,150.8z"/>
		<path class="st28" d="M188.9,67.5c0.8,0,1.5-0.2,2.3-0.4c0.2,0,0.5-0.1,0.9,0c-0.9,0.2-1.7,0.4-2.5,0.5c-0.4,0.1-0.5,0.2-0.5,0.6
			C188.8,68,188.9,67.7,188.9,67.5z"/>
		<path class="st29" d="M146.1,49.9c1-0.2,2-0.4,3-0.6l0,0c-0.1,0.2-0.2,0.3-0.4,0.3c-0.7,0.1-1.3,0.3-2,0.4
			C146.4,50.1,146.3,50.1,146.1,49.9L146.1,49.9z"/>
		<path class="st30" d="M202.1,125.3c-0.6,0.3-1.3,0.3-1.9,0.4v-0.1C200.8,125.4,201.4,125.3,202.1,125.3L202.1,125.3z"/>
		<path class="st11" d="M92.7,158.3c-0.2-0.2-0.1-0.5-0.2-0.7C92.8,157.8,92.7,158.1,92.7,158.3z"/>
		<path class="st31" d="M194.4,95.7c0.2,0,0.5,0,0.7,0C194.9,95.9,194.6,95.8,194.4,95.7C194.4,95.8,194.4,95.8,194.4,95.7z"/>
		<path class="st32" d="M196.4,102.3c-0.2,0.2-0.5,0.1-0.7,0.2c0-0.1,0-0.1,0-0.2C195.9,102.3,196.2,102.3,196.4,102.3z"/>
		<path class="st28" d="M188.8,66.9c0.2,0.2,0.1,0.4,0.1,0.6C188.7,67.3,188.8,67.1,188.8,66.9z"/>
		<path class="st11" d="M97.2,181.4c-0.2-0.2-0.1-0.4-0.1-0.6C97.2,180.9,97.2,181.2,97.2,181.4z"/>
		<path class="st33" d="M202.2,72c0.3,1.2,0.5,2.5,0.8,3.7c0.1,0.3,0.1,0.6-0.3,0.7c-0.7,0.2-1.4,0.4-2.2,0.3
			c0.5-0.3,1.1-0.3,1.7-0.4c0.6-0.1,0.6-0.2,0.5-0.8c-0.2-0.9-0.4-1.9-0.5-2.8c0-0.3,0-0.5-0.1-0.8C202.1,72,202.1,72,202.2,72z"/>
		<path class="st33" d="M202.1,72c-0.3-0.6,0-1.4-0.8-1.9c0.4,0,0.6,0,0.6,0.4C202,71,202.2,71.5,202.1,72z"/>
		<path class="st34" d="M197.2,66L197.2,66c-0.9,0.2-1.8,0.5-2.7,0.6c-0.5,0.1-0.9,0.3-1.6,0.2c1.3-0.3,2.6-0.5,3.8-0.8
			C196.8,66,197,66,197.2,66z"/>
		<path class="st35" d="M206.4,124.4c0.6-0.3,1.2-0.2,1.8-0.4c0.6-0.2,1.3-0.2,2-0.4c0.4-0.1,0.5,0,0.6,0.3c0.1,0.5,0.3,1,0.2,1.5
			l0,0c-0.2-0.3-0.3-0.7-0.3-1c-0.1-0.5-0.2-0.7-0.8-0.6c-0.5,0.1-1,0.2-1.5,0.4c-0.6,0.1-1.1,0.3-1.7,0.2
			C206.5,124.5,206.5,124.5,206.4,124.4z"/>
		<path class="st35" d="M201.6,132c1.4-0.3,2.8-0.7,4.3-0.8C205.2,131.5,202.1,132.1,201.6,132z"/>
		<path class="st35" d="M206.4,124.4h0.1c-0.5,0.3-1,0.3-1.5,0.4c-1,0.2-2,0.5-3,0.5l0,0c0.5-0.3,1-0.3,1.5-0.4
			C204.5,124.8,205.4,124.4,206.4,124.4z"/>
		<path class="st36" d="M211.2,130.4c-0.9,0.1-1.8,0.4-2.7,0.5c-0.5,0.1-0.9,0.3-1.6,0.2c1.3-0.3,2.6-0.5,3.8-0.8c0.2,0,0.3,0,0.5,0
			C211.3,130.3,211.3,130.3,211.2,130.4C211.2,130.3,211.2,130.4,211.2,130.4z"/>
		<path class="st37" d="M211.2,130.4v-0.1c0.4-0.1,0.5-0.4,0.4-0.8c-0.1-0.4-0.2-0.8-0.3-1.2c0-0.1,0.1-0.1,0.1,0
			c0.1,0.5,0.3,1.1,0.4,1.6c0.1,0.3,0,0.4-0.3,0.5C211.5,130.3,211.3,130.3,211.2,130.4z"/>
		<path class="st38" d="M211.5,128.2h-0.1c-0.1-0.6-0.2-1.2-0.3-1.8c-0.1-0.3-0.1-0.7-0.1-1l0,0c0.3,0.6,0.3,1.2,0.4,1.8
			C211.4,127.5,211.6,127.8,211.5,128.2z"/>
		<path class="st39" d="M212.9,155.3c0.6-0.3,1.2-0.3,1.8-0.4c0.4-0.1,0.4-0.2,0.4-0.5c-0.2-0.8-0.4-1.6-0.4-2.4
			c0.3,0.9,0.4,1.8,0.6,2.7c0,0.2-0.1,0.3-0.2,0.3C214.3,155,213.7,155.3,212.9,155.3z"/>
		<path class="st27" d="M212.9,155.3c-1.2,0.2-2.4,0.6-3.6,0.6C210.5,155.7,211.7,155.3,212.9,155.3z"/>
		<path class="st39" d="M209.8,150c1.1-0.2,2.3-0.4,3.4-0.7C212.5,149.6,210.4,150.1,209.8,150z"/>
		<path class="st39" d="M214.7,152c-0.2-0.3-0.2-0.5-0.1-0.8C214.7,151.6,214.7,151.8,214.7,152z"/>
		<path class="st25" d="M217.4,168.5c-0.7,0.3-1.5,0.4-2.3,0.4l0,0C215.9,168.6,216.6,168.4,217.4,168.5L217.4,168.5z"/>
		<path class="st25" d="M212.8,169.3c0.7-0.3,1.5-0.5,2.3-0.4l0,0C214.4,169.2,213.6,169.3,212.8,169.3L212.8,169.3z"/>
		<path class="st25" d="M212.8,169.3c-0.7,0.3-1.5,0.4-2.3,0.4C211.2,169.5,212,169.3,212.8,169.3L212.8,169.3z"/>
		<path class="st25" d="M210.5,169.8c-0.5,0.1-1,0.3-1.5,0.3C209.4,169.8,209.6,169.8,210.5,169.8z"/>
		<path class="st40" d="M217.6,137.3c0.3,0.8,0.4,1.7,0.6,2.5c0.1,0.4,0.1,0.9,0.2,1.3c0.1,0.3,0,0.4-0.3,0.4
			c-0.7,0.1-1.4,0.3-2.1,0.4c-2.6,0.5-5.3,1-7.9,1.5c-1.2,0.2-2.4,0.4-3.6,0.7c-0.4,0.1-0.5,0-0.6-0.3c-0.2-0.7-0.3-1.4-0.4-2
			c-0.3-1.3-0.5-2.7-0.8-4c0-0.2-0.1-0.3-0.1-0.5s0.1-0.4,0.3-0.4c0.6-0.1,1.3-0.3,1.9-0.4c1.4-0.2,2.8-0.5,4.2-0.8
			c1.5-0.3,3-0.6,4.4-0.9c0.1,0,0.2-0.1,0.3-0.1c0.1,0.1,0.4,0,0.3,0.3c-0.3,0.3-0.7,0.3-1,0.4c-3.1,0.6-6.1,1.2-9.2,1.8
			c-0.9,0.2-0.9,0.2-0.7,1c0.3,1.6,0.6,3.3,0.9,4.9c0.1,0.5,0.3,0.7,0.9,0.6c1.6-0.3,3.3-0.6,4.9-1c2.4-0.5,4.7-0.9,7.1-1.4
			c0.9-0.2,0.9-0.2,0.7-1.1c-0.2-0.8-0.4-1.6-0.4-2.5C217.4,137.6,217.4,137.4,217.6,137.3z"/>
		<path class="st41" d="M217.6,137.3c0,0.1,0,0.2-0.1,0.3c-0.4-0.6-0.4-1.3-0.5-2c-0.2-1-0.2-1-1.2-0.8c-0.4,0.1-0.8,0.2-1.1,0
			l-0.1-0.1c0.7-0.3,1.5-0.3,2.3-0.5c0.2,0,0.3,0.1,0.3,0.2C217.2,135.4,217.6,136.3,217.6,137.3z"/>
		<path class="st41" d="M214.1,134.9c-0.1,0-0.2,0-0.3-0.1c0.2,0,0.5,0,0.7,0C214.5,135,214.3,135,214.1,134.9z"/>
		<path class="st42" d="M205.1,106.2c-0.4-0.5-0.3-1-0.4-1.6c-0.2-1-0.4-2.1-0.6-3.1c-0.1-0.5-0.2-0.6-0.8-0.5s-1.1,0.3-1.7,0.2
			c0.7-0.3,1.5-0.3,2.3-0.5c0.2-0.1,0.3,0.2,0.3,0.4c0.2,1.1,0.4,2.1,0.6,3.2C205,104.9,205.2,105.5,205.1,106.2z"/>
		<path class="st43" d="M200.6,107.3c0.5-0.3,1-0.3,1.5-0.4c0.7-0.1,1.5-0.4,2.3-0.4c-0.5,0.3-1,0.3-1.5,0.4
			C202.1,107.1,201.4,107.4,200.6,107.3z"/>
		<path class="st43" d="M200.3,101.5c-1.1,0.3-2.1,0.5-3.2,0.6c0.6-0.3,1.2-0.3,1.8-0.4c0.5-0.1,0.9-0.2,1.4-0.3
			C200.4,101.4,200.4,101.5,200.3,101.5C200.4,101.5,200.4,101.5,200.3,101.5z"/>
		<path class="st43" d="M196.9,108.2c0-0.1,0-0.2,0.1-0.2c0.7-0.1,1.4-0.4,2.2-0.3c-0.6,0.3-1.2,0.3-1.8,0.4
			C197.2,108.1,197,108.1,196.9,108.2z"/>
		<path class="st42" d="M204.4,106.6c0.2-0.3,0.6-0.1,0.7-0.4c0.3,0.3,0,0.4-0.2,0.4C204.8,106.6,204.6,106.6,204.4,106.6z"/>
		<path class="st43" d="M199.2,107.6c0.2-0.2,0.5-0.1,0.7-0.1C199.7,107.7,199.4,107.6,199.2,107.6z"/>
		<path class="st44" d="M199.9,107.5c0.2-0.2,0.5-0.1,0.7-0.1C200.4,107.6,200.1,107.4,199.9,107.5z"/>
		<path class="st43" d="M197.2,102.1c-0.2,0.2-0.5,0.1-0.7,0.1C196.6,102,196.9,102.1,197.2,102.1z"/>
		<path class="st45" d="M201.6,101.2c-0.2,0.2-0.5,0.1-0.7,0.1C201.1,101.1,201.4,101.3,201.6,101.2z"/>
		<path class="st44" d="M200.3,101.5L200.3,101.5c0.2-0.1,0.4-0.1,0.6-0.1C200.8,101.6,200.5,101.5,200.3,101.5z"/>
		<path class="st46" d="M200.2,94.7c0.3-0.5,0-1,0-1.5c-0.3-1.7-0.6-3.4-1-5.1c0-0.2-0.1-0.4-0.2-0.6c-1.3,0.2-2.5,0.5-3.8,0.7
			c-0.7,0.1-1.3,0.3-2,0.4c0.3-0.4,0.8-0.3,1.2-0.4c1.4-0.3,2.9-0.6,4.4-0.9c0.4-0.1,0.6,0,0.7,0.4c0.4,2.1,0.8,4.3,1.2,6.4
			C200.8,94.5,200.6,94.6,200.2,94.7C200.1,94.8,200.1,94.8,200.2,94.7L200.2,94.7z"/>
		<path class="st47" d="M197.7,95.2c0.6-0.1,1.2-0.3,1.9-0.3C199,95.2,198.3,95.2,197.7,95.2C197.7,95.3,197.7,95.2,197.7,95.2
			L197.7,95.2z"/>
		<path class="st48" d="M197.7,95.2L197.7,95.2c-0.2,0.1-0.4,0.2-0.6,0.2c0,0-0.1-0.1,0-0.1l0,0C197.3,95.2,197.5,95.1,197.7,95.2z"
			/>
		<path class="st49" d="M195.8,95.6c0.2-0.2,0.5-0.1,0.7-0.1C196.4,95.7,196.1,95.6,195.8,95.6z"/>
		<path class="st50" d="M195.1,95.7c0.2-0.2,0.5-0.1,0.7-0.1C195.6,95.8,195.4,95.7,195.1,95.7z"/>
		<path class="st51" d="M197.2,95.3L197.2,95.3c-0.2,0.1-0.4,0.1-0.6,0.1C196.7,95.2,197,95.3,197.2,95.3z"/>
		<path class="st47" d="M200.2,94.7L200.2,94.7c-0.2,0.1-0.4,0.1-0.6,0.1C199.8,94.7,200,94.7,200.2,94.7z"/>
		<path class="st13" d="M104,88.2c0-0.5-0.1-1-0.2-1.4c0-0.2-0.1-0.4-0.1-0.6c0-0.3,0.1-0.5,0.4-0.5c1.6-0.2,3.3-0.6,4.9-1
			c3.6-0.7,7.2-1.4,10.8-2.1c2-0.4,4-0.8,5.9-1.2c2.7-0.5,5.3-1,8-1.6c2.8-0.5,5.6-1.1,8.4-1.6c2.9-0.6,5.8-1.1,8.7-1.7
			c2.3-0.4,4.6-0.9,6.9-1.3c2.9-0.6,5.8-1.1,8.7-1.7c2-0.4,4.1-0.7,6.1-1.1c0.6-0.1,0.7-0.1,0.8,0.5c0.5,2.1,1,4.3,1.4,6.5
			c0.6,3,1.2,6.1,1.8,9.1c0.6,2.9,1.1,5.8,1.7,8.7c0.3,1.6,0.6,3.2,0.9,4.7c0.1,0.6,0.1,0.5-0.5,0.7c-0.6,0.1-1.2,0.2-1.7,0.4
			c-0.3,0.3-0.6,0.3-0.9,0.3c-13.2,2.7-26.5,5.2-39.7,7.8c-6.5,1.3-12.9,2.5-19.4,3.8c-2.1,0.4-4.3,0.9-6.4,1.2
			c-1,0.2-1.1,0.1-1.3-0.9c-1.9-8.6-3.4-17.3-5.2-26C104,88.9,103.9,88.5,104,88.2z"/>
		<path class="st52" d="M104,88.2c0.3,0.9,0.4,1.8,0.6,2.7c0.5,2.4,0.9,4.7,1.4,7.1c0.5,2.6,1,5.2,1.5,7.9c0.6,2.9,1.1,5.9,1.8,8.8
			c0.1,0.4,0.2,0.7,0.2,1.1c0,0.3,0.2,0.4,0.4,0.3c1-0.2,2.1-0.4,3.1-0.6c2.9-0.6,5.8-1.1,8.7-1.7c2.8-0.6,5.7-1.1,8.5-1.7
			c2.6-0.5,5.2-1,7.9-1.5c2.6-0.5,5.1-1,7.7-1.5c2.6-0.5,5.3-1,7.9-1.5c2.6-0.5,5.1-1,7.7-1.5c2.9-0.6,5.8-1.1,8.7-1.7
			c2.1-0.4,4.1-0.8,6.1-1.2c0.2,0,0.5-0.1,0.7-0.1c0,0.6,0.2,1.2,0.2,1.8c0,0.2,0,0.4,0.1,0.6c0,0.3-0.1,0.4-0.4,0.4
			c-1.6,0.2-3.1,0.6-4.7,0.9c-2.4,0.4-4.7,0.9-7.1,1.4c-1.3,0.3-2.6,0.5-3.9,0.8c-2.2,0.4-4.4,0.8-6.6,1.3c-1.3,0.3-2.6,0.5-3.9,0.8
			c-2.2,0.4-4.3,0.8-6.5,1.3c-1.3,0.3-2.6,0.5-4,0.8c-2.2,0.4-4.3,0.8-6.5,1.3c-2.8,0.6-5.7,1.1-8.5,1.7c-2.1,0.4-4.3,0.8-6.4,1.2
			c-1.3,0.3-2.7,0.5-4,0.8c-2.3,0.5-4.6,0.9-6.9,1.3c-0.3,0.1-0.5,0-0.6-0.4c-0.5-1.7-0.8-3.4-1.1-5.1c-0.5-2.5-1-5.1-1.5-7.6
			c-0.4-2.1-0.8-4.3-1.2-6.4c-0.3-1.3-0.5-2.7-0.8-4c-0.4-2-0.8-4.1-1.2-6.1c-0.1-0.5,0.1-0.8,0.6-0.8
			C102.8,88.6,103.4,88.4,104,88.2z"/>
		<path class="st17" d="M174.6,69.3c-0.1-0.2,0.1-0.3,0.3-0.3c1.5-0.3,3-0.6,4.5-0.9c0.3-0.1,0.4,0,0.4,0.3c0.1,0.6,0.3,1.2,0.4,1.8
			c0.1,0.3,0,0.5-0.4,0.6c-0.6,0.1-1.2,0.2-1.8,0.3c-0.8,0.2-1.6,0.3-2.4,0.5c-0.5,0.1-0.6,0-0.7-0.5
			C174.9,70.6,174.8,70,174.6,69.3z"/>
		<path class="st17" d="M187,104.6c0,0.2-0.2,0.2-0.4,0.3c-1,0.2-2,0.4-3,0.6c-0.4,0.1-0.9,0.2-1.3,0.3c-0.3,0.1-0.5,0-0.5-0.3
			c-0.1-0.6-0.2-1.2-0.3-1.8c-0.1-0.5-0.1-0.5,0.4-0.6c1.2-0.2,2.5-0.5,3.7-0.7c1-0.2,1-0.2,1.2,0.8
			C186.8,103.6,186.9,104,187,104.6z"/>
		<path class="st17" d="M177.6,83.3c-0.2,0.1-0.3-0.1-0.3-0.3c-0.1-0.6-0.2-1.2-0.3-1.8c-0.1-0.5-0.1-0.6,0.4-0.7
			c0.8-0.2,1.7-0.3,2.5-0.5c0.6-0.1,1.2-0.2,1.8-0.3c0.3-0.1,0.5,0,0.5,0.3c0.1,0.6,0.2,1.3,0.4,1.9c0.1,0.3,0,0.4-0.3,0.5
			c-0.9,0.2-1.9,0.4-2.8,0.6C178.9,83.1,178.3,83.2,177.6,83.3z"/>
		<path class="st17" d="M184.3,90.6c0.1,0.7,0.3,1.3,0.4,2c0.1,0.5,0,0.6-0.5,0.7c-1.1,0.2-2.1,0.4-3.2,0.6
			c-0.4,0.1-0.8,0.1-1.1,0.2s-0.4,0-0.4-0.3c-0.1-0.7-0.3-1.3-0.4-2c-0.1-0.3,0.1-0.4,0.4-0.5c1.2-0.2,2.4-0.5,3.6-0.7
			C183.4,90.7,183.8,90.6,184.3,90.6z"/>
		<path class="st10" d="M214.1,134.9c0.2,0,0.3,0,0.4-0.1c0.6,0,1.2-0.1,1.8-0.2c0.4-0.1,0.6,0,0.7,0.4c0.2,0.9,0.3,1.8,0.5,2.7
			c0.3,0.9,0.4,1.8,0.6,2.7c0.2,1,0.2,1-0.8,1.2c-2.4,0.5-4.8,1-7.3,1.4c-1.8,0.3-3.6,0.7-5.4,1c-0.3,0-0.4,0-0.5-0.3
			c-0.4-2.2-0.8-4.3-1.3-6.5c1.7-0.3,3.4-0.6,5-0.9c1.3-0.2,2.6-0.5,3.9-0.8c0.7-0.1,1.4-0.3,2-0.4C213.9,135,214,135,214.1,134.9z"
			/>
		<path class="st53" d="M134.6,84.7c0.7-0.3,1.4-0.4,2.1-0.5c2.5-0.6,5.1-1.1,7.7-1.7c0.5-0.1,0.9-0.2,1.4-0.3
			c0.6-0.1,1,0.1,1.2,0.7c0.3,1.1,0.5,2.2,0.7,3.2c0.2,0.9,0,1.2-0.9,1.4c-1.7,0.4-3.5,0.8-5.2,1.2c-0.2,0-0.3,0.1-0.5,0.2
			c-0.1,0-0.1,0.1-0.1,0.1c-0.1,0.1,0.3,1.3,0.4,1.4c0.1,0.1,0.3,0,0.4,0c1.3-0.3,2.6-0.6,3.9-0.9c0.1,0,0.2-0.1,0.3-0.1
			c1.1-0.2,1.4,0,1.6,1c0.2,1,0.4,2,0.7,3c0.1,0.5-0.1,0.9-0.6,1.1c-0.4,0.1-0.9,0.2-1.3,0.3c-1.1,0.3-2.3,0.5-3.4,0.7
			c-0.4,0.1-0.5,0.2-0.4,0.6s0.2,0.7,0.2,1.1c0.1,0.5,0.2,0.6,0.7,0.5c1.3-0.3,2.6-0.6,3.9-0.9c0.6-0.1,1.2-0.3,1.8-0.4
			c0.7-0.1,1,0.1,1.2,0.8c0.2,0.7,0.3,1.3,0.4,2c0.1,0.4,0.2,0.7,0.3,1.1c0.2,0.9,0,1.3-0.9,1.5c-1.8,0.4-3.6,0.8-5.3,1.2
			c-1.6,0.4-3.3,0.7-4.9,1.1c-0.3,0.1-0.5,0.1-0.8,0.1c-0.7,0.2-0.9-0.4-1.1-0.8c-0.3-0.8-0.5-1.8-0.7-2.6c-0.4-1.6-0.7-3.2-1-4.8
			c-0.4-1.9-0.9-3.8-1.3-5.8c-0.2-1.1-0.5-2.3-0.8-3.4C134,86,134.1,85.3,134.6,84.7z"/>
		<path class="st53" d="M127.6,86.5c1.3,0.1,2.6,0.3,3.8,1.1c0.9,0.6,1.5,1.4,2,2.4c0.5,1.1,0.8,2.3,0.8,3.4c0,1.4-0.4,2.8-1.4,3.9
			c-0.4,0.5-0.4,0.5,0,1c1.5,1.6,2.9,3.2,4.4,4.8c0.6,0.6,0.4,1.6-0.6,1.7c-1.4,0.2-2.8,0.6-4.1,0.9c-0.6,0.2-1.1,0-1.5-0.6
			c-0.5-0.7-1.1-1.4-1.7-2.1c-0.7-0.8-1.4-1.6-2.1-2.4c-0.1-0.1-0.2-0.3-0.5-0.3c-0.4,0-0.5,0.1-0.5,0.5c0.3,1.5,0.7,3,1,4.5
			c0,0.2,0.1,0.4,0.1,0.6c0,0.6-0.2,0.9-0.8,1c-1.4,0.3-2.7,0.6-4.1,0.9c-0.6,0.1-1-0.2-1.1-0.7c-0.2-1-0.5-2-0.7-3
			c-0.9-4.2-1.9-8.4-2.8-12.6c-0.1-0.7-0.3-1.3-0.5-2s0.1-1.2,0.8-1.3c2.4-0.5,4.8-1.1,7.2-1.6C126.3,86.5,126.9,86.5,127.6,86.5z"
			/>
		<path class="st53" d="M160.4,78.9c0.6,0,0.8,0.1,1,0.7c0.2,0.5,0.3,1,0.4,1.5c0.1,0.6,0.3,1.3,0.4,1.9c0.1,0.8-0.1,1.1-0.9,1.3
			c-1.8,0.4-3.6,0.8-5.4,1.2c-0.4,0.1-0.5,0.2-0.4,0.7c0.1,0.4,0.2,0.8,0.3,1.2c0.1,0.4,0.2,0.5,0.7,0.4c1.5-0.3,3-0.7,4.4-1
			c0.7-0.2,1.2,0.1,1.4,0.9c0.2,1,0.4,2.1,0.7,3.1c0.2,0.8,0,1.1-0.8,1.3c-1.5,0.3-3,0.7-4.5,1c-0.5,0.1-0.5,0.1-0.4,0.7
			c0.4,1.7,0.7,3.3,1.1,5c0,0.1,0.1,0.3,0.1,0.4c0,0.6-0.1,0.9-0.7,1.1c-0.7,0.2-1.4,0.4-2.2,0.5c-0.6,0.1-1.2,0.2-1.8,0.4
			c-0.8,0.2-1.2,0-1.4-0.9s-0.4-1.8-0.6-2.7c-0.4-1.6-0.7-3.3-1.1-4.9c-0.7-3.3-1.5-6.7-2.2-10c-0.1-0.5,0.2-0.9,0.8-1.1
			s1.3-0.3,1.9-0.4c2.1-0.5,4.2-0.9,6.3-1.4c0.9-0.2,1.9-0.4,2.8-0.6C160.2,78.9,160.3,78.9,160.4,78.9z"/>
		<path class="st53" d="M134.6,84.7c0,0.2-0.1,0.4-0.1,0.6c-0.2,0.5-0.2,1,0,1.5s0.2,1.1,0.4,1.6c0.2,0.9,0.4,1.7,0.5,2.6
			c0.1,0.6,0.2,1.2,0.4,1.7c0.2,0.6,0.2,1.3,0.5,1.9c0.2,0.5,0.2,1,0.3,1.5c0.1,0.4,0.1,0.8,0.3,1.2c0.1,0.1,0,0.2,0,0.4
			c0,0.3,0,0.6,0.2,0.9c0.2,0.6,0.2,1.2,0.4,1.8c0.1,0.3,0,0.6,0.2,0.9c0,0.1,0.1,0.1,0.1,0.2c-0.1,0.6,0.2,1.1,0.3,1.6s0.4,1,1,1.1
			c-0.7,0.3-1.1,0.1-1.3-0.7c-0.3-1.5-0.7-2.9-1-4.4c-0.3-1.6-0.7-3.1-1-4.7c-0.6-2.7-1.2-5.5-1.8-8.2c0-0.2,0-0.4,0-0.6
			C133.9,85,133.9,84.9,134.6,84.7z"/>
		<path class="st14" d="M145.9,83c0.3,0.8,0.4,1.7,0.6,2.6c0.2,1,0.2,1-0.8,1.2c-1.8,0.4-3.7,0.8-5.5,1.2c-0.5,0.1-0.5,0.1-0.4,0.7
			c0.2,0.7,0.3,1.5,0.5,2.2c0.1,0.5,0.2,0.5,0.7,0.4c1.6-0.3,3.1-0.7,4.7-1c0.1,0,0.2,0,0.4-0.1s0.4,0,0.4,0.2c0.2,1,0.4,2,0.6,3
			c0.1,0.4-0.2,0.4-0.4,0.4c-1.1,0.2-2.2,0.5-3.3,0.7c-0.6,0.1-1.1,0.3-1.7,0.4c-0.3,0.1-0.5,0.2-0.4,0.6c0.2,0.9,0.4,1.9,0.6,2.8
			c0.1,0.5,0.2,0.5,0.7,0.4c1.3-0.3,2.6-0.6,3.9-0.9c0.7-0.2,1.5-0.3,2.2-0.5c0.5-0.1,0.6-0.1,0.7,0.4c0.2,0.9,0.4,1.7,0.6,2.6
			c0.1,0.4-0.1,0.5-0.4,0.5c-1.3,0.3-2.6,0.6-3.9,0.9c-2.2,0.5-4.5,1-6.7,1.5c-0.6,0.1-0.6,0.1-0.7-0.5c-0.3-1.3-0.6-2.6-0.9-3.9
			c-0.9-4.2-1.9-8.5-2.8-12.7c-0.1-0.6-0.1-0.7,0.6-0.8c2-0.4,4.1-0.9,6.1-1.3C143,83.7,144.4,83.4,145.9,83z"/>
		<path class="st14" d="M131.3,97.7c1.8,2,3.6,4,5.4,6.1c-0.6,0.3-1.2,0.3-1.8,0.5c-0.8,0.2-1.6,0.3-2.4,0.5c-0.4,0.1-0.6,0-0.9-0.3
			c-0.7-0.8-1.4-1.6-2.1-2.4c-0.7-0.8-1.3-1.6-2-2.4c-0.2-0.3-0.5-0.4-0.9-0.3c-0.3,0.1-0.6,0.1-0.9,0.2c-0.5,0.1-0.6,0.2-0.5,0.7
			c0.4,1.7,0.8,3.4,1.1,5.1c0.1,0.5,0.1,0.5-0.4,0.7c-1.1,0.3-2.3,0.5-3.4,0.8c-0.2,0.1-0.3,0-0.4-0.3c-0.5-2.2-1-4.3-1.4-6.5
			c-0.5-2.1-0.9-4.1-1.4-6.2c-0.3-1.4-0.6-2.8-0.9-4.1c0-0.1,0-0.2,0-0.4c-0.1-0.3,0-0.4,0.3-0.5c1.2-0.3,2.5-0.6,3.7-0.8
			c1-0.2,2.1-0.5,3.1-0.7c1.4-0.3,2.9-0.3,4.3,0.2c1,0.4,1.9,1,2.4,1.9c0.7,1.1,1.1,2.4,1,3.7c0,1.5-0.5,2.8-1.6,3.8
			C131.6,97.3,131.4,97.5,131.3,97.7z"/>
		<path class="st14" d="M161.2,83.1c0,0.2-0.2,0.3-0.4,0.3c-0.6,0.1-1.2,0.3-1.8,0.4c-1.5,0.3-3,0.7-4.4,1c-0.4,0.1-0.5,0.3-0.4,0.6
			c0.2,1,0.4,1.9,0.7,2.9c0.1,0.5,0.2,0.5,0.7,0.4c1.5-0.3,3-0.7,4.6-1c1-0.2,1-0.2,1.1,0.8c0.1,0.7,0.3,1.4,0.4,2
			c0.1,0.6,0.1,0.6-0.4,0.7c-1.1,0.3-2.3,0.5-3.5,0.8c-0.5,0.1-1.1,0.2-1.6,0.4c-0.4,0.1-0.4,0.2-0.4,0.6c0.5,1.9,0.9,3.8,1.3,5.7
			c0.1,0.6,0.1,0.6-0.5,0.8c-1,0.2-2,0.5-3,0.7c-0.6,0.1-0.7,0.1-0.8-0.5c-0.4-1.6-0.7-3.2-1.1-4.8c-0.9-4-1.8-7.9-2.6-11.9
			c-0.1-0.6-0.1-0.6,0.5-0.7c2.3-0.5,4.6-1,6.8-1.5c1.2-0.3,2.4-0.5,3.5-0.8c0.3-0.1,0.5,0,0.6,0.3
			C160.7,81.2,160.9,82.1,161.2,83.1C161.2,83,161.2,83,161.2,83.1z"/>
		<path class="st53" d="M129.1,93.4c0,1-0.5,1.7-1.3,2.1c-0.9,0.5-1.9,0.6-2.8,0.8c-0.3,0.1-0.5-0.1-0.6-0.4c-0.3-1.3-0.6-2.7-0.9-4
			c-0.1-0.3,0-0.3,0.3-0.4c1-0.2,1.9-0.5,2.9-0.5C128.1,90.9,129,91.6,129.1,93.4z"/>
		<path class="st13" d="M126.5,91.8c0.9,0,1.3,0.3,1.5,0.8c0.3,0.7,0.1,1.4-0.4,1.8c-0.6,0.5-1.4,0.6-2.2,0.8
			c-0.2,0-0.4-0.1-0.4-0.3c-0.2-0.8-0.3-1.6-0.5-2.4c-0.1-0.3,0.1-0.4,0.3-0.4C125.4,92,126.1,91.9,126.5,91.8z"/>
	</g>
</g>
</svg>
