<?xml version="1.0" encoding="utf-8"?>
<!-- Generator: Adobe Illustrator 23.0.0, SVG Export Plug-In . SVG Version: 6.00 Build 0)  -->
<svg version="1.1" xmlns="http://www.w3.org/2000/svg" xmlns:xlink="http://www.w3.org/1999/xlink" x="0px" y="0px"
	 viewBox="0 0 256 256" style="enable-background:new 0 0 256 256;" xml:space="preserve">
<style type="text/css">
	.st0{fill:url(#SVGID_1_);}
	.st1{fill:#9A9C9E;}
	.st2{display:none;}
</style>
<g id="Layer_1">
</g>
<g id="Layer_3">
	<g>
		<linearGradient id="SVGID_1_" gradientUnits="userSpaceOnUse" x1="44.6821" y1="52.9778" x2="234.2029" y2="223.6286">
			<stop  offset="1.990327e-02" style="stop-color:#BEBEBE"/>
			<stop  offset="0.2504" style="stop-color:#D3D3D3"/>
			<stop  offset="0.313" style="stop-color:#DFDFDF"/>
			<stop  offset="0.417" style="stop-color:#EDEDED"/>
			<stop  offset="0.5079" style="stop-color:#F2F2F2"/>
			<stop  offset="0.7779" style="stop-color:#D3D3D3"/>
			<stop  offset="1" style="stop-color:#BEBEBE"/>
		</linearGradient>
		<circle class="st0" cx="128" cy="128" r="128"/>
		<path class="st1" d="M128.1,256.3C57.6,256.3,0.2,199,0.2,128.4S57.6,0.5,128.1,0.5S256,57.9,256,128.4S198.6,256.3,128.1,256.3z
			 M128.1,16.6c-61.7,0-111.9,50.2-111.9,111.9c0,61.7,50.2,111.9,111.9,111.9c61.7,0,111.9-50.2,111.9-111.9
			C239.9,66.8,189.8,16.6,128.1,16.6z"/>
		<g>
			<path d="M145.6,189.2h-23.5v-88.4c-8.6,8-18.7,13.9-30.3,17.8V97.2c6.1-2,12.8-5.8,20-11.4c7.2-5.6,12.1-12.1,14.8-19.6h19V189.2
				z"/>
		</g>
	</g>
</g>
<g id="Layer_2" class="st2">
	
		<image style="display:inline;overflow:visible;opacity:0.24;" width="280" height="280" xlink:href="../../../../Downloads/281143196_753254199020451_4496145087272834974_n.png"  transform="matrix(0.8922 0 0 0.8922 -256.9377 3.0972)">
	</image>
</g>
</svg>
