<?xml version="1.0" encoding="utf-8"?>
<!-- Generator: Adobe Illustrator 23.0.0, SVG Export Plug-In . SVG Version: 6.00 Build 0)  -->
<svg version="1.1"
	 id="svg2759" inkscape:output_extension="org.inkscape.output.svg.inkscape" inkscape:version="0.45+devel" sodipodi:docname="by-nc-sa.svg" sodipodi:version="0.32" xmlns:cc="http://web.resource.org/cc/" xmlns:dc="http://purl.org/dc/elements/1.1/" xmlns:inkscape="http://www.inkscape.org/namespaces/inkscape" xmlns:rdf="http://www.w3.org/1999/02/22-rdf-syntax-ns#" xmlns:sodipodi="http://sodipodi.sourceforge.net/DTD/sodipodi-0.dtd" xmlns:svg="http://www.w3.org/2000/svg"
	 xmlns="http://www.w3.org/2000/svg" xmlns:xlink="http://www.w3.org/1999/xlink" x="0px" y="0px" viewBox="0 0 120 42"
	 style="enable-background:new 0 0 120 42;" xml:space="preserve">
<style type="text/css">
	.st0{fill:#8B36DB;}
	.st1{fill:url(#SVGID_1_);}
	.st2{fill:#FFFFFF;}
	.st3{fill-rule:evenodd;clip-rule:evenodd;fill:#FFFFFF;}
	.st4{enable-background:new    ;}
</style>
<path class="st0" d="M115.3,41.2H4.7c-2.6,0-4.7-2.1-4.7-4.6v-32C0,2.1,2.1,0,4.7,0h110.6c2.6,0,4.7,2.1,4.7,4.6v32
	C120,39.2,117.9,41.2,115.3,41.2z"/>
<linearGradient id="SVGID_1_" gradientUnits="userSpaceOnUse" x1="59.95" y1="42" x2="59.95" y2="28.7">
	<stop  offset="0" style="stop-color:#505050"/>
	<stop  offset="0.5459" style="stop-color:#535353"/>
	<stop  offset="0.9613" style="stop-color:#5D5D5D"/>
	<stop  offset="1" style="stop-color:#5E5E5E"/>
</linearGradient>
<path class="st1" d="M119,28.7h-6h-1.4h-2.3H36.5c-3,5.5-8.8,9.2-15.4,9.2c-6.6,0-12.3-3.7-15.3-9.1H0.9h-1v8c0,2.9,2.3,5.2,5.2,5.2
	h109.7c2.9,0,5.2-2.3,5.2-5.2v-8.1H119z"/>
<sodipodi:namedview  bordercolor="#8b8b8b" borderopacity="1" gridtolerance="10000" guidetolerance="10" height="42px" id="base" inkscape:current-layer="layer1" inkscape:cx="60" inkscape:cy="31" inkscape:document-units="px" inkscape:pageopacity="0.0" inkscape:pageshadow="2" inkscape:showpageshadow="false" inkscape:window-height="624" inkscape:window-width="1198" inkscape:window-x="170" inkscape:window-y="319" inkscape:zoom="1.8760684" objecttolerance="10" pagecolor="#ffffff" width="120px">
	</sodipodi:namedview>
<g id="g5706_5_" transform="translate(-289.6157,99.0653)">
	<path id="path5708_5_" class="st2" d="M321.6-90.6c3,3,4.5,6.7,4.5,11.1s-1.5,8-4.5,11c-3.2,3.1-6.9,4.7-11.2,4.7
		c-4.2,0-7.9-1.5-11-4.6s-4.6-6.8-4.6-11c0-4.3,1.5-8,4.6-11.1c3-3,6.7-4.5,11-4.5C314.9-95.2,318.6-93.6,321.6-90.6z M301.5-88.6
		c-2.6,2.6-3.8,5.6-3.8,9.1s1.3,6.5,3.8,9s5.5,3.8,9,3.8s6.5-1.3,9.1-3.8c2.5-2.4,3.7-5.4,3.7-9s-1.2-6.6-3.7-9.1s-5.5-3.7-9.1-3.7
		C307-92.3,304-91.1,301.5-88.6z M308.3-81c-0.4-0.9-1-1.3-1.8-1.3c-1.4,0-2.1,0.9-2.1,2.8s0.7,2.8,2.1,2.8c0.9,0,1.6-0.5,2-1.4
		l1.9,1c-0.9,1.6-2.3,2.4-4.1,2.4c-1.4,0-2.5-0.4-3.4-1.3c-0.8-0.9-1.3-2-1.3-3.6c0-1.5,0.4-2.7,1.3-3.5c0.9-0.9,2-1.3,3.3-1.3
		c1.9,0,3.3,0.8,4.1,2.3L308.3-81z M317.2-81c-0.4-0.9-1-1.3-1.7-1.3c-1.4,0-2.1,0.9-2.1,2.8s0.7,2.8,2.1,2.8c0.9,0,1.6-0.5,1.9-1.4
		l2,1c-0.9,1.6-2.3,2.4-4.1,2.4c-1.4,0-2.5-0.4-3.4-1.3c-0.8-0.9-1.3-2-1.3-3.6c0-1.5,0.4-2.7,1.3-3.5c0.9-0.9,1.9-1.3,3.3-1.3
		c1.9,0,3.3,0.8,4.1,2.3L317.2-81z"/>
</g>
<g id="g130">
	<path id="path132" class="st2" d="M54.9,12.1c0-0.4-0.3-0.7-0.7-0.7h-4.7c-0.4,0-0.7,0.3-0.7,0.7v4.7H50v5.6h3.6v-5.6h1.3
		L54.9,12.1L54.9,12.1z"/>
	
		<circle id="circle134" sodipodi:cx="491.93359" sodipodi:cy="84.090332" sodipodi:rx="1.63232" sodipodi:ry="1.63232" class="st2" cx="51.8" cy="9.1" r="1.6">
	</circle>
</g>
<path id="path136" class="st3" d="M51.7,3.4c-3.2,0-5.9,1.1-8.2,3.4s-3.4,5.1-3.4,8.2s1.1,5.9,3.4,8.2c2.3,2.3,5,3.4,8.2,3.4
	s6-1.1,8.3-3.4c2.2-2.2,3.3-4.9,3.3-8.1s-1.1-6-3.4-8.2C57.7,4.5,55,3.4,51.7,3.4z M51.8,5.5c2.6,0,4.9,0.9,6.7,2.8
	c1.9,1.8,2.8,4.1,2.8,6.7c0,2.7-0.9,4.9-2.7,6.6c-1.9,1.9-4.2,2.8-6.8,2.8s-4.8-0.9-6.7-2.8s-2.8-4.1-2.8-6.7s0.9-4.8,2.8-6.7
	C46.9,6.4,49.1,5.5,51.8,5.5z"/>
<g id="g138" class="st4">
	<path id="path140" class="st2" d="M48.4,32.7c0.3,0,0.6,0,0.9,0.1c0.3,0.1,0.5,0.1,0.7,0.3c0.2,0.1,0.3,0.3,0.4,0.5
		c0.1,0.2,0.2,0.5,0.2,0.8s-0.1,0.6-0.2,0.8c-0.2,0.2-0.4,0.4-0.7,0.5c0.4,0.1,0.7,0.3,0.9,0.6s0.3,0.6,0.3,1.1
		c0,0.3-0.1,0.6-0.2,0.9c-0.1,0.2-0.3,0.4-0.5,0.6c-0.2,0.2-0.5,0.3-0.8,0.3c-0.3,0.1-0.6,0.1-0.9,0.1h-3.2v-6.6L48.4,32.7
		L48.4,32.7z M48.2,35.4c0.3,0,0.5-0.1,0.6-0.2c0.2-0.1,0.3-0.3,0.3-0.6c0-0.2,0-0.3-0.1-0.4c-0.1-0.1-0.1-0.2-0.2-0.2
		c-0.1-0.1-0.2-0.1-0.3-0.1s-0.2,0-0.4,0h-1.4v1.5H48.2z M48.3,38.2c0.1,0,0.3,0,0.4,0c0.1,0,0.2-0.1,0.3-0.1
		c0.1-0.1,0.2-0.2,0.2-0.3c0.1-0.1,0.1-0.3,0.1-0.4c0-0.3-0.1-0.6-0.3-0.7c-0.2-0.1-0.4-0.2-0.8-0.2h-1.6v1.8L48.3,38.2L48.3,38.2z"
		/>
	<path id="path142" class="st2" d="M51.1,32.7h1.6l1.6,2.6l1.5-2.6h1.6L55,36.8v2.5h-1.5v-2.6L51.1,32.7z"/>
</g>
<g id="g144" class="st4">
	<path id="path146" class="st2" d="M98.4,37.7c0.1,0.2,0.2,0.3,0.3,0.4c0.1,0.1,0.3,0.2,0.5,0.2s0.4,0.1,0.6,0.1c0.1,0,0.3,0,0.4,0
		s0.3-0.1,0.4-0.1c0.1-0.1,0.2-0.1,0.3-0.3c0.1-0.1,0.1-0.2,0.1-0.4s-0.1-0.3-0.2-0.4c-0.1-0.1-0.3-0.2-0.4-0.3
		c-0.2-0.1-0.4-0.1-0.6-0.2c-0.2-0.1-0.5-0.1-0.7-0.2c-0.2-0.1-0.5-0.1-0.7-0.2c-0.2-0.1-0.4-0.2-0.6-0.3s-0.3-0.3-0.4-0.5
		s-0.2-0.5-0.2-0.8s0.1-0.6,0.2-0.9c0.1-0.3,0.3-0.5,0.6-0.6c0.2-0.2,0.5-0.3,0.8-0.4c0.3-0.1,0.6-0.1,0.9-0.1s0.7,0,1,0.1
		s0.6,0.2,0.8,0.4c0.2,0.2,0.4,0.4,0.6,0.7c0.1,0.3,0.2,0.6,0.2,1h-1.4c0-0.2-0.1-0.4-0.1-0.5c-0.1-0.1-0.2-0.2-0.3-0.3
		c-0.1-0.1-0.3-0.1-0.4-0.2c-0.2,0-0.3,0-0.5,0c-0.1,0-0.2,0-0.4,0c-0.1,0-0.2,0.1-0.3,0.1c-0.1,0.1-0.2,0.1-0.2,0.2
		c-0.1,0.1-0.1,0.2-0.1,0.4c0,0.1,0,0.2,0.1,0.3c0,0.1,0.1,0.2,0.3,0.2c0.1,0.1,0.3,0.1,0.6,0.2c0.3,0.1,0.6,0.2,1,0.3
		c0.1,0,0.3,0.1,0.5,0.1c0.2,0.1,0.4,0.2,0.7,0.3c0.2,0.1,0.4,0.3,0.6,0.6c0.2,0.2,0.2,0.5,0.2,0.9c0,0.3-0.1,0.6-0.2,0.8
		c-0.1,0.3-0.3,0.5-0.5,0.7s-0.5,0.3-0.9,0.4c-0.3,0.1-0.7,0.2-1.2,0.2c-0.4,0-0.7,0-1.1-0.1c-0.3-0.1-0.6-0.2-0.9-0.4
		s-0.5-0.4-0.6-0.7C97,38.1,97,37.8,97,37.3h1.4C98.3,37.4,98.4,37.6,98.4,37.7z"/>
	<path id="path148" class="st2" d="M106.6,32.7l2.5,6.6h-1.5l-0.5-1.5h-2.5l-0.5,1.5h-1.5l2.5-6.6H106.6z M106.7,36.8l-0.8-2.4l0,0
		l-0.9,2.4H106.7z"/>
</g>
<g id="g150" class="st4">
	<path id="path152" class="st2" d="M72.5,32.7l2.8,4.4l0,0v-4.4h1.4v6.6h-1.5l-2.8-4.4l0,0v4.4H71v-6.6H72.5z"/>
	<path id="path154" class="st2" d="M82.2,34.5c-0.1-0.1-0.2-0.3-0.3-0.4c-0.1-0.1-0.3-0.2-0.4-0.2c-0.2-0.1-0.3-0.1-0.5-0.1
		c-0.3,0-0.6,0.1-0.8,0.2c-0.2,0.1-0.4,0.3-0.6,0.5c-0.1,0.2-0.2,0.5-0.3,0.7c-0.1,0.3-0.1,0.6-0.1,0.8c0,0.3,0,0.5,0.1,0.8
		s0.2,0.5,0.3,0.7c0.1,0.2,0.3,0.4,0.6,0.5c0.2,0.1,0.5,0.2,0.8,0.2c0.4,0,0.8-0.1,1-0.4c0.3-0.3,0.4-0.6,0.5-1.1h1.4
		c0,0.4-0.1,0.8-0.3,1.1c-0.2,0.3-0.4,0.6-0.6,0.9c-0.3,0.2-0.6,0.4-0.9,0.5s-0.7,0.2-1.1,0.2c-0.5,0-1-0.1-1.4-0.3s-0.7-0.4-1-0.7
		s-0.5-0.7-0.6-1.1c-0.1-0.4-0.2-0.9-0.2-1.4s0.1-1,0.2-1.4s0.4-0.8,0.6-1.1c0.3-0.3,0.6-0.6,1-0.7c0.4-0.2,0.9-0.3,1.4-0.3
		c0.4,0,0.7,0.1,1,0.2c0.3,0.1,0.6,0.3,0.9,0.5s0.5,0.5,0.6,0.7s0.3,0.6,0.3,1h-1.4C82.3,34.8,82.3,34.7,82.2,34.5z"/>
</g>
<g id="g6336_1_" transform="translate(-23.9521,-89.72962)">
	<path id="path6338_1_" class="st2" d="M127.8,93.1c-3.2,0-5.9,1.1-8.1,3.4c-2.3,2.3-3.4,5.1-3.4,8.2c0,3.2,1.1,5.9,3.4,8.2
		c2.3,2.2,5,3.4,8.1,3.4c3.2,0,5.9-1.1,8.3-3.4c2.2-2.2,3.3-4.9,3.3-8.1s-1.1-6-3.4-8.2C133.8,94.2,131.1,93.1,127.8,93.1z
		 M127.9,95.2c2.6,0,4.9,0.9,6.7,2.8c1.9,1.8,2.8,4.1,2.8,6.7s-0.9,4.9-2.7,6.6c-1.9,1.9-4.2,2.8-6.7,2.8c-2.6,0-4.8-0.9-6.7-2.8
		c-1.9-1.9-2.8-4.1-2.8-6.7c0-2.6,0.9-4.8,2.9-6.7C123,96.1,125.3,95.2,127.9,95.2z"/>
	<path id="path6340_1_" class="st2" d="M122.7,103.1c0.4-2.9,2.5-4.5,5.1-4.5c3.7,0,5.9,2.7,5.9,6.2c0,3.5-2.4,6.2-6,6.2
		c-2.5,0-4.7-1.5-5.1-4.6h2.9c0.1,1.6,1.1,2.1,2.6,2.1c1.6,0,2.7-1.5,2.7-3.9c0-2.4-0.9-3.7-2.7-3.7c-1.2,0-2.4,0.4-2.6,2.1h0.9
		l-2.3,2.3l-2.3-2.3L122.7,103.1z"/>
</g>
<path id="path6365_1_" class="st2" d="M77.8,3.4c3.2,0,6,1.1,8.3,3.3c2.3,2.3,3.3,4.9,3.3,8.3c0,3.2-1.1,6-3.3,8.1
	c-2.3,2.3-5.2,3.4-8.3,3.4c-3.2,0-5.8-1.1-8.1-3.4c-2.3-2.3-3.4-5-3.4-8.1c0-3.2,1.1-6,3.4-8.3C71.9,4.5,74.6,3.4,77.8,3.4z
	 M68.9,11.9c-0.3,1-0.6,2.1-0.6,3.1c0,2.5,0.9,4.8,2.9,6.7c1.8,1.8,4.1,2.9,6.7,2.9c2.6,0,4.8-0.9,6.8-2.9c0.7-0.6,1.1-1.3,1.6-2.1
	l-4.4-1.9c-0.3,1.5-1.6,2.4-3.2,2.6v1.8h-1.4v-1.8c-1.3,0-2.5-0.6-3.6-1.4l1.6-1.6c0.8,0.7,1.5,1,2.6,1c0.7,0,1.5-0.2,1.5-1.1
	c0-0.3-0.1-0.6-0.3-0.7L78,16l-1.4-0.6c-0.7-0.3-1.3-0.6-1.8-0.8L68.9,11.9z M77.8,5.5c-2.6,0-4.8,0.9-6.7,2.8
	c-0.5,0.5-0.9,1-1.3,1.6l4.5,1.9c0.3-1.3,1.6-1.9,3-2.1V7.9h1.4v1.8c0.9,0,1.9,0.3,2.9,1l-1.5,1.6c-0.6-0.3-1.3-0.7-1.9-0.7
	c-0.6,0-1.4,0.2-1.4,0.9c0,0.1,0,0.2,0.1,0.3l1.5,0.7l1,0.5c0.7,0.2,1.3,0.6,1.8,0.8l6,2.6c0.2-0.8,0.3-1.6,0.3-2.5
	c0-2.6-0.9-4.9-2.8-6.8C82.8,6.4,80.5,5.5,77.8,5.5z"/>
</svg>
