<?xml version="1.0" encoding="utf-8"?>
<!-- Generator: Adobe Illustrator 23.0.0, SVG Export Plug-In . SVG Version: 6.00 Build 0)  -->
<svg version="1.1" id="Layer_1" xmlns="http://www.w3.org/2000/svg" xmlns:xlink="http://www.w3.org/1999/xlink" x="0px" y="0px"
	 viewBox="0 0 256 256" style="enable-background:new 0 0 256 256;" xml:space="preserve">
<style type="text/css">
	.st0{fill:url(#SVGID_1_);}
	.st1{display:none;}
	.st2{display:inline;}
	.st3{fill:#242938;}
	.st4{fill:url(#SVGID_2_);}
	.st5{fill:url(#SVGID_3_);}
	.st6{display:inline;fill-rule:evenodd;clip-rule:evenodd;fill:url(#SVGID_4_);}
	.st7{display:inline;fill-rule:evenodd;clip-rule:evenodd;fill:url(#SVGID_5_);}
	.st8{fill-rule:evenodd;clip-rule:evenodd;fill:url(#SVGID_6_);}
	.st9{fill-rule:evenodd;clip-rule:evenodd;fill:url(#SVGID_7_);}
</style>
<linearGradient id="SVGID_1_" gradientUnits="userSpaceOnUse" x1="26.4468" y1="220.7174" x2="257.4468" y2="12.7174" gradientTransform="matrix(1 0 0 -1 0 257.2756)">
	<stop  offset="1.990327e-02" style="stop-color:#BEBEBE"/>
	<stop  offset="0.2504" style="stop-color:#D3D3D3"/>
	<stop  offset="0.313" style="stop-color:#DFDFDF"/>
	<stop  offset="0.417" style="stop-color:#EDEDED"/>
	<stop  offset="0.5079" style="stop-color:#F2F2F2"/>
	<stop  offset="0.7779" style="stop-color:#D3D3D3"/>
	<stop  offset="1" style="stop-color:#BEBEBE"/>
</linearGradient>
<path class="st0" d="M60,0h136c33.1,0,60,26.9,60,60v136c0,33.1-26.9,60-60,60H60c-33.1,0-60-26.9-60-60V60C0,26.9,26.9,0,60,0z"/>
<g class="st1">
	<g class="st2">
		<path class="st3" d="M379-77h136c33.1,0,60,26.9,60,60v136c0,33.1-26.9,60-60,60H379c-33.1,0-60-26.9-60-60V-17
			C319-50.1,345.9-77,379-77z"/>
		
			<linearGradient id="SVGID_2_" gradientUnits="userSpaceOnUse" x1="365.683" y1="308.4384" x2="464.796" y2="406.5625" gradientTransform="matrix(1 0 0 1 0 -338)">
			<stop  offset="0" style="stop-color:#387EB8"/>
			<stop  offset="1" style="stop-color:#366994"/>
		</linearGradient>
		<path class="st4" d="M446.3-48c-50.8,0-47.6,22-47.6,22l0.1,22.8h48.5v6.8h-67.7c0,0-32.5-3.7-32.5,47.5s28.4,49.4,28.4,49.4h16.9
			V76.9c0,0-0.9-28.4,27.9-28.4h48.1c0,0,27,0.4,27-26.1v-43.9C495.2-21.5,499.3-48,446.3-48z M419.6-32.7c4.8,0,8.7,3.9,8.7,8.7
			s-3.9,8.7-8.7,8.7c-4.8,0-8.7-3.9-8.7-8.7S414.7-32.7,419.6-32.7z"/>
		
			<linearGradient id="SVGID_3_" gradientUnits="userSpaceOnUse" x1="426.4087" y1="371.5896" x2="532.8448" y2="472.2066" gradientTransform="matrix(1 0 0 1 0 -338)">
			<stop  offset="0" style="stop-color:#FFE052"/>
			<stop  offset="1" style="stop-color:#FFC331"/>
		</linearGradient>
		<path class="st5" d="M447.7,151c50.8,0,47.6-22,47.6-22l-0.1-22.8h-48.5v-6.8h67.7c0,0,32.5,3.7,32.5-47.5S518.5,2.5,518.5,2.5
			h-16.9v23.8c0,0,0.9,28.4-27.9,28.4h-48.1c0,0-27-0.4-27,26.1v43.9C398.8,124.4,394.7,151,447.7,151z M474.4,135.6
			c-4.8,0-8.7-3.9-8.7-8.7s3.9-8.7,8.7-8.7c4.8,0,8.7,3.9,8.7,8.7C483.2,131.7,479.3,135.6,474.4,135.6z"/>
	</g>
	
		<linearGradient id="SVGID_4_" gradientUnits="userSpaceOnUse" x1="-583.6683" y1="1.1888" x2="-583.3812" y2="1.4759" gradientTransform="matrix(398 0 0 406.124 232146 -185.0418)">
		<stop  offset="0" style="stop-color:#276DC3"/>
		<stop  offset="1" style="stop-color:#165CAA"/>
	</linearGradient>
	<path class="st6" d="M-74.4,354.8c0,0,6.3,1.9,9.9,3.7c1.3,0.6,3.4,1.9,5,3.6c1.5,1.6,2.3,3.3,2.3,3.3l24.7,41.6h-39.9l-18.7-35
		c0,0-3.8-6.6-6.2-8.5c-2-1.6-2.8-2.2-4.7-2.2c-1.4,0-9.5,0-9.5,0V407h-35.3V290.4h70.9c0,0,32.3,0.6,32.3,31.3
		S-74.4,354.8-74.4,354.8z M-89.8,315.7h-21.4v19.8h21.4c0,0,9.9,0,9.9-10.1C-79.9,315.2-89.8,315.7-89.8,315.7z"/>
	
		<linearGradient id="SVGID_5_" gradientUnits="userSpaceOnUse" x1="-583.5133" y1="1.206" x2="-583.2261" y2="1.4932" gradientTransform="matrix(721.094 0 0 482.937 420535.8125 -334.9942)">
		<stop  offset="0" style="stop-color:#CBCED0"/>
		<stop  offset="1" style="stop-color:#84838B"/>
	</linearGradient>
	<path class="st7" d="M-128.5,386.1c-57.2,0-103.5-31-103.5-69.3s46.4-69.3,103.5-69.3c57.2,0,103.5,31,103.5,69.3
		C-25,355-71.4,386.1-128.5,386.1z M-112.7,274.5c-43.5,0-78.7,21.2-78.7,47.4c0,26.2,35.2,47.4,78.7,47.4s75.5-14.5,75.5-47.4
		C-37.2,289-69.2,274.5-112.7,274.5z"/>
</g>
<linearGradient id="SVGID_6_" gradientUnits="userSpaceOnUse" x1="241.2739" y1="79.4361" x2="23.2739" y2="193.436" gradientTransform="matrix(1 0 0 -1 0 257.2756)">
	<stop  offset="0" style="stop-color:#CBCED0"/>
	<stop  offset="1" style="stop-color:#84838B"/>
</linearGradient>
<path class="st8" d="M127.8,185.2c-55,0-99.6-29.9-99.6-66.7s44.6-66.7,99.6-66.7s99.6,29.9,99.6,66.7
	C227.4,155.4,182.9,185.2,127.8,185.2z M143.1,77.9c-41.8,0-75.7,20.4-75.7,45.6s33.9,45.6,75.7,45.6s72.7-14,72.7-45.6
	S184.9,77.9,143.1,77.9z"/>
<linearGradient id="SVGID_7_" gradientUnits="userSpaceOnUse" x1="111.0769" y1="148.077" x2="171.0769" y2="88.077" gradientTransform="matrix(1 0 0 -1 0 257.2756)">
	<stop  offset="0" style="stop-color:#387EB8"/>
	<stop  offset="1" style="stop-color:#366994"/>
</linearGradient>
<path class="st9" d="M179.9,155.1c0,0,6,1.8,9.5,3.6c1.2,0.6,3.3,1.8,4.8,3.5c1.5,1.6,2.2,3.2,2.2,3.2l23.8,40.1h-38.4l-18-33.7
	c0,0-3.7-6.3-5.9-8.1c-1.9-1.5-2.7-2.1-4.6-2.1c-1.3,0-9.1,0-9.1,0v43.9h-34V93.2h68.2c0,0,31.1,0.6,31.1,30.1
	C209.6,152.9,179.9,155.1,179.9,155.1z M165.2,117.6h-20.6v19.1h20.6c0,0,9.5,0,9.5-9.7C174.7,117.1,165.2,117.6,165.2,117.6z"/>
</svg>
